<svg width="24" height="24" viewBox="0 0 24 24" fill="none" xmlns="http://www.w3.org/2000/svg">
<path fill-rule="evenodd" clip-rule="evenodd" d="M6.80525 2C4.70023 2 2.95542 3.63148 2.81426 5.73176L2.00772 17.7318C1.8525 20.0413 3.684 22 5.99872 22H17.9963C20.3104 22 22.1418 20.0422 21.9874 17.7332L21.1851 5.73317C21.0446 3.63229 19.2996 2 17.194 2H6.80525ZM4.80976 5.86588C4.88034 4.81574 5.75275 4 6.80525 4H17.194C18.2468 4 19.1193 4.81615 19.1895 5.86658L19.9918 17.8666C20.069 19.0211 19.1534 20 17.9963 20H5.99872C4.84136 20 3.92561 19.0206 4.00322 17.8659L4.80976 5.86588ZM8.99951 8C8.99951 7.44772 8.5518 7 7.99951 7C7.44723 7 6.99951 7.44772 6.99951 8C6.99951 9.32608 7.5263 10.5979 8.46398 11.5355C9.40166 12.4732 10.6734 13 11.9995 13C13.3256 13 14.5974 12.4732 15.535 11.5355C16.4727 10.5979 16.9995 9.32608 16.9995 8C16.9995 7.44772 16.5518 7 15.9995 7C15.4472 7 14.9995 7.44772 14.9995 8C14.9995 8.79565 14.6834 9.55871 14.1208 10.1213C13.5582 10.6839 12.7952 11 11.9995 11C11.2039 11 10.4408 10.6839 9.87819 10.1213C9.31558 9.55871 8.99951 8.79565 8.99951 8Z" fill="currentColor"/>
</svg>
