<svg width="24" height="24" viewBox="0 0 24 24" fill="none" xmlns="http://www.w3.org/2000/svg">
<path fill-rule="evenodd" clip-rule="evenodd" d="M12 2.00012C12.4195 2.00012 12.8025 2.23871 12.9874 2.61525L15.7357 8.2117L15.9798 8.70007H21.9C22.5075 8.70007 23 9.19256 23 9.80007C23 10.4076 22.5075 10.9001 21.9 10.9001H21.702L20.1899 19.2856C19.9065 20.8569 18.5389 22 16.9422 22H7.05853C5.46189 22 4.09426 20.8569 3.81091 19.2856L2.29876 10.9001H2.1C1.49249 10.9001 1 10.4076 1 9.80007C1 9.19256 1.49249 8.70007 2.1 8.70007H8.02016L8.26436 8.21168L11.0126 2.61525C11.1975 2.23871 11.5805 2.00012 12 2.00012ZM12 5.59562L13.5245 8.70007H10.4755L12 5.59562ZM9.80039 13.1C9.19288 13.1 8.70039 13.5925 8.70039 14.2V16.4C8.70039 17.0075 9.19288 17.5 9.80039 17.5C10.4079 17.5 10.9004 17.0075 10.9004 16.4V14.2C10.9004 13.5925 10.4079 13.1 9.80039 13.1ZM14.2002 13.1C13.5927 13.1 13.1002 13.5925 13.1002 14.2V16.4C13.1002 17.0076 13.5927 17.5 14.2002 17.5C14.8077 17.5 15.3002 17.0076 15.3002 16.4V14.2C15.3002 13.5925 14.8077 13.1 14.2002 13.1Z" fill="currentColor"/>
</svg>
