<svg width="24" height="24" viewBox="0 0 24 24" fill="none" xmlns="http://www.w3.org/2000/svg">
<path d="M9 11C10.1046 11 11 10.1046 11 9V3C11 1.89543 10.1046 1 9 1H3C1.89543 1 1 1.89543 1 3V9C1 10.1046 1.89543 11 3 11H9ZM21 11C22.1046 11 23 10.1046 23 9V3C23 1.89543 22.1046 1 21 1H15C13.8954 1 13 1.89543 13 3V9C13 10.1046 13.8954 11 15 11H21ZM6 9.7998C5.55817 9.7998 5.2002 9.44183 5.2002 9V6.79492H3.00488C2.5631 6.79492 2.20514 6.43689 2.20508 5.99512C2.20508 5.55329 2.56306 5.19531 3.00488 5.19531H5.2002V3C5.2002 2.55817 5.55817 2.2002 6 2.2002C6.44183 2.2002 6.7998 2.55817 6.7998 3V5.19531H9.00488C9.44671 5.19531 9.80469 5.55329 9.80469 5.99512C9.80462 6.43689 9.44667 6.79492 9.00488 6.79492H6.7998V9C6.7998 9.44183 6.44183 9.7998 6 9.7998ZM15 6.79492C14.5582 6.79492 14.2003 6.43689 14.2002 5.99512C14.2002 5.55329 14.5582 5.19531 15 5.19531H21C21.4418 5.19531 21.7998 5.55329 21.7998 5.99512C21.7997 6.43689 21.4418 6.79492 21 6.79492H15ZM9 23C10.1046 23 11 22.1046 11 21V15C11 13.8954 10.1046 13 9 13H3C1.89543 13 1 13.8954 1 15V21C1 22.1046 1.89543 23 3 23H9ZM21 23C22.1046 23 23 22.1046 23 21V15C23 13.8954 22.1046 13 21 13H15C13.8954 13 13 13.8954 13 15V21C13 22.1046 13.8954 23 15 23H21ZM18 16C17.4477 16 17 15.5523 17 15C17 14.4477 17.4477 14 18 14C18.5523 14 19 14.4477 19 15C19 15.5523 18.5523 16 18 16ZM8.69531 20.6836C8.38297 20.9958 7.87685 20.9957 7.56445 20.6836L6.00488 19.124L4.44531 20.6836C4.13295 20.9958 3.62685 20.9958 3.31445 20.6836C3.00207 20.3712 3.00216 19.8652 3.31445 19.5527L4.87305 17.9932L3.32129 16.4404C3.00929 16.128 3.00913 15.6219 3.32129 15.3096C3.63371 14.9972 4.14071 14.9972 4.45312 15.3096L6.00488 16.8623L7.55664 15.3096C7.86893 14.9973 8.37506 14.9976 8.6875 15.3096C8.9998 15.622 8.99988 16.129 8.6875 16.4414L7.13574 17.9932L8.69531 19.5527C9.00746 19.8652 9.00764 20.3713 8.69531 20.6836ZM15 18.7998C14.5582 18.7998 14.2002 18.4418 14.2002 18C14.2002 17.5582 14.5582 17.2002 15 17.2002H21C21.4418 17.2002 21.7998 17.5582 21.7998 18C21.7998 18.4418 21.4418 18.7998 21 18.7998H15ZM18 22C17.4477 22 17 21.5523 17 21C17 20.4477 17.4477 20 18 20C18.5523 20 19 20.4477 19 21C19 21.5523 18.5523 22 18 22Z" fill="currentColor"/>
</svg>
