<svg width="24" height="24" viewBox="0 0 24 24" fill="none" xmlns="http://www.w3.org/2000/svg">
<path fill-rule="evenodd" clip-rule="evenodd" d="M7 1C5.34315 1 4 2.34315 4 4V20C4 21.6569 5.34315 23 7 23H17C18.6569 23 20 21.6569 20 20V4C20 2.34315 18.6569 1 17 1H7ZM7.5 18C7.22386 18 7 18.2239 7 18.5V19.5C7 19.7761 7.22386 20 7.5 20H12.5C12.7761 20 13 19.7761 13 19.5V18.5C13 18.2239 12.7761 18 12.5 18H7.5ZM7 14.5C7 14.2239 7.22386 14 7.5 14H8.5C8.77614 14 9 14.2239 9 14.5V15.5C9 15.7761 8.77614 16 8.5 16H7.5C7.22386 16 7 15.7761 7 15.5V14.5ZM7.5 10C7.22386 10 7 10.2239 7 10.5V11.5C7 11.7761 7.22386 12 7.5 12H8.5C8.77614 12 9 11.7761 9 11.5V10.5C9 10.2239 8.77614 10 8.5 10H7.5ZM8 4C7.44772 4 7 4.44772 7 5V7C7 7.55229 7.44772 8 8 8H16C16.5523 8 17 7.55229 17 7V5C17 4.44772 16.5523 4 16 4H8ZM11 10.5C11 10.2239 11.2239 10 11.5 10H12.5C12.7761 10 13 10.2239 13 10.5V11.5C13 11.7761 12.7761 12 12.5 12H11.5C11.2239 12 11 11.7761 11 11.5V10.5ZM15.5 10C15.2239 10 15 10.2239 15 10.5V11.5C15 11.7761 15.2239 12 15.5 12H16.5C16.7761 12 17 11.7761 17 11.5V10.5C17 10.2239 16.7761 10 16.5 10H15.5ZM11.5 14C11.2239 14 11 14.2239 11 14.5V15.5C11 15.7761 11.2239 16 11.5 16H12.5C12.7761 16 13 15.7761 13 15.5V14.5C13 14.2239 12.7761 14 12.5 14H11.5ZM15 14.5C15 14.2239 15.2239 14 15.5 14H16.5C16.7761 14 17 14.2239 17 14.5V15.5C17 15.7761 16.7761 16 16.5 16H15.5C15.2239 16 15 15.7761 15 15.5V14.5ZM15 18.5C15 18.2239 15.2239 18 15.5 18H16.5C16.7761 18 17 18.2239 17 18.5V19.5C17 19.7761 16.7761 20 16.5 20H15.5C15.2239 20 15 19.7761 15 19.5V18.5Z" fill="currentColor"/>
</svg>
