<svg width="24" height="24" viewBox="0 0 24 24" fill="none" xmlns="http://www.w3.org/2000/svg">
<path fill-rule="evenodd" clip-rule="evenodd" d="M3.08414 5.02021C3.07591 5.01313 3.06831 5.00639 3.06129 5C3.06831 4.99361 3.07591 4.98687 3.08414 4.97979C3.2378 4.84769 3.51866 4.6834 3.95266 4.52558C4.81243 4.21293 6.06647 4 7.5 4C8.93353 4 10.1876 4.21293 11.0473 4.52558C11.4813 4.6834 11.7622 4.84769 11.9159 4.97979C11.9241 4.98687 11.9317 4.99361 11.9387 5C11.9317 5.00639 11.9241 5.01313 11.9159 5.02021C11.7622 5.15231 11.4813 5.3166 11.0473 5.47442C10.1876 5.78707 8.93353 6 7.5 6C6.06647 6 4.81243 5.78707 3.95266 5.47442C3.51866 5.3166 3.2378 5.15231 3.08414 5.02021ZM11.7308 7.35401C11.8216 7.32099 11.9115 7.28633 12 7.24996V9.43678C11.9854 9.45479 11.9595 9.48268 11.9159 9.5202C11.7622 9.65231 11.4813 9.8166 11.0473 9.97442C10.1876 10.2871 8.93353 10.5 7.5 10.5C6.06647 10.5 4.81243 10.2871 3.95266 9.97442C3.51866 9.8166 3.2378 9.65231 3.08414 9.5202C3.04049 9.48268 3.01461 9.45479 3 9.43678V7.24996C3.08852 7.28633 3.17837 7.32099 3.26917 7.35401C4.4 7.76522 5.89597 8 7.5 8C9.10403 8 10.6 7.76522 11.7308 7.35401ZM11.7308 11.854C11.8216 11.821 11.9115 11.7863 12 11.75V13.6822C11.8958 13.8389 11.7987 14.0009 11.7093 14.1675C11.4029 14.355 10.9138 14.5528 10.2435 14.7096C9.46991 14.8905 8.52727 15 7.5 15C6.06647 15 4.81243 14.7871 3.95266 14.4744C3.51866 14.3166 3.2378 14.1523 3.08414 14.0202C3.04049 13.9827 3.01461 13.9548 3 13.9368V11.75C3.08852 11.7863 3.17837 11.821 3.26917 11.854C4.4 12.2652 5.89597 12.5 7.5 12.5C9.10403 12.5 10.6 12.2652 11.7308 11.854ZM14 5V11.8027C14.8825 11.2922 15.9071 11 17 11C20.3137 11 23 13.6863 23 17C23 20.3137 20.3137 23 17 23C15.0584 23 13.3323 22.0778 12.2356 20.6475C11.7988 20.8486 11.3081 21.0089 10.7979 21.1334C9.8356 21.3682 8.70215 21.5 7.5 21.5C5.89597 21.5 4.4 21.2652 3.26917 20.854C2.70787 20.6499 2.18326 20.3832 1.78029 20.0368C1.38057 19.6931 1 19.1772 1 18.5V5C1 4.32275 1.38057 3.80688 1.78029 3.46322C2.18326 3.11678 2.70787 2.8501 3.26917 2.64599C4.4 2.23478 5.89597 2 7.5 2C9.10403 2 10.6 2.23478 11.7308 2.64599C12.2921 2.8501 12.8167 3.11678 13.2197 3.46322C13.6194 3.80688 14 4.32275 14 5ZM11.2989 18.8753C11.1203 18.3319 11.0171 17.7543 11.002 17.1549C11.0007 17.1034 11 17.0518 11 17C11 16.8581 11.0049 16.7174 11.0146 16.578C10.9105 16.6059 10.8052 16.6322 10.6989 16.6571C9.75876 16.877 8.66174 17 7.5 17C5.89597 17 4.4 16.7652 3.26917 16.354C3.17837 16.321 3.08852 16.2863 3 16.25V18.4368C3.01461 18.4548 3.04049 18.4827 3.08414 18.5202C3.2378 18.6523 3.51866 18.8166 3.95266 18.9744C4.81243 19.2871 6.06647 19.5 7.5 19.5C8.56369 19.5 9.53608 19.3826 10.3238 19.1904C10.7155 19.0948 11.04 18.986 11.2989 18.8753Z" fill="currentColor"/>
</svg>
