<svg width="24" height="24" viewBox="0 0 24 24" fill="none" xmlns="http://www.w3.org/2000/svg">
<path fill-rule="evenodd" clip-rule="evenodd" d="M11.0725 3.03683C11.5537 2.95331 12.0488 3.01257 12.4967 3.2073C12.7102 3.30008 12.9084 3.42167 13.0864 3.56779C12.4092 4.35537 12 5.37989 12 6.5C12 6.98658 12.0772 7.45513 12.2201 7.89405C11.9397 7.97837 11.6453 8.01324 11.3501 7.99551C10.8626 7.96622 10.3943 7.79478 10.0031 7.50234C9.61194 7.20991 9.31498 6.80929 9.14893 6.34998C8.98287 5.89066 8.955 5.39277 9.06874 4.91779C9.18248 4.44281 9.43287 4.01155 9.78896 3.67727C10.1451 3.343 10.5913 3.12035 11.0725 3.03683ZM13.2728 9.6361C12.6311 9.91112 11.9319 10.0341 11.2302 9.99191C10.3526 9.9392 9.50975 9.63059 8.80562 9.10421C8.10149 8.57783 7.56697 7.85672 7.26807 7.02996C6.96917 6.20319 6.91899 5.30698 7.12373 4.45202C7.32847 3.59705 7.77916 2.82079 8.42013 2.21909C9.0611 1.6174 9.86427 1.21663 10.7305 1.06629C11.5966 0.91595 12.4879 1.02262 13.2941 1.37313C13.834 1.60782 14.3198 1.94494 14.7264 2.36302C15.2706 2.12938 15.8702 2 16.5 2C18.9853 2 21 4.01472 21 6.5C21 8.98528 18.9853 11 16.5 11C15.2342 11 14.0904 10.4774 13.2728 9.6361ZM14 6.5C14 5.11929 15.1193 4 16.5 4C17.8807 4 19 5.11929 19 6.5C19 7.88071 17.8807 9 16.5 9C15.1193 9 14 7.88071 14 6.5ZM1 14C1 12.8954 1.89543 12 3 12H5C5.9479 12 6.74178 12.6594 6.94791 13.5446L8.53283 12.8818L8.54204 12.8776C8.55725 12.8708 8.5788 12.8612 8.60606 12.8492C8.66052 12.8252 8.73803 12.7916 8.83353 12.7516C9.02385 12.6719 9.28912 12.5653 9.58833 12.458C10.1413 12.2599 10.9678 12 11.6431 12C12.1223 12 12.599 12.0571 13.0643 12.1699L15.4497 12.75C16.543 13.0154 17.3491 13.9576 17.4048 15.0845L18.8879 14.0024C19.9069 13.2594 21.3292 13.3548 22.2353 14.2362C23.2547 15.2279 23.2556 16.8476 22.2347 17.8391L22.2218 17.8514L20.0776 19.9372C19.3555 20.6396 18.4379 21.116 17.4442 21.3095L14.3944 21.9029C13.649 22.0476 12.8797 22.0304 12.1408 21.8505L9.38268 21.1802L9.3804 21.1797C9.12935 21.118 8.87117 21.087 8.61029 21.087H6.99814C6.95258 22.1512 6.07541 23 5 23H3C1.89543 23 1 22.1046 1 21V14ZM5 20.087V15.0249V14H3V21H5V20.087ZM7 19.087H8.61029C9.0297 19.087 9.44765 19.1369 9.85611 19.2371L9.85723 19.2374L12.613 19.907C13.0708 20.0185 13.5488 20.0297 14.0125 19.9397L17.0618 19.3464C17.6791 19.2261 18.2437 18.931 18.6831 18.5036L20.8406 16.4048L20.8493 16.3964C21.0527 16.1909 21.0509 15.8743 20.8408 15.6698C20.6375 15.4721 20.3026 15.4463 20.0665 15.6183L17.5529 17.4521C17.019 17.8423 16.3734 18.0498 15.7138 18.0498H13.2856C12.7334 18.0498 12.2856 17.6021 12.2856 17.0498C12.2856 16.4975 12.7334 16.0498 13.2856 16.0498H14.8223L14.8311 16.0498C15.1761 16.0498 15.4079 15.7852 15.4079 15.5159V15.2091C15.4079 14.9836 15.2477 14.759 14.9784 14.6937L12.5929 14.1136C12.282 14.0382 11.9631 14 11.6431 14C11.3537 14 10.8245 14.1396 10.2631 14.3408C10.0051 14.4332 9.77345 14.5263 9.60617 14.5964C9.52287 14.6313 9.45639 14.6601 9.41158 14.6798L9.36144 14.7021L9.34984 14.7073L9.34784 14.7082C9.33792 14.7127 9.32776 14.7172 9.3177 14.7214L7 15.6906V19.087Z" fill="currentColor"/>
</svg>
