<svg width="24" height="24" viewBox="0 0 24 24" fill="none" xmlns="http://www.w3.org/2000/svg">
<path fill-rule="evenodd" clip-rule="evenodd" d="M23.0002 8C23.0002 11.5479 20.3607 14.4794 16.9382 14.9377C16.4535 10.8162 13.184 7.54667 9.0625 7.06204C9.52083 3.63955 12.4523 1 16.0002 1C19.8662 1 23.0002 4.13401 23.0002 8ZM15 16C15 19.866 11.866 23 8 23C4.13401 23 1 19.866 1 16C1 12.134 4.13401 9 8 9C11.866 9 15 12.134 15 16ZM5.20507 15.2219L5.05708 14.8055C4.99366 14.6301 4.98309 14.4511 5.02537 14.2685C5.06765 14.0858 5.15222 13.9324 5.27907 13.8082L6.69556 12.4274C6.99859 12.1425 7.3439 12 7.7315 12H8.40803C8.57717 12 8.71811 12.0621 8.83087 12.1863C8.94362 12.3105 9 12.4566 9 12.6247V19.3753C9 19.5434 8.94362 19.6895 8.83087 19.8137C8.71811 19.9379 8.57717 20 8.40803 20H7.7315C7.56942 20 7.42847 19.9379 7.30867 19.8137C7.19591 19.6895 7.13953 19.5434 7.13953 19.3753V14.1589H7.12896H7.11839L5.84989 15.3753C5.75123 15.4776 5.63143 15.5142 5.49049 15.4849C5.34954 15.4484 5.2544 15.3607 5.20507 15.2219Z" fill="currentColor"/>
</svg>
