<svg width="24" height="24" viewBox="0 0 24 24" fill="none" xmlns="http://www.w3.org/2000/svg">
<path fill-rule="evenodd" clip-rule="evenodd" d="M1 7C1 5.34315 2.34315 4 4 4H20C21.6569 4 23 5.34315 23 7V10V17C23 18.6569 21.6569 20 20 20H4C2.34315 20 1 18.6569 1 17V10V7ZM21 11H3V17C3 17.5523 3.44772 18 4 18H20C20.5523 18 21 17.5523 21 17V11ZM6 13C5.44772 13 5 13.4477 5 14C5 14.5523 5.44772 15 6 15H11C11.5523 15 12 14.5523 12 14C12 13.4477 11.5523 13 11 13H6ZM16 14C16 13.4477 16.4477 13 17 13H18C18.5523 13 19 13.4477 19 14V15C19 15.5523 18.5523 16 18 16H17C16.4477 16 16 15.5523 16 15V14Z" fill="currentColor"/>
</svg>
