<svg width="24" height="24" viewBox="0 0 24 24" fill="none" xmlns="http://www.w3.org/2000/svg">
<path fill-rule="evenodd" clip-rule="evenodd" d="M1 7C1 5.34315 2.34315 4 4 4H20C21.6569 4 23 5.34315 23 7V10V17C23 18.6569 21.6569 20 20 20H13.4142L13.7071 20.2929C14.0976 20.6834 14.0976 21.3166 13.7071 21.7071C13.3166 22.0976 12.6834 22.0976 12.2929 21.7071L10.2929 19.7071C9.90237 19.3166 9.90237 18.6834 10.2929 18.2929L12.2929 16.2929C12.6834 15.9024 13.3166 15.9024 13.7071 16.2929C14.0976 16.6834 14.0976 17.3166 13.7071 17.7071L13.4142 18H20C20.5523 18 21 17.5523 21 17V11H3V17C3 17.5523 3.44772 18 4 18H7C7.55228 18 8 18.4477 8 19C8 19.5523 7.55228 20 7 20H4C2.34315 20 1 18.6569 1 17V10V7ZM6 13C5.44772 13 5 13.4477 5 14C5 14.5523 5.44772 15 6 15H11C11.5523 15 12 14.5523 12 14C12 13.4477 11.5523 13 11 13H6ZM16 14C16 13.4477 16.4477 13 17 13H18C18.5523 13 19 13.4477 19 14V15C19 15.5523 18.5523 16 18 16H17C16.4477 16 16 15.5523 16 15V14Z" fill="currentColor"/>
</svg>
