<svg width="24" height="24" viewBox="0 0 24 24" fill="none" xmlns="http://www.w3.org/2000/svg">
<path fill-rule="evenodd" clip-rule="evenodd" d="M4 4C2.34315 4 1 5.34315 1 7V9V17C1 18.6569 2.34315 20 4 20H6C6.55228 20 7 19.5523 7 19C7 18.4477 6.55228 18 6 18H4C3.44772 18 3 17.5523 3 17V10H21V17C21 17.5523 20.5523 18 20 18H18C17.4477 18 17 18.4477 17 19C17 19.5523 17.4477 20 18 20H20C21.6569 20 23 18.6569 23 17V9V7C23 5.34315 21.6569 4 20 4H4ZM21 8V7C21 6.44772 20.5523 6 20 6H4C3.44772 6 3 6.44772 3 7V8H21ZM5 14C5 13.4477 5.44772 13 6 13H7.5C8.05228 13 8.5 13.4477 8.5 14C8.5 14.5523 8.05228 15 7.5 15H6C5.44772 15 5 14.5523 5 14ZM11 17.4142V21C11 21.5523 11.4477 22 12 22C12.5523 22 13 21.5523 13 21V17.4142L14.2929 18.7071C14.6834 19.0976 15.3166 19.0976 15.7071 18.7071C16.0976 18.3166 16.0976 17.6834 15.7071 17.2929L12.7071 14.2929C12.3166 13.9024 11.6834 13.9024 11.2929 14.2929L8.29289 17.2929C7.90237 17.6834 7.90237 18.3166 8.29289 18.7071C8.68342 19.0976 9.31658 19.0976 9.70711 18.7071L11 17.4142Z" fill="currentColor"/>
</svg>
