<svg width="24" height="24" viewBox="0 0 24 24" fill="none" xmlns="http://www.w3.org/2000/svg">
<path fill-rule="evenodd" clip-rule="evenodd" d="M4 4C2.34315 4 1 5.34315 1 7V9V17C1 18.6569 2.34315 20 4 20H13C13.5523 20 14 19.5523 14 19C14 18.4477 13.5523 18 13 18H4C3.44772 18 3 17.5523 3 17V10H21V13C21 13.5523 21.4477 14 22 14C22.5523 14 23 13.5523 23 13V9V7C23 5.34315 21.6569 4 20 4H4ZM21 8V7C21 6.44772 20.5523 6 20 6H4C3.44772 6 3 6.44772 3 7V8H21ZM5 14C5 13.4477 5.44772 13 6 13H11C11.5523 13 12 13.4477 12 14C12 14.5523 11.5523 15 11 15H6C5.44772 15 5 14.5523 5 14ZM21.7071 15.7929C22.0976 16.1834 22.0976 16.8166 21.7071 17.2071L20.1642 18.75L21.7071 20.2929C22.0976 20.6834 22.0976 21.3166 21.7071 21.7071C21.3166 22.0976 20.6834 22.0976 20.2929 21.7071L18.75 20.1642L17.2071 21.7071C16.8166 22.0976 16.1834 22.0976 15.7929 21.7071C15.4024 21.3166 15.4024 20.6834 15.7929 20.2929L17.3358 18.75L15.7929 17.2071C15.4024 16.8166 15.4024 16.1834 15.7929 15.7929C16.1834 15.4024 16.8166 15.4024 17.2071 15.7929L18.75 17.3358L20.2929 15.7929C20.6834 15.4024 21.3166 15.4024 21.7071 15.7929Z" fill="currentColor"/>
</svg>
