<svg width="24" height="24" viewBox="0 0 24 24" fill="none" xmlns="http://www.w3.org/2000/svg">
<path fill-rule="evenodd" clip-rule="evenodd" d="M1 7C1 5.34315 2.34315 4 4 4H20C21.6569 4 23 5.34315 23 7V10V12.5C23 13.0523 22.5523 13.5 22 13.5C21.4477 13.5 21 13.0523 21 12.5V11H3V17C3 17.5523 3.44772 18 4 18H10.5C11.0523 18 11.5 18.4477 11.5 19C11.5 19.5523 11.0523 20 10.5 20H4C2.34315 20 1 18.6569 1 17V10V7ZM6 13C5.44772 13 5 13.4477 5 14C5 14.5523 5.44772 15 6 15H11C11.5523 15 12 14.5523 12 14C12 13.4477 11.5523 13 11 13H6ZM21.7071 17.2071C22.0976 16.8166 22.0976 16.1834 21.7071 15.7929C21.3166 15.4024 20.6834 15.4024 20.2929 15.7929L16.5 19.5858L15.2071 18.2929C14.8166 17.9024 14.1834 17.9024 13.7929 18.2929C13.4024 18.6834 13.4024 19.3166 13.7929 19.7071L15.7929 21.7071C16.1834 22.0976 16.8166 22.0976 17.2071 21.7071L21.7071 17.2071Z" fill="currentColor"/>
</svg>
