<svg width="24" height="24" viewBox="0 0 24 24" fill="none" xmlns="http://www.w3.org/2000/svg">
<path fill-rule="evenodd" clip-rule="evenodd" d="M11.7071 2.29289C11.3166 1.90237 10.6834 1.90237 10.2929 2.29289C9.90237 2.68342 9.90237 3.31658 10.2929 3.70711L10.5858 4H4C2.34315 4 1 5.34315 1 7V10V17C1 18.6569 2.34315 20 4 20H7C7.55228 20 8 19.5523 8 19C8 18.4477 7.55228 18 7 18H4C3.44772 18 3 17.5523 3 17V11H21V17C21 17.5523 20.5523 18 20 18H13.4142L13.7071 17.7071C14.0976 17.3166 14.0976 16.6834 13.7071 16.2929C13.3166 15.9024 12.6834 15.9024 12.2929 16.2929L10.2929 18.2929C9.90237 18.6834 9.90237 19.3166 10.2929 19.7071L12.2929 21.7071C12.6834 22.0976 13.3166 22.0976 13.7071 21.7071C14.0976 21.3166 14.0976 20.6834 13.7071 20.2929L13.4142 20H20C21.6569 20 23 18.6569 23 17V10V7C23 5.34315 21.6569 4 20 4H17C16.4477 4 16 4.44772 16 5C16 5.55228 16.4477 6 17 6H20C20.5523 6 21 6.44772 21 7V9H3V7C3 6.44772 3.44772 6 4 6H10.5858L10.2929 6.29289C9.90237 6.68342 9.90237 7.31658 10.2929 7.70711C10.6834 8.09763 11.3166 8.09763 11.7071 7.70711L13.7071 5.70711C14.0976 5.31658 14.0976 4.68342 13.7071 4.29289L11.7071 2.29289ZM5 14C5 13.4477 5.44772 13 6 13H11C11.5523 13 12 13.4477 12 14C12 14.5523 11.5523 15 11 15H6C5.44772 15 5 14.5523 5 14ZM17 13C16.4477 13 16 13.4477 16 14V15C16 15.5523 16.4477 16 17 16H18C18.5523 16 19 15.5523 19 15V14C19 13.4477 18.5523 13 18 13H17Z" fill="currentColor"/>
</svg>
