<svg width="24" height="24" viewBox="0 0 24 24" fill="none" xmlns="http://www.w3.org/2000/svg">
<path fill-rule="evenodd" clip-rule="evenodd" d="M4 4C2.34315 4 1 5.34315 1 7V9V17C1 18.6569 2.34315 20 4 20H10.5C11.0523 20 11.5 19.5523 11.5 19C11.5 18.4477 11.0523 18 10.5 18H4C3.44772 18 3 17.5523 3 17V10H21V11C21 11.5523 21.4477 12 22 12C22.5523 12 23 11.5523 23 11V9V7C23 5.34315 21.6569 4 20 4H4ZM21 8V7C21 6.44772 20.5523 6 20 6H4C3.44772 6 3 6.44772 3 7V8H21ZM5 14C5 13.4477 5.44772 13 6 13H11C11.5523 13 12 13.4477 12 14C12 14.5523 11.5523 15 11 15H6C5.44772 15 5 14.5523 5 14ZM13.9133 18.4592C13.9984 18.1947 14.1453 17.9543 14.3418 17.7578L18.2871 13.8125C18.9706 13.1291 20.0786 13.129 20.762 13.8125L21.4691 14.5196C22.1525 15.203 22.1525 16.311 21.4691 16.9944L17.5237 20.9398C17.3273 21.1363 17.0869 21.2832 16.8224 21.3683L15.0841 21.9276C14.018 22.2707 13.0109 21.2636 13.354 20.1975L13.9133 18.4592ZM15.4024 18.8185C15.3744 18.8466 15.3534 18.8809 15.3412 18.9187L14.8565 20.4251L16.3629 19.9404C16.4007 19.9282 16.435 19.9072 16.4631 19.8792L18.8169 17.5253L17.7563 16.4646L15.4024 18.8185ZM20.4085 15.9338L19.8776 16.4646L18.8169 15.404L19.3478 14.8731C19.4454 14.7755 19.6037 14.7755 19.7014 14.8731L20.4085 15.5802C20.5061 15.6779 20.5061 15.8362 20.4085 15.9338Z" fill="currentColor"/>
</svg>
