<svg width="24" height="24" viewBox="0 0 24 24" fill="none" xmlns="http://www.w3.org/2000/svg">
<path fill-rule="evenodd" clip-rule="evenodd" d="M1 7C1 5.34315 2.34315 4 4 4H20C21.6569 4 23 5.34315 23 7V10V11C23 11.5523 22.5523 12 22 12C21.4477 12 21 11.5523 21 11H3V17C3 17.5523 3.44772 18 4 18H10.5C11.0523 18 11.5 18.4477 11.5 19C11.5 19.5523 11.0523 20 10.5 20H4C2.34315 20 1 18.6569 1 17V10V7ZM6 13C5.44772 13 5 13.4477 5 14C5 14.5523 5.44772 15 6 15H11C11.5523 15 12 14.5523 12 14C12 13.4477 11.5523 13 11 13H6ZM13.9138 18.4592C13.9989 18.1947 14.1458 17.9543 14.3423 17.7578L18.2876 13.8125C18.971 13.1291 20.0791 13.129 20.7625 13.8125L21.4696 14.5196C22.153 15.203 22.153 16.311 21.4696 16.9944L17.5242 20.9398C17.3278 21.1363 17.0873 21.2832 16.8229 21.3683L15.0845 21.9276C14.0185 22.2707 13.0114 21.2636 13.3545 20.1975L13.9138 18.4592ZM15.4029 18.8185C15.3748 18.8466 15.3539 18.8809 15.3417 18.9187L14.857 20.4251L16.3634 19.9404C16.4012 19.9282 16.4355 19.9072 16.4636 19.8792L18.8174 17.5253L17.7568 16.4646L15.4029 18.8185ZM20.409 15.9338L19.8781 16.4646L18.8174 15.404L19.3483 14.8731C19.4459 14.7755 19.6042 14.7755 19.7018 14.8731L20.409 15.5802C20.5066 15.6779 20.5066 15.8362 20.409 15.9338Z" fill="currentColor"/>
</svg>
