<svg width="24" height="24" viewBox="0 0 24 24" fill="none" xmlns="http://www.w3.org/2000/svg">
<path fill-rule="evenodd" clip-rule="evenodd" d="M1 7C1 5.34315 2.34315 4 4 4H20C21.6569 4 23 5.34315 23 7V10V12C23 12.5523 22.5523 13 22 13C21.4477 13 21 12.5523 21 12V11H3V17C3 17.5523 3.44772 18 4 18H13C13.5523 18 14 18.4477 14 19C14 19.5523 13.5523 20 13 20H4C2.34315 20 1 18.6569 1 17V10V7ZM6 13C5.44772 13 5 13.4477 5 14C5 14.5523 5.44772 15 6 15H11C11.5523 15 12 14.5523 12 14C12 13.4477 11.5523 13 11 13H6ZM16 15C15.4477 15 15 15.4477 15 16C15 16.5523 15.4477 17 16 17H22C22.5523 17 23 16.5523 23 16C23 15.4477 22.5523 15 22 15H16Z" fill="currentColor"/>
</svg>
