<svg width="24" height="24" viewBox="0 0 24 24" fill="none" xmlns="http://www.w3.org/2000/svg">
<path fill-rule="evenodd" clip-rule="evenodd" d="M4 4C2.34315 4 1 5.34315 1 7V9V17C1 18.6569 2.34315 20 4 20H20C21.6569 20 23 18.6569 23 17V9V7C23 5.34315 21.6569 4 20 4H4ZM21 8V7C21 6.44772 20.5523 6 20 6H4C3.44772 6 3 6.44772 3 7V8H21ZM3 10H21V17C21 17.5523 20.5523 18 20 18H4C3.44772 18 3 17.5523 3 17V10ZM5 14C5 13.4477 5.44772 13 6 13H11C11.5523 13 12 13.4477 12 14C12 14.5523 11.5523 15 11 15H6C5.44772 15 5 14.5523 5 14ZM17 13C16.4477 13 16 13.4477 16 14V15C16 15.5523 16.4477 16 17 16H18C18.5523 16 19 15.5523 19 15V14C19 13.4477 18.5523 13 18 13H17Z" fill="currentColor"/>
</svg>
