<svg width="24" height="24" viewBox="0 0 24 24" fill="none" xmlns="http://www.w3.org/2000/svg">
<path fill-rule="evenodd" clip-rule="evenodd" d="M4 4C2.34315 4 1 5.34315 1 7V9V17C1 18.6569 2.34315 20 4 20H11C11.5523 20 12 19.5523 12 19C12 18.4477 11.5523 18 11 18H4C3.44772 18 3 17.5523 3 17V10H21V12C21 12.5523 21.4477 13 22 13C22.5523 13 23 12.5523 23 12V9V7C23 5.34315 21.6569 4 20 4H4ZM21 8V7C21 6.44772 20.5523 6 20 6H4C3.44772 6 3 6.44772 3 7V8H21ZM5 14C5 13.4477 5.44772 13 6 13H11C11.5523 13 12 13.4477 12 14C12 14.5523 11.5523 15 11 15H6C5.44772 15 5 14.5523 5 14ZM17 21C17 21.5523 17.4477 22 18 22C18.5523 22 19 21.5523 19 21V17.4142L20.2929 18.7071C20.6834 19.0976 21.3166 19.0976 21.7071 18.7071C22.0976 18.3166 22.0976 17.6834 21.7071 17.2929L18.7071 14.2929C18.3166 13.9024 17.6834 13.9024 17.2929 14.2929L14.2929 17.2929C13.9024 17.6834 13.9024 18.3166 14.2929 18.7071C14.6834 19.0976 15.3166 19.0976 15.7071 18.7071L17 17.4142V21Z" fill="currentColor"/>
</svg>
