<svg width="24" height="24" viewBox="0 0 24 24" fill="none" xmlns="http://www.w3.org/2000/svg">
<path fill-rule="evenodd" clip-rule="evenodd" d="M4 4C2.34315 4 1 5.34315 1 7V9V17C1 18.6569 2.34315 20 4 20H10.5C11.0523 20 11.5 19.5523 11.5 19C11.5 18.4477 11.0523 18 10.5 18H4C3.44772 18 3 17.5523 3 17V10H21V12.5C21 13.0523 21.4477 13.5 22 13.5C22.5523 13.5 23 13.0523 23 12.5V9V7C23 5.34315 21.6569 4 20 4H4ZM21 8V7C21 6.44772 20.5523 6 20 6H4C3.44772 6 3 6.44772 3 7V8H21ZM5 14C5 13.4477 5.44772 13 6 13H11C11.5523 13 12 13.4477 12 14C12 14.5523 11.5523 15 11 15H6C5.44772 15 5 14.5523 5 14ZM21.7071 17.2071C22.0976 16.8166 22.0976 16.1834 21.7071 15.7929C21.3166 15.4024 20.6834 15.4024 20.2929 15.7929L16.5 19.5858L15.2071 18.2929C14.8166 17.9024 14.1834 17.9024 13.7929 18.2929C13.4024 18.6834 13.4024 19.3166 13.7929 19.7071L15.7929 21.7071C16.1834 22.0976 16.8166 22.0976 17.2071 21.7071L21.7071 17.2071Z" fill="currentColor"/>
</svg>
