<svg width="24" height="24" viewBox="0 0 24 24" fill="none" xmlns="http://www.w3.org/2000/svg">
<path fill-rule="evenodd" clip-rule="evenodd" d="M1 7C1 5.34315 2.34315 4 4 4H20C21.6569 4 23 5.34315 23 7V9V12C23 12.5523 22.5523 13 22 13C21.4477 13 21 12.5523 21 12V10H3V17C3 17.5523 3.44772 18 4 18H13C13.5523 18 14 18.4477 14 19C14 19.5523 13.5523 20 13 20H4C2.34315 20 1 18.6569 1 17V9V7ZM21 7V8H3V7C3 6.44772 3.44772 6 4 6H20C20.5523 6 21 6.44772 21 7ZM6 13C5.44772 13 5 13.4477 5 14C5 14.5523 5.44772 15 6 15H11C11.5523 15 12 14.5523 12 14C12 13.4477 11.5523 13 11 13H6ZM15 18C15 17.4477 15.4477 17 16 17H17.9998L18 14.9999C18 14.4476 18.4478 14 19.0001 14C19.5524 14 20 14.4478 20 15.0001L19.9998 17H22C22.5523 17 23 17.4477 23 18C23 18.5523 22.5523 19 22 19H19.9997L19.9995 21.0001C19.9995 21.5524 19.5517 22 18.9994 22C18.4471 22 17.9995 21.5522 17.9995 20.9999L17.9997 19H16C15.4477 19 15 18.5523 15 18Z" fill="currentColor"/>
</svg>
