<svg width="24" height="24" viewBox="0 0 24 24" fill="none" xmlns="http://www.w3.org/2000/svg">
<path fill-rule="evenodd" clip-rule="evenodd" d="M1 7C1 5.34315 2.34315 4 4 4H20C21.6569 4 23 5.34315 23 7V10V17C23 18.6569 21.6569 20 20 20H18C17.4477 20 17 19.5523 17 19C17 18.4477 17.4477 18 18 18H20C20.5523 18 21 17.5523 21 17V11H3V17C3 17.5523 3.44772 18 4 18H6C6.55228 18 7 18.4477 7 19C7 19.5523 6.55228 20 6 20H4C2.34315 20 1 18.6569 1 17V10V7ZM6 13C5.44772 13 5 13.4477 5 14C5 14.5523 5.44772 15 6 15H7.5C8.05228 15 8.5 14.5523 8.5 14C8.5 13.4477 8.05228 13 7.5 13H6ZM13 15C13 14.4477 12.5523 14 12 14C11.4477 14 11 14.4477 11 15V18.5858L9.70711 17.2929C9.31658 16.9024 8.68342 16.9024 8.29289 17.2929C7.90237 17.6834 7.90237 18.3166 8.29289 18.7071L11.2929 21.7071C11.6834 22.0976 12.3166 22.0976 12.7071 21.7071L15.7071 18.7071C16.0976 18.3166 16.0976 17.6834 15.7071 17.2929C15.3166 16.9024 14.6834 16.9024 14.2929 17.2929L13 18.5858V15Z" fill="currentColor"/>
</svg>
