<svg width="24" height="24" viewBox="0 0 24 24" fill="none" xmlns="http://www.w3.org/2000/svg">
<path fill-rule="evenodd" clip-rule="evenodd" d="M4 4C2.34315 4 1 5.34315 1 7V9V17C1 18.6569 2.34315 20 4 20H13C13.5523 20 14 19.5523 14 19C14 18.4477 13.5523 18 13 18H4C3.44772 18 3 17.5523 3 17V10H21V12C21 12.5523 21.4477 13 22 13C22.5523 13 23 12.5523 23 12V9V7C23 5.34315 21.6569 4 20 4H4ZM21 8V7C21 6.44772 20.5523 6 20 6H4C3.44772 6 3 6.44772 3 7V8H21ZM5 14C5 13.4477 5.44772 13 6 13H11C11.5523 13 12 13.4477 12 14C12 14.5523 11.5523 15 11 15H6C5.44772 15 5 14.5523 5 14ZM16 15C15.4477 15 15 15.4477 15 16C15 16.5523 15.4477 17 16 17H22C22.5523 17 23 16.5523 23 16C23 15.4477 22.5523 15 22 15H16Z" fill="currentColor"/>
</svg>
