<svg width="24" height="24" viewBox="0 0 24 24" fill="none" xmlns="http://www.w3.org/2000/svg">
<path fill-rule="evenodd" clip-rule="evenodd" d="M4 4C2.34315 4 1 5.34315 1 7V10V17C1 18.6569 2.34315 20 4 20H13C13.5523 20 14 19.5523 14 19C14 18.4477 13.5523 18 13 18H4C3.44772 18 3 17.5523 3 17V11H21V12C21 12.5523 21.4477 13 22 13C22.5523 13 23 12.5523 23 12V10V7C23 5.34315 21.6569 4 20 4H4ZM5 14C5 13.4477 5.44772 13 6 13H11C11.5523 13 12 13.4477 12 14C12 14.5523 11.5523 15 11 15H6C5.44772 15 5 14.5523 5 14ZM15 18C15 17.4477 15.4477 17 16 17H17.9998L18 14.9999C18 14.4476 18.4478 14 19.0001 14C19.5524 14 20 14.4478 20 15.0001L19.9998 17H22C22.5523 17 23 17.4477 23 18C23 18.5523 22.5523 19 22 19H19.9997L19.9995 21.0001C19.9995 21.5524 19.5517 22 18.9994 22C18.4471 22 17.9995 21.5522 17.9995 20.9999L17.9997 19H16C15.4477 19 15 18.5523 15 18Z" fill="currentColor"/>
</svg>
