<svg width="24" height="24" viewBox="0 0 24 24" fill="none" xmlns="http://www.w3.org/2000/svg">
<path fill-rule="evenodd" clip-rule="evenodd" d="M1 7C1 5.34315 2.34315 4 4 4H20C21.6569 4 23 5.34315 23 7V10V14C23 14.5523 22.5523 15 22 15C21.4477 15 21 14.5523 21 14V11H3V17C3 17.5523 3.44772 18 4 18H11C11.5523 18 12 18.4477 12 19C12 19.5523 11.5523 20 11 20H4C2.34315 20 1 18.6569 1 17V10V7ZM6 13C5.44772 13 5 13.4477 5 14C5 14.5523 5.44772 15 6 15H11C11.5523 15 12 14.5523 12 14C12 13.4477 11.5523 13 11 13H6ZM19 15C19 14.4477 18.5523 14 18 14C17.4477 14 17 14.4477 17 15V18.5858L15.7071 17.2929C15.3166 16.9024 14.6834 16.9024 14.2929 17.2929C13.9024 17.6834 13.9024 18.3166 14.2929 18.7071L17.2929 21.7071C17.6834 22.0976 18.3166 22.0976 18.7071 21.7071L21.7071 18.7071C22.0976 18.3166 22.0976 17.6834 21.7071 17.2929C21.3166 16.9024 20.6834 16.9024 20.2929 17.2929L19 18.5858V15Z" fill="currentColor"/>
</svg>
