<svg width="24" height="24" viewBox="0 0 24 24" fill="none" xmlns="http://www.w3.org/2000/svg">
<path fill-rule="evenodd" clip-rule="evenodd" d="M1 7C1 5.34315 2.34315 4 4 4H20C21.6569 4 23 5.34315 23 7V10V11.5C23 12.0523 22.5523 12.5 22 12.5C21.4477 12.5 21 12.0523 21 11.5V11H3V17C3 17.5523 3.44772 18 4 18H11C11.5523 18 12 18.4477 12 19C12 19.5523 11.5523 20 11 20H4C2.34315 20 1 18.6569 1 17V10V7ZM6 13C5.44772 13 5 13.4477 5 14C5 14.5523 5.44772 15 6 15H11C11.5523 15 12 14.5523 12 14C12 13.4477 11.5523 13 11 13H6ZM14 17.5V15C14 14.5911 14.2497 14.2231 14.6293 14.0712L14.6589 14.0594L14.7415 14.0268C14.8125 13.9988 14.9141 13.9589 15.0374 13.9112C15.2836 13.8159 15.6185 13.6883 15.9708 13.5602C16.3208 13.4329 16.6982 13.3014 17.0262 13.2005C17.1897 13.1502 17.3519 13.104 17.4985 13.0696C17.623 13.0403 17.8133 13 18 13C18.1867 13 18.377 13.0403 18.5015 13.0696C18.6481 13.104 18.8103 13.1502 18.9738 13.2005C19.3018 13.3014 19.6792 13.4329 20.0292 13.5602C20.3815 13.6883 20.7164 13.8159 20.9626 13.9112C21.0859 13.9589 21.1875 13.9988 21.2585 14.0268L21.3411 14.0594L21.3714 14.0715C21.751 14.2234 22 14.5919 22 15.0008V17.5C22 18.9815 20.9221 20.1166 20.1402 20.7682C19.7174 21.1206 19.2997 21.3985 18.9902 21.5877C18.8344 21.6829 18.7033 21.7572 18.6092 21.8087C18.5621 21.8345 18.5241 21.8547 18.4966 21.8691L18.4635 21.8862L18.4532 21.8914L18.4496 21.8932L18.4483 21.8939L18.4472 21.8944L18 21C17.5528 21.8944 17.552 21.894 17.5517 21.8939L17.5504 21.8932L17.5468 21.8914L17.5365 21.8862L17.5034 21.8691C17.4759 21.8547 17.4379 21.8345 17.3908 21.8087C17.2967 21.7572 17.1656 21.6829 17.0098 21.5877C16.7003 21.3985 16.2826 21.1206 15.8598 20.7682C15.0779 20.1166 14 18.9815 14 17.5ZM18 21L17.5528 21.8944C17.8343 22.0352 18.1657 22.0352 18.4472 21.8944C18.447 21.8946 18.4472 21.8944 18 21ZM16 17.5V15.6839C16.196 15.6091 16.4218 15.5243 16.6542 15.4398C16.9917 15.3171 17.3331 15.1986 17.6144 15.112C17.7557 15.0686 17.8707 15.0366 17.9566 15.0164C17.9738 15.0123 17.9882 15.0092 18 15.0067C18.0118 15.0092 18.0262 15.0123 18.0434 15.0164C18.1293 15.0366 18.2443 15.0686 18.3856 15.112C18.6669 15.1986 19.0083 15.3171 19.3458 15.4398C19.5782 15.5243 19.804 15.6091 20 15.6839V17.5C20 18.0185 19.5779 18.6334 18.8598 19.2318C18.5549 19.4859 18.2455 19.696 18 19.8486C17.7545 19.696 17.4451 19.4859 17.1402 19.2318C16.4221 18.6334 16 18.0185 16 17.5Z" fill="currentColor"/>
</svg>
