<svg width="24" height="24" viewBox="0 0 24 24" fill="none" xmlns="http://www.w3.org/2000/svg">
<path fill-rule="evenodd" clip-rule="evenodd" d="M13.969 2H10.031C10.0102 1.99935 9.98941 1.99935 9.96873 2H7C6.70322 2 6.42177 2.13182 6.23178 2.35982L1.23598 8.35477C1.08876 8.52893 1 8.7541 1 9C1 9.00369 1.00002 9.00738 1.00006 9.01107C1.00268 9.25265 1.09097 9.47369 1.23598 9.64523L11.2318 21.6402C11.4218 21.8682 11.7032 22 12 22C12.2968 22 12.5782 21.8682 12.7682 21.6402L22.764 9.64524C22.9112 9.47109 23 9.24591 23 9C23 8.75409 22.9112 8.52891 22.764 8.35476L17.7682 2.35982C17.5782 2.13182 17.2968 2 17 2H14.0313C14.0106 1.99935 13.9898 1.99935 13.969 2ZM19.865 8L16.5316 4H15.3875L16.7208 8H19.865ZM14.6126 8L13.2793 4H10.7207L9.38735 8H14.6126ZM9.3875 10H14.6125L12 17.8375L9.3875 10ZM7.27917 8L8.6125 4H7.46838L4.13504 8H7.27917ZM4.13504 10H7.27931L9.37549 16.2885L4.13504 10ZM16.7207 10H19.865L14.6245 16.2885L16.7207 10Z" fill="currentColor"/>
</svg>
