<svg width="24" height="24" viewBox="0 0 24 24" fill="none" xmlns="http://www.w3.org/2000/svg">
<path fill-rule="evenodd" clip-rule="evenodd" d="M10.4603 3.13269C12.3327 2.80758 14.2599 3.0835 15.9658 3.92089C17.2828 4.56734 18.4157 5.52281 19.2724 6.6979L18.1648 6.51322C17.62 6.42239 17.1047 6.79038 17.0139 7.33514C16.9231 7.87991 17.2911 8.39516 17.8358 8.48599L20.8352 8.98608C21.3205 9.067 21.7926 8.78285 21.9483 8.31609L22.9489 5.3161C23.1236 4.79219 22.8406 4.22582 22.3166 4.05108C21.7927 3.87634 21.2264 4.1594 21.0516 4.68331L20.8087 5.41162C19.7715 4.02483 18.4162 2.89574 16.8471 2.12553C14.7621 1.10205 12.4066 0.764822 10.1182 1.16217C7.82975 1.55952 5.72582 2.67105 4.10787 4.33749C2.48991 6.00393 1.44096 8.13975 1.11134 10.4389C1.03296 10.9856 1.4126 11.4923 1.9593 11.5707C2.50599 11.6491 3.01271 11.2694 3.09109 10.7227C3.36079 8.84162 4.21901 7.09413 5.5428 5.73067C6.86658 4.36722 8.58798 3.45779 10.4603 3.13269ZM1.836 19.9867C1.29123 19.8959 0.923211 19.3807 1.01401 18.8359L1.514 15.8359C1.5576 15.5743 1.70334 15.3407 1.91916 15.1866C2.13497 15.0324 2.40319 14.9703 2.66479 15.0139L5.6646 15.5139C6.20937 15.6047 6.57739 16.1199 6.4866 16.6647C6.3958 17.2095 5.88057 17.5775 5.3358 17.4867L4.79785 17.397C5.64733 18.5306 6.7567 19.4533 8.04063 20.0823C9.74578 20.9176 11.6714 21.1923 13.5421 20.867C15.4128 20.5416 17.1327 19.633 18.4557 18.271C19.7788 16.9091 20.6371 15.1635 20.908 13.2842C20.9868 12.7376 21.4939 12.3583 22.0405 12.4371C22.5871 12.5159 22.9664 13.0229 22.8876 13.5696C22.5565 15.8665 21.5073 18 19.8903 19.6646C18.2733 21.3292 16.1712 22.4398 13.8848 22.8374C11.5984 23.235 9.24481 22.8993 7.16074 21.8783C5.54343 21.086 4.15274 19.9125 3.10286 18.4683L2.98679 19.1647C2.896 19.7095 2.38077 20.0775 1.836 19.9867ZM11.0579 9.45697C11.0579 9.88427 11.5386 10.2047 12.957 10.7389C14.9926 11.457 15.865 12.4421 15.8413 14.0267C15.8413 15.641 14.6781 16.8991 12.8621 17.2671V18.0089C12.8621 18.5549 12.417 19 11.871 19C11.325 19 10.8799 18.5549 10.8799 18.0089V17.4036C10.2508 17.362 9.60391 17.2433 9.03418 17.0593C8.44664 16.8754 8.10242 16.2522 8.25673 15.6528L8.29234 15.5223C8.36355 15.2374 8.55346 14.9941 8.81459 14.8576C9.06978 14.7211 9.38432 14.6973 9.65732 14.7982C10.2745 15.0178 10.8917 15.1306 11.4971 15.1306C12.3992 15.1306 12.9333 14.8042 12.9333 14.2641C12.9333 13.7359 12.4704 13.3739 11.2775 12.9703C9.82349 12.4777 8.1499 11.6706 8.1499 9.74184C8.1499 8.19881 9.23002 7.0178 10.9926 6.62018V5.9911C10.9926 5.4451 11.4377 5 11.9837 5C12.5297 5 12.9748 5.4451 12.9748 5.9911V6.48368C13.4733 6.51335 13.9422 6.58457 14.3576 6.69733C14.9689 6.85757 15.3368 7.48071 15.1766 8.09199L15.1588 8.15134C15.0876 8.4362 14.8977 8.67953 14.6425 8.82196C14.3873 8.96439 14.0787 8.99407 13.7998 8.91098C13.325 8.76261 12.8443 8.69139 12.3279 8.69139C11.509 8.69139 11.0579 8.96439 11.0579 9.45697Z" fill="currentColor"/>
</svg>
