<svg width="24" height="24" viewBox="0 0 24 24" fill="none" xmlns="http://www.w3.org/2000/svg">
<path fill-rule="evenodd" clip-rule="evenodd" d="M12 4C11.4477 4 11 4.44772 11 5C11 5.55228 11.4477 6 12 6C12.5523 6 13 5.55228 13 5C13 4.44772 12.5523 4 12 4ZM9 5C9 3.34315 10.3431 2 12 2C13.6569 2 15 3.34315 15 5C15 5.31267 14.9522 5.61417 14.8634 5.89758L20.3333 10H21C22.1046 10 23 10.8954 23 12V20C23 21.1046 22.1046 22 21 22H3C1.89543 22 1 21.1046 1 20V12C1 10.8954 1.89543 10 3 10H3.6668L9.1366 5.89765C9.04784 5.61422 9 5.3127 9 5ZM10.3371 7.49731L7.00014 10H17L13.663 7.49727C13.187 7.81486 12.6151 8 12 8C11.3849 8 10.813 7.81488 10.3371 7.49731ZM13.0638 19C12.9378 19 12.8282 18.9534 12.735 18.8602C12.6474 18.7671 12.6035 18.6575 12.6035 18.5315V13.4685C12.6035 13.3425 12.6474 13.2329 12.735 13.1397C12.8282 13.0466 12.9378 13 13.0638 13H15.9734C16.0994 13 16.2062 13.0466 16.2939 13.1397C16.3871 13.2329 16.4336 13.3425 16.4336 13.4685V13.6575C16.4336 13.7836 16.3871 13.8931 16.2939 13.9863C16.2062 14.0794 16.0994 14.126 15.9734 14.126H14.0665C14.0227 14.126 14.0008 14.1479 14.0008 14.1918V15.2767C14.0008 15.326 14.0227 15.3507 14.0665 15.3507H15.809C15.935 15.3507 16.0419 15.3972 16.1295 15.4904C16.2227 15.5836 16.2693 15.6931 16.2693 15.8192V15.9425C16.2693 16.0685 16.2227 16.1781 16.1295 16.2712C16.0419 16.3644 15.935 16.4109 15.809 16.4109H14.0665C14.0227 16.4109 14.0008 16.4329 14.0008 16.4767V17.8082C14.0008 17.852 14.0227 17.874 14.0665 17.874H15.9734C16.0994 17.874 16.2062 17.9205 16.2939 18.0137C16.3871 18.1068 16.4336 18.2164 16.4336 18.3424V18.5315C16.4336 18.6575 16.3871 18.7671 16.2939 18.8602C16.2062 18.9534 16.0994 19 15.9734 19H13.0638ZM8.84624 15.7243V14.1676C8.84624 14.1189 8.87057 14.0892 8.91921 14.0784C9.04354 14.0568 9.18948 14.0459 9.35705 14.0459C10.0976 14.0459 10.4679 14.327 10.4679 14.8892C10.4679 15.1757 10.3679 15.4 10.1679 15.5622C9.96786 15.7189 9.67867 15.7973 9.30029 15.7973H8.91111C8.86786 15.7973 8.84624 15.773 8.84624 15.7243ZM7.63003 18.8622C7.72192 18.9541 7.83003 19 7.95435 19H8.38408C8.5084 19 8.61651 18.9541 8.7084 18.8622C8.8003 18.7703 8.84624 18.6622 8.84624 18.5378V16.8838C8.84624 16.8351 8.86786 16.8108 8.91111 16.8108H9.25165C9.47867 16.8108 9.64624 16.8514 9.75435 16.9324C9.86246 17.0135 9.95435 17.1676 10.03 17.3946L10.4354 18.5622C10.4787 18.6919 10.5571 18.7973 10.6706 18.8784C10.7841 18.9595 10.9111 19 11.0516 19H11.5462C11.6544 19 11.7408 18.9541 11.8057 18.8622C11.8706 18.7703 11.8841 18.673 11.8462 18.5703L11.3841 17.3378C11.2003 16.8514 10.976 16.5324 10.7111 16.3811C10.7003 16.3811 10.6949 16.3757 10.6949 16.3649C10.6949 16.3595 10.6976 16.3568 10.703 16.3568C11.0435 16.2324 11.3192 16.027 11.53 15.7405C11.7408 15.4486 11.8462 15.1216 11.8462 14.7595C11.8462 14.1973 11.6462 13.7649 11.2462 13.4622C10.8516 13.1541 10.2489 13 9.43813 13C8.93003 13 8.43543 13.0243 7.95435 13.073C7.82462 13.0838 7.71381 13.1378 7.62192 13.2351C7.53543 13.3324 7.49219 13.4486 7.49219 13.5838V18.5378C7.49219 18.6622 7.53813 18.7703 7.63003 18.8622ZM3.46849 19C3.34246 19 3.23288 18.9534 3.13973 18.8602C3.04658 18.7671 3 18.6575 3 18.5315V13.4685C3 13.3425 3.04658 13.2329 3.13973 13.1397C3.23288 13.0466 3.34246 13 3.46849 13H6.28766C6.41368 13 6.52327 13.0466 6.61642 13.1397C6.70957 13.2329 6.75615 13.3425 6.75615 13.4685V13.6575C6.75615 13.7836 6.70957 13.8931 6.61642 13.9863C6.52327 14.0794 6.41368 14.126 6.28766 14.126H4.47123C4.42191 14.126 4.39725 14.1479 4.39725 14.1918V15.4164C4.39725 15.4657 4.42191 15.4904 4.47123 15.4904H6.12327C6.2493 15.4904 6.35889 15.537 6.45204 15.6301C6.54519 15.7178 6.59177 15.8246 6.59177 15.9507V16.0822C6.59177 16.2082 6.54519 16.3178 6.45204 16.4109C6.35889 16.4986 6.2493 16.5424 6.12327 16.5424H4.47123C4.42191 16.5424 4.39725 16.5671 4.39725 16.6164V18.5315C4.39725 18.6575 4.35068 18.7671 4.25753 18.8602C4.16986 18.9534 4.06301 19 3.93698 19H3.46849ZM17.3014 18.8602C17.3945 18.9534 17.5041 19 17.6301 19H20.5397C20.6658 19 20.7726 18.9534 20.8603 18.8602C20.9534 18.7671 21 18.6575 21 18.5315V18.3424C21 18.2164 20.9534 18.1068 20.8603 18.0137C20.7726 17.9205 20.6658 17.874 20.5397 17.874H18.6329C18.5891 17.874 18.5671 17.852 18.5671 17.8082V16.4767C18.5671 16.4329 18.5891 16.4109 18.6329 16.4109H20.3753C20.5014 16.4109 20.6082 16.3644 20.6959 16.2712C20.789 16.1781 20.8356 16.0685 20.8356 15.9425V15.8192C20.8356 15.6931 20.789 15.5836 20.6959 15.4904C20.6082 15.3972 20.5014 15.3507 20.3753 15.3507H18.6329C18.5891 15.3507 18.5671 15.326 18.5671 15.2767V14.1918C18.5671 14.1479 18.5891 14.126 18.6329 14.126H20.5397C20.6658 14.126 20.7726 14.0794 20.8603 13.9863C20.9534 13.8931 21 13.7836 21 13.6575V13.4685C21 13.3425 20.9534 13.2329 20.8603 13.1397C20.7726 13.0466 20.6658 13 20.5397 13H17.6301C17.5041 13 17.3945 13.0466 17.3014 13.1397C17.2137 13.2329 17.1699 13.3425 17.1699 13.4685V18.5315C17.1699 18.6575 17.2137 18.7671 17.3014 18.8602Z" fill="currentColor"/>
</svg>
