<svg width="24" height="24" viewBox="0 0 24 24" fill="none" xmlns="http://www.w3.org/2000/svg">
<path fill-rule="evenodd" clip-rule="evenodd" d="M7.78877 3.28649C7.97106 3.1009 8.21441 3 8.46429 3C9.27397 3 9.89768 3.57581 10.3836 4.47527C10.4786 4.65116 10.5619 4.82865 10.6343 5H8.46429C8.21441 5 7.97106 4.8991 7.78877 4.71351C7.60589 4.5273 7.5 4.27097 7.5 4C7.5 3.72903 7.60589 3.4727 7.78877 3.28649ZM5.66952 5C5.55821 4.68133 5.5 4.34339 5.5 4C5.5 3.21011 5.80801 2.44902 6.36188 1.88508C6.91634 1.32053 7.67223 1 8.46429 1C10.259 1 11.3725 2.21845 12 3.27223C12.6275 2.21845 13.741 1 15.5357 1C16.3278 1 17.0837 1.32053 17.6381 1.88508C18.192 2.44902 18.5 3.21011 18.5 4C18.5 4.34339 18.4418 4.68133 18.3305 5H22C22.5523 5 23 5.44772 23 6V9C23 9.55229 22.5523 10 22 10H15H13H2C1.44772 10 1 9.55229 1 9V6C1 5.44772 1.44772 5 2 5H5.66952ZM16.2112 4.71351C16.0289 4.8991 15.7856 5 15.5357 5H15H13.3657C13.4381 4.82865 13.5214 4.65116 13.6164 4.47527C14.1023 3.57581 14.726 3 15.5357 3C15.7856 3 16.0289 3.1009 16.2112 3.28649C16.3941 3.4727 16.5 3.72903 16.5 4C16.5 4.27097 16.3941 4.5273 16.2112 4.71351ZM3 12H11V23H6C4.34315 23 3 21.6569 3 20V12ZM21 12H13V23H18C19.6569 23 21 21.6569 21 20V12Z" fill="currentColor"/>
</svg>
