<svg width="24" height="24" viewBox="0 0 24 24" fill="none" xmlns="http://www.w3.org/2000/svg">
<path fill-rule="evenodd" clip-rule="evenodd" d="M12.4339 2.07204C12.1481 2.00854 11.8519 2.00854 11.5661 2.07204L3.56614 3.84982C2.65106 4.05317 2 4.86479 2 5.80219V8.00002C2 9.10459 2.89543 10 4 10L4 16C2.89543 16 2 16.8954 2 18V20C2 21.1046 2.89543 22 4 22H20C21.1046 22 22 21.1046 22 20V18C22 16.8954 21.1046 16 20 16V10C21.1046 10 22 9.10459 22 8.00002V5.80219C22 4.86479 21.3489 4.05317 20.4339 3.84982L12.4339 2.07204ZM18 10H16V16H18V10ZM14 10V16H10V10H14ZM8 10H6V16H8V10Z" fill="currentColor"/>
</svg>
