<svg width="24" height="24" viewBox="0 0 24 24" fill="none" xmlns="http://www.w3.org/2000/svg">
<path fill-rule="evenodd" clip-rule="evenodd" d="M3 4C1.89543 4 1 4.89543 1 6V18C1 19.1046 1.89543 20 3 20H21C22.1046 20 23 19.1046 23 18V6C23 4.89543 22.1046 4 21 4H3ZM12 10C10.8954 10 10 10.8954 10 12C10 13.1046 10.8954 14 12 14C13.1046 14 14 13.1046 14 12C14 10.8954 13.1046 10 12 10ZM8 12C8 9.79086 9.79086 8 12 8C14.2091 8 16 9.79086 16 12C16 14.2091 14.2091 16 12 16C9.79086 16 8 14.2091 8 12ZM18 9C18.5523 9 19 9.44772 19 10V14C19 14.5523 18.5523 15 18 15C17.4477 15 17 14.5523 17 14V10C17 9.44772 17.4477 9 18 9ZM7 10C7 9.44772 6.55228 9 6 9C5.44772 9 5 9.44772 5 10V14C5 14.5523 5.44772 15 6 15C6.55228 15 7 14.5523 7 14V10Z" fill="currentColor"/>
</svg>
