<svg width="24" height="24" viewBox="0 0 24 24" fill="none" xmlns="http://www.w3.org/2000/svg">
<path fill-rule="evenodd" clip-rule="evenodd" d="M11.5 2C9.01472 2 7 4.01472 7 6.5L7.0567 7.21549L4.07082 12H4C3.44772 12 3 11.5523 3 11C3 10.6311 3.19922 10.3076 3.50073 10.1332C3.97879 9.85663 4.14215 9.2449 3.86561 8.76684C3.58906 8.28878 2.97733 8.12542 2.49927 8.40196C1.60518 8.91916 1 9.88832 1 11C1 12.6569 2.34315 14 4 14H4.07091C4.28686 15.5082 4.98384 16.862 5.99993 17.899L5.99992 20.2231C5.99988 20.3423 5.99982 20.4845 6.01006 20.6098C6.02193 20.755 6.05237 20.963 6.16342 21.181C6.30723 21.4632 6.5367 21.6927 6.81894 21.8365C7.03689 21.9476 7.24488 21.978 7.3901 21.9899C7.51538 22.0001 7.65759 22.0001 7.77668 22H7.77678L7.79993 22H9.69993L9.72308 22H9.72318C9.84227 22.0001 9.98448 22.0001 10.1098 21.9899C10.255 21.978 10.463 21.9476 10.6809 21.8365C10.9632 21.6927 11.1926 21.4632 11.3364 21.181C11.4475 20.963 11.4779 20.755 11.4898 20.6098C11.5 20.4845 11.5 20.3422 11.4999 20.2231L11.4999 20H12.4999L12.4999 20.2231C12.4999 20.3422 12.4998 20.4845 12.5101 20.6098C12.5219 20.755 12.5524 20.963 12.6634 21.181C12.8072 21.4632 13.0367 21.6927 13.3189 21.8365C13.5369 21.9476 13.7449 21.978 13.8901 21.9899C14.0154 22.0001 14.1576 22.0001 14.2767 22H14.2768L14.2999 22H16.2L16.2231 22H16.2232C16.3423 22.0001 16.4846 22.0001 16.6098 21.9899C16.755 21.978 16.963 21.9476 17.181 21.8365C17.4632 21.6927 17.6927 21.4632 17.8365 21.181C17.9476 20.963 17.978 20.755 17.9899 20.6098C18.0001 20.4846 18.0001 20.3423 18 20.2233V20.2232L18 20.2V19.3261C19.1062 18.8007 20.0517 17.9946 20.7452 17L21.2231 17C21.3422 17.0001 21.4845 17.0001 21.6098 16.9899C21.755 16.978 21.963 16.9476 22.181 16.8365C22.4632 16.6927 22.6927 16.4632 22.8365 16.181C22.9476 15.963 22.978 15.755 22.9899 15.6098C23.0001 15.4846 23.0001 15.3423 23 15.2232V15.2231L23 15.2L23 11.7637C23 11.6503 23.0001 11.5148 22.9908 11.3953C22.9908 11.3953 22.9457 11.0481 22.8514 10.8491C22.6858 10.4995 22.1509 10.1486 22.1509 10.1486C21.9411 10.0475 21.7428 10.02 21.6047 10.0092C21.5155 10.0023 21.4174 10.0005 21.3262 10.0001C20.9905 9.29338 20.5403 8.65244 20 8.10102V7.06058L20 7.03244V7.03234C20.0001 6.87753 20.0001 6.70232 19.9867 6.55161C19.9718 6.38517 19.9331 6.12784 19.7751 5.87279C19.578 5.5548 19.2693 5.32191 18.9094 5.21981C18.6207 5.13792 18.3627 5.17136 18.1986 5.20282C18.0499 5.23131 17.8814 5.27951 17.7326 5.32209L17.7055 5.32983L15.9506 5.83121C15.6276 3.66311 13.758 2 11.5 2ZM15.3958 8.00001C15.4266 8.00009 15.4897 8.00024 15.5551 7.99478C15.6105 7.99013 15.6657 7.98241 15.7203 7.97163C15.7846 7.95894 15.8451 7.94152 15.8745 7.93303L15.8824 7.93075L18.0001 7.32572V8.17018L17.9999 8.19587C17.9993 8.28743 17.998 8.47465 18.0411 8.65525C18.0784 8.81143 18.1354 8.94987 18.219 9.08705C18.316 9.24635 18.4573 9.38677 18.5285 9.45748L18.5495 9.47838C18.9584 9.89047 19.2956 10.3728 19.5416 10.905L19.5485 10.9199L19.5485 10.92C19.5884 11.0063 19.6325 11.1017 19.6746 11.182C19.7191 11.2665 19.7952 11.4019 19.9177 11.5313C20.0908 11.7141 20.2892 11.841 20.5277 11.9214C20.6901 11.9762 20.8631 11.9936 21.0001 11.9987V15H20.6588L20.626 14.9998C20.5102 14.9988 20.2736 14.9967 20.052 15.063C19.8607 15.1203 19.696 15.207 19.5406 15.3324C19.3598 15.4782 19.2191 15.6872 19.1479 15.793L19.1266 15.8245C18.62 16.5628 17.9207 17.1582 17.1027 17.538L17.087 17.5453L17.0869 17.5453C16.9968 17.5871 16.897 17.6334 16.8131 17.6779C16.7246 17.7249 16.5833 17.8055 16.45 17.9362C16.2824 18.1004 16.1648 18.2847 16.0864 18.5059C15.9954 18.7623 15.9983 19.0455 15.9998 19.1845L16.0001 19.2243V20H14.5L14.5 19.7769C14.5001 19.6578 14.5001 19.5155 14.4899 19.3902C14.478 19.245 14.4476 19.037 14.3365 18.819C14.1927 18.5368 13.9632 18.3073 13.681 18.1635C13.463 18.0524 13.255 18.022 13.1098 18.0101C12.9845 17.9999 12.8423 17.9999 12.7232 18H12.7231L12.7 18H11.3L11.2769 18H11.2768C11.1577 17.9999 11.0155 17.9999 10.8902 18.0101C10.745 18.022 10.537 18.0524 10.319 18.1635C10.0368 18.3073 9.8073 18.5368 9.66349 18.819C9.55244 19.037 9.522 19.245 9.51013 19.3902C9.49989 19.5155 9.49995 19.6577 9.49999 19.7768V19.7769L9.5 20H8V17.8298L8.00013 17.8041C8.00078 17.7126 8.0021 17.5253 7.95896 17.3448C7.92166 17.1885 7.86463 17.0501 7.78109 16.913C7.68407 16.7537 7.54274 16.6132 7.47156 16.5425L7.4506 16.5216C6.55286 15.6168 6 14.374 6 13C6 10.2865 8.16157 8.07784 10.8567 8.00201C10.9043 8.00067 10.9521 8 11 8H15.3875L15.3958 8.00001ZM9.009 6.28721C9.58495 6.11664 10.1919 6.01818 10.8193 6.00229C10.8794 6.00076 10.9396 6 11 6H13.9501C13.7184 4.85888 12.7095 4 11.5001 4C10.191 4 9.11698 5.0061 9.009 6.28721Z" fill="currentColor"/>
</svg>
