<svg width="24" height="24" viewBox="0 0 24 24" fill="none" xmlns="http://www.w3.org/2000/svg">
<path fill-rule="evenodd" clip-rule="evenodd" d="M8.88377 7.29866C8.88549 6.34903 9.16617 5.74599 9.52756 5.35442C9.90157 4.94918 10.4455 4.68108 11.1098 4.56447C12.4992 4.32055 14.0543 4.79399 14.7635 5.46763C15.1639 5.84799 15.7969 5.83172 16.1772 5.43129C16.5576 5.03086 16.5413 4.3979 16.1409 4.01754C14.8984 2.83737 12.6703 2.25992 10.7639 2.59459C9.78026 2.76728 8.79816 3.19585 8.05785 3.99798C7.30577 4.81286 6.88434 5.92597 6.88376 7.30455H6.88368L6.88384 7.31773C6.90159 8.70868 7.50521 9.73547 7.99126 10.5623C8.02458 10.6189 8.05735 10.6747 8.08934 10.7295C8.43417 11.3208 8.72915 11.8615 8.88398 12.5H6.50006C5.94777 12.5 5.50006 12.9477 5.50006 13.5C5.50006 14.0523 5.94777 14.5 6.50006 14.5H8.92515C8.71452 15.9043 8.08978 17.0982 7.43749 18.0076C7.0391 18.563 6.64032 18.998 6.34333 19.2921C6.19528 19.4387 6.07379 19.549 5.99205 19.6205C5.95122 19.6562 5.92043 19.6821 5.90134 19.6979L5.88174 19.714L5.88103 19.7146C5.88085 19.7147 5.88068 19.7149 5.8805 19.715C5.88035 19.7151 5.8802 19.7153 5.88004 19.7154C5.87982 19.7156 5.87959 19.7157 5.87937 19.7159C5.87929 19.716 5.87921 19.716 5.87913 19.7161C5.54595 19.98 5.41594 20.4258 5.55524 20.8276C5.6948 21.2301 6.07404 21.5 6.50006 21.5H17.5001C18.0523 21.5 18.5001 21.0523 18.5001 20.5C18.5001 19.9477 18.0523 19.5 17.5001 19.5H8.81985C8.90038 19.3953 8.9815 19.2864 9.06263 19.1733C9.87521 18.0405 10.7184 16.4448 10.9426 14.5H15.0001C15.5523 14.5 16.0001 14.0523 16.0001 13.5C16.0001 12.9477 15.5523 12.5 15.0001 12.5H10.9219C10.7346 11.3294 10.2442 10.4545 9.81702 9.722C9.80359 9.69896 9.79026 9.67613 9.77705 9.65348C9.24853 8.74771 8.8963 8.14406 8.88377 7.29866Z" fill="currentColor"/>
</svg>
