<svg width="24" height="24" viewBox="0 0 24 24" fill="none" xmlns="http://www.w3.org/2000/svg">
<path fill-rule="evenodd" clip-rule="evenodd" d="M5.00004 3C5.00004 2.44772 5.44775 2 6.00004 2H18C18.5523 2 19 2.44772 19 3C19 3.55228 18.5523 4 18 4H13.586C14.3177 4.86428 14.7578 5.91694 14.9241 7H18C18.5523 7 19 7.44772 19 8C19 8.55228 18.5523 9 18 9H14.9241C14.7512 10.126 14.2823 11.2191 13.4976 12.1019C12.4652 13.2633 10.9381 14 9.00004 14H8.52161L15.1854 20.2718C15.5876 20.6503 15.6068 21.2832 15.2282 21.6854C14.8497 22.0875 14.2168 22.1067 13.8147 21.7282L5.31467 13.7282C5.01612 13.4472 4.91933 13.0125 5.07047 12.6314C5.2216 12.2502 5.59005 12 6.00004 12H9.00004C10.3954 12 11.3685 11.4867 12.0028 10.7731C12.4404 10.2809 12.7405 9.66559 12.8902 9H6.00004C5.44775 9 5.00004 8.55228 5.00004 8C5.00004 7.44772 5.44775 7 6.00004 7H12.8902C12.7405 6.33441 12.4404 5.71909 12.0028 5.22688C11.3685 4.51331 10.3954 4 9.00004 4H6.00004C5.44775 4 5.00004 3.55228 5.00004 3Z" fill="currentColor"/>
</svg>
