<svg width="24" height="24" viewBox="0 0 24 24" fill="none" xmlns="http://www.w3.org/2000/svg">
<path d="M14.5 7C14.5 7 22 12 22 17C22 22 18 22 18 22H6C6 22 2 22 2 17C2 12.0021 9.49373 7.00515 9.5 7.00098C9.5 7.00098 10.9548 7 12 7H14.5ZM12 8.99609C11.4675 8.99635 11.0322 9.43231 11.0322 9.96484V10.6426C10.6642 10.7249 10.296 10.8562 9.95703 11.0547C9.28405 11.4566 8.70235 12.1582 8.70703 13.1797C8.71187 14.1627 9.28835 14.7833 9.90332 15.1514C10.4358 15.4709 11.0992 15.6742 11.627 15.8291L11.71 15.8535C12.3197 16.0374 12.7652 16.1824 13.0654 16.3711C13.3124 16.5261 13.3467 16.633 13.3516 16.7686C13.3564 17.0106 13.264 17.1563 13.0654 17.2773C12.8233 17.4273 12.4407 17.5194 12.0293 17.5049C11.4919 17.4855 10.9884 17.3154 10.3301 17.0928C10.2187 17.054 10.1015 17.0153 9.98047 16.9766C9.47217 16.8075 8.92529 17.0835 8.75586 17.5869C8.58642 18.0905 8.86268 18.643 9.36621 18.8125C9.45806 18.8415 9.55965 18.8754 9.66113 18.9141C10.063 19.0545 10.5286 19.2138 11.0273 19.3203V20.0273C11.0273 20.5599 11.4627 20.9958 11.9951 20.9961C12.5278 20.9961 12.9639 20.56 12.9639 20.0273V19.3594C13.3512 19.2771 13.7393 19.1417 14.0879 18.9238C14.7803 18.4928 15.3026 17.7562 15.2881 16.7441C15.2735 15.7613 14.7222 15.1266 14.0977 14.7295C13.5408 14.3809 12.8431 14.1676 12.3008 14.0029L12.2666 13.9941C11.647 13.8054 11.2064 13.6693 10.8965 13.4854C10.6452 13.3355 10.6397 13.2482 10.6396 13.1611C10.6396 12.982 10.7072 12.8455 10.9395 12.71C11.2008 12.5551 11.5981 12.463 11.9805 12.4678C12.4453 12.4726 12.9595 12.5745 13.4922 12.7197C14.0103 12.8552 14.5383 12.5503 14.6787 12.0322C14.819 11.5142 14.5083 10.9861 13.9902 10.8457C13.6756 10.7634 13.3269 10.6811 12.9688 10.6182V9.96484C12.9688 9.43216 12.5327 8.99609 12 8.99609ZM15.1943 2C15.5266 2.00019 15.7249 2.37059 15.541 2.64746L13.9785 5H9.99316L8.43066 2.64746C8.24664 2.37052 8.44484 2 8.77734 2H15.1943Z" fill="currentColor"/>
</svg>
