<svg width="24" height="24" viewBox="0 0 24 24" fill="none" xmlns="http://www.w3.org/2000/svg">
<path d="M14.5 7C14.5 7 22 12 22 17C22 22 18 22 18 22H6C6 22 2 22 2 17C2 12.0021 9.49373 7.00515 9.5 7.00098C9.5 7.00098 10.9548 7 12 7H14.5ZM15.707 11.293C15.3165 10.9025 14.6835 10.9025 14.293 11.293L8.29297 17.293C7.90244 17.6835 7.90244 18.3165 8.29297 18.707C8.6835 19.0975 9.31652 19.0975 9.70703 18.707L15.707 12.707C16.0975 12.3165 16.0975 11.6835 15.707 11.293ZM14.75 16.5C14.0596 16.5 13.5 17.0596 13.5 17.75C13.5 18.4403 14.0597 19 14.75 19C15.4403 19 16 18.4403 16 17.75C16 17.0597 15.4403 16.5 14.75 16.5ZM9.25 11C8.55964 11 8 11.5596 8 12.25C8 12.9404 8.55964 13.5 9.25 13.5C9.94036 13.5 10.5 12.9404 10.5 12.25C10.5 11.5596 9.94036 11 9.25 11ZM15.1943 2C15.5266 2.00019 15.7249 2.37059 15.541 2.64746L13.9785 5H9.99316L8.43066 2.64746C8.24664 2.37052 8.44484 2 8.77734 2H15.1943Z" fill="currentColor"/>
</svg>
