<svg width="24" height="24" viewBox="0 0 24 24" fill="none" xmlns="http://www.w3.org/2000/svg">
<path fill-rule="evenodd" clip-rule="evenodd" d="M8.34018 4.97841C8.7423 4.28643 9.40465 3.7815 10.1815 3.5747L15.7047 2.10438C17.3224 1.67373 18.9852 2.62751 19.4187 4.2347L20.8986 9.722C21.1068 10.4938 20.9978 11.3161 20.5957 12.0081L15.6642 20.4941C14.8268 21.9351 12.9722 22.4288 11.5218 21.5968L4.51869 17.5799C3.06829 16.7479 2.57134 14.9054 3.40873 13.4644L8.34018 4.97841ZM17.5182 6.48191C17.0683 7.25622 16.0717 7.52152 15.2923 7.07447C14.5129 6.62742 14.2459 5.63731 14.6959 4.86299C15.1458 4.08868 16.1424 3.82338 16.9218 4.27043C17.7012 4.71748 17.9682 5.70759 17.5182 6.48191ZM15.6397 11.5371C15.6385 11.3963 15.5788 11.2919 15.4605 11.2241L15.2364 11.0955C14.8816 10.892 14.5334 10.8984 14.1919 11.1148L7.64879 15.1543C7.53166 15.2273 7.47368 15.3342 7.47483 15.475C7.47958 15.6097 7.54109 15.7109 7.65936 15.7788L7.88346 15.9073C8.23829 16.1109 8.58648 16.1044 8.92803 15.888L15.4711 11.8486C15.5882 11.7756 15.6444 11.6718 15.6397 11.5371ZM12.4014 16.124C12.7501 15.5241 13.1018 15.3259 13.4566 15.5294C13.6309 15.6294 13.7221 15.7724 13.7302 15.9584C13.7383 16.1445 13.6471 16.4014 13.4566 16.7292C13.1044 17.3353 12.754 17.5383 12.4054 17.3384C12.0505 17.1348 12.0492 16.73 12.4014 16.124ZM11.8447 18.3032C12.4112 18.6281 12.9453 18.7159 13.447 18.5667C13.9487 18.4174 14.3721 18.046 14.7171 17.4522C15.0622 16.8585 15.1725 16.3116 15.0481 15.8115C14.9274 15.3052 14.5837 14.8895 14.0173 14.5646C13.4508 14.2397 12.9136 14.1501 12.4056 14.2957C11.9075 14.4388 11.4859 14.8072 11.1409 15.4009C10.7958 15.9946 10.6837 16.5446 10.8045 17.0509C10.9315 17.5608 11.2782 17.9782 11.8447 18.3032ZM9.66333 10.2737C10.0155 9.6676 10.3659 9.46453 10.7146 9.66449C11.0694 9.86802 11.0707 10.2728 10.7185 10.8789C10.3699 11.4788 10.0181 11.677 9.6633 11.4735C9.489 11.3735 9.39781 11.2305 9.38973 11.0444C9.38165 10.8584 9.47285 10.6015 9.66333 10.2737ZM9.10264 12.4383C9.66911 12.7632 10.2014 12.8541 10.6996 12.7111C11.2075 12.5654 11.634 12.1957 11.979 11.602C12.3241 11.0082 12.4331 10.4564 12.3061 9.94656C12.1853 9.44025 11.8417 9.02463 11.2752 8.6997C10.7087 8.37477 10.1746 8.28693 9.6729 8.43618C9.17117 8.58543 8.74779 8.95691 8.40276 9.55063C8.05774 10.1443 7.94561 10.6944 8.06638 11.2007C8.19074 11.7008 8.53616 12.1133 9.10264 12.4383Z" fill="currentColor"/>
</svg>
