<svg width="24" height="24" viewBox="0 0 24 24" fill="none" xmlns="http://www.w3.org/2000/svg">
<path fill-rule="evenodd" clip-rule="evenodd" d="M5 2C3.34315 2 2 3.34315 2 5V11.1716C2 11.9672 2.31607 12.7303 2.87868 13.2929L11.4116 21.8258C12.9737 23.3879 15.5063 23.3879 17.0684 21.8258L21.8258 17.0684C23.3879 15.5063 23.3879 12.9737 21.8258 11.4116L13.2929 2.87868C12.7303 2.31607 11.9672 2 11.1716 2H5ZM9 11C10.1046 11 11 10.1046 11 9C11 7.89543 10.1046 7 9 7C7.89543 7 7 7.89543 7 9C7 10.1046 7.89543 11 9 11Z" fill="currentColor"/>
</svg>
