<svg width="24" height="24" viewBox="0 0 24 24" fill="none" xmlns="http://www.w3.org/2000/svg">
<path fill-rule="evenodd" clip-rule="evenodd" d="M5 2C3.34315 2 2 3.34315 2 5L2 11.1716C2 11.9672 2.31607 12.7303 2.87868 13.2929L11.4116 21.8258C12.9737 23.3879 15.5063 23.3879 17.0684 21.8258L21.8258 17.0684C23.3879 15.5063 23.3879 12.9737 21.8258 11.4116L13.2929 2.87868C12.7303 2.31607 11.9672 2 11.1716 2L5 2ZM4 5C4 4.44772 4.44772 4 5 4H11.1716C11.4368 4 11.6911 4.10536 11.8787 4.29289L20.4116 12.8258C21.1926 13.6068 21.1926 14.8732 20.4116 15.6542L15.6542 20.4116C14.8732 21.1926 13.6068 21.1926 12.8258 20.4116L4.29289 11.8787C4.10536 11.6911 4 11.4368 4 11.1716L4 5ZM9 10.5C9.82843 10.5 10.5 9.82843 10.5 9C10.5 8.17157 9.82843 7.5 9 7.5C8.17157 7.5 7.5 8.17157 7.5 9C7.5 9.82843 8.17157 10.5 9 10.5Z" fill="currentColor"/>
</svg>
