<svg width="24" height="24" viewBox="0 0 24 24" fill="none" xmlns="http://www.w3.org/2000/svg">
<path fill-rule="evenodd" clip-rule="evenodd" d="M5.25 1C4.69772 1 4.25 1.44772 4.25 2C4.25 2.55228 4.69772 3 5.25 3H11.1716C11.4368 3 11.6911 3.10536 11.8787 3.29289L21.2929 12.7071C21.6834 13.0976 22.3166 13.0976 22.7071 12.7071C23.0976 12.3166 23.0976 11.6834 22.7071 11.2929L13.2929 1.87868C12.7303 1.31607 11.9672 1 11.1716 1H5.25ZM5 4.5C3.34315 4.5 2 5.84315 2 7.5V11.1713C2 11.967 2.31606 12.73 2.87866 13.2926L11.4116 21.8257C12.9737 23.3879 15.5063 23.3879 17.0684 21.8258L19.8258 19.0684C21.3879 17.5063 21.3879 14.9737 19.8258 13.4116L11.7929 5.37868C11.2303 4.81607 10.4672 4.5 9.67157 4.5H5ZM4 7.5C4 6.94772 4.44772 6.5 5 6.5H9.67157C9.93679 6.5 10.1911 6.60536 10.3787 6.79289L18.4116 14.8258C19.1926 15.6068 19.1926 16.8732 18.4116 17.6542L15.6542 20.4116C14.8732 21.1926 13.6068 21.1926 12.8258 20.4115L4.29289 11.8784C4.10535 11.6909 4 11.4366 4 11.1713V7.5Z" fill="currentColor"/>
</svg>
