<svg width="24" height="24" viewBox="0 0 24 24" fill="none" xmlns="http://www.w3.org/2000/svg">
<path fill-rule="evenodd" clip-rule="evenodd" d="M4.25 2C4.25 1.44772 4.69772 1 5.25 1H11.1716C11.9672 1 12.7303 1.31607 13.2929 1.87868L22.7071 11.2929C23.0976 11.6834 23.0976 12.3166 22.7071 12.7071C22.3166 13.0976 21.6834 13.0976 21.2929 12.7071L11.8787 3.29289C11.6911 3.10536 11.4368 3 11.1716 3H5.25C4.69772 3 4.25 2.55228 4.25 2ZM5 4.5C3.34315 4.5 2 5.84315 2 7.5V11.1713C2 11.967 2.31606 12.73 2.87866 13.2926L11.4116 21.8257C12.9737 23.3879 15.5063 23.3879 17.0684 21.8258L19.8258 19.0684C21.3879 17.5063 21.3879 14.9737 19.8258 13.4116L11.7929 5.37868C11.2303 4.81607 10.4672 4.5 9.67157 4.5H5Z" fill="currentColor"/>
</svg>
