<svg width="24" height="24" viewBox="0 0 24 24" fill="none" xmlns="http://www.w3.org/2000/svg">
<path fill-rule="evenodd" clip-rule="evenodd" d="M10.5 3.5C10.5 2.94772 10.0523 2.5 9.5 2.5C8.94772 2.5 8.5 2.94772 8.5 3.5V7.46867L5.84923 9.74076C5.4299 10.1002 5.38134 10.7315 5.74076 11.1508C6.10018 11.5701 6.73148 11.6187 7.15081 11.2593L8.5 10.1028V12.3258L6.84923 13.7408C6.4299 14.1002 6.38134 14.7315 6.74076 15.1508C7.10018 15.5701 7.73148 15.6187 8.15081 15.2593L8.5 14.96V20.5C8.5 20.828 8.66083 21.1351 8.93041 21.3219C9.19998 21.5087 9.54491 21.5512 9.85201 21.436L9.85686 21.4342L9.86839 21.4298L9.90823 21.4144C9.94206 21.4012 9.99025 21.3822 10.0513 21.3575C10.1734 21.308 10.3471 21.2356 10.5608 21.1411C10.9873 20.9524 11.5765 20.6742 12.2319 20.3137C13.5212 19.6046 15.1579 18.5284 16.2809 17.1247C17.6237 15.4461 18.173 13.7799 18.3814 12.5197C18.4853 11.8914 18.5045 11.3649 18.4966 10.9876C18.4926 10.7987 18.4818 10.6466 18.4712 10.5368C18.4659 10.482 18.4607 10.4376 18.4564 10.4045C18.4542 10.388 18.4523 10.3742 18.4507 10.3634L18.4486 10.3493L18.4477 10.3439L18.4474 10.3416L18.4471 10.3396C18.3585 9.79446 17.8447 9.42436 17.2996 9.51295C16.7565 9.6012 16.3872 10.1113 16.472 10.6542L16.4732 10.6632C16.4747 10.6749 16.4774 10.6969 16.4804 10.7286C16.4866 10.7922 16.4942 10.8944 16.497 11.0298C16.5027 11.3009 16.4894 11.7027 16.4082 12.1933C16.2465 13.1707 15.8158 14.5045 14.7191 15.8753C13.8421 16.9716 12.4788 17.8954 11.2681 18.5613C10.997 18.7104 10.7381 18.8441 10.5 18.9617V13.2457L15.1508 9.25927C15.5701 8.89985 15.6187 8.26855 15.2593 7.84923C14.8999 7.4299 14.2686 7.38134 13.8492 7.74076L10.5 10.6115V8.38854L14.1508 5.25927C14.5701 4.89985 14.6187 4.26855 14.2593 3.84923C13.8999 3.4299 13.2686 3.38134 12.8492 3.74076L10.5 5.75438V3.5ZM18.4471 10.3396L18.447 10.3396C18.4469 10.3391 18.4393 10.3408 17.46 10.5L18.4471 10.3396ZM9.5 20.5L9.85201 21.436C9.8518 21.4361 9.85112 21.4363 9.5 20.5Z" fill="currentColor"/>
</svg>
