<svg width="24" height="24" viewBox="0 0 24 24" fill="none" xmlns="http://www.w3.org/2000/svg">
<path fill-rule="evenodd" clip-rule="evenodd" d="M4.86945 2.72391C5.29809 2.37565 5.92789 2.44081 6.27615 2.86945L11.9999 9.91422L17.7239 2.86943C18.0722 2.4408 18.702 2.37565 19.1306 2.72392C19.5593 3.0722 19.6244 3.702 19.2761 4.13063L14.1009 10.5H17.9999C18.5522 10.5 18.9999 10.9477 18.9999 11.5C18.9999 12.0523 18.5522 12.5 17.9999 12.5H12.9999V14.5H16.9999C17.5522 14.5 17.9999 14.9477 17.9999 15.5C17.9999 16.0523 17.5522 16.5 16.9999 16.5H12.9999V20.5C12.9999 21.0523 12.5522 21.5 11.9999 21.5C11.4476 21.5 10.9999 21.0523 10.9999 20.5V16.5H6.99989C6.44761 16.5 5.99989 16.0523 5.99989 15.5C5.99989 14.9477 6.44761 14.5 6.99989 14.5H10.9999V12.5H5.99989C5.44761 12.5 4.99989 12.0523 4.99989 11.5C4.99989 10.9477 5.44761 10.5 5.99989 10.5H9.89895L4.72391 4.13062C4.37565 3.70198 4.44081 3.07217 4.86945 2.72391Z" fill="currentColor"/>
</svg>
