<svg width="24" height="24" viewBox="0 0 24 24" fill="none" xmlns="http://www.w3.org/2000/svg">
<path fill-rule="evenodd" clip-rule="evenodd" d="M2 5C2 3.34315 3.34315 2 5 2H19C20.6569 2 22 3.34315 22 5V14.6844V16C22 16.2071 21.979 16.4093 21.9391 16.6046C21.8689 16.9473 21.7403 17.2688 21.5642 17.558C21.0377 18.4226 20.0863 19 19 19H16.7515C16.5092 19 16.2753 19.0879 16.093 19.2475L12.6585 22.2526C12.2815 22.5825 11.7185 22.5825 11.3415 22.2526L7.90703 19.2475C7.72474 19.0879 7.49075 19 7.24853 19H5C3.34315 19 2 17.6569 2 16V14.6844V5ZM10.8946 9.4473C11.1261 8.98434 11.5095 8.66675 12.0002 8.66675C12.2871 8.66675 12.5414 8.76352 12.7109 8.91416C12.8619 9.04844 13.0002 9.27144 13.0002 9.66675C13.0002 9.80255 12.8851 10.0416 12.4455 10.3347C12.2562 10.4609 12.0597 10.5599 11.9066 10.6279C11.8315 10.6613 11.7702 10.6857 11.7302 10.701C11.7102 10.7086 11.6957 10.7139 11.6877 10.7167L11.6807 10.7192C11.1589 10.8951 10.8773 11.4601 11.0515 11.983C11.2262 12.5069 11.7925 12.7901 12.3164 12.6154L12.3177 12.615L12.319 12.6146L12.3224 12.6134L12.3313 12.6104L12.3577 12.6012C12.3789 12.5936 12.4074 12.5832 12.4422 12.57C12.5114 12.5436 12.6065 12.5055 12.7189 12.4556C12.9408 12.3569 13.2443 12.2059 13.5549 11.9988C14.1153 11.6252 15.0002 10.8643 15.0002 9.66675C15.0002 8.72872 14.6385 7.95173 14.0396 7.41934C13.4591 6.90331 12.7133 6.66675 12.0002 6.66675C10.4909 6.66675 9.54098 7.68249 9.10579 8.55287C8.8588 9.04685 9.05903 9.64752 9.55301 9.89451C10.047 10.1415 10.6477 9.94127 10.8946 9.4473ZM12 16C12.5523 16 13 15.5523 13 15C13 14.4477 12.5523 14 12 14C11.4477 14 11 14.4477 11 15C11 15.5523 11.4477 16 12 16Z" fill="currentColor"/>
</svg>
