<svg width="24" height="24" viewBox="0 0 24 24" fill="none" xmlns="http://www.w3.org/2000/svg">
<path fill-rule="evenodd" clip-rule="evenodd" d="M5 2C3.34315 2 2 3.34315 2 5V14.6843V16V16C2 17.6569 3.34315 19 5 19H7.25659C7.49594 19.0019 7.72676 19.0897 7.90703 19.2474L11.3415 22.2525C11.7185 22.5824 12.2815 22.5824 12.6585 22.2525L16.093 19.2474C16.2732 19.0897 16.5041 19.0019 16.7434 19H19C20.2426 19 21.3088 18.2445 21.7642 17.1677C21.9161 16.8088 22 16.4142 22 16C22 16 22 16 22 16V14.6843V5C22 3.34315 20.6569 2 19 2H5ZM12 7C12.5523 7 13 7.44772 13 8V10H15C15.5523 10 16 10.4477 16 11C16 11.5523 15.5523 12 15 12H13V14C13 14.5523 12.5523 15 12 15C11.4477 15 11 14.5523 11 14V12H9C8.44772 12 8 11.5523 8 11C8 10.4477 8.44772 10 9 10H11V8C11 7.44772 11.4477 7 12 7Z" fill="currentColor"/>
</svg>
