<svg width="24" height="24" viewBox="0 0 24 24" fill="none" xmlns="http://www.w3.org/2000/svg">
<path fill-rule="evenodd" clip-rule="evenodd" d="M2 5C2 3.34315 3.34315 2 5 2H19C20.6569 2 22 3.34315 22 5V14.6125V16C22 16 22 16 22 16C22 16.6285 21.8067 17.2119 21.4763 17.694C20.9358 18.4826 20.0283 19 19 19H16.7444C16.5047 19.0017 16.2735 19.0894 16.093 19.2474L12.6585 22.2526C12.2815 22.5824 11.7185 22.5824 11.3415 22.2526L7.90703 19.2474C7.72651 19.0894 7.49529 19.0017 7.25558 19H5C3.34315 19 2 17.6569 2 16V16V14.6125V5Z" fill="currentColor"/>
</svg>
