<svg width="24" height="24" viewBox="0 0 24 24" fill="none" xmlns="http://www.w3.org/2000/svg">
<path fill-rule="evenodd" clip-rule="evenodd" d="M2 5C2 3.34315 3.34315 2 5 2H19C20.6569 2 22 3.34315 22 5V14.6844V16V16C22 16.2071 21.979 16.4093 21.9391 16.6046C21.8689 16.9473 21.7403 17.2688 21.5642 17.558C21.0377 18.4226 20.0863 19 19 19H16.7515C16.5092 19 16.2753 19.0879 16.093 19.2475L12.6585 22.2526C12.2815 22.5825 11.7185 22.5825 11.3415 22.2526L7.90703 19.2475C7.72474 19.0879 7.49075 19 7.24853 19H5C3.34315 19 2 17.6569 2 16V16V14.6844V5ZM11.9999 13C11.4477 13 10.9999 12.5523 10.9999 12V7C10.9999 6.44772 11.4477 6 11.9999 6C12.5522 6 12.9999 6.44772 12.9999 7V12C12.9999 12.5523 12.5522 13 11.9999 13ZM11.9999 14C11.4477 14 10.9999 14.4477 10.9999 15C10.9999 15.5523 11.4477 16 11.9999 16C12.5522 16 12.9999 15.5523 12.9999 15C12.9999 14.4477 12.5522 14 11.9999 14Z" fill="currentColor"/>
</svg>
