<svg width="24" height="24" viewBox="0 0 24 24" fill="none" xmlns="http://www.w3.org/2000/svg">
<path fill-rule="evenodd" clip-rule="evenodd" d="M2 5C2 3.34315 3.34315 2 5 2H19C20.6569 2 22 3.34315 22 5V14.6844V16V16C22 16.2071 21.979 16.4093 21.9391 16.6046C21.8689 16.9473 21.7403 17.2688 21.5642 17.558C21.0377 18.4226 20.0863 19 19 19H16.7515C16.5092 19 16.2753 19.0879 16.093 19.2475L12.6585 22.2526C12.2815 22.5825 11.7185 22.5825 11.3415 22.2526L7.90703 19.2475C7.72474 19.0879 7.49075 19 7.24853 19H5C3.34315 19 2 17.6569 2 16V16V14.6844V5ZM14.9571 9.70711C15.3476 9.31658 15.3476 8.68342 14.9571 8.29289C14.5666 7.90237 13.9334 7.90237 13.5429 8.29289L12 9.83579L10.4571 8.29289C10.0666 7.90237 9.43342 7.90237 9.04289 8.29289C8.65237 8.68342 8.65237 9.31658 9.04289 9.70711L10.5858 11.25L9.04289 12.7929C8.65237 13.1834 8.65237 13.8166 9.04289 14.2071C9.43342 14.5976 10.0666 14.5976 10.4571 14.2071L12 12.6642L13.5429 14.2071C13.9334 14.5976 14.5666 14.5976 14.9571 14.2071C15.3476 13.8166 15.3476 13.1834 14.9571 12.7929L13.4142 11.25L14.9571 9.70711Z" fill="currentColor"/>
</svg>
