<svg width="24" height="24" viewBox="0 0 24 24" fill="none" xmlns="http://www.w3.org/2000/svg">
<path fill-rule="evenodd" clip-rule="evenodd" d="M2 5C2 3.34315 3.34315 2 5 2H19C20.6569 2 22 3.34315 22 5V14.6844V16C22 16.2071 21.979 16.4093 21.9391 16.6046C21.8689 16.9473 21.7403 17.2688 21.5642 17.558C21.0377 18.4226 20.0863 19 19 19H16.7515C16.5092 19 16.2753 19.0879 16.093 19.2475L12.6585 22.2526C12.2815 22.5825 11.7185 22.5825 11.3415 22.2526L7.90703 19.2475C7.72474 19.0879 7.49075 19 7.24853 19H5C3.34315 19 2 17.6569 2 16V14.6844V5ZM15.9571 7.79289C16.3476 8.18342 16.3476 8.81658 15.9571 9.20711L11.4571 13.7071C11.0666 14.0976 10.4334 14.0976 10.0429 13.7071L8.04289 11.7071C7.65237 11.3166 7.65237 10.6834 8.04289 10.2929C8.43342 9.90237 9.06658 9.90237 9.45711 10.2929L10.75 11.5858L14.5429 7.79289C14.9334 7.40237 15.5666 7.40237 15.9571 7.79289Z" fill="currentColor"/>
</svg>
