<svg width="24" height="24" viewBox="0 0 24 24" fill="none" xmlns="http://www.w3.org/2000/svg">
<path fill-rule="evenodd" clip-rule="evenodd" d="M2 5C2 3.34315 3.34315 2 5 2H19C20.6569 2 22 3.34315 22 5V14.6844V16C22 16.2071 21.979 16.4093 21.9391 16.6046C21.8689 16.9473 21.7403 17.2688 21.5642 17.558C21.0377 18.4226 20.0863 19 19 19H16.7515C16.5092 19 16.2753 19.0879 16.093 19.2475L12.6585 22.2526C12.2815 22.5825 11.7185 22.5825 11.3415 22.2526L7.90703 19.2475C7.72474 19.0879 7.49075 19 7.24853 19H5C3.34315 19 2 17.6569 2 16V14.6844V5ZM8.5 10.5C8.5 11.3284 7.82843 12 7 12C6.17157 12 5.5 11.3284 5.5 10.5C5.5 9.67157 6.17157 9 7 9C7.82843 9 8.5 9.67157 8.5 10.5ZM13.5 10.5C13.5 11.3284 12.8284 12 12 12C11.1716 12 10.5 11.3284 10.5 10.5C10.5 9.67157 11.1716 9 12 9C12.8284 9 13.5 9.67157 13.5 10.5ZM17 12C17.8284 12 18.5 11.3284 18.5 10.5C18.5 9.67157 17.8284 9 17 9C16.1716 9 15.5 9.67157 15.5 10.5C15.5 11.3284 16.1716 12 17 12Z" fill="currentColor"/>
</svg>
