<svg width="24" height="24" viewBox="0 0 24 24" fill="none" xmlns="http://www.w3.org/2000/svg">
<path fill-rule="evenodd" clip-rule="evenodd" d="M16.6386 2.2636C16.4698 2.43239 16.375 2.66131 16.375 2.9V10.1C16.375 10.3387 16.4698 10.5676 16.6386 10.7364C16.8074 10.9052 17.0363 11 17.275 11H17.725C17.9637 11 18.1926 10.9052 18.3614 10.7364C18.5302 10.5676 18.625 10.3387 18.625 10.1V2.9C18.625 2.66131 18.5302 2.43239 18.3614 2.2636C18.1926 2.09482 17.9637 2 17.725 2H17.275C17.0363 2 16.8074 2.09482 16.6386 2.2636ZM13.2636 5.4136C13.0948 5.58239 13 5.8113 13 6.05V8.75C13 8.98869 13.0948 9.21761 13.2636 9.3864C13.4324 9.55518 13.6613 9.65 13.9 9.65H14.35C14.5887 9.65 14.8176 9.55518 14.9864 9.3864C15.1552 9.21761 15.25 8.98869 15.25 8.75V6.05C15.25 5.8113 15.1552 5.58239 14.9864 5.4136C14.8176 5.24482 14.5887 5.15 14.35 5.15H13.9C13.6613 5.15 13.4324 5.24482 13.2636 5.4136ZM20.0136 4.2886C20.1824 4.11982 20.4113 4.025 20.65 4.025H21.1C21.3387 4.025 21.5676 4.11982 21.7364 4.2886C21.9052 4.45739 22 4.68631 22 4.925V9.425C22 9.66369 21.9052 9.89261 21.7364 10.0614C21.5676 10.2302 21.3387 10.325 21.1 10.325H20.65C20.4113 10.325 20.1824 10.2302 20.0136 10.0614C19.8448 9.89261 19.75 9.66369 19.75 9.425V4.925C19.75 4.68631 19.8448 4.45739 20.0136 4.2886ZM9.65254 3.00195H3.34746C2.6022 3.00195 1.99805 3.60611 1.99805 4.35137V8.29921C1.99805 9.04447 2.6022 9.64862 3.34746 9.64862H6.13362C6.30478 9.64862 6.47239 9.69745 6.61676 9.78937L8.40314 10.9267C8.70259 11.1173 9.09452 10.9022 9.09452 10.5473V9.64862H9.65254C10.3978 9.64862 11.002 9.04447 11.002 8.29921V4.35137C11.002 3.60611 10.3978 3.00195 9.65254 3.00195ZM4.79803 6.3C4.79803 6.74183 4.43986 7.1 3.99803 7.1C3.5562 7.1 3.19803 6.74183 3.19803 6.3C3.19803 5.85817 3.5562 5.5 3.99803 5.5C4.43986 5.5 4.79803 5.85817 4.79803 6.3ZM7.29803 6.3C7.29803 6.74183 6.93986 7.1 6.49803 7.1C6.0562 7.1 5.69803 6.74183 5.69803 6.3C5.69803 5.85817 6.0562 5.5 6.49803 5.5C6.93986 5.5 7.29803 5.85817 7.29803 6.3ZM8.99803 7.1C9.43986 7.1 9.79803 6.74183 9.79803 6.3C9.79803 5.85817 9.43986 5.5 8.99803 5.5C8.5562 5.5 8.19803 5.85817 8.19803 6.3C8.19803 6.74183 8.5562 7.1 8.99803 7.1ZM14.3953 21.957C14.249 22.0273 14.075 22.0045 13.9517 21.8989C13.8285 21.7932 13.7797 21.6239 13.8269 21.4686L13.8476 21.3988C13.8611 21.3524 13.8803 21.2855 13.9027 21.204C13.9476 21.0405 14.0049 20.821 14.0551 20.5937C14.106 20.3638 14.1471 20.1375 14.1633 19.9569C14.1715 19.866 14.1711 19.7885 14.1674 19.7446C13.6837 19.0496 13.4 18.2044 13.4 17.2942C13.4 14.9226 15.3226 13 17.6942 13C20.0659 13 22 14.9226 22 17.2942C22 19.6658 20.0659 21.5884 17.6942 21.5884C17.1497 21.5884 16.6279 21.4869 16.1474 21.3013C16.1413 21.3017 16.1333 21.3023 16.1234 21.3035C16.0729 21.3094 16.0006 21.3243 15.9068 21.3502C15.7204 21.4017 15.4918 21.4847 15.2631 21.5763C15.0364 21.667 14.819 21.7623 14.6576 21.8354C14.5771 21.8718 14.511 21.9024 14.4652 21.9239L14.3953 21.957ZM19.4542 18.2512L19.4763 18.262C19.5626 18.3035 19.6308 18.3362 19.6704 18.4013C19.7281 18.4969 19.7052 18.7605 19.6184 19.0018C19.5082 19.308 19.0236 19.5591 18.8031 19.5787L18.7708 19.5818C18.7198 19.5868 18.662 19.5924 18.5898 19.5924C18.4179 19.5924 18.1157 19.563 17.4774 19.308C16.8144 19.0432 16.1604 18.4754 15.6358 17.7092L15.6314 17.7028L15.6314 17.7028C15.6247 17.6929 15.6199 17.6859 15.6171 17.6821C15.4801 17.5016 15.161 17.0269 15.161 16.5241C15.161 15.9654 15.4284 15.6478 15.5865 15.5481C15.7355 15.4542 16.0727 15.4098 16.1346 15.4072C16.16 15.4061 16.1697 15.4056 16.1745 15.4053L16.179 15.4051L16.1854 15.405C16.316 15.405 16.4101 15.4843 16.4812 15.6546L16.5384 15.7922L16.5385 15.7924C16.6294 16.011 16.7928 16.4043 16.8047 16.428C16.8237 16.4652 16.8824 16.5806 16.8136 16.7173L16.7988 16.7471C16.7706 16.8042 16.7463 16.8535 16.6918 16.9169C16.6743 16.9372 16.6563 16.9588 16.6385 16.9802C16.6009 17.0255 16.562 17.0722 16.5262 17.1077C16.5139 17.12 16.4902 17.1441 16.4876 17.1536C16.4876 17.1536 16.4891 17.1632 16.4986 17.1794C16.5722 17.3039 17.1088 18.0425 17.8159 18.3496C17.8467 18.363 17.9487 18.405 17.9546 18.405C17.9612 18.405 17.9722 18.394 17.9802 18.3848C18.0418 18.3152 18.2411 18.0823 18.307 17.9844C18.3652 17.8973 18.44 17.8529 18.529 17.8529C18.5834 17.8529 18.6347 17.8697 18.6825 17.8869C18.7882 17.9249 19.3354 18.193 19.454 18.2511L19.4542 18.2512ZM6.52516 13.4004C6.5526 13.1533 6.77509 12.9754 7.0221 13.0028C8.03675 13.1155 8.98292 13.5699 9.70525 14.2913C10.4276 15.0127 10.8831 15.9583 10.9971 16.9728C11.0249 17.2198 10.8472 17.4425 10.6002 17.4703C10.3532 17.498 10.1305 17.3203 10.1028 17.0733C10.0116 16.2617 9.64712 15.5053 9.06925 14.9281C8.49138 14.351 7.73445 13.9875 6.92273 13.8973C6.67572 13.8699 6.49772 13.6474 6.52516 13.4004ZM6.53074 15.1639C6.57833 14.92 6.81466 14.7608 7.05859 14.8084C7.58603 14.9113 8.07077 15.1693 8.45076 15.5492C8.83075 15.9292 9.08871 16.414 9.19161 16.9414C9.2392 17.1853 9.08004 17.4217 8.83611 17.4693C8.59218 17.5169 8.35585 17.3577 8.30826 17.1138C8.23965 16.7621 8.06768 16.439 7.81435 16.1856C7.56103 15.9323 7.23787 15.7603 6.88624 15.6917C6.64231 15.6442 6.48314 15.4078 6.53074 15.1639ZM2.90348 14.7306C3.25496 14.3791 3.82481 14.3791 4.17629 14.7306L5.13089 15.6852C5.48237 16.0367 5.48237 16.6066 5.13089 16.958L5.02134 17.0676C5.05263 17.1397 5.09108 17.2236 5.13659 17.3145C5.2856 17.6122 5.49869 17.9622 5.7673 18.2308C6.03591 18.4995 6.38594 18.7125 6.68364 18.8615C6.77456 18.9071 6.8584 18.9455 6.93054 18.9768L7.0401 18.8672C7.39158 18.5158 7.96144 18.5158 8.31291 18.8672L9.26752 19.8219C9.61899 20.1733 9.61899 20.7432 9.26752 21.0947L8.75584 21.6063C8.35809 22.0041 7.74509 22.1205 7.22804 21.8557C6.46167 21.4634 5.02655 20.6721 4.17629 19.8219C3.32603 18.9716 2.53474 17.5365 2.14239 16.7701C1.87769 16.253 1.99406 15.64 2.39181 15.2423L2.90348 14.7306Z" fill="currentColor"/>
</svg>
