<svg width="24" height="24" viewBox="0 0 24 24" fill="none" xmlns="http://www.w3.org/2000/svg">
<path fill-rule="evenodd" clip-rule="evenodd" d="M10.0111 3.24787C10.651 3.10305 11.3168 3.02661 12.0004 3.02661C12.6943 3.02661 13.3697 3.10536 14.0183 3.25439L14.0198 3.26261C14.0269 3.30211 14.0374 3.36102 14.0508 3.43757C14.0775 3.59067 14.116 3.81419 14.1622 4.09378C14.2546 4.65323 14.3779 5.43574 14.5011 6.32678C14.5362 6.5809 14.5712 6.84288 14.6054 7.11021C13.7016 7.03343 12.8066 6.98386 12.0008 6.98386C11.2043 6.98386 10.3191 7.03239 9.42295 7.108C9.45692 6.84254 9.49168 6.58236 9.52659 6.32992C9.64976 5.43915 9.77299 4.65688 9.86539 4.09761C9.91156 3.81811 9.94998 3.59467 9.97675 3.44164C9.99013 3.36514 10.0006 3.30626 10.0077 3.2668L10.0111 3.24787ZM7.78873 4.07423C6.01095 5.02074 4.58881 6.54802 3.77587 8.40418C3.55431 8.91007 2.96459 9.14056 2.45869 8.919C1.9528 8.69743 1.72231 8.10771 1.94387 7.60182C3.63837 3.73282 7.50225 1.02661 12.0004 1.02661C18.0612 1.02661 22.9744 5.93983 22.9744 12.0006C22.9744 16.4965 20.2709 20.3587 16.4051 22.0546C15.8993 22.2764 15.3094 22.0463 15.0876 21.5405C14.8657 21.0348 15.0959 20.4449 15.6016 20.223C17.4563 19.4095 18.9822 17.9875 19.9278 16.2103C19.391 16.2972 18.711 16.402 17.9541 16.5069C17.5404 16.5643 17.1011 16.622 16.6476 16.6769C16.537 17.5887 16.4151 18.4445 16.307 19.1532C16.2237 19.6992 15.7136 20.0743 15.1676 19.991C14.6217 19.9077 14.2466 19.3976 14.3299 18.8516C14.4186 18.2695 14.5148 17.5996 14.6055 16.89C13.7014 16.9669 12.8061 17.0166 12 17.0166C11.433 17.0166 10.9734 16.557 10.9734 15.99C10.9734 15.423 11.433 14.9634 12 14.9634C12.8569 14.9634 13.8414 14.9013 14.838 14.8077C14.9296 13.8238 14.9903 12.8506 14.9903 12.0008C14.9903 11.1522 14.9297 10.1786 14.8378 9.19244C13.8417 9.09905 12.8574 9.03714 12.0008 9.03714C11.1502 9.03714 10.1756 9.09807 9.19038 9.18992C9.09838 10.177 9.03757 11.1513 9.03757 12.0003C9.03757 12.5673 8.57792 13.0269 8.01092 13.0269C7.44393 13.0269 6.98428 12.5673 6.98428 12.0003C6.98428 11.2025 7.03287 10.3173 7.10836 9.42258C6.40246 9.51292 5.73588 9.60859 5.15616 9.69699C4.59564 9.78247 4.07196 9.39737 3.98648 8.83685C3.90101 8.27633 4.28611 7.75265 4.84663 7.66718C5.55623 7.55897 6.41338 7.43688 7.32656 7.32614C7.38032 6.88293 7.43667 6.45355 7.49266 6.04867C7.59738 5.29132 7.70207 4.61109 7.78873 4.07423ZM20.7537 13.9877C20.8981 13.3484 20.9744 12.6834 20.9744 12.0006C20.9744 11.3167 20.8979 10.6507 20.753 10.0106L20.7343 10.0072C20.6948 10.0002 20.636 9.9897 20.5595 9.97632C20.4064 9.94955 20.183 9.91114 19.9035 9.86496C19.3442 9.77256 18.5619 9.64933 17.6712 9.52616C17.4101 9.49006 17.1407 9.45411 16.8658 9.41904C16.9416 10.3152 16.9903 11.202 16.9903 12.0008C16.9903 12.7977 16.9417 13.6837 16.866 14.5806C17.1412 14.5454 17.4108 14.5093 17.6722 14.4731C18.5633 14.3496 19.3459 14.226 19.9054 14.1334C20.185 14.0871 20.4085 14.0486 20.5616 14.0218C20.6381 14.0083 20.697 13.9978 20.7365 13.9908L20.7537 13.9877ZM19.9263 7.78822C19.0812 6.20132 17.7734 4.89822 16.183 4.05887C16.2703 4.59865 16.3762 5.28622 16.4822 6.05283C16.5379 6.45548 16.5939 6.88229 16.6474 7.3228C17.1004 7.37756 17.5392 7.43509 17.9524 7.49223C18.7095 7.59692 19.3896 7.70157 19.9263 7.78822ZM5.87518 14.8225L5.62824 15.0694C5.68551 15.2057 5.76102 15.3745 5.85454 15.5613C6.10027 16.0522 6.45481 16.6363 6.90644 17.0879C7.35807 17.5396 7.94215 17.8941 8.43308 18.1399C8.61992 18.2334 8.7887 18.3089 8.92495 18.3661L9.17189 18.1192C9.68962 17.6015 10.529 17.6015 11.0467 18.1192L12.6115 19.6839C13.1292 20.2016 13.1292 21.041 12.6115 21.5588L11.766 22.4042C11.1614 23.0088 10.2318 23.1843 9.44877 22.7837C8.2019 22.1459 5.87457 20.8625 4.50322 19.4912C3.13186 18.1198 1.84852 15.7925 1.21066 14.5456C0.810064 13.7626 0.985585 12.833 1.5902 12.2283L2.43561 11.3829C2.95334 10.8652 3.79274 10.8652 4.31047 11.3829L5.87518 12.9476C6.39291 13.4654 6.39291 14.3048 5.87518 14.8225Z" fill="currentColor"/>
</svg>
