<svg width="24" height="24" viewBox="0 0 24 24" fill="none" xmlns="http://www.w3.org/2000/svg">
<path fill-rule="evenodd" clip-rule="evenodd" d="M1 7.52066V18C1 19.6569 2.34315 21 4 21H12H12.2638C11.2084 19.8221 11.2467 18.0106 12.3787 16.8787C13.5095 15.7478 15.3186 15.7085 16.4966 16.7608L18.8787 14.3787C20.0106 13.2467 21.8221 13.2084 23 14.2638V12V7.52066L13.7204 14.0164C12.6874 14.7395 11.3126 14.7395 10.2796 14.0164L1 7.52066ZM22.8815 5.16231C22.5189 3.91311 21.3661 3 20 3H4C2.63389 3 1.48105 3.91311 1.11852 5.16231L11.4265 12.3779C11.7709 12.6189 12.2291 12.6189 12.5735 12.3779L22.8815 5.16231ZM21.7071 17.2071C22.0976 16.8166 22.0976 16.1834 21.7071 15.7929C21.3166 15.4024 20.6834 15.4024 20.2929 15.7929L16.5 19.5858L15.2071 18.2929C14.8166 17.9024 14.1834 17.9024 13.7929 18.2929C13.4024 18.6834 13.4024 19.3166 13.7929 19.7071L15.7929 21.7071C16.1834 22.0976 16.8166 22.0976 17.2071 21.7071L21.7071 17.2071Z" fill="currentColor"/>
</svg>
