<svg width="24" height="24" viewBox="0 0 24 24" fill="none" xmlns="http://www.w3.org/2000/svg">
<path fill-rule="evenodd" clip-rule="evenodd" d="M1 17.9999L1 7.52053L10.2796 14.0163C11.3126 14.7393 12.6874 14.7393 13.7204 14.0163L13.8795 13.9049C13.8869 14.0269 13.9017 14.1483 13.9238 14.2684C13.7753 14.4566 13.6397 14.6562 13.5184 14.8663C12.9449 15.8596 12.7331 17.0147 12.9084 18.1375L12.9137 18.1935C12.9205 18.2674 12.9296 18.371 12.9385 18.4885C12.9576 18.739 12.9714 18.9946 12.9702 19.1609C12.9674 19.5406 12.8822 20.1269 12.7791 20.6691C12.7581 20.78 12.7447 20.8904 12.7386 20.9999H4C2.34315 20.9999 1 19.6567 1 17.9999ZM23 16.5281V7.52053L18.0687 10.9724C18.5348 11.1748 18.9432 11.4928 19.2541 11.898C19.4467 12.149 19.5973 12.4274 19.7018 12.7224C19.9234 12.8108 20.1395 12.9155 20.3485 13.0362C21.3415 13.6094 22.1023 14.5034 22.512 15.5628L22.5349 15.6129C22.566 15.6801 22.61 15.7742 22.661 15.8802C22.7697 16.1062 22.8857 16.3344 22.9702 16.4784C22.9797 16.4946 22.9897 16.5112 23 16.5281ZM20 2.99988C21.3661 2.99988 22.5189 3.91299 22.8815 5.16219L12.5735 12.3778C12.2291 12.6188 11.7709 12.6188 11.4265 12.3778L1.11852 5.16218C1.48105 3.91299 2.63389 2.99988 4 2.99988L20 2.99988ZM15.6739 14.6237C15.3317 14.8951 15.04 15.2307 14.8174 15.6163C14.4092 16.3233 14.2627 17.1474 14.3967 17.9457L14.3984 17.9623C14.4005 17.984 14.4036 18.0159 14.4073 18.0558C14.4146 18.1357 14.4244 18.2475 14.4341 18.3747C14.4537 18.6329 14.4717 18.9399 14.47 19.1718C14.4663 19.6961 14.358 20.3954 14.2526 20.9493C14.116 21.6681 14.7738 22.3283 15.5117 22.1307L16.4034 21.8919C16.4563 21.9894 16.517 22.0829 16.5848 22.1713C16.7548 22.3928 16.9668 22.5787 17.2086 22.7183C17.4504 22.8579 17.7173 22.9485 17.9941 22.985C18.2709 23.0214 18.5522 23.003 18.8219 22.9307C19.0916 22.8584 19.3444 22.7338 19.566 22.5638C19.7875 22.3938 19.9733 22.1819 20.1129 21.9401C20.2525 21.6983 20.3431 21.4313 20.3796 21.1545C20.3941 21.0442 20.3999 20.9332 20.3971 20.8225L22.2538 20.3253C22.9907 20.128 23.2315 19.2293 22.7552 18.6746C22.3872 18.246 21.9427 17.6915 21.6763 17.2374C21.5592 17.0377 21.4213 16.7635 21.3093 16.5307C21.2541 16.4161 21.2067 16.3146 21.1731 16.2419C21.1564 16.2056 21.1431 16.1766 21.1341 16.1568L21.1273 16.1419C20.8442 15.3837 20.3054 14.7433 19.5985 14.3352C19.2138 14.1131 18.7945 13.9685 18.3635 13.9044C18.3746 13.8125 18.3773 13.7194 18.3712 13.6262C18.3518 13.3302 18.245 13.0466 18.0644 12.8112C17.8838 12.5758 17.6375 12.3993 17.3565 12.304C17.0756 12.2086 16.7727 12.1987 16.4861 12.2755C16.1996 12.3522 15.9422 12.5123 15.7466 12.7353C15.551 12.9584 15.4259 13.2344 15.3872 13.5286C15.3485 13.8227 15.3979 14.1217 15.5291 14.3878C15.5702 14.4711 15.6187 14.5501 15.6739 14.6237ZM16.5591 14.1124C16.5034 14.0672 16.4579 14.0103 16.4259 13.9455C16.3822 13.8568 16.3657 13.7571 16.3787 13.6591C16.3916 13.561 16.4333 13.469 16.4985 13.3947C16.5637 13.3203 16.6494 13.267 16.745 13.2414C16.8405 13.2158 16.9414 13.2191 17.0351 13.2509C17.1287 13.2827 17.2109 13.3415 17.2711 13.42C17.3313 13.4984 17.3668 13.593 17.3733 13.6916C17.378 13.764 17.367 13.8361 17.3413 13.9032C17.2076 13.9228 17.0744 13.9502 16.9426 13.9855C16.8118 14.0206 16.6838 14.063 16.5591 14.1124ZM17.4264 21.6211C17.5071 21.7129 17.6024 21.791 17.7086 21.8523C17.8366 21.9262 17.978 21.9742 18.1246 21.9935C18.2713 22.0128 18.4203 22.0031 18.5631 21.9648C18.706 21.9265 18.8399 21.8605 18.9572 21.7704C19.0745 21.6804 19.173 21.5682 19.2469 21.4401C19.3082 21.3339 19.3517 21.2186 19.3757 21.0988L17.4264 21.6211Z" fill="currentColor"/>
</svg>
