<svg width="24" height="24" viewBox="0 0 24 24" fill="none" xmlns="http://www.w3.org/2000/svg">
<path fill-rule="evenodd" clip-rule="evenodd" d="M23 10.0206V19C23 20.6569 21.6569 22 20 22H4C2.34315 22 1 20.6569 1 19V10.0207L10.2796 16.5164C11.3125 17.2394 12.6874 17.2394 13.7204 16.5164L23 10.0206ZM22.8171 7.70734L12.5734 14.8779C12.2291 15.1189 11.7708 15.1189 11.4265 14.8779L1.18291 7.70738C1.42236 7.05375 1.88604 6.49255 2.50903 6.13575L10.509 1.55389C11.4326 1.02491 12.5674 1.02491 13.491 1.55389L21.491 6.13575C22.114 6.49255 22.5776 7.05373 22.8171 7.70734Z" fill="currentColor"/>
</svg>
