<svg width="24" height="24" viewBox="0 0 24 24" fill="none" xmlns="http://www.w3.org/2000/svg">
<path fill-rule="evenodd" clip-rule="evenodd" d="M6 1H18C19.6569 1 21 2.34315 21 4V8.39037C21 8.71561 20.8418 9.02053 20.576 9.20785L17.5 11.375L13.7279 14.0326C12.6916 14.7627 11.3084 14.7627 10.2721 14.0326L9.25 13.3125L6.5 11.375L3.42405 9.20785C3.15817 9.02053 3 8.71561 3 8.39037V4C3 2.34315 4.34315 1 6 1ZM18.0108 23H20C21.6569 23 23 21.6568 23 20V10.4639C23 10.0587 22.5433 9.82177 22.212 10.0551L13.7279 16.0326C12.6916 16.7627 11.3084 16.7627 10.2721 16.0326L1.78798 10.0551C1.45673 9.82177 1 10.0587 1 10.4639V20C1 21.6568 2.34315 23 4 23H5.98919C5.99279 23 5.99639 23 6 23H18C18.0036 23 18.0072 23 18.0108 23ZM6.5 5.14C6.5 4.5104 7.0104 4 7.64 4H16.36C16.9896 4 17.5 4.5104 17.5 5.14C17.5 5.7696 16.9896 6.28 16.36 6.28H7.64C7.0104 6.28 6.5 5.7696 6.5 5.14ZM6.5 9.00011C6.5 8.3705 7.0104 7.86011 7.64 7.86011H16.36C16.9896 7.86011 17.5 8.3705 17.5 9.00011C17.5 9.62971 16.9896 10.1401 16.36 10.1401H7.64C7.0104 10.1401 6.5 9.62971 6.5 9.00011Z" fill="currentColor"/>
</svg>
