<svg width="24" height="24" viewBox="0 0 24 24" fill="none" xmlns="http://www.w3.org/2000/svg">
<path fill-rule="evenodd" clip-rule="evenodd" d="M1 18V7.52066L10.2796 14.0164C11.3126 14.7395 12.6874 14.7395 13.7204 14.0164L23 7.52066V12V14.2638C21.8221 13.2084 20.0106 13.2467 18.8787 14.3787L18.75 14.5074L18.6213 14.3787C17.4497 13.2071 15.5503 13.2071 14.3787 14.3787C13.2071 15.5503 13.2071 17.4497 14.3787 18.6213L14.5074 18.75L14.3787 18.8787C13.7929 19.4645 13.5 20.2322 13.5 21H12H4C2.34315 21 1 19.6569 1 18ZM20 3C21.3661 3 22.5189 3.91311 22.8815 5.16231L12.5735 12.3779C12.2291 12.6189 11.7709 12.6189 11.4265 12.3779L1.11852 5.16231C1.48105 3.91311 2.63389 3 4 3H20ZM21.7071 15.7929C22.0976 16.1834 22.0976 16.8166 21.7071 17.2071L20.1642 18.75L21.7071 20.2929C22.0976 20.6834 22.0976 21.3166 21.7071 21.7071C21.3166 22.0976 20.6834 22.0976 20.2929 21.7071L18.75 20.1642L17.2071 21.7071C16.8166 22.0976 16.1834 22.0976 15.7929 21.7071C15.4024 21.3166 15.4024 20.6834 15.7929 20.2929L17.3358 18.75L15.7929 17.2071C15.4024 16.8166 15.4024 16.1834 15.7929 15.7929C16.1834 15.4024 16.8166 15.4024 17.2071 15.7929L18.75 17.3358L20.2929 15.7929C20.6834 15.4024 21.3166 15.4024 21.7071 15.7929Z" fill="currentColor"/>
</svg>
