<svg width="24" height="24" viewBox="0 0 24 24" fill="none" xmlns="http://www.w3.org/2000/svg">
<path d="M12 2C14.6522 2 17.1959 3.05335 19.0713 4.92871C20.9467 6.80407 22 9.34784 22 12V17C22 19.2091 20.2091 21 18 21H14.7305C14.3845 21.5973 13.7399 22 13 22H11C9.89543 22 9 21.1046 9 20C9 18.8954 9.89543 18 11 18H13C13.7399 18 14.3845 18.4027 14.7305 19H18C19.1046 19 20 18.1046 20 17V12C20 9.87827 19.1575 7.84306 17.6572 6.34277C16.1569 4.84248 14.1217 4 12 4C9.87827 4 7.84306 4.84248 6.34277 6.34277C4.84248 7.84306 4 9.87827 4 12V13C4 13.5523 3.55228 14 3 14C2.44772 14 2 13.5523 2 13V12C2 9.34784 3.05335 6.80407 4.92871 4.92871C6.80407 3.05335 9.34784 2 12 2ZM8 10C8.55228 10 9 10.4477 9 11V15C9 15.5523 8.55228 16 8 16H7C5.89543 16 5 15.1046 5 14V12C5 10.8954 5.89543 10 7 10H8ZM17 10C18.1046 10 19 10.8954 19 12V14C19 15.1046 18.1046 16 17 16H16C15.4477 16 15 15.5523 15 15V11C15 10.4477 15.4477 10 16 10H17Z" fill="currentColor"/>
</svg>
