<svg width="24" height="24" viewBox="0 0 24 24" fill="none" xmlns="http://www.w3.org/2000/svg">
<path fill-rule="evenodd" clip-rule="evenodd" d="M8.29289 6.29289C7.90237 6.68342 7.90237 7.31658 8.29289 7.70711C8.68342 8.09763 9.31658 8.09763 9.70711 7.70711L11 6.41421V13C11 13.5523 11.4477 14 12 14C12.5523 14 13 13.5523 13 13V6.41421L14.2929 7.70711C14.6834 8.09763 15.3166 8.09763 15.7071 7.70711C16.0976 7.31658 16.0976 6.68342 15.7071 6.29289L12.7071 3.29289C12.3166 2.90237 11.6834 2.90237 11.2929 3.29289L8.29289 6.29289ZM7.5884 3C6.86207 3 6.19283 3.39378 5.84009 4.02871L1.37753 12.0613C1.12993 12.507 1 13.0084 1 13.5183V14V18C1 19.6569 2.34315 21 4 21H20C21.6569 21 23 19.6569 23 18V14V13.5183C23 13.0084 22.8701 12.507 22.6225 12.0613L18.1599 4.02872C17.8072 3.39379 17.1379 3 16.4116 3H16C15.4477 3 15 3.44772 15 4C15 4.55229 15.4477 5 16 5L16.4116 5L20.8742 13.0326C20.9567 13.1812 21 13.3483 21 13.5183V14H18.3385C17.7252 14 17.1736 14.3734 16.9458 14.9429L16.5744 15.8714C16.4225 16.251 16.0548 16.5 15.6459 16.5H8C7.44772 16.5 7 16.0523 7 15.5C7 14.6716 6.32843 14 5.5 14H3V13.5183C3 13.3483 3.04331 13.1812 3.12584 13.0326L7.5884 5H8C8.55228 5 9 4.55229 9 4C9 3.44772 8.55228 3 8 3H7.5884Z" fill="currentColor"/>
</svg>
