<svg width="24" height="24" viewBox="0 0 24 24" fill="none" xmlns="http://www.w3.org/2000/svg">
<path fill-rule="evenodd" clip-rule="evenodd" d="M5.84009 4.02871C6.19283 3.39378 6.86207 3 7.5884 3H16.4116C17.1379 3 17.8072 3.39378 18.1599 4.02871L22.6225 12.0613C22.8701 12.507 23 13.0084 23 13.5183V14V18C23 19.6569 21.6569 21 20 21H4C2.34315 21 1 19.6569 1 18V14V13.5183C1 13.0084 1.12993 12.507 1.37753 12.0613L5.84009 4.02871ZM3 14H5.5C6.32843 14 7 14.6716 7 15.5C7 16.0523 7.44772 16.5 8 16.5H15.6459C16.0548 16.5 16.4225 16.251 16.5744 15.8714L16.9458 14.9429C17.1736 14.3734 17.7252 14 18.3385 14H21V13.5183C21 13.3483 20.9567 13.1812 20.8742 13.0326L16.4116 5H7.5884L3.12584 13.0326C3.04331 13.1812 3 13.3483 3 13.5183V14ZM14.9571 7.29289C15.3476 7.68342 15.3476 8.31658 14.9571 8.70711L13.4142 10.25L14.9571 11.7929C15.3476 12.1834 15.3476 12.8166 14.9571 13.2071C14.5666 13.5976 13.9334 13.5976 13.5429 13.2071L12 11.6642L10.4571 13.2071C10.0666 13.5976 9.43342 13.5976 9.04289 13.2071C8.65237 12.8166 8.65237 12.1834 9.04289 11.7929L10.5858 10.25L9.04289 8.70711C8.65237 8.31658 8.65237 7.68342 9.04289 7.29289C9.43342 6.90237 10.0666 6.90237 10.4571 7.29289L12 8.83579L13.5429 7.29289C13.9334 6.90237 14.5666 6.90237 14.9571 7.29289Z" fill="currentColor"/>
</svg>
