<svg width="24" height="24" viewBox="0 0 24 24" fill="none" xmlns="http://www.w3.org/2000/svg">
<path fill-rule="evenodd" clip-rule="evenodd" d="M7.5884 3C6.86207 3 6.19283 3.39378 5.84009 4.02871L1.37753 12.0613C1.12993 12.507 1 13.0084 1 13.5183V14V18C1 19.6569 2.34315 21 4 21H20C21.6569 21 23 19.6569 23 18V14V13.5183C23 13.0084 22.8701 12.507 22.6225 12.0613L18.1599 4.02871C17.8072 3.39379 17.1379 3 16.4116 3H15.5C14.9477 3 14.5 3.44772 14.5 4C14.5 4.55228 14.9477 5 15.5 5L16.4116 5L20.8742 13.0326C20.9567 13.1812 21 13.3483 21 13.5183V14H18.3385C17.7252 14 17.1736 14.3734 16.9458 14.9429L16.5744 15.8714C16.4225 16.251 16.0548 16.5 15.6459 16.5H8C7.44772 16.5 7 16.0523 7 15.5C7 14.6716 6.32843 14 5.5 14H3V13.5183C3 13.3483 3.04331 13.1812 3.12584 13.0326L7.5884 5H8.5C9.05228 5 9.5 4.55228 9.5 4C9.5 3.44772 9.05228 3 8.5 3H7.5884ZM15.7071 10.7071C16.0976 10.3166 16.0976 9.68342 15.7071 9.29289C15.3166 8.90237 14.6834 8.90237 14.2929 9.29289L13 10.5858V4C13 3.44772 12.5523 3 12 3C11.4477 3 11 3.44772 11 4V10.5858L9.70711 9.29289C9.31658 8.90237 8.68342 8.90237 8.29289 9.29289C7.90237 9.68342 7.90237 10.3166 8.29289 10.7071L11.2929 13.7071C11.6834 14.0976 12.3166 14.0976 12.7071 13.7071L15.7071 10.7071Z" fill="currentColor"/>
</svg>
