<svg width="24" height="24" viewBox="0 0 24 24" fill="none" xmlns="http://www.w3.org/2000/svg">
<path fill-rule="evenodd" clip-rule="evenodd" d="M20 2H4C2.34315 2 1 3.34315 1 5V16C1 17.6569 2.34315 19 4 19H5V20.9979C5 21.787 5.87134 22.2652 6.53706 21.8414L10.5085 19.3129C10.8295 19.1086 11.2021 19 11.5826 19H11.6388L12.0099 17.8467C12.1923 17.2799 12.507 16.7647 12.928 16.3437L16.8734 12.3984C17.0483 12.2234 17.2362 12.0694 17.434 11.9363C17.2966 11.9777 17.1509 12 17 12C16.1716 12 15.5 11.3284 15.5 10.5C15.5 9.67157 16.1716 9 17 9C17.8284 9 18.5 9.67157 18.5 10.5C18.5 10.9497 18.3021 11.3531 17.9887 11.628C19.3679 11.0092 21.0443 11.266 22.1767 12.3984L22.8838 13.1055C22.9236 13.1453 22.9623 13.1858 23 13.2269V5C23 3.34315 21.6569 2 20 2ZM8.5 10.5C8.5 11.3284 7.82843 12 7 12C6.17157 12 5.5 11.3284 5.5 10.5C5.5 9.67157 6.17157 9 7 9C7.82843 9 8.5 9.67157 8.5 10.5ZM13.5 10.5C13.5 11.3284 12.8284 12 12 12C11.1716 12 10.5 11.3284 10.5 10.5C10.5 9.67157 11.1716 9 12 9C12.8284 9 13.5 9.67157 13.5 10.5Z" fill="currentColor"/>
<path fill-rule="evenodd" clip-rule="evenodd" d="M13.9137 18.4592C13.9988 18.1947 14.1457 17.9543 14.3421 17.7578L18.2875 13.8125C18.9709 13.1291 20.079 13.129 20.7624 13.8125L21.4695 14.5196C22.1529 15.203 22.1529 16.311 21.4695 16.9944L17.5241 20.9398C17.3276 21.1363 17.0872 21.2832 16.8227 21.3683L15.0844 21.9276C14.0184 22.2707 13.0113 21.2636 13.3543 20.1975L13.9137 18.4592ZM15.4028 18.8185C15.3747 18.8466 15.3537 18.8809 15.3416 18.9187L14.8569 20.4251L16.3633 19.9404C16.401 19.9282 16.4354 19.9072 16.4635 19.8792L18.8173 17.5253L17.7567 16.4646L15.4028 18.8185ZM20.4088 15.9338L19.878 16.4646L18.8173 15.404L19.3482 14.8731C19.4458 14.7755 19.6041 14.7755 19.7017 14.8731L20.4088 15.5802C20.5065 15.6779 20.5065 15.8362 20.4088 15.9338Z" fill="currentColor"/>
</svg>
