<svg width="24" height="24" viewBox="0 0 24 24" fill="none" xmlns="http://www.w3.org/2000/svg">
<path fill-rule="evenodd" clip-rule="evenodd" d="M20 2H4C2.34315 2 1 3.34315 1 5V16C1 17.6569 2.34315 19 4 19H12.4174C12.7979 19 13.1705 19.1086 13.4915 19.3129L17.4629 21.8414C18.1287 22.2652 19 21.787 19 20.9979V19H20C21.6569 19 23 17.6569 23 16V5C23 3.34315 21.6569 2 20 2ZM14.9571 8.29289C15.3476 8.68342 15.3476 9.31658 14.9571 9.70711L13.4142 11.25L14.9571 12.7929C15.3476 13.1834 15.3476 13.8166 14.9571 14.2071C14.5666 14.5976 13.9334 14.5976 13.5429 14.2071L12 12.6642L10.4571 14.2071C10.0666 14.5976 9.43342 14.5976 9.04289 14.2071C8.65237 13.8166 8.65237 13.1834 9.04289 12.7929L10.5858 11.25L9.04289 9.70711C8.65237 9.31658 8.65237 8.68342 9.04289 8.29289C9.43342 7.90237 10.0666 7.90237 10.4571 8.29289L12 9.83579L13.5429 8.29289C13.9334 7.90237 14.5666 7.90237 14.9571 8.29289Z" fill="currentColor"/>
</svg>
