<svg width="24" height="24" viewBox="0 0 24 24" fill="none" xmlns="http://www.w3.org/2000/svg">
<path fill-rule="evenodd" clip-rule="evenodd" d="M20 2H4C2.34315 2 1 3.34315 1 5V16C1 17.6569 2.34315 19 4 19H12.4174C12.7979 19 13.1705 19.1086 13.4915 19.3129L17.4629 21.8414C18.1287 22.2652 19 21.787 19 20.9979V19H20C21.6569 19 23 17.6569 23 16V5C23 3.34315 21.6569 2 20 2ZM8 11C8 10.4477 8.44772 10 9 10H11V8C11 7.44772 11.4477 7 12 7C12.5523 7 13 7.44772 13 8V10H15C15.5523 10 16 10.4477 16 11C16 11.5523 15.5523 12 15 12H13V14C13 14.5523 12.5523 15 12 15C11.4477 15 11 14.5523 11 14V12H9C8.44772 12 8 11.5523 8 11Z" fill="currentColor"/>
</svg>
