<svg width="24" height="24" viewBox="0 0 24 24" fill="none" xmlns="http://www.w3.org/2000/svg">
<path fill-rule="evenodd" clip-rule="evenodd" d="M4 2H20C21.6569 2 23 3.34315 23 5V16C23 17.6569 21.6569 19 20 19H19V20.9979C19 21.787 18.1287 22.2652 17.4629 21.8414L13.4915 19.3129C13.1705 19.1086 12.7979 19 12.4174 19H4C2.34315 19 1 17.6569 1 16V5C1 3.34315 2.34315 2 4 2ZM9 10C8.44772 10 8 10.4477 8 11C8 11.5523 8.44772 12 9 12H15C15.5523 12 16 11.5523 16 11C16 10.4477 15.5523 10 15 10H9Z" fill="currentColor"/>
</svg>
