<svg width="24" height="24" viewBox="0 0 24 24" fill="none" xmlns="http://www.w3.org/2000/svg">
<path fill-rule="evenodd" clip-rule="evenodd" d="M20 2H4C2.34315 2 1 3.34315 1 5V16C1 17.6569 2.34315 19 4 19H12.4174C12.7979 19 13.1705 19.1086 13.4915 19.3129L17.4629 21.8414C18.1287 22.2652 19 21.787 19 20.9979V19H20C21.6569 19 23 17.6569 23 16V5C23 3.34315 21.6569 2 20 2ZM9.32365 11.9329C9.01446 11.4836 8.40067 11.3644 7.9453 11.6679C7.48577 11.9743 7.3616 12.5952 7.66795 13.0547L7.66859 13.0557L7.66925 13.0566L7.67065 13.0587L7.67377 13.0633L7.68123 13.0742C7.68676 13.0822 7.69339 13.0916 7.70116 13.1023C7.71669 13.1238 7.73676 13.1508 7.76153 13.1823C7.81103 13.2453 7.87955 13.327 7.9683 13.421C8.1456 13.6087 8.40557 13.8472 8.7578 14.0821C9.47053 14.5572 10.5364 15 12 15C13.4636 15 14.5295 14.5572 15.2422 14.0821C15.5944 13.8472 15.8544 13.6087 16.0317 13.421C16.1205 13.327 16.189 13.2453 16.2385 13.1823C16.2632 13.1508 16.2833 13.1238 16.2988 13.1023C16.3066 13.0916 16.3132 13.0822 16.3188 13.0742L16.3262 13.0633L16.3293 13.0587L16.3307 13.0566L16.3314 13.0557L16.3293 13.0587L16.3321 13.0547C16.6384 12.5952 16.5142 11.9743 16.0547 11.6679C15.5993 11.3644 14.9855 11.4836 14.6764 11.9329C14.6747 11.9352 14.6712 11.9398 14.6658 11.9466C14.6509 11.9657 14.6217 12.0011 14.5777 12.0478C14.4894 12.1413 14.3431 12.2778 14.1328 12.4179C13.7205 12.6928 13.0364 13 12 13C10.9636 13 10.2795 12.6928 9.8672 12.4179C9.65693 12.2778 9.51065 12.1413 9.42233 12.0478C9.37827 12.0011 9.34913 11.9657 9.33417 11.9466C9.32881 11.9398 9.32532 11.9352 9.32365 11.9329ZM10.5 7.5C10.5 8.32843 9.82843 9 9 9C8.17157 9 7.5 8.32843 7.5 7.5C7.5 6.67157 8.17157 6 9 6C9.82843 6 10.5 6.67157 10.5 7.5ZM16.5 7.5C16.5 8.32843 15.8284 9 15 9C14.1716 9 13.5 8.32843 13.5 7.5C13.5 6.67157 14.1716 6 15 6C15.8284 6 16.5 6.67157 16.5 7.5Z" fill="currentColor"/>
</svg>
