<svg width="24" height="24" viewBox="0 0 24 24" fill="none" xmlns="http://www.w3.org/2000/svg">
<path fill-rule="evenodd" clip-rule="evenodd" d="M20 2H4C2.34315 2 1 3.34315 1 5V16C1 17.6569 2.34315 19 4 19H12.4174C12.7979 19 13.1705 19.1086 13.4915 19.3129L17.4629 21.8414C18.1287 22.2652 19 21.787 19 20.9979V19H20C21.6569 19 23 17.6569 23 16V5C23 3.34315 21.6569 2 20 2ZM12 12.5C11.4477 12.5 11 12.0523 11 11.5V6.5C11 5.94772 11.4477 5.5 12 5.5C12.5523 5.5 13 5.94772 13 6.5V11.5C13 12.0523 12.5523 12.5 12 12.5ZM12 13.5C11.4477 13.5 11 13.9477 11 14.5C11 15.0523 11.4477 15.5 12 15.5C12.5523 15.5 13 15.0523 13 14.5C13 13.9477 12.5523 13.5 12 13.5Z" fill="currentColor"/>
</svg>
