<svg width="24" height="24" viewBox="0 0 24 24" fill="none" xmlns="http://www.w3.org/2000/svg">
<path fill-rule="evenodd" clip-rule="evenodd" d="M20 2H4C2.34315 2 1 3.34315 1 5V16C1 17.6569 2.34315 19 4 19H12.4174C12.7979 19 13.1705 19.1086 13.4915 19.3129L17.4629 21.8414C18.1287 22.2652 19 21.787 19 20.9979V19H20C21.6569 19 23 17.6569 23 16V5C23 3.34315 21.6569 2 20 2ZM6 8.5C6 7.94772 6.44772 7.5 7 7.5H17C17.5523 7.5 18 7.94772 18 8.5C18 9.05228 17.5523 9.5 17 9.5H7C6.44772 9.5 6 9.05228 6 8.5ZM7 11.5C6.44772 11.5 6 11.9477 6 12.5C6 13.0523 6.44772 13.5 7 13.5H17C17.5523 13.5 18 13.0523 18 12.5C18 11.9477 17.5523 11.5 17 11.5H7Z" fill="currentColor"/>
</svg>
