<svg width="24" height="24" viewBox="0 0 24 24" fill="none" xmlns="http://www.w3.org/2000/svg">
<path fill-rule="evenodd" clip-rule="evenodd" d="M4 2H20C21.6569 2 23 3.34315 23 5V16C23 17.6569 21.6569 19 20 19H19V20.9979C19 21.787 18.1287 22.2652 17.4629 21.8414L13.4915 19.3129C13.1705 19.1086 12.7979 19 12.4174 19H4C2.34315 19 1 17.6569 1 16V5C1 3.34315 2.34315 2 4 2ZM12.0002 8.66675C11.5095 8.66675 11.1261 8.98434 10.8946 9.4473C10.6477 9.94127 10.047 10.1415 9.55301 9.89451C9.05903 9.64752 8.8588 9.04685 9.10579 8.55287C9.54098 7.68249 10.4909 6.66675 12.0002 6.66675C12.7133 6.66675 13.4591 6.90331 14.0396 7.41934C14.6385 7.95173 15.0002 8.72872 15.0002 9.66675C15.0002 10.8643 14.1153 11.6252 13.5549 11.9988C13.2443 12.2059 12.9408 12.3569 12.7189 12.4556C12.6065 12.5055 12.5114 12.5436 12.4422 12.57C12.4074 12.5832 12.3789 12.5936 12.3577 12.6012L12.3313 12.6104L12.3224 12.6134L12.319 12.6146L12.3177 12.615L12.3313 12.6104L12.3164 12.6154C11.7925 12.7901 11.2262 12.5069 11.0515 11.983C10.8773 11.4601 11.1589 10.8951 11.6807 10.7192L11.6877 10.7167C11.6957 10.7139 11.7102 10.7086 11.7302 10.701C11.7702 10.6857 11.8315 10.6613 11.9066 10.6279C12.0597 10.5599 12.2562 10.4609 12.4455 10.3347C12.8851 10.0416 13.0002 9.80255 13.0002 9.66675C13.0002 9.27144 12.8619 9.04844 12.7109 8.91416C12.5414 8.76352 12.2871 8.66675 12.0002 8.66675ZM13 15C13 15.5523 12.5523 16 12 16C11.4477 16 11 15.5523 11 15C11 14.4477 11.4477 14 12 14C12.5523 14 13 14.4477 13 15Z" fill="currentColor"/>
</svg>
