<svg width="24" height="24" viewBox="0 0 24 24" fill="none" xmlns="http://www.w3.org/2000/svg">
<path fill-rule="evenodd" clip-rule="evenodd" d="M4.40014 2.99951H17.4004C18.726 2.99951 19.8005 4.07409 19.8005 5.39965V9.39988H11.8001C10.4745 9.39988 9.39993 10.4745 9.39993 11.8V16.6094L6.68454 18.6778C6.1579 19.0789 5.3997 18.7034 5.3997 18.0414V16H4.40014C3.07458 16 2 14.9254 2 13.5999V5.39965C2 4.07409 3.07458 2.99951 4.40014 2.99951ZM12.5 10.9998H20.5C21.3284 10.9998 22 11.6713 22 12.4998V17.5036C22 18.332 21.3284 19.0036 20.5 19.0036H20V20.5022C20 20.9303 19.4971 21.1604 19.1732 20.8806L17.2816 19.2468C17.0999 19.0899 16.8679 19.0036 16.6279 19.0036H12.5C11.6716 19.0036 11 18.332 11 17.5036V12.4998C11 11.6713 11.6716 10.9998 12.5 10.9998Z" fill="currentColor"/>
</svg>
