<svg width="24" height="24" viewBox="0 0 24 24" fill="none" xmlns="http://www.w3.org/2000/svg">
<path fill-rule="evenodd" clip-rule="evenodd" d="M4 2H20C21.6569 2 23 3.34315 23 5V16C23 17.6569 21.6569 19 20 19H19V20.9979C19 21.787 18.1287 22.2652 17.4629 21.8414L13.4915 19.3129C13.1705 19.1086 12.7979 19 12.4174 19H4C2.34315 19 1 17.6569 1 16V5C1 3.34315 2.34315 2 4 2ZM15.9571 9.20711C16.3476 8.81658 16.3476 8.18342 15.9571 7.79289C15.5666 7.40237 14.9334 7.40237 14.5429 7.79289L10.75 11.5858L9.45711 10.2929C9.06658 9.90237 8.43342 9.90237 8.04289 10.2929C7.65237 10.6834 7.65237 11.3166 8.04289 11.7071L10.0429 13.7071C10.4334 14.0976 11.0666 14.0976 11.4571 13.7071L15.9571 9.20711Z" fill="currentColor"/>
</svg>
