<svg width="24" height="24" viewBox="0 0 24 24" fill="none" xmlns="http://www.w3.org/2000/svg">
<path fill-rule="evenodd" clip-rule="evenodd" d="M4 2H20C21.6569 2 23 3.34315 23 5V14.5898C23 14.7378 22.8542 14.8428 22.7072 14.8253L20.7523 14.5936C20.4069 14.5526 20.1077 14.3352 19.962 14.0194L19.1374 12.2317C18.8923 11.7003 18.3605 11.36 17.7753 11.36C17.1901 11.36 16.6584 11.7003 16.4133 12.2317L15.5887 14.0194C15.443 14.3352 15.1438 14.5526 14.7984 14.5936L12.8434 14.8253C12.2623 14.8943 11.7743 15.2948 11.5935 15.8514C11.4126 16.408 11.572 17.0189 12.0016 17.4162L12.9642 18.3063C13.2314 18.5534 13.0565 19 12.6926 19H11.5826C11.2021 19 10.8295 19.1086 10.5085 19.3129L6.53706 21.8414C5.87134 22.2652 5 21.787 5 20.9979V19H4C2.34315 19 1 17.6569 1 16V5C1 3.34315 2.34315 2 4 2ZM4 8C4 7.44772 4.44772 7 5 7H19C19.5523 7 20 7.44772 20 8C20 8.55228 19.5523 9 19 9H5C4.44772 9 4 8.55228 4 8ZM4 12C4 11.4477 4.44772 11 5 11H13C13.5523 11 14 11.4477 14 12C14 12.5523 13.5523 13 13 13H5C4.44772 13 4 12.5523 4 12ZM18.2245 13.2908C18.1428 13.1136 17.9655 13 17.7703 13C17.5752 13 17.3978 13.1136 17.3162 13.2908L16.1874 15.7415L13.5114 16.0592C13.3177 16.0822 13.1551 16.2157 13.0948 16.4011C13.0345 16.5865 13.0875 16.7901 13.2306 16.9226L15.2095 18.7551L14.6841 21.4027C14.6462 21.5941 14.723 21.79 14.8809 21.9046C15.0388 22.0192 15.2489 22.0315 15.4191 21.9362L17.7703 20.6182L20.1216 21.9362C20.2918 22.0315 20.5019 22.0192 20.6598 21.9046C20.8177 21.79 20.8945 21.5941 20.8565 21.4027L20.3312 18.7551L22.3101 16.9226C22.4531 16.7901 22.5061 16.5865 22.4458 16.4011C22.3855 16.2157 22.2229 16.0822 22.0293 16.0592L19.3533 15.7415L18.2245 13.2908Z" fill="currentColor"/>
</svg>
