<svg width="24" height="24" viewBox="0 0 24 24" fill="none" xmlns="http://www.w3.org/2000/svg">
<path d="M1.7522 6.85412C1.33974 6.99157 1.04695 7.35899 1.00512 7.79164C0.963296 8.22429 1.18028 8.64097 1.55878 8.85485L8.51619 12.7863C8.94637 13.0294 9.4859 12.9559 9.83532 12.6065L21.1667 1.95269C21.5913 1.55345 21.1846 0.854776 20.6276 1.02673L1.7522 6.85412Z" fill="currentColor"/>
<path d="M11.3905 14.1669C11.0411 14.5163 10.9675 15.0557 11.2107 15.4857L12.1324 17.116C12.5097 15.8906 13.6508 15 15 15C15 13.3431 16.3431 12 18 12C18.7965 12 19.5204 12.3104 20.0576 12.8168L22.9733 3.3774C23.1453 2.82057 22.4464 2.4139 22.0471 2.83843L11.3905 14.1669Z" fill="currentColor"/>
<path d="M5.33442 14.1812L4.8379 17.6661C4.71383 18.537 5.46039 19.2832 6.33144 19.1591L9.81671 18.6622C10.3554 18.5854 10.5751 17.9267 10.1903 17.5421L6.4548 13.8075C6.07004 13.4229 5.41115 13.6426 5.33442 14.1812Z" fill="currentColor"/>
<path d="M19 15C19 14.4477 18.5523 14 18 14C17.4477 14 17 14.4477 17 15V17H15C14.4477 17 14 17.4477 14 18C14 18.5523 14.4477 19 15 19H17V21C17 21.5523 17.4477 22 18 22C18.5523 22 19 21.5523 19 21V19H21C21.5523 19 22 18.5523 22 18C22 17.4477 21.5523 17 21 17H19V15Z" fill="currentColor"/>
</svg>
