<svg width="24" height="24" viewBox="0 0 24 24" fill="none" xmlns="http://www.w3.org/2000/svg">
<path fill-rule="evenodd" clip-rule="evenodd" d="M3.44726 2.10558C3.09375 1.92883 2.6693 1.97687 2.36424 2.22816C2.05918 2.47945 1.93074 2.88684 2.03652 3.26765L3.98097 10.2677C4.1012 10.7005 4.49528 11 4.94449 11H11C11.5523 11 12 11.4477 12 12C12 12.5523 11.5523 13 11 13H4.94449C4.49528 13 4.1012 13.2995 3.98097 13.7324L2.03652 20.7324C1.93074 21.1132 2.05918 21.5206 2.36424 21.7719C2.6693 22.0232 3.09375 22.0712 3.44726 21.8944L21.4473 12.8944C21.786 12.725 22 12.3788 22 12C22 11.6212 21.786 11.275 21.4473 11.1056L3.44726 2.10558Z" fill="currentColor"/>
</svg>
