<svg width="24" height="24" viewBox="0 0 24 24" fill="none" xmlns="http://www.w3.org/2000/svg">
<path d="M11.3905 14.1669C11.0411 14.5163 10.9675 15.0557 11.2107 15.4857L15.1431 22.4414C15.3571 22.8198 15.7738 23.0367 16.2066 22.9949C16.6394 22.9531 17.0069 22.6604 17.1444 22.248L22.9733 3.3774C23.1453 2.82057 22.4464 2.4139 22.0471 2.83843L11.3905 14.1669Z" fill="currentColor"/>
<path d="M4.8379 17.6661L5.33442 14.1812C5.41115 13.6426 6.07004 13.4229 6.4548 13.8075L10.1903 17.5421C10.5751 17.9268 10.3554 18.5854 9.81671 18.6622L6.33144 19.1591C5.46039 19.2832 4.71383 18.537 4.8379 17.6661Z" fill="currentColor"/>
<path d="M1.00512 7.79164C1.04695 7.35899 1.33974 6.99157 1.7522 6.85412L20.6276 1.02673C21.1846 0.854776 21.5913 1.55345 21.1667 1.95269L9.83532 12.6065C9.4859 12.9559 8.94637 13.0294 8.51619 12.7863L1.55878 8.85485C1.18028 8.64097 0.963296 8.22429 1.00512 7.79164Z" fill="currentColor"/>
</svg>
