<svg width="24" height="24" viewBox="0 0 24 24" fill="none" xmlns="http://www.w3.org/2000/svg">
<path fill-rule="evenodd" clip-rule="evenodd" d="M15.9996 2C15.4473 2 14.9996 2.44772 14.9996 3C14.9996 3.55228 15.4473 4 15.9996 4H18.5854L14.2925 8.29289C13.9019 8.68342 13.9019 9.31658 14.2925 9.70711C14.683 10.0976 15.3162 10.0976 15.7067 9.70711L19.9996 5.41422V8C19.9996 8.55228 20.4473 9 20.9996 9C21.5518 9 21.9996 8.55228 21.9996 8V3C21.9996 2.44772 21.5518 2 20.9996 2H15.9996ZM3.82852 6.00003C4.60957 5.21898 5.8759 5.21898 6.65695 6.00003L8.77826 8.12135C9.55931 8.9024 9.55931 10.1687 8.77826 10.9498L8.5348 11.1932C8.60435 11.3536 8.68979 11.5399 8.79092 11.7419C9.12205 12.4035 9.59558 13.1813 10.1925 13.7782C10.7894 14.3751 11.5672 14.8486 12.2288 15.1798C12.4308 15.2809 12.6171 15.3663 12.7774 15.4359L13.0209 15.1924C13.802 14.4114 15.0683 14.4114 15.8493 15.1924L17.9707 17.3137C18.7517 18.0948 18.7517 19.3611 17.9707 20.1422L16.8336 21.2792C15.9497 22.1631 14.5875 22.4217 13.4385 21.8335C11.7355 20.9616 8.54638 19.2032 6.65694 17.3137C4.7675 15.4243 3.0091 12.2352 2.13723 10.5321C1.549 9.38315 1.80759 8.02095 2.69148 7.13707L3.82852 6.00003Z" fill="currentColor"/>
</svg>
