<svg width="24" height="24" viewBox="0 0 24 24" fill="none" xmlns="http://www.w3.org/2000/svg">
<path fill-rule="evenodd" clip-rule="evenodd" d="M14.3179 3.31804C14.7084 2.92752 15.3415 2.92752 15.7321 3.31804L17.5001 5.08603L19.268 3.31804C19.6586 2.92752 20.2917 2.92752 20.6823 3.31804C21.0728 3.70856 21.0728 4.34173 20.6823 4.73225L18.9143 6.50024L20.6818 8.26779C21.0723 8.65831 21.0723 9.29148 20.6818 9.682C20.2913 10.0725 19.6581 10.0725 19.2676 9.682L17.5001 7.91446L15.7325 9.682C15.342 10.0725 14.7088 10.0725 14.3183 9.682C13.9278 9.29148 13.9278 8.65831 14.3183 8.26779L16.0858 6.50024L14.3179 4.73225C13.9273 4.34173 13.9273 3.70856 14.3179 3.31804ZM3.82852 6.00003C4.60957 5.21898 5.8759 5.21898 6.65695 6.00003L8.77826 8.12135C9.55931 8.9024 9.55931 10.1687 8.77826 10.9498L8.5348 11.1932C8.60435 11.3536 8.68979 11.5399 8.79092 11.7419C9.12205 12.4035 9.59558 13.1813 10.1925 13.7782C10.7894 14.3751 11.5672 14.8486 12.2288 15.1798C12.4308 15.2809 12.6171 15.3663 12.7774 15.4359L13.0209 15.1924C13.802 14.4114 15.0683 14.4114 15.8493 15.1924L17.9707 17.3137C18.7517 18.0948 18.7517 19.3611 17.9707 20.1422L16.8336 21.2792C15.9497 22.1631 14.5875 22.4217 13.4385 21.8335C11.7355 20.9616 8.54638 19.2032 6.65694 17.3137C4.7675 15.4243 3.0091 12.2352 2.13723 10.5321C1.549 9.38315 1.80759 8.02095 2.69148 7.13707L3.82852 6.00003Z" fill="currentColor"/>
</svg>
