<svg width="24" height="24" viewBox="0 0 24 24" fill="none" xmlns="http://www.w3.org/2000/svg">
<path fill-rule="evenodd" clip-rule="evenodd" d="M10.1694 8.37938L9.75796 8.79087C9.85338 9.01791 9.97921 9.29916 10.135 9.61048C10.5445 10.4285 11.1353 11.4018 11.8879 12.1544C12.6404 12.907 13.6137 13.4977 14.4318 13.9072C14.7431 14.0631 15.0243 14.1889 15.2514 14.2843L15.6629 13.8728C16.5256 13.0101 17.9243 13.0101 18.787 13.8728L21.3944 16.4802C22.2571 17.3429 22.2571 18.7416 21.3944 19.6043L19.9856 21.0131C18.9781 22.0205 17.4291 22.313 16.1242 21.6455C14.0465 20.5826 10.1684 18.4441 7.88329 16.159C5.59814 13.8738 3.45966 9.99571 2.39677 7.91801C1.72924 6.61316 2.02171 5.06413 3.0292 4.05664L4.43796 2.64789C5.30066 1.78518 6.69939 1.78518 7.5621 2.64789L10.1694 5.25523C11.0322 6.11794 11.0322 7.51667 10.1694 8.37938Z" fill="currentColor"/>
</svg>
