<svg width="24" height="24" viewBox="0 0 24 24" fill="none" xmlns="http://www.w3.org/2000/svg">
<path d="M22.7071 3.70711C23.0976 3.31658 23.0976 2.68342 22.7071 2.29289C22.3166 1.90237 21.6834 1.90237 21.2929 2.29289L2.29289 21.2929C1.90237 21.6834 1.90237 22.3166 2.29289 22.7071C2.68342 23.0976 3.31658 23.0976 3.70711 22.7071L9.13534 17.2789C11.4045 19.1234 14.3909 20.7588 16.1242 21.6455C17.4291 22.313 18.9781 22.0205 19.9856 21.0131L21.3944 19.6043C22.2571 18.7416 22.2571 17.3429 21.3944 16.4802L18.787 13.8728C17.9243 13.0101 16.5256 13.0101 15.6629 13.8728L15.2514 14.2843C15.0243 14.1889 14.7431 14.0631 14.4318 13.9072C14.045 13.7136 13.6236 13.4795 13.2072 13.207L22.7071 3.70711Z" fill="currentColor"/>
<path d="M10.135 9.61048C10.2528 9.84575 10.3856 10.0938 10.5328 10.3458L6.41359 14.4651C4.71353 12.2624 3.22702 9.54094 2.39677 7.91801C1.72924 6.61316 2.02171 5.06413 3.0292 4.05664L4.43796 2.64789C5.30066 1.78518 6.69939 1.78518 7.5621 2.64789L10.1694 5.25523C11.0322 6.11794 11.0322 7.51667 10.1694 8.37938L9.75796 8.79087C9.85338 9.01791 9.97921 9.29916 10.135 9.61048Z" fill="currentColor"/>
</svg>
