<svg width="24" height="24" viewBox="0 0 24 24" fill="none" xmlns="http://www.w3.org/2000/svg">
<path fill-rule="evenodd" clip-rule="evenodd" d="M13.16 2.00614C12.6111 1.94516 12.1167 2.34071 12.0557 2.88961C11.9947 3.43852 12.3902 3.93293 12.9391 3.99391C14.7429 4.1943 16.425 5.00207 17.7091 6.28459C18.9933 7.5671 19.8032 9.24814 20.0058 11.0517C20.0675 11.6005 20.5624 11.9954 21.1112 11.9338C21.6601 11.8721 22.055 11.3772 21.9933 10.8284C21.74 8.57393 20.7276 6.47263 19.1225 4.86948C17.5173 3.26634 15.4147 2.25663 13.16 2.00614ZM13.2411 6.01853C12.699 5.91277 12.1738 6.26647 12.0681 6.80853C11.9623 7.3506 12.316 7.87576 12.8581 7.98152C13.6395 8.13397 14.3576 8.51613 14.9205 9.07907C15.4835 9.64201 15.8656 10.3601 16.0181 11.1415C16.1238 11.6836 16.649 12.0373 17.1911 11.9315C17.7331 11.8258 18.0868 11.3006 17.9811 10.7585C17.7524 9.58645 17.1791 8.50927 16.3347 7.66486C15.4903 6.82044 14.4131 6.24721 13.2411 6.01853ZM3.82852 6.00003C4.60957 5.21898 5.8759 5.21898 6.65695 6.00003L8.77826 8.12135C9.55931 8.9024 9.55931 10.1687 8.77826 10.9498L8.5348 11.1932C8.60435 11.3536 8.68979 11.5399 8.79092 11.7419C9.12205 12.4035 9.59558 13.1813 10.1925 13.7782C10.7894 14.3751 11.5672 14.8486 12.2288 15.1798C12.4308 15.2809 12.6171 15.3663 12.7774 15.4359L13.0209 15.1924C13.802 14.4114 15.0683 14.4114 15.8493 15.1924L17.9707 17.3137C18.7517 18.0948 18.7517 19.3611 17.9707 20.1422L16.8336 21.2792C15.9497 22.1631 14.5875 22.4217 13.4385 21.8335C11.7355 20.9616 8.54638 19.2032 6.65694 17.3137C4.7675 15.4243 3.0091 12.2352 2.13723 10.5321C1.549 9.38315 1.80759 8.02095 2.69148 7.13707L3.82852 6.00003Z" fill="currentColor"/>
</svg>
