<svg width="24" height="24" viewBox="0 0 24 24" fill="none" xmlns="http://www.w3.org/2000/svg">
<path fill-rule="evenodd" clip-rule="evenodd" d="M1.64952 5.29686C2.96147 4.45092 7.16963 2 12 2C16.8304 2 21.0385 4.45092 22.3505 5.29686C22.7732 5.56942 23 6.03281 23 6.51019V8C23 8.82843 22.3284 9.5 21.5 9.5H20.7361C19.7891 9.5 18.9235 8.96499 18.5 8.11803L17.9233 6.96457C17.7445 6.60706 17.4382 6.34731 17.0747 6.24872C16.0012 5.95752 13.9928 5.5 12 5.5C10.0072 5.5 7.99878 5.95752 6.92527 6.24872C6.56183 6.34731 6.25549 6.60706 6.07673 6.96457L5.5 8.11803C5.07652 8.96499 4.21086 9.5 3.26393 9.5H2.5C1.67157 9.5 1 8.82843 1 8V6.51019C1 6.0328 1.22682 5.56942 1.64952 5.29686ZM6.5645 9.41C7.11272 8.53286 8.07413 8 9.1085 8H14.8915C15.9259 8 16.8873 8.53286 17.4355 9.41L21.544 15.9836C21.842 16.4604 22 17.0113 22 17.5736V19C22 20.6569 20.6569 22 19 22H5C3.34315 22 2 20.6569 2 19V17.5736C2 17.0113 2.15801 16.4604 2.45601 15.9836L6.5645 9.41ZM12 18C13.6569 18 15 16.6569 15 15C15 13.3431 13.6569 12 12 12C10.3431 12 9 13.3431 9 15C9 16.6569 10.3431 18 12 18Z" fill="currentColor"/>
</svg>
