<svg width="24" height="24" viewBox="0 0 24 24" fill="none" xmlns="http://www.w3.org/2000/svg">
<path fill-rule="evenodd" clip-rule="evenodd" d="M19.9996 10C20.5519 10 20.9996 9.55228 20.9996 9C20.9996 8.44772 20.5519 8 19.9996 8L17.4138 8L21.7067 3.70711C22.0972 3.31658 22.0972 2.68342 21.7067 2.29289C21.3161 1.90237 20.683 1.90237 20.2925 2.29289L15.9996 6.58578L15.9996 4C15.9996 3.44772 15.5519 3 14.9996 3C14.4473 3 13.9996 3.44771 13.9996 4L13.9996 9C13.9996 9.55228 14.4473 10 14.9996 10L19.9996 10ZM3.82852 6.00003C4.60957 5.21898 5.8759 5.21898 6.65695 6.00003L8.77826 8.12135C9.55931 8.9024 9.55931 10.1687 8.77826 10.9498L8.5348 11.1932C8.60435 11.3536 8.68979 11.5399 8.79092 11.7419C9.12205 12.4035 9.59558 13.1813 10.1925 13.7782C10.7894 14.3751 11.5672 14.8486 12.2288 15.1798C12.4308 15.2809 12.6171 15.3663 12.7774 15.4359L13.0209 15.1924C13.802 14.4114 15.0683 14.4114 15.8493 15.1924L17.9707 17.3137C18.7517 18.0948 18.7517 19.3611 17.9707 20.1422L16.8336 21.2792C15.9497 22.1631 14.5875 22.4217 13.4385 21.8335C11.7355 20.9616 8.54638 19.2032 6.65694 17.3137C4.7675 15.4243 3.0091 12.2352 2.13723 10.5321C1.549 9.38315 1.80759 8.02095 2.69148 7.13707L3.82852 6.00003Z" fill="currentColor"/>
</svg>
