<svg width="24" height="24" viewBox="0 0 24 24" fill="none" xmlns="http://www.w3.org/2000/svg">
<path fill-rule="evenodd" clip-rule="evenodd" d="M15.0001 3C15.5523 3 16.0001 3.44772 16.0001 4V10C16.0001 10.5523 15.5523 11 15.0001 11C14.4478 11 14.0001 10.5523 14.0001 10V4C14.0001 3.44772 14.4478 3 15.0001 3ZM6.65695 6.00003C5.8759 5.21898 4.60957 5.21898 3.82852 6.00003L2.69148 7.13707C1.80759 8.02095 1.549 9.38315 2.13723 10.5321C3.0091 12.2352 4.7675 15.4243 6.65694 17.3137C8.54638 19.2032 11.7355 20.9616 13.4385 21.8335C14.5875 22.4217 15.9497 22.1631 16.8336 21.2792L17.9707 20.1422C18.7517 19.3611 18.7517 18.0948 17.9707 17.3137L15.8493 15.1924C15.0683 14.4114 13.802 14.4114 13.0209 15.1924L12.7774 15.4359C12.6171 15.3663 12.4308 15.2809 12.2288 15.1798C11.5672 14.8486 10.7894 14.3751 10.1925 13.7782C9.59558 13.1813 9.12205 12.4035 8.79092 11.7419C8.68979 11.5399 8.60435 11.3536 8.5348 11.1932L8.77826 10.9498C9.55931 10.1687 9.55931 8.9024 8.77826 8.12135L6.65695 6.00003ZM20.0001 4C20.0001 3.44772 19.5523 3 19.0001 3C18.4478 3 18.0001 3.44772 18.0001 4V10C18.0001 10.5523 18.4478 11 19.0001 11C19.5523 11 20.0001 10.5523 20.0001 10V4Z" fill="currentColor"/>
</svg>
