<svg width="24" height="24" viewBox="0 0 24 24" fill="none" xmlns="http://www.w3.org/2000/svg">
<path fill-rule="evenodd" clip-rule="evenodd" d="M15.4999 2.39939C15.0325 2.39939 14.5773 2.45196 14.14 2.55151L14.1201 2.66426C14.1018 2.7686 14.0756 2.92095 14.0442 3.11152C13.9812 3.49285 13.8971 4.02623 13.8132 4.63358C13.7894 4.80567 13.7657 4.98303 13.7425 5.16398C14.3526 5.1125 14.9562 5.07937 15.5002 5.07937C16.044 5.07937 16.6474 5.11248 17.2573 5.16393C17.2341 4.98306 17.2104 4.80578 17.1866 4.63376C17.1027 4.02641 17.0186 3.49303 16.9556 3.1117C16.9242 2.92113 16.898 2.76878 16.8797 2.66444L16.8597 2.55151C16.4225 2.45196 15.9673 2.39939 15.4999 2.39939ZM10.1182 5.62428C10.6873 4.56159 11.5619 3.68706 12.6246 3.11811C12.5662 3.48058 12.4963 3.93597 12.4263 4.44182C12.3882 4.71786 12.3498 5.01059 12.3131 5.31276C12.0109 5.34941 11.7182 5.38783 11.4422 5.426C10.9362 5.49596 10.4807 5.5659 10.1182 5.62428ZM9.39927 8.5C9.39927 8.03243 9.45187 7.57715 9.55148 7.13975L9.6646 7.11974C9.76894 7.10148 9.92129 7.07529 10.1119 7.04381C10.4932 6.98081 11.0266 6.89679 11.6339 6.8128C11.806 6.78901 11.9834 6.76531 12.1643 6.74216C12.1129 7.35222 12.0797 7.95586 12.0797 8.49983C12.0797 9.04371 12.1128 9.64725 12.1643 10.2572C11.9829 10.234 11.8051 10.2103 11.6327 10.1864C11.0253 10.1024 10.4919 10.0184 10.1106 9.9554C9.92003 9.92392 9.76768 9.89773 9.66334 9.87947L9.55134 9.85967C9.45182 9.42244 9.39927 8.96736 9.39927 8.5ZM12.6247 13.8819C11.5617 13.3129 10.6869 12.4381 10.1179 11.3751C10.4802 11.4334 10.9354 11.5033 11.4409 11.5732C11.7173 11.6114 12.0105 11.6499 12.3131 11.6866C12.3497 11.9889 12.3882 12.2817 12.4263 12.5578C12.4963 13.0639 12.5663 13.5194 12.6247 13.8819ZM15.4999 14.6006C15.0325 14.6006 14.5774 14.5481 14.1401 14.4485L14.1201 14.3354C14.1018 14.2311 14.0756 14.0787 14.0442 13.8881C13.9812 13.5068 13.8971 12.9734 13.8132 12.3661C13.7893 12.1939 13.7656 12.0164 13.7425 11.8353C14.3521 11.8868 14.9553 11.9198 15.4989 11.9198C16.0431 11.9198 16.647 11.8867 17.2574 11.8352C17.2342 12.0164 17.2105 12.1939 17.1866 12.3663C17.1027 12.9736 17.0186 13.507 16.9556 13.8883C16.9242 14.0789 16.898 14.2312 16.8797 14.3356L16.8597 14.4485C16.4225 14.548 15.9673 14.6006 15.4999 14.6006ZM20.8821 11.3747C20.313 12.4379 19.4382 13.3128 18.3752 13.8819C18.4336 13.5194 18.5035 13.0639 18.5735 12.558C18.6117 12.2818 18.6501 11.9888 18.6868 11.6864C18.9887 11.6497 19.2811 11.6114 19.5569 11.5732C20.0634 11.5032 20.5194 11.4332 20.8821 11.3747ZM21.6005 8.5C21.6005 8.96723 21.548 9.4222 21.4485 9.85931L21.3345 9.87947C21.2301 9.89773 21.0778 9.92392 20.8872 9.9554C20.5059 10.0184 19.9725 10.1024 19.3652 10.1864C19.1933 10.2102 19.0162 10.2338 18.8355 10.257C18.887 9.64714 18.9201 9.04376 18.9201 8.50001C18.9201 7.95597 18.8869 7.35223 18.8354 6.74208C19.0166 6.76526 19.1942 6.78898 19.3664 6.8128C19.9738 6.89679 20.5071 6.98081 20.8885 7.04381C21.0791 7.07529 21.2314 7.10148 21.3357 7.11974L21.4483 7.13964C21.5479 7.57707 21.6005 8.03239 21.6005 8.5ZM18.3752 3.11811C19.4379 3.68705 20.3125 4.56154 20.8815 5.62417C20.5191 5.56581 20.0638 5.49592 19.5582 5.426C19.282 5.3878 18.989 5.34936 18.6867 5.31269C18.65 5.01061 18.6116 4.71796 18.5735 4.442C18.5035 3.93607 18.4336 3.48061 18.3752 3.11811ZM7.99927 8.5C7.99927 4.35753 11.3574 0.99939 15.4999 0.99939C19.6424 0.99939 23.0005 4.35753 23.0005 8.5C23.0005 12.6425 19.6424 16.0006 15.4999 16.0006C11.3574 16.0006 7.99927 12.6425 7.99927 8.5ZM17.4159 10.4156C17.4786 9.74276 17.5201 9.07866 17.5201 8.50001C17.5201 7.92109 17.4786 7.25664 17.4159 6.58351C16.743 6.52081 16.0789 6.47937 15.5002 6.47937C14.9213 6.47937 14.257 6.52084 13.5839 6.58357C13.5212 7.25662 13.4797 7.92098 13.4797 8.49983C13.4797 9.07858 13.5212 9.74282 13.5839 10.4158C14.2565 10.4784 14.9204 10.5198 15.4989 10.5198C16.078 10.5198 16.7426 10.4783 17.4159 10.4156ZM6.14793 14.1944L6.42218 13.9201C6.99717 13.3451 6.99717 12.4129 6.42219 11.8379L4.68443 10.1002C4.10945 9.5252 3.17722 9.5252 2.60224 10.1002L1.66333 11.0391C0.991854 11.7106 0.796924 12.743 1.24182 13.6126C1.95022 14.9974 3.37549 17.5821 4.8985 19.1051C6.42151 20.6281 9.00621 22.0534 10.391 22.7618C11.2606 23.2067 12.293 23.0117 12.9645 22.3403L13.9034 21.4014C14.4784 20.8264 14.4784 19.8941 13.9034 19.3192L12.1657 17.5814C11.5907 17.0064 10.6584 17.0064 10.0835 17.5814L9.80922 17.8557C9.6579 17.7921 9.47045 17.7082 9.26296 17.6043C8.71774 17.3314 8.06906 16.9377 7.56749 16.4361C7.06591 15.9345 6.67216 15.2859 6.39925 14.7406C6.29539 14.5331 6.21153 14.3457 6.14793 14.1944Z" fill="currentColor"/>
</svg>
