<svg width="24" height="24" viewBox="0 0 24 24" fill="none" xmlns="http://www.w3.org/2000/svg">
<path fill-rule="evenodd" clip-rule="evenodd" d="M3.70711 2.29289C3.31658 1.90237 2.68342 1.90237 2.29289 2.29289C1.90237 2.68342 1.90237 3.31658 2.29289 3.70711L6.17424 7.58845L5.76057 7.91509C5.72601 7.94239 5.69248 7.97071 5.66002 8H3C1.89543 8 1 8.89543 1 10V14C1 15.1046 1.89543 16 3 16H5.65941C5.69195 16.0294 5.72555 16.0578 5.7602 16.0852L11.5702 20.675C12.5537 21.4521 14 20.7515 14 19.498V15.4142L20.2929 21.7071C20.6834 22.0976 21.3166 22.0976 21.7071 21.7071C22.0976 21.3166 22.0976 20.6834 21.7071 20.2929L3.70711 2.29289ZM16.9022 12.6629L18.426 14.1867C18.7118 13.6537 19 12.8969 19 12C19 11.0454 18.6735 10.2496 18.371 9.71323C18.2177 9.44157 18.0641 9.22471 17.9461 9.07278C17.8869 8.99648 17.8359 8.9356 17.7974 8.89137C17.7781 8.86924 17.7619 8.85119 17.7493 8.83739L17.7226 8.80878C17.3409 8.40967 16.7079 8.39561 16.3088 8.77736C15.9113 9.15758 15.8961 9.78744 16.2731 10.1868L16.2754 10.1893L16.2885 10.2042C16.3048 10.2228 16.3319 10.2549 16.3664 10.2994C16.4359 10.3889 16.5323 10.5243 16.629 10.6959C16.8265 11.0459 17 11.5001 17 12C17 12.2329 16.9624 12.4558 16.9022 12.6629ZM19.9245 15.6852L21.3518 17.1125C21.4221 17.024 21.493 16.9304 21.5636 16.8314C22.3002 15.8003 22.9999 14.2246 22.9999 12.0002C22.9999 9.77575 22.3002 8.20003 21.5636 7.16891C21.1989 6.65827 20.8306 6.28842 20.5455 6.04134C20.4028 5.91767 20.2803 5.82421 20.1886 5.75868C20.1427 5.7259 20.1044 5.70003 20.0749 5.68081C20.0602 5.67119 20.0477 5.66323 20.0376 5.65689L20.0144 5.64266C19.5408 5.35851 18.9266 5.51208 18.6424 5.98566C18.3599 6.45657 18.5101 7.06659 18.9775 7.35282L18.981 7.35514C18.9882 7.35984 19.0036 7.37011 19.0261 7.38615C19.0711 7.41828 19.1439 7.47325 19.2356 7.55272C19.4193 7.71188 19.6759 7.96703 19.9362 8.33139C20.4497 9.05027 20.9999 10.2246 20.9999 12.0002C20.9999 13.7757 20.4497 14.95 19.9362 15.6689L19.9245 15.6852ZM9.33327 5.09401L14 9.76074V4.50475C14 3.25142 12.5541 2.55081 11.5704 3.32751L9.33327 5.09401Z" fill="currentColor"/>
</svg>
