<svg width="24" height="24" viewBox="0 0 24 24" fill="none" xmlns="http://www.w3.org/2000/svg">
<path fill-rule="evenodd" clip-rule="evenodd" d="M11.5704 3.32751C12.5541 2.55081 14 3.25142 14 4.50475V19.498C14 20.7515 12.5537 21.4521 11.5702 20.675L5.7602 16.0852C5.72555 16.0578 5.69195 16.0294 5.65941 16H3C1.89543 16 1 15.1046 1 14V10C1 8.89543 1.89543 8 3 8H5.66002C5.69248 7.97071 5.72601 7.94239 5.76057 7.91509L11.5704 3.32751ZM22.7071 8.79289C23.0976 9.18342 23.0976 9.81658 22.7071 10.2071L20.9142 12L22.7071 13.7929C23.0976 14.1834 23.0976 14.8166 22.7071 15.2071C22.3166 15.5976 21.6834 15.5976 21.2929 15.2071L19.5 13.4142L17.7071 15.2071C17.3166 15.5976 16.6834 15.5976 16.2929 15.2071C15.9024 14.8166 15.9024 14.1834 16.2929 13.7929L18.0858 12L16.2929 10.2071C15.9024 9.81658 15.9024 9.18342 16.2929 8.79289C16.6834 8.40237 17.3166 8.40237 17.7071 8.79289L19.5 10.5858L21.2929 8.79289C21.6834 8.40237 22.3166 8.40237 22.7071 8.79289Z" fill="currentColor"/>
</svg>
