<svg width="24" height="24" viewBox="0 0 24 24" fill="none" xmlns="http://www.w3.org/2000/svg">
<path fill-rule="evenodd" clip-rule="evenodd" d="M11.5704 3.32751C12.5541 2.55081 14 3.25142 14 4.50475V19.498C14 20.7515 12.5537 21.4521 11.5702 20.675L5.7602 16.0852C5.72555 16.0578 5.69195 16.0294 5.65941 16H3C1.89543 16 1 15.1046 1 14V10C1 8.89543 1.89543 8 3 8H5.66002C5.69248 7.97071 5.72601 7.94239 5.76057 7.91509L11.5704 3.32751ZM16.3088 8.77736C16.7079 8.39561 17.3409 8.40967 17.7226 8.80878L17.7493 8.83739C17.7619 8.85119 17.7781 8.86924 17.7974 8.89137C17.8359 8.9356 17.8869 8.99648 17.9461 9.07278C18.0641 9.22471 18.2177 9.44157 18.371 9.71323C18.6735 10.2496 19 11.0454 19 12C19 12.9546 18.6735 13.7504 18.371 14.2868C18.2177 14.5584 18.0641 14.7753 17.9461 14.9272C17.8869 15.0035 17.8359 15.0644 17.7974 15.1086C17.7781 15.1308 17.7457 15.1663 17.7331 15.1801C17.3514 15.5792 16.7079 15.6044 16.3088 15.2226C15.9113 14.8424 15.8957 14.2129 16.2728 13.8136C16.2748 13.8113 16.2805 13.8051 16.2885 13.7958C16.3048 13.7772 16.3319 13.7451 16.3664 13.7006C16.4359 13.6111 16.5323 13.4757 16.629 13.3041C16.8265 12.9541 17 12.4999 17 12C17 11.5001 16.8265 11.0459 16.629 10.6959C16.5323 10.5243 16.4359 10.3889 16.3664 10.2994C16.3319 10.2549 16.3048 10.2228 16.2885 10.2042L16.2754 10.1893L16.2731 10.1868C15.8961 9.78744 15.9113 9.15758 16.3088 8.77736ZM20.0144 5.64266C19.5408 5.35851 18.9266 5.51208 18.6424 5.98566C18.3599 6.45657 18.5101 7.06659 18.9775 7.35282L18.981 7.35514C18.9882 7.35984 19.0036 7.37011 19.0261 7.38615C19.0711 7.41828 19.1439 7.47325 19.2356 7.55272C19.4193 7.71188 19.6759 7.96703 19.9362 8.33139C20.4497 9.05027 20.9999 10.2246 20.9999 12.0002C20.9999 13.7757 20.4497 14.95 19.9362 15.6689C19.6759 16.0333 19.4193 16.2884 19.2356 16.4476C19.1439 16.527 19.0711 16.582 19.0261 16.6142C19.0036 16.6302 18.9882 16.6405 18.981 16.6452L18.9777 16.6473C18.5102 16.9335 18.3598 17.5436 18.6424 18.0146C18.9266 18.4882 19.5418 18.6412 20.0154 18.357L20.0211 18.3535C20.035 18.3448 20.0623 18.3278 20.0749 18.3195C20.1044 18.3003 20.1427 18.2744 20.1886 18.2416C20.2803 18.1761 20.4028 18.0826 20.5455 17.959C20.8306 17.7119 21.1989 17.342 21.5636 16.8314C22.3002 15.8003 22.9999 14.2246 22.9999 12.0002C22.9999 9.77575 22.3002 8.20003 21.5636 7.16891C21.1989 6.65827 20.8306 6.28842 20.5455 6.04134C20.4028 5.91767 20.2803 5.82421 20.1886 5.75868C20.1427 5.7259 20.1044 5.70003 20.0749 5.68081C20.0602 5.67119 20.0477 5.66323 20.0376 5.65689L20.0144 5.64266Z" fill="currentColor"/>
</svg>
