<svg width="24" height="24" viewBox="0 0 24 24" fill="none" xmlns="http://www.w3.org/2000/svg">
<path fill-rule="evenodd" clip-rule="evenodd" d="M3.66683 12.3112C2.67356 11.3244 2.67356 9.7245 3.66683 8.7377L9.69954 2.7401C10.6928 1.7533 12.3032 1.7533 13.2965 2.7401C14.2898 3.7269 14.2898 5.32682 13.2965 6.31362L7.26379 12.3112C6.27052 13.298 4.6601 13.298 3.66683 12.3112ZM13.1375 17.6862C12.1443 18.673 12.1443 20.2729 13.1375 21.2597C14.1308 22.2465 15.7412 22.2465 16.7345 21.2597L20.3192 17.6984C21.3125 16.7116 21.3125 15.1117 20.3192 14.1249C19.3259 13.1381 17.7155 13.1381 16.7222 14.1249L13.1375 17.6862ZM7.46654 22.0001C8.00273 22.0001 8.26957 21.3729 7.89197 21.0069L3.93471 17.1706C3.55711 16.8046 2.91016 17.0632 2.91016 17.583V20.836C2.91016 21.4779 3.44887 22.0001 4.11093 22.0001H7.46654ZM8.59847 13.0123C7.6052 13.9991 7.6052 15.5991 8.59847 16.5859C9.59174 17.5727 11.2022 17.5727 12.1954 16.5859L20.3467 8.48769C21.34 7.50089 21.34 5.90097 20.3467 4.91417C19.3534 3.92737 17.743 3.92737 16.7498 4.91417L8.59847 13.0123Z" fill="currentColor"/>
</svg>
