<svg width="24" height="24" viewBox="0 0 24 24" fill="none" xmlns="http://www.w3.org/2000/svg">
<path fill-rule="evenodd" clip-rule="evenodd" d="M5 2C3.34315 2 2 3.34315 2 5V19C2 20.6569 3.34315 22 5 22H19C20.6569 22 22 20.6569 22 19V5C22 3.34315 20.6569 2 19 2H5ZM20.0001 8.00022C20.0001 9.10479 19.1047 10.0002 18.0001 10.0002C17.2487 10.0002 16.5941 9.58583 16.2523 8.97311C15.9004 9.13343 15.6658 9.45001 15.4926 9.92966C15.2547 10.5862 15.173 11.4444 15.0849 12.3862L15.0823 12.416C15.0042 13.2513 14.9194 14.1584 14.6725 14.9029C14.8796 15.218 15.0001 15.595 15.0001 16.0002C15.0001 17.1048 14.1047 18.0002 13.0001 18.0002C11.9928 18.0002 11.1594 17.2555 11.0205 16.2867C10.9267 16.2276 10.8372 16.1626 10.7513 16.0923C10.2808 15.706 9.93986 15.1719 9.64236 14.6962L9.62097 14.6625C9.0817 13.8 8.64009 13.0937 7.81447 12.8428C7.4965 13.5264 6.80364 14.0002 6.00011 14.0002C4.89554 14.0002 4.00011 13.1048 4.00011 12.0002C4.00011 10.8956 4.89554 10.0002 6.00011 10.0002C7.06578 10.0002 7.93678 10.8337 7.99681 11.8843C9.24667 12.2181 9.88023 13.2373 10.3858 14.0506L10.3977 14.0699C10.4207 14.1072 10.4436 14.1444 10.4668 14.1802C10.7144 14.5764 10.9339 14.9109 11.1813 15.1673C11.4972 14.4786 12.1928 14.0002 13.0001 14.0002C13.3086 14.0002 13.6007 14.07 13.8616 14.1947C13.9882 13.6483 14.0513 12.9997 14.1166 12.2967L14.1217 12.2423L14.122 12.2395C14.2049 11.3523 14.2957 10.38 14.578 9.59845C14.8258 8.91499 15.2708 8.31108 16.0004 8.03305L16.0001 8.00022C16.0001 6.89565 16.8955 6.00022 18.0001 6.00022C19.1047 6.00022 20.0001 6.89565 20.0001 8.00022Z" fill="#8F96CC"/>
</svg>
