<svg width="24" height="24" viewBox="0 0 24 24" fill="none" xmlns="http://www.w3.org/2000/svg">
<path fill-rule="evenodd" clip-rule="evenodd" d="M2 5C2 3.34315 3.34315 2 5 2H19C20.6569 2 22 3.34315 22 5V19C22 20.6569 20.6569 22 19 22H5C3.34315 22 2 20.6569 2 19V5ZM13 6C13 5.44772 13.4477 5 14 5H18C18.5523 5 19 5.44772 19 6V10C19 10.5523 18.5523 11 18 11H14C13.4477 11 13 10.5523 13 10V6ZM16.75 13.75C16.75 13.3358 16.4142 13 16 13C15.5858 13 15.25 13.3358 15.25 13.75V15.25H13.75C13.3358 15.25 13 15.5858 13 16C13 16.4142 13.3358 16.75 13.75 16.75H15.25V18.25C15.25 18.6642 15.5858 19 16 19C16.4142 19 16.75 18.6642 16.75 18.25V16.75H18.25C18.6642 16.75 19 16.4142 19 16C19 15.5858 18.6642 15.25 18.25 15.25H16.75V13.75ZM6 13C5.44772 13 5 13.4477 5 14V18C5 18.5523 5.44772 19 6 19H10C10.5523 19 11 18.5523 11 18V14C11 13.4477 10.5523 13 10 13H6ZM5 6C5 5.44772 5.44772 5 6 5H10C10.5523 5 11 5.44772 11 6V10C11 10.5523 10.5523 11 10 11H6C5.44772 11 5 10.5523 5 10V6Z" fill="#9C4DD3"/>
</svg>
