<svg width="24" height="24" viewBox="0 0 24 24" fill="none" xmlns="http://www.w3.org/2000/svg">
<path d="M2 5C2 3.34315 3.34315 2 5 2H19C20.6569 2 22 3.34315 22 5V19C22 20.6569 20.6569 22 19 22H5C3.34315 22 2 20.6569 2 19V5Z" fill="white"/>
<path d="M13 6C13 5.44772 13.4477 5 14 5H18C18.5523 5 19 5.44772 19 6V7.5C19 7.77614 18.7761 8 18.5 8H13.5C13.2239 8 13 7.77614 13 7.5V6Z" fill="#0099FF"/>
<path fill-rule="evenodd" clip-rule="evenodd" d="M5.5 10C5.22386 10 5 10.2239 5 10.5V15C5 15.5523 5.44772 16 6 16H10C10.5523 16 11 15.5523 11 15V10.5C11 10.2239 10.7761 10 10.5 10H5.5ZM13.5 10C13.2239 10 13 10.2239 13 10.5V18C13 18.5523 13.4477 19 14 19H18C18.5523 19 19 18.5523 19 18V10.5C19 10.2239 18.7761 10 18.5 10H13.5Z" fill="#FFB629"/>
<path d="M5 6C5 5.44772 5.44772 5 6 5H10C10.5523 5 11 5.44772 11 6V7.5C11 7.77614 10.7761 8 10.5 8H5.5C5.22386 8 5 7.77614 5 7.5V6Z" fill="#FF6100"/>
</svg>
