<svg width="24" height="24" viewBox="0 0 24 24" fill="none" xmlns="http://www.w3.org/2000/svg">
<g clip-path="url(#clip0_850_2243)">
<path fill-rule="evenodd" clip-rule="evenodd" d="M20.8422 21.7131C20.2375 22.1439 19.4977 22.3973 18.6986 22.3973C16.6559 22.3973 15 20.7413 15 18.6986C15 16.6559 16.6559 15 18.6986 15C20.7413 15 22.3973 16.6559 22.3973 18.6986C22.3973 19.4972 22.1442 20.2367 21.7138 20.8412L23.8195 22.9469C24.0602 23.1876 24.0602 23.5779 23.8195 23.8186C23.5788 24.0594 23.1884 24.0594 22.9477 23.8186L20.8422 21.7131ZM21.1644 18.699C21.1644 20.0608 20.0604 21.1648 18.6986 21.1648C17.3368 21.1648 16.2329 20.0608 16.2329 18.699C16.2329 17.3372 17.3368 16.2333 18.6986 16.2333C20.0604 16.2333 21.1644 17.3372 21.1644 18.699Z" fill="black"/>
<path fill-rule="evenodd" clip-rule="evenodd" d="M18 1H6C4.34315 1 3 2.34315 3 4V20C3 21.6569 4.34315 23 6 23H14.9605C13.8301 22.0167 13.0909 20.5952 13.0078 19H7.5C6.67157 19 6 18.3284 6 17.5C6 16.6716 6.67157 16 7.5 16H13.6782C14.1097 15.1989 14.7274 14.513 15.4732 14H7.5C6.67157 14 6 13.3284 6 12.5C6 11.6716 6.67157 11 7.5 11H16.5C17.3284 11 18 11.6716 18 12.5C18 12.6966 17.9622 12.8844 17.8934 13.0564C18.1565 13.0192 18.4253 13 18.6986 13C19.5176 13 20.2962 13.1728 21 13.4838V4C21 2.34315 19.6569 1 18 1ZM6 7.5C6 6.67157 6.67157 6 7.5 6H16.5C17.3284 6 18 6.67157 18 7.5C18 8.32843 17.3284 9 16.5 9H7.5C6.67157 9 6 8.32843 6 7.5Z" fill="black"/>
</g>
<defs>
<clipPath id="clip0_850_2243">
<rect width="24" height="24" fill="white"/>
</clipPath>
</defs>
</svg>
