<svg width="24" height="24" viewBox="0 0 24 24" fill="none" xmlns="http://www.w3.org/2000/svg">
<path fill-rule="evenodd" clip-rule="evenodd" d="M18.8806 13.5573C18.504 12.814 17.4913 12.8143 17.115 13.5577L13.1188 21.4529C12.7639 22.1539 13.2468 23 14.0017 23H21.9983C22.7534 23 23.2362 22.1535 22.881 21.4525L18.8806 13.5573ZM18.0005 20.4733C17.6137 20.4733 17.3002 20.8031 17.3002 21.21C17.3002 21.6169 17.6137 21.9467 18.0005 21.9467C18.3872 21.9467 18.7007 21.6169 18.7007 21.21C18.7007 20.8031 18.3872 20.4733 18.0005 20.4733ZM17.3002 18.7894C17.3002 19.1963 17.6137 19.5261 18.0004 19.5261C18.3871 19.5261 18.7006 19.1963 18.7006 18.7894V16.1584C18.7006 15.7515 18.3871 15.4217 18.0004 15.4217C17.6137 15.4217 17.3002 15.7515 17.3002 16.1584V18.7894Z" fill="currentColor"/>
<path fill-rule="evenodd" clip-rule="evenodd" d="M2 5C2 3.34315 3.34315 2 5 2H19C20.6569 2 22 3.34315 22 5V15.2881L20.665 12.6534C20.2863 11.906 19.6798 11.4121 19 11.1714V10.5C19 10.2239 18.7761 10 18.5 10H13.5C13.2239 10 13 10.2239 13 10.5V17.2595L11.3346 20.5497C11.1026 21.0081 10.9989 21.5072 11.0095 22H5C3.34315 22 2 20.6569 2 19V5ZM5 6C5 5.44772 5.44772 5 6 5H10C10.5523 5 11 5.44772 11 6V7.5C11 7.77614 10.7761 8 10.5 8H5.5C5.22386 8 5 7.77614 5 7.5V6ZM13 6C13 5.44772 13.4477 5 14 5H18C18.5523 5 19 5.44772 19 6V7.5C19 7.77614 18.7761 8 18.5 8H13.5C13.2239 8 13 7.77614 13 7.5V6ZM5 10.5C5 10.2239 5.22386 10 5.5 10H10.5C10.7761 10 11 10.2239 11 10.5V15C11 15.5523 10.5523 16 10 16H6C5.44772 16 5 15.5523 5 15V10.5Z" fill="currentColor"/>
</svg>
