<svg width="24" height="24" viewBox="0 0 24 24" fill="none" xmlns="http://www.w3.org/2000/svg">
<path fill-rule="evenodd" clip-rule="evenodd" d="M5 2C3.34315 2 2 3.34315 2 5V19C2 20.6569 3.34315 22 5 22H19C20.6569 22 22 20.6569 22 19V5C22 3.34315 20.6569 2 19 2H5ZM6 5C5.44772 5 5 5.44772 5 6V7.5C5 7.77614 5.22386 8 5.5 8H10.5C10.7761 8 11 7.77614 11 7.5V6C11 5.44772 10.5523 5 10 5H6ZM14 5C13.4477 5 13 5.44772 13 6V7.5C13 7.77614 13.2239 8 13.5 8H18.5C18.7761 8 19 7.77614 19 7.5V6C19 5.44772 18.5523 5 18 5H14ZM13 10.5C13 10.2239 13.2239 10 13.5 10H18.5C18.7761 10 19 10.2239 19 10.5V18C19 18.5523 18.5523 19 18 19H14C13.4477 19 13 18.5523 13 18V10.5ZM5.5 10C5.22386 10 5 10.2239 5 10.5V15C5 15.5523 5.44772 16 6 16H10C10.5523 16 11 15.5523 11 15V10.5C11 10.2239 10.7761 10 10.5 10H5.5Z" fill="#0075E3"/>
</svg>
