<svg width="24" height="24" viewBox="0 0 24 24" fill="none" xmlns="http://www.w3.org/2000/svg">
<path fill-rule="evenodd" clip-rule="evenodd" d="M2 5C2 3.34315 3.34315 2 5 2H19C20.6569 2 22 3.34315 22 5V15.272C21.6828 15.1446 21.3395 15.0583 20.979 15.021C20.8429 13.7079 20.0575 12.6223 19 12.1951V10.5C19 10.2239 18.7761 10 18.5 10H13.5C13.2239 10 13 10.2239 13 10.5V15.8824C12.382 16.425 12 17.1734 12 18C12 19.5362 13.3196 20.8027 15.021 20.979C15.0583 21.3395 15.1446 21.6828 15.272 22H5C3.34315 22 2 20.6569 2 19V5ZM5 6C5 5.44772 5.44772 5 6 5H10C10.5523 5 11 5.44772 11 6V7.5C11 7.77614 10.7761 8 10.5 8H5.5C5.22386 8 5 7.77614 5 7.5V6ZM13 6C13 5.44772 13.4477 5 14 5H18C18.5523 5 19 5.44772 19 6V7.5C19 7.77614 18.7761 8 18.5 8H13.5C13.2239 8 13 7.77614 13 7.5V6ZM5 10.5C5 10.2239 5.22386 10 5.5 10H10.5C10.7761 10 11 10.2239 11 10.5V15C11 15.5523 10.5523 16 10 16H6C5.44772 16 5 15.5523 5 15V10.5Z" fill="currentColor"/>
<path fill-rule="evenodd" clip-rule="evenodd" d="M19 15C19 14.4477 18.5523 14 18 14C17.4477 14 17 14.4477 17 15V17H15C14.4477 17 14 17.4477 14 18C14 18.5523 14.4477 19 15 19H17V21C17 21.5523 17.4477 22 18 22C18.5523 22 19 21.5523 19 21V19H21C21.5523 19 22 18.5523 22 18C22 17.4477 21.5523 17 21 17H19V15Z" fill="currentColor"/>
</svg>
