<svg width="24" height="24" viewBox="0 0 24 24" fill="none" xmlns="http://www.w3.org/2000/svg">
<path fill-rule="evenodd" clip-rule="evenodd" d="M2.5 2C2.22386 2 2 2.22386 2 2.5C2 2.77614 2.22386 3 2.5 3H4.10778C4.36195 3 4.57568 3.19069 4.60454 3.44323L6.28329 18.1323C5.53275 18.4204 5 19.148 5 20C5 21.1046 5.89543 22 7 22C7.93192 22 8.71497 21.3626 8.93699 20.5H16.063C16.285 21.3626 17.0681 22 18 22C19.1046 22 20 21.1046 20 20C20 18.8954 19.1046 18 18 18C17.0681 18 16.285 18.6374 16.063 19.5H8.93699C8.73735 18.7243 8.08408 18.1308 7.27686 18.019L7.1604 17H18.1869C18.8974 17 19.5104 16.5015 19.6553 15.8059L21.7387 5.80593C21.9327 4.87446 21.2217 4 20.2702 4H5.67468L5.59808 3.32968C5.51149 2.57208 4.8703 2 4.10778 2H2.5ZM7 19C7.55228 19 8 19.4477 8 20C8 20.5523 7.55228 21 7 21C6.44772 21 6 20.5523 6 20C6 19.4477 6.44772 19 7 19ZM18 21C17.4477 21 17 20.5523 17 20C17 19.4477 17.4477 19 18 19C18.5523 19 19 19.4477 19 20C19 20.5523 18.5523 21 18 21ZM9.1 6C8.76863 6 8.5 6.26863 8.5 6.6V9.3C8.5 9.63137 8.76863 9.9 9.1 9.9H11.8C12.1314 9.9 12.4 9.63137 12.4 9.3V6.6C12.4 6.26863 12.1314 6 11.8 6H9.1ZM14.2006 6C13.8692 6 13.6006 6.26863 13.6006 6.6V9.3C13.6006 9.63137 13.8692 9.9 14.2006 9.9H16.9006C17.232 9.9 17.5006 9.63137 17.5006 9.3V6.6C17.5006 6.26863 17.232 6 16.9006 6H14.2006ZM8.5 11.6999C8.5 11.3685 8.76863 11.0999 9.1 11.0999H11.8C12.1314 11.0999 12.4 11.3685 12.4 11.6999V14.3999C12.4 14.7312 12.1314 14.9999 11.8 14.9999H9.1C8.76863 14.9999 8.5 14.7312 8.5 14.3999V11.6999ZM15.5791 11.0999C15.8111 11.0999 15.9991 11.2879 15.9991 11.5199V12.63H17.0796C17.3116 12.63 17.4996 12.818 17.4996 13.05C17.4996 13.2819 17.3116 13.47 17.0796 13.47H15.9991V14.5799C15.9991 14.8118 15.8111 14.9999 15.5791 14.9999C15.3472 14.9999 15.1591 14.8118 15.1591 14.5799V13.47H14.0196C13.7876 13.47 13.5996 13.2819 13.5996 13.05C13.5996 12.818 13.7876 12.63 14.0196 12.63H15.1591V11.5199C15.1591 11.2879 15.3472 11.0999 15.5791 11.0999Z" fill="currentColor"/>
</svg>
