<svg width="24" height="24" viewBox="0 0 24 24" fill="none" xmlns="http://www.w3.org/2000/svg">
<path d="M16.0014 6C16.0014 6.55228 15.5537 7 15.0014 7C14.4491 7 14.0014 6.55228 14.0014 6C14.0014 5.44772 14.4491 5 15.0014 5C15.5537 5 16.0014 5.44772 16.0014 6Z" fill="currentColor"/>
<path d="M10.0303 5.21745L8.0811 8.22827C7.86573 8.56095 8.10452 9 8.50082 9H12.5508L12.5599 8.99992H14.7429C15.0351 8.99992 15.19 8.65452 14.9956 8.43633L13.1458 6.35987C13.0112 6.20877 12.775 6.20877 12.6404 6.35987L12.0357 7.03863L10.5803 5.19188C10.4367 5.00965 10.1564 5.02268 10.0303 5.21745Z" fill="currentColor"/>
<path fill-rule="evenodd" clip-rule="evenodd" d="M3 4C3 2.34315 4.34315 1 6 1H18C19.6569 1 21 2.34315 21 4V20C21 21.6569 19.6569 23 18 23H6C4.34315 23 3 21.6569 3 20V4ZM5 14C5 13.4477 5.44772 13 6 13H8C8.55228 13 9 13.4477 9 14V16C9 16.5523 8.55228 17 8 17H6C5.44772 17 5 16.5523 5 16V14ZM11 14C11 13.4477 11.4477 13 12 13H18C18.5523 13 19 13.4477 19 14V16C19 16.5523 18.5523 17 18 17H12C11.4477 17 11 16.5523 11 16V14ZM5 20C5 19.4477 5.44772 19 6 19H18C18.5523 19 19 19.4477 19 20C19 20.5523 18.5523 21 18 21H6C5.44772 21 5 20.5523 5 20ZM5 4C5 3.44772 5.44772 3 6 3H18C18.5523 3 19 3.44772 19 4V10C19 10.5523 18.5523 11 18 11H6C5.44772 11 5 10.5523 5 10V4Z" fill="currentColor"/>
</svg>
