<svg width="24" height="24" viewBox="0 0 24 24" fill="none" xmlns="http://www.w3.org/2000/svg">
<path fill-rule="evenodd" clip-rule="evenodd" d="M3 4C3 2.34315 4.34315 1 6 1H16.5C16.6326 1 16.7598 1.05268 16.8536 1.14645L20.8536 5.14645C20.9473 5.24021 21 5.36739 21 5.5V20C21 21.6569 19.6569 23 18 23H6C4.34315 23 3 21.6569 3 20V4ZM6 2C4.89543 2 4 2.89543 4 4V20C4 21.1046 4.89543 22 6 22H18C19.1046 22 20 21.1046 20 20V6H17.5C16.6716 6 16 5.32843 16 4.5V2H6Z" fill="#C8CEED"/>
<path d="M4 4C4 2.89543 4.89543 2 6 2H16V4.5C16 5.32843 16.6716 6 17.5 6H20V20C20 21.1046 19.1046 22 18 22H6C4.89543 22 4 21.1046 4 20V4Z" fill="white"/>
<path d="M6 18.75C6 18.0596 6.55964 17.5 7.25 17.5H16.75C17.4404 17.5 18 18.0596 18 18.75C18 19.4404 17.4404 20 16.75 20H7.25C6.55964 20 6 19.4404 6 18.75Z" fill="#FFB629"/>
<path d="M6 14.25C6 13.5596 6.55964 13 7.25 13H16.75C17.4404 13 18 13.5596 18 14.25C18 14.9404 17.4404 15.5 16.75 15.5H7.25C6.55964 15.5 6 14.9404 6 14.25Z" fill="#FF6100"/>
<path d="M6 9.75C6 9.05964 6.55964 8.5 7.25 8.5H16.75C17.4404 8.5 18 9.05964 18 9.75C18 10.4404 17.4404 11 16.75 11H7.25C6.55964 11 6 10.4404 6 9.75Z" fill="#0099FF"/>
</svg>
