<svg width="24" height="24" viewBox="0 0 24 24" fill="none" xmlns="http://www.w3.org/2000/svg">
<path fill-rule="evenodd" clip-rule="evenodd" d="M6 1H18C19.6569 1 21 2.34315 21 4V20C21 21.6569 19.6569 23 18 23H6C4.34315 23 3 21.6569 3 20V4C3 2.34315 4.34315 1 6 1ZM5.5 7C5.5 6.44771 5.94772 6 6.5 6H7.5C8.05228 6 8.5 6.44772 8.5 7V18H5.5V7ZM10.5 10C10.5 9.44772 10.9477 9 11.5 9H12.5C13.0523 9 13.5 9.44772 13.5 10V18H10.5V10ZM16.5 7C15.9477 7 15.5 7.44771 15.5 8V18H18.5V8C18.5 7.44772 18.0523 7 17.5 7H16.5Z" fill="#5369AB"/>
</svg>
