<svg width="24" height="24" viewBox="0 0 24 24" fill="none" xmlns="http://www.w3.org/2000/svg">
<path fill-rule="evenodd" clip-rule="evenodd" d="M20.7842 21.6671C20.1712 22.1036 19.4212 22.3604 18.6113 22.3604C16.5403 22.3604 14.8613 20.6814 14.8613 18.6104C14.8613 16.5393 16.5403 14.8604 18.6113 14.8604C20.6824 14.8604 22.3613 16.5393 22.3613 18.6104C22.3613 19.4202 22.1046 20.1702 21.668 20.7832L23.8033 22.9184C24.0473 23.1625 24.0473 23.5582 23.8033 23.8023C23.5592 24.0464 23.1635 24.0464 22.9194 23.8023L20.7842 21.6671ZM21.1113 18.6104C21.1113 19.9911 19.992 21.1104 18.6113 21.1104C17.2306 21.1104 16.1113 19.9911 16.1113 18.6104C16.1113 17.2296 17.2306 16.1104 18.6113 16.1104C19.992 16.1104 21.1113 17.2296 21.1113 18.6104Z" fill="#0A1551"/>
<path fill-rule="evenodd" clip-rule="evenodd" d="M6 1H18C19.6569 1 21 2.34315 21 4V13.5997C20.2499 13.2163 19.4002 13 18.5 13C15.4624 13 13 15.4624 13 18.5C13 20.3602 13.9234 22.0046 15.3369 23H6C4.34315 23 3 21.6569 3 20V4C3 2.34315 4.34315 1 6 1Z" fill="white"/>
<path fill-rule="evenodd" clip-rule="evenodd" d="M3 4C3 2.34315 4.34315 1 6 1H18C19.6569 1 21 2.34315 21 4V13.5997C20.6832 13.4378 20.3486 13.3056 20 13.207V4C20 2.89543 19.1046 2 18 2H6C4.89543 2 4 2.89543 4 4V20C4 21.1046 4.89543 22 6 22H14.2572C14.5705 22.3794 14.9338 22.7161 15.3369 23H6C4.34315 23 3 21.6569 3 20V4Z" fill="#C8CEED"/>
<path fill-rule="evenodd" clip-rule="evenodd" d="M13.5997 16H7.5C6.67157 16 6 16.6716 6 17.5C6 18.3284 6.67157 19 7.5 19H13.0224C13.0076 18.8353 13 18.6685 13 18.5C13 17.5998 13.2163 16.7501 13.5997 16Z" fill="#FFB629"/>
<path fill-rule="evenodd" clip-rule="evenodd" d="M7.5 11C6.67157 11 6 11.6716 6 12.5C6 13.3284 6.67157 14 7.5 14H15.3369C16.0783 13.4779 16.9545 13.1344 17.9029 13.032C17.9657 12.8667 18 12.6874 18 12.5C18 11.6716 17.3284 11 16.5 11H7.5Z" fill="#FF6100"/>
<path d="M6 7.5C6 6.67157 6.67157 6 7.5 6H16.5C17.3284 6 18 6.67157 18 7.5C18 8.32843 17.3284 9 16.5 9H7.5C6.67157 9 6 8.32843 6 7.5Z" fill="#0099FF"/>
</svg>
