<svg width="24" height="24" viewBox="0 0 24 24" fill="none" xmlns="http://www.w3.org/2000/svg">
<path fill-rule="evenodd" clip-rule="evenodd" d="M7.2341 2.15531L21.5353 11.1536C22.1586 11.5458 22.1586 12.4543 21.5353 12.8464L7.2341 21.8446C6.45491 22.3349 5.48322 21.6009 5.74182 20.7173L7.57961 14.4382C7.82911 13.5858 8.61089 13.0001 9.49909 13.0001H11.0006C11.5528 13.0001 12.0006 12.5523 12.0006 12.0001C12.0006 11.4478 11.5528 11.0001 11.0006 11.0001H9.49909C8.6109 11.0001 7.82911 10.4143 7.57962 9.56184L5.74181 3.2826C5.48322 2.39907 6.45491 1.66504 7.2341 2.15531ZM3.14 5C2.5104 5 2 5.5104 2 6.14C2 6.7696 2.5104 7.28 3.14 7.28H3.86C4.4896 7.28 5 6.7696 5 6.14C5 5.5104 4.4896 5 3.86 5H3.14ZM3 12.0001C3 11.3705 3.5104 10.8601 4.14 10.8601H5.86C6.4896 10.8601 7 11.3705 7 12.0001C7 12.6297 6.4896 13.1401 5.86 13.1401H4.14C3.5104 13.1401 3 12.6297 3 12.0001ZM3.14 16.72C2.5104 16.72 2 17.2304 2 17.86C2 18.4896 2.5104 19 3.14 19H3.86C4.4896 19 5 18.4896 5 17.86C5 17.2304 4.4896 16.72 3.86 16.72H3.14Z" fill="currentColor"/>
</svg>
