<svg width="24" height="24" viewBox="0 0 24 24" fill="none" xmlns="http://www.w3.org/2000/svg">
<path d="M2 2C2 1.44772 2.44772 1 3 1H10C10.5523 1 11 1.44772 11 2V5.5C11 5.77614 10.7761 6 10.5 6H2.5C2.22386 6 2 5.77614 2 5.5V2Z" fill="currentColor"/>
<path d="M13 4C13 3.44772 13.4477 3 14 3H21C21.5523 3 22 3.44772 22 4V5.5C22 5.77614 21.7761 6 21.5 6H13.5C13.2239 6 13 5.77614 13 5.5V4Z" fill="currentColor"/>
<path fill-rule="evenodd" clip-rule="evenodd" d="M2 9C2 8.44772 2.44772 8 3 8H21C21.5523 8 22 8.44772 22 9V12.2547C21.396 11.8334 20.7224 11.5049 20 11.2899V11C20 10.4477 19.5523 10 19 10H17C16.4477 10 16 10.4477 16 11V11.2899C15.2776 11.5049 14.604 11.8334 14 12.2547V11C14 10.4477 13.5523 10 13 10H11C10.4477 10 10 10.4477 10 11V13C10 13.5523 10.4477 14 11 14H12.2547C11.8334 14.604 11.5049 15.2776 11.2899 16H11C10.4477 16 10 16.4477 10 17V19C10 19.5523 10.4477 20 11 20H11.2899C11.5049 20.7224 11.8334 21.396 12.2547 22H5C3.34315 22 2 20.6569 2 19V9ZM5 10C4.44772 10 4 10.4477 4 11V13C4 13.5523 4.44772 14 5 14H7C7.55228 14 8 13.5523 8 13V11C8 10.4477 7.55228 10 7 10H5ZM5 16C4.44772 16 4 16.4477 4 17V19C4 19.5523 4.44772 20 5 20H7C7.55228 20 8 19.5523 8 19V17C8 16.4477 7.55228 16 7 16H5Z" fill="currentColor"/>
<path fill-rule="evenodd" clip-rule="evenodd" d="M18 23C20.7614 23 23 20.7614 23 18C23 15.2386 20.7614 13 18 13C15.2386 13 13 15.2386 13 18C13 20.7614 15.2386 23 18 23ZM20.7677 17.1313C21.0411 16.858 21.0411 16.4148 20.7677 16.1414C20.4943 15.868 20.0511 15.868 19.7778 16.1414L17.5455 18.3737L16.6768 17.505C16.4034 17.2317 15.9602 17.2317 15.6868 17.505C15.4135 17.7784 15.4135 18.2216 15.6868 18.495L17.0505 19.8586C17.1818 19.9899 17.3598 20.0636 17.5455 20.0636C17.7311 20.0636 17.9092 19.9899 18.0404 19.8586L20.7677 17.1313Z" fill="currentColor"/>
</svg>
