<svg width="24" height="24" viewBox="0 0 24 24" fill="none" xmlns="http://www.w3.org/2000/svg">
<path fill-rule="evenodd" clip-rule="evenodd" d="M6 1H18C19.6569 1 21 2.34315 21 4V20C21 21.6569 19.6569 23 18 23H6C4.34315 23 3 21.6569 3 20V4C3 2.34315 4.34315 1 6 1ZM13.5 4H10.5C9.67157 4 9 4.67157 9 5.5C9 6.32843 9.67157 7 10.5 7H11.5V8.5H8.8C8.08203 8.5 7.5 9.08203 7.5 9.8V10.25H6.5C5.67157 10.25 5 10.9216 5 11.75C5 12.5784 5.67157 13.25 6.5 13.25H7.5V13.7C7.5 14.418 8.08203 15 8.8 15L11.5 15V17H10.5C9.67157 17 9 17.6716 9 18.5C9 19.3284 9.67157 20 10.5 20H13.5C14.3284 20 15 19.3284 15 18.5C15 17.6716 14.3284 17 13.5 17H12.5V15L15.2 15C15.918 15 16.5 14.418 16.5 13.7V13.25H17.5C18.3284 13.25 19 12.5784 19 11.75C19 10.9216 18.3284 10.25 17.5 10.25H16.5V9.8C16.5 9.08203 15.918 8.5 15.2 8.5H12.5V7H13.5C14.3284 7 15 6.32843 15 5.5C15 4.67157 14.3284 4 13.5 4ZM11 11.75C11 10.9216 10.3284 10.25 9.5 10.25H8.5V9.8C8.5 9.63431 8.63431 9.5 8.8 9.5H15.2C15.3657 9.5 15.5 9.63432 15.5 9.8V10.25H14.5C13.6716 10.25 13 10.9216 13 11.75C13 12.5784 13.6716 13.25 14.5 13.25H15.5V13.7C15.5 13.8657 15.3657 14 15.2 14L8.8 14C8.63431 14 8.5 13.8657 8.5 13.7V13.25H9.5C10.3284 13.25 11 12.5784 11 11.75Z" fill="#007862"/>
</svg>
