<svg width="24" height="24" viewBox="0 0 24 24" fill="none" xmlns="http://www.w3.org/2000/svg">
<path fill-rule="evenodd" clip-rule="evenodd" d="M5 2C3.34315 2 2 3.34315 2 5V19C2 20.6569 3.34315 22 5 22H12.2547C11.8334 21.396 11.5049 20.7224 11.2899 20H10.5C10.2239 20 10 19.7761 10 19.5V16.5C10 16.2239 10.2239 16 10.5 16H11.2899C11.5049 15.2776 11.8334 14.604 12.2547 14H10.5C10.2239 14 10 13.7761 10 13.5V10.5C10 10.2239 10.2239 10 10.5 10H13.5C13.7761 10 14 10.2239 14 10.5V12.2547C14.604 11.8334 15.2776 11.5049 16 11.2899V10.5C16 10.2239 16.2239 10 16.5 10H19.5C19.7761 10 20 10.2239 20 10.5V11.2899C20.7224 11.5049 21.396 11.8334 22 12.2547V5C22 3.34315 20.6569 2 19 2H5ZM4 5.5C4 5.22386 4.22386 5 4.5 5H7.5C7.77614 5 8 5.22386 8 5.5V7.5C8 7.77614 7.77614 8 7.5 8H4.5C4.22386 8 4 7.77614 4 7.5V5.5ZM4 10.5C4 10.2239 4.22386 10 4.5 10H7.5C7.77614 10 8 10.2239 8 10.5V13.5C8 13.7761 7.77614 14 7.5 14H4.5C4.22386 14 4 13.7761 4 13.5V10.5ZM4.5 16C4.22386 16 4 16.2239 4 16.5V19.5C4 19.7761 4.22386 20 4.5 20H7.5C7.77614 20 8 19.7761 8 19.5V16.5C8 16.2239 7.77614 16 7.5 16H4.5ZM10.5 5C10.2239 5 10 5.22386 10 5.5V7.5C10 7.77614 10.2239 8 10.5 8H13.5C13.7761 8 14 7.77614 14 7.5V5.5C14 5.22386 13.7761 5 13.5 5H10.5ZM16.5 5C16.2239 5 16 5.22386 16 5.5V7.5C16 7.77614 16.2239 8 16.5 8H19.5C19.7761 8 20 7.77614 20 7.5V5.5C20 5.22386 19.7761 5 19.5 5H16.5ZM23 18C23 20.7614 20.7614 23 18 23C15.2386 23 13 20.7614 13 18C13 15.2386 15.2386 13 18 13C20.7614 13 23 15.2386 23 18ZM20.7677 16.1414C21.0411 16.4148 21.0411 16.858 20.7677 17.1313L18.0404 19.8586C17.9092 19.9899 17.7311 20.0636 17.5455 20.0636C17.3598 20.0636 17.1818 19.9899 17.0505 19.8586L15.6868 18.495C15.4135 18.2216 15.4135 17.7784 15.6868 17.505C15.9602 17.2317 16.4034 17.2317 16.6768 17.505L17.5455 18.3737L19.7778 16.1414C20.0511 15.868 20.4943 15.868 20.7677 16.1414Z" fill="currentColor"/>
</svg>
