<svg width="24" height="24" viewBox="0 0 24 24" fill="none" xmlns="http://www.w3.org/2000/svg">
<path fill-rule="evenodd" clip-rule="evenodd" d="M5 2C3.34315 2 2 3.34315 2 5V19C2 20.6569 3.34315 22 5 22H19C20.6569 22 22 20.6569 22 19V5C22 3.34315 20.6569 2 19 2H5ZM4 5.5C4 5.22386 4.22386 5 4.5 5H7.5C7.77614 5 8 5.22386 8 5.5V7.5C8 7.77614 7.77614 8 7.5 8H4.5C4.22386 8 4 7.77614 4 7.5V5.5ZM4 10.5C4 10.2239 4.22386 10 4.5 10H7.5C7.77614 10 8 10.2239 8 10.5V13.5C8 13.7761 7.77614 14 7.5 14H4.5C4.22386 14 4 13.7761 4 13.5V10.5ZM4.5 16C4.22386 16 4 16.2239 4 16.5V19.5C4 19.7761 4.22386 20 4.5 20H7.5C7.77614 20 8 19.7761 8 19.5V16.5C8 16.2239 7.77614 16 7.5 16H4.5ZM10.5 5C10.2239 5 10 5.22386 10 5.5V7.5C10 7.77614 10.2239 8 10.5 8H13.5C13.7761 8 14 7.77614 14 7.5V5.5C14 5.22386 13.7761 5 13.5 5H10.5ZM10.5 10C10.2239 10 10 10.2239 10 10.5V13.5C10 13.7761 10.2239 14 10.5 14H13.5C13.7761 14 14 13.7761 14 13.5V10.5C14 10.2239 13.7761 10 13.5 10H10.5ZM10 16.5C10 16.2239 10.2239 16 10.5 16H13.5C13.7761 16 14 16.2239 14 16.5V19.5C14 19.7761 13.7761 20 13.5 20H10.5C10.2239 20 10 19.7761 10 19.5V16.5ZM16.5 5C16.2239 5 16 5.22386 16 5.5V7.5C16 7.77614 16.2239 8 16.5 8H19.5C19.7761 8 20 7.77614 20 7.5V5.5C20 5.22386 19.7761 5 19.5 5H16.5ZM16.5 10C16.2239 10 16 10.2239 16 10.5V13.5C16 13.7761 16.2239 14 16.5 14H19.5C19.7761 14 20 13.7761 20 13.5V10.5C20 10.2239 19.7761 10 19.5 10H16.5ZM16 16.5C16 16.2239 16.2239 16 16.5 16H19.5C19.7761 16 20 16.2239 20 16.5V19.5C20 19.7761 19.7761 20 19.5 20H16.5C16.2239 20 16 19.7761 16 19.5V16.5Z" fill="#049E38"/>
</svg>
