<svg width="24" height="24" viewBox="0 0 24 24" fill="none" xmlns="http://www.w3.org/2000/svg">
<path fill-rule="evenodd" clip-rule="evenodd" d="M7 1C5.34315 1 4 2.34315 4 4V20C4 21.6569 5.34315 23 7 23H17C18.6569 23 20 21.6569 20 20V4C20 2.34315 18.6569 1 17 1H7ZM10 21H13.9996C14.5519 21 14.9996 20.5523 14.9996 20C14.9996 19.4477 14.5519 19 13.9996 19H10C9.44772 19 9 19.4477 9 20C9 20.5523 9.44772 21 10 21ZM8.33293 7.96457C7.8959 8.39876 7.8959 9.10272 8.33293 9.53691C8.76997 9.9711 9.47855 9.9711 9.91559 9.53691L12.57 6.89798C13.007 6.46379 13.007 5.75983 12.57 5.32564C12.1329 4.89145 11.4243 4.89145 10.9873 5.32564L8.33293 7.96457ZM12.5002 13.4742C12.0632 13.04 12.0632 12.3361 12.5002 11.9019L14.0775 10.3349C14.5145 9.90072 15.2231 9.90072 15.6601 10.3349C16.0971 10.7691 16.0971 11.4731 15.6601 11.9073L14.0828 13.4742C13.6458 13.9084 12.9372 13.9084 12.5002 13.4742ZM10.192 13.3629C10.3581 13.524 10.2407 13.7999 10.0048 13.7999H8.52834C8.23703 13.7999 8 13.5701 8 13.2878V11.8564C8 11.6277 8.28466 11.5139 8.4508 11.675L10.192 13.3629ZM10.5027 11.4176C10.0656 10.9834 10.0656 10.2795 10.5027 9.84529L14.0892 6.28212C14.5263 5.84793 15.2348 5.84793 15.6719 6.28212C16.1089 6.71631 16.1089 7.42027 15.6719 7.85446L12.0853 11.4176C11.6483 11.8518 10.9397 11.8518 10.5027 11.4176Z" fill="#6C73A8"/>
</svg>
