<svg width="24" height="24" viewBox="0 0 24 24" fill="none" xmlns="http://www.w3.org/2000/svg">
<path d="M17.9131 14C17.707 13.4177 17.1529 13 16.5 13H7.5C6.84707 13 6.29297 13.4177 6.08691 14H17.9131ZM11.7354 17C11.4687 17 11.1963 17.0145 10.9189 17.043C10.834 17.0502 10.7614 17.0871 10.7012 17.1543C10.6443 17.2182 10.6153 17.295 10.6152 17.3838V20.6162C10.6153 20.705 10.6443 20.7831 10.7012 20.8506C10.7615 20.9144 10.8339 20.9498 10.9189 20.957C11.1963 20.9855 11.4687 21 11.7354 21C12.3896 21 12.8967 20.8224 13.2559 20.4668C13.6184 20.1077 13.7998 19.6004 13.7998 18.9463C13.7997 18.3351 13.6182 17.8588 13.2559 17.5176C12.8967 17.1727 12.3896 17 11.7354 17ZM8.36426 17C8.08356 17 7.79224 17.0145 7.49023 17.043C7.40491 17.0501 7.33325 17.0868 7.27637 17.1543C7.21953 17.2218 7.19145 17.2985 7.19141 17.3838V20.6426C7.19141 20.7244 7.22178 20.796 7.28223 20.8564C7.34254 20.9166 7.4136 20.9462 7.49512 20.9463H7.77832C7.85985 20.9462 7.9309 20.9166 7.99121 20.8564C8.05166 20.796 8.08203 20.7244 8.08203 20.6426V19.6934C8.08203 19.665 8.09801 19.6504 8.12988 19.6504C8.24722 19.6611 8.37368 19.667 8.50879 19.667C9.02076 19.667 9.40877 19.5491 9.67188 19.3145C9.93826 19.0763 10.0713 18.7279 10.0713 18.2695C10.0713 17.4233 9.50204 17 8.36426 17ZM14.6738 17.0537C14.5923 17.0538 14.5213 17.0834 14.4609 17.1436C14.4005 17.204 14.3701 17.2756 14.3701 17.3574V20.6426C14.3701 20.7244 14.4005 20.796 14.4609 20.8564C14.5213 20.9166 14.5923 20.9462 14.6738 20.9463H14.9785C15.0601 20.9462 15.1297 20.9168 15.1865 20.8564C15.247 20.796 15.2764 20.7244 15.2764 20.6426V19.4004C15.2764 19.3684 15.2932 19.3516 15.3252 19.3516H16.3965C16.4783 19.3516 16.5499 19.3235 16.6104 19.2666C16.6706 19.2063 16.7011 19.1353 16.7012 19.0537V18.9678C16.7011 18.8861 16.6707 18.8166 16.6104 18.7598C16.5499 18.6993 16.4783 18.6689 16.3965 18.6689H15.3252C15.2932 18.6689 15.2764 18.6531 15.2764 18.6211V17.8271C15.2764 17.7987 15.2932 17.7842 15.3252 17.7842H16.5029C16.5847 17.7842 16.6564 17.7538 16.7168 17.6934C16.7771 17.633 16.8075 17.562 16.8076 17.4805V17.3574C16.8076 17.2756 16.7772 17.204 16.7168 17.1436C16.6564 17.0832 16.5846 17.0537 16.5029 17.0537H14.6738ZM11.8047 17.709C12.5584 17.709 12.9354 18.1217 12.9355 18.9463C12.9355 19.8423 12.5585 20.291 11.8047 20.291C11.7052 20.291 11.6199 20.2837 11.5488 20.2695C11.5205 20.2624 11.5059 20.2428 11.5059 20.2109V17.7891C11.5059 17.7572 11.5205 17.7376 11.5488 17.7305C11.6199 17.7163 11.7052 17.709 11.8047 17.709ZM8.41797 17.6885C8.95469 17.6885 9.22346 17.8994 9.22363 18.3223C9.22363 18.5356 9.15199 18.7033 9.00977 18.8242C8.87111 18.9414 8.67379 19 8.41797 19C8.34687 19 8.25071 18.9927 8.12988 18.9785C8.09802 18.9714 8.08203 18.9555 8.08203 18.9307V17.7676C8.08217 17.7394 8.0967 17.7219 8.125 17.7148C8.23154 17.6971 8.32917 17.6885 8.41797 17.6885ZM7.5 8C6.67157 8 6 8.67157 6 9.5C6 10.3284 6.67157 11 7.5 11H16.5C17.3284 11 18 10.3284 18 9.5C18 8.67157 17.3284 8 16.5 8H7.5ZM16 4.90039C16.0002 5.78374 16.7163 6.49979 17.5996 6.5H20L16 2.5V4.90039ZM22 14C22.5523 14 23 14.4477 23 15C23 15.5523 22.5523 16 22 16H21V20C21 21.6569 19.6569 23 18 23H6C4.34315 23 3 21.6569 3 20V16H2C1.44772 16 1 15.5523 1 15C1 14.4477 1.44772 14 2 14H3V4C3 2.34315 4.34315 1 6 1H14.7578C15.5533 1.00012 16.3164 1.3164 16.8789 1.87891L20.1211 5.12109C20.6836 5.6836 20.9999 6.4467 21 7.24219V14H22Z" fill="currentColor"/>
</svg>
