<svg width="24" height="24" viewBox="0 0 24 24" fill="none" xmlns="http://www.w3.org/2000/svg">
<path fill-rule="evenodd" clip-rule="evenodd" d="M5 2C3.34315 2 2 3.34315 2 5V19C2 20.6569 3.34315 22 5 22H13V16.35C13 14.4998 14.4998 13 16.35 13H22V5C22 3.34315 20.6569 2 19 2H5Z" fill="white"/>
<path fill-rule="evenodd" clip-rule="evenodd" d="M16.35 15C15.6044 15 15 15.6044 15 16.35V22.65C15 23.3956 15.6044 24 16.35 24H22.65C23.3956 24 24 23.3956 24 22.65V16.35C24 15.6044 23.3956 15 22.65 15H16.35ZM16.575 16.125C16.3265 16.125 16.125 16.3265 16.125 16.575V18.6C16.125 18.8485 16.3265 19.05 16.575 19.05H18.6C18.8485 19.05 19.05 18.8485 19.05 18.6V16.575C19.05 16.3265 18.8485 16.125 18.6 16.125H16.575ZM20.4 16.125C20.1515 16.125 19.95 16.3265 19.95 16.575V18.6C19.95 18.8485 20.1515 19.05 20.4 19.05H22.425C22.6735 19.05 22.875 18.8485 22.875 18.6V16.575C22.875 16.3265 22.6735 16.125 22.425 16.125H20.4ZM16.125 20.4C16.125 20.1515 16.3265 19.95 16.575 19.95H18.6C18.8485 19.95 19.05 20.1515 19.05 20.4V22.425C19.05 22.6735 18.8485 22.875 18.6 22.875H16.575C16.3265 22.875 16.125 22.6735 16.125 22.425V20.4ZM21.75 20.265C21.75 20.091 21.609 19.95 21.435 19.95C21.261 19.95 21.12 20.091 21.12 20.265V21.0975H20.265C20.091 21.0975 19.95 21.2385 19.95 21.4125C19.95 21.5865 20.091 21.7275 20.265 21.7275H21.12V22.56C21.12 22.734 21.261 22.875 21.435 22.875C21.609 22.875 21.75 22.734 21.75 22.56V21.7275H22.56C22.734 21.7275 22.875 21.5865 22.875 21.4125C22.875 21.2385 22.734 21.0975 22.56 21.0975H21.75V20.265Z" fill="white"/>
<path fill-rule="evenodd" clip-rule="evenodd" d="M16.5 5C16.2239 5 16 5.22386 16 5.5V7.5C16 7.77614 16.2239 8 16.5 8H19.5C19.7761 8 20 7.77614 20 7.5V5.5C20 5.22386 19.7761 5 19.5 5H16.5ZM16.5 10C16.2239 10 16 10.2239 16 10.5V13.0181C16.115 13.0061 16.2318 13 16.35 13H20V10.5C20 10.2239 19.7761 10 19.5 10H16.5Z" fill="#FFB629"/>
<path fill-rule="evenodd" clip-rule="evenodd" d="M10.5 5C10.2239 5 10 5.22386 10 5.5V7.5C10 7.77614 10.2239 8 10.5 8H13.5C13.7761 8 14 7.77614 14 7.5V5.5C14 5.22386 13.7761 5 13.5 5H10.5ZM10.5 10C10.2239 10 10 10.2239 10 10.5V13.5C10 13.7761 10.2239 14 10.5 14H13.5C13.7761 14 14 13.7761 14 13.5V10.5C14 10.2239 13.7761 10 13.5 10H10.5ZM10 16.5C10 16.2239 10.2239 16 10.5 16H13.0181C13.0061 16.115 13 16.2318 13 16.35V20H10.5C10.2239 20 10 19.7761 10 19.5V16.5Z" fill="#FF6100"/>
<path fill-rule="evenodd" clip-rule="evenodd" d="M4 5.5C4 5.22386 4.22386 5 4.5 5H7.5C7.77614 5 8 5.22386 8 5.5V7.5C8 7.77614 7.77614 8 7.5 8H4.5C4.22386 8 4 7.77614 4 7.5V5.5ZM4 10.5C4 10.2239 4.22386 10 4.5 10H7.5C7.77614 10 8 10.2239 8 10.5V13.5C8 13.7761 7.77614 14 7.5 14H4.5C4.22386 14 4 13.7761 4 13.5V10.5ZM4.5 16C4.22386 16 4 16.2239 4 16.5V19.5C4 19.7761 4.22386 20 4.5 20H7.5C7.77614 20 8 19.7761 8 19.5V16.5C8 16.2239 7.77614 16 7.5 16H4.5Z" fill="#0099FF"/>
</svg>
