<svg width="24" height="24" viewBox="0 0 24 24" fill="none" xmlns="http://www.w3.org/2000/svg">
<path fill-rule="evenodd" clip-rule="evenodd" d="M5.17071 16H4C2.89543 16 2 15.1046 2 14V10C2 8.89543 2.89543 8 4 8H5.17071C5.58254 6.83481 6.69378 6 8 6H16C17.3062 6 18.4175 6.83481 18.8293 8H20C21.1046 8 22 8.89543 22 10V14C22 15.1046 21.1046 16 20 16H18.8293C18.4175 17.1652 17.3062 18 16 18H8C6.69378 18 5.58254 17.1652 5.17071 16Z" fill="white"/>
<path fill-rule="evenodd" clip-rule="evenodd" d="M16 7H8C6.89543 7 6 7.89543 6 9V15C6 16.1046 6.89543 17 8 17H16C17.1046 17 18 16.1046 18 15V9C18 7.89543 17.1046 7 16 7ZM5.17071 16C5.58254 17.1652 6.69378 18 8 18H16C17.3062 18 18.4175 17.1652 18.8293 16H20C21.1046 16 22 15.1046 22 14V10C22 8.89543 21.1046 8 20 8H18.8293C18.4175 6.83481 17.3062 6 16 6H8C6.69378 6 5.58254 6.83481 5.17071 8H4C2.89543 8 2 8.89543 2 10V14C2 15.1046 2.89543 16 4 16H5.17071ZM5 9H4C3.44772 9 3 9.44772 3 10V14C3 14.5523 3.44772 15 4 15H5V9ZM19 15V9H20C20.5523 9 21 9.44772 21 10V14C21 14.5523 20.5523 15 20 15H19Z" fill="#C8CEED"/>
<path d="M4 12.0001C4 11.503 4.40294 11.1001 4.9 11.1001H5V12.9001H4.9C4.40294 12.9001 4 12.4972 4 12.0001Z" fill="#0099FF"/>
<path d="M19 11.1001H19.1C19.5971 11.1001 20 11.503 20 12.0001C20 12.4972 19.5971 12.9001 19.1 12.9001H19V11.1001Z" fill="#FFB629"/>
<path fill-rule="evenodd" clip-rule="evenodd" d="M8.5 9C7.94772 9 7.5 9.44772 7.5 10C7.5 10.5523 7.94772 11 8.5 11H15.5C16.0523 11 16.5 10.5523 16.5 10C16.5 9.44772 16.0523 9 15.5 9H8.5ZM8.5 13C7.94772 13 7.5 13.4477 7.5 14C7.5 14.5523 7.94772 15 8.5 15H15.5C16.0523 15 16.5 14.5523 16.5 14C16.5 13.4477 16.0523 13 15.5 13H8.5Z" fill="#FF6100"/>
</svg>
