<svg width="24" height="24" viewBox="0 0 24 24" fill="none" xmlns="http://www.w3.org/2000/svg">
<path d="M2 2C2 1.44772 2.44772 1 3 1H10C10.5523 1 11 1.44772 11 2V5.5C11 5.77614 10.7761 6 10.5 6H2.5C2.22386 6 2 5.77614 2 5.5V2Z" fill="currentColor"/>
<path d="M13 4C13 3.44772 13.4477 3 14 3H21C21.5523 3 22 3.44772 22 4V5.5C22 5.77614 21.7761 6 21.5 6H13.5C13.2239 6 13 5.77614 13 5.5V4Z" fill="currentColor"/>
<path fill-rule="evenodd" clip-rule="evenodd" d="M2 9C2 8.44772 2.44772 8 3 8H21C21.5523 8 22 8.44772 22 9V11.5104C21.367 11.2089 20.6862 11.0409 20 11.0066V11C20 10.4477 19.5523 10 19 10H17C16.4477 10 16 10.4477 16 11V12.5545L12.5542 16H11C10.4477 16 10 16.4477 10 17V19C10 19.5523 10.4477 20 11 20H11.0066C11.041 20.6862 11.209 21.367 11.5105 22H5C3.34315 22 2 20.6569 2 19V9ZM5 10C4.44772 10 4 10.4477 4 11V13C4 13.5523 4.44772 14 5 14H7C7.55228 14 8 13.5523 8 13V11C8 10.4477 7.55228 10 7 10H5ZM5 16C4.44772 16 4 16.4477 4 17V19C4 19.5523 4.44772 20 5 20H7C7.55228 20 8 19.5523 8 19V17C8 16.4477 7.55228 16 7 16H5ZM10 11C10 10.4477 10.4477 10 11 10H13C13.5523 10 14 10.4477 14 11V13C14 13.5523 13.5523 14 13 14H11C10.4477 14 10 13.5523 10 13V11Z" fill="currentColor"/>
<path fill-rule="evenodd" clip-rule="evenodd" d="M16.1531 19.8469C15.8637 19.5576 15.8637 19.0884 16.1531 18.799L18.7994 16.1527C19.0888 15.8633 19.558 15.8633 19.8473 16.1527C20.1367 16.4421 20.1367 16.9112 19.8473 17.2006L17.201 19.8469C16.9116 20.1363 16.4425 20.1363 16.1531 19.8469Z" fill="currentColor"/>
<path fill-rule="evenodd" clip-rule="evenodd" d="M14.9957 18.5238C14.3107 19.2088 14.3107 20.3193 14.9957 21.0043C15.6807 21.6893 16.7912 21.6893 17.4762 21.0043L18.1819 20.2986C18.4713 20.0093 18.9404 20.0093 19.2298 20.2986C19.5192 20.588 19.5192 21.0572 19.2298 21.3465L18.5241 22.0522C17.2604 23.3159 15.2115 23.3159 13.9478 22.0522C12.6841 20.7885 12.6841 18.7396 13.9478 17.4759L14.6535 16.7702C14.9428 16.4808 15.412 16.4808 15.7014 16.7702C15.9907 17.0596 15.9907 17.5287 15.7014 17.8181L14.9957 18.5238Z" fill="currentColor"/>
<path fill-rule="evenodd" clip-rule="evenodd" d="M21.0046 17.4762C21.6896 16.7912 21.6896 15.6807 21.0046 14.9957C20.3197 14.3107 19.2091 14.3107 18.5241 14.9957L17.8184 15.7014C17.529 15.9907 17.0599 15.9907 16.7705 15.7014C16.4811 15.412 16.4811 14.9428 16.7705 14.6535L17.4762 13.9478C18.7399 12.6841 20.7888 12.6841 22.0525 13.9478C23.3162 15.2115 23.3162 17.2604 22.0525 18.5241L21.3468 19.2298C21.0575 19.5192 20.5883 19.5192 20.299 19.2298C20.0096 18.9404 20.0096 18.4713 20.299 18.1819L21.0046 17.4762Z" fill="currentColor"/>
</svg>
