<svg width="24" height="24" viewBox="0 0 24 24" fill="none" xmlns="http://www.w3.org/2000/svg">
<path d="M2 5C2 3.34315 3.34315 2 5 2H19C20.6569 2 22 3.34315 22 5V19C22 20.6569 20.6569 22 19 22H5C3.34315 22 2 20.6569 2 19V5Z" fill="white"/>
<path fill-rule="evenodd" clip-rule="evenodd" d="M16 5.5C16 5.22386 16.2239 5 16.5 5H19.5C19.7761 5 20 5.22386 20 5.5V7.5C20 7.77614 19.7761 8 19.5 8H16.5C16.2239 8 16 7.77614 16 7.5V5.5ZM16 10.5C16 10.2239 16.2239 10 16.5 10H19.5C19.7761 10 20 10.2239 20 10.5V13.5C20 13.7761 19.7761 14 19.5 14H16.5C16.2239 14 16 13.7761 16 13.5V10.5ZM16.5 16C16.2239 16 16 16.2239 16 16.5V19.5C16 19.7761 16.2239 20 16.5 20H19.5C19.7761 20 20 19.7761 20 19.5V16.5C20 16.2239 19.7761 16 19.5 16H16.5Z" fill="#FFB629"/>
<path fill-rule="evenodd" clip-rule="evenodd" d="M10 5.5C10 5.22386 10.2239 5 10.5 5H13.5C13.7761 5 14 5.22386 14 5.5V7.5C14 7.77614 13.7761 8 13.5 8H10.5C10.2239 8 10 7.77614 10 7.5V5.5ZM10 10.5C10 10.2239 10.2239 10 10.5 10H13.5C13.7761 10 14 10.2239 14 10.5V13.5C14 13.7761 13.7761 14 13.5 14H10.5C10.2239 14 10 13.7761 10 13.5V10.5ZM10.5 16C10.2239 16 10 16.2239 10 16.5V19.5C10 19.7761 10.2239 20 10.5 20H13.5C13.7761 20 14 19.7761 14 19.5V16.5C14 16.2239 13.7761 16 13.5 16H10.5Z" fill="#FF6100"/>
<path fill-rule="evenodd" clip-rule="evenodd" d="M4 5.5C4 5.22386 4.22386 5 4.5 5H7.5C7.77614 5 8 5.22386 8 5.5V7.5C8 7.77614 7.77614 8 7.5 8H4.5C4.22386 8 4 7.77614 4 7.5V5.5ZM4 10.5C4 10.2239 4.22386 10 4.5 10H7.5C7.77614 10 8 10.2239 8 10.5V13.5C8 13.7761 7.77614 14 7.5 14H4.5C4.22386 14 4 13.7761 4 13.5V10.5ZM4.5 16C4.22386 16 4 16.2239 4 16.5V19.5C4 19.7761 4.22386 20 4.5 20H7.5C7.77614 20 8 19.7761 8 19.5V16.5C8 16.2239 7.77614 16 7.5 16H4.5Z" fill="#0099FF"/>
</svg>
