<svg width="24" height="24" viewBox="0 0 24 24" fill="none" xmlns="http://www.w3.org/2000/svg">
<path fill-rule="evenodd" clip-rule="evenodd" d="M5 2C3.34315 2 2 3.34315 2 5V19C2 20.6569 3.34315 22 5 22H11.0086C10.9979 21.5072 11.1016 21.0081 11.3337 20.5497L11.6119 20H10.5C10.2239 20 10 19.7761 10 19.5V16.5C10 16.2239 10.2239 16 10.5 16H13.5C13.5443 16 13.5873 16.0058 13.6282 16.0166L15.3299 12.6545C15.5081 12.3025 15.7368 12.0066 16 11.7669V10.5C16 10.2239 16.2239 10 16.5 10H19.5C19.7761 10 20 10.2239 20 10.5V11.772C20.2605 12.0105 20.4871 12.3043 20.664 12.6534L22 15.2901V5C22 3.34315 20.6569 2 19 2H5ZM4 5.5C4 5.22386 4.22386 5 4.5 5H7.5C7.77614 5 8 5.22386 8 5.5V7.5C8 7.77614 7.77614 8 7.5 8H4.5C4.22386 8 4 7.77614 4 7.5V5.5ZM4 10.5C4 10.2239 4.22386 10 4.5 10H7.5C7.77614 10 8 10.2239 8 10.5V13.5C8 13.7761 7.77614 14 7.5 14H4.5C4.22386 14 4 13.7761 4 13.5V10.5ZM4.5 16C4.22386 16 4 16.2239 4 16.5V19.5C4 19.7761 4.22386 20 4.5 20H7.5C7.77614 20 8 19.7761 8 19.5V16.5C8 16.2239 7.77614 16 7.5 16H4.5ZM10.5 5C10.2239 5 10 5.22386 10 5.5V7.5C10 7.77614 10.2239 8 10.5 8H13.5C13.7761 8 14 7.77614 14 7.5V5.5C14 5.22386 13.7761 5 13.5 5H10.5ZM10.5 10C10.2239 10 10 10.2239 10 10.5V13.5C10 13.7761 10.2239 14 10.5 14H13.5C13.7761 14 14 13.7761 14 13.5V10.5C14 10.2239 13.7761 10 13.5 10H10.5ZM16.5 5C16.2239 5 16 5.22386 16 5.5V7.5C16 7.77614 16.2239 8 16.5 8H19.5C19.7761 8 20 7.77614 20 7.5V5.5C20 5.22386 19.7761 5 19.5 5H16.5ZM17.115 13.5577C17.4913 12.8143 18.504 12.814 18.8806 13.5573L22.881 21.4525C23.2362 22.1535 22.7534 23 21.9983 23H14.0017C13.2468 23 12.7639 22.1539 13.1188 21.4529L17.115 13.5577ZM17.3002 21.21C17.3002 20.8031 17.6137 20.4733 18.0005 20.4733C18.3872 20.4733 18.7007 20.8031 18.7007 21.21C18.7007 21.6169 18.3872 21.9467 18.0005 21.9467C17.6137 21.9467 17.3002 21.6169 17.3002 21.21ZM18.0004 19.5261C17.6137 19.5261 17.3002 19.1963 17.3002 18.7894V16.1584C17.3002 15.7515 17.6137 15.4217 18.0004 15.4217C18.3871 15.4217 18.7006 15.7515 18.7006 16.1584V18.7894C18.7006 19.1963 18.3871 19.5261 18.0004 19.5261Z" fill="currentColor"/>
</svg>
