<svg width="24" height="24" viewBox="0 0 24 24" fill="none" xmlns="http://www.w3.org/2000/svg">
<path fill-rule="evenodd" clip-rule="evenodd" d="M5.17071 8C5.58254 6.83481 6.69378 6 8 6H16C17.3062 6 18.4175 6.83481 18.8293 8H20C21.1046 8 22 8.89543 22 10V14C22 15.1046 21.1046 16 20 16H18.8293C18.4175 17.1652 17.3062 18 16 18H8C6.69378 18 5.58254 17.1652 5.17071 16H4C2.89543 16 2 15.1046 2 14V10C2 8.89543 2.89543 8 4 8H5.17071ZM5 11.1001H3.9C3.40294 11.1001 3 11.503 3 12.0001C3 12.4972 3.40294 12.9001 3.9 12.9001H5V11.1001ZM19 12.9001H20.1C20.5971 12.9001 21 12.4972 21 12.0001C21 11.503 20.5971 11.1001 20.1 11.1001H19V12.9001ZM8.5 13C7.94772 13 7.5 13.4477 7.5 14C7.5 14.5523 7.94772 15 8.5 15H15.5C16.0523 15 16.5 14.5523 16.5 14C16.5 13.4477 16.0523 13 15.5 13H8.5ZM8.5 9C7.94772 9 7.5 9.44772 7.5 10C7.5 10.5523 7.94772 11 8.5 11H15.5C16.0523 11 16.5 10.5523 16.5 10C16.5 9.44772 16.0523 9 15.5 9H8.5Z" fill="currentColor"/>
</svg>
