<svg width="24" height="24" viewBox="0 0 24 24" fill="none" xmlns="http://www.w3.org/2000/svg">
<path fill-rule="evenodd" clip-rule="evenodd" d="M18 1H6C4.34315 1 3 2.34315 3 4V20C3 21.6569 4.34315 23 6 23H12H16.1268C15.305 22.3162 14.9137 21.1962 15.1932 20.1106L15.1967 20.0967L15.2221 20.0037C15.3384 19.5578 15.565 19.1504 15.8774 18.8182C15.3878 18.1908 15.0537 17.3815 15.0537 16.387C15.0537 14.6972 15.9815 13.4346 17.2685 12.7248C17.6623 11.7157 18.6443 11 19.7922 11C20.2261 11 20.6363 11.1023 21 11.284V4C21 2.34315 19.6569 1 18 1Z" fill="white"/>
<path d="M20.4864 17.0992C19.4733 16.7177 19.1299 16.4888 19.1299 16.1836C19.1299 15.8317 19.4521 15.6367 20.037 15.6367C20.4059 15.6367 20.7492 15.6876 21.0883 15.7936C21.2876 15.8529 21.508 15.8317 21.6903 15.73C21.8726 15.6282 22.0082 15.4544 22.0591 15.251L22.0718 15.2086C22.1863 14.7719 21.9234 14.3268 21.4868 14.2124C21.1901 14.1318 20.8552 14.081 20.4991 14.0598V13.7079C20.4991 13.3179 20.1812 13 19.7912 13C19.4012 13 19.0833 13.3179 19.0833 13.7079V14.1573C17.8242 14.4413 17.0527 15.2849 17.0527 16.387C17.0527 17.7647 18.2482 18.3412 19.2867 18.6931C20.1388 18.9813 20.4694 19.2399 20.4694 19.6172C20.4694 20.003 20.0879 20.2361 19.4436 20.2361C19.0112 20.2361 18.5703 20.1556 18.1295 19.9987C17.9345 19.9267 17.7098 19.9436 17.5275 20.0411C17.341 20.1386 17.2053 20.3124 17.1545 20.5159L17.129 20.6092C17.0188 21.0373 17.2647 21.4824 17.6844 21.6138C18.0913 21.7452 18.5534 21.83 19.0027 21.8597V22.2921C19.0027 22.6821 19.3206 23 19.7106 23C20.1006 23 20.4186 22.6821 20.4186 22.2921V21.7622C21.7157 21.4994 22.5466 20.6007 22.5466 19.4476C22.5635 18.3158 21.9404 17.6121 20.4864 17.0992Z" fill="#0A1551"/>
<path fill-rule="evenodd" clip-rule="evenodd" d="M15.0703 16H7.5C6.67157 16 6 16.6716 6 17.5C6 18.3284 6.67157 19 7.5 19H15.7209C15.7704 18.9372 15.8226 18.8766 15.8774 18.8182C15.3878 18.1908 15.0537 17.3815 15.0537 16.387C15.0537 16.2554 15.0593 16.1264 15.0703 16Z" fill="#FFB629"/>
<path fill-rule="evenodd" clip-rule="evenodd" d="M7.5 11C6.67157 11 6 11.6716 6 12.5C6 13.3284 6.67157 14 7.5 14H15.8064C16.1876 13.4716 16.692 13.0427 17.2685 12.7248C17.3997 12.3887 17.5961 12.0851 17.8422 11.8297C17.5961 11.3377 17.0875 11 16.5 11H7.5Z" fill="#FF6100"/>
<path d="M6 7.5C6 6.67157 6.67157 6 7.5 6H16.5C17.3284 6 18 6.67157 18 7.5C18 8.32843 17.3284 9 16.5 9H7.5C6.67157 9 6 8.32843 6 7.5Z" fill="#0099FF"/>
</svg>
