<svg width="24" height="24" viewBox="0 0 24 24" fill="none" xmlns="http://www.w3.org/2000/svg">
<path fill-rule="evenodd" clip-rule="evenodd" d="M5 2C3.34315 2 2 3.34315 2 5V19C2 20.6569 3.34315 22 5 22H19C20.6569 22 22 20.6569 22 19V5C22 3.34315 20.6569 2 19 2H5Z" fill="white"/>
<path fill-rule="evenodd" clip-rule="evenodd" d="M16.75 13.75C16.75 13.3358 16.4142 13 16 13C15.5858 13 15.25 13.3358 15.25 13.75V15.25H13.75C13.3358 15.25 13 15.5858 13 16C13 16.4142 13.3358 16.75 13.75 16.75H15.25V18.25C15.25 18.6642 15.5858 19 16 19C16.4142 19 16.75 18.6642 16.75 18.25V16.75H18.25C18.6642 16.75 19 16.4142 19 16C19 15.5858 18.6642 15.25 18.25 15.25H16.75V13.75Z" fill="#C8CEED"/>
<path d="M13 6C13 5.44772 13.4477 5 14 5H18C18.5523 5 19 5.44772 19 6V10C19 10.5523 18.5523 11 18 11H14C13.4477 11 13 10.5523 13 10V6Z" fill="#FF6100"/>
<path d="M5 14C5 13.4477 5.44772 13 6 13H10C10.5523 13 11 13.4477 11 14V18C11 18.5523 10.5523 19 10 19H6C5.44772 19 5 18.5523 5 18V14Z" fill="#FFB629"/>
<path d="M5 6C5 5.44772 5.44772 5 6 5H10C10.5523 5 11 5.44772 11 6V10C11 10.5523 10.5523 11 10 11H6C5.44772 11 5 10.5523 5 10V6Z" fill="#0099FF"/>
<path fill-rule="evenodd" clip-rule="evenodd" d="M19 3H5C3.89543 3 3 3.89543 3 5V19C3 20.1046 3.89543 21 5 21H19C20.1046 21 21 20.1046 21 19V5C21 3.89543 20.1046 3 19 3ZM5 2C3.34315 2 2 3.34315 2 5V19C2 20.6569 3.34315 22 5 22H19C20.6569 22 22 20.6569 22 19V5C22 3.34315 20.6569 2 19 2H5Z" fill="#C8CEED"/>
</svg>
