<svg width="24" height="24" viewBox="0 0 24 24" fill="none" xmlns="http://www.w3.org/2000/svg">
<path d="M21.0135 14.2636C20.6621 13.9121 20.0923 13.9121 19.7409 14.2636L17.4372 16.5673L14.693 19.3115C14.5648 19.4397 14.4739 19.6002 14.43 19.7761L14.0138 21.4405C13.9315 21.7701 14.2299 22.0685 14.5595 21.9862L16.2239 21.57C16.3998 21.5261 16.5603 21.4352 16.6885 21.307L19.4327 18.5628L21.7364 16.2591C22.0879 15.9077 22.0879 15.3379 21.7364 14.9865L21.0135 14.2636Z" fill="#0A1551"/>
<path fill-rule="evenodd" clip-rule="evenodd" d="M3 4V20C3 21.6569 4.34315 23 6 23H12.477C12.0675 22.4454 11.8854 21.7156 12.0754 20.9555L12.4915 19.291C12.6234 18.7635 12.8961 18.2818 13.2806 17.8973L18.3285 12.8493C19.0537 12.1242 20.0673 11.8634 21 12.0669V6.20711C21 6.0745 20.9473 5.94732 20.8536 5.85355L16.1464 1.14645C16.0527 1.05268 15.9255 1 15.7929 1H6C4.34315 1 3 2.34315 3 4Z" fill="white"/>
<path fill-rule="evenodd" clip-rule="evenodd" d="M13.2806 17.8973C12.8961 18.2818 12.6234 18.7635 12.4915 19.291L12.3142 20H7.25C6.55964 20 6 19.4404 6 18.75C6 18.0596 6.55964 17.5 7.25 17.5H13.6779L13.2806 17.8973Z" fill="#FFB629"/>
<path fill-rule="evenodd" clip-rule="evenodd" d="M17.7184 13.4595C17.4891 13.179 17.1405 13 16.75 13H7.25C6.55964 13 6 13.5596 6 14.25C6 14.9404 6.55964 15.5 7.25 15.5H15.6779L17.7184 13.4595Z" fill="#FF6100"/>
<path d="M6 9.75C6 9.05964 6.55964 8.5 7.25 8.5H16.75C17.4404 8.5 18 9.05964 18 9.75C18 10.4404 17.4404 11 16.75 11H7.25C6.55964 11 6 10.4404 6 9.75Z" fill="#0099FF"/>
<path fill-rule="evenodd" clip-rule="evenodd" d="M6 1C4.34315 1 3 2.34315 3 4V20C3 21.6569 4.34315 23 6 23H12.477C12.2615 22.7081 12.109 22.3678 12.0405 22H6C4.89543 22 4 21.1046 4 20V4C4 2.89543 4.89543 2 6 2H16V4.5C16 5.32843 16.6716 6 17.5 6H20V12.0247C20.3326 11.9811 20.6713 11.9952 21 12.0669V5.5C21 5.36739 20.9473 5.24021 20.8536 5.14645L16.8536 1.14645C16.7598 1.05268 16.6326 1 16.5 1H6Z" fill="#C8CEED"/>
</svg>
