<svg width="24" height="24" viewBox="0 0 24 24" fill="none" xmlns="http://www.w3.org/2000/svg">
<g clip-path="url(#clip0_850_2231)">
<path d="M23.0135 12.2636C22.6621 11.9121 22.0923 11.9121 21.7409 12.2636L16.693 17.3115C16.5648 17.4396 16.4739 17.6002 16.43 17.7761L16.0138 19.4405C15.9315 19.7701 16.2299 20.0685 16.5594 19.9862L18.2239 19.57C18.3998 19.5261 18.5603 19.4352 18.6885 19.307L23.7364 14.2591C24.0879 13.9077 24.0879 13.3379 23.7364 12.9865L23.0135 12.2636Z" fill="black"/>
<path fill-rule="evenodd" clip-rule="evenodd" d="M3 4V20C3 21.6569 4.34315 23 6 23H18C19.6569 23 21 21.6569 21 20V19.8258L20.1045 20.7212C19.7201 21.1057 19.2383 21.3784 18.7108 21.5103L17.0463 21.9264C15.6267 22.2814 14.3128 21.338 14.0483 20.0398C13.9088 20.1076 13.7643 20.2056 13.5494 20.3538L13.5437 20.3578C13.2521 20.5589 12.827 20.8521 12.2372 20.9962C11.8208 21.0979 11.2718 21.0815 10.8407 21.0119C10.4817 20.954 10.1263 20.8274 9.83539 20.583C9.52823 20.3249 9.35624 19.9875 9.3039 19.64C9.28535 19.5168 9.27319 19.4228 9.26255 19.3404L9.26174 19.3341L9.25738 19.3372C9.16565 19.4029 9.05331 19.4814 8.93647 19.5512C8.60532 19.7489 8.41404 19.9595 8.07917 20.3282C7.9783 20.4393 7.86437 20.5647 7.72969 20.7084C7.35205 21.1114 6.71922 21.132 6.31622 20.7544C5.91323 20.3767 5.89267 19.7439 6.27031 19.3409C6.34626 19.2598 6.4241 19.1732 6.50511 19.0831C6.87017 18.677 7.29972 18.1991 7.91113 17.834C7.98322 17.791 8.04681 17.7448 8.14101 17.6763C8.20178 17.6321 8.27535 17.5786 8.3721 17.5108C8.55917 17.3797 8.8597 17.1771 9.20173 17.0702C9.42792 16.9995 9.64997 16.9977 9.77264 17.0009C9.91672 17.0046 10.0535 17.0205 10.158 17.0372C10.4822 17.0891 10.7013 17.2708 10.8255 17.4187C10.9426 17.5582 11.0057 17.7004 11.0394 17.7899C11.1067 17.9683 11.1343 18.1489 11.1483 18.2591C11.1638 18.382 11.1719 18.5026 11.1771 18.5804C11.1794 18.6158 11.1812 18.6393 11.1822 18.6536L11.1834 18.6701C11.2052 18.7892 11.2248 18.9256 11.2417 19.0492C11.3429 19.0617 11.4481 19.0682 11.5452 19.0683C11.6062 19.0683 11.6583 19.0658 11.6995 19.0619C11.7198 19.06 11.7357 19.0579 11.7472 19.0561C11.7579 19.0544 11.7629 19.0532 11.7629 19.0532C11.9636 19.0042 12.1227 18.9083 12.4138 18.7075L12.4639 18.6728C12.7349 18.485 13.1345 18.208 13.6669 18.0487C13.8298 18 14.0705 17.9447 14.3325 17.9268L14.4915 17.291C14.6234 16.7635 14.8961 16.2818 15.2806 15.8973L15.6779 15.5H7.25C6.55964 15.5 6 14.9404 6 14.25C6 13.5596 6.55964 13 7.25 13H16.75C17.1405 13 17.4891 13.179 17.7184 13.4595L20.3285 10.8493C20.5323 10.6456 20.7589 10.4785 21 10.348V7.24264C21 6.44699 20.6839 5.68393 20.1213 5.12132L16.8787 1.87868C16.3161 1.31607 15.553 1 14.7574 1H6C4.34315 1 3 2.34315 3 4ZM16 2.5V4.9C16 5.78366 16.7163 6.5 17.6 6.5H20L16 2.5ZM6 9.75C6 9.05964 6.55964 8.5 7.25 8.5H16.75C17.4404 8.5 18 9.05964 18 9.75C18 10.4404 17.4404 11 16.75 11H7.25C6.55964 11 6 10.4404 6 9.75Z" fill="black"/>
</g>
<defs>
<clipPath id="clip0_850_2231">
<rect width="24" height="24" fill="white"/>
</clipPath>
</defs>
</svg>
