<svg width="24" height="24" viewBox="0 0 24 24" fill="none" xmlns="http://www.w3.org/2000/svg">
<path fill-rule="evenodd" clip-rule="evenodd" d="M2 5C2 3.34315 3.34315 2 5 2H19C20.6569 2 22 3.34315 22 5V15.0415C21.8374 15.0142 21.6704 15 21.5 15C21.5 13.3431 20.1569 12 18.5 12C16.8431 12 15.5 13.3431 15.5 15C13.8431 15 12.5 16.3431 12.5 18C12.5 19.6569 13.8431 21 15.5 21C15.5 21.3506 15.5602 21.6872 15.6707 22H5C3.34315 22 2 20.6569 2 19V5ZM13 6C13 5.44772 13.4477 5 14 5H18C18.5523 5 19 5.44772 19 6V10C19 10.5523 18.5523 11 18 11H14C13.4477 11 13 10.5523 13 10V6ZM6 13C5.44772 13 5 13.4477 5 14V18C5 18.5523 5.44772 19 6 19H10C10.5523 19 11 18.5523 11 18V14C11 13.4477 10.5523 13 10 13H6ZM5 6C5 5.44772 5.44772 5 6 5H10C10.5523 5 11 5.44772 11 6V10C11 10.5523 10.5523 11 10 11H6C5.44772 11 5 10.5523 5 10V6ZM18.5 14C19.0523 14 19.5 14.4477 19.5 15V17H21.5C22.0523 17 22.5 17.4477 22.5 18C22.5 18.5523 22.0523 19 21.5 19H19.5V21C19.5 21.5523 19.0523 22 18.5 22C17.9477 22 17.5 21.5523 17.5 21V19H15.5C14.9477 19 14.5 18.5523 14.5 18C14.5 17.4477 14.9477 17 15.5 17H17.5V15C17.5 14.4477 17.9477 14 18.5 14Z" fill="currentColor"/>
</svg>
