<svg width="24" height="24" viewBox="0 0 24 24" fill="none" xmlns="http://www.w3.org/2000/svg">
<path d="M18 1.08057H6C4.34315 1.08057 3 2.42371 3 4.08057V20.0806C3 21.7374 4.34315 23.0806 6 23.0806H18C19.6569 23.0806 21 21.7374 21 20.0806V4.08057C21 2.42371 19.6569 1.08057 18 1.08057Z" fill="white"/>
<path d="M18.001 15.5803C18.001 16.961 16.8817 18.0803 15.501 18.0803C14.1202 18.0803 13.001 16.961 13.001 15.5803C13.001 14.1996 14.1203 13.0803 15.501 13.0803C16.8816 13.0803 18.001 14.1996 18.001 15.5803Z" fill="#0A1551"/>
<path d="M8.23327 6.24544C8.34317 6.02561 8.65683 6.02561 8.76673 6.24544L10.9681 10.6489C11.0673 10.8472 10.9231 11.0806 10.7014 11.0806H6.2986C6.07691 11.0806 5.93273 10.8472 6.03187 10.6489L8.23327 6.24544Z" fill="#FF6100"/>
<path d="M13 7.08057C13 6.52828 13.4477 6.08057 14 6.08057H17C17.5523 6.08057 18 6.52828 18 7.08057V10.0806C18 10.6329 17.5523 11.0806 17 11.0806H14C13.4477 11.0806 13 10.6329 13 10.0806V7.08057Z" fill="#0099FF"/>
<rect x="6" y="13.0806" width="5" height="5" rx="1" fill="#FFB629"/>
</svg>
