<svg width="24" height="24" viewBox="0 0 24 24" fill="none" xmlns="http://www.w3.org/2000/svg">
<path d="M18 1H6C4.34315 1 3 2.34315 3 4V20C3 21.6569 4.34315 23 6 23H18C19.6569 23 21 21.6569 21 20V4C21 2.34315 19.6569 1 18 1Z" fill="white"/>
<path d="M15.5 8C15.5 7.44772 15.9477 7 16.5 7H17.5C18.0523 7 18.5 7.44772 18.5 8V18H15.5V8Z" fill="#FFB629"/>
<path d="M5.5 7C5.5 6.44772 5.94772 6 6.5 6H7.5C8.05228 6 8.5 6.44772 8.5 7V18H5.5V7Z" fill="#0099FF"/>
<path d="M10.5 10C10.5 9.44772 10.9477 9 11.5 9H12.5C13.0523 9 13.5 9.44772 13.5 10V18H10.5V10Z" fill="#FF6100"/>
<path fill-rule="evenodd" clip-rule="evenodd" d="M18 2H6C4.89543 2 4 2.89543 4 4V20C4 21.1046 4.89543 22 6 22H18C19.1046 22 20 21.1046 20 20V4C20 2.89543 19.1046 2 18 2ZM6 1H18C19.6569 1 21 2.34315 21 4V20C21 21.6569 19.6569 23 18 23H6C4.34315 23 3 21.6569 3 20V4C3 2.34315 4.34315 1 6 1Z" fill="#C8CEED"/>
</svg>
