<svg width="24" height="24" viewBox="0 0 24 24" fill="none" xmlns="http://www.w3.org/2000/svg">
<path d="M20.9434 17.0992C19.9303 16.7177 19.5869 16.4888 19.5869 16.1836C19.5869 15.8317 19.9091 15.6367 20.4941 15.6367C20.8629 15.6367 21.2062 15.6876 21.5454 15.7936C21.7446 15.8529 21.965 15.8317 22.1473 15.73C22.3296 15.6282 22.4653 15.4544 22.5161 15.251L22.5288 15.2086C22.6433 14.7719 22.3805 14.3268 21.9438 14.2124C21.6471 14.1318 21.3122 14.081 20.9561 14.0598V13.7079C20.9561 13.3179 20.6382 13 20.2482 13C19.8582 13 19.5403 13.3179 19.5403 13.7079V14.1573C18.2813 14.4413 17.5098 15.2849 17.5098 16.387C17.5098 17.7647 18.7052 18.3412 19.7438 18.6931C20.5958 18.9813 20.9265 19.2399 20.9265 19.6172C20.9265 20.003 20.545 20.2361 19.9006 20.2361C19.4682 20.2361 19.0274 20.1556 18.5865 19.9987C18.3915 19.9267 18.1668 19.9436 17.9845 20.0411C17.798 20.1386 17.6624 20.3124 17.6115 20.5159L17.5861 20.6092C17.4759 21.0373 17.7217 21.4824 18.1414 21.6138C18.5483 21.7452 19.0104 21.83 19.4597 21.8597V22.2921C19.4597 22.6821 19.7777 23 20.1677 23C20.5577 23 20.8756 22.6821 20.8756 22.2921V21.7622C22.1728 21.4994 23.0036 20.6007 23.0036 19.4476C23.0206 18.3158 22.3974 17.6121 20.9434 17.0992Z" fill="#FF6100"/>
<path fill-rule="evenodd" clip-rule="evenodd" d="M18 1H6C4.34315 1 3 2.34315 3 4V20C3 21.6569 4.34315 23 6 23H16.5829C15.7611 22.3162 15.3698 21.1962 15.6492 20.1106L15.6528 20.0967L15.6782 20.0037C15.7741 19.6361 15.9449 19.2947 16.177 19H7.5C6.67157 19 6 18.3284 6 17.5C6 16.6716 6.67157 16 7.5 16H15.5264C15.5933 15.2306 15.8588 14.5595 16.2625 14H7.5C6.67157 14 6 13.3284 6 12.5C6 11.6716 6.67157 11 7.5 11H16.5C17.2377 11 17.8511 11.5326 17.9765 12.2343C18.4596 11.4915 19.297 11 20.2482 11C20.509 11 20.7613 11.037 21 11.1059V4C21 2.34315 19.6569 1 18 1ZM7.5 6C6.67157 6 6 6.67157 6 7.5C6 8.32843 6.67157 9 7.5 9H16.5C17.3284 9 18 8.32843 18 7.5C18 6.67157 17.3284 6 16.5 6H7.5Z" fill="#FF6100"/>
</svg>
