<svg width="24" height="24" viewBox="0 0 24 24" fill="none" xmlns="http://www.w3.org/2000/svg">
<path fill-rule="evenodd" clip-rule="evenodd" d="M5 2C3.34315 2 2 3.34315 2 5V19C2 20.6569 3.34315 22 5 22H12.005C12.0453 21.6211 12.1665 21.2663 12.3509 20.9534C12.3385 20.8497 12.332 20.7442 12.332 20.6372C12.332 19.4142 13.1712 18.3872 14.3052 18.1006L14.8482 15.8578C15.0819 14.8923 15.8324 14.1366 16.7961 13.896L18.3186 13.5159C18.4263 13.3283 18.5602 13.1517 18.7205 12.9914L18.9827 12.7292C19.8005 11.9115 21.044 11.7787 22 12.331V5C22 3.34315 20.6569 2 19 2H5Z" fill="white"/>
<path fill-rule="evenodd" clip-rule="evenodd" d="M19.3441 15.3214L17.281 15.8364C17.0393 15.8968 16.8511 16.0863 16.7925 16.3284L15.7421 20.6672C15.7103 20.7986 15.8712 20.889 15.9669 20.7934L18.2666 18.4938C18.0514 18.169 18.0869 17.727 18.3731 17.4408C18.6999 17.1141 19.2297 17.1141 19.5565 17.4408C19.8832 17.7676 19.8832 18.2973 19.5565 18.6241C19.2702 18.9103 18.8281 18.9458 18.5032 18.7305L16.2036 21.03C16.1079 21.1256 16.1983 21.2866 16.3297 21.2548L20.6688 20.2044C20.9109 20.1458 21.1004 19.9576 21.1608 19.7159L21.6757 17.6528C21.7327 17.4248 21.6658 17.1836 21.4996 17.0174L19.9796 15.4975C19.8134 15.3313 19.5722 15.2645 19.3441 15.3214ZM20.1352 15.1127C19.9399 14.9175 19.9399 14.6009 20.1352 14.4057L20.3973 14.1435C20.5926 13.9483 20.9092 13.9483 21.1045 14.1435L22.8546 15.8935C23.0498 16.0887 23.0498 16.4053 22.8546 16.6006L22.5924 16.8627C22.3971 17.058 22.0805 17.058 21.8853 16.8627L20.1352 15.1127Z" fill="white"/>
<path d="M15.2155 20.1001C15.3398 20.1951 15.3901 20.3685 15.3046 20.4907C15.2307 20.5964 15.0947 20.633 14.9802 20.5856C14.9534 20.5745 14.9237 20.5554 14.8983 20.5695C14.8816 20.5788 14.8875 20.5991 14.8885 20.6088C14.8954 20.6742 14.9352 20.7694 15.0119 20.9263C15.0181 20.9388 15.0245 20.9518 15.031 20.9651C15.0955 21.0961 15.1766 21.261 15.2209 21.4258C15.2453 21.5167 15.3165 21.5891 15.4042 21.6231C15.4593 21.6445 15.5127 21.6731 15.5626 21.7105C15.7177 21.8271 15.7651 21.9932 15.7839 22.1052C15.7855 22.1148 15.7986 22.1168 15.8028 22.108C15.8443 22.0223 15.9005 21.9059 15.972 21.8082C16.0545 21.6953 16.1855 21.567 16.3862 21.536C16.6268 21.4989 16.8105 21.5951 16.9396 21.73C17.0499 21.8451 17.1349 22.0085 17.1938 22.1219C17.2626 22.2541 17.3111 22.3446 17.3661 22.4059C17.4098 22.4547 17.4362 22.4618 17.4698 22.4599C17.5188 22.4571 17.5866 22.4337 17.6719 22.3773C17.7759 22.3085 17.9319 22.3633 17.9421 22.4876L17.9586 22.69C17.9656 22.775 17.9267 22.8589 17.8508 22.8979C17.747 22.9513 17.6288 22.9918 17.5008 22.9991C17.2603 23.013 17.0851 22.9017 16.964 22.7666C16.8596 22.6502 16.7822 22.5012 16.7239 22.3889L16.7147 22.3713C16.6461 22.2396 16.5995 22.1558 16.5495 22.1036C16.5151 22.0676 16.4998 22.0559 16.4686 22.0698C16.4513 22.0775 16.4282 22.0993 16.408 22.127C16.3672 22.1828 16.3326 22.2538 16.2865 22.3487L16.2717 22.3791C16.2298 22.4651 16.1641 22.6 16.0666 22.6911C16.0096 22.7443 15.9287 22.796 15.8228 22.8095C15.7169 22.8231 15.6203 22.7941 15.5399 22.7496C15.3055 22.6201 15.2753 22.3819 15.2621 22.2781C15.2536 22.2133 15.2391 22.1174 15.1684 22.1225C15.1231 22.1258 15.0953 22.1649 15.0779 22.1958C15.0604 22.2269 15.0414 22.2607 15.0199 22.2981C14.9703 22.3843 14.9105 22.4833 14.8446 22.567C14.7871 22.6401 14.6877 22.7515 14.546 22.7925C14.4639 22.8162 14.3719 22.8149 14.2827 22.7762C14.199 22.7398 14.1379 22.6792 14.0937 22.619C14.0268 22.5278 13.9927 22.4211 13.9987 22.3089C14.0045 22.2013 14.046 22.1086 14.0959 22.0352C14.1928 21.893 14.3472 21.7846 14.4991 21.7109C14.5481 21.6872 14.5996 21.6657 14.6527 21.647C14.6868 21.6351 14.7086 21.6008 14.6992 21.5659C14.6694 21.4548 14.612 21.3376 14.5422 21.1953C14.5371 21.1848 14.5319 21.1743 14.5267 21.1636C14.46 21.0272 14.3701 20.8434 14.3513 20.6654C14.3411 20.5681 14.3497 20.457 14.4036 20.3488C14.458 20.2395 14.5461 20.1582 14.6516 20.0997C14.8014 20.0165 14.9483 20.0067 15.0559 20.0293C15.1268 20.0442 15.1613 20.0586 15.2155 20.1001Z" fill="white"/>
<path fill-rule="evenodd" clip-rule="evenodd" d="M16.5 5C16.2239 5 16 5.22386 16 5.5V7.5C16 7.77614 16.2239 8 16.5 8H19.5C19.7761 8 20 7.77614 20 7.5V5.5C20 5.22386 19.7761 5 19.5 5H16.5ZM16 11C16 10.4477 16.4477 10 17 10H19C19.5523 10 20 10.4477 20 11V12.1118C19.6278 12.2286 19.2776 12.4344 18.9827 12.7293L18.7205 12.9914C18.5602 13.1517 18.4263 13.3283 18.3186 13.5159L16.7961 13.896C16.7467 13.9083 16.698 13.922 16.6498 13.937C16.2702 13.795 16 13.4291 16 13V11Z" fill="#FFB629"/>
<path fill-rule="evenodd" clip-rule="evenodd" d="M10.5 5C10.2239 5 10 5.22386 10 5.5V7.5C10 7.77614 10.2239 8 10.5 8H13.5C13.7761 8 14 7.77614 14 7.5V5.5C14 5.22386 13.7761 5 13.5 5H10.5ZM10 11C10 10.4477 10.4477 10 11 10H13C13.5523 10 14 10.4477 14 11V13C14 13.5523 13.5523 14 13 14H11C10.4477 14 10 13.5523 10 13V11ZM10 17C10 16.4477 10.4477 16 11 16H13C13.5523 16 14 16.4477 14 17V18.1981C13.2171 18.5027 12.617 19.1734 12.4102 20H11C10.4477 20 10 19.5523 10 19V17Z" fill="#FF6100"/>
<path fill-rule="evenodd" clip-rule="evenodd" d="M4.5 5C4.22386 5 4 5.22386 4 5.5V7.5C4 7.77614 4.22386 8 4.5 8H7.5C7.77614 8 8 7.77614 8 7.5V5.5C8 5.22386 7.77614 5 7.5 5H4.5ZM4 11C4 10.4477 4.44772 10 5 10H7C7.55228 10 8 10.4477 8 11V13C8 13.5523 7.55228 14 7 14H5C4.44772 14 4 13.5523 4 13V11ZM4 17C4 16.4477 4.44772 16 5 16H7C7.55228 16 8 16.4477 8 17V19C8 19.5523 7.55228 20 7 20H5C4.44772 20 4 19.5523 4 19V17Z" fill="#0099FF"/>
</svg>
