<svg width="24" height="24" viewBox="0 0 24 24" fill="none" xmlns="http://www.w3.org/2000/svg">
<path d="M19.3808 18.9267C19.4283 18.997 19.4522 19.0972 19.4522 19.2248C19.4522 19.3522 19.428 19.4532 19.3808 19.524C19.3339 19.5945 19.2628 19.6288 19.1639 19.6288C19.0649 19.6288 18.9944 19.5946 18.9483 19.524C18.9015 19.4532 18.8778 19.3522 18.8778 19.2248C18.8778 19.0972 18.9015 18.997 18.948 18.9267C18.9944 18.8569 19.0649 18.8232 19.1639 18.8232C19.2628 18.8232 19.3339 18.8569 19.3808 18.9267Z" fill="white"/>
<path d="M22.4297 19.1025H21.8922C21.9029 19.0316 21.9224 18.9728 21.9528 18.9267C21.9993 18.8569 22.0695 18.8185 22.1685 18.8185C22.2673 18.8185 22.3324 18.8569 22.3796 18.9267C22.4106 18.9728 22.4241 19.0341 22.4297 19.1025Z" fill="white"/>
<path d="M16.3951 19.1025H15.8574C15.8683 19.0316 15.8877 18.9728 15.9184 18.9267C15.9646 18.8569 16.035 18.8185 16.1339 18.8185C16.2327 18.8185 16.2981 18.8569 16.345 18.9267C16.3759 18.9728 16.3894 19.0341 16.3951 19.1025Z" fill="white"/>
<path d="M14.4497 19.634C14.2963 19.6433 14.2283 19.5904 14.2287 19.5906C14.1992 19.5671 14.195 19.5615 14.1855 19.5464C14.1703 19.5236 14.1628 19.491 14.1628 19.4492C14.1628 19.384 14.1848 19.3369 14.23 19.3051C14.2296 19.3052 14.295 19.2494 14.4484 19.2512C14.5566 19.2528 14.653 19.2684 14.653 19.2684V19.6073C14.653 19.6073 14.5575 19.6275 14.4497 19.634Z" fill="white"/>
<path fill-rule="evenodd" clip-rule="evenodd" d="M18.0584 15.2815C17.4129 15.2815 16.829 15.5497 16.4099 15.9816C16.1743 15.676 15.8706 15.4284 15.5223 15.2582C15.1741 15.0879 14.7908 14.9996 14.4023 15C13.0078 15 11.8774 16.1166 11.8774 17.4941C11.877 17.8353 11.9476 18.173 12.085 18.486C11.7539 18.6779 11.4795 18.9524 11.2892 19.282C11.0988 19.6116 10.9991 19.9847 11 20.3643C11 21.562 11.9715 22.5329 13.1699 22.5327C13.3198 22.5328 13.4693 22.5173 13.6159 22.4867C13.9451 23.37 14.803 24 15.8093 24C16.7757 24 17.605 23.4195 17.961 22.5912C18.2316 22.7221 18.5357 22.7953 18.8572 22.7953C19.6251 22.7953 20.2944 22.3768 20.6455 21.7576C20.8239 21.7932 21.0084 21.8119 21.1977 21.8119C22.7454 21.8119 24 20.56 24 19.0155C24 17.4711 22.7454 16.2192 21.1977 16.2192C20.807 16.2188 20.4207 16.3 20.064 16.4576C19.6653 15.7549 18.9164 15.2815 18.0584 15.2815ZM12.9358 19.5229L12.8832 19.6673C12.8765 19.6848 12.8828 19.6908 12.8867 19.6944C12.8876 19.6952 12.8883 19.6958 12.8887 19.6965C12.907 19.7096 12.9254 19.7198 12.944 19.7301C12.9503 19.7336 12.9566 19.7371 12.9629 19.7407C13.0954 19.8104 13.2207 19.8303 13.3516 19.8303C13.6182 19.8303 13.784 19.6901 13.784 19.4644V19.4601C13.784 19.2512 13.5969 19.1753 13.4216 19.1205L13.3988 19.1134C13.2667 19.0708 13.1526 19.0341 13.1526 18.9482V18.9435C13.1526 18.8699 13.2191 18.8156 13.3226 18.8156C13.4407 18.8181 13.5566 18.8475 13.6613 18.9015C13.6613 18.9015 13.6873 18.9178 13.6969 18.8932L13.7509 18.7488C13.756 18.735 13.7472 18.7246 13.7381 18.719C13.6377 18.6588 13.4992 18.6176 13.3559 18.6176L13.3292 18.6179C13.0852 18.6179 12.9147 18.7637 12.9147 18.9727V18.9772C12.9147 19.1974 13.1028 19.269 13.2787 19.3185L13.3071 19.3275C13.4352 19.3663 13.5461 19.4 13.5461 19.4892V19.4934C13.5461 19.5754 13.4742 19.6361 13.3582 19.6361C13.3134 19.6361 13.1698 19.6351 13.0148 19.5382C13.0045 19.5323 12.9967 19.5273 12.9894 19.5226C12.9833 19.5186 12.9774 19.5149 12.9708 19.511C12.9631 19.5063 12.9442 19.4982 12.9358 19.5229ZM16.8397 19.5229L16.7869 19.6673C16.7801 19.6848 16.7866 19.6908 16.7905 19.6944C16.7913 19.6952 16.792 19.6958 16.7925 19.6965C16.8108 19.7095 16.8292 19.7197 16.8477 19.73C16.8541 19.7336 16.8605 19.7371 16.8668 19.7407C16.9992 19.8104 17.1245 19.8303 17.2556 19.8303C17.5221 19.8303 17.6878 19.6901 17.6878 19.4644V19.4601C17.6878 19.2512 17.5008 19.1753 17.3255 19.1205L17.3028 19.1134C17.1704 19.0708 17.0565 19.0341 17.0565 18.9482V18.9435C17.0565 18.8699 17.123 18.8156 17.2266 18.8156C17.3447 18.8181 17.4606 18.8475 17.5654 18.9015C17.5654 18.9015 17.5911 18.9178 17.6009 18.8932C17.6056 18.8797 17.65 18.7616 17.6549 18.7488C17.6599 18.735 17.6509 18.7246 17.6421 18.719C17.5416 18.6588 17.403 18.6176 17.2597 18.6176L17.2331 18.6179C16.9891 18.6179 16.8185 18.7637 16.8185 18.9727V18.9772C16.8185 19.1974 17.0066 19.269 17.1828 19.3185L17.2112 19.3275C17.3393 19.3663 17.4501 19.4 17.4501 19.4892V19.4934C17.4501 19.5754 17.378 19.6361 17.2624 19.6361C17.2172 19.6361 17.0739 19.6351 16.9186 19.5382C16.9069 19.5314 16.8984 19.526 16.8901 19.5207C16.885 19.5175 16.88 19.5143 16.8745 19.511C16.8697 19.508 16.8474 19.4993 16.8397 19.5229ZM19.7073 19.2248C19.7073 19.1406 19.6965 19.0608 19.6746 18.9883C19.6529 18.9151 19.6188 18.8507 19.5736 18.797C19.5281 18.743 19.4704 18.6998 19.4024 18.6685C19.3343 18.637 19.2543 18.6211 19.1639 18.6211C19.0734 18.6211 18.9934 18.637 18.9253 18.6685C18.8593 18.6982 18.8007 18.7421 18.754 18.797C18.7089 18.8507 18.6749 18.9151 18.653 18.9883C18.6313 19.0608 18.6203 19.1404 18.6203 19.2248C18.6196 19.3048 18.6307 19.3845 18.653 19.4613C18.6732 19.5312 18.7076 19.5963 18.7541 19.6526C18.8008 19.7072 18.8593 19.7508 18.9253 19.78C18.9932 19.8109 19.0737 19.8264 19.1639 19.8264C19.254 19.8264 19.3342 19.8109 19.4024 19.78C19.4684 19.7508 19.527 19.7072 19.5736 19.6526C19.6202 19.5963 19.6545 19.5312 19.6746 19.4612C19.6965 19.3886 19.7073 19.3092 19.7073 19.2248ZM21.5573 19.744L21.5027 19.5946C21.4951 19.5733 21.4742 19.581 21.4742 19.581C21.4418 19.5935 21.4074 19.6048 21.3707 19.6105C21.3336 19.6163 21.2924 19.6191 21.2487 19.6191C21.141 19.6191 21.0554 19.5875 20.9941 19.5249C20.9327 19.4622 20.898 19.3608 20.8984 19.224C20.8989 19.0992 20.9294 19.0054 20.984 18.9338C21.038 18.8628 21.1208 18.8265 21.231 18.8265C21.3227 18.8265 21.3929 18.837 21.4661 18.8597C21.4661 18.8597 21.4835 18.8673 21.492 18.8445C21.4991 18.8251 21.5055 18.8077 21.5118 18.7905C21.5228 18.7606 21.5335 18.7315 21.5469 18.6942C21.5529 18.6772 21.5382 18.6702 21.533 18.6682C21.5041 18.6571 21.4357 18.6388 21.3844 18.6309C21.3363 18.6239 21.2803 18.6201 21.2173 18.6201C21.1241 18.6201 21.0405 18.6359 20.9694 18.6672C20.9009 18.6967 20.8397 18.7405 20.7901 18.7958C20.7423 18.8495 20.7061 18.9139 20.6819 18.987C20.6577 19.0594 20.6453 19.1394 20.6453 19.224C20.6453 19.4066 20.6954 19.5539 20.7935 19.6621C20.8922 19.7707 21.04 19.8257 21.2331 19.8257C21.347 19.8257 21.464 19.8026 21.5483 19.7703C21.5483 19.7703 21.5644 19.7623 21.5573 19.744ZM22.6642 19.2648C22.6674 19.2423 22.6871 19.1047 22.6415 18.9468C22.6226 18.8763 22.5758 18.8049 22.5451 18.7723C22.4965 18.7205 22.449 18.6844 22.4018 18.6644C22.3405 18.6383 22.2669 18.6211 22.1863 18.6211C22.0921 18.6211 22.0066 18.6368 21.9375 18.669C21.8705 18.6993 21.8112 18.744 21.7639 18.7998C21.7182 18.8545 21.684 18.9196 21.6619 18.9935C21.6399 19.0667 21.6289 19.1469 21.6289 19.2313C21.6281 19.3118 21.6396 19.392 21.6629 19.4692C21.6846 19.5396 21.7219 19.6044 21.7722 19.6586C21.8249 19.7139 21.8898 19.7564 21.9618 19.7828C22.0375 19.8119 22.1295 19.8268 22.2352 19.8264C22.453 19.8258 22.5674 19.7777 22.6146 19.752C22.623 19.7474 22.631 19.7393 22.621 19.7164L22.572 19.5799C22.5642 19.5596 22.5436 19.5669 22.5436 19.5669C22.5387 19.5687 22.5337 19.5706 22.5284 19.5726C22.4749 19.5929 22.397 19.6223 22.2342 19.6219C22.1172 19.6218 22.0307 19.5876 21.9763 19.5343C21.9208 19.4799 21.8934 19.3997 21.8887 19.2865L22.6421 19.2871C22.6421 19.2871 22.662 19.2868 22.6638 19.2677C22.6639 19.2672 22.664 19.2662 22.6642 19.2648ZM16.6298 19.2649C16.6329 19.2427 16.6523 19.1049 16.6068 18.9468C16.588 18.8763 16.5413 18.8049 16.5105 18.7723C16.4621 18.7205 16.4146 18.6844 16.3674 18.6644C16.2991 18.6357 16.2257 18.6209 16.1515 18.6211C16.0577 18.6211 15.9721 18.6368 15.9027 18.669C15.8358 18.6994 15.7766 18.744 15.7293 18.7998C15.6824 18.8569 15.6477 18.9228 15.6272 18.9935C15.6053 19.0667 15.5942 19.1469 15.5942 19.2313C15.5934 19.3118 15.605 19.3921 15.6285 19.4692C15.6501 19.5396 15.6873 19.6043 15.7375 19.6586C15.7903 19.7139 15.8552 19.7564 15.9272 19.7828C16.0028 19.8119 16.0948 19.8268 16.2006 19.8264C16.4181 19.8258 16.5327 19.7777 16.5802 19.752C16.5885 19.7474 16.5964 19.7393 16.5865 19.7164L16.5373 19.5799C16.5296 19.5596 16.509 19.5669 16.509 19.5669C16.5042 19.5687 16.4993 19.5705 16.4942 19.5725C16.4407 19.5927 16.3626 19.6223 16.1995 19.6219C16.0824 19.6218 15.9961 19.5876 15.9417 19.5343C15.8861 19.4799 15.8588 19.3997 15.854 19.2865L16.6075 19.2871C16.6075 19.2871 16.6274 19.2868 16.6294 19.2677C16.6295 19.2672 16.6296 19.2663 16.6298 19.2649ZM14.6529 19.0814C14.588 19.0721 14.5286 19.0669 14.5286 19.0669C14.4979 19.0645 14.4584 19.0635 14.411 19.0635C14.3465 19.0635 14.284 19.0715 14.2253 19.087C14.169 19.1016 14.1158 19.126 14.0682 19.1591C14.0222 19.1916 13.9855 19.2331 13.9587 19.282C13.9322 19.3312 13.9184 19.389 13.9184 19.4539C13.9184 19.52 13.93 19.5772 13.9532 19.624C13.9756 19.6704 14.0093 19.7104 14.0513 19.7406C14.0974 19.7726 14.1496 19.795 14.2047 19.8064C14.2639 19.8198 14.331 19.8265 14.4042 19.8265C14.4809 19.8265 14.5574 19.8202 14.6331 19.8077C14.7072 19.7953 14.7979 19.777 14.823 19.7713C14.8479 19.7655 14.8756 19.7579 14.8756 19.7579C14.8946 19.7534 14.893 19.7337 14.893 19.7337L14.8926 19.052C14.8926 18.9026 14.8522 18.7918 14.7729 18.723C14.6937 18.6546 14.5772 18.62 14.4268 18.62C14.3591 18.6206 14.2915 18.6268 14.2248 18.6384C14.2248 18.6384 14.0604 18.67 13.9926 18.7223C13.9926 18.7223 13.9777 18.7316 13.9859 18.752L14.0392 18.8938C14.0458 18.9122 14.064 18.9059 14.064 18.9059C14.064 18.9059 14.0695 18.9036 14.0762 18.8997C14.2212 18.8218 14.4046 18.824 14.4046 18.824C14.4859 18.824 14.5488 18.8405 14.5909 18.8722C14.632 18.9036 14.6529 18.9504 14.6529 19.0499V19.0814ZM20.5492 18.8392C20.5625 18.8053 20.599 18.7032 20.6061 18.6828C20.6072 18.6803 20.6077 18.6777 20.6077 18.675C20.6077 18.6723 20.6072 18.6696 20.6062 18.6671C20.6051 18.6646 20.6036 18.6624 20.6016 18.6605C20.5997 18.6586 20.5974 18.6571 20.5949 18.6561C20.5819 18.6512 20.5178 18.6378 20.4685 18.6349C20.3736 18.6293 20.3212 18.6447 20.2743 18.6658C20.2275 18.6866 20.1757 18.7204 20.1469 18.7586V18.6678C20.1469 18.6553 20.1378 18.6453 20.125 18.6453H19.932C19.9194 18.6453 19.9101 18.6553 19.9101 18.6678V19.7794C19.9102 19.7824 19.9108 19.7854 19.912 19.7881C19.9132 19.7909 19.9149 19.7934 19.9171 19.7954C19.9193 19.7975 19.9218 19.7992 19.9246 19.8003C19.9274 19.8014 19.9304 19.802 19.9335 19.8019H20.1312C20.1342 19.8019 20.1372 19.8013 20.14 19.8002C20.1427 19.7991 20.1453 19.7974 20.1474 19.7953C20.1495 19.7932 20.1512 19.7907 20.1523 19.7879C20.1534 19.7852 20.154 19.7822 20.154 19.7793V19.2241C20.154 19.1496 20.1625 19.0753 20.179 19.0286C20.1952 18.9822 20.2175 18.9452 20.2451 18.9189C20.2711 18.8933 20.303 18.8743 20.3381 18.8637C20.3731 18.853 20.4119 18.8496 20.439 18.8496C20.4786 18.8496 20.5218 18.8595 20.5218 18.8595C20.5364 18.861 20.5444 18.8521 20.5492 18.8392ZM18.7618 18.1936C18.7675 18.1767 18.7531 18.1698 18.7478 18.1677C18.7237 18.1604 18.7019 18.1555 18.6733 18.1501C18.6442 18.1449 18.6098 18.1424 18.5708 18.1424C18.4346 18.1424 18.3273 18.1804 18.2518 18.2556C18.1767 18.3303 18.126 18.444 18.1004 18.5937L18.0911 18.644H17.9204C17.9204 18.644 17.8992 18.6432 17.8948 18.6657L17.8669 18.8206C17.8646 18.8355 17.8715 18.8448 17.8914 18.8448H18.0577L17.8888 19.7776C17.8757 19.8525 17.8605 19.9144 17.8439 19.9612C17.8272 20.0075 17.811 20.042 17.7911 20.0674C17.7721 20.0916 17.7536 20.1097 17.7223 20.1197C17.6963 20.1285 17.6664 20.1324 17.6336 20.1324C17.6153 20.1324 17.5911 20.1293 17.573 20.1258C17.5553 20.1223 17.5459 20.1186 17.5325 20.113C17.5325 20.113 17.5129 20.1057 17.5052 20.1248C17.4992 20.1407 17.4546 20.2615 17.4495 20.2762C17.4441 20.2912 17.4516 20.3028 17.4609 20.3061C17.4834 20.3141 17.5064 20.3208 17.5298 20.326C17.5718 20.3359 17.6073 20.3366 17.6403 20.3366C17.7095 20.3366 17.7729 20.3269 17.8251 20.3079C17.8789 20.2879 17.9267 20.2549 17.9643 20.212C18.0084 20.164 18.0358 20.1138 18.0624 20.0451C18.0919 19.9637 18.1141 19.88 18.1287 19.7947L18.2983 18.8447H18.5465C18.5465 18.8447 18.5671 18.8455 18.5717 18.823L18.5998 18.6681C18.6018 18.6533 18.5954 18.644 18.5751 18.644H18.3343C18.3345 18.6432 18.335 18.6402 18.3357 18.6356C18.3396 18.6116 18.3508 18.542 18.3741 18.476C18.3855 18.4459 18.4036 18.4187 18.427 18.3964C18.4445 18.3786 18.4662 18.3654 18.4901 18.3578C18.514 18.35 18.541 18.3462 18.5708 18.3462C18.6049 18.3463 18.6388 18.3515 18.6714 18.3616C18.696 18.369 18.6991 18.3619 18.7039 18.3501L18.7618 18.1936ZM15.36 19.8019C15.3728 19.8019 15.3817 19.7919 15.3817 19.7793V18.1887C15.3817 18.1763 15.3728 18.1662 15.36 18.1662H15.1601C15.1476 18.1662 15.1388 18.1763 15.1388 18.1885V19.7794C15.1388 19.7918 15.1475 19.8019 15.1603 19.8019H15.36Z" fill="white"/>
<path fill-rule="evenodd" clip-rule="evenodd" d="M6 1H18C19.6569 1 21 2.34315 21 4V14.2232C20.9196 14.2264 20.8393 14.2317 20.7593 14.239C20.0234 13.6427 19.0855 13.2815 18.0584 13.2815C17.5346 13.2815 17.0327 13.3761 16.569 13.5481C16.5136 13.5181 16.4575 13.4892 16.4008 13.4614C15.7781 13.157 15.0938 12.9994 14.4012 13C11.9263 13.0006 9.87812 14.9885 9.87738 17.4928C9.87728 17.5933 9.88059 17.6937 9.88725 17.7936C9.76637 17.9478 9.65603 18.1107 9.55733 18.2816C9.19138 18.9152 8.99868 19.6341 9.00001 20.3667C9.00057 21.3659 9.35265 22.2825 9.93914 23H6C4.34315 23 3 21.6569 3 20V4C3 2.34315 4.34315 1 6 1Z" fill="white"/>
<path fill-rule="evenodd" clip-rule="evenodd" d="M7.5 11C6.67157 11 6 11.6716 6 12.5C6 13.3284 6.67157 14 7.5 14H11.5569C12.3371 13.3735 13.3291 13.0003 14.4012 13C15.0938 12.9994 15.7781 13.157 16.4008 13.4614C16.4575 13.4892 16.5136 13.5181 16.569 13.5481C16.9484 13.4073 17.3533 13.3185 17.7748 13.2908C17.9176 13.0612 18 12.7902 18 12.5C18 11.6716 17.3284 11 16.5 11H7.5Z" fill="#FF6100"/>
<path fill-rule="evenodd" clip-rule="evenodd" d="M10.1327 16C9.9676 16.4659 9.87754 16.968 9.87738 17.4928C9.87728 17.5933 9.88059 17.6937 9.88725 17.7936C9.76637 17.9478 9.65603 18.1107 9.55733 18.2816C9.42482 18.511 9.31503 18.7516 9.22894 19H7.5C6.67157 19 6 18.3284 6 17.5C6 16.6716 6.67157 16 7.5 16H10.1327Z" fill="#FFB629"/>
<path d="M6 7.5C6 6.67157 6.67157 6 7.5 6H16.5C17.3284 6 18 6.67157 18 7.5C18 8.32843 17.3284 9 16.5 9H7.5C6.67157 9 6 8.32843 6 7.5Z" fill="#0099FF"/>
</svg>
