<svg width="24" height="24" viewBox="0 0 24 24" fill="none" xmlns="http://www.w3.org/2000/svg">
<path fill-rule="evenodd" clip-rule="evenodd" d="M21.7071 16.7929C22.0976 17.1834 22.0976 17.8166 21.7071 18.2071L17.2071 22.7071C16.8166 23.0976 16.1834 23.0976 15.7929 22.7071L13.7929 20.7071C13.4024 20.3166 13.4024 19.6834 13.7929 19.2929C14.1834 18.9024 14.8166 18.9024 15.2071 19.2929L16.5 20.5858L20.2929 16.7929C20.6834 16.4024 21.3166 16.4024 21.7071 16.7929Z" fill="currentColor"/>
<path fill-rule="evenodd" clip-rule="evenodd" d="M2 5C2 3.34315 3.34315 2 5 2H19C20.6569 2 22 3.34315 22 5V14.6708C20.9942 14.3161 19.8371 14.5138 19 15.2638V10.5C19 10.2239 18.7761 10 18.5 10H13.5C13.2239 10 13 10.2239 13 10.5V17.4011C12.7779 17.5294 12.5687 17.6887 12.3787 17.8787C11.2467 19.0106 11.2084 20.8221 12.2638 22H5C3.34315 22 2 20.6569 2 19V5ZM5 6C5 5.44772 5.44772 5 6 5H10C10.5523 5 11 5.44772 11 6V7.5C11 7.77614 10.7761 8 10.5 8H5.5C5.22386 8 5 7.77614 5 7.5V6ZM13 6C13 5.44772 13.4477 5 14 5H18C18.5523 5 19 5.44772 19 6V7.5C19 7.77614 18.7761 8 18.5 8H13.5C13.2239 8 13 7.77614 13 7.5V6ZM5 10.5C5 10.2239 5.22386 10 5.5 10H10.5C10.7761 10 11 10.2239 11 10.5V15C11 15.5523 10.5523 16 10 16H6C5.44772 16 5 15.5523 5 15V10.5Z" fill="currentColor"/>
</svg>
