<svg width="24" height="24" viewBox="0 0 24 24" fill="none" xmlns="http://www.w3.org/2000/svg">
<path d="M18 1H6C4.34315 1 3 2.34315 3 4V20C3 21.6569 4.34315 23 6 23H18C19.6569 23 21 21.6569 21 20V4C21 2.34315 19.6569 1 18 1Z" fill="white"/>
<path fill-rule="evenodd" clip-rule="evenodd" d="M11.5 6V8.5H8.8C8.08203 8.5 7.5 9.08203 7.5 9.8V11H8.5V9.8C8.5 9.63431 8.63431 9.5 8.8 9.5H15.2C15.3657 9.5 15.5 9.63432 15.5 9.8V11H16.5V9.8C16.5 9.08203 15.918 8.5 15.2 8.5H12.5V6H11.5ZM11.5 15V18H12.5V15L15.2 15C15.918 15 16.5 14.418 16.5 13.7V12H15.5V13.7C15.5 13.8657 15.3657 14 15.2 14L8.8 14C8.63431 14 8.5 13.8657 8.5 13.7L8.5 12L7.5 12V13.7C7.5 14.418 8.08203 15 8.8 15L11.5 15Z" fill="#C8CEED"/>
<path d="M13.5 4H10.5C9.67157 4 9 4.67157 9 5.5C9 6.32843 9.67157 7 10.5 7H13.5C14.3284 7 15 6.32843 15 5.5C15 4.67157 14.3284 4 13.5 4Z" fill="#FF6100"/>
<path d="M13.5 17H10.5C9.67157 17 9 17.6716 9 18.5C9 19.3284 9.67157 20 10.5 20H13.5C14.3284 20 15 19.3284 15 18.5C15 17.6716 14.3284 17 13.5 17Z" fill="#0099FF"/>
<path fill-rule="evenodd" clip-rule="evenodd" d="M6.5 10.25H9.5C10.3284 10.25 11 10.9216 11 11.75C11 12.5784 10.3284 13.25 9.5 13.25H6.5C5.67157 13.25 5 12.5784 5 11.75C5 10.9216 5.67157 10.25 6.5 10.25Z" fill="#FFB629"/>
<path d="M14.5 10.25H17.5C18.3284 10.25 19 10.9216 19 11.75C19 12.5784 18.3284 13.25 17.5 13.25H14.5C13.6716 13.25 13 12.5784 13 11.75C13 10.9216 13.6716 10.25 14.5 10.25Z" fill="#FFB629"/>
</svg>
