<svg width="24" height="24" viewBox="0 0 24 24" fill="none" xmlns="http://www.w3.org/2000/svg">
<g clip-path="url(#clip0_1296_2498)">
<path fill-rule="evenodd" clip-rule="evenodd" d="M3 4C3 2.34315 4.34315 1 6 1H16.5C16.6326 1 16.7598 1.05268 16.8536 1.14645L20.8536 5.14645C20.9473 5.24021 21 5.36739 21 5.5V20C21 21.6569 19.6569 23 18 23H6C4.34315 23 3 21.6569 3 20V4ZM6 2C4.89543 2 4 2.89543 4 4V20C4 21.1046 4.89543 22 6 22H18C19.1046 22 20 21.1046 20 20V6H17.5C16.6716 6 16 5.32843 16 4.5V2H6Z" fill="#C8CEED"/>
<path d="M4 4C4 2.89543 4.89543 2 6 2H16V4.5C16 5.32843 16.6716 6 17.5 6H20V20C20 21.1046 19.1046 22 18 22H6C4.89543 22 4 21.1046 4 20V4Z" fill="white"/>
<path fill-rule="evenodd" clip-rule="evenodd" d="M9.26174 18.3341L9.25738 18.3372C9.16565 18.4029 9.05332 18.4814 8.93647 18.5512C8.60532 18.7489 8.41404 18.9595 8.07917 19.3282C7.97829 19.4393 7.86438 19.5647 7.72969 19.7084C7.35205 20.1114 6.71922 20.132 6.31622 19.7544C5.91323 19.3767 5.89267 18.7439 6.27032 18.3409C6.34628 18.2598 6.42414 18.1732 6.50518 18.083C6.87023 17.6769 7.29973 17.1991 7.91114 16.834C7.98323 16.791 8.04681 16.7448 8.14101 16.6763C8.20179 16.6321 8.27532 16.5786 8.3721 16.5108C8.55917 16.3797 8.8597 16.1771 9.20173 16.0702C9.42792 15.9995 9.64997 15.9977 9.77264 16.0009C9.91672 16.0046 10.0535 16.0205 10.158 16.0372C10.4822 16.0891 10.7013 16.2708 10.8255 16.4187C10.9426 16.5582 11.0057 16.7004 11.0394 16.7899C11.1067 16.9682 11.1343 17.1489 11.1483 17.2591C11.1638 17.382 11.1719 17.5026 11.1771 17.5804C11.1808 17.6365 11.183 17.6625 11.1834 17.6701C11.2052 17.7892 11.2248 17.9256 11.2417 18.0492C11.3429 18.0617 11.4481 18.0682 11.5452 18.0683C11.6062 18.0683 11.6583 18.0658 11.6995 18.0619C11.7198 18.06 11.7357 18.0579 11.7473 18.0561C11.7579 18.0544 11.7629 18.0532 11.7629 18.0532C11.9636 18.0042 12.1227 17.9083 12.4138 17.7075C12.4299 17.6964 12.4467 17.6848 12.4639 17.6728C12.7349 17.485 13.1345 17.208 13.6669 17.0487C13.8532 16.993 14.1412 16.9287 14.4466 16.9215C14.6868 16.9159 15.2637 16.9337 15.6816 17.3803C15.8391 17.5487 15.9272 17.7238 15.9792 17.8465C16.0047 17.9068 16.0283 17.9729 16.0415 18.0103C16.0403 18.0069 16.0428 18.0141 16.0415 18.0103C16.0653 17.9928 16.0965 17.9684 16.1406 17.9324C16.1514 17.9235 16.164 17.9132 16.1779 17.9017C16.2366 17.8534 16.3191 17.7854 16.4 17.7247C16.8418 17.3933 17.4686 17.4829 17.8 17.9247C18.1314 18.3665 18.0418 18.9933 17.6 19.3247C17.5589 19.3556 17.5231 19.385 17.4708 19.428C17.4516 19.4438 17.4302 19.4614 17.4055 19.4815C17.3264 19.5461 17.2149 19.6355 17.0855 19.7185C16.8044 19.8986 16.4147 20.0637 15.915 20.0211C15.2408 19.9636 14.5797 19.5633 14.2702 18.9564C14.259 18.9593 14.249 18.9622 14.2402 18.9648C14.0249 19.0292 13.8613 19.1387 13.5494 19.3538L13.5437 19.3578C13.2521 19.5589 12.827 19.8521 12.2372 19.9962C11.8208 20.0979 11.2718 20.0815 10.8407 20.0119C10.4818 19.954 10.1263 19.8274 9.83539 19.583C9.52824 19.3249 9.35624 18.9875 9.3039 18.64C9.28535 18.5168 9.27319 18.4228 9.26255 18.3404C9.26228 18.3383 9.26201 18.3362 9.26174 18.3341Z" fill="#FFB629"/>
<path d="M23.0135 11.2636C22.6621 10.9121 22.0923 10.9121 21.7409 11.2636L19.4372 13.5673L16.693 16.3115C16.5648 16.4397 16.4739 16.6002 16.43 16.7761L16.0138 18.4405C15.9315 18.7701 16.2299 19.0685 16.5595 18.9862L18.2239 18.57C18.3998 18.5261 18.5603 18.4352 18.6885 18.307L21.4327 15.5628L23.7364 13.2591C24.0879 12.9077 24.0879 12.3379 23.7364 11.9865L23.0135 11.2636Z" fill="#0A1551"/>
<path d="M6 13.25C6 12.5596 6.55964 12 7.25 12H16.75C17.4404 12 18 12.5596 18 13.25C18 13.9404 17.4404 14.5 16.75 14.5H7.25C6.55964 14.5 6 13.9404 6 13.25Z" fill="#FF6100"/>
<path d="M6 8.75C6 8.05964 6.55964 7.5 7.25 7.5H16.75C17.4404 7.5 18 8.05964 18 8.75C18 9.44036 17.4404 10 16.75 10H7.25C6.55964 10 6 9.44036 6 8.75Z" fill="#0099FF"/>
</g>
<defs>
<clipPath id="clip0_1296_2498">
<rect width="24" height="24" fill="white"/>
</clipPath>
</defs>
</svg>
