<svg width="24" height="24" viewBox="0 0 24 24" fill="none" xmlns="http://www.w3.org/2000/svg">
<path fill-rule="evenodd" clip-rule="evenodd" d="M20.2 15C18.6536 15 17.4001 16.2536 17.4001 17.8C17.4001 17.9273 17.4086 18.0529 17.4251 18.1761C17.4372 18.2661 17.4447 18.3224 17.4487 18.3635L17.4503 18.3816L17.4467 18.3856C17.4272 18.407 17.3992 18.4351 17.3489 18.4855L15.3047 20.5297L15.2902 20.5441L15.2902 20.5441C15.2364 20.5976 15.1685 20.6651 15.118 20.7476C15.0741 20.8192 15.0418 20.8972 15.0222 20.9789C14.9996 21.073 14.9998 21.1687 15 21.2446L15.0001 21.265L15.0001 21.9727C15.0001 22.0736 15.0001 22.172 15.0069 22.2552C15.0143 22.3467 15.032 22.4546 15.0873 22.5631C15.164 22.7136 15.2864 22.836 15.4369 22.9127C15.5454 22.968 15.6533 22.9857 15.7448 22.9931C15.828 22.9999 15.9264 22.9999 16.0273 22.9999L16.735 22.9999L16.7554 23H16.7554C16.8313 23.0002 16.927 23.0004 17.0211 22.9778C17.1028 22.9582 17.1808 22.9259 17.2524 22.882C17.3349 22.8315 17.4024 22.7636 17.4559 22.7098L17.4559 22.7098L17.4703 22.6953L19.5145 20.6511C19.5649 20.6008 19.593 20.5728 19.6144 20.5533L19.6184 20.5497L19.6365 20.5513C19.6776 20.5553 19.7339 20.5628 19.8239 20.5749C19.9471 20.5914 20.0727 20.5999 20.2 20.5999C21.7464 20.5999 23 19.3464 23 17.8C23 16.2536 21.7464 15 20.2 15ZM21.0007 17.7999C21.0007 18.2417 20.6426 18.5999 20.2007 18.5999C19.7589 18.5999 19.4007 18.2417 19.4007 17.7999C19.4007 17.3581 19.7589 16.9999 20.2007 16.9999C20.6426 16.9999 21.0007 17.3581 21.0007 17.7999Z" fill="white"/>
<path fill-rule="evenodd" clip-rule="evenodd" d="M4 16H5.17071C5.58254 17.1652 6.69378 18 8 18H15.1405L15.4938 17.6466C15.5508 15.0707 17.6568 13 20.2465 13C20.8658 13 21.4574 13.1184 22 13.3339V10C22 8.89543 21.1046 8 20 8H18.8293C18.4175 6.83481 17.3062 6 16 6H8C6.69378 6 5.58254 6.83481 5.17071 8H4C2.89543 8 2 8.89543 2 10V14C2 15.1046 2.89543 16 4 16Z" fill="white"/>
<path fill-rule="evenodd" clip-rule="evenodd" d="M20 11H19V13H20C20.5523 13 21 12.5523 21 12C21 11.4477 20.5523 11 20 11Z" fill="#FFB629"/>
<path fill-rule="evenodd" clip-rule="evenodd" d="M9 9C8.44772 9 8 9.44772 8 10C8 10.5523 8.44772 11 9 11H15C15.5523 11 16 10.5523 16 10C16 9.44772 15.5523 9 15 9H9ZM8 14C8 13.4477 8.44772 13 9 13H15C15.5523 13 16 13.4477 16 14C16 14.5523 15.5523 15 15 15H9C8.44772 15 8 14.5523 8 14Z" fill="#FF6100"/>
<path d="M3 12C3 11.4477 3.44772 11 4 11H5V13H4C3.44772 13 3 12.5523 3 12Z" fill="#0099FF"/>
</svg>
