<svg width="24" height="24" viewBox="0 0 24 24" fill="none" xmlns="http://www.w3.org/2000/svg">
<path fill-rule="evenodd" clip-rule="evenodd" d="M4 16H5.17071C5.58254 17.1652 6.69378 18 8 18H15.332C15.1241 17.5307 15 16.9932 15 16.387C15 14.6972 15.9278 13.4346 17.2148 12.7248C17.6086 11.7157 18.5906 11 19.7384 11C20.6831 11 21.5154 11.4847 22 12.2188V10C22 8.89543 21.1046 8 20 8H18.8293C18.4175 6.83481 17.3062 6 16 6H8C6.69378 6 5.58254 6.83481 5.17071 8H4C2.89543 8 2 8.89543 2 10V14C2 15.1046 2.89543 16 4 16Z" fill="white"/>
<path d="M4 11.9996C4 11.5026 4.40294 11.0996 4.9 11.0996H5V12.8996H4.9C4.40294 12.8996 4 12.4967 4 11.9996Z" fill="#0099FF"/>
<path fill-rule="evenodd" clip-rule="evenodd" d="M8 7H16C17.1046 7 18 7.89543 18 9V11.6323C18.2885 11.3904 18.628 11.2074 19 11.1021V9H20C20.5523 9 21 9.44772 21 10V11.3116C21.4048 11.5253 21.749 11.8386 22 12.2188V10C22 8.89543 21.1046 8 20 8H18.8293C18.4175 6.83481 17.3062 6 16 6H8C6.69378 6 5.58254 6.83481 5.17071 8H4C2.89543 8 2 8.89543 2 10V14C2 15.1046 2.89543 16 4 16H5.17071C5.58254 17.1652 6.69378 18 8 18H15.332C15.1971 17.6954 15.0975 17.3621 15.0441 17H8C6.89543 17 6 16.1046 6 15V9C6 7.89543 6.89543 7 8 7ZM4 9H5V15H4C3.44772 15 3 14.5523 3 14V10C3 9.44772 3.44772 9 4 9Z" fill="#C8CEED"/>
<path fill-rule="evenodd" clip-rule="evenodd" d="M7.5 10C7.5 9.44772 7.94772 9 8.5 9H15.5C16.0523 9 16.5 9.44772 16.5 10C16.5 10.5523 16.0523 11 15.5 11H8.5C7.94772 11 7.5 10.5523 7.5 10ZM7.5 14C7.5 13.4477 7.94772 13 8.5 13H15.5C15.8225 13 16.1094 13.1527 16.2923 13.3897C15.822 13.828 15.4514 14.3684 15.2298 15H8.5C7.94772 15 7.5 14.5523 7.5 14Z" fill="#FF6100"/>
<path d="M20.4874 17.0992C19.4742 16.7177 19.1309 16.4888 19.1309 16.1836C19.1309 15.8317 19.453 15.6367 20.038 15.6367C20.4068 15.6367 20.7502 15.6876 21.0893 15.7936C21.2886 15.8529 21.509 15.8317 21.6913 15.73C21.8735 15.6282 22.0092 15.4544 22.0601 15.251L22.0728 15.2086C22.1872 14.7719 21.9244 14.3268 21.4878 14.2124C21.1911 14.1318 20.8562 14.081 20.5001 14.0598V13.7079C20.5001 13.3179 20.1822 13 19.7922 13C19.4022 13 19.0842 13.3179 19.0842 13.7079V14.1573C17.8252 14.4413 17.0537 15.2849 17.0537 16.387C17.0537 17.7647 18.2491 18.3412 19.2877 18.6931C20.1398 18.9813 20.4704 19.2399 20.4704 19.6172C20.4704 20.003 20.0889 20.2361 19.4446 20.2361C19.0122 20.2361 18.5713 20.1556 18.1304 19.9987C17.9354 19.9267 17.7108 19.9436 17.5285 20.0411C17.342 20.1386 17.2063 20.3124 17.1554 20.5159L17.13 20.6092C17.0198 21.0373 17.2657 21.4824 17.6853 21.6138C18.0923 21.7452 18.5543 21.83 19.0037 21.8597V22.2921C19.0037 22.6821 19.3216 23 19.7116 23C20.1016 23 20.4195 22.6821 20.4195 22.2921V21.7622C21.7167 21.4994 22.5476 20.6007 22.5476 19.4476C22.5645 18.3158 21.9414 17.6121 20.4874 17.0992Z" fill="white"/>
</svg>
