<svg width="24" height="24" viewBox="0 0 24 24" fill="none" xmlns="http://www.w3.org/2000/svg">
<path d="M21.0135 14.2636C20.6621 13.9121 20.0923 13.9121 19.7409 14.2636L14.693 19.3115C14.5648 19.4396 14.4739 19.6002 14.43 19.7761L14.0138 21.4405C13.9315 21.7701 14.2299 22.0685 14.5595 21.9862L16.2239 21.57C16.3998 21.5261 16.5603 21.4352 16.6885 21.307L21.7364 16.2591C22.0879 15.9077 22.0879 15.3379 21.7364 14.9865L21.0135 14.2636Z" fill="#0A1551"/>
<path fill-rule="evenodd" clip-rule="evenodd" d="M3 20V4C3 2.34315 4.34315 1 6 1H14.7574C15.553 1 16.3161 1.31607 16.8787 1.87868L20.1213 5.12132C20.6839 5.68393 21 6.44699 21 7.24264V12.0669C20.0673 11.8634 19.0537 12.1242 18.3285 12.8493L17.7184 13.4595C17.4891 13.179 17.1405 13 16.75 13H7.25C6.55964 13 6 13.5596 6 14.25C6 14.9404 6.55964 15.5 7.25 15.5H15.6779L13.6779 17.5H7.25C6.55964 17.5 6 18.0596 6 18.75C6 19.4404 6.55964 20 7.25 20H12.3142L12.0754 20.9555C11.8854 21.7156 12.0675 22.4454 12.477 23H6C4.34315 23 3 21.6569 3 20ZM16 4.9V2.5L20 6.5H17.6C16.7163 6.5 16 5.78366 16 4.9ZM7.25 8.5C6.55964 8.5 6 9.05964 6 9.75C6 10.4404 6.55964 11 7.25 11H16.75C17.4404 11 18 10.4404 18 9.75C18 9.05964 17.4404 8.5 16.75 8.5H7.25Z" fill="#3E62C8"/>
</svg>
