<svg width="24" height="24" viewBox="0 0 24 24" fill="none" xmlns="http://www.w3.org/2000/svg">
<path fill-rule="evenodd" clip-rule="evenodd" d="M20.2 15C18.6536 15 17.4001 16.2536 17.4001 17.8C17.4001 17.9273 17.4086 18.0529 17.4251 18.1761C17.4372 18.2661 17.4447 18.3224 17.4487 18.3635L17.4503 18.3816L17.4467 18.3856C17.4272 18.407 17.3992 18.4351 17.3489 18.4855L15.3047 20.5297L15.2902 20.5441L15.2902 20.5441C15.2364 20.5976 15.1685 20.6651 15.118 20.7476C15.0741 20.8192 15.0418 20.8972 15.0222 20.9789C14.9996 21.073 14.9998 21.1687 15 21.2446L15.0001 21.265L15.0001 21.9727C15.0001 22.0736 15.0001 22.172 15.0069 22.2552C15.0143 22.3467 15.032 22.4546 15.0873 22.5631C15.164 22.7136 15.2864 22.836 15.4369 22.9127C15.5454 22.968 15.6533 22.9857 15.7448 22.9931C15.828 22.9999 15.9264 22.9999 16.0273 22.9999L16.735 22.9999L16.7554 23H16.7554C16.8313 23.0002 16.927 23.0004 17.0211 22.9778C17.1028 22.9582 17.1808 22.9259 17.2524 22.882C17.3349 22.8315 17.4024 22.7636 17.4559 22.7098L17.4559 22.7098L17.4703 22.6953L19.5145 20.6511C19.5649 20.6008 19.593 20.5728 19.6144 20.5533L19.6184 20.5497L19.6365 20.5513C19.6776 20.5553 19.7339 20.5628 19.8239 20.5749C19.9471 20.5914 20.0727 20.5999 20.2 20.5999C21.7464 20.5999 23 19.3464 23 17.8C23 16.2536 21.7464 15 20.2 15ZM21.0007 17.7999C21.0007 18.2417 20.6426 18.5999 20.2007 18.5999C19.7589 18.5999 19.4007 18.2417 19.4007 17.7999C19.4007 17.3581 19.7589 16.9999 20.2007 16.9999C20.6426 16.9999 21.0007 17.3581 21.0007 17.7999Z" fill="white"/>
<path fill-rule="evenodd" clip-rule="evenodd" d="M6 1H18C19.6569 1 21 2.34315 21 4V13.0594C20.7546 13.0203 20.5029 13 20.2465 13C17.6568 13 15.5508 15.0707 15.4938 17.6466L13.8574 19.2831L13.8459 19.2946L13.8368 19.3035C13.7798 19.3594 13.5684 19.567 13.3948 19.8502C13.248 20.0898 13.1399 20.3509 13.0743 20.624C12.9967 20.9471 12.9995 21.2433 13.0002 21.3232L13.0003 21.3359L13.0003 21.3522L13.0003 22.0868L13.0003 22.1053C13.0002 22.1949 13 22.3659 13.0135 22.5308C13.0228 22.6443 13.0415 22.8079 13.0902 23H6C4.34315 23 3 21.6569 3 20V4C3 2.34315 4.34315 1 6 1Z" fill="white"/>
<path fill-rule="evenodd" clip-rule="evenodd" d="M15.8266 16H7.5C6.67157 16 6 16.6716 6 17.5C6 18.3284 6.67157 19 7.5 19H14.1405L15.4938 17.6466C15.5067 17.0661 15.6236 16.5113 15.8266 16Z" fill="#FFB629"/>
<path fill-rule="evenodd" clip-rule="evenodd" d="M7.5 11C6.67157 11 6 11.6716 6 12.5C6 13.3284 6.67157 14 7.5 14H16.5C17.3284 14 18 13.3284 18 12.5C18 11.6716 17.3284 11 16.5 11H7.5Z" fill="#FF6100"/>
<path d="M6 7.5C6 6.67157 6.67157 6 7.5 6H16.5C17.3284 6 18 6.67157 18 7.5C18 8.32843 17.3284 9 16.5 9H7.5C6.67157 9 6 8.32843 6 7.5Z" fill="#0099FF"/>
</svg>
