<svg width="24" height="24" viewBox="0 0 24 24" fill="none" xmlns="http://www.w3.org/2000/svg">
<path fill-rule="evenodd" clip-rule="evenodd" d="M6 1H18C19.6569 1 21 2.34315 21 4V20C21 21.6569 19.6569 23 18 23H6C4.34315 23 3 21.6569 3 20V4C3 2.34315 4.34315 1 6 1ZM7.5 6C6.67157 6 6 6.67157 6 7.5C6 8.32843 6.67157 9 7.5 9H16.5C17.3284 9 18 8.32843 18 7.5C18 6.67157 17.3284 6 16.5 6H7.5ZM7.5 11C6.67157 11 6 11.6716 6 12.5C6 13.3284 6.67157 14 7.5 14H16.5C17.3284 14 18 13.3284 18 12.5C18 11.6716 17.3284 11 16.5 11H7.5ZM6 17.5C6 16.6716 6.67157 16 7.5 16H16.5C17.3284 16 18 16.6716 18 17.5C18 18.3284 17.3284 19 16.5 19H7.5C6.67157 19 6 18.3284 6 17.5Z" fill="#FF6100"/>
</svg>
