<svg width="24" height="24" viewBox="0 0 24 24" fill="none" xmlns="http://www.w3.org/2000/svg">
<path d="M2 19.2727V10.865C2 10.4988 2.41085 10.2829 2.7124 10.4907L10.4527 15.8229C11.3843 16.4647 12.6155 16.4647 13.5471 15.8229L21.2874 10.4907C21.5889 10.2829 21.9998 10.4988 21.9998 10.865V19.2727C21.9998 20.7789 20.7787 21.9999 19.2725 21.9999H4.72724C3.22103 21.9999 2 20.7789 2 19.2727Z" fill="#C8CEED"/>
<path fill-rule="evenodd" clip-rule="evenodd" d="M4 9.74124L10.4529 14.1866C11.3845 14.8284 12.6157 14.8284 13.5473 14.1866L20 9.74136V4.72715C20 3.22094 18.779 1.99991 17.2728 1.99991H6.72724C5.22103 1.99991 4 3.22094 4 4.72715V9.74124ZM7.00006 5.99988C7.00006 5.4476 7.44777 4.99988 8.00006 4.99988H15.9999C16.5522 4.99988 16.9999 5.4476 16.9999 5.99988C16.9999 6.55217 16.5522 6.99988 15.9999 6.99988H8.00006C7.44777 6.99988 7.00006 6.55217 7.00006 5.99988ZM7.00006 9.50879C7.00006 8.95651 7.44777 8.50879 8.00006 8.50879H13.2727C13.825 8.50879 14.2727 8.95651 14.2727 9.50879C14.2727 10.0611 13.825 10.5088 13.2727 10.5088H8.00006C7.44777 10.5088 7.00006 10.0611 7.00006 9.50879ZM15.9268 8.50879C15.3745 8.50879 14.9268 8.95651 14.9268 9.50879C14.9268 10.0611 15.3745 10.5088 15.9268 10.5088H15.9995C16.5518 10.5088 16.9995 10.0611 16.9995 9.50879C16.9995 8.95651 16.5518 8.50879 15.9995 8.50879H15.9268Z" fill="#249BB4"/>
</svg>
