<svg width="24" height="24" viewBox="0 0 24 24" fill="none" xmlns="http://www.w3.org/2000/svg">
<path fill-rule="evenodd" clip-rule="evenodd" d="M3 20V4C3 2.34315 4.34315 1 6 1H14.7574C15.553 1 16.3161 1.31607 16.8787 1.87868L20.1213 5.12132C20.6839 5.68393 21 6.44699 21 7.24264V15C21 13.3431 19.6569 12 18 12C17.1115 12 16.3132 12.3863 15.7639 13H7.25C6.55964 13 6 13.5596 6 14.25C6 14.9404 6.55964 15.5 7.25 15.5H13.3411C12.6647 15.9497 12.1813 16.6666 12.0415 17.5H7.25C6.55964 17.5 6 18.0596 6 18.75C6 19.4404 6.55964 20 7.25 20H12.7639C13.3132 20.6137 14.1115 21 15 21C15 21.7684 15.2889 22.4692 15.7639 23H6C4.34315 23 3 21.6569 3 20ZM16 4.9V2.5L20 6.5H17.6C16.7163 6.5 16 5.78366 16 4.9ZM7.25 8.5C6.55964 8.5 6 9.05964 6 9.75C6 10.4404 6.55964 11 7.25 11H16.75C17.4404 11 18 10.4404 18 9.75C18 9.05964 17.4404 8.5 16.75 8.5H7.25Z" fill="currentColor"/>
<path fill-rule="evenodd" clip-rule="evenodd" d="M19 15C19 14.4477 18.5523 14 18 14C17.4477 14 17 14.4477 17 15V17H15C14.4477 17 14 17.4477 14 18C14 18.5523 14.4477 19 15 19H17V21C17 21.5523 17.4477 22 18 22C18.5523 22 19 21.5523 19 21V19H21C21.5523 19 22 18.5523 22 18C22 17.4477 21.5523 17 21 17H19V15Z" fill="currentColor"/>
</svg>
