<svg width="24" height="24" viewBox="0 0 24 24" fill="none" xmlns="http://www.w3.org/2000/svg">
<path fill-rule="evenodd" clip-rule="evenodd" d="M3 8C2.44772 8 2 8.44772 2 9V19C2 20.6569 3.34315 22 5 22H19C20.6569 22 22 20.6569 22 19V9C22 8.44772 21.5523 8 21 8H3ZM4 11C4 10.4477 4.44772 10 5 10H7C7.55228 10 8 10.4477 8 11V13C8 13.5523 7.55228 14 7 14H5C4.44772 14 4 13.5523 4 13V11ZM4 17C4 16.4477 4.44772 16 5 16H7C7.55228 16 8 16.4477 8 17V19C8 19.5523 7.55228 20 7 20H5C4.44772 20 4 19.5523 4 19V17ZM16 11C16 10.4477 16.4477 10 17 10H19C19.5523 10 20 10.4477 20 11V13C20 13.5523 19.5523 14 19 14H17C16.4477 14 16 13.5523 16 13V11ZM16 17C16 16.4477 16.4477 16 17 16H19C19.5523 16 20 16.4477 20 17V19C20 19.5523 19.5523 20 19 20H17C16.4477 20 16 19.5523 16 19V17ZM11 10C10.4477 10 10 10.4477 10 11V13C10 13.5523 10.4477 14 11 14H13C13.5523 14 14 13.5523 14 13V11C14 10.4477 13.5523 10 13 10H11ZM11 16C10.4477 16 10 16.4477 10 17V19C10 19.5523 10.4477 20 11 20H13C13.5523 20 14 19.5523 14 19V17C14 16.4477 13.5523 16 13 16H11Z" fill="currentColor"/>
<path d="M2 2C2 1.44772 2.44772 1 3 1H10C10.5523 1 11 1.44772 11 2V5.5C11 5.77614 10.7761 6 10.5 6H2.5C2.22386 6 2 5.77614 2 5.5V2Z" fill="currentColor"/>
<path d="M13 4C13 3.44772 13.4477 3 14 3H21C21.5523 3 22 3.44772 22 4V5.5C22 5.77614 21.7761 6 21.5 6H13.5C13.2239 6 13 5.77614 13 5.5V4Z" fill="currentColor"/>
</svg>
