<svg width="24" height="24" viewBox="0 0 24 24" fill="none" xmlns="http://www.w3.org/2000/svg">
<path d="M21.5353 11.1536L7.2341 2.15531C6.45491 1.66504 5.48322 2.39907 5.74181 3.2826L7.57962 9.56184C7.82911 10.4143 8.6109 11.0001 9.49909 11.0001H11.0006C11.5528 11.0001 12.0006 11.4478 12.0006 12.0001C12.0006 12.5523 11.5528 13.0001 11.0006 13.0001H9.49909C8.61089 13.0001 7.82911 13.5858 7.57961 14.4382L5.74182 20.7173C5.48322 21.6009 6.45491 22.3349 7.2341 21.8446L21.5353 12.8464C22.1586 12.4543 22.1586 11.5458 21.5353 11.1536Z" fill="white"/>
<path d="M2 6.14C2 5.5104 2.5104 5 3.14 5H3.86C4.4896 5 5 5.5104 5 6.14C5 6.7696 4.4896 7.28 3.86 7.28H3.14C2.5104 7.28 2 6.7696 2 6.14Z" fill="#0099FF"/>
<path d="M3 12.0001C3 11.3705 3.5104 10.8601 4.14 10.8601H5.86C6.4896 10.8601 7 11.3705 7 12.0001C7 12.6297 6.4896 13.1401 5.86 13.1401H4.14C3.5104 13.1401 3 12.6297 3 12.0001Z" fill="#FF6100"/>
<path d="M2 17.86C2 17.2304 2.5104 16.72 3.14 16.72H3.86C4.4896 16.72 5 17.2304 5 17.86C5 18.4896 4.4896 19 3.86 19H3.14C2.5104 19 2 18.4896 2 17.86Z" fill="#FFB629"/>
</svg>
