<svg width="24" height="24" viewBox="0 0 24 24" fill="none" xmlns="http://www.w3.org/2000/svg">
<path fill-rule="evenodd" clip-rule="evenodd" d="M18 1H6C4.34315 1 3 2.34315 3 4V20C3 21.6569 4.34315 23 6 23H15.7639C15.2889 22.4692 15 21.7684 15 21C13.3431 21 12 19.6569 12 18H10.5V10C10.5 9.44772 10.9477 9 11.5 9H12.5C13.0523 9 13.5 9.44772 13.5 10V15.4013C13.9413 15.1461 14.4536 15 15 15C15 14.3866 15.1841 13.8163 15.5 13.3411V8C15.5 7.44771 15.9477 7 16.5 7H17.5C18.0523 7 18.5 7.44772 18.5 8V12.0415C19.9189 12.2795 21 13.5135 21 15V4C21 2.34315 19.6569 1 18 1ZM6.5 6C5.94772 6 5.5 6.44771 5.5 7V18H8.5V7C8.5 6.44772 8.05228 6 7.5 6H6.5Z" fill="currentColor"/>
<path fill-rule="evenodd" clip-rule="evenodd" d="M19 15C19 14.4477 18.5523 14 18 14C17.4477 14 17 14.4477 17 15V17H15C14.4477 17 14 17.4477 14 18C14 18.5523 14.4477 19 15 19H17V21C17 21.5523 17.4477 22 18 22C18.5523 22 19 21.5523 19 21V19H21C21.5523 19 22 18.5523 22 18C22 17.4477 21.5523 17 21 17H19V15Z" fill="currentColor"/>
</svg>
