<svg width="24" height="24" viewBox="0 0 24 24" fill="none" xmlns="http://www.w3.org/2000/svg">
<path d="M2 19.2727V10.865C2 10.4988 2.41085 10.2829 2.7124 10.4907L10.4527 15.8229C11.3843 16.4647 12.6155 16.4647 13.5471 15.8229L21.2874 10.4907C21.5889 10.2829 21.9998 10.4988 21.9998 10.865V19.2727C21.9998 20.7789 20.7787 21.9999 19.2725 21.9999H4.72724C3.22103 21.9999 2 20.7789 2 19.2727Z" fill="#C8CEED"/>
<path fill-rule="evenodd" clip-rule="evenodd" d="M4 10.1279L10.4527 14.5731C11.3843 15.2149 12.6155 15.2149 13.5471 14.5731L20 10.1277V4.72735C20 3.22113 18.779 2.0001 17.2728 2.0001H6.72724C5.22103 2.0001 4 3.22113 4 4.72735V10.1279Z" fill="white"/>
<path d="M4 8.89035V4.99987C4 3.8953 4.89543 2.99987 6 2.99987H18C19.1046 2.99987 20 3.8953 20 4.99987V8.89035V10.1101L20.574 9.7077C20.841 9.52052 21 9.21493 21 8.88885V4.99987C21 3.34301 19.6569 1.99987 18 1.99987H6C4.34315 1.99987 3 3.34301 3 4.99987V8.88886C3 9.21493 3.15897 9.52052 3.42597 9.7077L4 10.1101V8.89035Z" fill="#C8CEED"/>
<path d="M7 6C7 5.44772 7.44772 5 8 5H15.9999C16.5522 5 16.9999 5.44772 16.9999 6C16.9999 6.55228 16.5522 7 15.9999 7H8C7.44772 7 7 6.55228 7 6Z" fill="#0099FF"/>
<path d="M7 10C7 9.44772 7.44772 9 8 9H13.2726C13.8249 9 14.2726 9.44772 14.2726 10C14.2726 10.5523 13.8249 11 13.2726 11H8C7.44772 11 7 10.5523 7 10Z" fill="#FF6100"/>
<path d="M14.9268 9.50879C14.9268 8.9565 15.3745 8.50879 15.9268 8.50879H15.9995C16.5517 8.50879 16.9995 8.9565 16.9995 9.50879C16.9995 10.0611 16.5517 10.5088 15.9995 10.5088H15.9268C15.3745 10.5088 14.9268 10.0611 14.9268 9.50879Z" fill="#FFB629"/>
</svg>
