<svg width="24" height="24" viewBox="0 0 24 24" fill="none" xmlns="http://www.w3.org/2000/svg">
<path d="M2 2C2 1.44772 2.44772 1 3 1H10C10.5523 1 11 1.44772 11 2V5.5C11 5.77614 10.7761 6 10.5 6H2.5C2.22386 6 2 5.77614 2 5.5V2Z" fill="currentColor"/>
<path d="M13 4C13 3.44772 13.4477 3 14 3H21C21.5523 3 22 3.44772 22 4V5.5C22 5.77614 21.7761 6 21.5 6H13.5C13.2239 6 13 5.77614 13 5.5V4Z" fill="currentColor"/>
<path fill-rule="evenodd" clip-rule="evenodd" d="M2 9C2 8.44772 2.44772 8 3 8H21C21.5523 8 22 8.44772 22 9V15.2901L20.664 12.6534C20.4871 12.3043 20.2605 12.0105 20 11.772V11C20 10.4477 19.5523 10 19 10H17C16.4477 10 16 10.4477 16 11V11.7669C15.7368 12.0066 15.5081 12.3025 15.3299 12.6545L13.5524 16.1663C13.3941 16.0612 13.2042 16 13 16H11C10.4477 16 10 16.4477 10 17V19C10 19.5523 10.4477 20 11 20H11.6119L11.3337 20.5497C11.1016 21.0081 10.9979 21.5072 11.0086 22H5C3.34315 22 2 20.6569 2 19V9ZM5 10C4.44772 10 4 10.4477 4 11V13C4 13.5523 4.44772 14 5 14H7C7.55228 14 8 13.5523 8 13V11C8 10.4477 7.55228 10 7 10H5ZM5 16C4.44772 16 4 16.4477 4 17V19C4 19.5523 4.44772 20 5 20H7C7.55228 20 8 19.5523 8 19V17C8 16.4477 7.55228 16 7 16H5ZM10 11C10 10.4477 10.4477 10 11 10H13C13.5523 10 14 10.4477 14 11V13C14 13.5523 13.5523 14 13 14H11C10.4477 14 10 13.5523 10 13V11Z" fill="currentColor"/>
<path fill-rule="evenodd" clip-rule="evenodd" d="M18.8806 13.5573C18.504 12.814 17.4913 12.8143 17.115 13.5577L13.1188 21.4529C12.7639 22.1539 13.2468 23 14.0017 23H21.9983C22.7534 23 23.2362 22.1535 22.881 21.4525L18.8806 13.5573ZM18.0005 20.4733C17.6137 20.4733 17.3002 20.8031 17.3002 21.21C17.3002 21.6169 17.6137 21.9467 18.0005 21.9467C18.3872 21.9467 18.7007 21.6169 18.7007 21.21C18.7007 20.8031 18.3872 20.4733 18.0005 20.4733ZM17.3002 18.7894C17.3002 19.1963 17.6137 19.5261 18.0004 19.5261C18.3871 19.5261 18.7006 19.1963 18.7006 18.7894V16.1584C18.7006 15.7515 18.3871 15.4217 18.0004 15.4217C17.6137 15.4217 17.3002 15.7515 17.3002 16.1584V18.7894Z" fill="currentColor"/>
</svg>
