<svg width="24" height="24" viewBox="0 0 24 24" fill="none" xmlns="http://www.w3.org/2000/svg">
<path d="M18 1H6C4.34315 1 3 2.34315 3 4V20C3 21.6569 4.34315 23 6 23H18C19.6569 23 21 21.6569 21 20V4C21 2.34315 19.6569 1 18 1Z" fill="white"/>
<path fill-rule="evenodd" clip-rule="evenodd" d="M5 20C5 19.4477 5.44772 19 6 19H18C18.5523 19 19 19.4477 19 20C19 20.5523 18.5523 21 18 21H6C5.44772 21 5 20.5523 5 20Z" fill="#FFB629"/>
<path d="M5 14C5 13.4477 5.44772 13 6 13H8C8.55228 13 9 13.4477 9 14V16C9 16.5523 8.55228 17 8 17H6C5.44772 17 5 16.5523 5 16V14Z" fill="#FF6100"/>
<path d="M11 14C11 13.4477 11.4477 13 12 13H18C18.5523 13 19 13.4477 19 14V16C19 16.5523 18.5523 17 18 17H12C11.4477 17 11 16.5523 11 16V14Z" fill="#FF6100"/>
<path fill-rule="evenodd" clip-rule="evenodd" d="M6 3C5.44772 3 5 3.44772 5 4V10C5 10.5523 5.44772 11 6 11H18C18.5523 11 19 10.5523 19 10V4C19 3.44772 18.5523 3 18 3H6ZM16 6C16 6.55228 15.5523 7 15 7C14.4477 7 14 6.55228 14 6C14 5.44772 14.4477 5 15 5C15.5523 5 16 5.44772 16 6ZM8.0811 8.22838L10.0303 5.21755C10.1564 5.02279 10.4367 5.00976 10.5803 5.19199L12.0351 7.03802L12.6394 6.35973C12.774 6.20863 13.0102 6.20863 13.1448 6.35973L14.9946 8.43619C15.189 8.65439 15.0341 8.99979 14.7419 8.99979H12.5694C12.5632 9 12.5571 9.00011 12.5508 9.00011H8.50082C8.10452 9.00011 7.86573 8.56106 8.0811 8.22838Z" fill="#0099FF"/>
</svg>
