<svg width="24" height="24" viewBox="0 0 24 24" fill="none" xmlns="http://www.w3.org/2000/svg">
<path fill-rule="evenodd" clip-rule="evenodd" d="M5 2C3.34315 2 2 3.34315 2 5V19C2 20.6569 3.34315 22 5 22H11.5105C11.209 21.367 11.041 20.6862 11.0066 20H10.5C10.2239 20 10 19.7761 10 19.5V16.5C10 16.2239 10.2239 16 10.5 16H12.5542L13.2362 15.3181L15.3183 13.2362L16 12.5545V10.5C16 10.2239 16.2239 10 16.5 10H19.5C19.7761 10 20 10.2239 20 10.5V11.0066C20.6862 11.0409 21.367 11.2089 22 11.5104V5C22 3.34315 20.6569 2 19 2H5ZM4 5.5C4 5.22386 4.22386 5 4.5 5H7.5C7.77614 5 8 5.22386 8 5.5V7.5C8 7.77614 7.77614 8 7.5 8H4.5C4.22386 8 4 7.77614 4 7.5V5.5ZM4 10.5C4 10.2239 4.22386 10 4.5 10H7.5C7.77614 10 8 10.2239 8 10.5V13.5C8 13.7761 7.77614 14 7.5 14H4.5C4.22386 14 4 13.7761 4 13.5V10.5ZM4.5 16C4.22386 16 4 16.2239 4 16.5V19.5C4 19.7761 4.22386 20 4.5 20H7.5C7.77614 20 8 19.7761 8 19.5V16.5C8 16.2239 7.77614 16 7.5 16H4.5ZM10.5 5C10.2239 5 10 5.22386 10 5.5V7.5C10 7.77614 10.2239 8 10.5 8H13.5C13.7761 8 14 7.77614 14 7.5V5.5C14 5.22386 13.7761 5 13.5 5H10.5ZM10.5 10C10.2239 10 10 10.2239 10 10.5V13.5C10 13.7761 10.2239 14 10.5 14H13.5C13.7761 14 14 13.7761 14 13.5V10.5C14 10.2239 13.7761 10 13.5 10H10.5ZM16.5 5C16.2239 5 16 5.22386 16 5.5V7.5C16 7.77614 16.2239 8 16.5 8H19.5C19.7761 8 20 7.77614 20 7.5V5.5C20 5.22386 19.7761 5 19.5 5H16.5ZM21.0046 14.9957C21.6896 15.6807 21.6896 16.7912 21.0046 17.4762L20.299 18.1819C20.0096 18.4713 20.0096 18.9404 20.299 19.2298C20.5883 19.5192 21.0575 19.5192 21.3468 19.2298L22.0525 18.5241C23.3162 17.2604 23.3162 15.2115 22.0525 13.9478C20.7888 12.6841 18.7399 12.6841 17.4762 13.9478L16.7705 14.6535C16.4811 14.9428 16.4811 15.412 16.7705 15.7014C17.0599 15.9907 17.529 15.9907 17.8184 15.7014L18.5241 14.9957C19.2091 14.3107 20.3197 14.3107 21.0046 14.9957ZM16.1531 19.8469C15.8637 19.5576 15.8637 19.0884 16.1531 18.799L18.7994 16.1527C19.0888 15.8633 19.558 15.8633 19.8473 16.1527C20.1367 16.4421 20.1367 16.9112 19.8473 17.2006L17.201 19.8469C16.9116 20.1363 16.4425 20.1363 16.1531 19.8469ZM14.9957 18.5238C14.3107 19.2088 14.3107 20.3193 14.9957 21.0043C15.6807 21.6893 16.7912 21.6893 17.4762 21.0043L18.1819 20.2986C18.4713 20.0093 18.9404 20.0093 19.2298 20.2986C19.5192 20.588 19.5192 21.0572 19.2298 21.3465L18.5241 22.0522C17.2604 23.3159 15.2115 23.3159 13.9478 22.0522C12.6841 20.7885 12.6841 18.7396 13.9478 17.4759L14.6535 16.7702C14.9428 16.4808 15.412 16.4808 15.7014 16.7702C15.9907 17.0596 15.9907 17.5287 15.7014 17.8181L14.9957 18.5238Z" fill="currentColor"/>
</svg>
