<svg width="24" height="24" viewBox="0 0 24 24" fill="none" xmlns="http://www.w3.org/2000/svg">
<path fill-rule="evenodd" clip-rule="evenodd" d="M3 4V20C3 21.6569 4.34315 23 6 23H18C19.6569 23 21 21.6569 21 20V7.24264C21 6.44699 20.6839 5.68393 20.1213 5.12132L16.8787 1.87868C16.3161 1.31607 15.553 1 14.7574 1H6C4.34315 1 3 2.34315 3 4ZM16 2.5V4.9C16 5.78366 16.7163 6.5 17.6 6.5H20L16 2.5ZM6 9.75C6 9.05964 6.55964 8.5 7.25 8.5H16.75C17.4404 8.5 18 9.05964 18 9.75C18 10.4404 17.4404 11 16.75 11H7.25C6.55964 11 6 10.4404 6 9.75ZM6 14.25C6 13.5596 6.55964 13 7.25 13H16.75C17.4404 13 18 13.5596 18 14.25C18 14.9404 17.4404 15.5 16.75 15.5H7.25C6.55964 15.5 6 14.9404 6 14.25ZM6 18.75C6 18.0596 6.55964 17.5 7.25 17.5H16.75C17.4404 17.5 18 18.0596 18 18.75C18 19.4404 17.4404 20 16.75 20H7.25C6.55964 20 6 19.4404 6 18.75Z" fill="#3E62C8"/>
</svg>
