<svg width="24" height="24" viewBox="0 0 24 24" fill="none" xmlns="http://www.w3.org/2000/svg">
<path d="M18.5 16.5H6.5L5.16667 4.5H20.2192C20.8698 4.5 21.3472 5.11139 21.1894 5.74253L18.5 16.5Z" fill="white"/>
<path fill-rule="evenodd" clip-rule="evenodd" d="M2 2.5C2 2.22386 2.22386 2 2.5 2H4.10778C4.8703 2 5.51149 2.57208 5.59808 3.32968L5.67468 4H20.2702C21.2217 4 21.9327 4.87446 21.7387 5.80593L19.6553 15.8059C19.5104 16.5015 18.8974 17 18.1869 17H7.1604L7.27686 18.019C8.08408 18.1308 8.73735 18.7243 8.93699 19.5H16.063C16.285 18.6374 17.0681 18 18 18C19.1046 18 20 18.8954 20 20C20 21.1046 19.1046 22 18 22C17.0681 22 16.285 21.3626 16.063 20.5H8.93699C8.71497 21.3626 7.93192 22 7 22C5.89543 22 5 21.1046 5 20C5 19.148 5.53275 18.4204 6.28329 18.1323L4.60454 3.44323C4.57568 3.19069 4.36195 3 4.10778 3H2.5C2.22386 3 2 2.77614 2 2.5ZM7.04611 16H18.1869C18.4237 16 18.628 15.8338 18.6764 15.602L20.7597 5.60198C20.8244 5.29149 20.5874 5 20.2702 5H5.78897L7.04611 16ZM18 21C17.4477 21 17 20.5523 17 20C17 19.4477 17.4477 19 18 19C18.5523 19 19 19.4477 19 20C19 20.5523 18.5523 21 18 21ZM7 19C7.55228 19 8 19.4477 8 20C8 20.5523 7.55228 21 7 21C6.44772 21 6 20.5523 6 20C6 19.4477 6.44772 19 7 19Z" fill="#C8CEED"/>
<path d="M8.5 6.6C8.5 6.26863 8.76863 6 9.1 6H11.8C12.1314 6 12.4 6.26863 12.4 6.6V9.3C12.4 9.63137 12.1314 9.9 11.8 9.9H9.1C8.76863 9.9 8.5 9.63137 8.5 9.3V6.6Z" fill="#0099FF"/>
<path d="M13.6006 6.6C13.6006 6.26863 13.8692 6 14.2006 6H16.9006C17.232 6 17.5006 6.26863 17.5006 6.6V9.3C17.5006 9.63137 17.232 9.9 16.9006 9.9H14.2006C13.8692 9.9 13.6006 9.63137 13.6006 9.3V6.6Z" fill="#FF6100"/>
<path d="M8.5 11.6996C8.5 11.3682 8.76863 11.0996 9.1 11.0996H11.8C12.1314 11.0996 12.4 11.3682 12.4 11.6996V14.3996C12.4 14.731 12.1314 14.9996 11.8 14.9996H9.1C8.76863 14.9996 8.5 14.731 8.5 14.3996V11.6996Z" fill="#FFB629"/>
<path fill-rule="evenodd" clip-rule="evenodd" d="M15.9991 11.5196C15.9991 11.2876 15.8111 11.0996 15.5791 11.0996C15.3472 11.0996 15.1591 11.2876 15.1591 11.5196V12.6297H14.0196C13.7876 12.6297 13.5996 12.8178 13.5996 13.0497C13.5996 13.2817 13.7876 13.4697 14.0196 13.4697H15.1591V14.5796C15.1591 14.8116 15.3472 14.9996 15.5791 14.9996C15.8111 14.9996 15.9991 14.8116 15.9991 14.5796V13.4697H17.0796C17.3116 13.4697 17.4996 13.2817 17.4996 13.0497C17.4996 12.8178 17.3116 12.6297 17.0796 12.6297H15.9991V11.5196Z" fill="#C8CEED"/>
</svg>
