<svg width="24" height="24" viewBox="0 0 24 24" fill="none" xmlns="http://www.w3.org/2000/svg">
<path fill-rule="evenodd" clip-rule="evenodd" d="M7.42774 3.2638C7.25191 2.91207 6.75005 2.91207 6.57421 3.2638L3.05197 10.3094C2.89334 10.6267 3.12404 11 3.47873 11H10.5232C10.8779 11 11.1086 10.6267 10.95 10.3094L7.42774 3.2638ZM17.001 21C19.2101 21 21.001 19.2091 21.001 17C21.001 14.7908 19.21 13 17.001 13C14.7918 13 13.001 14.7908 13.001 17C13.001 19.2092 14.7917 21 17.001 21ZM13 4.00024C13 3.44796 13.4477 3.00024 14 3.00024H20C20.5523 3.00024 21 3.44796 21 4.00024V10.0002C21 10.5525 20.5523 11.0002 20 11.0002H14C13.4477 11.0002 13 10.5525 13 10.0002V4.00024ZM4 13.0002C3.44772 13.0002 3 13.448 3 14.0002V20.0002C3 20.5525 3.44772 21.0002 4 21.0002H10C10.5523 21.0002 11 20.5525 11 20.0002V14.0002C11 13.448 10.5523 13.0002 10 13.0002H4Z" fill="currentColor"/>
</svg>
