<svg width="24" height="24" viewBox="0 0 24 24" fill="none" xmlns="http://www.w3.org/2000/svg">
<path d="M2 5C2 3.34315 3.34315 2 5 2H19C20.6569 2 22 3.34315 22 5V19C22 20.6569 20.6569 22 19 22H5C3.34315 22 2 20.6569 2 19V5Z" fill="white"/>
<path fill-rule="evenodd" clip-rule="evenodd" d="M19 3H5C3.89543 3 3 3.89543 3 5V19C3 20.1046 3.89543 21 5 21H19C20.1046 21 21 20.1046 21 19V5C21 3.89543 20.1046 3 19 3ZM5 2C3.34315 2 2 3.34315 2 5V19C2 20.6569 3.34315 22 5 22H19C20.6569 22 22 20.6569 22 19V5C22 3.34315 20.6569 2 19 2H5Z" fill="#C8CEED"/>
<path fill-rule="evenodd" clip-rule="evenodd" d="M16.5015 7.90283H19.1304V8.87506H16.5767C16.0368 8.96904 15.7147 9.3158 15.493 9.92961C15.2551 10.5862 15.1735 11.4443 15.0853 12.3861L15.0827 12.4159C14.9991 13.3104 14.9077 14.2871 14.618 15.0584C14.4676 15.4571 14.2537 15.8323 13.9336 16.1227C13.6062 16.4189 13.1947 16.6023 12.6962 16.6503C11.8744 16.7307 11.2496 16.4999 10.7518 16.0922C10.2812 15.7059 9.9403 15.1719 9.64279 14.6961L9.6214 14.6624C9.00501 13.6766 8.5163 12.8949 7.43583 12.764H4.87109V11.7917H7.49028L7.5175 11.795C9.09251 11.9693 9.81974 13.1393 10.3862 14.0506C10.4134 14.0946 10.44 14.1381 10.4672 14.1802C10.7751 14.6728 11.0396 15.0701 11.3682 15.3404C11.6709 15.588 12.041 15.7377 12.6016 15.6826C12.9062 15.6534 13.1182 15.5497 13.2809 15.402C13.4507 15.2483 13.592 15.0234 13.708 14.7156C13.9459 14.0836 14.0295 13.2391 14.117 12.2967L14.1222 12.2422C14.2051 11.3542 14.2959 10.3807 14.5785 9.5984C14.8786 8.77071 15.4677 8.05968 16.5015 7.90283Z" fill="#C8CEED"/>
<path d="M8 12.0002C8 13.1048 7.10457 14.0002 6 14.0002C4.89543 14.0002 4 13.1048 4 12.0002C4 10.8957 4.89543 10.0002 6 10.0002C7.10457 10.0002 8 10.8957 8 12.0002Z" fill="#0099FF"/>
<path d="M15 16.0002C15 17.1048 14.1046 18.0002 13 18.0002C11.8954 18.0002 11 17.1048 11 16.0002C11 14.8957 11.8954 14.0002 13 14.0002C14.1046 14.0002 15 14.8957 15 16.0002Z" fill="#FF6100"/>
<path d="M20 8.00024C20 9.10481 19.1046 10.0002 18 10.0002C16.8954 10.0002 16 9.10481 16 8.00024C16 6.89567 16.8954 6.00024 18 6.00024C19.1046 6.00024 20 6.89567 20 8.00024Z" fill="#FFB629"/>
</svg>
