<svg width="24" height="24" viewBox="0 0 24 24" fill="none" xmlns="http://www.w3.org/2000/svg">
<path fill-rule="evenodd" clip-rule="evenodd" d="M19 15C19 14.4477 18.5523 14 18 14C17.4477 14 17 14.4477 17 15V17H15C14.4477 17 14 17.4477 14 18C14 18.5523 14.4477 19 15 19H17V21C17 21.5523 17.4477 22 18 22C18.5523 22 19 21.5523 19 21V19H21C21.5523 19 22 18.5523 22 18C22 17.4477 21.5523 17 21 17H19V15Z" fill="currentColor"/>
<path fill-rule="evenodd" clip-rule="evenodd" d="M18 1H6C4.34315 1 3 2.34315 3 4V20C3 21.6569 4.34315 23 6 23H15.7639C15.2889 22.4692 15 21.7684 15 21C14.1115 21 13.3132 20.6137 12.7639 20H10.5C9.67157 20 9 19.3284 9 18.5C9 17.6716 9.67157 17 10.5 17H11.5V15L8.8 15C8.08203 15 7.5 14.418 7.5 13.7V13.25H6.5C5.67157 13.25 5 12.5784 5 11.75C5 10.9216 5.67157 10.25 6.5 10.25H7.5V9.8C7.5 9.08203 8.08203 8.5 8.8 8.5H11.5V7H10.5C9.67157 7 9 6.32843 9 5.5C9 4.67157 9.67157 4 10.5 4H13.5C14.3284 4 15 4.67157 15 5.5C15 6.32843 14.3284 7 13.5 7H12.5V8.5H15.2C15.918 8.5 16.5 9.08203 16.5 9.8V10.25H17.5C18.3284 10.25 19 10.9216 19 11.75C19 11.8893 18.981 12.0241 18.9455 12.152C20.1391 12.5481 21 13.6735 21 15V4C21 2.34315 19.6569 1 18 1ZM15.5 13.3411C15.3647 13.5446 15.2535 13.7656 15.1707 14L8.8 14C8.63431 14 8.5 13.8657 8.5 13.7V13.25H9.5C10.3284 13.25 11 12.5784 11 11.75C11 10.9216 10.3284 10.25 9.5 10.25H8.5V9.8C8.5 9.63431 8.63431 9.5 8.8 9.5H15.2C15.3657 9.5 15.5 9.63432 15.5 9.8V10.25H14.5C13.6716 10.25 13 10.9216 13 11.75C13 12.5784 13.6716 13.25 14.5 13.25H15.5V13.3411ZM15 15H12.5V16.3411C13.0375 15.5328 13.9565 15 15 15Z" fill="currentColor"/>
</svg>
