<svg width="24" height="24" viewBox="0 0 24 24" fill="none" xmlns="http://www.w3.org/2000/svg">
<path d="M21.5349 11.1536L7.23361 2.15531C6.45442 1.66504 5.48273 2.39907 5.74132 3.2826L7.57913 9.56184C7.82862 10.4143 8.61041 11.0001 9.49861 11.0001H11.0001C11.5523 11.0001 12.0001 11.4478 12.0001 12.0001C12.0001 12.5523 11.5523 13.0001 11.0001 13.0001H9.4986C8.6104 13.0001 7.82862 13.5858 7.57913 14.4382L5.74133 20.7173C5.48273 21.6009 6.45442 22.3349 7.23361 21.8446L21.5349 12.8464C22.1581 12.4543 22.1581 11.5458 21.5349 11.1536Z" fill="#C8CEED"/>
<path fill-rule="evenodd" clip-rule="evenodd" d="M2 6.14C2 5.5104 2.5104 5 3.14 5H3.86C4.4896 5 5 5.5104 5 6.14C5 6.7696 4.4896 7.28 3.86 7.28H3.14C2.5104 7.28 2 6.7696 2 6.14ZM3 12.0001C3 11.3705 3.5104 10.8601 4.14 10.8601H5.86C6.4896 10.8601 7 11.3705 7 12.0001C7 12.6297 6.4896 13.1401 5.86 13.1401H4.14C3.5104 13.1401 3 12.6297 3 12.0001ZM3.14 16.72C2.5104 16.72 2 17.2304 2 17.86C2 18.4896 2.5104 19 3.14 19H3.86C4.4896 19 5 18.4896 5 17.86C5 17.2304 4.4896 16.72 3.86 16.72H3.14Z" fill="#249BB4"/>
</svg>
