<svg width="24" height="24" viewBox="0 0 24 24" fill="none" xmlns="http://www.w3.org/2000/svg">
<path d="M3 20V4C3 2.34315 4.34315 1 6 1H15.7929C15.9255 1 16.0527 1.05268 16.1464 1.14645L20.8536 5.85355C20.9473 5.94732 21 6.0745 21 6.20711V20C21 21.6569 19.6569 23 18 23H6C4.34315 23 3 21.6569 3 20Z" fill="white"/>
<path d="M6 18.75C6 18.0596 6.55964 17.5 7.25 17.5H16.75C17.4404 17.5 18 18.0596 18 18.75C18 19.4404 17.4404 20 16.75 20H7.25C6.55964 20 6 19.4404 6 18.75Z" fill="#FFB629"/>
<path d="M6 14.25C6 13.5596 6.55964 13 7.25 13H16.75C17.4404 13 18 13.5596 18 14.25C18 14.9404 17.4404 15.5 16.75 15.5H7.25C6.55964 15.5 6 14.9404 6 14.25Z" fill="#FF6100"/>
<path d="M6 9.75C6 9.05964 6.55964 8.5 7.25 8.5H16.75C17.4404 8.5 18 9.05964 18 9.75C18 10.4404 17.4404 11 16.75 11H7.25C6.55964 11 6 10.4404 6 9.75Z" fill="#0099FF"/>
<path fill-rule="evenodd" clip-rule="evenodd" d="M16 1.04492V1.04522V4.00042C16 5.10503 16.8954 6.00049 17.9999 6.00049H20.9551C20.9305 5.94638 20.8962 5.89657 20.8534 5.85374L16.1464 1.14646C16.1037 1.10371 16.054 1.06949 16 1.04492Z" fill="#C8CEED"/>
</svg>
