<svg width="24" height="24" viewBox="0 0 24 24" fill="none" xmlns="http://www.w3.org/2000/svg">
<path d="M4 4C4 2.34315 5.34315 1 7 1H17C18.6569 1 20 2.34315 20 4V20C20 21.6569 18.6569 23 17 23H7C5.34315 23 4 21.6569 4 20V4Z" fill="white"/>
<path d="M10.192 13.363C10.3581 13.524 10.2407 13.8 10.0048 13.8H8.52834C8.23703 13.8 8 13.5702 8 13.2878V11.8565C8 11.6278 8.28466 11.514 8.4508 11.675L10.192 13.363Z" fill="#0A1551"/>
<path d="M12.5001 13.4738C12.0631 13.0396 12.0631 12.3356 12.5001 11.9014L14.0774 10.3344C14.5144 9.90024 15.223 9.90024 15.6601 10.3344C16.0971 10.7686 16.0971 11.4726 15.6601 11.9068L14.0828 13.4738C13.6458 13.9079 12.9372 13.9079 12.5001 13.4738Z" fill="#FFB629"/>
<path d="M8.33291 9.53691C7.89587 9.10272 7.89587 8.39876 8.33291 7.96457L10.9873 5.32564C11.4243 4.89145 12.1329 4.89145 12.5699 5.32564C13.007 5.75983 13.007 6.46379 12.5699 6.89798L9.91556 9.53691C9.47852 9.9711 8.76994 9.9711 8.33291 9.53691Z" fill="#0099FF"/>
<path d="M10.5026 11.4172C10.0655 10.983 10.0655 10.2791 10.5026 9.84487L14.0891 6.2817C14.5262 5.84751 15.2347 5.84751 15.6718 6.2817C16.1088 6.71589 16.1088 7.41985 15.6718 7.85404L12.0852 11.4172C11.6482 11.8514 10.9396 11.8514 10.5026 11.4172Z" fill="#FF6100"/>
<path fill-rule="evenodd" clip-rule="evenodd" d="M17 1H7C5.34315 1 4 2.34315 4 4V20C4 21.6569 5.34315 23 7 23H17C18.6569 23 20 21.6569 20 20V4C20 2.34315 18.6569 1 17 1ZM5 4C5 2.89543 5.89543 2 7 2H17C18.1046 2 19 2.89543 19 4V20C19 21.1046 18.1046 22 17 22H7C5.89543 22 5 21.1046 5 20V4ZM10 18C9.44772 18 9 18.4477 9 19C9 19.5523 9.44772 20 10 20H13.9996C14.5519 20 14.9996 19.5523 14.9996 19C14.9996 18.4477 14.5519 18 13.9996 18H10Z" fill="#C8CEED"/>
</svg>
