<svg width="24" height="24" viewBox="0 0 24 24" fill="none" xmlns="http://www.w3.org/2000/svg">
<path d="M18 1H6C4.34315 1 3 2.34315 3 4V20C3 21.6569 4.34315 23 6 23H18C19.6569 23 21 21.6569 21 20V4C21 2.34315 19.6569 1 18 1Z" fill="white"/>
<path fill-rule="evenodd" clip-rule="evenodd" d="M18 2H6C4.89543 2 4 2.89543 4 4V20C4 21.1046 4.89543 22 6 22H18C19.1046 22 20 21.1046 20 20V4C20 2.89543 19.1046 2 18 2ZM6 1H18C19.6569 1 21 2.34315 21 4V20C21 21.6569 19.6569 23 18 23H6C4.34315 23 3 21.6569 3 20V4C3 2.34315 4.34315 1 6 1Z" fill="#C8CEED"/>
<path d="M6 17.5C6 16.6716 6.67157 16 7.5 16H16.5C17.3284 16 18 16.6716 18 17.5C18 18.3284 17.3284 19 16.5 19H7.5C6.67157 19 6 18.3284 6 17.5Z" fill="#FFB629"/>
<path d="M6 12.5C6 11.6716 6.67157 11 7.5 11H16.5C17.3284 11 18 11.6716 18 12.5C18 13.3284 17.3284 14 16.5 14H7.5C6.67157 14 6 13.3284 6 12.5Z" fill="#FF6100"/>
<path d="M6 7.5C6 6.67157 6.67157 6 7.5 6H16.5C17.3284 6 18 6.67157 18 7.5C18 8.32843 17.3284 9 16.5 9H7.5C6.67157 9 6 8.32843 6 7.5Z" fill="#0099FF"/>
</svg>
