<svg width="24" height="24" viewBox="0 0 24 24" fill="none" xmlns="http://www.w3.org/2000/svg">
<path fill-rule="evenodd" clip-rule="evenodd" d="M6 1.08057H18C19.6569 1.08057 21 2.42371 21 4.08057V20.0806C21 21.7374 19.6569 23.0806 18 23.0806H6C4.34315 23.0806 3 21.7374 3 20.0806V4.08057C3 2.42371 4.34315 1.08057 6 1.08057ZM8.23327 6.24544C8.34317 6.02561 8.65683 6.02561 8.76673 6.24544L10.9681 10.6489C11.0673 10.8472 10.9231 11.0806 10.7014 11.0806H6.2986C6.07691 11.0806 5.93273 10.8472 6.03187 10.6489L8.23327 6.24544ZM18.001 15.5803C18.001 16.961 16.8817 18.0803 15.501 18.0803C14.1202 18.0803 13.001 16.961 13.001 15.5803C13.001 14.1996 14.1203 13.0803 15.501 13.0803C16.8816 13.0803 18.001 14.1996 18.001 15.5803ZM14 6.08057C13.4477 6.08057 13 6.52828 13 7.08057V10.0806C13 10.6329 13.4477 11.0806 14 11.0806H17C17.5523 11.0806 18 10.6329 18 10.0806V7.08057C18 6.52828 17.5523 6.08057 17 6.08057H14ZM6 14.0806C6 13.5283 6.44772 13.0806 7 13.0806H10C10.5523 13.0806 11 13.5283 11 14.0806V17.0806C11 17.6329 10.5523 18.0806 10 18.0806H7C6.44772 18.0806 6 17.6329 6 17.0806V14.0806Z" fill="currentColor"/>
</svg>
