<svg width="24" height="24" viewBox="0 0 24 24" fill="none" xmlns="http://www.w3.org/2000/svg">
<path d="M21.5349 11.1537L7.19193 2.12907C6.41798 1.64209 5.45039 2.3635 5.69618 3.24426L7.59199 10.0376C7.83324 10.9021 8.62086 11.5 9.51838 11.5H11.5001C11.7762 11.5 12.0001 11.7238 12.0001 12C12.0001 12.2761 11.7762 12.5 11.5001 12.5H9.51838C8.62086 12.5 7.83324 13.0979 7.59199 13.9624L5.69618 20.7557C5.45039 21.6365 6.41796 22.3579 7.19192 21.8709L21.5349 12.8465C22.1582 12.4543 22.1582 11.5458 21.5349 11.1537Z" fill="white"/>
<path fill-rule="evenodd" clip-rule="evenodd" d="M21.0023 12L6.65938 2.97546L8.55519 9.76877C8.67581 10.201 9.06962 10.5 9.51838 10.5H11.5001C12.3285 10.5 13.0001 11.1715 13.0001 12C13.0001 12.8284 12.3285 13.5 11.5001 13.5H9.51838C9.06962 13.5 8.67581 13.7989 8.55519 14.2312L6.65937 21.0245L21.0023 12ZM9.51838 11.5C8.62086 11.5 7.83324 10.9021 7.59199 10.0376L5.69618 3.24426C5.45039 2.3635 6.41798 1.64209 7.19193 2.12907L21.5349 11.1537C22.1582 11.5458 22.1582 12.4543 21.5349 12.8465L7.19192 21.8709C6.41796 22.3579 5.45039 21.6365 5.69618 20.7557L7.59199 13.9624C7.83324 13.0979 8.62086 12.5 9.51838 12.5H11.5001C11.7762 12.5 12.0001 12.2761 12.0001 12C12.0001 11.7238 11.7762 11.5 11.5001 11.5H9.51838Z" fill="#C8CEED"/>
<path d="M2 6.14C2 5.5104 2.5104 5 3.14 5H3.86C4.4896 5 5 5.5104 5 6.14C5 6.7696 4.4896 7.28 3.86 7.28H3.14C2.5104 7.28 2 6.7696 2 6.14Z" fill="#0099FF"/>
<path d="M3 12.0001C3 11.3705 3.5104 10.8601 4.14 10.8601H5.86C6.4896 10.8601 7 11.3705 7 12.0001C7 12.6297 6.4896 13.1401 5.86 13.1401H4.14C3.5104 13.1401 3 12.6297 3 12.0001Z" fill="#FF6100"/>
<path d="M2 17.86C2 17.2304 2.5104 16.72 3.14 16.72H3.86C4.4896 16.72 5 17.2304 5 17.86C5 18.4896 4.4896 19 3.86 19H3.14C2.5104 19 2 18.4896 2 17.86Z" fill="#FFB629"/>
</svg>
