<svg width="24" height="24" viewBox="0 0 24 24" fill="none" xmlns="http://www.w3.org/2000/svg">
<path d="M2 19.2727V10.865C2 10.4988 2.41085 10.2829 2.7124 10.4907L10.4527 15.8229C11.3843 16.4647 12.6155 16.4647 13.5471 15.8229L21.2874 10.4907C21.5889 10.2829 21.9998 10.4988 21.9998 10.865V19.2727C21.9998 20.7789 20.7787 21.9999 19.2725 21.9999H4.72724C3.22103 21.9999 2 20.7789 2 19.2727Z" fill="#C8CEED"/>
<path fill-rule="evenodd" clip-rule="evenodd" d="M4 9.74124L10.4529 14.1866C11.3845 14.8284 12.6157 14.8284 13.5473 14.1866L20 9.74136V4.72715C20 3.22094 18.779 1.99991 17.2728 1.99991H6.72724C5.22103 1.99991 4 3.22094 4 4.72715V9.74124Z" fill="white"/>
<path d="M7 6C7 5.44772 7.44772 5 8 5H15.9999C16.5522 5 16.9999 5.44772 16.9999 6C16.9999 6.55228 16.5522 7 15.9999 7H8C7.44772 7 7 6.55228 7 6Z" fill="#0099FF"/>
<path d="M7 9.50879C7 8.9565 7.44772 8.50879 8 8.50879H13.2726C13.8249 8.50879 14.2726 8.9565 14.2726 9.50879C14.2726 10.0611 13.8249 10.5088 13.2726 10.5088H8C7.44772 10.5088 7 10.0611 7 9.50879Z" fill="#FF6100"/>
<path d="M14.9268 9.50879C14.9268 8.9565 15.3745 8.50879 15.9268 8.50879H15.9995C16.5517 8.50879 16.9995 8.9565 16.9995 9.50879C16.9995 10.0611 16.5517 10.5088 15.9995 10.5088H15.9268C15.3745 10.5088 14.9268 10.0611 14.9268 9.50879Z" fill="#FFB629"/>
</svg>
