<svg width="24" height="24" viewBox="0 0 24 24" fill="none" xmlns="http://www.w3.org/2000/svg">
<path fill-rule="evenodd" clip-rule="evenodd" d="M10.4529 14.1867L4 9.74133V4.72724C4 3.22103 5.22103 2 6.72724 2H17.2728C18.779 2 20 3.22103 20 4.72724V9.74145L13.5473 14.1867C12.6157 14.8285 11.3845 14.8285 10.4529 14.1867ZM8.00006 4.99997C7.44777 4.99997 7.00006 5.44769 7.00006 5.99997C7.00006 6.55226 7.44777 6.99997 8.00006 6.99997H15.9999C16.5522 6.99997 16.9999 6.55226 16.9999 5.99997C16.9999 5.44769 16.5522 4.99997 15.9999 4.99997H8.00006ZM8.00006 8.50888C7.44777 8.50888 7.00006 8.9566 7.00006 9.50888C7.00006 10.0612 7.44777 10.5089 8.00006 10.5089H13.2727C13.825 10.5089 14.2727 10.0612 14.2727 9.50888C14.2727 8.9566 13.825 8.50888 13.2727 8.50888H8.00006ZM14.9268 9.50888C14.9268 8.9566 15.3745 8.50888 15.9268 8.50888H15.9995C16.5518 8.50888 16.9995 8.9566 16.9995 9.50888C16.9995 10.0612 16.5518 10.5089 15.9995 10.5089H15.9268C15.3745 10.5089 14.9268 10.0612 14.9268 9.50888ZM2 10.8651V19.2727C2 20.779 3.22103 22 4.72724 22H19.2725C20.7787 22 21.9998 20.779 21.9998 19.2727V10.8651C21.9998 10.4989 21.5889 10.283 21.2874 10.4908L13.5471 15.823C12.6155 16.4648 11.3843 16.4648 10.4527 15.823L2.7124 10.4908C2.41085 10.283 2 10.4989 2 10.8651Z" fill="currentColor"/>
</svg>
