<svg width="24" height="24" viewBox="0 0 24 24" fill="none" xmlns="http://www.w3.org/2000/svg">
<path fill-rule="evenodd" clip-rule="evenodd" d="M6 1H18C19.6569 1 21 2.34315 21 4V16.0744C20.6564 16.0241 20.3078 16 19.9557 16C19.0049 16 17.9712 16.2035 17.1164 16.8771C16.6765 17.2237 16.3458 17.643 16.1241 18.1099C16.0368 17.6133 15.7995 17.1707 15.4596 16.823C15.0043 16.3514 14.3851 16.0806 13.7127 16.0806H13.2162C12.8665 16.0806 12.5356 16.1534 12.2358 16.2851C11.902 16.1324 11.5703 16.0806 11.2861 16.0806H10.7336C10.2104 16.0806 9.72873 16.2336 9.32028 16.4895C8.89916 16.2258 8.41288 16.0806 7.89898 16.0806H7.31444C6.48244 16.0806 5.77176 16.5183 5.37268 17.1785C4.94543 17.879 4.93672 18.7183 5.30699 19.417L6.1311 20.9614L5.26889 22.5805L5.26696 22.5841C5.21659 22.6792 5.17353 22.7761 5.13762 22.8742C3.9011 22.5037 3 21.3571 3 20V4C3 2.34315 4.34315 1 6 1Z" fill="white"/>
<path fill-rule="evenodd" clip-rule="evenodd" d="M19.8351 21.576C19.1037 21.3627 18.5779 21.104 18.2576 20.8C17.9426 20.4907 17.7852 20.1093 17.7852 19.656C17.7852 19.1493 17.9747 18.7467 18.3537 18.448C18.7327 18.1493 19.2665 18 19.9552 18C20.489 18 20.9855 18.0747 21.4445 18.224C21.5673 18.2613 21.6581 18.3387 21.7168 18.456C21.7755 18.5733 21.7889 18.696 21.7568 18.824L21.7168 19C21.6901 19.112 21.6234 19.1947 21.5166 19.248C21.4152 19.3013 21.3084 19.3067 21.1963 19.264C20.8333 19.1307 20.4383 19.064 20.0112 19.064C19.7336 19.064 19.5228 19.1173 19.3786 19.224C19.2345 19.3307 19.1624 19.4747 19.1624 19.656C19.1624 19.9547 19.3866 20.168 19.8351 20.296C20.6305 20.5147 21.1883 20.776 21.5086 21.08C21.8342 21.384 21.9971 21.776 21.9971 22.256C21.9971 22.8213 21.8049 23.2533 21.4205 23.552C21.0362 23.8507 20.4676 24 19.7149 24C19.1918 24 18.674 23.8853 18.1615 23.656C18.0387 23.6027 17.9506 23.5147 17.8973 23.392C17.8492 23.264 17.8465 23.136 17.8893 23.008L17.9453 22.808C17.9773 22.7013 18.0467 22.6267 18.1535 22.584C18.2603 22.5413 18.3644 22.5467 18.4658 22.6C18.9142 22.824 19.3493 22.936 19.771 22.936C20.0486 22.936 20.2568 22.88 20.3956 22.768C20.5397 22.6507 20.6118 22.488 20.6118 22.28C20.6118 22.1093 20.5531 21.9707 20.4356 21.864C20.3235 21.7573 20.1233 21.6613 19.8351 21.576ZM13.2162 23.9206C13.0934 23.9206 12.9866 23.8752 12.8959 23.7846C12.8051 23.6939 12.7598 23.5872 12.7598 23.4646V18.5366C12.7598 18.4139 12.8051 18.3072 12.8959 18.2166C12.9866 18.1259 13.0934 18.0806 13.2162 18.0806H13.7126C13.8354 18.0806 13.9395 18.1259 14.0249 18.2166C14.1157 18.3072 14.1611 18.4139 14.1611 18.5366V22.7286C14.1611 22.7712 14.1851 22.7926 14.2331 22.7926H16.1789C16.3017 22.7926 16.4085 22.8379 16.4992 22.9286C16.59 23.0192 16.6354 23.1259 16.6354 23.2486V23.4646C16.6354 23.5872 16.59 23.6939 16.4992 23.7846C16.4085 23.8752 16.3017 23.9206 16.1789 23.9206H13.2162ZM7.04214 23.7926C7.09553 23.8779 7.17293 23.9206 7.27436 23.9206H7.8589C7.9977 23.9206 8.12581 23.8832 8.24326 23.8086C8.3607 23.7286 8.44611 23.6272 8.49949 23.5046L9.27621 21.7526C9.27621 21.7472 9.27888 21.7446 9.28422 21.7446C9.28956 21.7446 9.29223 21.7472 9.29223 21.7526L10.0689 23.5046C10.1277 23.6272 10.2157 23.7286 10.3332 23.8086C10.4506 23.8832 10.5761 23.9206 10.7095 23.9206H11.3261C11.4329 23.9206 11.5103 23.8779 11.5583 23.7926C11.6117 23.7019 11.6144 23.6112 11.5663 23.5206L10.2371 21.0246C10.2211 20.9819 10.2211 20.9392 10.2371 20.8966L11.5263 18.4806C11.5743 18.3899 11.5717 18.3019 11.5183 18.2166C11.4702 18.1259 11.3928 18.0806 11.2861 18.0806H10.7336C10.6001 18.0806 10.4747 18.1206 10.3572 18.2006C10.2398 18.2752 10.1517 18.3739 10.093 18.4966L9.32426 20.1686C9.32426 20.1739 9.32159 20.1766 9.31625 20.1766C9.31091 20.1766 9.30824 20.1739 9.30824 20.1686L8.53953 18.4966C8.48615 18.3739 8.40074 18.2752 8.28329 18.2006C8.16585 18.1206 8.03773 18.0806 7.89894 18.0806H7.3144C7.21297 18.0806 7.13556 18.1259 7.08218 18.2166C7.0288 18.3019 7.02613 18.3899 7.07417 18.4806L8.36337 20.8966C8.37938 20.9392 8.37938 20.9819 8.36337 21.0246L7.03414 23.5206C6.98609 23.6112 6.98876 23.7019 7.04214 23.7926Z" fill="white"/>
<path fill-rule="evenodd" clip-rule="evenodd" d="M16.5 7C15.9477 7 15.5 7.44772 15.5 8V16.8653C15.8183 17.2063 16.0403 17.6333 16.1241 18.1099C16.3458 17.643 16.6765 17.2237 17.1164 16.8771C17.5438 16.5403 18.0159 16.321 18.5 16.186V8C18.5 7.44772 18.0523 7 17.5 7H16.5Z" fill="#FFB629"/>
<path fill-rule="evenodd" clip-rule="evenodd" d="M11.5 9C10.9477 9 10.5 9.44772 10.5 10V16.0908C10.5769 16.084 10.6548 16.0806 10.7336 16.0806H11.2861C11.5703 16.0806 11.902 16.1324 12.2358 16.2851C12.5356 16.1534 12.8665 16.0806 13.2162 16.0806H13.5V10C13.5 9.44772 13.0523 9 12.5 9H11.5Z" fill="#FF6100"/>
<path fill-rule="evenodd" clip-rule="evenodd" d="M6.5 6C5.94772 6 5.5 6.44772 5.5 7V16.9894C5.91347 16.4361 6.5647 16.0806 7.31444 16.0806H7.89898C8.10454 16.0806 8.30568 16.1038 8.5 16.1486V7C8.5 6.44772 8.05228 6 7.5 6H6.5Z" fill="#0099FF"/>
</svg>
