<svg width="24" height="24" viewBox="0 0 24 24" fill="none" xmlns="http://www.w3.org/2000/svg">
<path fill-rule="evenodd" clip-rule="evenodd" d="M6 1H18C19.6569 1 21 2.34315 21 4V17.0045C20.7582 17.0193 20.5269 17.0701 20.3106 17.1516C20.0505 17.0536 19.7686 17 19.473 17H19.0346C18.5034 17 18.0171 17.1637 17.6124 17.4325C17.5081 17.5007 17.4089 17.5759 17.3155 17.6577C17.2221 17.5759 17.1228 17.5007 17.0185 17.4325C16.6139 17.1637 16.1275 17 15.5963 17H15.1853C14.9234 17 14.6722 17.0421 14.4375 17.1198C14.2027 17.0421 13.9516 17 13.6896 17H10.4978C10.2352 17 9.98342 17.0423 9.74812 17.1204C9.51282 17.0423 9.26103 17 8.99839 17H8.60798C8.14583 17 7.71727 17.131 7.35304 17.3578C6.98473 17.1271 6.55517 17 6.10113 17H5.71072C5.04909 17 4.45631 17.2685 4.02254 17.7022C3.58876 18.136 3.32031 18.7288 3.32031 19.3904V21.3502C3.11541 20.9444 3 20.4857 3 20V4C3 2.34315 4.34315 1 6 1Z" fill="white"/>
<path fill-rule="evenodd" clip-rule="evenodd" d="M5.44066 23.8836C5.51828 23.9612 5.60961 24 5.71463 24H6.10504C6.21006 24 6.2991 23.9612 6.37216 23.8836C6.44979 23.8059 6.4886 23.7146 6.4886 23.6096V21.8973C6.4886 21.8607 6.50915 21.8425 6.55025 21.8425H8.16668C8.20778 21.8425 8.22833 21.8607 8.22833 21.8973V23.6096C8.22833 23.7146 8.26486 23.8059 8.33792 23.8836C8.41554 23.9612 8.50687 24 8.61189 24H9.0023C9.10732 24 9.19865 23.9612 9.27627 23.8836C9.3539 23.8059 9.39271 23.7146 9.39271 23.6096V19.3904C9.39271 19.2854 9.3539 19.1941 9.27627 19.1164C9.19865 19.0388 9.10732 19 9.0023 19H8.61189C8.50687 19 8.41554 19.0388 8.33792 19.1164C8.26486 19.1941 8.22833 19.2854 8.22833 19.3904V20.8973C8.22833 20.9384 8.20778 20.9589 8.16668 20.9589H6.55025C6.50915 20.9589 6.4886 20.9384 6.4886 20.8973V19.3904C6.4886 19.2854 6.44979 19.1941 6.37216 19.1164C6.2991 19.0388 6.21006 19 6.10504 19H5.71463C5.60961 19 5.51828 19.0388 5.44066 19.1164C5.36303 19.1941 5.32422 19.2854 5.32422 19.3904V23.6096C5.32422 23.7146 5.36303 23.8059 5.44066 23.8836ZM10.5352 19.9658C10.4302 19.9658 10.3388 19.9269 10.2612 19.8493C10.1836 19.7717 10.1448 19.6804 10.1448 19.5753V19.3904C10.1448 19.2854 10.1836 19.1941 10.2612 19.1164C10.3388 19.0388 10.4302 19 10.5352 19H13.727C13.832 19 13.9233 19.0388 14.0009 19.1164C14.0786 19.1941 14.1174 19.2854 14.1174 19.3904V19.5753C14.1174 19.6804 14.0786 19.7717 14.0009 19.8493C13.9233 19.9269 13.832 19.9658 13.727 19.9658H12.7818C12.7452 19.9658 12.727 19.984 12.727 20.0205V23.6096C12.727 23.7146 12.6882 23.8059 12.6105 23.8836C12.5329 23.9612 12.4416 24 12.3366 24H11.9256C11.8206 24 11.7293 23.9612 11.6516 23.8836C11.574 23.8059 11.5352 23.7146 11.5352 23.6096V20.0205C11.5352 19.984 11.5169 19.9658 11.4804 19.9658H10.5352ZM14.9812 23.8836C15.0588 23.9612 15.1501 24 15.2552 24H15.5771C15.6821 24 15.7734 23.9612 15.851 23.8836C15.9287 23.8059 15.9675 23.7146 15.9675 23.6096V20.9452C15.9675 20.9406 15.9698 20.9384 15.9743 20.9384C15.9789 20.9384 15.9812 20.9406 15.9812 20.9452L16.7004 22.5068C16.746 22.6119 16.8191 22.6963 16.9195 22.7603C17.02 22.8242 17.1296 22.8562 17.2483 22.8562H17.5223C17.641 22.8562 17.7506 22.8242 17.851 22.7603C17.9515 22.6963 18.0246 22.6119 18.0702 22.5068L18.7894 20.9452C18.7894 20.9406 18.7917 20.9384 18.7963 20.9384C18.8008 20.9384 18.8031 20.9406 18.8031 20.9452V23.6096C18.8031 23.7146 18.8419 23.8059 18.9195 23.8836C18.9972 23.9612 19.0885 24 19.1935 24H19.5428C19.6479 24 19.7392 23.9612 19.8168 23.8836C19.8944 23.8059 19.9332 23.7146 19.9332 23.6096V19.3904C19.9332 19.2854 19.8944 19.1941 19.8168 19.1164C19.7392 19.0388 19.6479 19 19.5428 19H19.1045C18.9903 19 18.883 19.0342 18.7826 19.1027C18.6821 19.1667 18.6068 19.2511 18.5565 19.3562L17.3921 21.9384C17.3921 21.9429 17.3899 21.9452 17.3853 21.9452C17.3807 21.9452 17.3784 21.9429 17.3784 21.9384L16.2141 19.3562C16.1638 19.2511 16.0885 19.1667 15.988 19.1027C15.8876 19.0342 15.7803 19 15.6661 19H15.2552C15.1501 19 15.0588 19.0388 14.9812 19.1164C14.9036 19.1941 14.8647 19.2854 14.8647 19.3904V23.6096C14.8647 23.7146 14.9036 23.8059 14.9812 23.8836ZM20.8013 23.8836C20.8789 23.9612 20.9702 24 21.0752 24H23.6095C23.7145 24 23.8058 23.9612 23.8834 23.8836C23.9611 23.8059 23.9999 23.7146 23.9999 23.6096V23.4247C23.9999 23.3196 23.9611 23.2283 23.8834 23.1507C23.8058 23.0731 23.7145 23.0342 23.6095 23.0342H21.9451C21.904 23.0342 21.8834 23.016 21.8834 22.9795V19.3904C21.8834 19.2854 21.8446 19.1941 21.767 19.1164C21.6939 19.0388 21.6049 19 21.4999 19H21.0752C20.9702 19 20.8789 19.0388 20.8013 19.1164C20.7236 19.1941 20.6848 19.2854 20.6848 19.3904V23.6096C20.6848 23.7146 20.7236 23.8059 20.8013 23.8836Z" fill="white"/>
<path fill-rule="evenodd" clip-rule="evenodd" d="M16.5 7C15.9477 7 15.5 7.44772 15.5 8V17H15.596C16.1272 17 16.6136 17.1637 17.0182 17.4325C17.1225 17.5007 17.2217 17.5759 17.3152 17.6577C17.4086 17.5759 17.5078 17.5007 17.6121 17.4325C17.8766 17.2568 18.176 17.126 18.5 17.0565V8C18.5 7.44772 18.0523 7 17.5 7H16.5Z" fill="#FFB629"/>
<path fill-rule="evenodd" clip-rule="evenodd" d="M11.5 9C10.9477 9 10.5 9.44772 10.5 10V17H13.5V10C13.5 9.44772 13.0523 9 12.5 9H11.5Z" fill="#FF6100"/>
<path fill-rule="evenodd" clip-rule="evenodd" d="M6.5 6C5.94772 6 5.5 6.44772 5.5 7V17.0091C5.56927 17.0031 5.63944 17 5.71041 17H6.10082C6.55486 17 6.98442 17.1271 7.35272 17.3578C7.68851 17.1487 8.07896 17.021 8.5 17.0024V7C8.5 6.44772 8.05228 6 7.5 6H6.5Z" fill="#0099FF"/>
</svg>
