<svg width="24" height="24" viewBox="0 0 24 24" fill="none" xmlns="http://www.w3.org/2000/svg">
<path d="M18 1H6C4.34315 1 3 2.34315 3 4V20C3 21.6569 4.34315 23 6 23H18C19.6569 23 21 21.6569 21 20V4C21 2.34315 19.6569 1 18 1Z" fill="white"/>
<path d="M11.6943 13.0829C11.5196 13.2576 11.4828 13.5273 11.6044 13.7423L13.5706 17.2202C13.6776 17.4094 13.886 17.5178 14.1024 17.4969C14.3188 17.476 14.5025 17.3296 14.5713 17.1235L17.4857 7.68817C17.5717 7.40976 17.2223 7.20642 17.0226 7.41869L11.6943 13.0829Z" fill="#FFB629"/>
<path d="M6.50256 9.89533C6.52347 9.67901 6.66987 9.4953 6.8761 9.42657L16.3138 6.51288C16.5923 6.4269 16.7957 6.77624 16.5833 6.97586L10.9177 12.3028C10.743 12.4774 10.4732 12.5142 10.2581 12.3927L6.77939 10.4269C6.59014 10.32 6.48165 10.1117 6.50256 9.89533Z" fill="#0099FF"/>
<path d="M8.41888 14.8325L8.66714 13.09C8.70551 12.8207 9.03495 12.7108 9.22733 12.9032L11.0951 14.7705C11.2875 14.9628 11.1776 15.2921 10.9083 15.3305L9.16565 15.5789C8.73013 15.641 8.35684 15.2679 8.41888 14.8325Z" fill="#FF6100"/>
</svg>
