<svg width="24" height="24" viewBox="0 0 24 24" fill="none" xmlns="http://www.w3.org/2000/svg">
<g clip-path="url(#clip0_5951_4322)">
<path fill-rule="evenodd" clip-rule="evenodd" d="M6 1H18C19.6569 1 21 2.34315 21 4V12.0178C20.4101 12.089 19.8845 12.3691 19.4995 12.7821C19.0509 12.3009 18.4114 12 17.7016 12C16.9106 12 16.2069 12.3737 15.7574 12.9542C14.188 13.243 12.999 14.6181 12.999 16.271V22.6309C12.999 22.7556 13.0058 22.8788 13.019 23H6C4.34315 23 3 21.6569 3 20V4C3 2.34315 4.34315 1 6 1Z" fill="white"/>
<path fill-rule="evenodd" clip-rule="evenodd" d="M17.7026 14C17.9553 14 18.1601 14.2048 18.1601 14.4575V14.8984H20.8408V14.4575C20.8408 14.2048 21.0456 14 21.2983 14C21.551 14 21.7558 14.2048 21.7558 14.4575V14.8984H22.6275C23.3855 14.8984 24 15.513 24 16.271V18.0213C24.0006 18.0312 24.001 18.0412 24.001 18.0513C24.001 18.0613 24.0006 18.0713 24 18.0813V22.6309C24 23.389 23.3855 24.0035 22.6275 24.0035H16.3725C15.6145 24.0035 15 23.389 15 22.6309V16.271C15 15.513 15.6145 14.8984 16.3725 14.8984H17.2451V14.4575C17.2451 14.2048 17.4499 14 17.7026 14ZM23.085 17.5937H15.915V16.271C15.915 16.0183 16.1199 15.8135 16.3725 15.8135H17.2451V16.2542C17.2451 16.5069 17.4499 16.7117 17.7026 16.7117C17.9553 16.7117 18.1601 16.5069 18.1601 16.2542V15.8135H20.8408V16.2542C20.8408 16.5069 21.0456 16.7117 21.2983 16.7117C21.551 16.7117 21.7558 16.5069 21.7558 16.2542V15.8135H22.6275C22.8801 15.8135 23.085 16.0183 23.085 16.271V17.5937ZM17.2552 19.3894C17.0025 19.3894 16.7977 19.5943 16.7977 19.847V20.7453C16.7977 20.998 17.0025 21.2028 17.2552 21.2028H18.6027C18.8553 21.2028 19.0602 20.998 19.0602 20.7453V19.847C19.0602 19.5943 18.8553 19.3894 18.6027 19.3894H17.2552Z" fill="white"/>
<path fill-rule="evenodd" clip-rule="evenodd" d="M11.5 9C10.9477 9 10.5 9.44772 10.5 10V18H12.999V16.271C12.999 15.622 13.1823 15.0158 13.5 14.5014V10C13.5 9.44772 13.0523 9 12.5 9H11.5Z" fill="#FF6100"/>
<path fill-rule="evenodd" clip-rule="evenodd" d="M16.5 7C15.9477 7 15.5 7.44771 15.5 8V13.0121C15.5845 12.9896 15.6704 12.9702 15.7574 12.9542C16.2069 12.3737 16.9106 12 17.7016 12C17.9811 12 18.2497 12.0466 18.5 12.1326V8C18.5 7.44772 18.0523 7 17.5 7H16.5Z" fill="#FFB629"/>
<path d="M5.5 7C5.5 6.44772 5.94772 6 6.5 6H7.5C8.05228 6 8.5 6.44772 8.5 7V18H5.5V7Z" fill="#0099FF"/>
</g>
<defs>
<clipPath id="clip0_5951_4322">
<rect width="24" height="24" fill="white"/>
</clipPath>
</defs>
</svg>
