<svg width="24" height="24" viewBox="0 0 24 24" fill="none" xmlns="http://www.w3.org/2000/svg">
<path fill-rule="evenodd" clip-rule="evenodd" d="M6 1H18C19.6569 1 21 2.34315 21 4V16.1038C20.891 16.0884 20.7802 16.0806 20.6682 16.0806H20.1642C19.5756 16.0806 19.0268 16.278 18.5794 16.6274C18.5329 16.6631 18.4879 16.7002 18.4442 16.7386C18.4006 16.7002 18.3555 16.6631 18.3091 16.6274C17.8616 16.278 17.3128 16.0806 16.7242 16.0806H16.1882C15.8939 16.0806 15.6113 16.1341 15.35 16.2341C14.7626 16.0742 14.1557 16 13.5382 16C12.8154 16 12.0446 16.1178 11.341 16.4706C10.6215 16.1479 9.85551 16 9.072 16C7.73146 16 6.42476 16.3827 5.41586 17.3719C4.40493 18.363 4 19.6584 4 21C4 21.4675 4.05092 21.9272 4.1596 22.3693C3.45396 21.8204 3 20.9632 3 20V4C3 2.34315 4.34315 1 6 1Z" fill="white"/>
<path fill-rule="evenodd" clip-rule="evenodd" d="M6.84 23.192C7.4 23.7307 8.144 24 9.072 24C9.62133 24 10.1227 23.8933 10.576 23.68C10.6933 23.6267 10.7707 23.5387 10.808 23.416C10.8507 23.288 10.848 23.1627 10.8 23.04L10.744 22.888C10.7013 22.776 10.6213 22.7013 10.504 22.664C10.392 22.6267 10.2827 22.6347 10.176 22.688C9.86667 22.832 9.54133 22.904 9.2 22.904C8.66667 22.904 8.232 22.7333 7.896 22.392C7.56 22.0507 7.392 21.5867 7.392 21C7.392 20.4027 7.552 19.936 7.872 19.6C8.19733 19.264 8.64 19.096 9.2 19.096C9.54133 19.096 9.86667 19.168 10.176 19.312C10.2827 19.3653 10.392 19.3733 10.504 19.336C10.6213 19.2987 10.7013 19.224 10.744 19.112L10.8 18.96C10.848 18.8373 10.8507 18.7147 10.808 18.592C10.7707 18.464 10.6933 18.3733 10.576 18.32C10.1227 18.1067 9.62133 18 9.072 18C8.112 18 7.36 18.2667 6.816 18.8C6.272 19.3333 6 20.0667 6 21C6 21.9227 6.28 22.6533 6.84 23.192ZM13.4191 21.576C12.6884 21.3627 12.1631 21.104 11.8431 20.8C11.5284 20.4907 11.3711 20.1093 11.3711 19.656C11.3711 19.1493 11.5604 18.7467 11.9391 18.448C12.3178 18.1493 12.8511 18 13.5391 18C14.0724 18 14.5684 18.0747 15.0271 18.224C15.1498 18.2613 15.2404 18.3387 15.2991 18.456C15.3578 18.5733 15.3711 18.696 15.3391 18.824L15.2991 19C15.2724 19.112 15.2058 19.1947 15.0991 19.248C14.9978 19.3013 14.8911 19.3067 14.7791 19.264C14.4164 19.1307 14.0218 19.064 13.5951 19.064C13.3178 19.064 13.1071 19.1173 12.9631 19.224C12.8191 19.3307 12.7471 19.4747 12.7471 19.656C12.7471 19.9547 12.9711 20.168 13.4191 20.296C14.2138 20.5147 14.7711 20.776 15.0911 21.08C15.4164 21.384 15.5791 21.776 15.5791 22.256C15.5791 22.8213 15.3871 23.2533 15.0031 23.552C14.6191 23.8507 14.0511 24 13.2991 24C12.7764 24 12.2591 23.8853 11.7471 23.656C11.6244 23.6027 11.5364 23.5147 11.4831 23.392C11.4351 23.264 11.4324 23.136 11.4751 23.008L11.5311 22.808C11.5631 22.7013 11.6324 22.6267 11.7391 22.584C11.8458 22.5413 11.9498 22.5467 12.0511 22.6C12.4991 22.824 12.9338 22.936 13.3551 22.936C13.6324 22.936 13.8404 22.88 13.9791 22.768C14.1231 22.6507 14.1951 22.488 14.1951 22.28C14.1951 22.1093 14.1364 21.9707 14.0191 21.864C13.9071 21.7573 13.7071 21.6613 13.4191 21.576ZM17.5641 23.4886L15.8761 18.5126C15.8388 18.4059 15.8521 18.3072 15.9161 18.2166C15.9854 18.1259 16.0761 18.0806 16.1881 18.0806H16.7241C16.8574 18.0806 16.9774 18.1232 17.0841 18.2086C17.1908 18.2886 17.2628 18.3926 17.3001 18.5206L18.4201 22.6086C18.4201 22.6139 18.4228 22.6166 18.4281 22.6166C18.4334 22.6166 18.4361 22.6139 18.4361 22.6086L19.5881 18.5206C19.6254 18.3926 19.6974 18.2886 19.8041 18.2086C19.9108 18.1232 20.0308 18.0806 20.1641 18.0806H20.6681C20.7801 18.0806 20.8681 18.1259 20.9321 18.2166C21.0014 18.3072 21.0174 18.4059 20.9801 18.5126L19.2921 23.4886C19.2494 23.6166 19.1721 23.7206 19.0601 23.8006C18.9534 23.8806 18.8308 23.9206 18.6921 23.9206H18.1641C18.0308 23.9206 17.9081 23.8806 17.7961 23.8006C17.6841 23.7206 17.6068 23.6166 17.5641 23.4886Z" fill="white"/>
<path fill-rule="evenodd" clip-rule="evenodd" d="M16.5 7C15.9477 7 15.5 7.44771 15.5 8V16.1825C15.7183 16.1158 15.9494 16.0806 16.1882 16.0806H16.7242C17.3128 16.0806 17.8616 16.278 18.3091 16.6274C18.3555 16.6631 18.4006 16.7002 18.4442 16.7386C18.4626 16.7225 18.4812 16.7066 18.5 16.6909V8C18.5 7.44772 18.0523 7 17.5 7H16.5Z" fill="#FFB629"/>
<path fill-rule="evenodd" clip-rule="evenodd" d="M11.5 9C10.9477 9 10.5 9.44772 10.5 10V16.1764C10.786 16.2501 11.0669 16.3476 11.341 16.4706C12.0322 16.124 12.7883 16.0042 13.5 16.0001V10C13.5 9.44772 13.0523 9 12.5 9H11.5Z" fill="#FF6100"/>
<path fill-rule="evenodd" clip-rule="evenodd" d="M6.5 6C5.94772 6 5.5 6.44772 5.5 7V17.2914C6.35032 16.4985 7.40054 16.1187 8.5 16.0241V7C8.5 6.44772 8.05228 6 7.5 6H6.5Z" fill="#0099FF"/>
</svg>
