<svg width="24" height="24" viewBox="0 0 24 24" fill="none" xmlns="http://www.w3.org/2000/svg">
<g clip-path="url(#clip0_5951_4285)">
<path fill-rule="evenodd" clip-rule="evenodd" d="M6 1H18C19.6569 1 21 2.34315 21 4V15.0648C19.7051 14.3848 18.2308 14 16.6667 14C15.1939 14 14 15.1939 14 16.6667C14 17.1524 14.1299 17.6077 14.3567 18C14.1299 18.3922 14 18.8475 14 19.3333C14 19.9639 14.2189 20.5434 14.5849 20.9999C14.2166 21.5174 14 22.1504 14 22.8339C14 22.8896 14.0014 22.945 14.0043 23H6C4.34315 23 3 21.6569 3 20V4C3 2.34315 4.34315 1 6 1Z" fill="white"/>
<path d="M18.3333 22.8339C18.3333 23.4783 17.811 24.0006 17.1666 24.0006C16.5223 24.0006 16 23.4783 16 22.8339C16 22.1896 16.5223 21.6673 17.1666 21.6673C17.811 21.6673 18.3333 22.1896 18.3333 22.8339Z" fill="white"/>
<path fill-rule="evenodd" clip-rule="evenodd" d="M16 19.3333C16 18.9651 16.2985 18.6666 16.6667 18.6666C19.2439 18.6666 21.3332 20.7559 21.3332 23.3332C21.3332 23.7013 21.0347 23.9998 20.6666 23.9998C20.2984 23.9998 19.9999 23.7013 19.9999 23.3332C19.9999 21.4923 18.5076 19.9999 16.6667 19.9999C16.2985 19.9999 16 19.7014 16 19.3333Z" fill="white"/>
<path fill-rule="evenodd" clip-rule="evenodd" d="M16 16.6667C16 16.2985 16.2985 16 16.6667 16C20.7166 16 23.9998 19.2832 23.9998 23.3332C23.9998 23.7013 23.7013 23.9998 23.3332 23.9998C22.965 23.9998 22.6665 23.7013 22.6665 23.3332C22.6665 20.0195 19.9803 17.3333 16.6667 17.3333C16.2985 17.3333 16 17.0348 16 16.6667Z" fill="white"/>
<path fill-rule="evenodd" clip-rule="evenodd" d="M16.5 7C15.9477 7 15.5 7.44771 15.5 8V14.2681C15.8524 14.0964 16.2483 14 16.6667 14C17.2942 14 17.9072 14.0619 18.5 14.18V8C18.5 7.44772 18.0523 7 17.5 7H16.5Z" fill="#FFB629"/>
<path d="M10.5 10C10.5 9.44772 10.9477 9 11.5 9H12.5C13.0523 9 13.5 9.44772 13.5 10V18H10.5V10Z" fill="#FF6100"/>
<path d="M5.5 7C5.5 6.44772 5.94772 6 6.5 6H7.5C8.05228 6 8.5 6.44772 8.5 7V18H5.5V7Z" fill="#0099FF"/>
</g>
<defs>
<clipPath id="clip0_5951_4285">
<rect width="24" height="24" fill="white"/>
</clipPath>
</defs>
</svg>
