<svg width="24" height="24" viewBox="0 0 24 24" fill="none" xmlns="http://www.w3.org/2000/svg">
<path fill-rule="evenodd" clip-rule="evenodd" d="M6 1H18C19.6569 1 21 2.34315 21 4V13H16.35C14.4998 13 13 14.4998 13 16.35V22.65C13 22.7682 13.0061 22.885 13.0181 23H6C4.34315 23 3 21.6569 3 20V4C3 2.34315 4.34315 1 6 1Z" fill="white"/>
<path fill-rule="evenodd" clip-rule="evenodd" d="M15 16.35C15 15.6044 15.6044 15 16.35 15H22.65C23.3956 15 24 15.6044 24 16.35V18.15V20.85V22.65C24 23.3956 23.3956 24 22.65 24H20.85H18.15H16.35C15.6044 24 15 23.3956 15 22.65V20.85V18.15V16.35ZM21.3 23.1H22.65C22.8985 23.1 23.1 22.8985 23.1 22.65V21.3H21.3V23.1ZM20.4 21.3V23.1H18.6V21.3H20.4ZM21.3 20.4H23.1V18.6H21.3V20.4ZM20.4 18.6V20.4H18.6V18.6H20.4ZM20.85 17.7H23.1V16.35C23.1 16.1015 22.8985 15.9 22.65 15.9H16.35C16.1015 15.9 15.9 16.1015 15.9 16.35V17.7L18.15 17.7H20.85ZM17.7 23.1L17.7 21.3H15.9V22.65C15.9 22.8985 16.1015 23.1 16.35 23.1H17.7ZM17.7 20.4L17.7 18.6L15.9 18.6V20.4H17.7Z" fill="white"/>
<path fill-rule="evenodd" clip-rule="evenodd" d="M16.5 7C15.9477 7 15.5 7.44771 15.5 8V13.1088C15.7714 13.0378 16.0563 13 16.35 13H18.5V8C18.5 7.44772 18.0523 7 17.5 7H16.5Z" fill="#FFB629"/>
<path fill-rule="evenodd" clip-rule="evenodd" d="M11.5 9C10.9477 9 10.5 9.44772 10.5 10V18H13V16.35C13 15.7037 13.183 15.1002 13.5 14.5884V10C13.5 9.44772 13.0523 9 12.5 9H11.5Z" fill="#FF6100"/>
<path d="M5.5 7C5.5 6.44772 5.94772 6 6.5 6H7.5C8.05228 6 8.5 6.44772 8.5 7V18H5.5V7Z" fill="#0099FF"/>
</svg>
