<svg width="24" height="24" viewBox="0 0 24 24" fill="none" xmlns="http://www.w3.org/2000/svg">
<path d="M4.205 4.2032C5.67159 2.73882 7.83963 2.76129 9.88666 3.47273C10.5774 3.71287 11.2865 4.04131 12 4.44538C12.5488 4.1346 13.0949 3.86844 13.6318 3.65339C14.1453 3.44805 14.7275 3.69739 14.9336 4.21003C15.1394 4.72292 14.8905 5.30606 14.3769 5.51179C14.2259 5.57228 14.0732 5.63834 13.9189 5.70905C14.7134 6.30641 15.4982 6.98863 16.2519 7.74127C17.0121 8.50036 17.7008 9.29058 18.3027 10.0909C18.3785 9.92875 18.4494 9.76881 18.5136 9.61041C18.7213 9.09822 19.3073 8.85057 19.8203 9.05767C20.3327 9.26516 20.58 9.84849 20.373 10.3604C20.1537 10.9015 19.8806 11.4512 19.5625 12.004C19.9627 12.7106 20.2878 13.4125 20.5264 14.0967C21.239 16.141 21.2616 18.3069 19.7949 19.7715C18.3023 21.2616 16.1364 21.2449 14.0859 20.5215C13.397 20.2784 12.6914 19.9457 11.9814 19.5381C11.2744 19.9373 10.5723 20.2629 9.88764 20.501C7.84058 21.2126 5.67173 21.2357 4.205 19.7715C2.73838 18.3069 2.76095 16.1409 3.47355 14.0967C3.71399 13.4072 4.04269 12.6995 4.44719 11.9874C4.04254 11.275 3.71404 10.5668 3.47355 9.87701C2.76101 7.83282 2.73837 5.66773 4.205 4.2032ZM18.289 13.9092C17.6884 14.6988 17.0051 15.4804 16.2519 16.2325C15.4916 16.9917 14.7 17.6792 13.8984 18.2803C14.1899 18.4162 14.4753 18.5365 14.7539 18.6348C16.4931 19.2483 17.6863 19.0461 18.3779 18.3555C19.0368 17.6973 19.2454 16.5096 18.6338 14.7549C18.5377 14.4795 18.4212 14.1974 18.289 13.9092ZM5.71282 13.9034C5.57959 14.1933 5.46372 14.4779 5.36711 14.7549C4.7554 16.5097 4.96397 17.6973 5.62298 18.3555C6.28218 19.0133 7.47133 19.2212 9.22846 18.6104C9.50356 18.5147 9.78539 18.3982 10.0732 18.2666C9.2824 17.6667 8.5002 16.9845 7.74798 16.2334C6.99417 15.4807 6.3111 14.6968 5.71282 13.9034ZM12 6.79987C11.0575 7.43559 10.0966 8.22797 9.16596 9.15728C8.23411 10.0878 7.43972 11.0469 6.80364 11.9874C7.43973 12.9277 8.23407 13.8869 9.16596 14.8174C10.0977 15.7478 11.0544 16.5427 11.9902 17.1817C12.935 16.5454 13.8999 15.7511 14.8349 14.8174C15.7655 13.8881 16.5598 12.9315 17.2002 11.9961C16.5632 11.0532 15.7685 10.0905 14.8339 9.15728C13.9022 8.22692 12.9415 7.43497 12 6.79987ZM12.0009 9.9854C13.1076 9.98572 14.0048 10.8822 14.0048 11.9874C14.0047 13.0924 13.1075 13.988 12.0009 13.9883C10.8941 13.9883 9.99621 13.0926 9.99604 11.9874C9.99604 10.882 10.894 9.9854 12.0009 9.9854ZM9.22846 5.36335C7.4711 4.75249 6.28111 4.96013 5.622 5.61823C4.96288 6.27642 4.75523 7.46475 5.36711 9.21978C5.4636 9.49648 5.57982 9.77986 5.71282 10.0694C6.31102 9.27613 6.99432 8.49288 7.74798 7.74029C8.50228 6.98712 9.28713 6.30583 10.081 5.70905C9.79071 5.57605 9.50586 5.4598 9.22846 5.36335ZM19.0498 1.31356C19.2047 0.895621 19.7953 0.895586 19.9502 1.31356L20.1787 1.92976C20.5031 2.80608 21.1939 3.49697 22.0703 3.82136L22.6865 4.04988C23.1042 4.20485 23.1043 4.79533 22.6865 4.95026L22.0703 5.17878C21.1939 5.5032 20.5031 6.194 20.1787 7.07037L19.9502 7.68658C19.7952 8.10433 19.2048 8.1043 19.0498 7.68658L18.8213 7.07037C18.4969 6.19402 17.806 5.50322 16.9297 5.17878L16.3134 4.95026C15.8955 4.7954 15.8955 4.20479 16.3134 4.04988L16.9297 3.82136C17.806 3.49694 18.4968 2.80606 18.8213 1.92976L19.0498 1.31356Z" fill="currentColor"/>
</svg>
