<svg width="24" height="24" viewBox="0 0 24 24" fill="none" xmlns="http://www.w3.org/2000/svg">
<path fill-rule="evenodd" clip-rule="evenodd" d="M10.4608 3.13269C12.3332 2.80758 14.2604 3.0835 15.9663 3.92089C17.2835 4.56748 18.4166 5.52321 19.2734 6.69864L18.1643 6.51371C17.6195 6.42288 17.1042 6.79087 17.0134 7.33563C16.9226 7.88039 17.2906 8.39565 17.8353 8.48648L20.8347 8.98657C21.32 9.06749 21.7921 8.78334 21.9478 8.31658L22.9484 5.31659C23.1231 4.79268 22.8401 4.22631 22.3162 4.05157C21.7922 3.87683 21.2259 4.15988 21.0511 4.6838L20.8086 5.41087C19.7715 4.02443 18.4164 2.8956 16.8476 2.12553C14.7626 1.10205 12.4071 0.764822 10.1187 1.16217C7.83024 1.55952 5.72631 2.67105 4.10835 4.33749C2.4904 6.00393 1.44145 8.13975 1.11182 10.4389C1.03344 10.9856 1.41309 11.4923 1.95978 11.5707C2.50648 11.6491 3.0132 11.2694 3.09158 10.7227C3.36128 8.84162 4.2195 7.09413 5.54329 5.73067C6.86707 4.36722 8.58847 3.45779 10.4608 3.13269ZM1.83576 19.9865C1.29099 19.8957 0.922967 19.3804 1.01376 18.8357L1.51376 15.8357C1.55736 15.5741 1.7031 15.3405 1.91891 15.1863C2.13473 15.0322 2.40294 14.9701 2.66455 15.0137L5.66436 15.5136C6.20913 15.6044 6.57715 16.1197 6.48635 16.6644C6.39556 17.2092 5.88033 17.5772 5.33556 17.4864L4.79656 17.3966C5.64608 18.5304 6.75556 19.4532 8.03966 20.0823C9.7448 20.9176 11.6705 21.1923 13.5412 20.867C15.4119 20.5416 17.1317 19.633 18.4548 18.271C19.7778 16.9091 20.6361 15.1635 20.9071 13.2842C20.9859 12.7376 21.4929 12.3583 22.0395 12.4371C22.5862 12.5159 22.9654 13.0229 22.8866 13.5696C22.5555 15.8665 21.5064 18 19.8893 19.6646C18.2723 21.3292 16.1702 22.4398 13.8838 22.8374C11.5974 23.235 9.24383 22.8993 7.15977 21.8783C5.54275 21.0861 4.15226 19.9129 3.10244 18.4691L2.98655 19.1645C2.89576 19.7092 2.38053 20.0772 1.83576 19.9865ZM16.5519 12.6437C17.1494 12.4226 17.1494 11.5774 16.5518 11.3563L15.6724 11.0309C14.42 10.5675 13.4325 9.58001 12.9691 8.3276L12.6437 7.44815C12.4226 6.85062 11.5774 6.85062 11.3563 7.44815L11.0309 8.3276C10.5675 9.58001 9.58001 10.5675 8.3276 11.0309L7.44815 11.3563C6.85062 11.5774 6.85062 12.4226 7.44815 12.6437L8.3276 12.9691C9.58001 13.4325 10.5675 14.42 11.0309 15.6724L11.3563 16.5519C11.5774 17.1494 12.4226 17.1494 12.6437 16.5519L12.9691 15.6724C13.4325 14.42 14.42 13.4325 15.6724 12.9691L16.5519 12.6437Z" fill="currentColor"/>
</svg>
