<svg width="24" height="24" viewBox="0 0 24 24" fill="none" xmlns="http://www.w3.org/2000/svg">
<path d="M18 1C19.6569 1 21 2.34315 21 4V20C21 21.6569 19.6569 23 18 23H6C4.34315 23 3 21.6569 3 20V4C3 2.34315 4.34315 1 6 1H18ZM12.541 10.9766C12.3553 10.4748 11.6459 10.475 11.46 10.9766L11.1865 11.7148C10.7973 12.7666 9.96764 13.596 8.91602 13.9854L8.17676 14.2588C7.67509 14.4446 7.67506 15.155 8.17676 15.3408L8.91602 15.6133C9.96782 16.0026 10.7973 16.8329 11.1865 17.8848L11.46 18.623C11.6457 19.125 12.3553 19.125 12.541 18.623L12.8145 17.8848C13.2038 16.833 14.0332 16.0025 15.085 15.6133L15.8242 15.3408C16.3255 15.1548 16.3255 14.4447 15.8242 14.2588L15.085 13.9854C14.0332 13.596 13.2037 12.7667 12.8145 11.7148L12.541 10.9766ZM7.37109 7.28809C7.27824 7.03731 6.92315 7.03752 6.83008 7.28809L6.69336 7.65723C6.49881 8.18299 6.08425 8.59822 5.55859 8.79297L5.18848 8.92969C4.93814 9.02274 4.93819 9.37662 5.18848 9.46973L5.55859 9.60645C6.08431 9.80114 6.49876 10.2164 6.69336 10.7422L6.83008 11.1113C6.92294 11.3623 7.27823 11.3623 7.37109 11.1113L7.50781 10.7422C7.70248 10.2165 8.11685 9.80107 8.64258 9.60645L9.0127 9.46973C9.26252 9.37643 9.26267 9.02283 9.0127 8.92969L8.64258 8.79297C8.11674 8.59828 7.70241 8.18311 7.50781 7.65723L7.37109 7.28809ZM16.5615 5.25098C16.4377 4.91655 15.9639 4.91676 15.8398 5.25098L15.6582 5.74316C15.3988 6.4442 14.8454 6.99718 14.1445 7.25684L13.6514 7.43945C13.3172 7.56341 13.3173 8.03614 13.6514 8.16016L14.1445 8.34277C14.8455 8.60239 15.3988 9.15535 15.6582 9.85645L15.8398 10.3486C15.9637 10.6832 16.4377 10.6832 16.5615 10.3486L16.7432 9.85645C17.0027 9.15542 17.5558 8.60231 18.2568 8.34277L18.75 8.16016C19.0836 8.03594 19.0838 7.5635 18.75 7.43945L18.2568 7.25684C17.5557 6.99724 17.0026 6.44434 16.7432 5.74316L16.5615 5.25098Z" fill="currentColor"/>
</svg>
