<svg width="24" height="24" viewBox="0 0 24 24" fill="none" xmlns="http://www.w3.org/2000/svg">
<path d="M16.3486 1.36816C16.1804 1.8224 15.8224 2.18043 15.3682 2.34863L14.664 2.60938C13.9373 2.87841 13.4499 3.39662 13.1992 4H7.99999C7.4477 4 6.99999 4.44772 6.99999 5V7C6.99999 7.55229 7.4477 8 7.99999 8H15.9277C16.1125 8.17377 16.2585 8.38835 16.3486 8.63184L16.6094 9.33594C17.1617 10.8281 18.7612 11.3146 20 10.7998V20C20 21.6568 18.6568 22.9999 17 23H6.99999C6.10542 23 5.30451 22.6064 4.75487 21.9854C5.76868 22.085 6.83917 21.5661 7.26171 20.4248L7.42089 19.9922C7.44669 19.9963 7.47302 20 7.49999 20H12.5C12.7761 19.9999 13 19.7761 13 19.5V18.5C13 18.2239 12.7761 18.0001 12.5 18H9.78905C10.2346 16.9971 9.97095 15.7253 8.99999 15.041V14.5C8.99999 14.2239 8.77608 14.0001 8.49999 14H7.49999C7.47307 14 7.44665 14.0027 7.42089 14.0068L7.26171 13.5752C6.73119 12.1417 5.17894 11.6881 3.99999 12.2119V4C3.99999 2.34315 5.34313 1 6.99999 1H16.4853L16.3486 1.36816ZM4.61327 14.2686C4.74597 13.9103 5.25285 13.9105 5.38573 14.2686L5.58104 14.7969C5.85912 15.5482 6.45175 16.1409 7.20311 16.4189L7.73143 16.6143C8.08923 16.7472 8.08923 17.2528 7.73143 17.3857L7.20311 17.5811C6.45175 17.8591 5.85912 18.4518 5.58104 19.2031L5.38573 19.7314C5.25285 20.0895 4.74598 20.0897 4.61327 19.7314L4.41796 19.2031C4.13986 18.452 3.54805 17.8591 2.79686 17.5811L2.26854 17.3857C1.91049 17.2529 1.91049 16.7471 2.26854 16.6143L2.79686 16.4189C3.54805 16.1409 4.13986 15.548 4.41796 14.7969L4.61327 14.2686ZM15.5 18C15.2238 18 15 18.2239 15 18.5V19.5C15 19.7761 15.2238 20 15.5 20H16.5C16.7761 19.9999 17 19.7761 17 19.5V18.5C17 18.2239 16.7761 18.0001 16.5 18H15.5ZM11.5 14C11.2238 14 11 14.2239 11 14.5V15.5C11 15.7761 11.2238 16 11.5 16H12.5C12.7761 15.9999 13 15.7761 13 15.5V14.5C13 14.2239 12.7761 14.0001 12.5 14H11.5ZM15.5 14C15.2238 14 15 14.2239 15 14.5V15.5C15 15.7761 15.2238 16 15.5 16H16.5C16.7761 15.9999 17 15.7761 17 15.5V14.5C17 14.2239 16.7761 14.0001 16.5 14H15.5ZM7.49999 10C7.22384 10 6.99999 10.2239 6.99999 10.5V11.5C6.99999 11.7761 7.22384 12 7.49999 12H8.49999C8.77608 11.9999 8.99999 11.7761 8.99999 11.5V10.5C8.99999 10.2239 8.77608 10.0001 8.49999 10H7.49999ZM11.5 10C11.2238 10 11 10.2239 11 10.5V11.5C11 11.7761 11.2238 12 11.5 12H12.5C12.7761 11.9999 13 11.7761 13 11.5V10.5C13 10.2239 12.7761 10.0001 12.5 10H11.5ZM15.5 10C15.2238 10 15 10.2239 15 10.5V11.5C15 11.7761 15.2238 12 15.5 12H16.5C16.7761 11.9999 17 11.7761 17 11.5V10.5C17 10.2239 16.7761 10.0001 16.5 10H15.5ZM18.4853 1.3584C18.6623 0.880666 19.3377 0.880617 19.5146 1.3584L19.7754 2.0625C20.1462 3.06412 20.9358 3.85387 21.9375 4.22461L22.6416 4.48535C23.1192 4.66237 23.1192 5.33763 22.6416 5.51465L21.9375 5.77539C20.9358 6.14613 20.1462 6.93588 19.7754 7.9375L19.5146 8.6416C19.3377 9.11939 18.6623 9.11934 18.4853 8.6416L18.2246 7.9375C17.8538 6.93575 17.0633 6.14609 16.0615 5.77539L15.3584 5.51465C14.8805 5.33772 14.8805 4.66228 15.3584 4.48535L16.0615 4.22461C17.0633 3.85391 17.8538 3.06426 18.2246 2.0625L18.4853 1.3584Z" fill="currentColor"/>
</svg>
