<svg width="24" height="24" viewBox="0 0 24 24" fill="none" xmlns="http://www.w3.org/2000/svg">
<path fill-rule="evenodd" clip-rule="evenodd" d="M1 7.52066V18C1 19.6569 2.34315 21 4 21H13.8308L13.7093 20.955C11.4302 20.1117 11.4302 16.8883 13.7093 16.045L14.5008 15.7521C15.0805 15.5376 15.5376 15.0805 15.7521 14.5008L16.045 13.7093C16.8883 11.4303 20.1117 11.4302 20.955 13.7093L21.2479 14.5008C21.4624 15.0805 21.9195 15.5376 22.4992 15.7521L23 15.9374V7.52066L13.7204 14.0164C12.6874 14.7395 11.3126 14.7395 10.2796 14.0164L1 7.52066ZM22.8815 5.16231C22.5189 3.91311 21.3661 3 20 3H4C2.63389 3 1.48105 3.91311 1.11852 5.16231L11.4265 12.3779C11.7709 12.6189 12.2291 12.6189 12.5735 12.3779L22.8815 5.16231ZM22.5967 19.0793C23.1344 18.8803 23.1344 18.1197 22.5967 17.9207L21.8052 17.6278C20.678 17.2107 19.7893 16.322 19.3722 15.1948L19.0793 14.4033C18.8803 13.8656 18.1197 13.8656 17.9207 14.4033L17.6278 15.1948C17.2107 16.322 16.322 17.2107 15.1948 17.6278L14.4033 17.9207C13.8656 18.1197 13.8656 18.8803 14.4033 19.0793L15.1948 19.3722C16.322 19.7893 17.2107 20.678 17.6278 21.8052L17.9207 22.5967C18.1197 23.1344 18.8803 23.1344 19.0793 22.5967L19.3722 21.8052C19.7893 20.678 20.678 19.7893 21.8052 19.3722L22.5967 19.0793Z" fill="currentColor"/>
</svg>
