<svg width="24" height="24" viewBox="0 0 24 24" fill="none" xmlns="http://www.w3.org/2000/svg">
<path d="M12 1C13.5205 1 14.9689 1.3084 16.2861 1.86621C14.4828 2.79663 14.5741 5.52043 16.5732 6.26172L16.5781 6.26367L17.1025 6.45703C17.28 6.52276 17.4261 6.65414 17.5107 6.82324L17.543 6.89844L17.7363 7.42285L17.7373 7.42578C17.9466 7.99107 18.3399 8.41418 18.7969 8.67676L18.9189 8.74316C18.9375 8.7526 18.9567 8.7637 18.9775 8.77344L19.3799 8.96191H19.6104C20.5478 9.10857 21.6124 8.72334 22.1328 7.71289C22.6909 9.0304 23 10.4791 23 12C23 18.0751 18.0751 23 12 23C5.92487 23 1 18.0751 1 12C1 5.92487 5.92487 1 12 1ZM8.79688 13.8955C8.4647 13.4575 7.84075 13.3701 7.40039 13.7002C6.95861 14.0315 6.86896 14.6578 7.2002 15.0996L7.20117 15.1016L7.20215 15.1025L7.20508 15.1064L7.21191 15.1162L7.2334 15.1436C7.25062 15.1653 7.27446 15.1937 7.30371 15.2285C7.36236 15.2984 7.44531 15.3938 7.55176 15.5049C7.76382 15.7261 8.07396 16.0172 8.47461 16.3086C9.27255 16.8889 10.4745 17.5 12 17.5C13.5255 17.5 14.7275 16.8889 15.5254 16.3086C15.926 16.0172 16.2362 15.7261 16.4482 15.5049C16.5547 15.3938 16.6376 15.2984 16.6963 15.2285C16.7255 15.1937 16.7494 15.1653 16.7666 15.1436L16.7881 15.1162L16.7949 15.1064L16.7979 15.1025L16.7988 15.1016L16.7998 15.0996C17.131 14.6578 17.0414 14.0315 16.5996 13.7002C16.1592 13.3701 15.5353 13.4575 15.2031 13.8955L15.1982 13.9014C15.1923 13.9089 15.1816 13.9236 15.165 13.9434C15.1319 13.9828 15.0779 14.0439 15.0049 14.1201C14.8576 14.2738 14.6362 14.483 14.3496 14.6914C13.7725 15.1111 12.9745 15.5 12 15.5C11.0255 15.5 10.2275 15.1111 9.65039 14.6914C9.36384 14.483 9.1424 14.2738 8.99512 14.1201C8.92208 14.0439 8.86806 13.9828 8.83496 13.9434C8.81842 13.9236 8.80771 13.9089 8.80176 13.9014L8.79688 13.8955ZM9 8C8.17157 8 7.5 8.67157 7.5 9.5C7.5 10.3284 8.17157 11 9 11C9.82843 11 10.5 10.3284 10.5 9.5C10.5 8.67157 9.82843 8 9 8ZM15 8C14.1716 8 13.5 8.67157 13.5 9.5C13.5 10.3284 14.1716 11 15 11C15.8284 11 16.5 10.3284 16.5 9.5C16.5 8.67157 15.8284 8 15 8ZM18.9238 8.74512L18.9189 8.74316L18.917 8.74219C18.9192 8.74329 18.9216 8.74401 18.9238 8.74512ZM18.8389 8.70215C18.8617 8.71504 18.8886 8.72773 18.917 8.74219C18.879 8.72306 18.8457 8.70482 18.8174 8.68848C18.8245 8.69261 18.8313 8.69785 18.8389 8.70215ZM18.8145 8.6875L18.8174 8.68848C18.811 8.68477 18.8048 8.68128 18.7988 8.67773L18.7969 8.67676C18.8026 8.68016 18.8084 8.68396 18.8145 8.6875ZM18.7285 8.63574C18.7335 8.63898 18.7394 8.64184 18.7451 8.64551C18.7209 8.62999 18.7006 8.61671 18.6885 8.6084C18.6983 8.6151 18.7119 8.62493 18.7285 8.63574ZM19.6133 1.26855C19.7461 0.910488 20.2539 0.910478 20.3867 1.26855L20.582 1.79688C20.5994 1.84367 20.618 1.89002 20.6377 1.93555L20.7539 2.16992L20.7705 2.20117C21.0876 2.75895 21.5927 3.19293 22.2031 3.41895L22.7314 3.61426C22.9729 3.70389 23.0501 3.96281 22.9658 4.16309C22.9642 4.16711 22.9637 4.1718 22.9619 4.17578C22.9604 4.17918 22.9581 4.1824 22.9561 4.18555C22.9131 4.27247 22.8389 4.3469 22.7314 4.38672L22.2031 4.58105C21.4519 4.85915 20.8601 5.45291 20.582 6.2041L20.3867 6.73145C20.2957 6.9772 20.0288 7.05315 19.8271 6.96191H19.8242C19.8215 6.96064 19.8191 6.95835 19.8164 6.95703C19.7286 6.91417 19.6534 6.83973 19.6133 6.73145L19.4189 6.2041C19.1409 5.4528 18.5481 4.85917 17.7969 4.58105L17.2686 4.38672C16.9104 4.25396 16.9106 3.74717 17.2686 3.61426L17.7969 3.41895C18.548 3.14083 19.1409 2.54804 19.4189 1.79688L19.6133 1.26855Z" fill="currentColor"/>
</svg>
