<svg width="24" height="24" viewBox="0 0 24 24" fill="none" xmlns="http://www.w3.org/2000/svg">
<path fill-rule="evenodd" clip-rule="evenodd" d="M18.5148 2.35852C18.3379 1.88049 17.6618 1.88049 17.4849 2.35852L17.2246 3.06208C16.8538 4.06401 16.0639 4.85397 15.062 5.22472L14.3584 5.48506C13.8804 5.66194 13.8804 6.33806 14.3584 6.51494L15.062 6.77528C16.0639 7.14603 16.8538 7.93599 17.2246 8.93792L17.4849 9.64148C17.6618 10.1195 18.3379 10.1195 18.5148 9.64148L18.7752 8.93792C19.1459 7.93599 19.9359 7.14603 20.9378 6.77528L21.6414 6.51494C22.1194 6.33806 22.1194 5.66194 21.6414 5.48506L20.9378 5.22472C19.9359 4.85397 19.1459 4.06401 18.7752 3.06208L18.5148 2.35852ZM7.73111 7.61379C8.08963 7.74646 8.08963 8.25354 7.73111 8.38621L7.20344 8.58146C6.45199 8.85952 5.85952 9.45199 5.58146 10.2034L5.38621 10.7311C5.25354 11.0896 4.74646 11.0896 4.61379 10.7311L4.41854 10.2034C4.14048 9.45199 3.54801 8.85952 2.79656 8.58146L2.26889 8.38621C1.91037 8.25354 1.91037 7.74646 2.26889 7.61379L2.79656 7.41854C3.54801 7.14048 4.14048 6.54801 4.41854 5.79656L4.61379 5.26889C4.74646 4.91037 5.25354 4.91037 5.38621 5.26889L5.58146 5.79656C5.85952 6.54801 6.45199 7.14048 7.20344 7.41854L7.73111 7.61379ZM17.4622 15.2276C18.1793 15.4929 18.1793 16.5071 17.4622 16.7724L16.4069 17.1629C14.904 17.719 13.719 18.904 13.1629 20.4069L12.7724 21.4622C12.5071 22.1793 11.4929 22.1793 11.2276 21.4622L10.8371 20.4069C10.281 18.904 9.09602 17.719 7.59312 17.1629L6.53778 16.7724C5.82074 16.5071 5.82074 15.4929 6.53778 15.2276L7.59312 14.8371C9.09602 14.281 10.281 13.096 10.8371 11.5931L11.2276 10.5378C11.4929 9.82074 12.5071 9.82074 12.7724 10.5378L13.1629 11.5931C13.719 13.096 14.904 14.281 16.4069 14.8371L17.4622 15.2276Z" fill="currentColor"/>
</svg>
