<svg width="24" height="24" viewBox="0 0 24 24" fill="none" xmlns="http://www.w3.org/2000/svg">
<path d="M13.7568 0.999987C14.292 1.0001 14.8049 1.21461 15.1807 1.59569L20.4248 6.91601C20.7935 7.29019 21 7.79498 21 8.32031V20C21 21.6569 19.6568 23 18 23H5.99999C4.34313 23 2.99999 21.6569 2.99999 20V8.78417L3.38377 8.96191H3.61034C4.63236 9.12181 5.8089 8.6514 6.26268 7.42577L6.45799 6.89843C6.53434 6.69229 6.69582 6.53171 6.89745 6.45702L6.89647 6.45605L7.42186 6.26366L7.42577 6.26269C7.98439 6.05575 8.40551 5.66903 8.66893 5.21776C8.68801 5.18636 8.71299 5.14118 8.7412 5.08593C8.74352 5.08131 8.74672 5.07688 8.74901 5.07226L8.74803 5.07128C8.75788 5.05163 8.76919 5.03078 8.77928 5.00878C8.82778 4.90295 8.85922 4.81313 8.87694 4.75487C8.87821 4.75069 8.87869 4.74616 8.87987 4.74218C9.2232 3.65686 8.79386 2.24647 7.42772 1.73925L7.42479 1.73827L6.89647 1.54296C6.73877 1.48406 6.60611 1.37241 6.51952 1.2285L6.45995 1.10839L6.45799 1.10253L6.41991 0.999987H13.7568ZM6.99999 17C6.44771 17 6 17.4477 5.99999 18C5.99999 18.5523 6.4477 19 6.99999 19H17C17.5523 19 18 18.5523 18 18C18 17.4477 17.5523 17 17 17H6.99999ZM6.99999 13C6.44771 13 6 13.4477 5.99999 14C5.99999 14.5523 6.4477 15 6.99999 15H17C17.5523 15 18 14.5523 18 14C18 13.4477 17.5523 13 17 13H6.99999ZM6.99999 8.99999C6.44771 8.99999 6 9.44772 5.99999 9.99999C5.99999 10.5523 6.4477 11 6.99999 11H8.99999C9.55226 11 9.99999 10.5523 9.99999 9.99999C9.99998 9.44772 9.55226 9 8.99999 8.99999H6.99999ZM15 5.99999C15 6.55228 15.4477 6.99999 16 6.99999H19L15 2.99999V5.99999ZM3.61327 1.26854C3.7461 0.910468 4.25388 0.910463 4.3867 1.26854L4.58202 1.79686C4.59934 1.84366 4.61796 1.89 4.63768 1.93553L4.75389 2.16991L4.77049 2.20116C5.08755 2.75894 5.59269 3.19292 6.20311 3.41893L6.73143 3.61425C6.97292 3.70388 7.05014 3.9628 6.96581 4.16308C6.96416 4.1671 6.96369 4.17179 6.9619 4.17577C6.96034 4.17917 6.95811 4.18239 6.95604 4.18554C6.91305 4.27247 6.83888 4.34689 6.73143 4.38671L6.20311 4.58104C5.45192 4.85914 4.8601 5.4529 4.58202 6.20409L4.3867 6.73144C4.29571 6.97719 4.02876 7.05315 3.82713 6.96191H3.8242C3.82147 6.96063 3.81911 6.95835 3.81639 6.95702C3.72862 6.91417 3.65336 6.83972 3.61327 6.73144L3.41893 6.20409C3.14088 5.45279 2.54814 4.85916 1.79686 4.58104L1.26854 4.38671C0.910417 4.25395 0.910557 3.74716 1.26854 3.61425L1.79686 3.41893C2.54801 3.14083 3.14086 2.54803 3.41893 1.79686L3.61327 1.26854ZM20.7422 2.17968C20.8307 1.94076 21.1693 1.94075 21.2578 2.17968L21.3877 2.53124C21.5731 3.03202 21.968 3.42689 22.4687 3.61229L22.8203 3.74218C23.0593 3.83062 23.0593 4.16934 22.8203 4.2578L22.4687 4.38769C21.968 4.57306 21.5731 4.96801 21.3877 5.46874L21.2578 5.8203C21.1694 6.05933 20.8306 6.05933 20.7422 5.8203L20.6123 5.46874C20.4269 4.96801 20.032 4.57306 19.5312 4.38769L19.1797 4.2578C18.9407 4.16935 18.9407 3.83062 19.1797 3.74218L19.5312 3.61229C20.032 3.42689 20.4269 3.03202 20.6123 2.53124L20.7422 2.17968Z" fill="currentColor"/>
</svg>
