<svg width="24" height="24" viewBox="0 0 24 24" fill="none" xmlns="http://www.w3.org/2000/svg">
<path d="M13.7569 1.00013C14.292 1.00024 14.8049 1.21477 15.1807 1.59583L20.4248 6.91611C20.7935 7.29029 21 7.79509 21 8.3204V11.876C19.8971 11.0138 18.5085 10.5001 17 10.5001C14.9187 10.5001 13.0657 11.4783 11.876 13.0001H7.00001C6.44775 13.0001 6.00003 13.4478 6.00001 14.0001C6.00001 14.5523 6.44774 15 7.00001 15H10.8135C10.61 15.6301 10.5 16.3022 10.5 17H7.00001C6.44775 17.0001 6.00003 17.4478 6.00001 18C6.00001 18.5523 6.44774 19 7.00001 19H10.8135C11.3981 20.8097 12.7547 22.2726 14.4951 23H6.00001C4.34317 23 3.00001 21.6569 3.00001 20V8.78817C4.17828 9.31213 5.72931 8.8595 6.26075 7.42783L6.45704 6.90049L6.45802 6.89756C6.53413 6.69227 6.69523 6.53206 6.89747 6.45713L6.89649 6.45616L7.42384 6.2628L7.42481 6.26182C9.5246 5.48484 9.52458 2.51539 7.42481 1.73841L7.42384 1.73743L6.89649 1.5431C6.69415 1.46811 6.53406 1.30792 6.45802 1.10267L6.45704 1.09974L6.41993 1.00013H13.7569ZM17 12.5001C19.4853 12.5001 21.5 14.5148 21.5 17C21.5 17.8806 21.2467 18.7018 20.8096 19.3955L21.7071 20.293C22.0976 20.6835 22.0976 21.3165 21.7071 21.707C21.3165 22.0976 20.6835 22.0976 20.293 21.707L19.3955 20.8096C18.7018 21.2467 17.8806 21.5 17 21.5C14.5148 21.5 12.5 19.4853 12.5 17C12.5 14.5148 14.5148 12.5001 17 12.5001ZM17 14.5001C15.6193 14.5001 14.5 15.6194 14.5 17C14.5 18.3807 15.6193 19.5 17 19.5C18.3807 19.5 19.5 18.3807 19.5 17C19.5 15.6194 18.3807 14.5001 17 14.5001ZM7.00001 9.00008C6.44775 9.0001 6.00003 9.44782 6.00001 10.0001C6.00001 10.5524 6.44774 11.0001 7.00001 11.0001H9.00001C9.5523 11.0001 10 10.5524 10 10.0001C10 9.44781 9.55229 9.00008 9.00001 9.00008H7.00001ZM3.61329 1.26869C3.74604 0.910397 4.25397 0.910398 4.38673 1.26869L4.58204 1.797C4.59938 1.84385 4.61796 1.8901 4.6377 1.93567L4.75391 2.17005L4.77052 2.2013C5.08757 2.75909 5.59269 3.19305 6.20313 3.41906L6.73145 3.61438C6.973 3.70403 7.05026 3.9629 6.96583 4.1632C6.96416 4.16728 6.96377 4.17188 6.96192 4.1759C6.96034 4.17934 6.95816 4.18247 6.95606 4.18566C6.91306 4.27261 6.83894 4.34702 6.73145 4.38683L6.20313 4.58117C5.4519 4.85928 4.8601 5.45295 4.58204 6.2042L4.38673 6.73154C4.29573 6.9773 4.02878 7.05326 3.82715 6.96201H3.82423C3.82147 6.96074 3.81915 6.95846 3.81641 6.95713C3.72862 6.91427 3.65338 6.83984 3.61329 6.73154L3.41895 6.2042C3.14092 5.45284 2.5482 4.8593 1.79688 4.58117L1.26856 4.38683C0.910398 4.25409 0.910563 3.74729 1.26856 3.61438L1.79688 3.41906C2.54807 3.14097 3.14087 2.54819 3.41895 1.797L3.61329 1.26869ZM15 6.0001C15 6.55238 15.4477 7.00008 16 7.0001H19L15 3.00012V6.0001ZM20.7422 2.17981C20.8307 1.94079 21.1694 1.94079 21.2578 2.17981L21.3877 2.53137C21.5731 3.03216 21.968 3.42702 22.4688 3.61242L22.8203 3.7423C23.0594 3.83075 23.0594 4.16948 22.8203 4.25793L22.4688 4.38781C21.968 4.57319 21.5731 4.9681 21.3877 5.46886L21.2578 5.82042C21.1694 6.05944 20.8307 6.05944 20.7422 5.82042L20.6123 5.46886C20.4269 4.9681 20.032 4.57319 19.5313 4.38781L19.1797 4.25793C18.9407 4.16948 18.9407 3.83075 19.1797 3.7423L19.5313 3.61242C20.0321 3.42703 20.4269 3.03217 20.6123 2.53137L20.7422 2.17981Z" fill="currentColor"/>
</svg>
