<svg width="24" height="24" viewBox="0 0 24 24" fill="none" xmlns="http://www.w3.org/2000/svg">
<path fill-rule="evenodd" clip-rule="evenodd" d="M22.5967 6.07931C23.1344 5.88031 23.1344 5.11969 22.5967 4.92069L21.8052 4.62781C20.678 4.21072 19.7893 3.32201 19.3722 2.19484L19.0793 1.40333C18.8803 0.865555 18.1197 0.865556 17.9207 1.40333L17.6278 2.19484C17.2107 3.32201 16.322 4.21072 15.1948 4.62781L14.4033 4.92069C13.8656 5.11969 13.8656 5.88031 14.4033 6.07931L15.1948 6.37219C16.322 6.78928 17.2107 7.67799 17.6278 8.80516L17.9207 9.59667C18.1197 10.1344 18.8803 10.1344 19.0793 9.59667L19.3722 8.80516C19.7893 7.67799 20.678 6.78928 21.8052 6.37219L22.5967 6.07931ZM21 20.375V10.1692L20.955 10.2907C20.1117 12.5698 16.8883 12.5698 16.045 10.2907L15.7521 9.49923C15.5376 8.9195 15.0805 8.46242 14.5008 8.2479L13.7093 7.95501C12.382 7.46386 11.8277 6.16541 12.0464 5H5.625C4.17525 5 3 6.17525 3 7.625V20.375C3 21.8247 4.17525 23 5.625 23H18.375C19.8247 23 21 21.8247 21 20.375ZM8.39535 13.3298C9.38617 13.3298 10.1894 12.5265 10.1894 11.5357C10.1894 10.5449 9.38617 9.7417 8.39535 9.7417C7.40453 9.7417 6.60132 10.5449 6.60132 11.5357C6.60132 12.5265 7.40453 13.3298 8.39535 13.3298ZM14.0007 12.7134L19.0149 19.3656C19.3687 19.835 19.0338 20.5067 18.4461 20.5067H12.0721C12.0596 20.5074 12.047 20.5077 12.0343 20.5077H5.52204C4.94017 20.5077 4.60376 19.8478 4.94556 19.3769L8.20168 14.8909C8.48611 14.499 9.07021 14.499 9.35464 14.8909L10.2706 16.1528L12.8631 12.7134C13.148 12.3353 13.7157 12.3353 14.0007 12.7134Z" fill="currentColor"/>
</svg>
