<svg width="24" height="24" viewBox="0 0 24 24" fill="none" xmlns="http://www.w3.org/2000/svg">
<path d="M14 1C15.6569 1 17 2.34315 17 4V9H20C21.6569 9 23 10.3431 23 12V20C23 21.6569 21.6569 23 20 23H12C10.3431 23 9 21.6569 9 20V17H4C2.34315 17 1 15.6569 1 14V4C1 2.34315 2.34315 1 4 1H14ZM4 3C3.44772 3 3 3.44772 3 4V14C3 14.5523 3.44772 15 4 15H14C14.5523 15 15 14.5523 15 14V4C15 3.44772 14.5523 3 14 3H4ZM9 3.5C9.55228 3.5 10 3.94772 10 4.5V4.7002H12.5L12.6025 4.70508C13.1067 4.75642 13.5 5.18253 13.5 5.7002C13.4999 6.21776 13.1066 6.64399 12.6025 6.69531L12.5 6.7002H11.8125C11.7347 6.97831 11.6369 7.31587 11.5176 7.68164C11.2756 8.4229 10.9295 9.34412 10.4941 10.1406C10.5324 10.1616 10.5636 10.1785 10.5859 10.1904C10.5999 10.1979 10.6106 10.2036 10.6172 10.207C10.6204 10.2087 10.624 10.2109 10.624 10.2109C11.1148 10.4639 11.3084 11.0668 11.0557 11.5576C10.8027 12.0484 10.1999 12.2411 9.70898 11.9883L9.70215 11.9854C9.70215 11.9854 9.69468 11.9813 9.68945 11.9785C9.67872 11.9729 9.66321 11.965 9.64453 11.9551C9.60714 11.9351 9.55445 11.9067 9.49023 11.8711C9.43203 11.8388 9.36569 11.7969 9.29004 11.7529C8.73734 12.3241 8.11378 12.8447 7.58496 13.252C7.16246 13.5773 6.77669 13.8496 6.49707 14.04C6.35747 14.1351 6.24328 14.2105 6.16308 14.2627C6.12296 14.2888 6.09053 14.3101 6.06836 14.3242C6.05779 14.331 6.04906 14.336 6.04297 14.3398C6.04 14.3417 6.03696 14.3436 6.03516 14.3447L6.0332 14.3467H6.03125C5.56353 14.6398 4.9468 14.4988 4.65332 14.0312C4.35992 13.5635 4.50105 12.9468 4.96875 12.6533L4.97266 12.6504C4.97658 12.6479 4.98352 12.6442 4.99219 12.6387C5.00961 12.6275 5.03637 12.6097 5.07129 12.5869C5.1412 12.5414 5.24384 12.4734 5.37109 12.3867C5.62673 12.2126 5.97948 11.9642 6.36426 11.668C6.80581 11.328 7.26102 10.9438 7.66015 10.5547C7.29619 10.1678 6.96976 9.65246 6.75195 9.2793C6.63321 9.07583 6.53406 8.89276 6.46484 8.76074C6.43025 8.69475 6.40208 8.64079 6.38281 8.60254C6.37321 8.58348 6.36574 8.56752 6.36035 8.55664L6.35449 8.54395L6.35156 8.53809C6.1103 8.04174 6.31627 7.44194 6.8125 7.2002C7.30857 6.95896 7.90637 7.16551 8.14844 7.66113L8.14941 7.66211C8.14941 7.66211 8.15165 7.66656 8.15332 7.66992C8.15672 7.67679 8.16181 7.68797 8.16894 7.70215C8.1839 7.73183 8.20715 7.77734 8.23633 7.83301C8.29502 7.94495 8.37948 8.10013 8.47949 8.27148C8.60921 8.49372 8.75123 8.714 8.88672 8.89941C9.16367 8.3379 9.41439 7.67988 9.61621 7.06152C9.6567 6.93746 9.69205 6.81582 9.72754 6.7002H5.5C4.9478 6.7002 4.50013 6.25237 4.5 5.7002C4.5 5.14791 4.94771 4.7002 5.5 4.7002H8V4.5C8 3.94772 8.44771 3.5 9 3.5ZM20.7422 2.17969C20.8307 1.94077 21.1693 1.94076 21.2578 2.17969L21.3877 2.53125C21.5731 3.03202 21.968 3.4269 22.4687 3.6123L22.8203 3.74219C23.0593 3.83063 23.0593 4.16935 22.8203 4.25781L22.4687 4.3877C21.968 4.57307 21.5731 4.96802 21.3877 5.46875L21.2578 5.82031C21.1694 6.05933 20.8306 6.05933 20.7422 5.82031L20.6123 5.46875C20.4269 4.96802 20.032 4.57307 19.5312 4.3877L19.1797 4.25781C18.9407 4.16936 18.9407 3.83063 19.1797 3.74219L19.5312 3.6123C20.032 3.4269 20.4269 3.03203 20.6123 2.53125L20.7422 2.17969ZM12.084 19.5996C11.8629 20.1055 12.0937 20.6947 12.5996 20.916C13.1055 21.1371 13.6947 20.9063 13.916 20.4004L14.8203 18.333H18.1797L19.084 20.4004L19.1299 20.4922C19.3789 20.9336 19.9261 21.1233 20.4004 20.916C20.8746 20.7085 21.1072 20.1777 20.9521 19.6953L20.916 19.5996L17.416 11.5996C17.3288 11.4004 17.1806 11.2414 17 11.1367V14C17 14.3999 16.9203 14.781 16.7783 15.1299L17.3047 16.333H15.8848C15.3696 16.7497 14.7142 17 14 17H13.2217L12.084 19.5996Z" fill="currentColor"/>
<path d="M4.82177 18.2238C4.71107 17.9254 4.28786 17.9254 4.17715 18.2238L4.01519 18.6642C3.78343 19.2902 3.28933 19.7843 2.66328 20.0161L2.22296 20.1788C1.9246 20.2896 1.92448 20.712 2.22296 20.8226L2.66328 20.9846C3.28943 21.2164 3.78344 21.7112 4.01519 22.3373L4.17715 22.7768C4.21057 22.8671 4.27329 22.9291 4.34645 22.9648C4.34871 22.966 4.35068 22.9679 4.35296 22.9689H4.3554C4.52344 23.045 4.74593 22.9817 4.82177 22.7768L4.98455 22.3373C5.21631 21.7112 5.70957 21.2164 6.33564 20.9846L6.77596 20.8226C6.86552 20.7895 6.92733 20.7274 6.96316 20.655C6.96489 20.6524 6.96675 20.6497 6.96805 20.6468C6.96954 20.6435 6.96993 20.6396 6.9713 20.6363C7.04159 20.4693 6.97723 20.2535 6.77596 20.1788L6.33564 20.0161C5.82689 19.8277 5.40588 19.466 5.14163 19.0011L5.1278 18.9751L5.03094 18.7797C5.01451 18.7418 4.99899 18.7032 4.98455 18.6642L4.82177 18.2238Z" fill="currentColor"/>
</svg>
