<svg width="24" height="24" viewBox="0 0 24 24" fill="none" xmlns="http://www.w3.org/2000/svg">
<path d="M13.875 11.75C14.2337 11.75 14.4962 11.9106 14.6377 12.0215C14.7837 12.1359 14.8869 12.2642 14.9502 12.3516C15.0174 12.4444 15.068 12.5315 15.1006 12.5918C15.1174 12.623 15.1314 12.65 15.1416 12.6709C15.1461 12.6801 15.15 12.6883 15.1533 12.6953L18.9033 20.5703L18.9424 20.665C19.1126 21.1422 18.897 21.6808 18.4297 21.9033C17.9311 22.1405 17.3341 21.9282 17.0967 21.4297L15.9395 19H11.8105L10.6533 21.4297C10.4159 21.9282 9.81887 22.1405 9.32031 21.9033C8.8218 21.6659 8.60952 21.0689 8.84668 20.5703L12.5967 12.6953C12.6 12.6883 12.6039 12.6801 12.6084 12.6709C12.6186 12.65 12.6326 12.623 12.6494 12.5918C12.682 12.5315 12.7326 12.4444 12.7998 12.3516C12.8631 12.2642 12.9663 12.1359 13.1123 12.0215C13.2538 11.9106 13.5163 11.75 13.875 11.75ZM7.5 6.5C8.05228 6.5 8.5 6.94771 8.5 7.5V8H12C12.5523 8 13 8.44771 13 9C13 9.55228 12.5523 10 12 10H10.8936C10.7879 10.3764 10.6434 10.8665 10.4619 11.4072C10.13 12.396 9.65197 13.6248 9.05078 14.6396C9.11686 14.6764 9.17584 14.7118 9.22852 14.7402C9.29907 14.7783 9.35543 14.8084 9.39355 14.8281C9.41259 14.838 9.42735 14.8459 9.43652 14.8506L9.44824 14.8564L9.53711 14.9062C9.96495 15.1779 10.1255 15.7354 9.89355 16.1982C9.646 16.6916 9.04534 16.8908 8.55176 16.6436L8.5498 16.6426C8.54866 16.642 8.54674 16.6415 8.54492 16.6406C8.54116 16.6387 8.53574 16.6361 8.5293 16.6328C8.51611 16.6261 8.49707 16.6166 8.47363 16.6045C8.4268 16.5802 8.36065 16.5448 8.2793 16.501C8.15534 16.4341 7.99561 16.3442 7.81543 16.2393C7.0832 17.0011 6.22443 17.704 5.49512 18.25C4.95718 18.6527 4.46644 18.9888 4.11035 19.2246C3.93218 19.3426 3.78729 19.4365 3.68555 19.501C3.63472 19.5332 3.59424 19.5579 3.56641 19.5752C3.55255 19.5838 3.54184 19.591 3.53418 19.5957C3.53035 19.5981 3.52662 19.6002 3.52441 19.6016L3.52246 19.6025L3.52148 19.6035C3.05001 19.891 2.43407 19.742 2.14648 19.2705C1.85896 18.799 2.00804 18.1841 2.47949 17.8965L2.48047 17.8955C2.48153 17.8949 2.48318 17.8939 2.48535 17.8926C2.49075 17.8893 2.50017 17.8841 2.51172 17.877C2.53481 17.8626 2.56962 17.8404 2.61523 17.8115C2.7067 17.7536 2.84101 17.6674 3.00684 17.5576C3.33893 17.3377 3.796 17.0236 4.2959 16.6494C4.93043 16.1744 5.59743 15.6264 6.16309 15.0693C6.12245 15.0316 6.08126 14.9953 6.04297 14.957C5.57825 14.4923 5.15117 13.8405 4.8623 13.3594C4.71194 13.1089 4.58674 12.8834 4.49902 12.7207C4.45517 12.6394 4.41978 12.5732 4.39551 12.5264C4.38338 12.503 4.3739 12.4839 4.36719 12.4707C4.36392 12.4643 4.36128 12.4589 4.35938 12.4551C4.35847 12.4533 4.35798 12.4514 4.35742 12.4502L4.35645 12.4492L4.31445 12.3545C4.13433 11.8808 4.33911 11.3385 4.80176 11.1064C5.26468 10.8745 5.82207 11.035 6.09375 11.4629L6.14355 11.5518L6.14941 11.5635C6.1541 11.5727 6.16203 11.5875 6.17188 11.6064C6.19165 11.6446 6.22174 11.701 6.25977 11.7715C6.33655 11.9139 6.44609 12.1118 6.57715 12.3301C6.8352 12.7599 7.13775 13.2033 7.40723 13.4893C7.85801 12.6948 8.25807 11.69 8.56641 10.7715C8.65833 10.4977 8.73983 10.237 8.81152 10H3C2.44772 10 2 9.55228 2 9C2 8.44771 2.44772 8 3 8H6.5V7.5C6.5 6.94771 6.94772 6.5 7.5 6.5ZM12.7627 17H14.9873L13.875 14.6641L12.7627 17ZM19.7422 9.17871C19.831 8.94045 20.1692 8.94026 20.2578 9.17871L20.3877 9.53027C20.5731 10.031 20.968 10.4259 21.4688 10.6113L21.8203 10.7412C22.0589 10.8297 22.0587 11.1681 21.8203 11.2568L21.4688 11.3867C20.9682 11.572 20.5732 11.9673 20.3877 12.4678L20.2578 12.8193C20.1694 13.0584 19.8306 13.0584 19.7422 12.8193L19.6123 12.4678C19.4269 11.9673 19.0318 11.5721 18.5312 11.3867L18.1797 11.2568C17.9407 11.1684 17.9407 10.8297 18.1797 10.7412L18.5312 10.6113C19.0318 10.4258 19.427 10.0309 19.6123 9.53027L19.7422 9.17871ZM14.6133 2.26855C14.7461 1.91049 15.2539 1.91048 15.3867 2.26855L15.582 2.79687C15.5994 2.84367 15.618 2.89002 15.6377 2.93555L15.7539 3.16992L15.7705 3.20117C16.0876 3.75895 16.5927 4.19293 17.2031 4.41894L17.7314 4.61426C17.9729 4.70389 18.0501 4.96281 17.9658 5.16309C17.9642 5.16711 17.9637 5.1718 17.9619 5.17578C17.9604 5.17918 17.9581 5.1824 17.9561 5.18555C17.9131 5.27247 17.8389 5.3469 17.7314 5.38672L17.2031 5.58105C16.4519 5.85915 15.8601 6.45291 15.582 7.2041L15.3867 7.73144C15.2957 7.9772 15.0288 8.05315 14.8271 7.96191H14.8242C14.8215 7.96064 14.8191 7.95835 14.8164 7.95703C14.7286 7.91417 14.6534 7.83972 14.6133 7.73144L14.4189 7.2041C14.1409 6.4528 13.5481 5.85917 12.7969 5.58105L12.2686 5.38672C11.9104 5.25396 11.9106 4.74717 12.2686 4.61426L12.7969 4.41894C13.548 4.14083 14.1409 3.54804 14.4189 2.79687L14.6133 2.26855Z" fill="currentColor"/>
</svg>
