<svg width="24" height="24" viewBox="0 0 24 24" fill="none" xmlns="http://www.w3.org/2000/svg">
<path fill-rule="evenodd" clip-rule="evenodd" d="M22.5967 6.07931C23.1344 5.88031 23.1344 5.11969 22.5967 4.92069L21.8052 4.62781C20.678 4.21072 19.7893 3.32201 19.3722 2.19484L19.0793 1.40333C18.8803 0.865555 18.1197 0.865556 17.9207 1.40333L17.6278 2.19484C17.2107 3.32201 16.322 4.21072 15.1948 4.62781L14.4033 4.92069C13.8656 5.11969 13.8656 5.88031 14.4033 6.07931L15.1948 6.37219C16.322 6.78928 17.2107 7.67799 17.6278 8.80516L17.9207 9.59667C18.1197 10.1344 18.8803 10.1344 19.0793 9.59667L19.3722 8.80516C19.7893 7.67799 20.678 6.78928 21.8052 6.37219L22.5967 6.07931ZM22.4992 8.2479L23 8.06259V16C23 17.6569 21.6569 19 20 19H19V20.9979C19 21.787 18.1287 22.2652 17.4629 21.8414L13.4915 19.3129C13.1705 19.1086 12.7979 19 12.4174 19H4C2.34315 19 1 17.6569 1 16V5C1 3.34315 2.34315 2 4 2H15.4869C15.2431 2.34007 14.9012 2.60394 14.5008 2.7521L13.7093 3.04499C11.4302 3.8883 11.4302 7.1117 13.7093 7.95501L14.5008 8.2479C15.0805 8.46242 15.5376 8.9195 15.7521 9.49923L16.045 10.2907C16.8883 12.5698 20.1117 12.5698 20.955 10.2907L21.2479 9.49923C21.4624 8.9195 21.9195 8.46242 22.4992 8.2479ZM8.5 10.5C8.5 11.3284 7.82843 12 7 12C6.17157 12 5.5 11.3284 5.5 10.5C5.5 9.67157 6.17157 9 7 9C7.82843 9 8.5 9.67157 8.5 10.5ZM13.5 10.5C13.5 11.3284 12.8284 12 12 12C11.1716 12 10.5 11.3284 10.5 10.5C10.5 9.67157 11.1716 9 12 9C12.8284 9 13.5 9.67157 13.5 10.5Z" fill="currentColor"/>
</svg>
