<svg width="24" height="24" viewBox="0 0 24 24" fill="none" xmlns="http://www.w3.org/2000/svg">
<path fill-rule="evenodd" clip-rule="evenodd" d="M8.64148 5.51494C9.11951 5.33806 9.11951 4.66195 8.64148 4.48506L7.93792 4.22472C6.93599 3.85397 6.14603 3.06401 5.77528 2.06208L5.51494 1.35852C5.33806 0.880493 4.66195 0.880494 4.48506 1.35852L4.22472 2.06208C3.85397 3.06401 3.06401 3.85397 2.06208 4.22472L1.35852 4.48506C0.880494 4.66195 0.880494 5.33806 1.35852 5.51494L2.06208 5.77528C3.06401 6.14603 3.85397 6.93599 4.22472 7.93792L4.48506 8.64148C4.66194 9.11951 5.33806 9.11951 5.51494 8.64148L5.77528 7.93792C6.14603 6.93599 6.93599 6.14603 7.93792 5.77528L8.64148 5.51494ZM15.8862 2.58579C16.6672 1.80474 17.9336 1.80474 18.7146 2.58579L21.4134 5.28454C22.1944 6.06559 22.1944 7.33192 21.4134 8.11297L9.30836 20.218C9.07696 20.4494 8.7923 20.6205 8.47936 20.7162L4.59173 21.9058C3.05931 22.3747 1.62533 20.9411 2.09393 19.4086L3.28289 15.5201C3.37862 15.207 3.54976 14.9222 3.78126 14.6907L15.8862 2.58579ZM17.3004 4L15.8059 5.49447L18.5047 8.19322L19.9991 6.69875L17.3004 4ZM22.7311 16.3862C23.0896 16.2535 23.0896 15.7465 22.7311 15.6138L22.2034 15.4185C21.452 15.1405 20.8595 14.548 20.5815 13.7966L20.3862 13.2689C20.2535 12.9104 19.7465 12.9104 19.6138 13.2689L19.4185 13.7966C19.1405 14.548 18.548 15.1405 17.7966 15.4185L17.2689 15.6138C16.9104 15.7465 16.9104 16.2535 17.2689 16.3862L17.7966 16.5815C18.548 16.8595 19.1405 17.452 19.4185 18.2034L19.6138 18.7311C19.7465 19.0896 20.2535 19.0896 20.3862 18.7311L20.5815 18.2034C20.8595 17.452 21.452 16.8595 22.2034 16.5815L22.7311 16.3862ZM15.8207 20.7425C16.0598 20.831 16.0598 21.169 15.8207 21.2575L15.469 21.3876C14.968 21.573 14.573 21.968 14.3876 22.469L14.2575 22.8207C14.169 23.0598 13.831 23.0598 13.7425 22.8207L13.6124 22.469C13.427 21.968 13.032 21.573 12.531 21.3876L12.1793 21.2575C11.9402 21.169 11.9402 20.831 12.1793 20.7425L12.531 20.6124C13.032 20.427 13.427 20.032 13.6124 19.531L13.7425 19.1793C13.831 18.9402 14.169 18.9402 14.2575 19.1793L14.3876 19.531C14.573 20.032 14.968 20.427 15.469 20.6124L15.8207 20.7425Z" fill="currentColor"/>
</svg>
