<svg width="24" height="24" viewBox="0 0 24 24" fill="none" xmlns="http://www.w3.org/2000/svg">
<path d="M19 20C19 21.1046 18.1046 22 17 22H7C5.89543 22 5 21.1046 5 20H19ZM19 5C20.6569 5 22 6.34315 22 8V16C22 17.6569 20.6569 19 19 19H5C3.34315 19 2 17.6569 2 16V8C2 6.34315 3.34315 5 5 5H19ZM11.75 7C11.4848 7 11.2305 7.10543 11.043 7.29297C10.8554 7.4805 10.75 7.73478 10.75 8V16C10.75 16.2652 10.8554 16.5195 11.043 16.707C11.2305 16.8946 11.4848 17 11.75 17H12.25C12.5152 17 12.7695 16.8946 12.957 16.707C13.1446 16.5195 13.25 16.2652 13.25 16V8C13.25 7.73478 13.1446 7.4805 12.957 7.29297C12.7695 7.10543 12.5152 7 12.25 7H11.75ZM15.5 9.25C15.2348 9.25 14.9805 9.35543 14.793 9.54297C14.6054 9.7305 14.5 9.98478 14.5 10.25V15.25C14.5 15.5152 14.6054 15.7695 14.793 15.957C14.9805 16.1446 15.2348 16.25 15.5 16.25H16C16.2652 16.25 16.5195 16.1446 16.707 15.957C16.8946 15.7695 17 15.5152 17 15.25V10.25C17 9.98478 16.8946 9.7305 16.707 9.54297C16.5195 9.35543 16.2652 9.25 16 9.25H15.5ZM8 10.5C7.73478 10.5 7.4805 10.6054 7.29297 10.793C7.10543 10.9805 7 11.2348 7 11.5V14.5C7 14.7652 7.10543 15.0195 7.29297 15.207C7.4805 15.3946 7.73478 15.5 8 15.5H8.5C8.76522 15.5 9.0195 15.3946 9.20703 15.207C9.39457 15.0195 9.5 14.7652 9.5 14.5V11.5C9.5 11.2348 9.39457 10.9805 9.20703 10.793C9.0195 10.6054 8.76522 10.5 8.5 10.5H8ZM17 2C18.1046 2 19 2.89543 19 4H5C5 2.89543 5.89543 2 7 2H17Z" fill="currentColor"/>
</svg>
