<svg width="24" height="24" viewBox="0 0 24 24" fill="none" xmlns="http://www.w3.org/2000/svg">
<path fill-rule="evenodd" clip-rule="evenodd" d="M21.5519 7.64368C22.1494 7.42257 22.1494 6.57743 21.5519 6.35632L20.6724 6.0309C19.42 5.56746 18.4325 4.58001 17.9691 3.3276L17.6437 2.44815C17.4226 1.85062 16.5774 1.85062 16.3563 2.44815L16.0309 3.3276C15.5675 4.58001 14.58 5.56746 13.3276 6.0309L12.4482 6.35632C11.8506 6.57743 11.8506 7.42257 12.4482 7.64368L13.3276 7.9691C14.58 8.43254 15.5675 9.41999 16.0309 10.6724L16.3563 11.5519C16.5774 12.1494 17.4226 12.1494 17.6437 11.5519L17.9691 10.6724C18.4325 9.41999 19.42 8.43254 20.6724 7.9691L21.5519 7.64368ZM3 4C2.44772 4 2 4.44772 2 5V11C2 11.5523 2.44772 12 3 12H9C9.55228 12 10 11.5523 10 11V5C10 4.44772 9.55228 4 9 4H3ZM3 14C2.44772 14 2 14.4477 2 15V21C2 21.5523 2.44772 22 3 22H9C9.55228 22 10 21.5523 10 21V15C10 14.4477 9.55228 14 9 14H3ZM12 15C12 14.4477 12.4477 14 13 14H19C19.5523 14 20 14.4477 20 15V21C20 21.5523 19.5523 22 19 22H13C12.4477 22 12 21.5523 12 21V15Z" fill="currentColor"/>
</svg>
