<svg width="24" height="24" viewBox="0 0 24 24" fill="none" xmlns="http://www.w3.org/2000/svg">
<path fill-rule="evenodd" clip-rule="evenodd" d="M8 1C8.55228 1 9 1.44772 9 2V4H15V2C15 1.44772 15.4477 1 16 1C16.5523 1 17 1.44772 17 2V4C18.6569 4 20 5.34315 20 7H22C22.5523 7 23 7.44772 23 8C23 8.55228 22.5523 9 22 9H20V15H22C22.5523 15 23 15.4477 23 16C23 16.5523 22.5523 17 22 17H20C20 18.6569 18.6569 20 17 20V22C17 22.5523 16.5523 23 16 23C15.4477 23 15 22.5523 15 22V20H9V22C9 22.5523 8.55228 23 8 23C7.44772 23 7 22.5523 7 22V20C5.34315 20 4 18.6569 4 17H2C1.44772 17 1 16.5523 1 16C1 15.4477 1.44772 15 2 15H4V9H2C1.44772 9 1 8.55228 1 8C1 7.44772 1.44772 7 2 7H4C4 5.34315 5.34315 4 7 4V2C7 1.44772 7.44772 1 8 1ZM15.6415 11.4851C16.1195 11.6619 16.1195 12.3381 15.6415 12.5149L14.9379 12.7753C13.936 13.146 13.146 13.936 12.7753 14.9379L12.5149 15.6415C12.3381 16.1195 11.6619 16.1195 11.4851 15.6415L11.2247 14.9379C10.854 13.936 10.064 13.146 9.06208 12.7753L8.35852 12.5149C7.8805 12.3381 7.8805 11.6619 8.35852 11.4851L9.06208 11.2247C10.064 10.854 10.854 10.064 11.2247 9.06208L11.4851 8.35852C11.6619 7.88049 12.3381 7.88049 12.5149 8.35852L12.7753 9.06208C13.146 10.064 13.936 10.854 14.9379 11.2247L15.6415 11.4851Z" fill="currentColor"/>
</svg>
