<svg width="24" height="24" viewBox="0 0 24 24" fill="none" xmlns="http://www.w3.org/2000/svg">
<path fill-rule="evenodd" clip-rule="evenodd" d="M5 2C3.34314 2 2 3.34315 2 5V11.1716C2 11.9672 2.31607 12.7303 2.87868 13.2929L3.11748 13.5317C4.05862 11.4319 7.1342 11.4911 7.95501 13.7093L8.24789 14.5008C8.46241 15.0805 8.9195 15.5376 9.49923 15.7521L10.2907 16.045C12.5089 16.8658 12.5681 19.9414 10.4683 20.8825L11.4116 21.8258C12.9737 23.3879 15.5063 23.3879 17.0684 21.8258L21.8258 17.0684C23.3879 15.5063 23.3879 12.9737 21.8258 11.4116L13.2929 2.87868C12.7303 2.31607 11.9672 2 11.1716 2H5ZM9 11C10.1046 11 11 10.1046 11 9C11 7.89543 10.1046 7 9 7C7.89543 7 7 7.89543 7 9C7 10.1046 7.89543 11 9 11ZM9.59666 19.0793C10.1344 18.8803 10.1344 18.1197 9.59666 17.9207L8.80516 17.6278C7.67799 17.2107 6.78928 16.322 6.37219 15.1948L6.07931 14.4033C5.88031 13.8656 5.11969 13.8656 4.92069 14.4033L4.62781 15.1948C4.21072 16.322 3.32201 17.2107 2.19484 17.6278L1.40333 17.9207C0.865555 18.1197 0.865555 18.8803 1.40333 19.0793L2.19484 19.3722C3.32201 19.7893 4.21072 20.678 4.62781 21.8052L4.92069 22.5967C5.11969 23.1344 5.88031 23.1344 6.07931 22.5967L6.37219 21.8052C6.78928 20.678 7.67799 19.7893 8.80516 19.3722L9.59666 19.0793Z" fill="currentColor"/>
</svg>
