<svg width="24" height="24" viewBox="0 0 24 24" fill="none" xmlns="http://www.w3.org/2000/svg">
<path fill-rule="evenodd" clip-rule="evenodd" d="M21.5519 7.64368C22.1494 7.42257 22.1494 6.57743 21.5519 6.35632L20.6724 6.0309C19.42 5.56746 18.4325 4.58001 17.9691 3.3276L17.6437 2.44815C17.4226 1.85062 16.5774 1.85062 16.3563 2.44815L16.0309 3.3276C15.5675 4.58001 14.58 5.56746 13.3276 6.0309L12.4482 6.35632C11.8506 6.57743 11.8506 7.42257 12.4482 7.64368L13.3276 7.9691C14.58 8.43254 15.5675 9.41999 16.0309 10.6724L16.3563 11.5519C16.5774 12.1494 17.4226 12.1494 17.6437 11.5519L17.9691 10.6724C18.4325 9.41999 19.42 8.43254 20.6724 7.9691L21.5519 7.64368ZM3 9C2.44772 9 2 9.44772 2 10V11C2 11.5523 2.44772 12 3 12H10C10.5523 12 11 11.5523 11 11V10C11 9.44772 10.5523 9 10 9H3ZM3 14C2.44772 14 2 14.4477 2 15V16C2 16.5523 2.44772 17 3 17H18C18.5523 17 19 16.5523 19 16V15C19 14.4477 18.5523 14 18 14H3ZM2 20C2 19.4477 2.44772 19 3 19H18C18.5523 19 19 19.4477 19 20V21C19 21.5523 18.5523 22 18 22H3C2.44772 22 2 21.5523 2 21V20Z" fill="currentColor"/>
</svg>
