<svg width="24" height="24" viewBox="0 0 24 24" fill="none" xmlns="http://www.w3.org/2000/svg">
<path fill-rule="evenodd" clip-rule="evenodd" d="M9.5 4C9.5 3.46957 9.71071 2.96086 10.0858 2.58579C10.4609 2.21071 10.9696 2 11.5 2H12.5C13.0304 2 13.5391 2.21071 13.9142 2.58579C14.2893 2.96086 14.5 3.46957 14.5 4V20C14.5 20.5304 14.2893 21.0391 13.9142 21.4142C13.5391 21.7893 13.0304 22 12.5 22H11.5C10.9696 22 10.4609 21.7893 10.0858 21.4142C9.71071 21.0391 9.5 20.5304 9.5 20V4ZM2 11C2 10.4696 2.21071 9.96086 2.58579 9.58579C2.96086 9.21071 3.46957 9 4 9H5C5.53043 9 6.03914 9.21071 6.41421 9.58579C6.78929 9.96086 7 10.4696 7 11V17C7 17.5304 6.78929 18.0391 6.41421 18.4142C6.03914 18.7893 5.53043 19 5 19H4C3.46957 19 2.96086 18.7893 2.58579 18.4142C2.21071 18.0391 2 17.5304 2 17V11ZM19 6.5C18.4696 6.5 17.9609 6.71071 17.5858 7.08579C17.2107 7.46086 17 7.96957 17 8.5V18.5C17 19.0304 17.2107 19.5391 17.5858 19.9142C17.9609 20.2893 18.4696 20.5 19 20.5H20C20.5304 20.5 21.0391 20.2893 21.4142 19.9142C21.7893 19.5391 22 19.0304 22 18.5V8.5C22 7.96957 21.7893 7.46086 21.4142 7.08579C21.0391 6.71071 20.5304 6.5 20 6.5H19Z" fill="currentColor"/>
</svg>
