<svg width="24" height="24" viewBox="0 0 24 24" fill="none" xmlns="http://www.w3.org/2000/svg">
<path fill-rule="evenodd" clip-rule="evenodd" d="M12 2C9.23858 2 7 4.23858 7 7C7 9.76142 9.23858 12 12 12C14.7614 12 17 9.76142 17 7C17 4.23858 14.7614 2 12 2ZM20.3862 9.26889C20.2535 8.91037 19.7465 8.91037 19.6138 9.26889L19.4185 9.79657C19.1405 10.548 18.548 11.1405 17.7966 11.4185L17.2689 11.6138C16.9104 11.7465 16.9104 12.2536 17.2689 12.3862L17.7966 12.5815C18.548 12.8595 19.1405 13.452 19.4185 14.2035L19.6138 14.7311C19.7465 15.0897 20.2535 15.0897 20.3862 14.7311L20.5815 14.2035C20.8595 13.452 21.452 12.8595 22.2034 12.5815L22.7311 12.3862C23.0896 12.2536 23.0896 11.7465 22.7311 11.6138L22.2034 11.4185C21.452 11.1405 20.8595 10.548 20.5815 9.79656L20.3862 9.26889ZM20.5967 19.0794C21.1344 18.8804 21.1344 18.1197 20.5967 17.9207L19.8052 17.6278C18.678 17.2108 17.7893 16.322 17.3722 15.1949L17.0793 14.4034C16.8803 13.8656 16.1197 13.8656 15.9207 14.4034L15.6278 15.1949C15.2107 16.322 14.322 17.2108 13.1948 17.6278L12.4033 17.9207C11.8656 18.1197 11.8656 18.8804 12.4033 19.0794L13.1948 19.3722C14.322 19.7893 15.2107 20.678 15.6278 21.8052L15.9207 22.5967C16.1197 23.1345 16.8803 23.1345 17.0793 22.5967L17.3722 21.8052C17.7893 20.678 18.678 19.7893 19.8052 19.3722L20.5967 19.0794ZM12 13C7.15904 13 3 16.4605 3 21C3 21.5523 3.44772 22 4 22H10.8308C11.3151 22 11.7298 21.653 11.8152 21.1763C11.9005 20.6996 11.6321 20.2302 11.1779 20.0621L11.0563 20.0172C9.6479 19.496 9.6479 17.504 11.0563 16.9828L11.8478 16.69C12.7013 16.3742 13.3742 15.7013 13.69 14.8478L13.8583 14.3929C13.9657 14.1025 13.9326 13.7787 13.7686 13.5161C13.6046 13.2535 13.3282 13.0817 13.0202 13.0508C12.685 13.0172 12.3446 13 12 13Z" fill="currentColor"/>
</svg>
