<svg width="24" height="24" viewBox="0 0 24 24" fill="none" xmlns="http://www.w3.org/2000/svg">
<path fill-rule="evenodd" clip-rule="evenodd" d="M15 5C15 6.30622 14.1652 7.41746 13 7.82929V19.9373C14.753 19.7165 16.3942 18.9195 17.6569 17.6569C18.9195 16.3942 19.7165 14.753 19.9373 13H19C18.4477 13 18 12.5523 18 12C18 11.4477 18.4477 11 19 11H21C21.5523 11 22 11.4477 22 12C22 14.6522 20.9464 17.1957 19.0711 19.0711C17.1957 20.9464 14.6522 22 12 22C9.34784 22 6.8043 20.9464 4.92893 19.0711C3.05357 17.1957 2 14.6522 2 12C2 11.4477 2.44772 11 3 11H5C5.55228 11 6 11.4477 6 12C6 12.5523 5.55228 13 5 13H4.06272C4.28353 14.753 5.08052 16.3942 6.34315 17.6569C7.60577 18.9195 9.247 19.7165 11 19.9373V7.82929C9.83481 7.41746 9 6.30622 9 5C9 3.34315 10.3431 2 12 2C13.6569 2 15 3.34315 15 5Z" fill="currentColor"/>
</svg>
