<svg width="24" height="24" viewBox="0 0 24 24" fill="none" xmlns="http://www.w3.org/2000/svg">
<path fill-rule="evenodd" clip-rule="evenodd" d="M12.0001 4C12.5524 4 13.0001 4.44772 13.0001 5V10.2677L17.5618 7.63403C18.0401 7.35789 18.6517 7.52177 18.9278 8.00006C19.2039 8.47835 19.0401 9.08994 18.5618 9.36608L13.9996 12.0001L18.5618 14.634C19.0401 14.9102 19.2039 15.5218 18.9278 16.0001C18.6517 16.4784 18.0401 16.6422 17.5618 16.3661L13.0001 13.7324V19C13.0001 19.5523 12.5524 20 12.0001 20C11.4478 20 11.0001 19.5523 11.0001 19V13.7318L6.43742 16.3661C5.95913 16.6422 5.34754 16.4784 5.0714 16.0001C4.79526 15.5218 4.95913 14.9102 5.43742 14.634L9.9996 12.0001L5.43742 9.36608C4.95913 9.08994 4.79526 8.47835 5.0714 8.00006C5.34754 7.52176 5.95913 7.35789 6.43742 7.63403L11.0001 10.2683V5C11.0001 4.44772 11.4478 4 12.0001 4Z" fill="currentColor"/>
</svg>
