<svg width="24" height="24" viewBox="0 0 24 24" fill="none" xmlns="http://www.w3.org/2000/svg">
<path fill-rule="evenodd" clip-rule="evenodd" d="M7.7905 1.83733C10.0276 0.91067 12.5081 0.748096 14.847 1.37482C17.186 2.00154 19.2528 3.38254 20.7269 5.30363C22.201 7.22471 23 9.57853 23 12V13V13.001L23 13.0021L23 13.0045L23 13.0101L22.9998 13.0247C22.9996 13.036 22.9993 13.0501 22.9987 13.067C22.9976 13.1008 22.9955 13.1457 22.9916 13.2002C22.9839 13.3088 22.9688 13.4574 22.9395 13.6332C22.8817 13.9799 22.7643 14.4575 22.5194 14.9472C22.2726 15.4408 21.8867 15.9649 21.2891 16.3633C20.6852 16.7659 19.925 17 19 17C18.075 17 17.3148 16.7659 16.7109 16.3633C16.2744 16.0723 15.9508 15.7142 15.7119 15.35C14.7969 16.3632 13.4728 17 12 17C9.23859 17 7.00002 14.7614 7.00002 12C7.00002 9.23858 9.23859 7 12 7C13.1256 7 14.1644 7.37195 15 7.99964C15.0002 7.44752 15.4479 7 16 7C16.5523 7 17 7.44772 17 8V12V12.9939L17.0002 13.0004C17.0005 13.0106 17.0014 13.0301 17.0033 13.0577C17.0073 13.1131 17.0157 13.1988 17.0333 13.3044C17.0692 13.5201 17.1393 13.7925 17.2694 14.0528C17.3976 14.3092 17.5742 14.5351 17.8203 14.6992C18.0602 14.8591 18.425 15 19 15C19.575 15 19.9398 14.8591 20.1797 14.6992C20.4258 14.5351 20.6024 14.3092 20.7306 14.0528C20.8607 13.7925 20.9308 13.5201 20.9667 13.3044C20.9843 13.1988 20.9927 13.1131 20.9967 13.0577C20.9987 13.0301 20.9995 13.0106 20.9998 13.0004L21 12.9939V12C21 10.0188 20.3463 8.09295 19.1402 6.52115C17.9341 4.94935 16.2431 3.81945 14.3294 3.30667C12.4157 2.7939 10.3863 2.92691 8.55586 3.68509C6.72547 4.44326 5.19639 5.78423 4.20579 7.5C3.21518 9.21578 2.81841 11.2105 3.07701 13.1747C3.33561 15.139 4.23513 16.963 5.63605 18.364C7.03698 19.7649 8.86102 20.6644 10.8253 20.923C12.7895 21.1816 14.7842 20.7848 16.5 19.7942C16.9783 19.5181 17.5899 19.682 17.866 20.1603C18.1422 20.6386 17.9783 21.2501 17.5 21.5263C15.403 22.737 12.965 23.222 10.5642 22.9059C8.16347 22.5898 5.93408 21.4904 4.22184 19.7782C2.5096 18.0659 1.41019 15.8366 1.09412 13.4358C0.778056 11.035 1.263 8.59706 2.47374 6.5C3.68447 4.40294 5.55335 2.76399 7.7905 1.83733ZM15 12C15 10.3431 13.6569 9 12 9C10.3432 9 9.00002 10.3431 9.00002 12C9.00002 13.6569 10.3432 15 12 15C13.6569 15 15 13.6569 15 12Z" fill="currentColor"/>
</svg>
