<svg width="24" height="24" viewBox="0 0 24 24" fill="none" xmlns="http://www.w3.org/2000/svg">
<path fill-rule="evenodd" clip-rule="evenodd" d="M12 23C18.0751 23 23 18.0751 23 12C23 5.92487 18.0751 1 12 1C5.92487 1 1 5.92487 1 12C1 18.0751 5.92487 23 12 23ZM20 12C20 16.4183 16.4183 20 12 20C10.5164 20 9.12718 19.5962 7.93618 18.8924L18.8924 7.93618C19.5962 9.12718 20 10.5164 20 12ZM16.064 5.10771C14.873 4.40388 13.4837 4 12 4C7.58172 4 4 7.58172 4 12C4 13.4837 4.40388 14.873 5.10771 16.064L16.064 5.10771Z" fill="currentColor"/>
</svg>
