<svg width="24" height="24" viewBox="0 0 24 24" fill="none" xmlns="http://www.w3.org/2000/svg">
<path fill-rule="evenodd" clip-rule="evenodd" d="M3 6C3 5.44772 3.44772 5 4 5H20C20.5523 5 21 5.44772 21 6C21 6.55228 20.5523 7 20 7H4C3.44772 7 3 6.55228 3 6ZM5 12C5 11.4477 5.44772 11 6 11H18C18.5523 11 19 11.4477 19 12C19 12.5523 18.5523 13 18 13H6C5.44772 13 5 12.5523 5 12ZM9 17C8.44772 17 8 17.4477 8 18C8 18.5523 8.44772 19 9 19H15C15.5523 19 16 18.5523 16 18C16 17.4477 15.5523 17 15 17H9Z" fill="currentColor"/>
</svg>
