<svg width="24" height="24" viewBox="0 0 24 24" fill="none" xmlns="http://www.w3.org/2000/svg">
<path fill-rule="evenodd" clip-rule="evenodd" d="M5 16C3.34315 16 2 17.3431 2 19C2 20.6569 3.34315 22 5 22H19C20.6569 22 22 20.6569 22 19C22 17.3431 20.6569 16 19 16H5ZM5 9C3.34315 9 2 10.3431 2 12C2 13.6569 3.34315 15 5 15H11H19C20.6569 15 22 13.6569 22 12C22 10.3431 20.6569 9 19 9H11H5ZM11 11H5C4.44772 11 4 11.4477 4 12C4 12.5523 4.44772 13 5 13H11V11ZM5 2C3.34315 2 2 3.34315 2 5C2 6.65685 3.34315 8 5 8H19C20.6569 8 22 6.65685 22 5C22 3.34315 20.6569 2 19 2H5ZM4 5C4 4.44772 4.44772 4 5 4H19C19.5523 4 20 4.44772 20 5C20 5.55228 19.5523 6 19 6H5C4.44772 6 4 5.55228 4 5Z" fill="currentColor"/>
</svg>
