<svg width="24" height="24" viewBox="0 0 24 24" fill="none" xmlns="http://www.w3.org/2000/svg">
<path fill-rule="evenodd" clip-rule="evenodd" d="M2 5C2 3.89543 2.89543 3 4 3H20C21.1046 3 22 3.89543 22 5C22 6.10457 21.1046 7 20 7H4C2.89543 7 2 6.10457 2 5ZM2 12C2 10.8954 2.89543 10 4 10H20C21.1046 10 22 10.8954 22 12C22 13.1046 21.1046 14 20 14H4C2.89543 14 2 13.1046 2 12ZM4 17C2.89543 17 2 17.8954 2 19C2 20.1046 2.89543 21 4 21H20C21.1046 21 22 20.1046 22 19C22 17.8954 21.1046 17 20 17H4Z" fill="currentColor"/>
</svg>
