<svg width="24" height="24" viewBox="0 0 24 24" fill="none" xmlns="http://www.w3.org/2000/svg">
<path d="M22 19C22.5523 19 23 19.4477 23 20C23 20.5523 22.5523 21 22 21H2C1.44772 21 1 20.5523 1 20C1 19.4477 1.44772 19 2 19H22ZM22 17H2V16C2 14.6868 2.2582 13.3861 2.76074 12.1729C3.26329 10.9596 4.00015 9.85727 4.92871 8.92871C5.85727 8.00015 6.95964 7.26329 8.17285 6.76074C9.07701 6.38623 10.0298 6.14731 11 6.0498V5H10.5C9.94771 5 9.5 4.55228 9.5 4C9.5 3.44772 9.94771 3 10.5 3H13.5C14.0523 3 14.5 3.44772 14.5 4C14.5 4.55228 14.0523 5 13.5 5H13V6.0498C13.9702 6.14731 14.923 6.38623 15.8271 6.76074C17.0404 7.26329 18.1427 8.00015 19.0713 8.92871C19.9998 9.85727 20.7367 10.9596 21.2393 12.1729C21.7418 13.3861 22 14.6868 22 16V17Z" fill="currentColor"/>
</svg>
