<svg width="24" height="24" viewBox="0 0 24 24" fill="none" xmlns="http://www.w3.org/2000/svg">
<path fill-rule="evenodd" clip-rule="evenodd" d="M7 2C5.34315 2 4 3.34315 4 5V21C4 21.3746 4.20935 21.7178 4.54242 21.8892C4.87549 22.0606 5.27642 22.0315 5.58124 21.8137L12 17.2289L18.4188 21.8137C18.7236 22.0315 19.1245 22.0606 19.4576 21.8892C19.7907 21.7178 20 21.3746 20 21V5C20 3.34315 18.6569 2 17 2H7ZM15.7071 7.70711C16.0976 7.31658 16.0976 6.68342 15.7071 6.29289C15.3166 5.90237 14.6834 5.90237 14.2929 6.29289L12 8.58579L9.70711 6.29289C9.31658 5.90237 8.68342 5.90237 8.29289 6.29289C7.90237 6.68342 7.90237 7.31658 8.29289 7.70711L10.5858 10L8.29289 12.2929C7.90237 12.6834 7.90237 13.3166 8.29289 13.7071C8.68342 14.0976 9.31658 14.0976 9.70711 13.7071L12 11.4142L14.2929 13.7071C14.6834 14.0976 15.3166 14.0976 15.7071 13.7071C16.0976 13.3166 16.0976 12.6834 15.7071 12.2929L13.4142 10L15.7071 7.70711Z" fill="currentColor"/>
</svg>
