<svg width="24" height="24" viewBox="0 0 24 24" fill="none" xmlns="http://www.w3.org/2000/svg">
<path fill-rule="evenodd" clip-rule="evenodd" d="M7 2C5.34315 2 4 3.34315 4 5V21C4 21.3746 4.20935 21.7178 4.54242 21.8892C4.87549 22.0606 5.27642 22.0315 5.58124 21.8137L12 17.2289L18.4188 21.8137C18.7236 22.0315 19.1245 22.0606 19.4576 21.8892C19.7907 21.7178 20 21.3746 20 21V5C20 3.34315 18.6569 2 17 2H7ZM15.9571 7.79289C16.3476 8.18342 16.3476 8.81658 15.9571 9.20711L11.4571 13.7071C11.0666 14.0976 10.4334 14.0976 10.0429 13.7071L8.04289 11.7071C7.65237 11.3166 7.65237 10.6834 8.04289 10.2929C8.43342 9.90237 9.06658 9.90237 9.45711 10.2929L10.75 11.5858L14.5429 7.79289C14.9334 7.40237 15.5666 7.40237 15.9571 7.79289Z" fill="currentColor"/>
</svg>
