<svg width="24" height="24" viewBox="0 0 24 24" fill="none" xmlns="http://www.w3.org/2000/svg">
<path fill-rule="evenodd" clip-rule="evenodd" d="M7 2C5.34315 2 4 3.34315 4 5V21C4 21.3746 4.20935 21.7178 4.54242 21.8892C4.87549 22.0606 5.27642 22.0315 5.58124 21.8137L12 17.2289L18.4188 21.8137C18.7236 22.0315 19.1245 22.0606 19.4576 21.8892C19.7907 21.7178 20 21.3746 20 21V5C20 3.34315 18.6569 2 17 2H7ZM13 7.00008C13 6.4478 12.5524 6.00004 12.0001 6C11.4478 5.99995 11 6.44763 11 6.99992L10.9998 9H9C8.44772 9 8 9.44772 8 10C8 10.5523 8.44772 11 9 11H10.9997L10.9995 12.9999C10.9995 13.5522 11.4471 14 11.9994 14C12.5517 14 12.9995 13.5524 12.9995 13.0001L12.9997 11H15C15.5523 11 16 10.5523 16 10C16 9.44772 15.5523 9 15 9H12.9998L13 7.00008Z" fill="currentColor"/>
</svg>
