<svg width="24" height="24" viewBox="0 0 24 24" fill="none" xmlns="http://www.w3.org/2000/svg">
<path fill-rule="evenodd" clip-rule="evenodd" d="M1 3C1 2.44772 1.44772 2 2 2H22C22.5523 2 23 2.44772 23 3V5C23 5.55228 22.5523 6 22 6H2C1.44772 6 1 5.55228 1 5V3ZM2 7.5C2 7.22386 2.22386 7 2.5 7H21.5C21.7761 7 22 7.22386 22 7.5V19C22 20.6569 20.6569 22 19 22H5C3.34315 22 2 20.6569 2 19V7.5ZM12 11C12.5523 11 13 11.4477 13 12V14.5858L13.7929 13.7929C14.1834 13.4024 14.8166 13.4024 15.2071 13.7929C15.5976 14.1834 15.5976 14.8166 15.2071 15.2071L12.7071 17.7071C12.3166 18.0976 11.6834 18.0976 11.2929 17.7071L8.79289 15.2071C8.40237 14.8166 8.40237 14.1834 8.79289 13.7929C9.18342 13.4024 9.81658 13.4024 10.2071 13.7929L11 14.5858V12C11 11.4477 11.4477 11 12 11Z" fill="currentColor"/>
</svg>
