<svg width="24" height="24" viewBox="0 0 24 24" fill="none" xmlns="http://www.w3.org/2000/svg">
<path fill-rule="evenodd" clip-rule="evenodd" d="M2 2C1.44772 2 1 2.44772 1 3V5C1 5.55228 1.44772 6 2 6H22C22.5523 6 23 5.55228 23 5V3C23 2.44772 22.5523 2 22 2H2ZM2 7.5C2 7.22386 2.22386 7 2.5 7H21.5C21.7761 7 22 7.22386 22 7.5V19C22 20.6569 20.6569 22 19 22H5C3.34315 22 2 20.6569 2 19V7.5ZM8 13C8 12.4477 8.44772 12 9 12H15C15.5523 12 16 12.4477 16 13C16 13.5523 15.5523 14 15 14H9C8.44772 14 8 13.5523 8 13Z" fill="currentColor"/>
</svg>
