<svg width="24" height="24" viewBox="0 0 24 24" fill="none" xmlns="http://www.w3.org/2000/svg">
<path fill-rule="evenodd" clip-rule="evenodd" d="M1 3C1 2.44772 1.44772 2 2 2H22C22.5523 2 23 2.44772 23 3V5C23 5.55228 22.5523 6 22 6H2C1.44772 6 1 5.55228 1 5V3ZM2 7.5C2 7.22386 2.22386 7 2.5 7H21.5C21.7761 7 22 7.22386 22 7.5V20C22 21.1046 21.1046 22 20 22H4C2.89543 22 2 21.1046 2 20V7.5ZM12 18C11.4477 18 11 17.5523 11 17L11 14.4142L10.2071 15.2071C9.81658 15.5976 9.18342 15.5976 8.79289 15.2071C8.40237 14.8166 8.40237 14.1834 8.79289 13.7929L11.2929 11.2929C11.6834 10.9024 12.3166 10.9024 12.7071 11.2929L15.2071 13.7929C15.5976 14.1834 15.5976 14.8166 15.2071 15.2071C14.8166 15.5976 14.1834 15.5976 13.7929 15.2071L13 14.4142V17C13 17.5523 12.5523 18 12 18Z" fill="currentColor"/>
</svg>
