<svg width="24" height="24" viewBox="0 0 24 24" fill="none" xmlns="http://www.w3.org/2000/svg">
<path fill-rule="evenodd" clip-rule="evenodd" d="M6 3C6 2.44772 6.44772 2 7 2H10C10.5523 2 11 2.44772 11 3H12C13.6569 3 15 4.34315 15 6V10H16C16 9.44772 16.4477 9 17 9H18C18.5523 9 19 9.44772 19 10C20.6569 10 22 11.3431 22 13V20C22.5523 20 23 20.4477 23 21C23 21.5523 22.5523 22 22 22H21H15H14H3H2C1.44772 22 1 21.5523 1 21C1 20.4477 1.44772 20 2 20V6C2 4.34315 3.34315 3 5 3H6ZM13 11V20H10.5V17C10.5 16.4477 10.0523 16 9.5 16H7.5C6.94772 16 6.5 16.4477 6.5 17V20H4V6C4 5.44772 4.44772 5 5 5H12C12.5523 5 13 5.44772 13 6V11ZM20 13V20H19V18.5C19 17.9477 18.5523 17.5 18 17.5H17C16.4477 17.5 16 17.9477 16 18.5V20H15V12H19C19.5523 12 20 12.4477 20 13ZM5.5 9C5.5 9.55229 5.94772 10 6.5 10C7.05228 10 7.5 9.55229 7.5 9V8C7.5 7.44772 7.05228 7 6.5 7C5.94772 7 5.5 7.44772 5.5 8V9ZM10.5 10C9.94771 10 9.5 9.55229 9.5 9V8C9.5 7.44772 9.94771 7 10.5 7C11.0523 7 11.5 7.44772 11.5 8V9C11.5 9.55229 11.0523 10 10.5 10ZM16.5 15C16.5 15.5523 16.9477 16 17.5 16C18.0523 16 18.5 15.5523 18.5 15V14C18.5 13.4477 18.0523 13 17.5 13C16.9477 13 16.5 13.4477 16.5 14V15ZM10.5 14C9.94771 14 9.5 13.5523 9.5 13V12C9.5 11.4477 9.94771 11 10.5 11C11.0523 11 11.5 11.4477 11.5 12V13C11.5 13.5523 11.0523 14 10.5 14ZM5.5 13C5.5 13.5523 5.94772 14 6.5 14C7.05228 14 7.5 13.5523 7.5 13V12C7.5 11.4477 7.05228 11 6.5 11C5.94772 11 5.5 11.4477 5.5 12V13Z" fill="currentColor"/>
</svg>
