<svg width="24" height="24" viewBox="0 0 24 24" fill="none" xmlns="http://www.w3.org/2000/svg">
<path fill-rule="evenodd" clip-rule="evenodd" d="M10.5 2C9.94772 2 9.5 2.44772 9.5 3H8.5C6.84315 3 5.5 4.34315 5.5 6V10H5C3.34315 10 2 11.3431 2 13V20C1.44772 20 1 20.4477 1 21C1 21.5523 1.44772 22 2 22H3H5.5H6.5H17.5H18.5H21H22C22.5523 22 23 21.5523 23 21C23 20.4477 22.5523 20 22 20V13C22 11.3431 20.6569 10 19 10H18.5V6C18.5 4.34315 17.1569 3 15.5 3H14.5C14.5 2.44772 14.0523 2 13.5 2H10.5ZM18.5 12H19C19.5523 12 20 12.4477 20 13V20H18.5V12ZM16.5 6V11V20H14V17C14 16.4477 13.5523 16 13 16H11C10.4477 16 10 16.4477 10 17V20H7.5V11V6C7.5 5.44772 7.94772 5 8.5 5H15.5C16.0523 5 16.5 5.44772 16.5 6ZM5.5 12V20H4V13C4 12.4477 4.44772 12 5 12H5.5ZM9 9C9 9.55228 9.44772 10 10 10C10.5523 10 11 9.55228 11 9V8C11 7.44772 10.5523 7 10 7C9.44772 7 9 7.44772 9 8V9ZM14 10C13.4477 10 13 9.55228 13 9V8C13 7.44772 13.4477 7 14 7C14.5523 7 15 7.44772 15 8V9C15 9.55228 14.5523 10 14 10ZM13 13C13 13.5523 13.4477 14 14 14C14.5523 14 15 13.5523 15 13V12C15 11.4477 14.5523 11 14 11C13.4477 11 13 11.4477 13 12V13ZM10 14C9.44772 14 9 13.5523 9 13V12C9 11.4477 9.44772 11 10 11C10.5523 11 11 11.4477 11 12V13C11 13.5523 10.5523 14 10 14Z" fill="currentColor"/>
</svg>
