<svg width="24" height="24" viewBox="0 0 24 24" fill="none" xmlns="http://www.w3.org/2000/svg">
<path fill-rule="evenodd" clip-rule="evenodd" d="M12 3C10.22 3 8.47992 3.52784 6.99987 4.51677C5.51983 5.50571 4.36628 6.91131 3.68509 8.55585C3.0039 10.2004 2.82567 12.01 3.17294 13.7558C3.5202 15.5016 4.37737 17.1053 5.63604 18.364C6.89472 19.6226 8.49836 20.4798 10.2442 20.8271C11.99 21.1743 13.7996 20.9961 15.4442 20.3149C17.0887 19.6337 18.4943 18.4802 19.4832 17.0001C20.4722 15.5201 21 13.78 21 12C21 11.4477 21.4477 11 22 11C22.5523 11 23 11.4477 23 12C23 14.1756 22.3549 16.3023 21.1462 18.1113C19.9375 19.9202 18.2195 21.3301 16.2095 22.1627C14.1995 22.9952 11.9878 23.2131 9.85401 22.7886C7.72022 22.3642 5.76021 21.3166 4.22183 19.7782C2.68345 18.2398 1.6358 16.2798 1.21137 14.146C0.786929 12.0122 1.00477 9.80047 1.83733 7.79048C2.66989 5.7805 4.07979 4.06253 5.88873 2.85383C7.69767 1.64514 9.82441 1 12 1C12.5523 1 13 1.44772 13 2C13 2.55228 12.5523 3 12 3ZM12 8C11.2089 8 10.4355 8.2346 9.77772 8.67412C9.11993 9.11365 8.60723 9.73836 8.30448 10.4693C8.00173 11.2002 7.92252 12.0044 8.07686 12.7804C8.2312 13.5563 8.61217 14.269 9.17158 14.8284C9.73099 15.3878 10.4437 15.7688 11.2196 15.9231C11.9956 16.0775 12.7998 15.9983 13.5307 15.6955C14.2616 15.3928 14.8864 14.8801 15.3259 14.2223C15.7654 13.5645 16 12.7911 16 12C16 11.4477 16.4477 11 17 11C17.5523 11 18 11.4477 18 12C18 13.1867 17.6481 14.3467 16.9888 15.3334C16.3295 16.3201 15.3925 17.0892 14.2961 17.5433C13.1997 17.9974 11.9933 18.1162 10.8295 17.8847C9.66558 17.6532 8.59648 17.0818 7.75736 16.2426C6.91825 15.4035 6.3468 14.3344 6.11529 13.1705C5.88378 12.0067 6.0026 10.8003 6.45673 9.7039C6.91085 8.60754 7.67989 7.67047 8.66658 7.01118C9.65328 6.35189 10.8133 6 12 6C12.5523 6 13 6.44772 13 7C13 7.55228 12.5523 8 12 8ZM18.8944 2.5528C18.7507 2.26529 18.4775 2.06441 18.1602 2.01292C17.8429 1.96144 17.5202 2.06561 17.2929 2.29291L14.2929 5.29291C14.1054 5.48044 14 5.7348 14 6.00001V8.5858L10.2929 12.2929C9.90237 12.6834 9.90237 13.3166 10.2929 13.7071C10.6834 14.0976 11.3166 14.0976 11.7071 13.7071L15.4142 10H18C18.2652 10 18.5196 9.89466 18.7071 9.70712L21.7071 6.70712C21.9344 6.47982 22.0386 6.15712 21.9871 5.83983C21.9356 5.52254 21.7347 5.24934 21.4472 5.10559L19.7454 4.25466L18.8944 2.5528ZM17.5858 8.00001H16V6.41423L17.726 4.68818L18.1056 5.44723C18.2023 5.64075 18.3593 5.79768 18.5528 5.89444L19.3118 6.27396L17.5858 8.00001Z" fill="currentColor"/>
</svg>
