<svg width="24" height="24" viewBox="0 0 24 24" fill="none" xmlns="http://www.w3.org/2000/svg">
<path fill-rule="evenodd" clip-rule="evenodd" d="M4 4C2.34315 4 1 5.34315 1 7V17C1 18.6569 2.34315 20 4 20H20C21.6569 20 23 18.6569 23 17V7C23 5.34315 21.6569 4 20 4H4ZM13.1201 8.29625L13.1701 9.82116L13.2621 9.86951C13.3968 9.94031 13.5513 9.98089 13.7213 9.99609C13.8319 10.006 13.9299 10.0108 13.9939 10.0008L14.0924 9.98531L14.1309 9.89335C14.3818 9.29413 14.5383 8.63944 14.6017 7.9306L14.6121 7.81437L14.5098 7.75818C13.8222 7.38046 13.0767 7.15594 12.275 7.08423C11.7335 7.0358 11.2157 7.07887 10.723 7.215C10.2292 7.35144 9.79036 7.57896 9.40863 7.89777C9.02759 8.20721 8.71197 8.60109 8.46057 9.07602L8.45919 9.07874C8.21517 9.55946 8.0673 10.1096 8.01214 10.7261L8.01193 10.7289C7.96754 11.3353 8.01627 11.8918 8.16172 12.3963L8.16264 12.3993C8.3166 12.9 8.54198 13.341 8.84023 13.72C9.13855 14.099 9.4996 14.4037 9.92232 14.6329L9.92538 14.6345C10.3483 14.8533 10.7995 14.9842 11.2777 15.027C12.2677 15.1155 13.1666 14.8157 13.9661 14.1384L14.0437 14.0726L14.0267 13.9722C13.99 13.7558 13.897 13.573 13.726 13.4602L13.638 13.4022L13.5447 13.4511C12.8328 13.8243 12.1929 13.9757 11.6201 13.9245C11.0203 13.8709 10.5667 13.5975 10.2443 13.097C9.93089 12.5967 9.80302 11.8707 9.89038 10.8941C9.93263 10.4217 10.0167 10.0039 10.1409 9.63943C10.2649 9.27562 10.4273 8.97651 10.6253 8.73808L10.627 8.73589C10.8256 8.48894 11.0547 8.3104 11.3144 8.19575C11.5816 8.08282 11.8853 8.03902 12.2299 8.06984C12.5848 8.10159 12.88 8.17866 13.1201 8.29625ZM4.90254 6.7667C4.63966 6.58156 4.35663 6.518 4.06762 6.6048C3.79003 6.68817 3.56661 6.8776 3.39402 7.15089C3.22795 7.41386 3.14585 7.67917 3.2197 7.92506C3.29775 8.18492 3.47992 8.39928 3.74013 8.57297L3.7434 8.5751C4.00808 8.74351 4.28314 8.8054 4.55499 8.72376C4.83785 8.6388 5.06379 8.45679 5.23237 8.19185C5.4003 7.92593 5.47885 7.65636 5.4029 7.4035C5.32568 7.14636 5.1518 6.93518 4.90254 6.7667ZM6.11354 9.4719L7.95118 15.5905L8.92864 15.5888L8.97735 15.6901C9.07154 15.8859 9.10367 16.0898 9.06771 16.2969L9.04766 16.4125L8.93368 16.4399C8.09789 16.6411 7.58629 16.7703 7.39163 16.8288C7.12366 16.9093 6.57917 17.0973 5.75357 17.395L5.60207 17.4496L5.53226 17.3045C5.44278 17.1185 5.39616 16.9293 5.39828 16.7385L5.39941 16.6364L5.48806 16.5857C5.72415 16.4505 5.9129 16.3375 6.05518 16.2463C6.13619 16.1943 6.19923 16.1513 6.24628 16.1167L4.726 11.0548L3.58082 11.2818L3.5214 11.1558C3.42617 10.9538 3.39176 10.7484 3.4325 10.5455L3.45029 10.457L3.53219 10.4189C4.25197 10.0841 4.84651 9.77263 5.31731 9.48457L5.34157 9.46973L5.36923 9.46316C5.55585 9.41887 5.76849 9.41881 6.0022 9.45477L6.11354 9.4719ZM19.0999 16.24L19.1011 16.2394C19.8073 15.9087 20.2515 15.3678 20.4215 14.6249C20.5364 14.123 20.4597 13.6446 20.1939 13.1976C19.977 12.8138 19.6598 12.434 19.2464 12.0575C20.1867 11.678 20.7683 11.1161 20.9347 10.3543C21.0695 9.76452 20.9648 9.21876 20.6212 8.72797C20.2758 8.23458 19.7394 7.91229 19.0317 7.7503C18.2834 7.579 17.6172 7.6475 17.0451 7.97093L17.044 7.97158C16.4838 8.29482 16.1287 8.7669 15.988 9.3816C15.8077 10.1695 16.055 10.9219 16.6906 11.6306C16.1715 11.7465 15.7431 11.9241 15.4115 12.1685C15.0241 12.4552 14.7718 12.8795 14.6469 13.4252C14.4817 14.1467 14.612 14.7952 15.0423 15.3564L15.0438 15.3584C15.4792 15.9069 16.092 16.2673 16.8701 16.4455C17.6585 16.6259 18.4037 16.5587 19.0999 16.24ZM18.9753 14.0418L18.9776 14.048C19.0534 14.2532 19.0671 14.4556 19.0206 14.6586C18.9166 15.1129 18.697 15.4164 18.3702 15.5923C18.0355 15.7725 17.6476 15.8168 17.1965 15.7136C16.7437 15.6099 16.408 15.3795 16.1782 15.0229C15.9533 14.6738 15.8924 14.2319 16.0185 13.6797C16.1769 13.0531 16.6251 12.5903 17.4016 12.3C17.6661 12.5148 17.8813 12.6968 18.0476 12.8462L18.0508 12.8491C18.2281 12.9994 18.4114 13.1836 18.6007 13.4025C18.7832 13.6135 18.9064 13.8267 18.9753 14.0418ZM19.478 9.01922L19.4805 9.02288C19.6628 9.28645 19.7152 9.64932 19.6038 10.136C19.4795 10.6787 19.1319 11.1047 18.5365 11.4121C18.1406 11.1074 17.8177 10.7926 17.5659 10.4684C17.3251 10.1503 17.2468 9.78882 17.3348 9.37086C17.4207 8.99664 17.5867 8.7482 17.8205 8.6015L17.8227 8.60014C18.0599 8.44561 18.3492 8.40062 18.7053 8.48215C19.0397 8.55869 19.2946 8.73646 19.478 9.01922Z" fill="currentColor"/>
</svg>
