<svg width="24" height="24" viewBox="0 0 24 24" fill="none" xmlns="http://www.w3.org/2000/svg">
<path d="M12.8594 4C14.1967 4.00004 15.4457 4.66849 16.1875 5.78125L19 10C21.2091 10 23 11.7909 23 14V16C23 16.5523 22.5523 17 22 17H20.9639C20.7212 18.6961 19.2632 20 17.5 20C15.7368 20 14.2788 18.6961 14.0361 17H9.96387C9.72121 18.6961 8.2632 20 6.5 20C4.7368 20 3.27879 18.6961 3.03613 17H2C1.44772 17 1 16.5523 1 16V11.5C1 10.6716 1.67157 10 2.5 10L3.58789 6.73535C4.13232 5.10205 5.66118 4.0001 7.38281 4H12.8594ZM6.5 15C5.67157 15 5 15.6716 5 16.5C5 17.3284 5.67157 18 6.5 18C7.32843 18 8 17.3284 8 16.5C8 15.6716 7.32843 15 6.5 15ZM17.5 15C16.6716 15 16 15.6716 16 16.5C16 17.3284 16.6716 18 17.5 18C18.3284 18 19 17.3284 19 16.5C19 15.6716 18.3284 15 17.5 15ZM6.75391 6.5C6.30759 6.50017 5.91559 6.79641 5.79297 7.22559L5 10H8.5V6.5H6.75391ZM10.5 10H16.5L14.5986 7.33789C14.2232 6.8123 13.6166 6.5 12.9707 6.5H10.5V10Z" fill="currentColor"/>
</svg>
