<svg width="24" height="24" viewBox="0 0 24 24" fill="none" xmlns="http://www.w3.org/2000/svg">
<path fill-rule="evenodd" clip-rule="evenodd" d="M5.07904 4.69324C5.30051 4.44318 5.6113 4.31815 6.01139 4.31815C6.40433 4.31815 6.71154 4.44318 6.93302 4.69324C7.16164 4.93615 7.27595 5.28265 7.27595 5.73275C7.27595 6.17571 7.16164 6.52221 6.93302 6.77227C6.71154 7.02233 6.40433 7.14735 6.01139 7.14735C5.61844 7.14735 5.30766 7.0259 5.07904 6.78299C4.85756 6.53293 4.74682 6.18285 4.74682 5.73275C4.74682 5.28265 4.85756 4.93615 5.07904 4.69324ZM3.66443 7.71534C4.10739 8.15829 4.74325 8.37977 5.572 8.37977C6.11498 8.37977 6.61509 8.24046 7.07234 7.96182H7.08305L7.09377 7.98325C6.89373 8.4405 6.60438 8.79415 6.22572 9.04421C5.85421 9.29426 5.36481 9.45501 4.75754 9.52646C4.60036 9.54789 4.47533 9.62291 4.38245 9.75151C4.29672 9.87296 4.26814 10.0123 4.29672 10.1695L4.36102 10.4481C4.39674 10.6196 4.48247 10.7589 4.61822 10.866C4.76111 10.9732 4.91829 11.0161 5.08975 10.9946C6.3186 10.8518 7.2831 10.3516 7.98325 9.49431C8.68341 8.62983 9.03349 7.49029 9.03349 6.07569C9.03349 5.0969 8.76557 4.33958 8.22974 3.80375C7.6939 3.26792 6.95445 3 6.01139 3C5.11119 3 4.38245 3.25363 3.82518 3.76088C3.27506 4.261 3 4.91829 3 5.73275C3 6.60438 3.22148 7.26524 3.66443 7.71534ZM16.2929 5.29289C16.6834 4.90237 17.3166 4.90237 17.7071 5.29289L20.7071 8.29289C20.9931 8.57889 21.0787 9.00901 20.9239 9.38268C20.7691 9.75636 20.4045 10 20 10H18V18C18 18.5523 17.5523 19 17 19C16.4477 19 16 18.5523 16 18V10H14C13.5956 10 13.2309 9.75636 13.0761 9.38268C12.9214 9.00901 13.0069 8.57889 13.2929 8.29289L16.2929 5.29289ZM5.57085 14.1999L4.28461 15.4093C4.15487 15.5319 4.06844 15.6837 4.02574 15.8616C3.98276 16.0406 3.99364 16.2178 4.05811 16.3899L4.19216 16.7537C4.24859 16.9069 4.36136 17.0066 4.52061 17.0464L4.52528 17.0474C4.68406 17.0791 4.82644 17.0385 4.94018 16.9256L5.94079 16V20.3534C5.94079 20.5263 6.00191 20.6786 6.12136 20.8055L6.1235 20.8077C6.24998 20.9342 6.40291 21 6.57777 21H7.19147C7.37159 21 7.52608 20.9349 7.64785 20.8055C7.7673 20.6786 7.82846 20.5263 7.82846 20.3534V14.4466C7.82846 14.2736 7.7673 14.1214 7.64785 13.9945C7.52608 13.8651 7.37159 13.8 7.19147 13.8H6.57777C6.19987 13.8 5.86302 13.9349 5.57085 14.1999Z" fill="currentColor"/>
</svg>
