<svg width="24" height="24" viewBox="0 0 24 24" fill="none" xmlns="http://www.w3.org/2000/svg">
<path fill-rule="evenodd" clip-rule="evenodd" d="M5.07904 4.69324C5.30051 4.44318 5.6113 4.31815 6.01139 4.31815C6.40433 4.31815 6.71154 4.44318 6.93302 4.69324C7.16164 4.93615 7.27595 5.28265 7.27595 5.73275C7.27595 6.17571 7.16164 6.52222 6.93302 6.77227C6.71154 7.02233 6.40433 7.14735 6.01139 7.14735C5.61844 7.14735 5.30766 7.0259 5.07904 6.78299C4.85756 6.53293 4.74682 6.18285 4.74682 5.73275C4.74682 5.28265 4.85756 4.93615 5.07904 4.69324ZM3.66443 7.71534C4.10739 8.15829 4.74325 8.37977 5.572 8.37977C6.11498 8.37977 6.61509 8.24046 7.07234 7.96182H7.08305L7.09377 7.98326C6.89373 8.4405 6.60438 8.79415 6.22572 9.04421C5.85421 9.29426 5.36481 9.45501 4.75754 9.52646C4.60036 9.54789 4.47533 9.62291 4.38245 9.75151C4.29672 9.87296 4.26814 10.0123 4.29672 10.1695L4.36102 10.4481C4.39674 10.6196 4.48247 10.7589 4.61822 10.866C4.76111 10.9732 4.91829 11.0161 5.08975 10.9946C6.3186 10.8518 7.2831 10.3516 7.98325 9.49431C8.68341 8.62983 9.03349 7.49029 9.03349 6.07569C9.03349 5.0969 8.76557 4.33958 8.22974 3.80375C7.6939 3.26792 6.95445 3 6.01139 3C5.11119 3 4.38245 3.25363 3.82518 3.76088C3.27506 4.261 3 4.91829 3 5.73275C3 6.60438 3.22148 7.26524 3.66443 7.71534ZM18 7C18 6.44772 17.5523 6 17 6C16.4477 6 16 6.44772 16 7V14H14C13.5955 14 13.2309 14.2436 13.0761 14.6173C12.9213 14.991 13.0069 15.4211 13.2929 15.7071L16.2929 18.7071C16.3926 18.8068 16.5081 18.8811 16.6313 18.9298C16.7427 18.974 16.8639 18.9988 16.9908 19L17 19L17.003 19C17.1429 18.9996 17.276 18.9705 17.3968 18.9182C17.4924 18.8769 17.5828 18.82 17.6642 18.7475C17.6805 18.7331 17.6963 18.718 17.7117 18.7025L20.7071 15.7071C20.9931 15.4211 21.0786 14.991 20.9239 14.6173C20.7691 14.2436 20.4044 14 20 14H18V7ZM4.73101 14.3003L3.44477 15.5097C3.31502 15.6323 3.2286 15.7841 3.1859 15.962C3.14292 16.1411 3.15379 16.3182 3.21827 16.4903L3.35231 16.8541C3.40875 17.0073 3.52152 17.107 3.68077 17.1468L3.68544 17.1478C3.84422 17.1795 3.98659 17.1389 4.10034 17.026L5.10094 16.1004V20.4538C5.10094 20.6267 5.16206 20.779 5.28151 20.9059L5.28366 20.9081C5.41014 21.0346 5.56307 21.1004 5.73793 21.1004H6.35163C6.53175 21.1004 6.68624 21.0353 6.80801 20.9059C6.92746 20.779 6.98861 20.6267 6.98861 20.4538V14.547C6.98861 14.374 6.92746 14.2218 6.80801 14.0949C6.68624 13.9655 6.53175 13.9004 6.35163 13.9004H5.73793C5.36002 13.9004 5.02318 14.0353 4.73101 14.3003Z" fill="currentColor"/>
</svg>
