<svg width="24" height="24" viewBox="0 0 24 24" fill="none" xmlns="http://www.w3.org/2000/svg">
<path fill-rule="evenodd" clip-rule="evenodd" d="M6.48032 4.62192L5.62552 7.76712C5.62552 7.78904 5.63283 7.81096 5.64744 7.83288C5.66205 7.84749 5.68032 7.85479 5.70223 7.85479H7.28032C7.30224 7.85479 7.3205 7.84749 7.33511 7.83288C7.35703 7.81096 7.36434 7.78904 7.35703 7.76712L6.50224 4.62192C6.50224 4.61461 6.49858 4.61096 6.49128 4.61096C6.48397 4.61096 6.48032 4.61461 6.48032 4.62192ZM3.4447 11C3.29128 11 3.17073 10.9379 3.08306 10.8137C2.99539 10.6895 2.97712 10.5543 3.02826 10.4082L5.32963 3.59178C5.39539 3.41644 5.50132 3.27397 5.64744 3.16438C5.80087 3.05479 5.9689 3 6.15155 3H6.87484C7.06479 3 7.23283 3.05479 7.37895 3.16438C7.53237 3.27397 7.63831 3.41644 7.69676 3.59178L10.0091 10.4082C10.0602 10.5543 10.0383 10.6895 9.94333 10.8137C9.85566 10.9379 9.73511 11 9.58169 11H8.84744C8.6721 11 8.50771 10.9452 8.35429 10.8356C8.20817 10.7187 8.10954 10.5726 8.0584 10.3973L7.78443 9.35616C7.77712 9.29772 7.73694 9.26849 7.66388 9.26849H5.31867C5.25292 9.26849 5.21274 9.29772 5.19813 9.35616L4.92415 10.3973C4.88032 10.5726 4.78169 10.7187 4.62826 10.8356C4.48214 10.9452 4.31776 11 4.13511 11H3.4447ZM18 7C18 6.44772 17.5523 6 17 6C16.4477 6 16 6.44772 16 7V14H14C13.5955 14 13.2309 14.2436 13.0761 14.6173C12.9213 14.991 13.0069 15.4211 13.2929 15.7071L16.2929 18.7071C16.3926 18.8068 16.5081 18.8811 16.6313 18.9298C16.7427 18.974 16.8639 18.9988 16.9908 19L17 19L17.003 19C17.1429 18.9996 17.276 18.9705 17.3968 18.9182C17.4924 18.8769 17.5828 18.82 17.6642 18.7475C17.6805 18.7331 17.6963 18.718 17.7117 18.7025L20.7071 15.7071C20.9931 15.4211 21.0786 14.991 20.9239 14.6173C20.7691 14.2436 20.4044 14 20 14H18V7ZM3.81536 20.8137C3.93956 20.9379 4.08568 21 4.25371 21H8.7907C8.95874 21 9.1012 20.9379 9.2181 20.8137C9.3423 20.6895 9.4044 20.5434 9.4044 20.3753V20.1233C9.4044 19.9553 9.3423 19.8091 9.2181 19.6849C9.1012 19.5607 8.95874 19.4986 8.7907 19.4986H5.8318C5.82449 19.4986 5.82084 19.495 5.82084 19.4877H5.8318V19.4767L9.04275 15.0055C9.28385 14.6767 9.4044 14.3005 9.4044 13.8767V13.6247C9.4044 13.4566 9.3423 13.3105 9.2181 13.1863C9.1012 13.0621 8.95874 13 8.7907 13H4.25371C4.08568 13 3.93956 13.0621 3.81536 13.1863C3.69846 13.3105 3.64001 13.4566 3.64001 13.6247V13.8767C3.64001 14.0447 3.69846 14.1909 3.81536 14.3151C3.93956 14.4393 4.08568 14.5014 4.25371 14.5014H7.21262C7.21992 14.5014 7.22358 14.505 7.22358 14.5123H7.21262V14.5233L4.00166 18.9945C3.76056 19.3233 3.64001 19.6995 3.64001 20.1233V20.3753C3.64001 20.5434 3.69846 20.6895 3.81536 20.8137Z" fill="currentColor"/>
</svg>
