<svg width="24" height="24" viewBox="0 0 24 24" fill="none" xmlns="http://www.w3.org/2000/svg">
<path fill-rule="evenodd" clip-rule="evenodd" d="M3.81499 10.8137C3.93919 10.9379 4.08531 11 4.25335 11H8.79033C8.95837 11 9.10084 10.9379 9.21773 10.8137C9.34193 10.6895 9.40403 10.5434 9.40403 10.3753V10.1233C9.40403 9.95525 9.34193 9.80913 9.21773 9.68493C9.10084 9.56073 8.95837 9.49863 8.79033 9.49863H5.83143C5.82412 9.49863 5.82047 9.49498 5.82047 9.48767H5.83143V9.47671L9.04239 5.00548C9.28348 4.67671 9.40403 4.30046 9.40403 3.87671V3.62466C9.40403 3.45662 9.34193 3.3105 9.21773 3.1863C9.10084 3.0621 8.95837 3 8.79033 3H4.25335C4.08531 3 3.93919 3.0621 3.81499 3.1863C3.6981 3.3105 3.63965 3.45662 3.63965 3.62466V3.87671C3.63965 4.04475 3.6981 4.19087 3.81499 4.31507C3.93919 4.43927 4.08531 4.50137 4.25335 4.50137H7.21225C7.21956 4.50137 7.22321 4.50502 7.22321 4.51233H7.21225V4.52329L4.00129 8.99452C3.7602 9.32329 3.63965 9.69954 3.63965 10.1233V10.3753C3.63965 10.5434 3.6981 10.6895 3.81499 10.8137ZM18 7C18 6.44772 17.5523 6 17 6C16.4477 6 16 6.44772 16 7V14H14C13.5955 14 13.2309 14.2436 13.0761 14.6173C12.9213 14.991 13.0069 15.4211 13.2929 15.7071L16.2929 18.7071C16.3926 18.8068 16.5081 18.8811 16.6313 18.9298C16.7427 18.974 16.8639 18.9988 16.9908 19L17 19L17.003 19C17.1429 18.9996 17.276 18.9705 17.3968 18.9182C17.4924 18.8769 17.5828 18.82 17.6642 18.7475C17.6805 18.7331 17.6963 18.718 17.7117 18.7025L20.7071 15.7071C20.9931 15.4211 21.0786 14.991 20.9239 14.6173C20.7691 14.2436 20.4044 14 20 14H18V7ZM6.48032 14.6219L5.62552 17.7671C5.62552 17.789 5.63283 17.811 5.64744 17.8329C5.66205 17.8475 5.68032 17.8548 5.70223 17.8548H7.28032C7.30224 17.8548 7.3205 17.8475 7.33511 17.8329C7.35703 17.811 7.36434 17.789 7.35703 17.7671L6.50224 14.6219C6.50224 14.6146 6.49858 14.611 6.49128 14.611C6.48397 14.611 6.48032 14.6146 6.48032 14.6219ZM3.4447 21C3.29128 21 3.17073 20.9379 3.08306 20.8137C2.99539 20.6895 2.97712 20.5543 3.02826 20.4082L5.32963 13.5918C5.39539 13.4164 5.50132 13.274 5.64744 13.1644C5.80087 13.0548 5.9689 13 6.15155 13H6.87484C7.06479 13 7.23283 13.0548 7.37895 13.1644C7.53237 13.274 7.63831 13.4164 7.69676 13.5918L10.0091 20.4082C10.0602 20.5543 10.0383 20.6895 9.94333 20.8137C9.85566 20.9379 9.73511 21 9.58169 21H8.84744C8.6721 21 8.50771 20.9452 8.35429 20.8356C8.20817 20.7187 8.10954 20.5726 8.0584 20.3973L7.78443 19.3562C7.77712 19.2977 7.73694 19.2685 7.66388 19.2685H5.31867C5.25292 19.2685 5.21274 19.2977 5.19813 19.3562L4.92415 20.3973C4.88032 20.5726 4.78169 20.7187 4.62826 20.8356C4.48214 20.9452 4.31776 21 4.13511 21H3.4447Z" fill="currentColor"/>
</svg>
