<svg width="24" height="24" viewBox="0 0 24 24" fill="none" xmlns="http://www.w3.org/2000/svg">
<path fill-rule="evenodd" clip-rule="evenodd" d="M16 5C16 6.10457 15.1046 7 14 7L4 7C2.89543 7 2 6.10457 2 5V4C2 2.89543 2.89543 2 4 2L14 2C15.1046 2 16 2.89543 16 4V5ZM20 14.5C21.1046 14.5 22 13.6046 22 12.5V11.5C22 10.3954 21.1046 9.5 20 9.5L4 9.5C2.89543 9.5 2 10.3954 2 11.5V12.5C2 13.6046 2.89543 14.5 4 14.5L20 14.5ZM10 22C11.1046 22 12 21.1046 12 20V19C12 17.8954 11.1046 17 10 17H4C2.89543 17 2 17.8954 2 19V20C2 21.1046 2.89543 22 4 22H10Z" fill="currentColor"/>
</svg>
