<svg width="24" height="24" viewBox="0 0 24 24" fill="none" xmlns="http://www.w3.org/2000/svg">
<path fill-rule="evenodd" clip-rule="evenodd" d="M4 3C4 2.44772 3.55228 2 3 2C2.44772 2 2 2.44772 2 3V20.0004C2 21.105 2.89543 22.0004 4 22.0004H21C21.5523 22.0004 22 21.5527 22 21.0004C22 20.4481 21.5523 20.0004 21 20.0004H4V3ZM19.7957 7.75605C20.2131 7.04047 19.9714 6.122 19.2558 5.70458C18.5403 5.28716 17.6218 5.52886 17.2044 6.24444L14.244 11.3193L10.2942 10.5294C9.65457 10.4014 9.00558 10.7016 8.68879 11.2718L6.18879 15.7718C5.78647 16.496 6.04739 17.4092 6.77156 17.8115C7.49574 18.2138 8.40895 17.9529 8.81126 17.2287L10.7795 13.6858L14.0057 14.3311C15.0528 14.5405 16.1174 14.0617 16.6555 13.1393L19.7957 7.75605Z" fill="currentColor"/>
</svg>
