<svg width="24" height="24" viewBox="0 0 24 24" fill="none" xmlns="http://www.w3.org/2000/svg">
<path fill-rule="evenodd" clip-rule="evenodd" d="M10.9999 2.04933C5.94664 2.55109 2 6.81462 2 11.9999C2 14.3755 2.82836 16.5577 4.212 18.2732L8.51698 13.9682C8.18787 13.3871 8 12.7155 8 11.9999C8 10.1361 9.27474 8.57005 10.9999 8.12598V2.04933ZM15.874 10.9999C15.5122 9.59432 14.4056 8.48771 12.9999 8.12595V2.04932C17.7244 2.51835 21.4816 6.27551 21.9506 10.9999L15.874 10.9999ZM9.90535 15.4083C10.5146 15.7835 11.232 15.9999 12 15.9999C13.8638 15.9999 15.4299 14.7252 15.874 12.9999H21.9506C21.4489 18.0533 17.1853 21.9999 12 21.9999C9.57307 21.9999 7.34807 21.1354 5.61617 19.6975L9.90535 15.4083Z" fill="currentColor"/>
</svg>
