<svg width="24" height="24" viewBox="0 0 24 24" fill="none" xmlns="http://www.w3.org/2000/svg">
<path fill-rule="evenodd" clip-rule="evenodd" d="M9.5 4C9.5 2.89543 10.3954 2 11.5 2H12.5C13.6046 2 14.5 2.89543 14.5 4V20C14.5 21.1046 13.6046 22 12.5 22H11.5C10.3954 22 9.5 21.1046 9.5 20V4ZM2 14C2 12.8954 2.89543 12 4 12H5C6.10457 12 7 12.8954 7 14V20C7 21.1046 6.10457 22 5 22H4C2.89543 22 2 21.1046 2 20V14ZM19 8C17.8954 8 17 8.89543 17 10V20C17 21.1046 17.8954 22 19 22H20C21.1046 22 22 21.1046 22 20V10C22 8.89543 21.1046 8 20 8H19Z" fill="currentColor"/>
</svg>
