<svg width="24" height="24" viewBox="0 0 24 24" fill="none" xmlns="http://www.w3.org/2000/svg">
<path fill-rule="evenodd" clip-rule="evenodd" d="M4 5C4 4.44772 4.44772 4 5 4H16.5C17.0523 4 17.5 3.55228 17.5 3C17.5 2.44772 17.0523 2 16.5 2H5C3.34315 2 2 3.34315 2 5V19C2 20.6569 3.34315 22 5 22H19C20.6569 22 22 20.6569 22 19V10C22 9.44772 21.5523 9 21 9C20.4477 9 20 9.44772 20 10V19C20 19.5523 19.5523 20 19 20H5C4.44772 20 4 19.5523 4 19V5ZM12.7071 14.7071L21.7071 5.70711C22.0976 5.31658 22.0976 4.68342 21.7071 4.29289C21.3166 3.90237 20.6834 3.90237 20.2929 4.29289L12 12.5858L9.70711 10.2929C9.31658 9.90237 8.68342 9.90237 8.29289 10.2929C7.90237 10.6834 7.90237 11.3166 8.29289 11.7071L11.2929 14.7071C11.6834 15.0976 12.3166 15.0976 12.7071 14.7071Z" fill="currentColor"/>
</svg>
