<svg width="24" height="24" viewBox="0 0 24 24" fill="none" xmlns="http://www.w3.org/2000/svg">
<path fill-rule="evenodd" clip-rule="evenodd" d="M11.4284 3.01262C13.1004 2.9427 14.0563 3.14605 15.5552 3.89051C16.0498 4.13619 16.6499 3.93437 16.8956 3.43974C17.1413 2.94511 16.9395 2.34497 16.4448 2.09929C14.6442 1.20494 13.3535 0.930365 11.3448 1.01436C8.44047 1.13582 6.35301 2.22674 4.51316 3.93639C2.64867 5.66893 1.44249 7.99448 1.10006 10.5168C0.757629 13.0391 1.30013 15.6021 2.63517 17.7692C3.9702 19.9363 6.01519 21.5734 8.42174 22.4015C10.8283 23.2295 13.4474 23.1973 15.8329 22.3103C18.2184 21.4233 20.2225 19.7365 21.5039 17.5372C22.7956 15.3202 23 13.5804 23 10.997C23 10.4447 22.5523 9.99698 22 9.99698C21.4477 9.99698 21 10.4447 21 10.997C21 13.4148 20.814 14.7485 19.7758 16.5304C18.7273 18.3299 17.0875 19.71 15.1359 20.4357C13.1842 21.1614 11.0414 21.1878 9.07247 20.5103C7.10356 19.8328 5.43035 18.4934 4.33798 16.7202C3.2456 14.947 2.80168 12.8498 3.08188 10.7858C3.36208 8.7219 4.34905 6.81906 5.87458 5.4015C7.42473 3.96105 9.07481 3.11104 11.4284 3.01262ZM21.7071 5.70711C22.0976 5.31658 22.0976 4.68342 21.7071 4.29289C21.3166 3.90237 20.6834 3.90237 20.2929 4.29289L12 12.5858L9.70711 10.2929C9.31658 9.90237 8.68342 9.90237 8.29289 10.2929C7.90237 10.6834 7.90237 11.3166 8.29289 11.7071L11.2929 14.7071C11.6834 15.0976 12.3166 15.0976 12.7071 14.7071L21.7071 5.70711Z" fill="currentColor"/>
</svg>
