<svg width="24" height="24" viewBox="0 0 24 24" fill="none" xmlns="http://www.w3.org/2000/svg">
<path fill-rule="evenodd" clip-rule="evenodd" d="M6.12869 8.99169C6.55336 8.93659 6.896 8.61709 6.98041 8.19698L6.98629 8.17108C6.99229 8.14537 7.00257 8.10327 7.01782 8.04711C7.04837 7.93456 7.09845 7.76702 7.17325 7.563C7.32394 7.15203 7.56891 6.60964 7.94423 6.07346C8.67885 5.024 9.90012 4 12 4C14.0999 4 15.3211 5.024 16.0558 6.07346C16.4311 6.60964 16.6761 7.15203 16.8267 7.563C16.9016 7.76702 16.9516 7.93456 16.9822 8.04711C16.9974 8.10327 17.0077 8.14537 17.0137 8.17108L17.0195 8.19691L17.0198 8.19793L17.0201 8.19969C17.1055 8.61848 17.448 8.93679 17.8717 8.99174L17.8885 8.99429C17.9064 8.99712 17.9373 9.00232 17.9791 9.01055C18.0631 9.02705 18.1899 9.0554 18.345 9.10063C18.6586 9.1921 19.0683 9.34695 19.47 9.598C20.2389 10.0786 21 10.9114 21 12.5C21 14.2087 20.3831 14.8761 19.9453 15.1679C19.6972 15.3333 19.4446 15.4185 19.2518 15.4613C19.1567 15.4824 19.0808 15.4922 19.0341 15.4967C19.0109 15.4989 18.9956 15.4997 18.9893 15.5L18.9878 15.5001C18.4411 15.5066 18 15.9518 18 16.5C18 17.0523 18.4477 17.5 19 17.5L19.0013 17.5L19.0028 17.5L19.0058 17.5L19.0128 17.4999L19.0301 17.4996C19.0432 17.4994 19.0592 17.4989 19.0781 17.498C19.1158 17.4964 19.1648 17.4933 19.2237 17.4877C19.3411 17.4765 19.4995 17.4551 19.6857 17.4137C20.0554 17.3315 20.5528 17.1667 21.0547 16.8321C22.1169 16.1239 23 14.7913 23 12.5C23 10.0886 21.7611 8.67143 20.53 7.902C19.9317 7.52805 19.3414 7.3079 18.905 7.18062C18.8693 7.1702 18.8344 7.16036 18.8006 7.15108C18.7724 7.06533 18.7405 6.97278 18.7045 6.8745C18.5114 6.34797 18.1939 5.64036 17.6942 4.92654C16.6789 3.476 14.9001 2 12 2C9.09988 2 7.32115 3.476 6.30577 4.92654C5.80609 5.64036 5.48856 6.34797 5.2955 6.8745C5.25946 6.97278 5.22755 7.06533 5.19944 7.15108C5.16558 7.16036 5.13074 7.1702 5.095 7.18062C4.65864 7.3079 4.06832 7.52805 3.47 7.902C2.23891 8.67143 1 10.0886 1 12.5C1 14.7913 1.88309 16.1239 2.9453 16.8321C3.44722 17.1667 3.94462 17.3315 4.31432 17.4137C4.50046 17.4551 4.65891 17.4765 4.77628 17.4877C4.83515 17.4933 4.88423 17.4964 4.92191 17.498C4.94077 17.4989 4.95683 17.4994 4.96989 17.4996L4.98724 17.4999L4.9942 17.5L4.99725 17.5L4.99866 17.5L5 17.5C5.55228 17.5 6 17.0523 6 16.5C6 15.9518 5.55887 15.5066 5.01221 15.5001L5.01071 15.5C5.00445 15.4997 4.98907 15.4989 4.9659 15.4967C4.91922 15.4922 4.84329 15.4824 4.74818 15.4613C4.55538 15.4185 4.30278 15.3333 4.0547 15.1679C3.61691 14.8761 3 14.2087 3 12.5C3 10.9114 3.76109 10.0786 4.53 9.598C4.93168 9.34695 5.34136 9.1921 5.655 9.10063C5.81007 9.0554 5.93687 9.02705 6.02087 9.01055C6.06274 9.00232 6.09355 8.99712 6.11146 8.99429L6.12869 8.99169ZM8.29289 14.2929C7.90237 14.6834 7.90237 15.3166 8.29289 15.7071C8.68342 16.0976 9.31658 16.0976 9.70711 15.7071L11 14.4142V21C11 21.5523 11.4477 22 12 22C12.5523 22 13 21.5523 13 21V14.4142L14.2929 15.7071C14.6834 16.0976 15.3166 16.0976 15.7071 15.7071C16.0976 15.3166 16.0976 14.6834 15.7071 14.2929L12.7071 11.2929C12.3166 10.9024 11.6834 10.9024 11.2929 11.2929L8.29289 14.2929Z" fill="currentColor"/>
</svg>
