<svg width="24" height="24" viewBox="0 0 24 24" fill="none" xmlns="http://www.w3.org/2000/svg">
<path fill-rule="evenodd" clip-rule="evenodd" d="M4.70711 3.29289C4.31658 2.90237 3.68342 2.90237 3.29289 3.29289C2.90237 3.68342 2.90237 4.31658 3.29289 4.70711L5.99389 7.40811C5.66877 7.95131 5.44487 8.46711 5.2955 8.8745C5.25946 8.97278 5.22755 9.06533 5.19944 9.15108C5.16558 9.16036 5.13074 9.1702 5.095 9.18062C4.65864 9.3079 4.06832 9.52805 3.47 9.902C2.23891 10.6714 1 12.0886 1 14.5C1 16.9114 2.23891 18.3286 3.47 19.098C4.06832 19.4719 4.65864 19.6921 5.095 19.8194C5.31493 19.8835 5.50063 19.9255 5.63538 19.952C5.70289 19.9652 5.75801 19.9747 5.79869 19.9811C5.8171 19.984 5.85308 19.9891 5.86939 19.9914L5.87387 19.992C5.91501 19.9972 5.95854 20 6 20H18C18.0415 20 18.125 19.9922 18.125 19.9922C18.125 19.9922 18.181 19.9843 18.2013 19.9811C18.242 19.9747 18.2971 19.9652 18.3646 19.952C18.4074 19.9436 18.4552 19.9336 18.5077 19.9219L19.2929 20.7071C19.6834 21.0976 20.3166 21.0976 20.7071 20.7071C21.0976 20.3166 21.0976 19.6834 20.7071 19.2929L4.70711 3.29289ZM16.5858 18L7.46668 8.88089C7.34344 9.129 7.24704 9.36176 7.17325 9.563C7.09845 9.76702 7.04837 9.93456 7.01782 10.0471C7.00257 10.1033 6.99229 10.1454 6.98629 10.1711L6.98041 10.197C6.89569 10.6186 6.55258 10.9387 6.12577 10.9921C6.10786 10.9949 6.06274 11.0023 6.02087 11.0105C5.93687 11.027 5.81007 11.0554 5.655 11.1006C5.34136 11.1921 4.93168 11.3469 4.53 11.598C3.76109 12.0786 3 12.9114 3 14.5C3 16.0886 3.76109 16.9214 4.53 17.402C4.93168 17.6531 5.34136 17.8079 5.655 17.8994C5.81007 17.9446 5.93687 17.973 6.02087 17.9895C6.04285 17.9938 6.06178 17.9973 6.0774 18H16.5858ZM21 14.5C21 15.7489 20.5296 16.5307 19.9548 17.0414L21.3696 18.4562C22.2677 17.6202 23 16.3539 23 14.5C23 12.0886 21.7611 10.6714 20.53 9.902C19.9317 9.52805 19.3414 9.3079 18.905 9.18062C18.8693 9.1702 18.8344 9.16036 18.8006 9.15108C18.7724 9.06533 18.7405 8.97278 18.7045 8.8745C18.5114 8.34797 18.1939 7.64036 17.6942 6.92654C16.6789 5.476 14.9001 4 12 4C10.3491 4 9.06153 4.47831 8.07135 5.15796L9.52132 6.60793C10.1709 6.24054 10.9823 6 12 6C14.0999 6 15.3211 7.024 16.0558 8.07346C16.4311 8.60964 16.6761 9.15203 16.8267 9.563C16.9016 9.76702 16.9516 9.93456 16.9822 10.0471C16.9974 10.1033 17.0077 10.1454 17.0137 10.1711L17.0195 10.1969L17.0201 10.1997C17.1055 10.6185 17.448 10.9368 17.8717 10.9917L17.8885 10.9943C17.9064 10.9971 17.9373 11.0023 17.9791 11.0105C18.0631 11.027 18.1899 11.0554 18.345 11.1006C18.6586 11.1921 19.0683 11.3469 19.47 11.598C20.2389 12.0786 21 12.9114 21 14.5Z" fill="currentColor"/>
</svg>
