<svg width="24" height="24" viewBox="0 0 24 24" fill="none" xmlns="http://www.w3.org/2000/svg">
<path fill-rule="evenodd" clip-rule="evenodd" d="M4.70711 3.29289C4.31658 2.90237 3.68342 2.90237 3.29289 3.29289C2.90237 3.68342 2.90237 4.31658 3.29289 4.70711L5.8284 7.24261C5.40907 7.87573 5.13002 8.60985 5.03555 9.40068C3.25068 10.164 2 11.9359 2 14C2 16.7614 4.23858 19 7 19H17.5858L19.2929 20.7071C19.6834 21.0976 20.3166 21.0976 20.7071 20.7071C21.0976 20.3166 21.0976 19.6834 20.7071 19.2929L4.70711 3.29289ZM22 15C22 16.1266 21.5343 17.1444 20.7848 17.8714L8.23415 5.32076C8.78322 5.11344 9.37836 5 10 5C11.8527 5 13.47 6.00766 14.3339 7.50482C14.8105 7.18595 15.3835 7 16 7C17.6569 7 19 8.34315 19 10C19 10.3807 18.9291 10.7449 18.7997 11.08C20.6257 11.4505 22 13.0647 22 15Z" fill="currentColor"/>
</svg>
