<svg width="24" height="24" viewBox="0 0 24 24" fill="none" xmlns="http://www.w3.org/2000/svg">
<path fill-rule="evenodd" clip-rule="evenodd" d="M6.98041 10.197C6.89569 10.6186 6.55085 10.9389 6.12403 10.9923L6.12577 10.9921L6.12715 10.9919L6.12888 10.9917L6.11146 10.9943C6.09355 10.9971 6.06274 11.0023 6.02087 11.0105C5.93687 11.027 5.81007 11.0554 5.655 11.1006C5.34136 11.1921 4.93168 11.3469 4.53 11.598C3.76109 12.0786 3 12.9114 3 14.5C3 16.0886 3.76109 16.9214 4.53 17.402C4.93168 17.6531 5.34136 17.8079 5.655 17.8994C5.81007 17.9446 5.93687 17.973 6.02087 17.9895C6.04285 17.9938 6.06178 17.9973 6.0774 18H17.9226C17.9382 17.9973 17.9572 17.9938 17.9791 17.9895C18.0631 17.973 18.1899 17.9446 18.345 17.8994C18.6586 17.8079 19.0683 17.6531 19.47 17.402C20.2389 16.9214 21 16.0886 21 14.5C21 12.9114 20.2389 12.0786 19.47 11.598C19.0683 11.3469 18.6586 11.1921 18.345 11.1006C18.1899 11.0554 18.0631 11.027 17.9791 11.0105C17.9373 11.0023 17.9064 10.9971 17.8885 10.9943L17.8717 10.9917L17.8729 10.9919L17.8742 10.9921L17.8717 10.9917C17.448 10.9368 17.1055 10.6185 17.0201 10.1997L17.0195 10.1969L17.0137 10.1711C17.0077 10.1454 16.9974 10.1033 16.9822 10.0471C16.9516 9.93456 16.9016 9.76702 16.8267 9.563C16.6761 9.15203 16.4311 8.60964 16.0558 8.07346C15.3211 7.024 14.0999 6 12 6C9.90012 6 8.67885 7.024 7.94423 8.07346C7.56891 8.60964 7.32394 9.15203 7.17325 9.563C7.09845 9.76702 7.04837 9.93456 7.01782 10.0471C7.00257 10.1033 6.99229 10.1454 6.98629 10.1711L6.98041 10.197L6.97981 10.1999L6.98002 10.1989L6.98041 10.197ZM18.8006 9.15108C18.7724 9.06533 18.7405 8.97278 18.7045 8.8745C18.5114 8.34797 18.1939 7.64036 17.6942 6.92654C16.6789 5.476 14.9001 4 12 4C9.09988 4 7.32115 5.476 6.30577 6.92654C5.80609 7.64036 5.48856 8.34797 5.2955 8.8745C5.25946 8.97278 5.22755 9.06533 5.19944 9.15108C5.16558 9.16036 5.13074 9.1702 5.095 9.18062C4.65864 9.3079 4.06832 9.52805 3.47 9.902C2.23891 10.6714 1 12.0886 1 14.5C1 16.9114 2.23891 18.3286 3.47 19.098C4.06832 19.4719 4.65864 19.6921 5.095 19.8194C5.31493 19.8835 5.50063 19.9255 5.63538 19.952C5.70289 19.9652 5.75801 19.9747 5.79869 19.9811C5.81905 19.9843 5.83583 19.9868 5.84878 19.9886L5.86532 19.9909L5.87139 19.9917L5.87387 19.992L5.87496 19.9922L5.87597 19.9923C5.91711 19.9974 5.95854 20 6 20H18C18.0415 20 18.0829 19.9974 18.124 19.9923L18.125 19.9922L18.1261 19.992L18.1286 19.9917L18.1347 19.9909L18.1512 19.9886C18.1642 19.9868 18.181 19.9843 18.2013 19.9811C18.242 19.9747 18.2971 19.9652 18.3646 19.952C18.4994 19.9255 18.6851 19.8835 18.905 19.8194C19.3414 19.6921 19.9317 19.4719 20.53 19.098C21.7611 18.3286 23 16.9114 23 14.5C23 12.0886 21.7611 10.6714 20.53 9.902C19.9317 9.52805 19.3414 9.3079 18.905 9.18062C18.8693 9.1702 18.8344 9.16036 18.8006 9.15108Z" fill="currentColor"/>
</svg>
