<svg width="24" height="24" viewBox="0 0 24 24" fill="none" xmlns="http://www.w3.org/2000/svg">
<path d="M1 14.45C1 17.1828 3.21719 19.4 5.95 19.4H18.6C21.0303 19.4 23 17.4303 23 15C23 12.8722 21.4875 11.095 19.48 10.6894C19.6209 10.3216 19.7 9.91937 19.7 9.5C19.7 7.67812 18.2219 6.2 16.4 6.2C15.7228 6.2 15.0903 6.40625 14.5678 6.75687C13.6156 5.10687 11.8384 4 9.8 4C6.76125 4 4.3 6.46125 4.3 9.5C4.3 9.59281 4.30344 9.68562 4.30687 9.77844C2.38187 10.4556 1 12.2912 1 14.45Z" fill="currentColor"/>
</svg>
