<svg width="24" height="24" viewBox="0 0 24 24" fill="none" xmlns="http://www.w3.org/2000/svg">
<path fill-rule="evenodd" clip-rule="evenodd" d="M16 5C16 6.67869 14.9659 8.11585 13.5 8.70924V11.5H17.5C18.3284 11.5 19 12.1716 19 13V17H21C21.5523 17 22 17.4477 22 18V22C22 22.5523 21.5523 23 21 23H14C13.4477 23 13 22.5523 13 22V18C13 17.4477 13.4477 17 14 17H16V14.5H12H8V17H10C10.5523 17 11 17.4477 11 18V22C11 22.5523 10.5523 23 10 23H3C2.44772 23 2 22.5523 2 22V18C2 17.4477 2.44772 17 3 17H5V13C5 12.1716 5.67157 11.5 6.5 11.5H10.5V8.70924C9.03408 8.11585 8 6.67869 8 5C8 2.79086 9.79086 1 12 1C14.2091 1 16 2.79086 16 5Z" fill="currentColor"/>
</svg>
