<svg width="24" height="24" viewBox="0 0 24 24" fill="none" xmlns="http://www.w3.org/2000/svg">
<path fill-rule="evenodd" clip-rule="evenodd" d="M14 1C15.6569 1 17 2.34315 17 4V4.5C17 5.05228 16.5523 5.5 16 5.5C15.4477 5.5 15 5.05228 15 4.5V4C15 3.44772 14.5523 3 14 3H13.5C12.9477 3 12.5 2.55228 12.5 2C12.5 1.44772 12.9477 1 13.5 1H14ZM4.5 1C5.05229 1 5.5 1.44772 5.5 2C5.5 2.55228 5.05229 3 4.5 3H4C3.44772 3 3 3.44772 3 4V4.5C3 5.05228 2.55229 5.5 2 5.5C1.44771 5.5 1 5.05228 1 4.5V4C1 2.34315 2.34315 1 4 1H4.5ZM1 13.5C1 12.9477 1.44771 12.5 2 12.5C2.55229 12.5 3 12.9477 3 13.5V14C3 14.5523 3.44772 15 4 15H4.5C5.05229 15 5.5 15.4477 5.5 16C5.5 16.5523 5.05229 17 4.5 17H4C2.34315 17 1 15.6569 1 14V13.5ZM10 1C10.5523 1 11 1.44772 11 2C11 2.55228 10.5523 3 10 3H8C7.44772 3 7 2.55228 7 2C7 1.44772 7.44772 1 8 1H10ZM2 7C1.44771 7 1 7.44772 1 8V10C1 10.5523 1.44771 11 2 11C2.55229 11 3 10.5523 3 10V8C3 7.44772 2.55229 7 2 7ZM20 7C21.6569 7 23 8.34315 23 10V20C23 21.6569 21.6569 23 20 23H10C8.34315 23 7 21.6569 7 20V10C7 8.34315 8.34315 7 10 7H20ZM21 10C21 9.44772 20.5523 9 20 9H10C9.44772 9 9 9.44772 9 10V20C9 20.5523 9.44771 21 10 21H20C20.5523 21 21 20.5523 21 20V10Z" fill="currentColor"/>
</svg>
