<svg width="24" height="24" viewBox="0 0 24 24" fill="none" xmlns="http://www.w3.org/2000/svg">
<path fill-rule="evenodd" clip-rule="evenodd" d="M4 1C2.34315 1 1 2.34315 1 4V14C1 15.6569 2.34315 17 4 17H7V20C7 21.6569 8.34315 23 10 23H20C21.6569 23 23 21.6569 23 20V10C23 8.34315 21.6569 7 20 7H17V4C17 2.34315 15.6569 1 14 1H4ZM15 7V4C15 3.44772 14.5523 3 14 3H4C3.44772 3 3 3.44772 3 4V14C3 14.5523 3.44772 15 4 15H7V10C7 8.34315 8.34315 7 10 7H15ZM9 17V20C9 20.5523 9.44772 21 10 21H20C20.5523 21 21 20.5523 21 20V10C21 9.44772 20.5523 9 20 9H17H15H10C9.44772 9 9 9.44772 9 10V15V17ZM11 13C11 12.4477 11.4477 12 12 12H18C18.5523 12 19 12.4477 19 13C19 13.5523 18.5523 14 18 14H12C11.4477 14 11 13.5523 11 13ZM12 16C11.4477 16 11 16.4477 11 17C11 17.5523 11.4477 18 12 18H18C18.5523 18 19 17.5523 19 17C19 16.4477 18.5523 16 18 16H12Z" fill="currentColor"/>
</svg>
