<svg width="24" height="24" viewBox="0 0 24 24" fill="none" xmlns="http://www.w3.org/2000/svg">
<path fill-rule="evenodd" clip-rule="evenodd" d="M16 5.5V4C16 2.34315 14.6569 1 13 1H4C2.34315 1 1 2.34315 1 4V13C1 14.6569 2.34315 16 4 16H5.5C5.77614 16 6 15.7761 6 15.5V9C6 7.34315 7.34315 6 9 6H15.5C15.7761 6 16 5.77614 16 5.5ZM11 8C9.34315 8 8 9.34315 8 11V20C8 21.6569 9.34315 23 11 23H20C21.6569 23 23 21.6569 23 20V11C23 9.34315 21.6569 8 20 8H11ZM12 12.5C11.4477 12.5 11 12.9477 11 13.5C11 14.0523 11.4477 14.5 12 14.5H19C19.5523 14.5 20 14.0523 20 13.5C20 12.9477 19.5523 12.5 19 12.5H12ZM11 17.5C11 16.9477 11.4477 16.5 12 16.5H19C19.5523 16.5 20 16.9477 20 17.5C20 18.0523 19.5523 18.5 19 18.5H12C11.4477 18.5 11 18.0523 11 17.5Z" fill="currentColor"/>
</svg>
