<svg width="24" height="24" viewBox="0 0 24 24" fill="none" xmlns="http://www.w3.org/2000/svg">
<path fill-rule="evenodd" clip-rule="evenodd" d="M4.9846 6C4.99433 6.00014 5.00406 6.00014 5.01378 6L18.9865 6C18.9962 6.00014 19.0059 6.00014 19.0155 6H20C20.5523 6 21 5.55229 21 5C21 4.44772 20.5523 4 20 4H19.5353L18.4259 2.3359C17.8695 1.5013 16.9328 1 15.9297 1H8.07047C7.06741 1 6.13072 1.5013 5.57432 2.3359L4.46492 4H4C3.44772 4 3 4.44772 3 5C3 5.55228 3.44772 6 4 6H4.9846ZM17.2352 20.4243C17.024 21.9022 15.7583 23 14.2653 23H9.73449C8.24154 23 6.97578 21.9022 6.76464 20.4243L4.98975 8H19.01L17.2352 20.4243ZM15.6392 17.1644L16.4999 12C16.5872 11.4765 16.1835 11 15.6528 11H8.34706C7.81637 11 7.41269 11.4765 7.49993 12L8.36067 17.1644C8.44103 17.6466 8.85822 18 9.34706 18H14.6528C15.1416 18 15.5588 17.6466 15.6392 17.1644Z" fill="currentColor"/>
</svg>
