<svg width="24" height="24" viewBox="0 0 24 24" fill="none" xmlns="http://www.w3.org/2000/svg">
<path fill-rule="evenodd" clip-rule="evenodd" d="M8.07037 3C7.73601 3 7.42378 3.1671 7.23832 3.4453L6.86852 4L17.1315 4L16.7617 3.4453C16.5762 3.1671 16.264 3 15.9296 3H8.07037ZM5.01367 6C5.00395 6.00014 4.99422 6.00014 4.98449 6H4C3.44772 6 3 5.55228 3 5C3 4.44772 3.44772 4 4 4H4.46482L5.57422 2.3359C6.13061 1.5013 7.06731 1 8.07037 1H15.9296C16.9327 1 17.8694 1.5013 18.4258 2.3359L19.5352 4H20C20.5523 4 21 4.44772 21 5C21 5.55229 20.5523 6 20 6H19.0154C19.0057 6.00014 18.9961 6.00014 18.9864 6L5.01367 6ZM7.29575 10.0001H16.704L16.9898 8H19C19 8.04671 18.9966 8.09398 18.9898 8.14155L17.2351 20.4244C17.024 21.9023 15.7582 23.0001 14.2653 23.0001H9.73447C8.24152 23.0001 6.97576 21.9023 6.76463 20.4244L5.00993 8.14155C5.00314 8.09398 4.99981 8.04671 4.99976 8H7.01002L7.29575 10.0001ZM8.74445 20.1415L8.29565 17H15.704L15.2552 20.1415C15.1848 20.6342 14.7629 21.0001 14.2652 21.0001H9.7344C9.23675 21.0001 8.81483 20.6342 8.74445 20.1415Z" fill="currentColor"/>
</svg>
