<svg width="24" height="24" viewBox="0 0 24 24" fill="none" xmlns="http://www.w3.org/2000/svg">
<g clip-path="url(#clip0_3494_3382)">
<path fill-rule="evenodd" clip-rule="evenodd" d="M3.22794 3.65922C1.62754 4.08805 0.677794 5.73306 1.10662 7.33346L2.65953 13.129C3.08836 14.7294 4.73337 15.6792 6.33377 15.2503L12.1293 13.6974C13.7297 13.2686 14.6795 11.6236 14.2506 10.0232L12.6977 4.22763C12.2689 2.62723 10.6239 1.67748 9.02349 2.10631L3.22794 3.65922ZM3.03847 6.81582C2.89553 6.28235 3.21211 5.73402 3.74558 5.59107L9.54113 4.03816C10.0746 3.89522 10.6229 4.2118 10.7659 4.74527L12.3188 10.5408C12.4617 11.0743 12.1452 11.6226 11.6117 11.7656L5.81613 13.3185C5.28266 13.4614 4.73433 13.1448 4.59139 12.6114L3.03847 6.81582ZM5.36255 8.16316C5.89602 8.02021 6.2126 7.47188 6.06966 6.93841C5.92672 6.40495 5.37838 6.08836 4.84492 6.2313C4.31145 6.37425 3.99487 6.92258 4.13781 7.45605C4.28075 7.98952 4.82909 8.3061 5.36255 8.16316ZM9.93294 5.90326C10.0759 6.43672 9.7593 6.98506 9.22584 7.128C8.69237 7.27094 8.14403 6.95436 8.00109 6.42089C7.85815 5.88743 8.17473 5.33909 8.7082 5.19615C9.24166 5.05321 9.79 5.36979 9.93294 5.90326ZM7.81177 9.57673C8.34524 9.43379 8.66182 8.88545 8.51888 8.35199C8.37594 7.81852 7.8276 7.50194 7.29414 7.64488C6.76067 7.78782 6.44409 8.33616 6.58703 8.86962C6.72997 9.40309 7.27831 9.71967 7.81177 9.57673ZM7.10482 10.8022C7.24776 11.3356 6.93118 11.884 6.39771 12.0269C5.86424 12.1699 5.31591 11.8533 5.17297 11.3198C5.03002 10.7864 5.34661 10.238 5.88007 10.0951C6.41354 9.95213 6.96188 10.2687 7.10482 10.8022ZM10.261 10.9918C10.7945 10.8488 11.111 10.3005 10.9681 9.76702C10.8252 9.23356 10.2768 8.91698 9.74335 9.05992C9.20989 9.20286 8.8933 9.7512 9.03625 10.2847C9.17919 10.8181 9.72753 11.1347 10.261 10.9918ZM15.4494 9.91612C15.5924 9.38266 16.1407 9.06607 16.6742 9.20902L17.8816 9.53254L20.7794 10.309C22.3798 10.7378 23.3295 12.3828 22.9007 13.9832L21.3478 19.7788C20.9189 21.3792 19.2739 22.3289 17.6735 21.9001L11.878 20.3472C10.2776 19.9184 9.32783 18.2734 9.75665 16.673L9.88606 16.19L10.0478 15.5863C10.1908 15.0528 10.7391 14.7362 11.2726 14.8792C11.806 15.0221 12.1226 15.5705 11.9797 16.1039L11.8179 16.7076L11.6885 17.1906C11.5456 17.7241 11.8621 18.2724 12.3956 18.4153L18.1912 19.9683C18.7246 20.1112 19.273 19.7946 19.4159 19.2611L20.9688 13.4656C21.1118 12.9321 20.7952 12.3838 20.2617 12.2408L17.3639 11.4644L16.1565 11.1409C15.6231 10.9979 15.3065 10.4496 15.4494 9.91612ZM18.4445 14.7589C18.9779 14.9019 19.5263 14.5853 19.6692 14.0518C19.8122 13.5183 19.4956 12.97 18.9621 12.8271C18.4286 12.6841 17.8803 13.0007 17.7374 13.5342C17.5944 14.0676 17.911 14.616 18.4445 14.7589ZM17.22 15.4654C17.077 15.9989 16.5287 16.3154 15.9952 16.1725C15.4618 16.0296 15.1452 15.4812 15.2881 14.9477C15.4311 14.4143 15.9794 14.0977 16.5129 14.2406C17.0464 14.3836 17.3629 14.9319 17.22 15.4654ZM13.546 17.5875C14.0795 17.7305 14.6278 17.4139 14.7708 16.8804C14.9137 16.347 14.5971 15.7986 14.0637 15.6557C13.5302 15.5127 12.9819 15.8293 12.8389 16.3628C12.696 16.8963 13.0126 17.4446 13.546 17.5875Z" fill="black"/>
</g>
<defs>
<clipPath id="clip0_3494_3382">
<rect width="24" height="24" fill="white"/>
</clipPath>
</defs>
</svg>
