<svg width="24" height="24" viewBox="0 0 24 24" fill="none" xmlns="http://www.w3.org/2000/svg">
<path fill-rule="evenodd" clip-rule="evenodd" d="M1.06645 6.5921C0.780564 5.52517 1.41373 4.4285 2.48066 4.14262L10.2081 2.07206C11.275 1.78618 12.3717 2.41934 12.6576 3.48628L14.7281 11.2137C15.014 12.2806 14.3808 13.3773 13.3139 13.6632L5.58649 15.7337C4.51956 16.0196 3.42288 15.3864 3.137 14.3195L1.06645 6.5921ZM5.18883 6.52257C5.33177 7.05603 5.01519 7.60437 4.48172 7.74731C3.94826 7.89025 3.39992 7.57367 3.25698 7.04021C3.11404 6.50674 3.43062 5.9584 3.96409 5.81546C4.49755 5.67252 5.04589 5.9891 5.18883 6.52257ZM10.9838 4.96983C11.1267 5.5033 10.8101 6.05164 10.2766 6.19458C9.74318 6.33752 9.19484 6.02094 9.0519 5.48747C8.90896 4.95401 9.22554 4.40567 9.75901 4.26273C10.2925 4.11979 10.8408 4.43637 10.9838 4.96983ZM8.15555 9.86841C8.68902 9.72546 9.0056 9.17713 8.86266 8.64366C8.71972 8.1102 8.17138 7.79361 7.63791 7.93656C7.10445 8.0795 6.78786 8.62783 6.93081 9.1613C7.07375 9.69477 7.62209 10.0113 8.15555 9.86841ZM6.74156 12.318C6.88451 12.8514 6.56792 13.3998 6.03446 13.5427C5.50099 13.6857 4.95265 13.3691 4.80971 12.8356C4.66677 12.3022 4.98335 11.7538 5.51682 11.6109C6.05029 11.4679 6.59862 11.7845 6.74156 12.318ZM11.8294 11.99C12.3628 11.847 12.6794 11.2987 12.5365 10.7652C12.3935 10.2318 11.8452 9.9152 11.3117 10.0581C10.7783 10.2011 10.4617 10.7494 10.6046 11.2829C10.7476 11.8163 11.2959 12.1329 11.8294 11.99ZM15.8665 11.5989L15.0662 8.61231L21.5153 10.3403C22.5822 10.6262 23.2154 11.7229 22.9295 12.7898L20.859 20.5172C20.5731 21.5842 19.4764 22.2173 18.4095 21.9315L10.6821 19.8609C9.61513 19.575 8.98196 18.4783 9.26784 17.4114L9.73804 15.6566L14.2166 14.4566C15.4613 14.1231 16.2 12.8437 15.8665 11.5989ZM19.5142 13.9458C20.0476 14.0887 20.596 13.7721 20.7389 13.2386C20.8819 12.7052 20.5653 12.1568 20.0318 12.0139C19.4983 11.871 18.95 12.1875 18.8071 12.721C18.6641 13.2545 18.9807 13.8028 19.5142 13.9458ZM15.8403 16.0668C16.3738 16.2098 16.9221 15.8932 17.0651 15.3597C17.208 14.8263 16.8914 14.2779 16.358 14.135C15.8245 13.9921 15.2762 14.3086 15.1332 14.8421C14.9903 15.3756 15.3069 15.9239 15.8403 16.0668ZM13.3913 17.4813C13.2483 18.0148 12.7 18.3314 12.1665 18.1884C11.633 18.0455 11.3165 17.4972 11.4594 16.9637C11.6023 16.4302 12.1507 16.1136 12.6841 16.2566C13.2176 16.3995 13.5342 16.9479 13.3913 17.4813Z" fill="currentColor"/>
</svg>
