<svg width="24" height="24" viewBox="0 0 24 24" fill="none" xmlns="http://www.w3.org/2000/svg">
<path fill-rule="evenodd" clip-rule="evenodd" d="M9 4C9 3.44772 9.44772 3 10 3H14C14.5523 3 15 3.44772 15 4V7C15 8.10457 14.1046 9 13 9H11C9.89543 9 9 8.10457 9 7V4ZM21 12C21 12.5523 20.5523 13 20 13H18C17.4477 13 17 12.5523 17 12C17 11.4477 17.4477 11 18 11H20C20.5523 11 21 11.4477 21 12ZM15 12C15 12.5523 14.5523 13 14 13H10C9.44772 13 9 12.5523 9 12C9 11.4477 9.44771 11 10 11H14C14.5523 11 15 11.4477 15 12ZM7 12C7 12.5523 6.55229 13 6 13H4C3.44772 13 3 12.5523 3 12C3 11.4477 3.44772 11 4 11H6C6.55228 11 7 11.4477 7 12ZM11 15C9.89543 15 9 15.8954 9 17V20C9 20.5523 9.44772 21 10 21H14C14.5523 21 15 20.5523 15 20V17C15 15.8954 14.1046 15 13 15H11Z" fill="currentColor"/>
</svg>
