<svg width="24" height="24" viewBox="0 0 24 24" fill="none" xmlns="http://www.w3.org/2000/svg">
<path fill-rule="evenodd" clip-rule="evenodd" d="M2 4C2 3.44772 2.44772 3 3 3H21C21.5523 3 22 3.44772 22 4V7C22 8.10457 21.1046 9 20 9H4C2.89543 9 2 8.10457 2 7V4ZM21 12C21 12.5523 20.5523 13 20 13H18C17.4477 13 17 12.5523 17 12C17 11.4477 17.4477 11 18 11H20C20.5523 11 21 11.4477 21 12ZM15 12C15 12.5523 14.5523 13 14 13H10C9.44772 13 9 12.5523 9 12C9 11.4477 9.44771 11 10 11H14C14.5523 11 15 11.4477 15 12ZM7 12C7 12.5523 6.55229 13 6 13H4C3.44772 13 3 12.5523 3 12C3 11.4477 3.44772 11 4 11H6C6.55228 11 7 11.4477 7 12ZM4 15C2.89543 15 2 15.8954 2 17V20C2 20.5523 2.44772 21 3 21H21C21.5523 21 22 20.5523 22 20V17C22 15.8954 21.1046 15 20 15H4Z" fill="currentColor"/>
</svg>
