<svg width="24" height="24" viewBox="0 0 24 24" fill="none" xmlns="http://www.w3.org/2000/svg">
<path fill-rule="evenodd" clip-rule="evenodd" d="M3 3C3.55228 3 4 3.44772 4 4V6C4 6.55228 4.44772 7 5 7H19C19.5523 7 20 6.55228 20 6V4C20 3.44772 20.4477 3 21 3C21.5523 3 22 3.44772 22 4V6C22 7.65685 20.6569 9 19 9H5C3.34315 9 2 7.65685 2 6V4C2 3.44772 2.44772 3 3 3ZM3 21C3.55228 21 4 20.5523 4 20V18C4 17.4477 4.44772 17 5 17H19C19.5523 17 20 17.4477 20 18V20C20 20.5523 20.4477 21 21 21C21.5523 21 22 20.5523 22 20V18C22 16.3431 20.6569 15 19 15H5C3.34315 15 2 16.3431 2 18V20C2 20.5523 2.44772 21 3 21ZM20 13C20.5523 13 21 12.5523 21 12C21 11.4477 20.5523 11 20 11H18C17.4477 11 17 11.4477 17 12C17 12.5523 17.4477 13 18 13H20ZM14 13C14.5523 13 15 12.5523 15 12C15 11.4477 14.5523 11 14 11H10C9.44771 11 9 11.4477 9 12C9 12.5523 9.44772 13 10 13H14ZM6 13C6.55229 13 7 12.5523 7 12C7 11.4477 6.55228 11 6 11H4C3.44772 11 3 11.4477 3 12C3 12.5523 3.44772 13 4 13H6Z" fill="currentColor"/>
</svg>
