<svg width="24" height="24" viewBox="0 0 24 24" fill="none" xmlns="http://www.w3.org/2000/svg">
<path fill-rule="evenodd" clip-rule="evenodd" d="M5 2C3.34315 2 2 3.34315 2 5V11C2 12.6569 3.34315 14 5 14H19C20.6569 14 22 12.6569 22 11V5C22 3.34315 20.6569 2 19 2H5ZM13.2929 6.29289C13.6834 5.90237 14.3166 5.90237 14.7071 6.29289L16 7.58579L17.2929 6.29289C17.6834 5.90237 18.3166 5.90237 18.7071 6.29289C19.0976 6.68342 19.0976 7.31658 18.7071 7.70711L16.7071 9.70711C16.3166 10.0976 15.6834 10.0976 15.2929 9.70711L13.2929 7.70711C12.9024 7.31658 12.9024 6.68342 13.2929 6.29289ZM2 17C2 16.4477 2.44772 16 3 16H15C15.5523 16 16 16.4477 16 17C16 17.5523 15.5523 18 15 18H3C2.44772 18 2 17.5523 2 17ZM3 20C2.44772 20 2 20.4477 2 21C2 21.5523 2.44772 22 3 22H18C18.5523 22 19 21.5523 19 21C19 20.4477 18.5523 20 18 20H3Z" fill="currentColor"/>
</svg>
