<svg width="24" height="24" viewBox="0 0 24 24" fill="none" xmlns="http://www.w3.org/2000/svg">
<path fill-rule="evenodd" clip-rule="evenodd" d="M12 7C10.6193 7 9.5 5.88071 9.5 4.5C9.5 3.11929 10.6193 2 12 2C13.3807 2 14.5 3.11929 14.5 4.5C14.5 5.88071 13.3807 7 12 7ZM12 14.5C10.6193 14.5 9.5 13.3807 9.5 12C9.5 10.6193 10.6193 9.5 12 9.5C13.3807 9.5 14.5 10.6193 14.5 12C14.5 13.3807 13.3807 14.5 12 14.5ZM9.5 19.5C9.5 20.8807 10.6193 22 12 22C13.3807 22 14.5 20.8807 14.5 19.5C14.5 18.1193 13.3807 17 12 17C10.6193 17 9.5 18.1193 9.5 19.5Z" fill="currentColor"/>
</svg>
