<svg width="24" height="24" viewBox="0 0 24 24" fill="none" xmlns="http://www.w3.org/2000/svg">
<path fill-rule="evenodd" clip-rule="evenodd" d="M3 12C3 7.02944 7.02944 3 12 3C16.9706 3 21 7.02944 21 12C21 16.9706 16.9706 21 12 21C7.02944 21 3 16.9706 3 12ZM12 1C5.92487 1 1 5.92487 1 12C1 18.0751 5.92487 23 12 23C18.0751 23 23 18.0751 23 12C23 5.92487 18.0751 1 12 1ZM6.59961 14C7.70418 14 8.59961 13.1046 8.59961 12C8.59961 10.8954 7.70418 10 6.59961 10C5.49504 10 4.59961 10.8954 4.59961 12C4.59961 13.1046 5.49504 14 6.59961 14ZM11.9996 14C13.1042 14 13.9996 13.1046 13.9996 12C13.9996 10.8954 13.1042 10 11.9996 10C10.8951 10 9.99963 10.8954 9.99963 12C9.99963 13.1046 10.8951 14 11.9996 14ZM19.3997 12C19.3997 13.1046 18.5042 14 17.3997 14C16.2951 14 15.3997 13.1046 15.3997 12C15.3997 10.8954 16.2951 10 17.3997 10C18.5042 10 19.3997 10.8954 19.3997 12Z" fill="currentColor"/>
</svg>
