<svg width="24" height="24" viewBox="0 0 24 24" fill="none" xmlns="http://www.w3.org/2000/svg">
<path fill-rule="evenodd" clip-rule="evenodd" d="M19.7071 5.70711C20.0976 5.31658 20.0976 4.68342 19.7071 4.29289C19.3166 3.90237 18.6834 3.90237 18.2929 4.29289L4.29289 18.2929C3.90237 18.6834 3.90237 19.3166 4.29289 19.7071C4.68342 20.0976 5.31658 20.0976 5.70711 19.7071L19.7071 5.70711ZM5 8H13.1716L11.1716 10H5C4.44772 10 4 9.55228 4 9C4 8.44772 4.44772 8 5 8ZM5 14H7.17157L5.17157 16H5C4.44772 16 4 15.5523 4 15C4 14.4477 4.44772 14 5 14ZM19 14H12.8284L10.8284 16H19C19.5523 16 20 15.5523 20 15C20 14.4477 19.5523 14 19 14ZM18.8284 8L16.8284 10H19C19.5523 10 20 9.55228 20 9C20 8.44772 19.5523 8 19 8H18.8284Z" fill="currentColor"/>
</svg>
