<svg width="24" height="24" viewBox="0 0 24 24" fill="none" xmlns="http://www.w3.org/2000/svg">
<path fill-rule="evenodd" clip-rule="evenodd" d="M13.7796 3.10129C13.0426 1.62734 10.94 1.6278 10.2036 3.10206L2.20952 19.1064C1.54531 20.4362 2.51186 22.0004 3.99775 22.0004H19.9944C21.4807 22.0004 22.4472 20.4355 21.7823 19.1056L13.7796 3.10129ZM11.9952 17C11.4432 17 10.9957 17.4477 10.9957 18C10.9957 18.5523 11.4432 19 11.9952 19C12.5473 19 12.9948 18.5523 12.9948 18C12.9948 17.4477 12.5473 17 11.9952 17ZM10.9957 15C10.9957 15.5523 11.4432 16 11.9952 16C12.5473 16 12.9948 15.5523 12.9948 15V8.99999C12.9948 8.4477 12.5473 7.99999 11.9952 7.99999C11.4432 7.99999 10.9957 8.4477 10.9957 8.99999V15Z" fill="currentColor"/>
</svg>
