<svg width="24" height="24" viewBox="0 0 24 24" fill="none" xmlns="http://www.w3.org/2000/svg">
<path fill-rule="evenodd" clip-rule="evenodd" d="M13.7796 3.10129C13.0426 1.62734 10.94 1.6278 10.2036 3.10206L2.20952 19.1064C1.54531 20.4362 2.51186 22.0004 3.99775 22.0004H19.9944C21.4807 22.0004 22.4472 20.4355 21.7823 19.1056L13.7796 3.10129ZM11.9918 3.99609L19.9944 20.0004L3.99775 20.0004L11.9918 3.99609ZM12 16C11.4477 16 11 16.4477 11 17C11 17.5523 11.4477 18 12 18C12.5523 18 13 17.5523 13 17C13 16.4477 12.5523 16 12 16ZM11 14C11 14.5523 11.4477 15 12 15C12.5523 15 13 14.5523 13 14V10C13 9.44772 12.5523 9 12 9C11.4477 9 11 9.44771 11 10V14Z" fill="currentColor"/>
</svg>
