<svg width="24" height="24" viewBox="0 0 24 24" fill="none" xmlns="http://www.w3.org/2000/svg">
<path fill-rule="evenodd" clip-rule="evenodd" d="M23 12C23 18.0751 18.0751 23 12 23C5.92487 23 1 18.0751 1 12C1 5.92487 5.92487 1 12 1C18.0751 1 23 5.92487 23 12ZM11.9999 15C11.4477 15 10.9999 14.5523 10.9999 14V7C10.9999 6.44772 11.4477 6 11.9999 6C12.5522 6 12.9999 6.44772 12.9999 7V14C12.9999 14.5523 12.5522 15 11.9999 15ZM12 16C11.4477 16 11 16.4477 11 17C11 17.5523 11.4477 18 12 18C12.5523 18 13 17.5523 13 17C13 16.4477 12.5523 16 12 16Z" fill="currentColor"/>
</svg>
