<svg width="24" height="24" viewBox="0 0 24 24" fill="none" xmlns="http://www.w3.org/2000/svg">
<path fill-rule="evenodd" clip-rule="evenodd" d="M3.29289 3.29289C3.68342 2.90237 4.31658 2.90237 4.70711 3.29289L20.7071 19.2929C21.0976 19.6834 21.0976 20.3166 20.7071 20.7071C20.3166 21.0976 19.6834 21.0976 19.2929 20.7071L3.29289 4.70711C2.90237 4.31658 2.90237 3.68342 3.29289 3.29289ZM16.3392 17.7542C16.3392 17.7542 16.3392 17.7542 16.3392 17.7542L17.0671 18.4821C15.6359 19.3713 13.9383 20 11.9994 20C9.2779 20 7.03171 18.7613 5.33049 17.3022C3.62994 15.8438 2.44055 14.1378 1.81817 13.128C1.38874 12.4312 1.38874 11.5688 1.81817 10.872C2.43742 9.86729 3.61798 8.17337 5.30485 6.7198L6.01405 7.429L8.55312 9.96819C8.20129 10.5637 7.9994 11.2583 7.9994 12C7.9994 14.2091 9.79026 16 11.9994 16C12.7411 16 13.4357 15.7981 14.0312 15.4463L16.3392 17.7542ZM15.992 11.7542C15.8699 9.74083 14.2586 8.12949 12.2452 8.00743L9.21124 4.97345C9.21121 4.97345 9.21127 4.97344 9.21124 4.97345L8.82044 4.58253C9.7924 4.2195 10.8538 4 11.9994 4C14.7209 4 16.9671 5.23873 18.6683 6.69775C20.3688 8.15621 21.5582 9.86221 22.1806 10.872C22.61 11.5688 22.61 12.4312 22.1806 13.128C21.754 13.8201 21.061 14.8393 20.1196 15.8817L19.7656 15.5277C19.7656 15.5277 19.7656 15.5277 19.7656 15.5277L15.992 11.7542ZM10.0671 11.4822C10.0229 11.6473 9.99939 11.8209 9.99939 12C9.99939 13.1046 10.8948 14 11.9994 14C12.1785 14 12.3521 13.9765 12.5172 13.9323L10.0671 11.4822Z" fill="currentColor"/>
</svg>
