<svg width="24" height="24" viewBox="0 0 24 24" fill="none" xmlns="http://www.w3.org/2000/svg">
<path fill-rule="evenodd" clip-rule="evenodd" d="M11.9994 4C9.2779 4 7.03171 5.23873 5.33049 6.69775C3.62994 8.15621 2.44055 9.86221 1.81817 10.872C1.38874 11.5688 1.38874 12.4312 1.81817 13.128C2.44055 14.1378 3.62994 15.8438 5.33049 17.3022C7.03171 18.7613 9.2779 20 11.9994 20C14.7209 20 16.9671 18.7613 18.6683 17.3022C20.3688 15.8438 21.5582 14.1378 22.1806 13.128C22.61 12.4312 22.61 11.5688 22.1806 10.872C21.5582 9.86221 20.3688 8.15621 18.6683 6.69775C16.9671 5.23873 14.7209 4 11.9994 4ZM12.0004 16C14.2095 16 16.0004 14.2091 16.0004 12C16.0004 9.79086 14.2095 8 12.0004 8C9.79124 8 8.00038 9.79086 8.00038 12C8.00038 14.2091 9.79124 16 12.0004 16ZM14.0004 12C14.0004 13.1046 13.1049 14 12.0004 14C10.8958 14 10.0004 13.1046 10.0004 12C10.0004 10.8954 10.8958 10 12.0004 10C13.1049 10 14.0004 10.8954 14.0004 12Z" fill="currentColor"/>
</svg>
