<svg width="24" height="24" viewBox="0 0 24 24" fill="none" xmlns="http://www.w3.org/2000/svg">
<path fill-rule="evenodd" clip-rule="evenodd" d="M9.96572 7.29943V7.38807C9.96572 7.78994 10.0485 8.10021 10.2139 8.31888C10.3794 8.53754 10.5981 8.64687 10.8699 8.64687C11.1359 8.64687 11.3516 8.53459 11.5171 8.31001C11.6884 8.07953 11.7741 7.75744 11.7741 7.34375C11.7741 6.91233 11.6944 6.58729 11.5348 6.36862C11.3752 6.14996 11.1536 6.04062 10.8699 6.04062C10.5981 6.04062 10.3794 6.15291 10.2139 6.37749C10.0485 6.59615 9.96572 6.90347 9.96572 7.29943ZM9.05264 9.6486C8.91672 9.6486 8.79852 9.59836 8.69805 9.4979C8.59758 9.39743 8.54735 9.27923 8.54735 9.1433V3.50529C8.54735 3.36937 8.59758 3.25117 8.69805 3.1507C8.79852 3.05023 8.91672 3 9.05264 3H9.46042C9.59635 3 9.71455 3.05023 9.81502 3.1507C9.91548 3.25117 9.96572 3.36937 9.96572 3.50529V5.58852C9.96572 5.59443 9.96867 5.59739 9.97458 5.59739C9.9864 5.59739 9.99231 5.59443 9.99231 5.58852C10.341 5.16301 10.7754 4.95026 11.2954 4.95026C11.8569 4.95026 12.3031 5.1571 12.634 5.57079C12.965 5.98448 13.1305 6.57547 13.1305 7.34375C13.1305 8.0943 12.9591 8.68233 12.6163 9.10784C12.2735 9.52744 11.8332 9.73724 11.2954 9.73724C10.7399 9.73724 10.2819 9.50085 9.92139 9.02806C9.92139 9.01624 9.91548 9.01033 9.90366 9.01033C9.89775 9.01033 9.8948 9.01329 9.8948 9.0192L9.88593 9.1433C9.88002 9.28514 9.82684 9.40629 9.72637 9.50676C9.6259 9.60132 9.50475 9.6486 9.36291 9.6486H9.05264ZM4.81527 4.48929L4.12382 7.03348C4.12382 7.05121 4.12973 7.06894 4.14155 7.08667C4.15337 7.09849 4.16814 7.1044 4.18587 7.1044H5.4624C5.48013 7.1044 5.49491 7.09849 5.50673 7.08667C5.52446 7.06894 5.53037 7.05121 5.52446 7.03348L4.833 4.48929C4.833 4.48338 4.83005 4.48042 4.82414 4.48042C4.81823 4.48042 4.81527 4.48338 4.81527 4.48929ZM2.35972 9.6486C2.23562 9.6486 2.1381 9.59836 2.06719 9.4979C1.99627 9.39743 1.98149 9.2881 2.02286 9.1699L3.88447 3.65599C3.93766 3.51416 4.02335 3.39892 4.14155 3.31027C4.26566 3.22162 4.40158 3.1773 4.54933 3.1773H5.1344C5.28806 3.1773 5.42399 3.22162 5.54219 3.31027C5.66629 3.39892 5.75199 3.51416 5.79926 3.65599L7.66974 9.1699C7.7111 9.2881 7.69338 9.39743 7.61655 9.4979C7.54563 9.59836 7.44812 9.6486 7.32401 9.6486H6.73007C6.58823 9.6486 6.45526 9.60427 6.33115 9.51562C6.21295 9.42107 6.13317 9.30287 6.0918 9.16103L5.87018 8.31888C5.86427 8.2716 5.83177 8.24796 5.77267 8.24796H3.8756C3.82242 8.24796 3.78991 8.2716 3.77809 8.31888L3.55647 9.16103C3.52101 9.30287 3.44123 9.42107 3.31712 9.51562C3.19892 9.60427 3.06595 9.6486 2.91821 9.6486H2.35972ZM16 6C15.4477 6 15 6.44772 15 7C15 7.55228 15.4477 8 16 8H21C21.5523 8 22 7.55228 22 7C22 6.44772 21.5523 6 21 6H16ZM3 16C2.44772 16 2 16.4477 2 17C2 17.5523 2.44772 18 3 18H8C8.55228 18 9 17.5523 9 17C9 16.4477 8.55228 16 8 16H3ZM16.7793 18.808C16.8797 18.9084 16.9979 18.9587 17.1338 18.9587H17.5416C17.6776 18.9587 17.7958 18.9084 17.8962 18.808C17.9967 18.7075 18.0469 18.5893 18.0469 18.4534V16.5386C18.0469 16.2313 18.1326 15.9594 18.304 15.723C18.4813 15.4807 18.6852 15.3595 18.9157 15.3595C19.1698 15.3595 19.3471 15.4423 19.4476 15.6078C19.548 15.7673 19.5983 16.0865 19.5983 16.5652V18.4534C19.5983 18.5893 19.6485 18.7075 19.749 18.808C19.8494 18.9084 19.9676 18.9587 20.1036 18.9587H20.5025C20.6384 18.9587 20.7536 18.9084 20.8482 18.808C20.9487 18.7075 20.9989 18.5893 20.9989 18.4534V16.4145C20.9989 15.6284 20.8718 15.0729 20.6177 14.7479C20.3636 14.4228 19.9588 14.2603 19.4032 14.2603C18.8773 14.2603 18.434 14.4731 18.0735 14.8986C18.0735 14.9045 18.0676 14.9074 18.0558 14.9074C18.0499 14.9074 18.0469 14.9045 18.0469 14.8986V12.8154C18.0469 12.6794 17.9967 12.5612 17.8962 12.4608C17.7958 12.3603 17.6776 12.3101 17.5416 12.3101H17.1338C16.9979 12.3101 16.8797 12.3603 16.7793 12.4608C16.6788 12.5612 16.6286 12.6794 16.6286 12.8154V18.4534C16.6286 18.5893 16.6788 18.7075 16.7793 18.808ZM12.4178 15.6432C12.5773 15.4305 12.799 15.3241 13.0826 15.3241C13.3604 15.3241 13.582 15.4305 13.7475 15.6432C13.913 15.8501 13.9957 16.1426 13.9957 16.5208V16.6095C13.9957 16.9936 13.913 17.2891 13.7475 17.496C13.582 17.7028 13.3604 17.8062 13.0826 17.8062C12.8167 17.8062 12.601 17.6969 12.4355 17.4782C12.27 17.2596 12.1873 16.9552 12.1873 16.5652C12.1873 16.1574 12.2641 15.8501 12.4178 15.6432ZM11.354 18.2495C11.7027 18.6632 12.1371 18.87 12.6571 18.87C13.2186 18.87 13.6677 18.6573 14.0046 18.2317C14.0046 18.2258 14.0105 18.2229 14.0223 18.2229H14.0312V18.4711C14.0312 19.0207 13.9337 19.4049 13.7386 19.6235C13.5436 19.8481 13.2215 19.9604 12.7724 19.9604C12.4946 19.9604 12.2375 19.9279 12.0011 19.8629C11.8711 19.8274 11.747 19.8392 11.6288 19.8983C11.5106 19.9633 11.4367 20.0608 11.4072 20.1909L11.3895 20.2441C11.3599 20.3859 11.3806 20.5189 11.4515 20.643C11.5224 20.7671 11.6259 20.8469 11.7618 20.8823C12.0868 20.9591 12.4444 20.9976 12.8344 20.9976C14.5542 20.9976 15.4141 20.1495 15.4141 18.4534V14.8543C15.4141 14.7183 15.3638 14.6001 15.2634 14.4997C15.1688 14.3992 15.0536 14.349 14.9177 14.349H14.6074C14.4655 14.349 14.3414 14.3992 14.2351 14.4997C14.1346 14.5942 14.0814 14.7124 14.0755 14.8543V14.9784C14.0755 14.9843 14.0725 14.9872 14.0666 14.9872L14.0489 14.9695C13.6766 14.4967 13.2127 14.2603 12.6571 14.2603C12.1016 14.2603 11.6584 14.4612 11.3274 14.8631C11.0024 15.265 10.8398 15.8323 10.8398 16.5652C10.8398 17.2743 11.0112 17.8358 11.354 18.2495Z" fill="currentColor"/>
</svg>
