<svg width="24" height="24" viewBox="0 0 24 24" fill="none" xmlns="http://www.w3.org/2000/svg">
<path d="M16.7532 2.0326C17.0522 2.11087 17.2983 2.32304 17.4196 2.60731L20.8366 10.6095C21.1772 11.4071 20.9454 12.2165 20.4902 12.7512C20.0386 13.2816 19.295 13.6323 18.4785 13.4823C17.542 13.3104 16.4121 13.1708 15.3157 13.2002C14.2045 13.23 13.2248 13.4313 12.5145 13.8575C11.942 14.201 11.2758 14.8532 10.7143 15.4843C10.5069 15.7175 10.3237 15.9364 10.1768 16.1175L12.3944 20.5528C12.6414 21.0468 12.4412 21.6474 11.9472 21.8944C11.4532 22.1414 10.8525 21.9412 10.6055 21.4472L3.10555 6.44722C2.85856 5.95324 3.05878 5.35257 3.55276 5.10558C4.04674 4.85859 4.64741 5.05882 4.8944 5.5528L5.10401 5.97201C5.57248 5.33543 6.23484 4.56929 7.00545 4.13084C8.30312 3.39251 9.51215 3.65145 10.4138 3.86765C10.4589 3.87846 10.5033 3.88914 10.5469 3.89965C11.4309 4.11247 12.0244 4.25538 12.704 4.04481C13.319 3.85427 14.0988 3.41769 14.773 2.98415C15.0991 2.77448 15.3814 2.57813 15.5817 2.43441C15.6816 2.36272 15.7606 2.30456 15.8138 2.26493C15.8404 2.24513 15.8605 2.22998 15.8735 2.22012C15.88 2.2152 15.8848 2.21159 15.8876 2.20939L15.8906 2.20716L15.8906 2.20709L15.8908 2.20698C16.1359 2.01872 16.4542 1.95434 16.7532 2.0326Z" fill="currentColor"/>
</svg>
