<svg width="24" height="24" viewBox="0 0 24 24" fill="none" xmlns="http://www.w3.org/2000/svg">
<path fill-rule="evenodd" clip-rule="evenodd" d="M6 4C4.89543 4 4 4.89543 4 6V18C4 19.1046 4.89543 20 6 20V14C6 12.8954 6.89543 12 8 12H16C17.1046 12 18 12.8954 18 14V20C19.1046 20 20 19.1046 20 18V9.24264C20 8.71221 19.7893 8.2035 19.4142 7.82843L18 6.41421V7C18 8.10457 17.1046 9 16 9H8C6.89543 9 6 8.10457 6 7L6 4ZM16 22H8H6C3.79086 22 2 20.2091 2 18V6C2 3.79086 3.79086 2 6 2H8H14.7574H15.5858C16.1162 2 16.6249 2.21071 17 2.58579L17.2071 2.79289L17.4142 3C17.438 3.02375 17.4611 3.04804 17.4835 3.07284C17.5181 3.10509 17.5522 3.138 17.5858 3.17157L20.8284 6.41421C21.5786 7.16436 22 8.18177 22 9.24264V18C22 20.2091 20.2091 22 18 22H16ZM16 20V14H8V20H16ZM16 4.43288C15.6482 4.15394 15.2107 4 14.7574 4H8V7H16V4.43288Z" fill="currentColor"/>
</svg>
