<svg width="24" height="24" viewBox="0 0 24 24" fill="none" xmlns="http://www.w3.org/2000/svg">
<path fill-rule="evenodd" clip-rule="evenodd" d="M6 1H18C19.6569 1 21 2.34315 21 4V20C21 21.6569 19.6569 23 18 23H6C4.34315 23 3 21.6569 3 20V4C3 2.34315 4.34315 1 6 1ZM13 5H14C14 5.55228 14.4477 6 15 6C15.5523 6 16 5.55228 16 5V4.99543V4.99087V4.98633V4.9818V4.97728V4.97277V4.96828V4.9638V4.95933V4.95488V4.95043V4.946V4.94159V4.93718V4.93279V4.92841V4.92405V4.91969V4.91535V4.91102V4.90671V4.9024V4.89811V4.89384V4.88957V4.88532V4.88107V4.87685V4.87263V4.86843V4.86424V4.86006V4.85589V4.85174V4.84759V4.84347V4.83935V4.83524V4.83115V4.82707V4.823V4.81895V4.8149V4.81087V4.80685V4.80285V4.79885V4.79487V4.7909V4.78694V4.78299V4.77906V4.77514V4.77123V4.76733V4.76344V4.75957V4.75571V4.75186V4.74802V4.74419V4.74038V4.73658V4.73278V4.72901V4.72524V4.72148V4.71774V4.71401V4.71029V4.70658V4.70289V4.6992V4.69553V4.69187V4.68822V4.68459V4.68096V4.67735V4.67374V4.67015V4.66657V4.66301V4.65945V4.65591V4.65237V4.64885V4.64534V4.64185V4.63836V4.63488V4.63142V4.62797V4.62453V4.6211V4.61768V4.61428V4.61088V4.6075V4.60412V4.60076V4.59741V4.59408V4.59075V4.58743V4.58413V4.58084V4.57755V4.57428V4.57102V4.56777V4.56454V4.56131V4.5581V4.55489V4.5517V4.54852V4.54535V4.54219V4.53904V4.5359V4.53277V4.52966V4.52655V4.52346V4.52038V4.51731V4.51425V4.5112V4.50816V4.50513V4.50211V4.4991V4.49611V4.49312V4.49015V4.48719V4.48423V4.48129V4.47836V4.47544V4.47253V4.46963V4.46674V4.46387V4.461V4.45814V4.4553V4.45246V4.44964V4.44682V4.44402V4.44123V4.43845V4.43567V4.43291V4.43016V4.42742V4.42469V4.42197V4.41926V4.41656V4.41388V4.4112V4.40853V4.40587V4.40323V4.40059V4.39796V4.39535V4.39274V4.39014V4.38756V4.38498V4.38242V4.37986V4.37732V4.37479V4.37226V4.36975V4.36724V4.36475V4.36226V4.35979V4.35733V4.35487V4.35243V4.35V4.34757V4.34516V4.34275V4.34036V4.33798V4.3356V4.33324V4.33088V4.32854V4.3262V4.32388V4.32156V4.31926V4.31696V4.31468V4.3124V4.31013V4.30788V4.30563V4.30339V4.30117V4.29895V4.29674V4.29454V4.29235V4.29017V4.288V4.28584V4.28369V4.28155V4.27942V4.2773V4.27519V4.27308V4.27099V4.26891V4.26683V4.26477V4.26271V4.26066V4.25863V4.2566V4.25458V4.25257V4.25057V4.24858V4.2466V4.24463V4.24266V4.24071V4.23877V4.23683V4.2349V4.23299V4.23108V4.22918V4.22729V4.22541V4.22354V4.22168V4.21983V4.21798V4.21615V4.21432V4.2125V4.2107V4.2089V4.20711V4.20533V4.20355V4.20179V4.20004V4.19829V4.19655V4.19483V4.19311V4.1914V4.1897V4.188V4.18632V4.18464V4.18298V4.18132V4.17967V4.17803V4.1764V4.17478V4.17316V4.17156V4.16996V4.16837V4.16679V4.16522V4.16366V4.1621V4.16056V4.15902V4.15749V4.15597V4.15446V4.15296V4.15146V4.14998V4.1485V4.14703V4.14557V4.14412V4.14267V4.14123V4.13981V4.13839V4.13698V4.13557V4.13418V4.13279V4.13141V4.13004V4.12868V4.12733V4.12598V4.12464V4.12332V4.12199V4.12068V4.11938V4.11808V4.11679V4.11551V4.11424V4.11297V4.11171V4.11047V4.10922V4.10799V4.10677V4.10555V4.10434V4.10314V4.10195V4.10076V4.09958V4.09841V4.09725V4.0961V4.09495V4.09381V4.09268V4.09155V4.09044V4.08933V4.08823V4.08714V4.08605V4.08498V4.08391V4.08284V4.08179V4.08074V4.0797V4.07867V4.07765V4.07663V4.07562V4.07462V4.07362V4.07264V4.07166V4.07068V4.06972V4.06876V4.06781V4.06687V4.06593V4.06501V4.06409V4.06317V4.06227V4.06137V4.06048V4.05959V4.05872V4.05785V4.05698V4.05613V4.05528V4.05444V4.0536V4.05278V4.05196V4.05114V4.05034V4.04954V4.04875V4.04796V4.04719V4.04642V4.04565V4.04489V4.04415V4.0434V4.04267V4.04194V4.04122V4.0405V4.03979V4.03909V4.0384V4.03771V4.03703V4.03635V4.03568V4.03502V4.03437V4.03372V4.03308V4.03245V4.03182V4.0312V4.03058V4.02998V4.02938V4.02878V4.02819V4.02761V4.02704V4.02647V4.02591V4.02535V4.02481V4.02426V4.02373V4.0232V4.02268V4.02216V4.02165V4.02115V4.02065V4.02016V4.01967V4.0192V4.01872V4.01826V4.0178V4.01735V4.0169V4.01646V4.01602V4.0156V4.01517V4.01476V4.01435V4.01394V4.01355V4.01315V4.01277V4.01239V4.01202V4.01165V4.01129V4.01093V4.01058V4.01024V4.0099V4.00957V4.00925V4.00893V4.00861V4.00831V4.00801V4.00771V4.00742V4.00713V4.00686V4.00658V4.00632V4.00606V4.0058V4.00555V4.00531V4.00507V4.00484V4.00461V4.00439V4.00417V4.00396V4.00376V4.00356V4.00337V4.00318V4.003V4.00282V4.00265V4.00248V4.00232V4.00217V4.00202V4.00188V4.00174V4.00161V4.00148V4.00136V4.00124V4.00113V4.00102V4.00092V4.00083V4.00074V4.00065V4.00057V4.0005V4.00043V4.00037V4.00031V4.00025V4.0002V4.00016V4.00012V4.00009V4.00006V4.00004V4.00002V4.00001V4C16 3.44772 15.5523 3 15 3H12H9C8.44772 3 8 3.44772 8 4V5C8 5.55228 8.44772 6 9 6C9.55228 6 10 5.55228 10 5H11V9H10C9.44772 9 9 9.44772 9 10C9 10.5523 9.44772 11 10 11H12H14C14.5523 11 15 10.5523 15 10C15 9.44772 14.5523 9 14 9H13V5ZM7.64 13.5601C7.0104 13.5601 6.5 14.0705 6.5 14.7001C6.5 15.3297 7.0104 15.8401 7.64 15.8401H16.36C16.9896 15.8401 17.5 15.3297 17.5 14.7001C17.5 14.0705 16.9896 13.5601 16.36 13.5601H7.64ZM7.64 18.1201C7.0104 18.1201 6.5 18.6305 6.5 19.2601C6.5 19.8897 7.0104 20.4001 7.64 20.4001H16.36C16.9896 20.4001 17.5 19.8897 17.5 19.2601C17.5 18.6305 16.9896 18.1201 16.36 18.1201H7.64Z" fill="currentColor"/>
</svg>
