<svg width="24" height="24" viewBox="0 0 24 24" fill="none" xmlns="http://www.w3.org/2000/svg">
<path fill-rule="evenodd" clip-rule="evenodd" d="M7 4C5.34315 4 4 5.34315 4 7V10H3C2.44772 10 2 10.4477 2 11C2 11.5523 2.44772 12 3 12H4V16C4 16.5523 3.55228 17 3 17C2.44772 17 2 17.4477 2 18C2 18.5523 2.44772 19 3 19C4.65685 19 6 17.6569 6 16V12H7C7.55228 12 8 11.5523 8 11C8 10.4477 7.55228 10 7 10H6V7C6 6.44772 6.44772 6 7 6H8C8.55228 6 9 5.55228 9 5C9 4.44772 8.55228 4 8 4H7ZM12.3024 9.59672C12.6309 9.15507 12.5407 8.53053 12.1 8.19997C11.6582 7.8686 11.0269 7.96415 10.6955 8.40598L10.6889 8.41499C10.6838 8.42199 10.6772 8.43098 10.6694 8.44193C10.6538 8.46382 10.6329 8.49357 10.6076 8.53092C10.557 8.6056 10.4885 8.7109 10.4081 8.84485C10.2476 9.11242 10.0385 9.49645 9.83085 9.98105C9.41634 10.9483 9 12.3334 9 14C9 15.6666 9.41634 17.0517 9.83085 18.0189C10.0385 18.5035 10.2476 18.8875 10.4081 19.1551C10.4885 19.2891 10.557 19.3943 10.6076 19.469C10.6329 19.5064 10.6538 19.5361 10.6694 19.558C10.676 19.5673 10.6897 19.5859 10.6968 19.5956C11.0282 20.0374 11.6582 20.1313 12.1 19.8C12.5407 19.4694 12.6254 18.8372 12.2969 18.3955C12.2906 18.3867 12.2792 18.3705 12.2635 18.3473C12.232 18.3009 12.1834 18.2265 12.1231 18.1261C12.0024 17.9249 11.8365 17.6215 11.6691 17.2311C11.3337 16.4483 11 15.3334 11 14C11 12.6666 11.3337 11.5517 11.6691 10.7689C11.8365 10.3785 12.0024 10.075 12.1231 9.87384C12.1834 9.77343 12.232 9.69904 12.2635 9.65262C12.2792 9.62943 12.2906 9.61327 12.2969 9.6044L12.3024 9.59672ZM16.7929 11.2929C17.1834 10.9024 17.8166 10.9024 18.2071 11.2929C18.5976 11.6834 18.5976 12.3166 18.2071 12.7071L16.9142 14L18.2071 15.2929C18.5976 15.6834 18.5976 16.3166 18.2071 16.7071C17.8166 17.0976 17.1834 17.0976 16.7929 16.7071L15.5 15.4142L14.2071 16.7071C13.8166 17.0976 13.1834 17.0976 12.7929 16.7071C12.4024 16.3166 12.4024 15.6834 12.7929 15.2929L14.0858 14L12.7929 12.7071C12.4024 12.3166 12.4024 11.6834 12.7929 11.2929C13.1834 10.9024 13.8166 10.9024 14.2071 11.2929L15.5 12.5858L16.7929 11.2929ZM18.9 8.19997C18.4593 8.53053 18.3691 9.15507 18.6976 9.59672L18.7031 9.6044C18.7094 9.61327 18.7208 9.62943 18.7365 9.65262C18.768 9.69904 18.8166 9.77343 18.8769 9.87384C18.9976 10.075 19.1635 10.3785 19.3309 10.7689C19.6663 11.5517 20 12.6666 20 14C20 15.3334 19.6663 16.4483 19.3309 17.2311C19.1635 17.6215 18.9976 17.9249 18.8769 18.1261C18.8166 18.2265 18.768 18.3009 18.7365 18.3473C18.7208 18.3705 18.7094 18.3867 18.7031 18.3955C18.3746 18.8372 18.4593 19.4694 18.9 19.8C19.3418 20.1313 19.9715 20.0379 20.3028 19.5961C20.3099 19.5865 20.3239 19.5674 20.3306 19.558C20.3462 19.5361 20.3671 19.5064 20.3924 19.469C20.443 19.3943 20.5115 19.2891 20.5919 19.1551C20.7524 18.8875 20.9615 18.5035 21.1691 18.0189C21.5837 17.0517 22 15.6666 22 14C22 12.3334 21.5837 10.9483 21.1691 9.98105C20.9615 9.49645 20.7524 9.11242 20.5919 8.84485C20.5115 8.7109 20.443 8.6056 20.3924 8.53092C20.3671 8.49357 20.3462 8.46382 20.3306 8.44193C20.3228 8.43098 20.3162 8.42199 20.3111 8.41499L20.3045 8.40598C19.9731 7.96415 19.3418 7.8686 18.9 8.19997Z" fill="currentColor"/>
</svg>
