<svg width="24" height="24" viewBox="0 0 24 24" fill="none" xmlns="http://www.w3.org/2000/svg">
<path fill-rule="evenodd" clip-rule="evenodd" d="M5 2C3.34315 2 2 3.34315 2 5V19C2 20.6569 3.34315 22 5 22H19C20.6569 22 22 20.6569 22 19V5C22 3.34315 20.6569 2 19 2H5ZM5.60446 8.00171C5.60446 6.67666 6.67863 5.60249 8.00368 5.60249H8.80342C9.2451 5.60249 9.60316 5.96055 9.60316 6.40223C9.60316 6.84391 9.2451 7.20197 8.80342 7.20197H8.00368C7.56199 7.20197 7.20394 7.56003 7.20394 8.00171V10.4005H8.00367C8.44535 10.4005 8.80341 10.7585 8.80341 11.2002C8.80341 11.6419 8.44535 12 8.00367 12H7.20394V15.1994C7.20394 16.5244 6.12977 17.5986 4.80472 17.5986C4.36304 17.5986 4.00498 17.2405 4.00498 16.7988C4.00498 16.3572 4.36304 15.9991 4.80472 15.9991C5.2464 15.9991 5.60446 15.641 5.60446 15.1994V12H4.80472C4.36304 12 4.00498 11.6419 4.00498 11.2002C4.00498 10.7585 4.36304 10.4005 4.80472 10.4005H5.60446V8.00171ZM12.7195 12.5653C12.4071 12.2529 12.4071 11.7464 12.7195 11.434C13.0319 11.1216 13.5385 11.1216 13.8509 11.434L14.9995 12.5826L16.148 11.434C16.4605 11.1216 16.967 11.1216 17.2794 11.434C17.5918 11.7464 17.5918 12.2529 17.2794 12.5653L16.1308 13.7139L17.2795 14.8625C17.5919 15.175 17.5919 15.6815 17.2795 15.9939C16.967 16.3063 16.4605 16.3063 16.1481 15.9939L14.9995 14.8453L13.8508 15.9939C13.5384 16.3063 13.0319 16.3063 12.7195 15.9939C12.4071 15.6815 12.4071 15.175 12.7195 14.8625L13.8681 13.7139L12.7195 12.5653ZM10.9635 9.12238L10.9554 9.13342C10.9513 9.13902 10.946 9.14621 10.9398 9.15496C10.9273 9.17247 10.9106 9.19626 10.8904 9.22613C10.8499 9.28585 10.7951 9.37007 10.7308 9.4772C10.6024 9.69118 10.4353 9.99831 10.2692 10.3859C9.93765 11.1594 9.60469 12.2671 9.60469 13.5999C9.60469 14.9328 9.93765 16.0405 10.2692 16.814C10.4353 17.2016 10.6024 17.5087 10.7308 17.7227C10.7951 17.8298 10.8499 17.914 10.8904 17.9738C10.9106 18.0036 10.9273 18.0274 10.9398 18.0449C10.9411 18.0468 10.9424 18.0486 10.9437 18.0503C10.945 18.0521 10.9462 18.0539 10.9474 18.0555C10.9504 18.0597 10.953 18.0633 10.9554 18.0665L10.9607 18.0737L10.9642 18.0785C11.2293 18.4318 11.7305 18.5034 12.0839 18.2384C12.4364 17.9741 12.5085 17.4745 12.2457 17.1213L12.2413 17.1153C12.2363 17.1082 12.2272 17.0952 12.2146 17.0767C12.1895 17.0396 12.1506 16.9801 12.1024 16.8998C12.0058 16.7389 11.8731 16.4962 11.7393 16.184C11.471 15.5579 11.2042 14.6663 11.2042 13.5999C11.2042 12.5336 11.471 11.642 11.7393 11.0159C11.8731 10.7037 12.0058 10.461 12.1024 10.3001C12.1506 10.2198 12.2146 10.1232 12.2146 10.1232L12.2457 10.0786C12.5085 9.72536 12.4364 9.22584 12.0839 8.96146C11.7305 8.69645 11.2285 8.76904 10.9635 9.12238ZM17.5197 8.96146C17.8731 8.69645 18.3779 8.77287 18.643 9.12621L18.6483 9.13342C18.6507 9.13678 18.6536 9.14072 18.6568 9.14523L18.6638 9.15496C18.6763 9.17247 18.693 9.19626 18.7132 9.22613C18.7537 9.28585 18.8085 9.37007 18.8728 9.4772C19.0012 9.69118 19.1684 9.99831 19.3345 10.3859C19.666 11.1594 19.9989 12.2671 19.9989 13.5999C19.9989 14.9328 19.666 16.0405 19.3345 16.814C19.1684 17.2016 19.0012 17.5087 18.8728 17.7227C18.8085 17.8298 18.7537 17.914 18.7132 17.9738C18.693 18.0036 18.6763 18.0274 18.6638 18.0449C18.6614 18.0483 18.6583 18.0526 18.6553 18.0568C18.6535 18.0592 18.6518 18.0615 18.6502 18.0638L18.643 18.0737C18.3779 18.427 17.8731 18.5034 17.5197 18.2384C17.1672 17.9741 17.0951 17.4745 17.3579 17.1213L17.3595 17.1191L17.3623 17.1153C17.3673 17.1082 17.3764 17.0952 17.389 17.0767C17.4142 17.0396 17.4531 16.9801 17.5012 16.8998C17.5978 16.7389 17.7305 16.4962 17.8643 16.184C18.1326 15.5579 18.3994 14.6663 18.3994 13.5999C18.3994 12.5336 18.1326 11.642 17.8643 11.0159C17.7305 10.7037 17.5978 10.461 17.5012 10.3001C17.4531 10.2198 17.4142 10.1603 17.389 10.1232C17.3764 10.1047 17.363 10.0857 17.3579 10.0786C17.0951 9.72536 17.1672 9.22584 17.5197 8.96146Z" fill="currentColor"/>
</svg>
