<svg width="24" height="24" viewBox="0 0 24 24" fill="none" xmlns="http://www.w3.org/2000/svg">
<path fill-rule="evenodd" clip-rule="evenodd" d="M2 3C2 2.44772 2.44772 2 3 2H21C21.5523 2 22 2.44772 22 3V6C22 6.2791 21.8834 6.5455 21.6783 6.7348L15.5 12.4378V18C15.5 18.3513 15.3157 18.6768 15.0145 18.8575L10.0145 21.8575C9.70556 22.0429 9.32081 22.0477 9.0073 21.8702C8.69379 21.6927 8.5 21.3603 8.5 21V12.4378L2.32172 6.7348C2.11664 6.5455 2 6.2791 2 6V3ZM4 4V5.56217L10.1783 11.2652C10.3834 11.4545 10.5 11.7209 10.5 12V19.2338L13.5 17.4338V12C13.5 11.7209 13.6166 11.4545 13.8217 11.2652L20 5.56217V4H4Z" fill="currentColor"/>
</svg>
