<svg width="24" height="24" viewBox="0 0 24 24" fill="none" xmlns="http://www.w3.org/2000/svg">
<path fill-rule="evenodd" clip-rule="evenodd" d="M3 12C3 7.02944 7.02944 3 12 3C16.9706 3 21 7.02944 21 12C21 16.9706 16.9706 21 12 21C7.02944 21 3 16.9706 3 12ZM12 1C5.92487 1 1 5.92487 1 12C1 18.0751 5.92487 23 12 23C18.0751 23 23 18.0751 23 12C23 5.92487 18.0751 1 12 1ZM19.9436 11.0517C19.8781 10.5034 19.3805 10.1119 18.8321 10.1773C18.2837 10.2428 17.8922 10.7404 17.9577 11.2888C18.0728 12.2531 17.9521 13.2309 17.606 14.1383C17.4091 14.6543 17.6679 15.2322 18.1839 15.429C18.6999 15.6258 19.2778 15.3671 19.4746 14.851C19.9361 13.6412 20.097 12.3375 19.9436 11.0517ZM12 6C10.4087 6 8.88258 6.63214 7.75736 7.75736C6.63214 8.88258 6 10.4087 6 12C6 12.5523 5.55228 13 5 13C4.44772 13 4 12.5523 4 12C4 9.87827 4.84285 7.84344 6.34315 6.34315C7.84344 4.84285 9.87827 4 12 4C12.5523 4 13 4.44772 13 5C13 5.55228 12.5523 6 12 6ZM9.5 12C9.5 10.6193 10.6193 9.5 12 9.5C12.3224 9.5 12.6306 9.56104 12.9136 9.67219L15.7929 6.79289C16.1834 6.40237 16.8166 6.40237 17.2071 6.79289C17.5976 7.18342 17.5976 7.81658 17.2071 8.20711L14.3278 11.0864C14.439 11.3694 14.5 11.6776 14.5 12C14.5 13.3807 13.3807 14.5 12 14.5C10.6193 14.5 9.5 13.3807 9.5 12Z" fill="currentColor"/>
</svg>
