<svg width="24" height="24" viewBox="0 0 24 24" fill="none" xmlns="http://www.w3.org/2000/svg">
<path fill-rule="evenodd" clip-rule="evenodd" d="M13 4.5V3.05493C14.7359 3.24682 16.323 3.93241 17.6178 4.96817L13.2935 9.29242C12.9019 9.10497 12.4632 9 12 9C10.3431 9 9 10.3431 9 12C9 13.6569 10.3431 15 12 15C13.6569 15 15 13.6569 15 12C15 11.5369 14.8951 11.0983 14.7077 10.7067L19.032 6.3824C20.0677 7.67715 20.7532 9.26418 20.9451 11H19.5C18.9477 11 18.5 11.4477 18.5 12C18.5 12.5523 18.9477 13 19.5 13H20.9451C20.7532 14.736 20.0675 16.3232 19.0316 17.6181L18.878 17.4645C17.9403 16.5268 16.6686 16 15.3425 16H8.65619C7.3301 16 6.05833 16.5268 5.12065 17.4645L4.9678 17.6173C3.93225 16.3226 3.2468 14.7357 3.05493 13H4.5C5.05228 13 5.5 12.5523 5.5 12C5.5 11.4477 5.05228 11 4.5 11H3.05493C3.24682 9.26415 3.93238 7.67708 4.9681 6.38231L6.29289 7.70711C6.68342 8.09763 7.31658 8.09763 7.70711 7.70711C8.09763 7.31658 8.09763 6.68342 7.70711 6.29289L6.38231 4.9681C7.67708 3.93238 9.26415 3.24682 11 3.05493V4.5C11 5.05228 11.4477 5.5 12 5.5C12.5523 5.5 13 5.05228 13 4.5ZM1 12C1 17.9922 5.79137 22.8654 11.7519 22.9973C11.8226 22.9988 11.8934 22.9997 11.9644 22.9999L12 23C18.0751 23 23 18.0751 23 12C23 5.92487 18.0751 1 12 1C5.92487 1 1 5.92487 1 12ZM12 11C11.4477 11 11 11.4477 11 12C11 12.5523 11.4477 13 12 13C12.5523 13 13 12.5523 13 12C13 11.4477 12.5523 11 12 11Z" fill="currentColor"/>
</svg>
