<svg width="24" height="24" viewBox="0 0 24 24" fill="none" xmlns="http://www.w3.org/2000/svg">
<path fill-rule="evenodd" clip-rule="evenodd" d="M13.2071 2.29289C12.8166 1.90237 12.1834 1.90237 11.7929 2.29289L6.79289 7.29289C6.40237 7.68342 6.40237 8.31658 6.79289 8.70711L7.79289 9.70711C8.18342 10.0976 8.81658 10.0976 9.20711 9.70711L9.40938 9.50484L13.4952 13.5906L13.2929 13.7929C12.9024 14.1834 12.9024 14.8166 13.2929 15.2071L14.2929 16.2071C14.6834 16.5976 15.3166 16.5976 15.7071 16.2071L20.7071 11.2071C21.0976 10.8166 21.0976 10.1834 20.7071 9.79289L19.7071 8.79289C19.3166 8.40237 18.6834 8.40237 18.2929 8.79289L18.0914 8.99443L14.0056 4.90864L14.2071 4.70711C14.5976 4.31658 14.5976 3.68342 14.2071 3.29289L13.2071 2.29289ZM10.1643 14.2501L10.2071 14.2929C10.5976 14.6834 10.5976 15.3166 10.2071 15.7071L5.20711 20.7071C4.81658 21.0976 4.18342 21.0976 3.79289 20.7071L2.29289 19.2071C1.90237 18.8166 1.90237 18.1834 2.29289 17.7929L7.29289 12.7929C7.68342 12.4024 8.31658 12.4024 8.70711 12.7929L8.75008 12.8359L9.9316 11.6543C10.1269 11.4591 10.4434 11.4591 10.6387 11.6543L11.3458 12.3614C11.5411 12.5567 11.5411 12.8733 11.3458 13.0685L10.1643 14.2501ZM15 21C15 20.4477 15.4477 20 16 20C16 19.4477 16.4477 19 17 19H20C20.5523 19 21 19.4477 21 20C21.5523 20 22 20.4477 22 21C22 21.5523 21.5523 22 21 22H16C15.4477 22 15 21.5523 15 21Z" fill="currentColor"/>
</svg>
