<svg width="24" height="24" viewBox="0 0 24 24" fill="none" xmlns="http://www.w3.org/2000/svg">
<path fill-rule="evenodd" clip-rule="evenodd" d="M5 2C3.34315 2 2 3.34315 2 5V19C2 20.6569 3.34315 22 5 22H19C20.6569 22 22 20.6569 22 19V5C22 3.34315 20.6569 2 19 2H5ZM16.7356 10.7688C16.9131 10.9219 17.1239 11.0312 17.3513 11.088C17.805 11.2013 18 11.4975 18 11.8357V12.1643C18 12.5017 17.8065 12.7987 17.3513 12.912C17.1239 12.9688 16.9131 13.0781 16.7356 13.2312C16.5582 13.3842 16.419 13.5766 16.3293 13.7931C16.2396 14.0096 16.2019 14.2441 16.2192 14.4777C16.2365 14.7114 16.3082 14.9378 16.4288 15.1388C16.6695 15.5408 16.5968 15.8873 16.3583 16.1258L16.1258 16.3583C15.8865 16.5975 15.54 16.6695 15.1388 16.4288C14.9378 16.3082 14.7114 16.2365 14.4777 16.2192C14.2441 16.2019 14.0096 16.2396 13.7931 16.3293C13.5766 16.419 13.3842 16.5582 13.2312 16.7356C13.0781 16.9131 12.9688 17.1239 12.912 17.3513C12.798 17.8065 12.5017 18 12.1643 18H11.8357C11.4983 18 11.2013 17.8065 11.088 17.3513C11.0312 17.1239 10.9219 16.9131 10.7688 16.7356C10.6158 16.5582 10.4234 16.419 10.2069 16.3293C9.99043 16.2396 9.75595 16.2019 9.52227 16.2192C9.28858 16.2365 9.0622 16.3082 8.86125 16.4288C8.46075 16.6695 8.1135 16.5975 7.87425 16.3583L7.64175 16.1258C7.4025 15.8873 7.32975 15.5408 7.57125 15.1388C7.69178 14.9378 7.76355 14.7114 7.78082 14.4777C7.79808 14.2441 7.76036 14.0096 7.67068 13.7931C7.581 13.5766 7.44185 13.3842 7.26438 13.2312C7.08692 13.0781 6.87607 12.9688 6.64875 12.912C6.1935 12.798 6 12.5017 6 12.1643V11.8357C6 11.4975 6.195 11.2013 6.64875 11.088C6.87607 11.0312 7.08692 10.9219 7.26438 10.7688C7.44185 10.6158 7.581 10.4234 7.67068 10.2069C7.76036 9.99043 7.79808 9.75595 7.78082 9.52227C7.76355 9.28858 7.69178 9.0622 7.57125 8.86125C7.32975 8.45925 7.4025 8.112 7.641 7.8735L7.8735 7.641C8.112 7.4025 8.45925 7.32975 8.86125 7.57125C9.0622 7.69178 9.28858 7.76355 9.52227 7.78082C9.75595 7.79808 9.99043 7.76036 10.2069 7.67068C10.4234 7.581 10.6158 7.44185 10.7688 7.26438C10.9219 7.08692 11.0312 6.87607 11.088 6.64875C11.202 6.1935 11.4983 6 11.8357 6H12.1643C12.5017 6 12.7987 6.1935 12.912 6.64875C12.9688 6.87607 13.0781 7.08692 13.2312 7.26438C13.3842 7.44185 13.5766 7.581 13.7931 7.67068C14.0096 7.76036 14.2441 7.79808 14.4777 7.78082C14.7114 7.76355 14.9378 7.69178 15.1388 7.57125C15.5408 7.3305 15.8873 7.40325 16.1258 7.64175L16.3583 7.87425C16.5975 8.11275 16.6703 8.45925 16.4288 8.86125C16.3082 9.0622 16.2365 9.28858 16.2192 9.52227C16.2019 9.75595 16.2396 9.99043 16.3293 10.2069C16.419 10.4234 16.5582 10.6158 16.7356 10.7688ZM10.409 13.591C10.831 14.0129 11.4033 14.25 12 14.25C12.5967 14.25 13.169 14.0129 13.591 13.591C14.0129 13.169 14.25 12.5967 14.25 12C14.25 11.4033 14.0129 10.831 13.591 10.409C13.169 9.98705 12.5967 9.75 12 9.75C11.4033 9.75 10.831 9.98705 10.409 10.409C9.98705 10.831 9.75 11.4033 9.75 12C9.75 12.5967 9.98705 13.169 10.409 13.591Z" fill="currentColor"/>
</svg>
