<svg width="24" height="24" viewBox="0 0 24 24" fill="none" xmlns="http://www.w3.org/2000/svg">
<path fill-rule="evenodd" clip-rule="evenodd" d="M21.7356 5.76885C21.9131 5.92186 22.1239 6.03116 22.3512 6.088C22.805 6.20125 23 6.4975 23 6.83575V7.16425C23 7.50175 22.8065 7.79875 22.3512 7.912C22.1239 7.96884 21.9131 8.07814 21.7356 8.23115C21.5582 8.38416 21.419 8.57662 21.3293 8.7931C21.2396 9.00957 21.2019 9.24405 21.2192 9.47773C21.2365 9.71142 21.3082 9.93781 21.4288 10.1388C21.6695 10.5408 21.5968 10.8873 21.3582 11.1258L21.1258 11.3583C20.8865 11.5975 20.54 11.6695 20.1388 11.4288C19.9378 11.3082 19.7114 11.2365 19.4777 11.2192C19.2441 11.2019 19.0096 11.2396 18.7931 11.3293C18.5766 11.419 18.3842 11.5582 18.2312 11.7356C18.0781 11.9131 17.9688 12.1239 17.912 12.3513C17.798 12.8065 17.5018 13 17.1642 13H16.8358C16.4983 13 16.2013 12.8065 16.088 12.3513C16.0312 12.1239 15.9219 11.9131 15.7688 11.7356C15.6158 11.5582 15.4234 11.419 15.2069 11.3293C14.9904 11.2396 14.7559 11.2019 14.5223 11.2192C14.2886 11.2365 14.0622 11.3082 13.8612 11.4288C13.4608 11.6695 13.1135 11.5975 12.8743 11.3583L12.6418 11.1258C12.4025 10.8873 12.3298 10.5408 12.5712 10.1388C12.6918 9.93781 12.7635 9.71142 12.7808 9.47773C12.7981 9.24405 12.7604 9.00957 12.6707 8.7931C12.581 8.57662 12.4418 8.38416 12.2644 8.23115C12.0869 8.07814 11.8761 7.96884 11.6488 7.912C11.1935 7.798 11 7.50175 11 7.16425V6.83575C11 6.4975 11.195 6.20125 11.6488 6.088C11.8761 6.03116 12.0869 5.92186 12.2644 5.76885C12.4418 5.61584 12.581 5.42338 12.6707 5.2069C12.7604 4.99043 12.7981 4.75595 12.7808 4.52227C12.7635 4.28858 12.6918 4.0622 12.5712 3.86125C12.3298 3.45925 12.4025 3.112 12.641 2.8735L12.8735 2.641C13.112 2.4025 13.4593 2.32975 13.8612 2.57125C14.0622 2.69178 14.2886 2.76355 14.5223 2.78082C14.7559 2.79808 14.9904 2.76036 15.2069 2.67068C15.4234 2.581 15.6158 2.44185 15.7688 2.26438C15.9219 2.08692 16.0312 1.87607 16.088 1.64875C16.202 1.1935 16.4983 1 16.8358 1H17.1642C17.5018 1 17.7987 1.1935 17.912 1.64875C17.9688 1.87607 18.0781 2.08692 18.2312 2.26438C18.3842 2.44185 18.5766 2.581 18.7931 2.67068C19.0096 2.76036 19.2441 2.79808 19.4777 2.78082C19.7114 2.76355 19.9378 2.69178 20.1388 2.57125C20.5408 2.3305 20.8873 2.40325 21.1258 2.64175L21.3582 2.87425C21.5975 3.11275 21.6703 3.45925 21.4288 3.86125C21.3082 4.0622 21.2365 4.28858 21.2192 4.52227C21.2019 4.75595 21.2396 4.99043 21.3293 5.2069C21.419 5.42338 21.5582 5.61584 21.7356 5.76885ZM15.409 8.59099C15.831 9.01295 16.4033 9.25 17 9.25C17.5967 9.25 18.169 9.01295 18.591 8.59099C19.0129 8.16903 19.25 7.59674 19.25 7C19.25 6.40326 19.0129 5.83097 18.591 5.40901C18.169 4.98705 17.5967 4.75 17 4.75C16.4033 4.75 15.831 4.98705 15.409 5.40901C14.9871 5.83097 14.75 6.40326 14.75 7C14.75 7.59674 14.9871 8.16903 15.409 8.59099ZM11.7356 15.7688C11.9131 15.9219 12.1239 16.0312 12.3513 16.088C12.805 16.2013 13 16.4975 13 16.8358V17.1642C13 17.5018 12.8065 17.7987 12.3513 17.912C12.1239 17.9688 11.9131 18.0781 11.7356 18.2312C11.5582 18.3842 11.419 18.5766 11.3293 18.7931C11.2396 19.0096 11.2019 19.2441 11.2192 19.4777C11.2365 19.7114 11.3082 19.9378 11.4288 20.1388C11.6695 20.5408 11.5968 20.8873 11.3583 21.1258L11.1258 21.3582C10.8865 21.5975 10.54 21.6695 10.1388 21.4288C9.93781 21.3082 9.71142 21.2365 9.47773 21.2192C9.24405 21.2019 9.00957 21.2396 8.7931 21.3293C8.57662 21.419 8.38416 21.5582 8.23115 21.7356C8.07814 21.9131 7.96884 22.1239 7.912 22.3512C7.798 22.8065 7.50175 23 7.16425 23H6.83575C6.49825 23 6.20125 22.8065 6.088 22.3512C6.03116 22.1239 5.92186 21.9131 5.76885 21.7356C5.61584 21.5582 5.42338 21.419 5.2069 21.3293C4.99043 21.2396 4.75595 21.2019 4.52227 21.2192C4.28858 21.2365 4.0622 21.3082 3.86125 21.4288C3.46075 21.6695 3.1135 21.5975 2.87425 21.3582L2.64175 21.1258C2.4025 20.8873 2.32975 20.5408 2.57125 20.1388C2.69178 19.9378 2.76355 19.7114 2.78082 19.4777C2.79808 19.2441 2.76036 19.0096 2.67068 18.7931C2.581 18.5766 2.44185 18.3842 2.26438 18.2312C2.08692 18.0781 1.87607 17.9688 1.64875 17.912C1.1935 17.798 1 17.5018 1 17.1642V16.8358C1 16.4975 1.195 16.2013 1.64875 16.088C1.87607 16.0312 2.08692 15.9219 2.26438 15.7688C2.44185 15.6158 2.581 15.4234 2.67068 15.2069C2.76036 14.9904 2.79808 14.7559 2.78082 14.5223C2.76355 14.2886 2.69178 14.0622 2.57125 13.8612C2.32975 13.4593 2.4025 13.112 2.641 12.8735L2.8735 12.641C3.112 12.4025 3.45925 12.3298 3.86125 12.5712C4.0622 12.6918 4.28858 12.7635 4.52227 12.7808C4.75595 12.7981 4.99043 12.7604 5.2069 12.6707C5.42338 12.581 5.61584 12.4418 5.76885 12.2644C5.92186 12.0869 6.03116 11.8761 6.088 11.6488C6.202 11.1935 6.49825 11 6.83575 11H7.16425C7.50175 11 7.79875 11.1935 7.912 11.6488C7.96884 11.8761 8.07814 12.0869 8.23115 12.2644C8.38416 12.4418 8.57662 12.581 8.7931 12.6707C9.00957 12.7604 9.24405 12.7981 9.47773 12.7808C9.71142 12.7635 9.93781 12.6918 10.1388 12.5712C10.5408 12.3305 10.8873 12.4032 11.1258 12.6418L11.3583 12.8743C11.5975 13.1128 11.6703 13.4593 11.4288 13.8612C11.3082 14.0622 11.2365 14.2886 11.2192 14.5223C11.2019 14.7559 11.2396 14.9904 11.3293 15.2069C11.419 15.4234 11.5582 15.6158 11.7356 15.7688ZM5.40901 18.591C5.83097 19.0129 6.40326 19.25 7 19.25C7.59674 19.25 8.16903 19.0129 8.59099 18.591C9.01295 18.169 9.25 17.5967 9.25 17C9.25 16.4033 9.01295 15.831 8.59099 15.409C8.16903 14.9871 7.59674 14.75 7 14.75C6.40326 14.75 5.83097 14.9871 5.40901 15.409C4.98705 15.831 4.75 16.4033 4.75 17C4.75 17.5967 4.98705 18.169 5.40901 18.591Z" fill="currentColor"/>
</svg>
