<svg width="24" height="24" viewBox="0 0 24 24" fill="none" xmlns="http://www.w3.org/2000/svg">
<path d="M21.8106 10.328C21.3939 10.2238 21.0073 10.0234 20.682 9.74289C20.3566 9.46237 20.1015 9.10953 19.9371 8.71266C19.7727 8.31578 19.7035 7.88591 19.7352 7.45749C19.7668 7.02907 19.8984 6.61403 20.1194 6.24563C20.5621 5.50863 20.4288 4.87338 19.9901 4.43613L19.5639 4.00988C19.1266 3.57263 18.4914 3.43925 17.7544 3.88063C17.386 4.10159 16.9709 4.23317 16.5425 4.26483C16.1141 4.29649 15.6842 4.22733 15.2873 4.06291C14.8905 3.8985 14.5376 3.64339 14.2571 3.31803C13.9766 2.99268 13.7762 2.60613 13.672 2.18937C13.4644 1.35475 12.9199 1 12.3011 1H11.6989C11.0801 1 10.537 1.35475 10.328 2.18937C10.2238 2.60613 10.0234 2.99268 9.74289 3.31803C9.46237 3.64339 9.10953 3.8985 8.71266 4.06291C8.31578 4.22733 7.88591 4.29649 7.45749 4.26483C7.02907 4.23317 6.61403 4.10159 6.24563 3.88063C5.50863 3.43788 4.872 3.57125 4.43475 4.0085L4.0085 4.43475C3.57125 4.872 3.43788 5.50863 3.88063 6.24563C4.10159 6.61403 4.23317 7.02907 4.26483 7.45749C4.29649 7.88591 4.22733 8.31578 4.06291 8.71266C3.8985 9.10953 3.64339 9.46237 3.31803 9.74289C2.99268 10.0234 2.60613 10.2238 2.18937 10.328C1.3575 10.5356 1 11.0787 1 11.6989V12.3011C1 12.9199 1.35475 13.463 2.18937 13.672C2.60613 13.7762 2.99268 13.9766 3.31803 14.2571C3.64339 14.5376 3.8985 14.8905 4.06291 15.2873C4.22733 15.6842 4.29649 16.1141 4.26483 16.5425C4.23317 16.9709 4.10159 17.386 3.88063 17.7544C3.43788 18.4914 3.57125 19.1266 4.00988 19.5639L4.43613 19.9901C4.87475 20.4288 5.51138 20.5608 6.24563 20.1194C6.61403 19.8984 7.02907 19.7668 7.45749 19.7352C7.88591 19.7035 8.31578 19.7727 8.71266 19.9371C9.10953 20.1015 9.46237 20.3566 9.74289 20.682C10.0234 21.0073 10.2238 21.3939 10.328 21.8106C10.5356 22.6453 11.0801 23 11.6989 23H12.3011C12.9199 23 13.463 22.6453 13.672 21.8106C13.7762 21.3939 13.9766 21.0073 14.2571 20.682C14.5376 20.3566 14.8905 20.1015 15.2873 19.9371C15.6842 19.7727 16.1141 19.7035 16.5425 19.7352C16.9709 19.7668 17.386 19.8984 17.7544 20.1194C18.49 20.5608 19.1253 20.4288 19.5639 19.9901L19.9901 19.5639C20.4274 19.1266 20.5608 18.4914 20.1194 17.7544C19.8984 17.386 19.7668 16.9709 19.7352 16.5425C19.7035 16.1141 19.7727 15.6842 19.9371 15.2873C20.1015 14.8905 20.3566 14.5376 20.682 14.2571C21.0073 13.9766 21.3939 13.7762 21.8106 13.672C22.6453 13.4644 23 12.9199 23 12.3011V11.6989C23 11.0787 22.6425 10.5356 21.8106 10.328ZM12 16.125C10.906 16.125 9.85677 15.6904 9.08318 14.9168C8.3096 14.1432 7.875 13.094 7.875 12C7.875 10.906 8.3096 9.85677 9.08318 9.08318C9.85677 8.3096 10.906 7.875 12 7.875C13.094 7.875 14.1432 8.3096 14.9168 9.08318C15.6904 9.85677 16.125 10.906 16.125 12C16.125 13.094 15.6904 14.1432 14.9168 14.9168C14.1432 15.6904 13.094 16.125 12 16.125Z" fill="currentColor"/>
</svg>
