<svg width="24" height="24" viewBox="0 0 24 24" fill="none" xmlns="http://www.w3.org/2000/svg">
<path d="M10.6742 13.3258C11.0258 13.6775 11.5027 13.875 12 13.875C12.4973 13.875 12.9742 13.6775 13.3258 13.3258C13.6775 12.9742 13.875 12.4973 13.875 12C13.875 11.5027 13.6775 11.0258 13.3258 10.6742C12.9742 10.3225 12.4973 10.125 12 10.125C11.5027 10.125 11.0258 10.3225 10.6742 10.6742C10.3225 11.0258 10.125 11.5027 10.125 12C10.125 12.4973 10.3225 12.9742 10.6742 13.3258Z" fill="currentColor"/>
<path fill-rule="evenodd" clip-rule="evenodd" d="M23 12C23 18.0751 18.0751 23 12 23C5.92487 23 1 18.0751 1 12C1 5.92487 5.92487 1 12 1C18.0751 1 23 5.92487 23 12ZM15.9463 10.974C16.0942 11.1015 16.2699 11.1926 16.4594 11.24C16.8375 11.3344 17 11.5813 17 11.8631V12.1369C17 12.4181 16.8388 12.6656 16.4594 12.76C16.2699 12.8074 16.0942 12.8985 15.9463 13.026C15.7985 13.1535 15.6825 13.3138 15.6078 13.4942C15.533 13.6746 15.5016 13.87 15.516 14.0648C15.5304 14.2595 15.5902 14.4482 15.6906 14.6156C15.8913 14.9506 15.8306 15.2394 15.6319 15.4381L15.4381 15.6319C15.2388 15.8313 14.95 15.8913 14.6156 15.6906C14.4482 15.5902 14.2595 15.5304 14.0648 15.516C13.87 15.5016 13.6746 15.533 13.4942 15.6078C13.3138 15.6825 13.1535 15.7985 13.026 15.9463C12.8985 16.0942 12.8074 16.2699 12.76 16.4594C12.665 16.8388 12.4181 17 12.1369 17H11.8631C11.5819 17 11.3344 16.8388 11.24 16.4594C11.1926 16.2699 11.1015 16.0942 10.974 15.9463C10.8465 15.7985 10.6862 15.6825 10.5058 15.6078C10.3254 15.533 10.13 15.5016 9.93522 15.516C9.74049 15.5304 9.55183 15.5902 9.38437 15.6906C9.05062 15.8913 8.76125 15.8313 8.56188 15.6319L8.36812 15.4381C8.16875 15.2394 8.10813 14.9506 8.30937 14.6156C8.40981 14.4482 8.46962 14.2595 8.48401 14.0648C8.4984 13.87 8.46697 13.6746 8.39223 13.4942C8.3175 13.3138 8.20154 13.1535 8.05365 13.026C7.90576 12.8985 7.73006 12.8074 7.54063 12.76C7.16125 12.665 7 12.4181 7 12.1369V11.8631C7 11.5813 7.1625 11.3344 7.54063 11.24C7.73006 11.1926 7.90576 11.1015 8.05365 10.974C8.20154 10.8465 8.3175 10.6862 8.39223 10.5058C8.46697 10.3254 8.4984 10.13 8.48401 9.93522C8.46962 9.74049 8.40981 9.55183 8.30937 9.38437C8.10813 9.04938 8.16875 8.76 8.3675 8.56125L8.56125 8.3675C8.76 8.16875 9.04938 8.10813 9.38437 8.30937C9.55183 8.40981 9.74049 8.46962 9.93522 8.48401C10.13 8.4984 10.3254 8.46697 10.5058 8.39223C10.6862 8.3175 10.8465 8.20154 10.974 8.05365C11.1015 7.90576 11.1926 7.73006 11.24 7.54063C11.335 7.16125 11.5819 7 11.8631 7H12.1369C12.4181 7 12.6656 7.16125 12.76 7.54063C12.8074 7.73006 12.8985 7.90576 13.026 8.05365C13.1535 8.20154 13.3138 8.3175 13.4942 8.39223C13.6746 8.46697 13.87 8.4984 14.0648 8.48401C14.2595 8.46962 14.4482 8.40981 14.6156 8.30937C14.9506 8.10875 15.2394 8.16937 15.4381 8.36812L15.6319 8.56188C15.8313 8.76062 15.8919 9.04938 15.6906 9.38437C15.5902 9.55183 15.5304 9.74049 15.516 9.93522C15.5016 10.13 15.533 10.3254 15.6078 10.5058C15.6825 10.6862 15.7985 10.8465 15.9463 10.974Z" fill="currentColor"/>
</svg>
