<svg width="24" height="24" viewBox="0 0 24 24" fill="none" xmlns="http://www.w3.org/2000/svg">
<path fill-rule="evenodd" clip-rule="evenodd" d="M6 1C4.34315 1 3 2.34315 3 4V14V17V20C3 21.6569 4.34315 23 6 23H16.5H17.5H19.5C20.3284 23 21 22.3284 21 21.5C21 20.8469 20.5826 20.2913 20 20.0854V16.7324C20.5978 16.3866 21 15.7403 21 15V3C21 1.89543 20.1046 1 19 1H6ZM18 17H6.5C5.67157 17 5 17.6716 5 18.5C5 19.3284 5.67157 20 6.5 20H16.5H18V17ZM9.18499 7.24055C9.49916 7.47038 9.57813 7.92483 9.35837 8.2534C9.14614 8.57069 8.73678 8.65622 8.4259 8.45474C8.4259 8.45474 8.36328 8.4298 8.32031 8.45474C8.28278 8.47652 8.28891 8.52711 8.28891 8.52711C8.28891 8.52711 8.28629 8.54496 8.28891 8.571C8.30661 8.74681 8.40886 9.00268 8.60609 9.42442L8.65545 9.52952L8.65546 9.52954C8.82122 9.88175 9.02944 10.3242 9.14322 10.7673C9.17724 10.8998 9.20498 11.0402 9.22127 11.1858C9.49862 11.235 9.77671 11.3405 10.0214 11.5328C10.4598 11.8773 10.5637 12.3829 10.6028 12.6792L10.6034 12.6778L10.6388 12.6014C10.7454 12.3708 10.89 12.058 11.0737 11.7952C11.2858 11.4919 11.6224 11.1468 12.1384 11.0635C12.7568 10.9637 13.229 11.2225 13.561 11.5851C13.8442 11.8945 14.0489 12.306 14.2005 12.6109L14.2144 12.6387C14.3912 12.994 14.5156 13.2373 14.657 13.4021C14.7696 13.5333 14.8372 13.5524 14.9237 13.5472C15.0497 13.5396 15.224 13.4769 15.443 13.3253C15.6573 13.1771 15.872 12.9731 16.0694 12.7527C16.2648 12.5346 16.4297 12.3158 16.5462 12.1503C16.604 12.0681 16.6489 12.0005 16.6787 11.9546C16.6935 11.9317 16.7117 11.9027 16.7186 11.8917C16.9239 11.5533 17.3536 11.4514 17.6774 11.6661C18.0012 11.8807 18.0973 12.3293 17.892 12.668L17.8912 12.6694L17.8899 12.6715L17.886 12.6778L17.8732 12.6984C17.8624 12.7156 17.8473 12.7396 17.828 12.7694C17.7894 12.8288 17.7341 12.912 17.6643 13.0111C17.5256 13.2082 17.3257 13.4742 17.0827 13.7455C16.8418 14.0144 16.5445 14.3042 16.2092 14.5363C15.8787 14.765 15.466 14.969 15.0034 14.9969C14.3851 15.0341 13.935 14.7348 13.6235 14.3717C13.3552 14.0589 13.1562 13.6583 13.0063 13.3565L12.9828 13.3092C12.8065 12.955 12.6866 12.7297 12.5581 12.5894C12.4697 12.4927 12.4293 12.4858 12.3501 12.4986C12.3448 12.4995 12.3348 12.5012 12.3128 12.5181C12.2864 12.5382 12.2465 12.5779 12.1945 12.6522C12.0895 12.8024 12.0007 12.9933 11.8821 13.2484L11.8515 13.3141L11.8441 13.33C11.7363 13.5613 11.5674 13.9239 11.3168 14.1687C11.1703 14.3119 10.9625 14.4507 10.6903 14.4871C10.418 14.5235 10.1698 14.4457 9.96313 14.3262C9.36076 13.9778 9.28288 13.3374 9.24895 13.0584L9.24498 13.0261L9.23612 12.9543C9.22195 12.8384 9.21694 12.7975 9.1933 12.7152C9.16466 12.6156 9.0538 12.5619 8.94922 12.6109C8.87172 12.6472 8.83392 12.7223 8.79764 12.7945L8.79763 12.7945C8.79036 12.8089 8.78316 12.8233 8.7757 12.8371L8.77559 12.8373C8.73064 12.921 8.6819 13.0117 8.62662 13.1122C8.49903 13.344 8.34535 13.6102 8.17602 13.8352C8.02823 14.0316 7.7726 14.3313 7.40841 14.4414C7.19736 14.5052 6.96096 14.5017 6.73171 14.3975C6.51645 14.2996 6.35938 14.1368 6.24582 13.9749C6.0739 13.7298 5.98622 13.4428 6.00176 13.1413C6.01667 12.8521 6.12329 12.6028 6.25161 12.4056C6.50048 12.0233 6.89732 11.7317 7.288 11.5337C7.46043 11.4463 7.64534 11.3702 7.83665 11.3093C7.82905 11.259 7.81775 11.2041 7.80228 11.1439C7.72561 10.8453 7.57798 10.5302 7.39869 10.1475L7.35882 10.0624C7.18733 9.69568 6.95629 9.20163 6.9081 8.7231C6.88174 8.46141 6.90382 8.16293 7.04242 7.8719C7.18227 7.57825 7.40866 7.35954 7.67977 7.20218C8.06487 6.97865 8.43422 6.97147 8.71044 7.03354C8.84369 7.06348 8.95225 7.10847 9.0307 7.14801C9.07029 7.16796 9.10336 7.1871 9.12938 7.20332C9.14049 7.21024 9.16599 7.22761 9.17929 7.23667C9.18161 7.23825 9.18355 7.23958 9.18499 7.24055ZM12.4204 6.58546C12.4808 6.39768 12.5851 6.22699 12.7246 6.08751L15.4482 3.3639C15.9334 2.8787 16.72 2.8787 17.2052 3.3639L17.6402 3.79886C18.1254 4.28406 18.1254 5.07072 17.6402 5.55591L14.9166 8.27952C14.7771 8.41901 14.6064 8.52327 14.4186 8.5837L13.261 8.95619C12.5135 9.19673 11.8073 8.49057 12.0479 7.74305L12.4204 6.58546ZM13.4322 6.79514C13.4051 6.82228 13.3848 6.85548 13.373 6.892L13.0224 7.9817L14.1121 7.63106C14.1486 7.6193 14.1818 7.59902 14.2089 7.57189L15.8662 5.91465L15.0894 5.1379L13.4322 6.79514ZM16.9325 4.84828L16.5738 5.20701L15.7971 4.43027L16.1558 4.07153C16.2502 3.97715 16.4032 3.97715 16.4976 4.07153L16.9325 4.5065C17.0269 4.60088 17.0269 4.7539 16.9325 4.84828Z" fill="currentColor"/>
</svg>
