<svg width="24" height="24" viewBox="0 0 24 24" fill="none" xmlns="http://www.w3.org/2000/svg">
<path fill-rule="evenodd" clip-rule="evenodd" d="M1 12C1 9.78512 1.65461 7.72313 2.78092 5.99695L3.06898 6.53306C3.07389 6.54219 3.07894 6.55124 3.08412 6.56021L7.56707 14.315C8.40222 15.9109 10.0739 17 12 17C12.2014 17 12.4 16.9881 12.5952 16.9649L12.3036 17.4705L10.0205 21.4285L9.26552 22.6574C4.51327 21.4417 1 17.1311 1 12ZM14.6368 13.4321C14.6216 13.4541 14.6072 13.4769 14.5936 13.5005L14.5182 13.6312C13.9834 14.4551 13.0553 15 12 15C10.918 15 9.96977 14.4272 9.44205 13.5683C9.43089 13.545 9.41875 13.522 9.40562 13.4993L9.3263 13.362C9.11766 12.9533 9 12.4904 9 12C9 10.3485 10.3345 9.00866 11.984 9.00004C11.9893 9.00012 11.9946 9.00017 11.9999 9.00017H12.0319C13.6741 9.01727 15 10.3538 15 12C15 12.5186 14.8684 13.0065 14.6368 13.4321ZM16.2246 14.6756L14.036 18.4698L11.746 22.4398C11.7414 22.4478 11.7367 22.4558 11.7319 22.4636L11.4118 22.9845C11.6066 22.9948 11.8027 23 12 23C18.0751 23 23 18.0751 23 12C23 10.96 22.8557 9.95378 22.586 9.00017H16.0005C16.6281 9.8358 17 10.8745 17 12C17 12.9842 16.7157 13.9019 16.2246 14.6756ZM12.0412 7.00017H21.8007C19.98 3.4384 16.2748 1 12 1C8.92125 1 6.13791 2.26483 4.14127 4.30321L4.82341 5.57272L7.40179 10.0329C8.16574 8.24946 9.93696 7 12 7C12.0138 7 12.0275 7.00006 12.0412 7.00017Z" fill="currentColor"/>
</svg>
