<svg width="24" height="24" viewBox="0 0 24 24" fill="none" xmlns="http://www.w3.org/2000/svg">
<path fill-rule="evenodd" clip-rule="evenodd" d="M12 3C9.26181 3 6.80923 4.22281 5.15854 6.15215L7.40187 10.0328C8.16585 8.24938 9.93702 7 12 7H19.4845C17.8699 4.58803 15.1204 3 12 3ZM20.4879 9H16.0004C16.6281 9.83566 17 10.8744 17 12C17 12.9843 16.7156 13.9022 16.2244 14.6759L14.0361 18.4697L12.5874 20.9811C17.2842 20.6785 21 16.7732 21 12C21 10.9481 20.8195 9.93834 20.4879 9ZM10.8376 22.9393C11.2196 22.9794 11.6074 23 12 23C18.0751 23 23 18.0751 23 12C23 5.92487 18.0751 1 12 1C8.40531 1 5.21335 2.72427 3.20608 5.39085C3.16328 5.43843 3.12554 5.48966 3.09309 5.54366C1.77646 7.35689 1 9.58777 1 12C1 17.6354 5.23773 22.281 10.7003 22.924C10.7459 22.9323 10.7918 22.9374 10.8376 22.9393ZM10.3543 20.8499L12.3037 17.4703L12.5952 16.9649C12.4 16.9881 12.2014 17 12 17C10.0727 17 8.40002 15.9095 7.56542 14.3119L3.92679 8.0176C3.33344 9.21818 3 10.5702 3 12C3 16.4085 6.16962 20.0766 10.3543 20.8499ZM14.6369 13.4318C14.6217 13.4539 14.6073 13.4767 14.5937 13.5003L14.518 13.6315C13.9832 14.4552 13.0552 15 12 15C10.9185 15 9.97064 14.4277 9.44277 13.5694C9.43144 13.5457 9.41908 13.5222 9.4057 13.4991L9.325 13.3595C9.11718 12.9514 9 12.4894 9 12C9 10.3431 10.3431 9 12 9C13.6569 9 15 10.3431 15 12C15 12.5185 14.8685 13.0063 14.6369 13.4318Z" fill="currentColor"/>
</svg>
