<svg width="24" height="24" viewBox="0 0 24 24" fill="none" xmlns="http://www.w3.org/2000/svg">
<path fill-rule="evenodd" clip-rule="evenodd" d="M5.96294 11.7328L5.22453 16.5325C5.09072 17.4022 5.54029 18.2566 6.35633 18.586C7.81778 19.1759 10.1781 19.9966 11.9993 19.9966C13.8205 19.9966 16.1808 19.1759 17.6422 18.586C18.4583 18.2566 18.9078 17.4022 18.774 16.5325L18.0357 11.733L13.1542 13.7686C12.4152 14.0768 11.5838 14.0768 10.8449 13.7686L5.96294 11.7328ZM13.1547 12.7684C12.4157 13.0765 11.5843 13.0765 10.8454 12.7684L6.44007 11.0211C6.2757 10.9559 6.27059 10.7251 6.43192 10.6527L12.2364 8.04789C12.5409 7.91736 12.682 7.56463 12.5515 7.26005C12.421 6.95547 12.0682 6.81438 11.7637 6.94492L5.61313 9.58085C5.39204 9.70399 5.16676 9.84755 5 9.99658C3.99054 10.8987 3.75046 12.7467 3.75046 13.2303C3.75046 13.9055 3.94442 14.568 4.08983 15.0646C4.14087 15.2389 4.18593 15.3928 4.21451 15.5196C4.43451 16.4649 4.58232 17.7849 4.2867 19.2561C4.2592 19.4039 4.16983 19.5345 4.04264 19.6136C3.91546 19.6927 3.76078 19.7202 3.6164 19.6823L1.41646 19.1324C1.23771 19.0877 1.09334 18.9571 1.03147 18.7817C0.969592 18.6064 1.00053 18.4139 1.11053 18.2661C1.40614 17.8605 1.66051 17.4205 1.88395 16.9737C2.27925 16.1796 2.65049 15.1725 2.65049 14.1962C2.65049 14.1962 2.62569 13.6067 2.65049 13.2303C2.71318 12.2789 3.48245 10.573 3.83068 9.84322L1.61512 8.91931C1.22654 8.75727 0.981068 8.36919 1.00115 7.94866C1.02122 7.52812 1.30255 7.1652 1.7048 7.04091L11.1144 4.13355C11.6913 3.95528 12.3087 3.95528 12.8856 4.13355L22.2952 7.04091C22.6975 7.1652 22.9788 7.52812 22.9989 7.94866C23.0189 8.36919 22.7735 8.75727 22.3849 8.91931L17.7698 10.8439L13.1547 12.7684Z" fill="currentColor"/>
</svg>
