<svg width="24" height="24" viewBox="0 0 24 24" fill="none" xmlns="http://www.w3.org/2000/svg">
<path fill-rule="evenodd" clip-rule="evenodd" d="M18 7C16.8954 7 16 7.89543 16 9C16 10.1046 16.8954 11 18 11C19.1046 11 20 10.1046 20 9C20 7.89543 19.1046 7 18 7ZM12 7C10.8954 7 10 7.89543 10 9C10 10.1046 10.8954 11 12 11C13.1046 11 14 10.1046 14 9C14 7.89543 13.1046 7 12 7ZM4 9C4 7.89543 4.89543 7 6 7C7.10457 7 8 7.89543 8 9C8 10.1046 7.10457 11 6 11C4.89543 11 4 10.1046 4 9ZM18 13C16.8954 13 16 13.8954 16 15C16 16.1046 16.8954 17 18 17C19.1046 17 20 16.1046 20 15C20 13.8954 19.1046 13 18 13ZM12 13C10.8954 13 10 13.8954 10 15C10 16.1046 10.8954 17 12 17C13.1046 17 14 16.1046 14 15C14 13.8954 13.1046 13 12 13ZM4 15C4 13.8954 4.89543 13 6 13C7.10457 13 8 13.8954 8 15C8 16.1046 7.10457 17 6 17C4.89543 17 4 16.1046 4 15Z" fill="currentColor"/>
</svg>
