<svg width="24" height="24" viewBox="0 0 24 24" fill="none" xmlns="http://www.w3.org/2000/svg">
<path d="M5 12C5.94781 12 6.73909 12.6599 6.94531 13.5449L8.5459 12.876C8.56085 12.8693 8.5812 12.8607 8.60645 12.8496C8.66091 12.8256 8.73858 12.7919 8.83398 12.752C9.02421 12.6723 9.28898 12.5651 9.58789 12.458C10.1409 12.2598 10.9682 12 11.6436 12C12.1226 12 12.5993 12.0571 13.0645 12.1699L15.4502 12.75L15.6582 12.8096C16.6449 13.1377 17.3508 14.0311 17.4023 15.0859L18.8877 14.0029L19.084 13.873C20.0832 13.2747 21.3859 13.41 22.2354 14.2363L22.4141 14.4297C23.2502 15.4282 23.191 16.9084 22.2344 17.8379L22.2354 17.8389L20.0771 19.9375C19.4455 20.5518 18.6643 20.9932 17.8135 21.2236L17.4443 21.3096L14.3945 21.9033C13.7422 22.03 13.0714 22.0321 12.4189 21.9102L12.1406 21.8506L9.38281 21.1807L9.38086 21.1797C9.12983 21.1181 8.87121 21.0869 8.61035 21.0869H6.99512C6.94955 22.1511 6.07541 23 5 23H3C1.89543 23 1 22.1046 1 21V14C1 12.8954 1.89543 12 3 12H5ZM3 21H5V14H3V21ZM11.6436 14C11.3541 14 10.8241 14.1396 10.2627 14.3408C10.0049 14.4332 9.77364 14.5267 9.60645 14.5967C9.52315 14.6316 9.45594 14.66 9.41113 14.6797C9.38892 14.6895 9.37211 14.6973 9.36133 14.7021C9.35598 14.7046 9.35188 14.706 9.34961 14.707L9.34766 14.708C9.33771 14.7126 9.32747 14.7175 9.31738 14.7217L7 15.6904V19.0869H8.61035C9.03012 19.0869 9.44863 19.1369 9.85742 19.2373L12.6133 19.9072L12.7861 19.9443C13.1906 20.0199 13.6069 20.0183 14.0127 19.9395L17.0615 19.3467L17.291 19.293C17.8184 19.1501 18.2983 18.8777 18.6826 18.5039L20.8408 16.4053L20.9102 16.3223C21.0292 16.1492 21.0297 15.9271 20.9102 15.7529L20.8408 15.6699C20.663 15.4969 20.3842 15.455 20.1592 15.5625L20.0664 15.6182L17.5518 17.4531C17.0181 17.8429 16.373 18.0498 15.7139 18.0498H13.2852C12.733 18.0496 12.2852 17.602 12.2852 17.0498C12.2852 16.5319 12.6792 16.1057 13.1836 16.0547L13.2852 16.0498H14.8311C15.1761 16.0498 15.4082 15.7849 15.4082 15.5156V15.209C15.4081 14.9835 15.2478 14.7586 14.9785 14.6934L12.5928 14.1133C12.2818 14.0379 11.9635 14 11.6436 14ZM19.75 1C21.1 1.00001 22 2.00736 22 3.25C22 6.21245 19.5919 8.62365 18.2988 9.70508C17.8298 10.0972 17.1702 10.0972 16.7012 9.70508C15.4081 8.62365 13 6.21245 13 3.25C13 2.00736 13.9 1 15.25 1C16.5891 1.00001 17.4856 2.32814 17.5 2.34961C17.5148 2.32762 18.4112 1 19.75 1Z" fill="currentColor"/>
</svg>
