<svg width="24" height="24" viewBox="0 0 24 24" fill="none" xmlns="http://www.w3.org/2000/svg">
<path fill-rule="evenodd" clip-rule="evenodd" d="M16.8628 8.11215C15.4421 6.9533 14.0055 5.9234 12.6029 5.66176C12.4216 5.62795 12.1706 5.6965 11.9238 5.93321L9.55125 8.20925C9.32158 8.44391 9.32313 8.82033 9.55589 9.05309C9.7902 9.2874 10.1701 9.2874 10.4044 9.05309L12.3843 7.07319C12.6967 6.76077 13.2033 6.76077 13.5157 7.07319C13.8281 7.38561 13.8281 7.89214 13.5157 8.20456L13.2392 8.48102L18.5147 13.754C18.7464 13.9857 18.9156 14.2562 19.0224 14.5446L19.5508 14.459V10.2237C19.3108 10.0705 19.0747 9.90015 18.8463 9.72684C18.4323 9.41265 17.9814 9.03808 17.5237 8.65786C17.3039 8.47525 17.0824 8.2913 16.8628 8.11215ZM11.5358 10.1845L12.1079 9.61239L17.3833 14.8853C17.6177 15.1197 17.6177 15.4996 17.3833 15.7339C17.149 15.9682 16.7691 15.9682 16.5348 15.7339L15.6232 14.8222C15.6061 14.8039 15.5886 14.7859 15.5708 14.7681L15.5699 14.7689L12.9286 12.1276C12.6162 11.8152 12.1096 11.8152 11.7972 12.1276C11.4848 12.4401 11.4848 12.9466 11.7972 13.259L14.4663 15.9281C14.6734 16.1638 14.6644 16.523 14.4394 16.7479C14.2051 16.9823 13.8252 16.9823 13.5909 16.7479L10.951 14.1081C10.6386 13.7957 10.1321 13.7957 9.81965 14.1081C9.50723 14.4205 9.50723 14.927 9.81965 15.2395L11.7525 17.1723C11.9868 17.4066 11.9862 17.7871 11.7519 18.0214C11.5176 18.2557 11.1377 18.2557 10.9034 18.0214L9.15322 16.2712L9.13535 16.2531L8.26352 15.3815C7.9511 15.0691 7.44457 15.0691 7.13215 15.3815C6.81973 15.6939 6.81973 16.2005 7.13215 16.5129L8.01324 17.394C8.23825 17.629 8.23516 18.0019 8.00398 18.233C7.76966 18.4674 7.38976 18.4674 7.15545 18.233L4.51558 15.5932L4.44922 15.6595V10.2646C4.44922 10.1959 4.44453 10.1279 4.43536 10.061C4.73442 9.78911 5.11383 9.45439 5.49975 9.14273C5.82434 8.88059 6.13679 8.64847 6.3995 8.48573C6.53104 8.40424 6.63501 8.34963 6.71088 8.31753C6.73831 8.30593 6.75698 8.29945 6.76779 8.29604C7.07452 8.29463 7.45024 8.29426 7.80558 8.29435C7.7033 8.96291 7.90961 9.66955 8.42452 10.1845C9.28367 11.0436 10.6766 11.0436 11.5358 10.1845ZM8.81775 6.69571L10.8162 4.77859C11.3142 4.3008 12.063 3.93344 12.8963 4.08889C14.7527 4.43519 16.4817 5.73648 17.8741 6.87232C18.1219 7.07438 18.3575 7.27018 18.5836 7.45805C19.0173 7.8185 19.416 8.14981 19.7976 8.44019C19.9066 8.27451 20.0489 8.12974 20.2187 8.01649L20.7187 7.68316C21.7156 7.0186 23.0508 7.73319 23.0508 8.93123V15.3033C23.0508 16.3271 22.0477 17.0501 21.0764 16.7263L20.5764 16.5596C20.2777 16.46 20.0263 16.2726 19.8472 16.0318L18.9837 16.1718C18.8766 16.4237 18.7202 16.6598 18.5147 16.8652C17.8327 17.5472 16.8144 17.6879 15.9936 17.2871C15.8894 17.5011 15.7485 17.7016 15.5708 17.8793C14.9741 18.476 14.12 18.6583 13.3661 18.4262C13.2587 18.6906 13.0977 18.9383 12.8833 19.1528C12.0241 20.0119 10.6312 20.0119 9.77202 19.1528L9.50098 18.8817C9.40427 19.0547 9.28239 19.2174 9.13535 19.3644C8.2762 20.2236 6.88323 20.2236 6.02408 19.3644L3.93069 17.271C3.78521 17.397 3.61402 17.4961 3.42356 17.5596L2.92356 17.7263C1.95226 18.0501 0.949219 17.3271 0.949219 16.3033V9.93123C0.949219 8.73319 2.28444 8.0186 3.28127 8.68316L3.4494 8.79525C3.74985 8.52414 4.11756 8.20236 4.49449 7.89796C4.84122 7.61794 5.21253 7.3389 5.5569 7.12557C5.7289 7.01902 5.90929 6.91936 6.08748 6.84398C6.25337 6.77379 6.47937 6.69744 6.72528 6.69623C7.1535 6.69411 7.72325 6.6941 8.18475 6.69462C8.41576 6.69487 8.6201 6.69526 8.7667 6.69559L8.81775 6.69571Z" fill="currentColor"/>
</svg>
