<svg width="24" height="24" viewBox="0 0 24 24" fill="none" xmlns="http://www.w3.org/2000/svg">
<path fill-rule="evenodd" clip-rule="evenodd" d="M10.9764 3.2169C11.0962 2.67777 10.7563 2.14359 10.2171 2.02378C9.67801 1.90398 9.14383 2.24391 9.02403 2.78304L8.08693 7H3C2.44772 7 2 7.44772 2 8C2 8.55228 2.44772 9 3 9H7.64248L6.30915 15H3C2.44772 15 2 15.4477 2 16C2 16.5523 2.44772 17 3 17H5.8647L5.02403 20.783C4.90422 21.3222 5.24415 21.8563 5.78328 21.9762C6.32242 22.096 6.85659 21.756 6.9764 21.2169L7.91349 17H13.8647L13.024 20.783C12.9042 21.3222 13.2442 21.8563 13.7833 21.9762C14.3224 22.096 14.8566 21.756 14.9764 21.2169L15.9135 17H21C21.5523 17 22 16.5523 22 16C22 15.4477 21.5523 15 21 15H16.3579L17.6913 9H21C21.5523 9 22 8.55228 22 8C22 7.44772 21.5523 7 21 7H18.1357L18.9764 3.2169C19.0962 2.67777 18.7563 2.14359 18.2171 2.02378C17.678 1.90398 17.1438 2.24391 17.024 2.78304L16.0869 7H10.1357L10.9764 3.2169ZM14.3091 15L15.6425 9H9.69127L8.35793 15H14.3091Z" fill="currentColor"/>
</svg>
