<svg width="24" height="24" viewBox="0 0 24 24" fill="none" xmlns="http://www.w3.org/2000/svg">
<path fill-rule="evenodd" clip-rule="evenodd" d="M12 1C5.92487 1 1 5.92487 1 12C1 18.0751 5.92487 23 12 23C18.0751 23 23 18.0751 23 12C23 5.92487 18.0751 1 12 1ZM14.25 7.5C12.9 7.5 12 8.85 12 8.85C12 8.85 11.1 7.5 9.74999 7.5C8.4 7.5 7.5 8.50736 7.5 9.75C7.5 12.7124 9.90771 15.1238 11.2008 16.2052C11.6699 16.5975 12.3301 16.5975 12.7992 16.2052C14.0923 15.1238 16.5 12.7124 16.5 9.75C16.5 8.50736 15.6 7.5 14.25 7.5Z" fill="currentColor"/>
</svg>
