<svg width="24" height="24" viewBox="0 0 24 24" fill="none" xmlns="http://www.w3.org/2000/svg">
<path fill-rule="evenodd" clip-rule="evenodd" d="M8.19918 3.62613C8.26973 3.5079 8.34772 3.38495 8.43347 3.25971C8.95927 2.49175 9.84986 1.53325 11.2004 1.17137C13.8125 0.471465 16.1139 1.98946 16.7538 4.37761C17.2493 6.22655 17.1513 8.07026 16.7667 9.7539C16.795 9.84107 16.8207 9.92625 16.8442 10.0089C16.9776 9.9752 17.1197 9.94341 17.2689 9.91549C18.1837 9.74426 19.4912 9.69624 20.7021 10.3953C23.0441 11.7475 23.598 14.4482 22.3618 16.5893C21.0609 18.8426 18.9916 20.3138 16.9736 21.2727C14.9521 22.2333 12.9105 22.7144 11.5565 22.9504C10.1376 23.1978 8.77555 22.4114 8.28031 21.0589C7.83325 19.838 7.26847 17.9745 7.05737 15.8881C6.42977 15.4766 5.78467 15.0054 5.15892 14.4726C3.45787 13.024 1.83983 11.0674 1.16643 8.55424C0.526537 6.16612 1.76062 3.70076 4.37266 3.00086C5.72321 2.63898 6.97373 3.02378 7.81307 3.42594C7.94995 3.49153 8.07897 3.55901 8.19918 3.62613ZM6.99821 13.3911C7.09618 11.763 7.48836 10.0764 8.38655 8.52071C9.62273 6.37958 12.2386 5.50894 14.5805 6.86103C14.7631 6.96647 14.9322 7.08232 15.0886 7.20604C15.1062 6.43385 15.0266 5.65853 14.8221 4.89519C14.4516 3.51245 13.2028 2.70536 11.7181 3.10317C11.0204 3.29014 10.4784 3.81318 10.0838 4.38955C9.89235 4.66917 9.75273 4.93697 9.66164 5.13406C9.61646 5.23182 9.5842 5.31005 9.56424 5.36089C9.55429 5.38625 9.54747 5.4046 9.5437 5.41496L9.54039 5.42419C9.43253 5.7392 9.17489 5.98002 8.85311 6.06625C8.53134 6.15247 8.18785 6.07278 7.93694 5.85391L7.9294 5.84752C7.92096 5.84044 7.90587 5.82795 7.88457 5.81096C7.84188 5.77692 7.77482 5.72529 7.68681 5.66322C7.50937 5.53808 7.25454 5.37597 6.94893 5.22954C6.31898 4.9277 5.58813 4.7457 4.89037 4.93266C3.40579 5.33046 2.72786 6.65381 3.09836 8.03655C3.63038 10.0221 4.93522 11.6551 6.45567 12.9498C6.63472 13.1023 6.81594 13.2494 6.99821 13.3911ZM13.5806 8.5931C12.2496 7.82462 10.8344 8.281 10.1187 9.52073C9.09091 11.3009 8.85887 13.3783 9.01846 15.3689C9.17774 17.3557 9.72135 19.1775 10.1585 20.3712C10.321 20.8151 10.7475 21.0613 11.2132 20.9802C12.4655 20.7619 14.3151 20.3217 16.1153 19.4663C17.9191 18.6092 19.6021 17.3695 20.6299 15.5894C21.3456 14.3496 21.0333 12.8959 19.7022 12.1274C19.0766 11.7662 18.3236 11.7529 17.637 11.8814C17.3039 11.9437 17.0158 12.0343 16.812 12.1093C16.7109 12.1465 16.6328 12.179 16.5827 12.2008C16.5578 12.2117 16.54 12.2199 16.53 12.2245L16.5211 12.2287C16.2221 12.3752 15.8696 12.3633 15.5811 12.1967C15.2926 12.0302 15.1061 11.731 15.0834 11.3988L15.0826 11.3889C15.0817 11.3779 15.0798 11.3584 15.0768 11.3314C15.0707 11.2771 15.0597 11.1932 15.0414 11.0871C15.0044 10.8731 14.9389 10.5783 14.8263 10.2586C14.5943 9.59976 14.2062 8.95428 13.5806 8.5931Z" fill="currentColor"/>
</svg>
