<svg width="24" height="24" viewBox="0 0 24 24" fill="none" xmlns="http://www.w3.org/2000/svg">
<path fill-rule="evenodd" clip-rule="evenodd" d="M4 7.5C4 5.53515 5.38362 4 7.49997 4C8.51205 4 9.41231 4.5098 10.1117 5.10926C10.4535 5.40223 10.724 5.69719 10.9083 5.91831C10.9999 6.02821 11.0687 6.11806 11.1128 6.17784C11.1348 6.20768 11.1506 6.22987 11.1599 6.24314L11.1687 6.25584C11.3542 6.53336 11.6661 6.7 12 6.7C12.3333 6.7 12.6447 6.53388 12.8304 6.25715C12.8302 6.25738 12.8305 6.25692 12.8304 6.25715C12.8305 6.2569 12.8312 6.25596 12.8313 6.25571L12.8401 6.24313C12.8494 6.22986 12.8651 6.20767 12.8872 6.17783C12.9313 6.11805 13.0001 6.0282 13.0916 5.91831C13.2759 5.69719 13.5465 5.40222 13.8883 5.10926C14.5876 4.50981 15.4879 4 16.5 4C18.6164 4 20 5.53515 20 7.5C20 10.1918 18.9035 12.6839 17.4418 14.804C15.9824 16.9209 14.2033 18.6016 12.9505 19.6486C12.3874 20.1193 11.6126 20.1193 11.0494 19.6486C9.79673 18.6016 8.01758 16.9209 6.55816 14.804C5.09651 12.6839 4 10.1918 4 7.5ZM12.8313 6.25571C12.8312 6.25588 12.8315 6.25555 12.8313 6.25571V6.25571ZM12.5867 3.59074C12.3669 3.77915 12.1708 3.96708 12 4.14337C11.8292 3.96708 11.6331 3.77915 11.4133 3.59074C10.5376 2.8402 9.18787 2 7.49997 2C4.21638 2 2 4.4943 2 7.5C2 10.7381 3.31527 13.6238 4.91156 15.9392C6.51006 18.2578 8.43499 20.0701 9.76686 21.1832C11.0725 22.2745 12.9275 22.2745 14.2331 21.1832C15.565 20.0701 17.4899 18.2578 19.0884 15.9392C20.6847 13.6239 22 10.7381 22 7.5C22 4.49427 19.7836 2 16.5 2C14.8121 2 13.4623 2.84019 12.5867 3.59074ZM13.9138 7.59387C13.7448 7.21355 13.3579 6.97768 12.9424 7.00167C12.5269 7.02566 12.1697 7.30449 12.0455 7.70174L10.3529 13.1182L9.91915 12.1061C9.76157 11.7384 9.40003 11.5 9 11.5H7.5C6.94772 11.5 6.5 11.9477 6.5 12.5C6.5 13.0523 6.94772 13.5 7.5 13.5H8.3406L9.58085 16.3939C9.74576 16.7787 10.1329 17.0201 10.551 16.9987C10.9691 16.9774 11.3296 16.6979 11.4545 16.2983L13.1634 10.8298L14.0862 12.9061C14.2467 13.2673 14.6048 13.5 15 13.5H16.5C17.0523 13.5 17.5 13.0523 17.5 12.5C17.5 11.9477 17.0523 11.5 16.5 11.5H15.6499L13.9138 7.59387Z" fill="currentColor"/>
</svg>
