<svg width="24" height="24" viewBox="0 0 24 24" fill="none" xmlns="http://www.w3.org/2000/svg">
<path fill-rule="evenodd" clip-rule="evenodd" d="M12.5867 3.59074C12.3669 3.77915 12.1708 3.96708 12 4.14337C11.8292 3.96708 11.6331 3.77915 11.4133 3.59074C10.5376 2.8402 9.18787 2 7.49997 2C4.21638 2 2 4.4943 2 7.5C2 10.7381 3.31527 13.6238 4.91156 15.9392C6.51006 18.2578 8.43499 20.0701 9.76686 21.1832C11.0725 22.2745 12.9275 22.2745 14.2331 21.1832C15.565 20.0701 17.4899 18.2578 19.0884 15.9392C20.6847 13.6239 22 10.7381 22 7.5C22 4.49427 19.7836 2 16.5 2C14.8121 2 13.4623 2.84019 12.5867 3.59074Z" fill="currentColor"/>
</svg>
