<svg width="24" height="24" viewBox="0 0 24 24" fill="none" xmlns="http://www.w3.org/2000/svg">
<path fill-rule="evenodd" clip-rule="evenodd" d="M3 12C3 7.02944 7.02944 3 12 3C16.9706 3 21 7.02944 21 12C21 16.9706 16.9706 21 12 21C7.02944 21 3 16.9706 3 12ZM12 1C5.92487 1 1 5.92487 1 12C1 18.0751 5.92487 23 12 23C18.0751 23 23 18.0751 23 12C23 5.92487 18.0751 1 12 1ZM12 8.85C12 8.85 12.9 7.5 14.25 7.5C15.6 7.5 16.5 8.50736 16.5 9.75C16.5 12.7124 14.0923 15.1238 12.7992 16.2052C12.3301 16.5975 11.6699 16.5975 11.2008 16.2052C9.90771 15.1238 7.5 12.7124 7.5 9.75C7.5 8.50736 8.4 7.5 9.74999 7.5C11.1 7.5 12 8.85 12 8.85Z" fill="currentColor"/>
</svg>
