<svg width="24" height="24" viewBox="0 0 24 24" fill="none" xmlns="http://www.w3.org/2000/svg">
<path fill-rule="evenodd" clip-rule="evenodd" d="M5 2C3.34315 2 2 3.34315 2 5V19C2 20.6569 3.34315 22 5 22H19C20.6569 22 22 20.6569 22 19V5C22 3.34315 20.6569 2 19 2H5ZM4 5C4 4.44772 4.44772 4 5 4H19C19.5523 4 20 4.44772 20 5V19C20 19.5523 19.5523 20 19 20H5C4.44772 20 4 19.5523 4 19V5ZM12 8.85C12 8.85 12.9 7.5 14.25 7.5C15.6 7.5 16.5 8.50736 16.5 9.75C16.5 12.7124 14.0923 15.1238 12.7992 16.2052C12.3301 16.5975 11.6699 16.5975 11.2008 16.2052C9.90771 15.1238 7.5 12.7124 7.5 9.75C7.5 8.50736 8.4 7.5 9.74999 7.5C11.1 7.5 12 8.85 12 8.85Z" fill="currentColor"/>
</svg>
