<svg width="24" height="24" viewBox="0 0 24 24" fill="none" xmlns="http://www.w3.org/2000/svg">
<path fill-rule="evenodd" clip-rule="evenodd" d="M7.49997 4C5.38362 4 4 5.53515 4 7.5C4 10.1918 5.09651 12.6839 6.55816 14.804C8.01758 16.9209 9.79673 18.6016 11.0494 19.6486C11.6126 20.1193 12.3874 20.1193 12.9505 19.6486C14.2033 18.6016 15.9824 16.9209 17.4418 14.804C18.9035 12.6839 20 10.1918 20 7.5C20 5.53515 18.6164 4 16.5 4C15.4879 4 14.5876 4.50981 13.8883 5.10926C13.5465 5.40222 13.2759 5.69719 13.0916 5.91831C13.0001 6.0282 12.9313 6.11805 12.8872 6.17783C12.8651 6.20767 12.8494 6.22986 12.8401 6.24313L12.8311 6.25614L12.8317 6.25523C12.6462 6.53311 12.3341 6.7 12 6.7C11.6661 6.7 11.3542 6.53336 11.1687 6.25584C11.1686 6.25579 11.1687 6.2559 11.1687 6.25584L11.1599 6.24314C11.1506 6.22987 11.1348 6.20768 11.1128 6.17784C11.0687 6.11806 10.9999 6.02821 10.9083 5.91831C10.724 5.69719 10.4535 5.40223 10.1117 5.10926C9.41231 4.5098 8.51205 4 7.49997 4ZM11.1687 6.25584C11.1694 6.25683 11.1698 6.25753 11.1697 6.2573L11.1687 6.25584ZM12 4.14337C12.1708 3.96708 12.3669 3.77915 12.5867 3.59074C13.4623 2.84019 14.8121 2 16.5 2C19.7836 2 22 4.49427 22 7.5C22 10.7381 20.6847 13.6239 19.0884 15.9392C17.4899 18.2578 15.565 20.0701 14.2331 21.1832C12.9275 22.2745 11.0725 22.2745 9.76686 21.1832C8.43499 20.0701 6.51006 18.2578 4.91156 15.9392C3.31527 13.6238 2 10.7381 2 7.5C2 4.4943 4.21638 2 7.49997 2C9.18787 2 10.5376 2.8402 11.4133 3.59074C11.6331 3.77915 11.8292 3.96708 12 4.14337Z" fill="currentColor"/>
</svg>
