<svg width="24" height="24" viewBox="0 0 24 24" fill="none" xmlns="http://www.w3.org/2000/svg">
<path fill-rule="evenodd" clip-rule="evenodd" d="M11.3357 2.25259C11.7146 1.9158 12.2855 1.9158 12.6644 2.25259L21.6644 10.2526C21.9747 10.5284 22.0823 10.9673 21.9348 11.3554C21.7872 11.7435 21.4152 12 21 12H20V19C20 20.6569 18.6569 22 17 22H15C14.4477 22 14 21.5523 14 21V18C14 16.8954 13.1046 16 12 16C10.8954 16 10 16.8954 10 18V21C10 21.5523 9.55228 22 9 22H7C5.34315 22 4 20.6569 4 19V12H3.00004C2.58486 12 2.21287 11.7435 2.06532 11.3554C1.91777 10.9673 2.02537 10.5284 2.33568 10.2526L11.3357 2.25259Z" fill="currentColor"/>
</svg>
