<svg width="24" height="24" viewBox="0 0 24 24" fill="none" xmlns="http://www.w3.org/2000/svg">
<path fill-rule="evenodd" clip-rule="evenodd" d="M4.74999 4C5.49929 4 6.09729 4.32249 6.49998 4.62875C6.90268 4.32249 7.50068 4 8.24999 4C9.8836 4 11 5.26306 11 6.75C11 8.7 9.92313 10.2495 8.97414 11.2459C8.48919 11.7551 8.00724 12.1524 7.64687 12.4227C7.46589 12.5584 7.31343 12.6637 7.20372 12.7366C7.1488 12.7731 7.10442 12.8015 7.07234 12.8217L7.0336 12.8459L7.02151 12.8533L7.01736 12.8558L7.01449 12.8575C6.69781 13.0475 6.30219 13.0475 5.9855 12.8575L5.98423 12.8567L5.98264 12.8558L5.97848 12.8533L5.9664 12.8459L5.92765 12.8217C5.89557 12.8015 5.8512 12.7731 5.79628 12.7366C5.68657 12.6637 5.53411 12.5584 5.35312 12.4227C4.99276 12.1524 4.51081 11.7551 4.02586 11.2459C3.07687 10.2495 2 8.7 2 6.75C2 5.26308 3.11638 4 4.74999 4ZM17.5 13C19.9853 13 22 10.9853 22 8.5C22 6.01472 19.9853 4 17.5 4C15.0147 4 13 6.01472 13 8.5C13 10.9853 15.0147 13 17.5 13ZM15.909 8.23477C16.3475 8.23477 16.7031 7.87923 16.7031 7.44065C16.7031 7.00207 16.3475 6.64653 15.909 6.64653C15.4704 6.64653 15.1148 7.00207 15.1148 7.44065C15.1148 7.87923 15.4704 8.23477 15.909 8.23477ZM19.0853 8.23477C19.5239 8.23477 19.8794 7.87923 19.8794 7.44065C19.8794 7.00207 19.5239 6.64653 19.0853 6.64653C18.6467 6.64653 18.2912 7.00207 18.2912 7.44065C18.2912 7.87923 18.6467 8.23477 19.0853 8.23477ZM16.0798 9.78791C15.916 9.5503 15.5912 9.48734 15.3503 9.64798C15.107 9.81017 15.0413 10.1389 15.2034 10.3821L15.2041 10.3832L15.2049 10.3843L15.2065 10.3867L15.2105 10.3925L15.221 10.4074C15.2293 10.4187 15.2399 10.433 15.253 10.4497C15.2792 10.483 15.3155 10.5263 15.3625 10.5761C15.4563 10.6755 15.594 10.8017 15.7804 10.926C16.1578 11.1776 16.722 11.412 17.4969 11.412C18.2718 11.412 18.836 11.1776 19.2133 10.926C19.3998 10.8017 19.5374 10.6755 19.6313 10.5761C19.6783 10.5263 19.7146 10.483 19.7408 10.4497C19.7539 10.433 19.7645 10.4187 19.7727 10.4074L19.7833 10.3925L19.7872 10.3867L19.7889 10.3843L19.7896 10.3832L19.7903 10.3821C19.9525 10.1389 19.8868 9.81017 19.6435 9.64798C19.4025 9.48734 19.0778 9.5503 18.914 9.78791L18.9082 9.79552C18.9003 9.80559 18.8849 9.82435 18.8615 9.84905C18.8148 9.89856 18.7373 9.97083 18.626 10.045C18.4078 10.1905 18.0455 10.3532 17.4969 10.3532C16.9482 10.3532 16.586 10.1905 16.3678 10.045C16.2564 9.97083 16.179 9.89856 16.1322 9.84905C16.1089 9.82435 16.0935 9.80559 16.0856 9.79552L16.0798 9.78791ZM6 20C7.10457 20 8 19.1046 8 18C8 16.8954 7.10457 16 6 16C4.89543 16 4 16.8954 4 18C4 19.1046 4.89543 20 6 20ZM12 20C13.1046 20 14 19.1046 14 18C14 16.8954 13.1046 16 12 16C10.8954 16 10 16.8954 10 18C10 19.1046 10.8954 20 12 20ZM20 18C20 19.1046 19.1046 20 18 20C16.8954 20 16 19.1046 16 18C16 16.8954 16.8954 16 18 16C19.1046 16 20 16.8954 20 18Z" fill="currentColor"/>
</svg>
