<svg width="24" height="24" viewBox="0 0 24 24" fill="none" xmlns="http://www.w3.org/2000/svg">
<path fill-rule="evenodd" clip-rule="evenodd" d="M6 1C3.79086 1 2 2.79086 2 5C2 6.67869 3.03408 8.11585 4.5 8.70924V11V15H4C2.89543 15 2 15.8954 2 17V21C2 22.1046 2.89543 23 4 23H8C9.10457 23 10 22.1046 10 21V17C10 15.8954 9.10457 15 8 15H7.5V12.5H16.5V15H16C14.8954 15 14 15.8954 14 17V21C14 22.1046 14.8954 23 16 23H20C21.1046 23 22 22.1046 22 21V17C22 15.8954 21.1046 15 20 15H19.5V11C19.5 10.1716 18.8284 9.5 18 9.5H7.5V8.70924C8.96592 8.11585 10 6.67869 10 5C10 2.79086 8.20914 1 6 1ZM8.33386 17.3972C8.61788 17.6812 8.61788 18.1417 8.33386 18.4257L6.15204 20.6075C5.86803 20.8916 5.40754 20.8916 5.12352 20.6075L4.03262 19.5166C3.7486 19.2326 3.7486 18.7721 4.03262 18.4881C4.31663 18.2041 4.77712 18.2041 5.06113 18.4881L5.63778 19.0648L7.30534 17.3972C7.58936 17.1132 8.04984 17.1132 8.33386 17.3972ZM16.9744 19.0042L16.2016 19.777C15.9175 20.061 15.9175 20.5215 16.2016 20.8055C16.4856 21.0895 16.9461 21.0895 17.2301 20.8055L18.0029 20.0327L18.7758 20.8055C19.0598 21.0895 19.5203 21.0895 19.8043 20.8055C20.0883 20.5215 20.0883 20.061 19.8043 19.777L19.0314 19.0042L19.8014 18.2342C20.0854 17.9502 20.0854 17.4897 19.8014 17.2057C19.5174 16.9217 19.0569 16.9217 18.7729 17.2057L18.0029 17.9756L17.233 17.2057C16.949 16.9217 16.4885 16.9217 16.2045 17.2057C15.9205 17.4897 15.9205 17.9502 16.2045 18.2342L16.9744 19.0042Z" fill="currentColor"/>
</svg>
