<svg width="24" height="24" viewBox="0 0 24 24" fill="none" xmlns="http://www.w3.org/2000/svg">
<path fill-rule="evenodd" clip-rule="evenodd" d="M1 6C1 4.34315 2.34315 3 4 3H20C21.6569 3 23 4.34315 23 6V18C23 19.6569 21.6569 21 20 21H4C2.34315 21 1 19.6569 1 18V6ZM14 8C14 7.44771 14.4477 7 15 7H20C20.5523 7 21 7.44771 21 8C21 8.55229 20.5523 9 20 9H15C14.4477 9 14 8.55229 14 8ZM15 11C14.4477 11 14 11.4477 14 12C14 12.5523 14.4477 13 15 13H20C20.5523 13 21 12.5523 21 12C21 11.4477 20.5523 11 20 11H15ZM14 16C14 15.4477 14.4477 15 15 15H20C20.5523 15 21 15.4477 21 16C21 16.5523 20.5523 17 20 17H15C14.4477 17 14 16.5523 14 16ZM3.07567 14.4001L6.26327 10.1499C6.41325 9.94997 6.71321 9.94997 6.86319 10.1499L8.54906 12.3978L9.20946 11.4834C9.35912 11.2761 9.66773 11.2761 9.81739 11.4834L11.9278 14.4055C12.1069 14.6535 11.9297 15 11.6239 15H9.75083H7.40299H3.37563C3.06665 15 2.89028 14.6473 3.07567 14.4001ZM10.9382 9.09375C10.9382 9.69781 10.4485 10.1875 9.84448 10.1875C9.24042 10.1875 8.75073 9.69781 8.75073 9.09375C8.75073 8.48969 9.24042 8 9.84448 8C10.4485 8 10.9382 8.48969 10.9382 9.09375Z" fill="currentColor"/>
</svg>
