<svg width="24" height="24" viewBox="0 0 24 24" fill="none" xmlns="http://www.w3.org/2000/svg">
<path fill-rule="evenodd" clip-rule="evenodd" d="M1 6C1 4.34315 2.34315 3 4 3H20C21.6569 3 23 4.34315 23 6V18C23 19.6569 21.6569 21 20 21H4C2.34315 21 1 19.6569 1 18V6ZM3 17C3 16.4477 3.44772 16 4 16H20C20.5523 16 21 16.4477 21 17C21 17.5523 20.5523 18 20 18H4C3.44772 18 3 17.5523 3 17ZM7.10188 13.2021L10.5593 8.54134C10.7592 8.27186 11.1625 8.27186 11.3624 8.54134L13.1846 10.9978L13.8479 10.0693C14.0473 9.79015 14.4622 9.79015 14.6616 10.0693L16.9045 13.2091C17.1409 13.54 16.9043 13.9997 16.4976 13.9997H14.4348L14.4182 14H7.50345C7.09264 14 6.85713 13.532 7.10188 13.2021ZM14.6602 8.49999C15.343 8.49999 15.8965 7.94035 15.8965 7.25C15.8965 6.55964 15.343 6 14.6602 6C13.9774 6 13.4238 6.55964 13.4238 7.25C13.4238 7.94035 13.9774 8.49999 14.6602 8.49999Z" fill="currentColor"/>
</svg>
