<svg width="24" height="24" viewBox="0 0 24 24" fill="none" xmlns="http://www.w3.org/2000/svg">
<path fill-rule="evenodd" clip-rule="evenodd" d="M3 12C3 7.02944 7.02944 3 12 3C16.9706 3 21 7.02944 21 12C21 16.9706 16.9706 21 12 21C7.02944 21 3 16.9706 3 12ZM12 1C5.92487 1 1 5.92487 1 12C1 18.0751 5.92487 23 12 23C18.0751 23 23 18.0751 23 12C23 5.92487 18.0751 1 12 1ZM13 10.5C13 9.94771 12.5523 9.5 12 9.5H10.5C9.94771 9.5 9.5 9.94771 9.5 10.5C9.5 11.0523 9.94771 11.5 10.5 11.5H11V17C11 17.5523 11.4477 18 12 18C12.5523 18 13 17.5523 13 17V10.5ZM13 7C13 7.55228 12.5523 8 12 8C11.4477 8 11 7.55228 11 7C11 6.44772 11.4477 6 12 6C12.5523 6 13 6.44772 13 7Z" fill="currentColor"/>
</svg>
