<svg width="24" height="24" viewBox="0 0 24 24" fill="none" xmlns="http://www.w3.org/2000/svg">
<path fill-rule="evenodd" clip-rule="evenodd" d="M12 23C18.0751 23 23 18.0751 23 12C23 5.92487 18.0751 1 12 1C5.92487 1 1 5.92487 1 12C1 18.0751 5.92487 23 12 23ZM12 8C12.5523 8 13 7.55228 13 7C13 6.44772 12.5523 6 12 6C11.4477 6 11 6.44772 11 7C11 7.55228 11.4477 8 12 8ZM13 10.5C13 9.94772 12.5523 9.5 12 9.5H10.5C9.94771 9.5 9.5 9.94772 9.5 10.5C9.5 11.0523 9.94771 11.5 10.5 11.5H11V17C11 17.5523 11.4477 18 12 18C12.5523 18 13 17.5523 13 17V10.5Z" fill="currentColor"/>
</svg>
