<svg width="24" height="24" viewBox="0 0 24 24" fill="none" xmlns="http://www.w3.org/2000/svg">
<path fill-rule="evenodd" clip-rule="evenodd" d="M1 4C1 2.34315 2.34315 1 4 1H20C21.6569 1 23 2.34315 23 4V20C23 21.6569 21.6569 23 20 23H4C2.34315 23 1 21.6569 1 20V4ZM4 3C3.44772 3 3 3.44772 3 4V20C3 20.5523 3.44772 21 4 21H20C20.5523 21 21 20.5523 21 20V4C21 3.44772 20.5523 3 20 3H4ZM11.2846 10.44V11.848C11.2846 11.896 11.3086 11.9253 11.3566 11.936C11.4686 11.9573 11.6046 11.968 11.7646 11.968C12.1433 11.968 12.4206 11.8987 12.5966 11.76C12.7726 11.616 12.8606 11.3973 12.8606 11.104C12.8606 10.6133 12.4606 10.368 11.6606 10.368H11.3486C11.306 10.368 11.2846 10.392 11.2846 10.44ZM11.2846 8.152V9.328C11.2846 9.37067 11.306 9.392 11.3486 9.392H11.5486C12.3273 9.392 12.7166 9.16 12.7166 8.696C12.7166 8.25333 12.3913 8.032 11.7406 8.032C11.586 8.032 11.4553 8.04267 11.3486 8.064C11.306 8.07467 11.2846 8.104 11.2846 8.152ZM10.3966 12.936C10.2686 12.9253 10.162 12.8693 10.0766 12.768C9.9913 12.6667 9.94863 12.552 9.94863 12.424V7.576C9.94863 7.44267 9.9913 7.328 10.0766 7.232C10.1673 7.13067 10.2766 7.07467 10.4046 7.064C10.8206 7.02133 11.2286 7 11.6286 7C13.1753 7 13.9486 7.49867 13.9486 8.496C13.9486 8.832 13.8393 9.11733 13.6206 9.352C13.4073 9.58667 13.1193 9.736 12.7566 9.8C12.7513 9.8 12.7486 9.80533 12.7486 9.816C12.7486 9.82133 12.754 9.824 12.7646 9.824C13.186 9.88267 13.5193 10.0427 13.7646 10.304C14.0153 10.5653 14.1406 10.8773 14.1406 11.24C14.1406 11.832 13.9433 12.2747 13.5486 12.568C13.1593 12.856 12.546 13 11.7086 13C11.2873 13 10.85 12.9787 10.3966 12.936ZM6.54063 8.264L5.91663 10.56C5.91663 10.576 5.92196 10.592 5.93263 10.608C5.9433 10.6187 5.95663 10.624 5.97263 10.624H7.12463C7.14063 10.624 7.15396 10.6187 7.16463 10.608C7.18063 10.592 7.18596 10.576 7.18063 10.56L6.55663 8.264C6.55663 8.25867 6.55396 8.256 6.54863 8.256C6.5433 8.256 6.54063 8.25867 6.54063 8.264ZM4.32463 12.92C4.21263 12.92 4.12463 12.8747 4.06063 12.784C3.99663 12.6933 3.9833 12.5947 4.02063 12.488L5.70063 7.512C5.74863 7.384 5.82596 7.28 5.93263 7.2C6.04463 7.12 6.1673 7.08 6.30063 7.08H6.82863C6.9673 7.08 7.08996 7.12 7.19663 7.2C7.30863 7.28 7.38596 7.384 7.42863 7.512L9.11663 12.488C9.15396 12.5947 9.13796 12.6933 9.06863 12.784C9.00463 12.8747 8.91663 12.92 8.80463 12.92H8.26863C8.14063 12.92 8.02063 12.88 7.90863 12.8C7.80196 12.7147 7.72996 12.608 7.69263 12.48L7.49263 11.72C7.4873 11.6773 7.45796 11.656 7.40463 11.656H5.69263C5.64463 11.656 5.6153 11.6773 5.60463 11.72L5.40463 12.48C5.37263 12.608 5.30063 12.7147 5.18863 12.8C5.08196 12.88 4.96196 12.92 4.82863 12.92H4.32463ZM14 4.5C13.7239 4.5 13.5 4.72386 13.5 5C13.5 5.08523 13.5213 5.16548 13.5589 5.2357C13.6432 5.393 13.8091 5.5 14 5.5C14.197 5.5 14.392 5.5388 14.574 5.61418C14.756 5.68956 14.9214 5.80005 15.0607 5.93934C15.1999 6.07863 15.3104 6.24399 15.3858 6.42597C15.4612 6.60796 15.5 6.80302 15.5 7V12.9993V13.0008C15.4999 13.1975 15.4611 13.3923 15.3858 13.574C15.3104 13.756 15.1999 13.9214 15.0607 14.0607C14.9214 14.1999 14.756 14.3104 14.574 14.3858C14.392 14.4612 14.197 14.5 14 14.5C13.7239 14.5 13.5 14.7239 13.5 15C13.5 15.2761 13.7239 15.5 14 15.5C14.3283 15.5 14.6534 15.4353 14.9567 15.3097C15.26 15.1841 15.5356 14.9999 15.7678 14.7678C15.8516 14.6839 15.9292 14.5944 16 14.5C16.0708 14.5944 16.1484 14.6839 16.2322 14.7678C16.4644 14.9999 16.74 15.1841 17.0433 15.3097C17.3466 15.4353 17.6717 15.5 18 15.5C18.2761 15.5 18.5 15.2761 18.5 15C18.5 14.7239 18.2761 14.5 18 14.5C17.803 14.5 17.608 14.4612 17.426 14.3858C17.244 14.3104 17.0786 14.1999 16.9393 14.0607C16.8001 13.9214 16.6896 13.756 16.6142 13.574C16.5389 13.3923 16.5001 13.1976 16.5 13.0009V12.9995V7.00049C16.5 6.80351 16.5388 6.60796 16.6142 6.42597C16.6896 6.24399 16.8001 6.07863 16.9393 5.93934C17.0786 5.80005 17.244 5.68956 17.426 5.61418C17.608 5.5388 17.803 5.5 18 5.5C18.2761 5.5 18.5 5.27614 18.5 5C18.5 4.72386 18.2761 4.5 18 4.5C17.6717 4.5 17.3466 4.56466 17.0433 4.6903C16.74 4.81594 16.4644 5.00009 16.2322 5.23223C16.1484 5.31607 16.0708 5.40557 16 5.5C15.9292 5.40557 15.8516 5.31607 15.7678 5.23223C15.5356 5.00009 15.26 4.81594 14.9567 4.6903C14.6534 4.56466 14.3283 4.5 14 4.5Z" fill="currentColor"/>
</svg>
