<svg width="24" height="24" viewBox="0 0 24 24" fill="none" xmlns="http://www.w3.org/2000/svg">
<path fill-rule="evenodd" clip-rule="evenodd" d="M14 2C13.4477 2 13 2.44772 13 3C13 3.55228 13.4477 4 14 4C14.2626 4 14.5227 4.05173 14.7654 4.15224C15.008 4.25275 15.2285 4.40007 15.4142 4.58579C15.5999 4.7715 15.7472 4.99198 15.8478 5.23463C15.9483 5.47728 16 5.73736 16 6V6.0007V18C16 18.2626 15.9483 18.5227 15.8478 18.7654C15.7472 19.008 15.5999 19.2285 15.4142 19.4142C15.2285 19.5999 15.008 19.7472 14.7654 19.8478C14.5227 19.9483 14.2626 20 14 20C13.4477 20 13 20.4477 13 21C13 21.5523 13.4477 22 14 22C14.5253 22 15.0454 21.8965 15.5307 21.6955C16.016 21.4945 16.457 21.1999 16.8284 20.8284C16.8876 20.7693 16.9448 20.7083 17 20.6457C17.0552 20.7083 17.1124 20.7693 17.1716 20.8284C17.543 21.1999 17.984 21.4945 18.4693 21.6955C18.9546 21.8965 19.4747 22 20 22C20.5523 22 21 21.5523 21 21C21 20.4477 20.5523 20 20 20C19.7374 20 19.4773 19.9483 19.2346 19.8478C18.992 19.7472 18.7715 19.5999 18.5858 19.4142C18.4001 19.2285 18.2528 19.008 18.1522 18.7654C18.0517 18.5227 18 18.2626 18 18V6C18 5.73736 18.0517 5.47728 18.1522 5.23463C18.2528 4.99198 18.4001 4.7715 18.5858 4.58579C18.7715 4.40007 18.992 4.25275 19.2346 4.15224C19.4773 4.05173 19.7374 4 20 4C20.5523 4 21 3.55228 21 3C21 2.44772 20.5523 2 20 2C19.4747 2 18.9546 2.10346 18.4693 2.30448C17.984 2.5055 17.543 2.80014 17.1716 3.17157C17.1124 3.23073 17.0552 3.29166 17 3.35425C16.9448 3.29166 16.8876 3.23073 16.8284 3.17157C16.457 2.80014 16.016 2.5055 15.5307 2.30448C15.0454 2.10346 14.5253 2 14 2ZM15 6H3C1.89543 6 1 6.89543 1 8V16C1 17.1046 1.89543 18 3 18H15V16H3V8H15V6ZM19 18V16H21V8H19V6H21C22.1046 6 23 6.89543 23 8V16C23 17.1046 22.1046 18 21 18H19ZM7.61024 10.2164L6.96914 12.5753C6.96914 12.5918 6.97462 12.6082 6.98558 12.6247C6.99654 12.6356 7.01024 12.6411 7.02668 12.6411H8.21024C8.22668 12.6411 8.24038 12.6356 8.25133 12.6247C8.26777 12.6082 8.27325 12.5918 8.26777 12.5753L7.62668 10.2164C7.62668 10.211 7.62394 10.2082 7.61846 10.2082C7.61298 10.2082 7.61024 10.211 7.61024 10.2164ZM5.33353 15C5.21846 15 5.12805 14.9534 5.06229 14.8603C4.99654 14.7671 4.98284 14.6658 5.0212 14.5562L6.74722 9.44384C6.79654 9.31233 6.87599 9.20548 6.98558 9.12329C7.10065 9.0411 7.22668 9 7.36366 9H7.90613C8.04859 9 8.17462 9.0411 8.28421 9.12329C8.39928 9.20548 8.47873 9.31233 8.52257 9.44384L10.2568 14.5562C10.2952 14.6658 10.2787 14.7671 10.2075 14.8603C10.1417 14.9534 10.0513 15 9.93626 15H9.38558C9.25407 15 9.13079 14.9589 9.01572 14.8767C8.90613 14.789 8.83216 14.6795 8.7938 14.5479L8.58832 13.7671C8.58284 13.7233 8.5527 13.7014 8.49791 13.7014H6.73901C6.68969 13.7014 6.65955 13.7233 6.64859 13.7671L6.44311 14.5479C6.41024 14.6795 6.33627 14.789 6.2212 14.8767C6.11161 14.9589 5.98832 15 5.85133 15H5.33353Z" fill="currentColor"/>
</svg>
