<svg width="24" height="24" viewBox="0 0 24 24" fill="none" xmlns="http://www.w3.org/2000/svg">
<path fill-rule="evenodd" clip-rule="evenodd" d="M2.07695 9.37297C2.15623 9.53153 2.27875 9.64324 2.44452 9.70811C2.94902 9.9027 3.48235 10 4.04452 10C5.20488 10 6.0337 9.75135 6.531 9.25405C7.03551 8.74955 7.28776 7.88108 7.28776 6.64865V2.61622C7.28776 2.45045 7.2265 2.30631 7.10397 2.18378C6.98866 2.06126 6.84812 2 6.68235 2H6.01208C5.83911 2 5.69136 2.06126 5.56884 2.18378C5.45352 2.30631 5.39587 2.45045 5.39587 2.61622V6.43243C5.39587 6.98739 5.34542 7.41622 5.24452 7.71892C5.14361 8.02162 4.99587 8.23063 4.80127 8.34595C4.60668 8.46126 4.3328 8.51892 3.97965 8.51892C3.6337 8.51892 3.2301 8.42523 2.76884 8.23784C2.6247 8.18018 2.48055 8.18378 2.33641 8.24865C2.19947 8.31351 2.11659 8.42162 2.08776 8.57297L2.02289 8.86486C1.97965 9.03784 1.99767 9.20721 2.07695 9.37297ZM8.24384 9.70811C8.36636 9.83063 8.51051 9.89189 8.67627 9.89189H9.29249C9.45826 9.89189 9.5988 9.83063 9.71411 9.70811C9.83664 9.58559 9.8979 9.44144 9.8979 9.27568V6.75676C9.8979 6.69189 9.93033 6.65946 9.99519 6.65946H12.1682C12.3339 6.65946 12.4781 6.6018 12.6006 6.48649C12.7231 6.36396 12.7844 6.21982 12.7844 6.05405V5.88108C12.7844 5.71532 12.7231 5.57477 12.6006 5.45946C12.4781 5.33694 12.3339 5.27568 12.1682 5.27568H9.99519C9.93033 5.27568 9.8979 5.24324 9.8979 5.17838V3.56757C9.8979 3.50991 9.93033 3.48108 9.99519 3.48108H12.3844C12.5501 3.48108 12.6943 3.41982 12.8168 3.2973C12.9393 3.17477 13.0006 3.03063 13.0006 2.86486V2.61622C13.0006 2.45045 12.9393 2.30631 12.8168 2.18378C12.6943 2.06126 12.5501 2 12.3844 2H8.67627C8.51051 2 8.36636 2.06126 8.24384 2.18378C8.12132 2.30631 8.06006 2.45045 8.06006 2.61622V9.27568C8.06006 9.44144 8.12132 9.58559 8.24384 9.70811ZM16.965 13.8234L14.1246 14.5326C13.7918 14.6156 13.5327 14.8766 13.4521 15.2099L12.0059 21.1838C11.9621 21.3648 12.1837 21.4892 12.3154 21.3575L15.4815 18.1914C15.1852 17.7441 15.2342 17.1356 15.6282 16.7416C16.0781 16.2917 16.8075 16.2917 17.2574 16.7416C17.7073 17.1915 17.7073 17.9209 17.2574 18.3708C16.8632 18.7649 16.2546 18.8137 15.8073 18.5173L12.6412 21.6834C12.5095 21.815 12.6339 22.0366 12.8149 21.9928L18.7888 20.5466C19.1221 20.4659 19.383 20.2068 19.4661 19.8741L20.1751 17.0335C20.2534 16.7195 20.1614 16.3874 19.9326 16.1586L17.8399 14.0659C17.611 13.8371 17.279 13.745 16.965 13.8234ZM18.0541 13.5361C17.7853 13.2673 17.7853 12.8314 18.0541 12.5626L18.415 12.2016C18.6839 11.9328 19.1198 11.9328 19.3886 12.2016L21.798 14.6111C22.0669 14.8799 22.0669 15.3158 21.798 15.5846L21.4371 15.9456C21.1683 16.2144 20.7324 16.2144 20.4635 15.9456L18.0541 13.5361ZM3 12C2.44772 12 2 12.4477 2 13C2 13.5523 2.44772 14 3 14H12C12.5523 14 13 13.5523 13 13C13 12.4477 12.5523 12 12 12H3Z" fill="currentColor"/>
</svg>
