<svg width="24" height="24" viewBox="0 0 24 24" fill="none" xmlns="http://www.w3.org/2000/svg">
<path fill-rule="evenodd" clip-rule="evenodd" d="M3.2 7C1.98497 7 1 7.98497 1 9.2V14.8C1 16.015 1.98497 17 3.2 17H20.8C22.015 17 23 16.015 23 14.8V9.2C23 7.98497 22.015 7 20.8 7H3.2ZM3.79389 13.232V12.2933C3.79389 12.2613 3.80657 12.2453 3.83193 12.2453H4.01733C4.49271 12.2453 4.7304 12.4089 4.7304 12.736C4.7304 12.9316 4.67811 13.0773 4.57353 13.1733C4.46894 13.2658 4.30414 13.312 4.07913 13.312C3.98405 13.312 3.90323 13.3049 3.83668 13.2907C3.80816 13.2836 3.79389 13.264 3.79389 13.232ZM3.79389 11.552V10.768C3.79389 10.736 3.80657 10.7164 3.83193 10.7093C3.89531 10.6951 3.97296 10.688 4.06486 10.688C4.45151 10.688 4.64484 10.8356 4.64484 11.1307C4.64484 11.44 4.41348 11.5947 3.95077 11.5947H3.83193C3.80657 11.5947 3.79389 11.5804 3.79389 11.552ZM3.07606 13.8453C3.12677 13.9129 3.19015 13.9502 3.26622 13.9573C3.5356 13.9858 3.79548 14 4.04585 14C4.54342 14 4.90788 13.904 5.13924 13.712C5.37376 13.5164 5.49102 13.2213 5.49102 12.8267C5.49102 12.5849 5.41654 12.3769 5.26759 12.2027C5.12181 12.0284 4.92373 11.9218 4.67336 11.8827C4.66702 11.8827 4.66385 11.8809 4.66385 11.8773C4.66385 11.8702 4.66544 11.8667 4.6686 11.8667C4.88411 11.824 5.05525 11.7244 5.18202 11.568C5.31196 11.4116 5.37693 11.2213 5.37693 10.9973C5.37693 10.3324 4.91739 10 3.99831 10C3.76062 10 3.51817 10.0142 3.27097 10.0427C3.19491 10.0498 3.12994 10.0871 3.07606 10.1547C3.02535 10.2187 3 10.2951 3 10.384V13.616C3 13.7013 3.02535 13.7778 3.07606 13.8453ZM7.03603 14C7.48289 14 7.82517 13.8631 8.06286 13.5893C8.30372 13.312 8.42415 12.9013 8.42415 12.3573V10.3573C8.42415 10.2756 8.39721 10.2044 8.34334 10.144C8.28946 10.0836 8.22608 10.0533 8.15318 10.0533H7.89172C7.81883 10.0533 7.75544 10.0836 7.70157 10.144C7.65086 10.2044 7.6255 10.2756 7.6255 10.3573V12.416C7.6255 12.9849 7.43218 13.2693 7.04553 13.2693C6.65889 13.2693 6.46556 12.9849 6.46556 12.416V10.3573C6.46556 10.2756 6.43862 10.2044 6.38475 10.144C6.33404 10.0836 6.27224 10.0533 6.19935 10.0533H5.91887C5.84598 10.0533 5.78259 10.0836 5.72872 10.144C5.67484 10.2044 5.6479 10.2756 5.6479 10.3573V12.3573C5.6479 12.9013 5.76675 13.312 6.00444 13.5893C6.2453 13.8631 6.58916 14 7.03603 14ZM8.94708 10.8053C8.87419 10.8053 8.8108 10.7751 8.75692 10.7147C8.70305 10.6542 8.67611 10.5831 8.67611 10.5013V10.3573C8.67611 10.2756 8.70305 10.2044 8.75692 10.144C8.8108 10.0836 8.87419 10.0533 8.94708 10.0533H11.1624C11.2353 10.0533 11.2987 10.0836 11.3525 10.144C11.4064 10.2044 11.4333 10.2756 11.4333 10.3573V10.5013C11.4333 10.5831 11.4064 10.6542 11.3525 10.7147C11.2987 10.7751 11.2353 10.8053 11.1624 10.8053H10.5063C10.481 10.8053 10.4683 10.8196 10.4683 10.848V13.6427C10.4683 13.7244 10.4414 13.7956 10.3875 13.856C10.3336 13.9164 10.2702 13.9467 10.1973 13.9467H9.91211C9.83922 13.9467 9.77583 13.9164 9.72196 13.856C9.66808 13.7956 9.64114 13.7244 9.64114 13.6427V10.848C9.64114 10.8196 9.62846 10.8053 9.60311 10.8053H8.94708ZM11.6948 10.7147C11.7487 10.7751 11.8121 10.8053 11.885 10.8053H12.541C12.5663 10.8053 12.579 10.8196 12.579 10.848V13.6427C12.579 13.7244 12.606 13.7956 12.6598 13.856C12.7137 13.9164 12.7771 13.9467 12.85 13.9467H13.1352C13.2081 13.9467 13.2715 13.9164 13.3254 13.856C13.3793 13.7956 13.4062 13.7244 13.4062 13.6427V10.848C13.4062 10.8196 13.4189 10.8053 13.4442 10.8053H14.1003C14.1732 10.8053 14.2365 10.7751 14.2904 10.7147C14.3443 10.6542 14.3712 10.5831 14.3712 10.5013V10.3573C14.3712 10.2756 14.3443 10.2044 14.2904 10.144C14.2365 10.0836 14.1732 10.0533 14.1003 10.0533H11.885C11.8121 10.0533 11.7487 10.0836 11.6948 10.144C11.6409 10.2044 11.614 10.2756 11.614 10.3573V10.5013C11.614 10.5831 11.6409 10.6542 11.6948 10.7147ZM16.9003 11.0667C16.7387 10.8533 16.5105 10.7467 16.2157 10.7467C15.921 10.7467 15.6912 10.8533 15.5264 11.0667C15.3648 11.28 15.284 11.5911 15.284 12C15.284 12.4089 15.3648 12.72 15.5264 12.9333C15.6912 13.1467 15.921 13.2533 16.2157 13.2533C16.5105 13.2533 16.7387 13.1467 16.9003 12.9333C17.0651 12.72 17.1475 12.4089 17.1475 12C17.1475 11.5911 17.0651 11.28 16.9003 11.0667ZM17.4945 13.4613C17.1776 13.8204 16.7513 14 16.2157 14C15.6801 14 15.2523 13.8204 14.9322 13.4613C14.6153 13.1022 14.4568 12.6151 14.4568 12C14.4568 11.3849 14.6153 10.8978 14.9322 10.5387C15.2523 10.1796 15.6801 10 16.2157 10C16.7513 10 17.1776 10.1796 17.4945 10.5387C17.8146 10.8978 17.9747 11.3849 17.9747 12C17.9747 12.6151 17.8146 13.1022 17.4945 13.4613ZM18.2599 13.856C18.3138 13.9164 18.3771 13.9467 18.45 13.9467H18.702C18.7749 13.9467 18.8367 13.9164 18.8874 13.856C18.9413 13.7956 18.9682 13.7244 18.9682 13.6427V11.5627C18.9682 11.5591 18.9698 11.5573 18.973 11.5573C18.9793 11.5573 18.9825 11.5591 18.9825 11.5627L20.0759 13.6853C20.1678 13.8596 20.3025 13.9467 20.4799 13.9467H20.7319C20.8048 13.9467 20.8682 13.9164 20.922 13.856C20.9759 13.7956 21.0029 13.7244 21.0029 13.6427V10.3573C21.0029 10.2756 20.9759 10.2044 20.922 10.144C20.8682 10.0836 20.8048 10.0533 20.7319 10.0533H20.4799C20.407 10.0533 20.3437 10.0836 20.2898 10.144C20.2391 10.2044 20.2137 10.2756 20.2137 10.3573V12.4373C20.2137 12.4409 20.2121 12.4427 20.209 12.4427C20.2026 12.4427 20.1995 12.4409 20.1995 12.4373L19.1061 10.3147C19.0142 10.1404 18.8795 10.0533 18.702 10.0533H18.45C18.3771 10.0533 18.3138 10.0836 18.2599 10.144C18.206 10.2044 18.1791 10.2756 18.1791 10.3573V13.6427C18.1791 13.7244 18.206 13.7956 18.2599 13.856Z" fill="currentColor"/>
</svg>
