<svg width="24" height="24" viewBox="0 0 24 24" fill="none" xmlns="http://www.w3.org/2000/svg">
<path fill-rule="evenodd" clip-rule="evenodd" d="M5 4C2.79086 4 1 5.79086 1 8V16C1 18.2091 2.79086 20 5 20H12.7639C12.2888 19.4692 12 18.7684 12 18C12 16.3431 13.3431 15 15 15C15 13.3431 16.3431 12 18 12C19.6568 12 21 13.3431 21 15C21.0883 15 21.1758 15.0038 21.2622 15.0113L22.1571 14.0888C23.2859 12.925 23.2859 11.075 22.1571 9.91123L17.3071 4.91123C16.742 4.32874 15.9652 4 15.1537 4H5ZM18 14C18.5523 14 19 14.4477 19 15V17H21C21.5523 17 22 17.4477 22 18C22 18.5523 21.5523 19 21 19H19V21C19 21.5523 18.5523 22 18 22C17.4477 22 17 21.5523 17 21V19H15C14.4477 19 14 18.5523 14 18C14 17.4477 14.4477 17 15 17H17V15C17 14.4477 17.4477 14 18 14Z" fill="currentColor"/>
</svg>
