<svg width="24" height="24" viewBox="0 0 24 24" fill="none" xmlns="http://www.w3.org/2000/svg">
<path fill-rule="evenodd" clip-rule="evenodd" d="M4 4C2.34315 4 1 5.34315 1 7V17C1 18.6569 2.34315 20 4 20H20C21.6569 20 23 18.6569 23 17V7C23 5.34315 21.6569 4 20 4H4ZM21 11.933C21 11.1404 20.765 10.5229 20.2949 10.0805C19.8295 9.63348 19.1728 9.40997 18.3249 9.40997C17.9793 9.40997 17.6267 9.42841 17.2673 9.46527C17.1567 9.47449 17.0622 9.52288 16.9839 9.61043C16.9101 9.69338 16.8733 9.79246 16.8733 9.90767V14.0966C16.8733 14.2118 16.9101 14.3132 16.9839 14.4008C17.0622 14.4837 17.1567 14.5298 17.2673 14.539C17.6267 14.5759 17.9793 14.5943 18.3249 14.5943C19.1728 14.5943 19.8295 14.3639 20.2949 13.9031C20.765 13.4376 21 12.7809 21 11.933ZM4.76959 12.4998C4.13825 12.3155 3.68433 12.092 3.40783 11.8293C3.13594 11.562 3 11.2326 3 10.8408C3 10.4031 3.16359 10.0551 3.49078 9.79707C3.81797 9.53901 4.2788 9.40997 4.87327 9.40997C5.3341 9.40997 5.76267 9.47449 6.15899 9.60352C6.26498 9.63578 6.34332 9.7026 6.39401 9.80398C6.4447 9.90536 6.45622 10.0114 6.42857 10.122L6.39401 10.274C6.37097 10.3708 6.31336 10.4422 6.2212 10.4883C6.13364 10.5344 6.04147 10.539 5.9447 10.5021C5.63134 10.3869 5.29032 10.3293 4.92166 10.3293C4.68203 10.3293 4.5 10.3754 4.37558 10.4676C4.25115 10.5597 4.18894 10.6842 4.18894 10.8408C4.18894 11.0989 4.38249 11.2832 4.76959 11.3938C5.45622 11.5828 5.93779 11.8086 6.21429 12.0713C6.49539 12.3339 6.63594 12.6726 6.63594 13.0874C6.63594 13.5759 6.47005 13.9491 6.13825 14.2072C5.80645 14.4653 5.31567 14.5943 4.6659 14.5943C4.21429 14.5943 3.76728 14.4952 3.32488 14.2971C3.21889 14.251 3.14286 14.1749 3.09677 14.069C3.0553 13.9584 3.053 13.8478 3.08986 13.7372L3.13825 13.5644C3.1659 13.4722 3.22581 13.4077 3.31797 13.3708C3.41014 13.3339 3.5 13.3385 3.58756 13.3846C3.97465 13.5782 4.35023 13.6749 4.71429 13.6749C4.95392 13.6749 5.13364 13.6266 5.25346 13.5298C5.37788 13.4284 5.44009 13.2879 5.44009 13.1081C5.44009 12.9607 5.3894 12.8408 5.28802 12.7487C5.19124 12.6565 5.01843 12.5736 4.76959 12.4998ZM7.90092 14.5252C7.79493 14.5252 7.70276 14.486 7.62442 14.4077C7.55069 14.3293 7.51382 14.2372 7.51382 14.1312V9.87311C7.51382 9.76712 7.55069 9.67495 7.62442 9.59661C7.70276 9.51827 7.79493 9.4791 7.90092 9.4791H10.3479C10.4539 9.4791 10.5438 9.51827 10.6175 9.59661C10.6959 9.67495 10.735 9.76712 10.735 9.87311V10.0321C10.735 10.1381 10.6959 10.2302 10.6175 10.3086C10.5438 10.3869 10.4539 10.4261 10.3479 10.4261H8.74424C8.70737 10.4261 8.68894 10.4445 8.68894 10.4814V11.3938C8.68894 11.4353 8.70737 11.4561 8.74424 11.4561H10.2097C10.3157 11.4561 10.4055 11.4952 10.4793 11.5736C10.5576 11.6519 10.5968 11.7441 10.5968 11.8501V11.9538C10.5968 12.0597 10.5576 12.1519 10.4793 12.2302C10.4055 12.3086 10.3157 12.3478 10.2097 12.3478H8.74424C8.70737 12.3478 8.68894 12.3662 8.68894 12.4031V13.5229C8.68894 13.5597 8.70737 13.5782 8.74424 13.5782H10.3479C10.4539 13.5782 10.5438 13.6173 10.6175 13.6957C10.6959 13.774 10.735 13.8662 10.735 13.9722V14.1312C10.735 14.2372 10.6959 14.3293 10.6175 14.4077C10.5438 14.486 10.4539 14.5252 10.3479 14.5252H7.90092ZM11.8341 14.4077C11.9124 14.486 12.0046 14.5252 12.1106 14.5252H12.477C12.5829 14.5252 12.6728 14.486 12.7465 14.4077C12.8249 14.3293 12.8641 14.2372 12.8641 14.1312V11.4353C12.8641 11.4307 12.8664 11.4284 12.871 11.4284C12.8802 11.4284 12.8848 11.4307 12.8848 11.4353L14.4747 14.1865C14.6083 14.4123 14.8041 14.5252 15.0622 14.5252H15.4286C15.5346 14.5252 15.6267 14.486 15.7051 14.4077C15.7834 14.3293 15.8226 14.2372 15.8226 14.1312V9.87311C15.8226 9.76712 15.7834 9.67495 15.7051 9.59661C15.6267 9.51827 15.5346 9.4791 15.4286 9.4791H15.0622C14.9562 9.4791 14.8641 9.51827 14.7857 9.59661C14.712 9.67495 14.6751 9.76712 14.6751 9.87311V12.569C14.6751 12.5736 14.6728 12.5759 14.6682 12.5759C14.659 12.5759 14.6544 12.5736 14.6544 12.569L13.0645 9.81781C12.9309 9.592 12.735 9.4791 12.477 9.4791H12.1106C12.0046 9.4791 11.9124 9.51827 11.8341 9.59661C11.7558 9.67495 11.7166 9.76712 11.7166 9.87311V14.1312C11.7166 14.2372 11.7558 14.3293 11.8341 14.4077ZM18.0276 10.433V13.5713C18.0276 13.6127 18.0461 13.6381 18.0829 13.6473C18.1751 13.6657 18.2857 13.6749 18.4147 13.6749C19.3917 13.6749 19.8802 13.0943 19.8802 11.933C19.8802 10.8639 19.3917 10.3293 18.4147 10.3293C18.2857 10.3293 18.1751 10.3385 18.0829 10.357C18.0461 10.3662 18.0276 10.3915 18.0276 10.433Z" fill="currentColor"/>
</svg>
