<svg width="24" height="24" viewBox="0 0 24 24" fill="none" xmlns="http://www.w3.org/2000/svg">
<path fill-rule="evenodd" clip-rule="evenodd" d="M9 3C9 2.44772 8.55228 2 8 2C7.44772 2 7 2.44772 7 3V4H2.00014C1.44786 4 1.00014 4.44772 1.00014 5C1.00014 5.55228 1.44786 6 2.00014 6H8H10.1956C10.0735 6.42162 9.91977 6.92467 9.73752 7.46758C9.27788 8.83677 8.66291 10.3786 7.95253 11.518C7.86359 11.442 7.78124 11.3667 7.70732 11.2928C7.30089 10.8864 6.85255 10.2254 6.48421 9.61183C6.30611 9.31517 6.15713 9.04733 6.05289 8.85402C6.00089 8.75759 5.96034 8.68028 5.9332 8.6279L5.90286 8.56889L5.89575 8.55487L5.89426 8.55192C5.64674 8.05839 5.04589 7.85851 4.55223 8.10587C4.05846 8.35329 3.85876 8.95414 4.10618 9.4479L4.10671 9.44896L4.10761 9.45075L4.11051 9.45651L4.12062 9.47643C4.12924 9.49336 4.1416 9.51749 4.15744 9.54806C4.18911 9.60918 4.2348 9.69624 4.29252 9.80327C4.40771 10.0169 4.57204 10.3124 4.76949 10.6413C5.15224 11.2788 5.7039 12.1178 6.29311 12.707C6.41959 12.8335 6.55758 12.9582 6.70262 13.08C5.8806 13.9281 4.86977 14.7611 3.9284 15.4658C3.25518 15.9698 2.63961 16.392 2.19269 16.688C1.96951 16.8358 1.78908 16.9517 1.66541 17.03C1.60359 17.0691 1.55601 17.0989 1.52441 17.1185L1.48923 17.1403L1.48106 17.1453L1.47924 17.1464C1.00787 17.434 0.858864 18.0493 1.14644 18.5208C1.43404 18.9922 2.05003 19.1409 2.52152 18.8533L2.52587 18.8507L2.53741 18.8436L2.57955 18.8175C2.61588 18.795 2.66843 18.7621 2.73543 18.7197C2.8694 18.6348 3.06133 18.5116 3.297 18.3555C3.76781 18.0437 4.41602 17.5991 5.12698 17.0669C6.15899 16.2943 7.37332 15.3005 8.36423 14.2339C8.69096 14.4299 8.9844 14.593 9.19685 14.7076C9.30389 14.7653 9.39095 14.811 9.45207 14.8427C9.48264 14.8585 9.50677 14.8709 9.5237 14.8795L9.54362 14.8896L9.54937 14.8925L9.55223 14.8939C10.046 15.1414 10.6468 14.9417 10.8943 14.4479C11.1416 13.9542 10.9418 13.3533 10.4482 13.1058L10.4453 13.1044L10.4312 13.0973L10.3722 13.0669C10.3198 13.0398 10.2425 12.9992 10.1461 12.9472C10.0015 12.8693 9.81522 12.7663 9.60636 12.6448C10.4723 11.2771 11.1589 9.51802 11.6335 8.10406C11.9014 7.30602 12.1104 6.59149 12.2524 6.07607L12.2733 6H14.0001C14.5524 6 15.0001 5.55228 15.0001 5C15.0001 4.44772 14.5524 4 14.0001 4H9V3ZM19.4641 18L21.0974 21.4299C21.3348 21.9286 21.9315 22.1403 22.4302 21.9029C22.9288 21.6654 23.1405 21.0687 22.9031 20.5701L17.9132 10.0913L17.905 10.074C17.9013 10.066 17.8957 10.0542 17.8893 10.0411C17.8536 9.96776 17.7535 9.7711 17.5986 9.57802C17.5209 9.48108 17.4037 9.35242 17.2447 9.24144C17.086 9.13069 16.8306 9 16.5002 9C16.1242 9 15.8453 9.16838 15.6888 9.291C15.5278 9.41715 15.4112 9.56061 15.3366 9.66364C15.2581 9.77218 15.1985 9.87478 15.1595 9.94689C15.1394 9.9841 15.1233 10.0161 15.1114 10.0406C15.1054 10.0528 15.1004 10.0634 15.0964 10.0719L15.0947 10.0757L10.0974 20.5701C9.85993 21.0687 10.0717 21.6654 10.5703 21.9029C11.0689 22.1403 11.6656 21.9286 11.9031 21.4299L13.5364 18H19.4641ZM18.5117 16L16.5002 11.7759L14.4888 16H18.5117Z" fill="currentColor"/>
</svg>
