<svg width="24" height="24" viewBox="0 0 24 24" fill="none" xmlns="http://www.w3.org/2000/svg">
<path fill-rule="evenodd" clip-rule="evenodd" d="M6.38237 4.96806C7.92203 3.73646 9.87501 3 12 3C14.125 3 16.078 3.73646 17.6176 4.96806L15.4765 7.10921C14.4957 6.41078 13.2958 6 12 6C10.7042 6 9.50433 6.41078 8.52352 7.10921L6.38237 4.96806ZM12 1C15.027 1 17.7685 2.2227 19.7575 4.20117C19.7645 4.20783 19.7715 4.21461 19.7784 4.22151C19.7853 4.22841 19.7921 4.23539 19.7987 4.24244C21.7773 6.23139 23 8.9729 23 12C23 18.0751 18.0751 23 12 23C5.92487 23 1 18.0751 1 12C1 8.9729 2.22275 6.23138 4.20128 4.24242C4.20793 4.23538 4.21471 4.22841 4.2216 4.22151C4.2285 4.21461 4.23548 4.20784 4.24252 4.20118C6.23148 2.22271 8.97295 1 12 1ZM16.8907 8.52341L19.0319 6.38226C20.2635 7.92194 21 9.87496 21 12C21 14.125 20.2635 16.078 19.0319 17.6176L16.8908 15.4765C17.5892 14.4957 18 13.2958 18 12C18 10.7041 17.5892 9.50424 16.8907 8.52341ZM4.96814 6.38226L7.10929 8.52341C6.41081 9.50424 6 10.7041 6 12C6 13.2958 6.41078 14.4957 7.10921 15.4765L4.96806 17.6176C3.73646 16.078 3 14.125 3 12C3 9.87496 3.73649 7.92194 4.96814 6.38226ZM6.38226 19.0319C7.92194 20.2635 9.87496 21 12 21C14.125 21 16.0781 20.2635 17.6177 19.0319L15.4766 16.8907C14.4958 17.5892 13.2959 18 12 18C10.7041 18 9.50424 17.5892 8.52341 16.8907L6.38226 19.0319ZM9.19371 14.8504C9.91575 15.5613 10.9066 16 12 16C13.0934 16 14.0842 15.5613 14.8063 14.8504C14.8134 14.8428 14.8207 14.8353 14.828 14.828C14.8354 14.8206 14.8429 14.8133 14.8505 14.8062C15.5614 14.0842 16 13.0933 16 12C16 9.79086 14.2091 8 12 8C9.79086 8 8 9.79086 8 12C8 13.0933 8.43864 14.0842 9.14953 14.8062C9.15709 14.8133 9.16456 14.8206 9.17195 14.828C9.17934 14.8353 9.1866 14.8428 9.19371 14.8504Z" fill="currentColor"/>
</svg>
