<svg width="24" height="24" viewBox="0 0 24 24" fill="none" xmlns="http://www.w3.org/2000/svg">
<path fill-rule="evenodd" clip-rule="evenodd" d="M1 19C1 17.8954 1.89543 17 3 17H5C6.10457 17 7 17.8954 7 19C7 20.1046 6.10457 21 5 21H3C1.89543 21 1 20.1046 1 19ZM10 18C9.44771 18 9 18.4477 9 19C9 19.5523 9.44771 20 10 20H14C14.5523 20 15 19.5523 15 19C15 18.4477 14.5523 18 14 18H10ZM17 12C17 11.4477 17.4477 11 18 11H21C21.5523 11 22 11.4477 22 12C22 12.5523 21.5523 13 21 13H18C17.4477 13 17 12.5523 17 12ZM1 5C1 4.44772 1.44772 4 2 4H8C8.55228 4 9 4.44772 9 5C9 5.55229 8.55228 6 8 6H2C1.44772 6 1 5.55229 1 5ZM19 17C17.8954 17 17 17.8954 17 19C17 20.1046 17.8954 21 19 21H21C22.1046 21 23 20.1046 23 19C23 17.8954 22.1046 17 21 17H19ZM10 5C10 3.89543 10.8954 3 12 3H20C21.1046 3 22 3.89543 22 5C22 6.10457 21.1046 7 20 7H12C10.8954 7 10 6.10457 10 5ZM3 10C1.89543 10 1 10.8954 1 12C1 13.1046 1.89543 14 3 14H13C14.1046 14 15 13.1046 15 12C15 10.8954 14.1046 10 13 10H3Z" fill="currentColor"/>
</svg>
