<svg width="24" height="24" viewBox="0 0 24 24" fill="none" xmlns="http://www.w3.org/2000/svg">
<path d="M2 12C2 11.4477 2.44772 11 3 11H6.33333C6.88562 11 7.33333 11.4477 7.33333 12C7.33333 12.5523 6.88562 13 6.33333 13H3C2.44772 13 2 12.5523 2 12Z" fill="currentColor"/>
<path d="M9.33333 12C9.33333 11.4477 9.78105 11 10.3333 11H13.6667C14.219 11 14.6667 11.4477 14.6667 12C14.6667 12.5523 14.219 13 13.6667 13H10.3333C9.78105 13 9.33333 12.5523 9.33333 12Z" fill="currentColor"/>
<path d="M16.6667 12C16.6667 11.4477 17.1144 11 17.6667 11H21C21.5523 11 22 11.4477 22 12C22 12.5523 21.5523 13 21 13H17.6667C17.1144 13 16.6667 12.5523 16.6667 12Z" fill="currentColor"/>
</svg>
