<svg width="24" height="24" viewBox="0 0 24 24" fill="none" xmlns="http://www.w3.org/2000/svg">
<path d="M4.4 11.8001C4.4 12.4628 3.86274 13.0001 3.2 13.0001C2.53726 13.0001 2 12.4628 2 11.8001C2 11.1374 2.53726 10.6001 3.2 10.6001C3.86274 10.6001 4.4 11.1374 4.4 11.8001Z" fill="currentColor"/>
<path d="M8.8 11.8001C8.8 12.4628 8.26274 13.0001 7.6 13.0001C6.93726 13.0001 6.4 12.4628 6.4 11.8001C6.4 11.1374 6.93726 10.6001 7.6 10.6001C8.26274 10.6001 8.8 11.1374 8.8 11.8001Z" fill="currentColor"/>
<path d="M13.2 11.8001C13.2 12.4628 12.6627 13.0001 12 13.0001C11.3373 13.0001 10.8 12.4628 10.8 11.8001C10.8 11.1374 11.3373 10.6001 12 10.6001C12.6627 10.6001 13.2 11.1374 13.2 11.8001Z" fill="currentColor"/>
<path d="M17.6 11.8001C17.6 12.4628 17.0627 13.0001 16.4 13.0001C15.7373 13.0001 15.2 12.4628 15.2 11.8001C15.2 11.1374 15.7373 10.6001 16.4 10.6001C17.0627 10.6001 17.6 11.1374 17.6 11.8001Z" fill="currentColor"/>
<path d="M22 11.8001C22 12.4628 21.4627 13.0001 20.8 13.0001C20.1373 13.0001 19.6 12.4628 19.6 11.8001C19.6 11.1374 20.1373 10.6001 20.8 10.6001C21.4627 10.6001 22 11.1374 22 11.8001Z" fill="currentColor"/>
</svg>
