<svg width="24" height="24" viewBox="0 0 24 24" fill="none" xmlns="http://www.w3.org/2000/svg">
<path fill-rule="evenodd" clip-rule="evenodd" d="M8 1C8.55228 1 9 1.44772 9 2V5C9 5.55228 8.55228 6 8 6C7.44772 6 7 5.55228 7 5V2C7 1.44772 7.44772 1 8 1ZM17.9594 6.04075C19.4098 7.49119 19.4098 9.8428 17.9594 11.2932L16.6261 12.6266C16.2355 13.0171 16.2355 13.6503 16.6261 14.0408C17.0166 14.4313 17.6497 14.4313 18.0403 14.0408L19.3736 12.7074C21.6051 10.476 21.6051 6.85802 19.3736 4.62654C17.1421 2.39506 13.5242 2.39506 11.2927 4.62654L9.95937 5.95988C9.56885 6.3504 9.56885 6.98357 9.95937 7.37409C10.3499 7.76462 10.9831 7.76462 11.3736 7.37409L12.7069 6.04075C14.1574 4.59032 16.509 4.59032 17.9594 6.04075ZM7.96004 16.0401C7.56951 15.6496 7.56951 15.0164 7.96004 14.6259L14.6267 7.95921C15.0172 7.56869 15.6504 7.56869 16.0409 7.95921C16.4315 8.34974 16.4315 8.9829 16.0409 9.37343L9.37425 16.0401C8.98373 16.4306 8.35056 16.4306 7.96004 16.0401ZM6.0406 12.7068C4.59017 14.1572 4.59017 16.5088 6.0406 17.9592C7.49103 19.4097 9.84265 19.4097 11.2931 17.9592L12.6264 16.6259C13.0169 16.2354 13.6501 16.2354 14.0406 16.6259C14.4312 17.0164 14.4312 17.6496 14.0406 18.0401L12.7073 19.3735C10.4758 21.6049 6.85787 21.6049 4.62639 19.3735C2.39491 17.142 2.39491 13.524 4.62639 11.2926L5.95973 9.95922C6.35025 9.5687 6.98342 9.5687 7.37394 9.95922C7.76446 10.3497 7.76446 10.9829 7.37394 11.3734L6.0406 12.7068ZM2 7C1.44772 7 1 7.44772 1 8C1 8.55228 1.44772 9 2 9H5C5.55228 9 6 8.55228 6 8C6 7.44772 5.55228 7 5 7H2ZM2.29289 2.29289C2.68342 1.90237 3.31658 1.90237 3.70711 2.29289L5.70711 4.29289C6.09763 4.68342 6.09763 5.31658 5.70711 5.70711C5.31658 6.09763 4.68342 6.09763 4.29289 5.70711L2.29289 3.70711C1.90237 3.31658 1.90237 2.68342 2.29289 2.29289ZM15 22C15 22.5523 15.4477 23 16 23C16.5523 23 17 22.5523 17 22V19C17 18.4477 16.5523 18 16 18C15.4477 18 15 18.4477 15 19V22ZM23 16C23 16.5523 22.5523 17 22 17H19C18.4477 17 18 16.5523 18 16C18 15.4477 18.4477 15 19 15H22C22.5523 15 23 15.4477 23 16ZM20.2929 21.7071C20.6834 22.0976 21.3166 22.0976 21.7071 21.7071C22.0976 21.3166 22.0976 20.6834 21.7071 20.2929L19.7071 18.2929C19.3166 17.9024 18.6834 17.9024 18.2929 18.2929C17.9024 18.6834 17.9024 19.3166 18.2929 19.7071L20.2929 21.7071Z" fill="currentColor"/>
</svg>
