<svg width="24" height="24" viewBox="0 0 24 24" fill="none" xmlns="http://www.w3.org/2000/svg">
<path fill-rule="evenodd" clip-rule="evenodd" d="M17.9588 6.0407C19.4092 7.49114 19.4092 9.84275 17.9588 11.2932L16.6254 12.6265C16.2349 13.017 16.2349 13.6502 16.6254 14.0407C17.016 14.4313 17.6491 14.4313 18.0396 14.0407L19.373 12.7074C21.6045 10.4759 21.6045 6.85797 19.373 4.62649C17.1415 2.39501 13.5236 2.39501 11.2921 4.62649L9.95874 5.95983C9.56822 6.35035 9.56822 6.98352 9.95874 7.37404C10.3493 7.76457 10.9824 7.76457 11.373 7.37404L12.7063 6.0407C14.1567 4.59027 16.5083 4.59027 17.9588 6.0407ZM7.95941 16.0401C7.56888 15.6495 7.56888 15.0164 7.95941 14.6259L14.6261 7.95916C15.0166 7.56864 15.6498 7.56864 16.0403 7.95916C16.4308 8.34969 16.4308 8.98285 16.0403 9.37338L9.37362 16.0401C8.9831 16.4306 8.34993 16.4306 7.95941 16.0401ZM6.03997 12.7067C4.58954 14.1572 4.58954 16.5088 6.03997 17.9592C7.4904 19.4096 9.84201 19.4096 11.2924 17.9592L12.6258 16.6259C13.0163 16.2353 13.6495 16.2353 14.04 16.6259C14.4305 17.0164 14.4305 17.6495 14.04 18.0401L12.7067 19.3734C10.4752 21.6049 6.85724 21.6049 4.62576 19.3734C2.39428 17.1419 2.39428 13.524 4.62576 11.2925L5.9591 9.95917C6.34962 9.56864 6.98278 9.56864 7.37331 9.95917C7.76383 10.3497 7.76383 10.9829 7.37331 11.3734L6.03997 12.7067Z" fill="currentColor"/>
</svg>
