<svg width="24" height="24" viewBox="0 0 24 24" fill="none" xmlns="http://www.w3.org/2000/svg">
<path fill-rule="evenodd" clip-rule="evenodd" d="M5 2C3.34315 2 2 3.34315 2 5V19C2 20.6569 3.34315 22 5 22H19C20.6569 22 22 20.6569 22 19V5C22 3.34315 20.6569 2 19 2H5ZM11 8C11 7.44772 11.4477 7 12 7H18C18.5523 7 19 7.44772 19 8C19 8.55228 18.5523 9 18 9H12C11.4477 9 11 8.55228 11 8ZM11 13C11 12.4477 11.4477 12 12 12H18C18.5523 12 19 12.4477 19 13C19 13.5523 18.5523 14 18 14H12C11.4477 14 11 13.5523 11 13ZM11 18C11 17.4477 11.4477 17 12 17H18C18.5523 17 19 17.4477 19 18C19 18.5523 18.5523 19 18 19H12C11.4477 19 11 18.5523 11 18ZM7.29289 5.29289C7.68342 4.90237 8.31658 4.90237 8.70711 5.29289C9.09763 5.68342 9.09763 6.31658 8.70711 6.70711L6.70711 8.70711C6.31658 9.09763 5.68342 9.09763 5.29289 8.70711L4.29289 7.70711C3.90237 7.31658 3.90237 6.68342 4.29289 6.29289C4.68342 5.90237 5.31658 5.90237 5.70711 6.29289L6 6.58579L7.29289 5.29289ZM6 14H7C7.55228 14 8 13.5523 8 13C8 12.4477 7.55228 12 7 12H6C5.44772 12 5 12.4477 5 13C5 13.5523 5.44772 14 6 14ZM6 19H7C7.55228 19 8 18.5523 8 18C8 17.4477 7.55228 17 7 17H6C5.44772 17 5 17.4477 5 18C5 18.5523 5.44772 19 6 19Z" fill="currentColor"/>
</svg>
