<svg width="24" height="24" viewBox="0 0 24 24" fill="none" xmlns="http://www.w3.org/2000/svg">
<path fill-rule="evenodd" clip-rule="evenodd" d="M13 2C13 1.44772 12.5523 1 12 1C11.4477 1 11 1.44772 11 2V5C11 5.55228 11.4477 6 12 6C12.5523 6 13 5.55228 13 5V2ZM13 18C13 17.4477 12.5523 17 12 17C11.4477 17 11 17.4477 11 18V22C11 22.5523 11.4477 23 12 23C12.5523 23 13 22.5523 13 22V18ZM23 12C23 12.5523 22.5523 13 22 13H20C19.4477 13 19 12.5523 19 12C19 11.4477 19.4477 11 20 11H22C22.5523 11 23 11.4477 23 12ZM5.5 13C6.05228 13 6.5 12.5523 6.5 12C6.5 11.4477 6.05228 11 5.5 11H2C1.44772 11 1 11.4477 1 12C1 12.5523 1.44772 13 2 13H5.5ZM19.7781 19.7785C19.3875 20.169 18.7543 20.1689 18.3639 19.7783L17.2927 18.7069C16.9022 18.3163 16.9023 17.6832 17.2929 17.2927C17.6834 16.9022 18.3166 16.9023 18.7071 17.2929L19.7782 18.3643C20.1687 18.7548 20.1686 19.388 19.7781 19.7785ZM6.29293 7.70739C6.68348 8.09789 7.31665 8.09786 7.70715 7.70731C8.09765 7.31676 8.09761 6.6836 7.70707 6.2931L5.63596 4.22224C5.24542 3.83174 4.61225 3.83177 4.22175 4.22232C3.83125 4.61287 3.83128 5.24603 4.22183 5.63653L6.29293 7.70739ZM4.22209 19.7784C3.83157 19.3879 3.83157 18.7547 4.22209 18.3642L7.05052 15.5358C7.44104 15.1452 8.07421 15.1452 8.46473 15.5358C8.85526 15.9263 8.85526 16.5594 8.46473 16.95L5.63631 19.7784C5.24578 20.1689 4.61262 20.1689 4.22209 19.7784ZM16.793 5.79327C16.4025 6.18379 16.4025 6.81696 16.793 7.20748C17.1835 7.59801 17.8167 7.59801 18.2072 7.20748L19.7782 5.63649C20.1687 5.24597 20.1687 4.6128 19.7782 4.22228C19.3877 3.83175 18.7545 3.83175 18.364 4.22228L16.793 5.79327Z" fill="currentColor"/>
</svg>
