<svg width="24" height="24" viewBox="0 0 24 24" fill="none" xmlns="http://www.w3.org/2000/svg">
<path fill-rule="evenodd" clip-rule="evenodd" d="M13 2C13 1.44772 12.5523 1 12 1C11.4477 1 11 1.44772 11 2V6C11 6.55228 11.4477 7 12 7C12.5523 7 13 6.55228 13 6V2ZM13 18C13 17.4477 12.5523 17 12 17C11.4477 17 11 17.4477 11 18V22C11 22.5523 11.4477 23 12 23C12.5523 23 13 22.5523 13 22V18ZM23 12C23 12.5523 22.5523 13 22 13H18C17.4477 13 17 12.5523 17 12C17 11.4477 17.4477 11 18 11H22C22.5523 11 23 11.4477 23 12ZM6 13C6.55228 13 7 12.5523 7 12C7 11.4477 6.55228 11 6 11H2C1.44772 11 1 11.4477 1 12C1 12.5523 1.44772 13 2 13H6ZM19.7782 19.7784C19.3876 20.1689 18.7545 20.1689 18.3639 19.7784L15.5355 16.95C15.145 16.5594 15.145 15.9263 15.5355 15.5358C15.926 15.1452 16.5592 15.1452 16.9497 15.5358L19.7782 18.3642C20.1687 18.7547 20.1687 19.3879 19.7782 19.7784ZM7.05022 8.46492C7.44074 8.85544 8.07391 8.85544 8.46443 8.46492C8.85496 8.0744 8.85496 7.44123 8.46443 7.05071L5.636 4.22228C5.24548 3.83175 4.61231 3.83175 4.22179 4.22228C3.83127 4.6128 3.83127 5.24597 4.22179 5.63649L7.05022 8.46492ZM4.22209 19.7784C3.83157 19.3879 3.83157 18.7547 4.22209 18.3642L7.05052 15.5358C7.44104 15.1452 8.07421 15.1452 8.46473 15.5358C8.85526 15.9263 8.85526 16.5594 8.46473 16.95L5.63631 19.7784C5.24578 20.1689 4.61262 20.1689 4.22209 19.7784ZM15.5356 7.05071C15.145 7.44123 15.145 8.07439 15.5356 8.46492C15.9261 8.85544 16.5593 8.85544 16.9498 8.46492L19.7782 5.63649C20.1687 5.24597 20.1687 4.6128 19.7782 4.22228C19.3877 3.83175 18.7545 3.83175 18.364 4.22228L15.5356 7.05071Z" fill="currentColor"/>
</svg>
