<svg width="24" height="24" viewBox="0 0 24 24" fill="none" xmlns="http://www.w3.org/2000/svg">
<path fill-rule="evenodd" clip-rule="evenodd" d="M12 1C7.02944 1 3 5.02944 3 10C3 12.3244 3.97117 14.384 5.33934 16.274C6.69057 18.1407 8.499 19.934 10.2997 21.7196L10.3366 21.7562C10.6552 22.0721 10.9742 22.3884 11.2929 22.7071C11.4804 22.8946 11.7348 23 12 23C12.2652 23 12.5196 22.8946 12.7071 22.7071C13.0258 22.3884 13.3448 22.0721 13.6634 21.7562L13.7003 21.7196C15.501 19.934 17.3094 18.1407 18.6607 16.274C20.0288 14.384 21 12.3244 21 10C21 5.02944 16.9706 1 12 1ZM8 9C8 6.79086 9.79086 5 12 5C14.2091 5 16 6.79086 16 9C16 11.2091 14.2091 13 12 13C9.79086 13 8 11.2091 8 9Z" fill="currentColor"/>
</svg>
