<svg width="24" height="24" viewBox="0 0 24 24" fill="none" xmlns="http://www.w3.org/2000/svg">
<path fill-rule="evenodd" clip-rule="evenodd" d="M13 3.00607C13 2.45043 13.4477 2 14 2C14.5523 2 15 2.45043 15 3.00607V4.51517C15 5.07081 14.5523 5.52124 14 5.52124C13.4477 5.52124 13 5.07081 13 4.51517V3.00607ZM18.2929 4.30681C18.6834 3.91392 19.3166 3.91392 19.7071 4.30681C20.0976 4.69971 20.0976 5.33671 19.7071 5.72961L18.6464 6.79671C18.2559 7.1896 17.6228 7.1896 17.2322 6.79671C16.8417 6.40381 16.8417 5.7668 17.2322 5.37391L18.2929 4.30681ZM21 9.04249C21.5523 9.04249 22 9.49292 22 10.0486C22 10.6042 21.5523 11.0546 21 11.0546H19.5C18.9477 11.0546 18.5 10.6042 18.5 10.0486C18.5 9.49292 18.9477 9.04249 19.5 9.04249H21ZM8.91914 4.36789C8.72387 4.17144 8.40729 4.17144 8.21203 4.36789L6.81802 5.77036C6.62276 5.9668 6.62276 6.28531 6.81802 6.48176L8.93934 8.61595C9.1346 8.8124 9.45118 8.8124 9.64645 8.61595L11.0405 7.21348C11.2357 7.01703 11.2357 6.69853 11.0405 6.50208L8.91914 4.36789ZM4.34315 8.26025C1.21895 11.4034 1.21895 16.4995 4.34315 19.6426C7.46734 22.7858 12.5327 22.7858 15.6569 19.6426L16.7191 18.5739C16.9144 18.3775 16.9144 18.059 16.7191 17.8625L14.5978 15.7283C14.4025 15.5319 14.086 15.5319 13.8907 15.7283L12.8284 16.797C11.2663 18.3686 8.73367 18.3686 7.17157 16.797C5.60948 15.2255 5.60948 12.6774 7.17157 11.1058L8.23384 10.0371C8.4291 9.84069 8.4291 9.52218 8.23384 9.32573L6.11252 7.19154C5.91726 6.99509 5.60068 6.99509 5.40541 7.19154L4.34315 8.26025ZM16.6973 12.9047C16.8926 12.7082 17.2092 12.7082 17.4044 12.9047L19.5257 15.0389C19.721 15.2353 19.721 15.5538 19.5257 15.7503L18.1317 17.1527C17.9365 17.3492 17.6199 17.3492 17.4246 17.1527L15.3033 15.0185C15.108 14.8221 15.108 14.5036 15.3033 14.3071L16.6973 12.9047Z" fill="currentColor"/>
</svg>
