<svg width="24" height="24" viewBox="0 0 24 24" fill="none" xmlns="http://www.w3.org/2000/svg">
<path fill-rule="evenodd" clip-rule="evenodd" d="M10.5 19C12.4872 19 14.3152 18.3181 15.7626 17.1754C15.7724 17.1862 15.7825 17.1967 15.7929 17.2071L20.2929 21.7071C20.6834 22.0976 21.3166 22.0976 21.7071 21.7071C22.0976 21.3166 22.0976 20.6834 21.7071 20.2929L17.2071 15.7929C17.1967 15.7825 17.1862 15.7724 17.1754 15.7626C18.3181 14.3152 19 12.4872 19 10.5C19 5.80558 15.1944 2 10.5 2C5.80558 2 2 5.80558 2 10.5C2 15.1944 5.80558 19 10.5 19ZM10.5 17C14.0899 17 17 14.0899 17 10.5C17 6.91015 14.0899 4 10.5 4C6.91015 4 4 6.91015 4 10.5C4 14.0899 6.91015 17 10.5 17ZM12.3003 6.58851C12.1298 6.21092 11.7442 5.97755 11.3306 6.00171C10.917 6.02587 10.5611 6.30256 10.4358 6.69743L9.01983 11.1576L8.75021 10.5383C8.59135 10.1735 8.23128 9.93751 7.83333 9.93751H6.5C5.94772 9.93751 5.5 10.3852 5.5 10.9375C5.5 11.4898 5.94772 11.9375 6.5 11.9375H7.17804L8.24979 14.3992C8.41616 14.7813 8.80206 15.0202 9.21826 14.9987C9.63446 14.9772 9.99369 14.6998 10.1198 14.3026L11.5519 9.79129L12.2553 11.349C12.417 11.7072 12.7736 11.9375 13.1667 11.9375H14.5C15.0523 11.9375 15.5 11.4898 15.5 10.9375C15.5 10.3852 15.0523 9.93751 14.5 9.93751H13.8124L12.3003 6.58851Z" fill="currentColor"/>
</svg>
