<svg width="24" height="24" viewBox="0 0 24 24" fill="none" xmlns="http://www.w3.org/2000/svg">
<path fill-rule="evenodd" clip-rule="evenodd" d="M14.9996 1C12.8457 1 11.0996 2.74609 11.0996 4.9C11.0996 5.9974 11.598 6.95443 12.266 7.82174C12.8237 8.54589 13.5375 9.25346 14.2461 9.95596L14.2461 9.95597C14.38 10.0887 14.5137 10.2212 14.6461 10.3536C14.8413 10.5488 15.1579 10.5488 15.3532 10.3536C15.4855 10.2212 15.6191 10.0888 15.7529 9.95619L15.7531 9.95597C16.4618 9.25347 17.1756 8.5459 17.7332 7.82174C18.4012 6.95443 18.8996 5.9974 18.8996 4.9C18.8996 2.74609 17.1535 1 14.9996 1ZM15 6C15.8284 6 16.5 5.32843 16.5 4.5C16.5 3.67157 15.8284 3 15 3C14.1716 3 13.5 3.67157 13.5 4.5C13.5 5.32843 14.1716 6 15 6ZM2.71391 20.2133L8.42782 21.9193C8.80113 22.0308 9.19887 22.0308 9.57218 21.9193L15.6584 20.1022C15.8793 20.0362 16.1163 20.0486 16.3291 20.1373L20.6154 21.9232C21.2741 22.1977 22 21.7138 22 21.0002V5.70965C22 5.28471 21.7314 4.90617 21.3304 4.76579L19.385 4.08492C19.4602 4.41121 19.5 4.75106 19.5 5.10019C19.5 6.36328 18.9266 7.47031 18.1461 8.4837C17.494 9.33052 16.6593 10.158 15.8254 10.9846L15.8254 10.9846L15.8253 10.9847L15.8246 10.9855C15.6671 11.1415 15.5097 11.2976 15.3536 11.4538C15.1583 11.649 14.8417 11.649 14.6464 11.4538C14.4902 11.2975 14.3326 11.1413 14.175 10.9851L14.1749 10.985L14.1746 10.9846L14.1746 10.9846L14.1746 10.9846C13.3407 10.158 12.506 9.33051 11.8539 8.4837C11.0734 7.47031 10.5 6.36328 10.5 5.10019C10.5 4.91064 10.5117 4.72383 10.5345 4.54044L9.61567 4.81618C9.21531 4.93634 8.78736 4.92803 8.39196 4.79243L3.32441 3.05448C2.67532 2.83187 2 3.31421 2 4.0004V19.2551C2 19.6972 2.29029 20.0868 2.71391 20.2133ZM16 13C15.4477 13 15 13.4477 15 14V17C15 17.5523 15.4477 18 16 18C16.5523 18 17 17.5523 17 17V14C17 13.4477 16.5523 13 16 13ZM8 8C8 7.44771 8.44772 7 9 7C9.55228 7 10 7.44772 10 8V19C10 19.5523 9.55228 20 9 20C8.44772 20 8 19.5523 8 19V8Z" fill="currentColor"/>
</svg>
