<svg width="24" height="24" viewBox="0 0 24 24" fill="none" xmlns="http://www.w3.org/2000/svg">
<path fill-rule="evenodd" clip-rule="evenodd" d="M12 1C5.92487 1 1 5.92487 1 12C1 18.0751 5.92487 23 12 23C18.0751 23 23 18.0751 23 12C23 5.92487 18.0751 1 12 1ZM10.3333 7.5V9.83333C10.3333 10.1095 10.1095 10.3333 9.83333 10.3333H7.5C7.22386 10.3333 7 10.5572 7 10.8333V13.1667C7 13.4428 7.22386 13.6667 7.5 13.6667H9.83333C10.1095 13.6667 10.3333 13.8905 10.3333 14.1667V16.5C10.3333 16.7761 10.5572 17 10.8333 17H13.1667C13.4428 17 13.6667 16.7761 13.6667 16.5V14.1667C13.6667 13.8905 13.8905 13.6667 14.1667 13.6667H16.5C16.7761 13.6667 17 13.4428 17 13.1667V10.8333C17 10.5572 16.7761 10.3333 16.5 10.3333H14.1667C13.8905 10.3333 13.6667 10.1095 13.6667 9.83333V7.5C13.6667 7.22386 13.4428 7 13.1667 7H10.8333C10.5572 7 10.3333 7.22386 10.3333 7.5Z" fill="currentColor"/>
</svg>
