<svg width="24" height="24" viewBox="0 0 24 24" fill="none" xmlns="http://www.w3.org/2000/svg">
<path fill-rule="evenodd" clip-rule="evenodd" d="M10 5C10 6.67869 8.96592 8.11585 7.5 8.70924V11L11.9976 11H12L16.5 11L16.5 8.70924C15.0341 8.11585 14 6.67869 14 5C14 2.79086 15.7909 1 18 1C20.2091 1 22 2.79086 22 5C22 6.67869 20.9659 8.11585 19.5 8.70924L19.5 12.5C19.5 13.3284 18.8284 14 18 14L13.5 14L13.5 17H17C17.5523 17 18 17.4477 18 18V22C18 22.5523 17.5523 23 17 23H7C6.44771 23 6 22.5523 6 22V18C6 17.4477 6.44772 17 7 17H10.5L10.5 14L6 14C5.17157 14 4.5 13.3284 4.5 12.5L4.5 8.70924C3.03409 8.11585 2 6.67869 2 5C2 2.79086 3.79086 1 6 1C8.20914 1 10 2.79086 10 5Z" fill="currentColor"/>
</svg>
