<svg width="24" height="24" viewBox="0 0 24 24" fill="none" xmlns="http://www.w3.org/2000/svg">
<path fill-rule="evenodd" clip-rule="evenodd" d="M11.6534 3.86882C12.0629 3.63545 12.2538 3.14787 12.1117 2.69851C11.9696 2.24916 11.5331 1.96002 11.0639 2.0045C5.97795 2.48672 2 6.76807 2 11.9797C2 17.5138 6.48627 22 12.0204 22C17.2317 22 21.5129 18.0225 21.9955 12.937C22.0401 12.4678 21.7509 12.0312 21.3016 11.8891C20.8523 11.747 20.3647 11.9378 20.1313 12.3473C19.0599 14.2266 17.0401 15.4901 14.7265 15.4901C11.2933 15.4901 8.51018 12.707 8.51018 9.27382C8.51018 6.96004 9.77384 4.94015 11.6534 3.86882Z" fill="currentColor"/>
</svg>
