<svg width="24" height="24" viewBox="0 0 24 24" fill="none" xmlns="http://www.w3.org/2000/svg">
<path fill-rule="evenodd" clip-rule="evenodd" d="M5 2C3.34315 2 2 3.34315 2 5V19C2 20.6569 3.34315 22 5 22H19C20.6569 22 22 20.6569 22 19V5C22 3.34315 20.6569 2 19 2H5ZM7.73243 8.13699C7.93425 8.33881 8.1717 8.43973 8.44476 8.43973H13.6626C13.6863 8.43973 13.6982 8.4516 13.6982 8.47534C13.6982 8.49909 13.6863 8.52283 13.6626 8.54658C11.8343 11.4434 10.2612 14.6073 8.94339 18.0384C8.84841 18.2758 8.87215 18.4954 9.01462 18.6973C9.15708 18.8991 9.35297 19 9.60229 19H10.8132C11.1101 19 11.3831 18.911 11.6324 18.7329C11.8817 18.5548 12.0539 18.3233 12.1489 18.0384C13.2411 14.8329 14.547 11.9183 16.0667 9.29452C16.3991 8.70091 16.5653 8.07763 16.5653 7.42466V7.01507C16.5653 6.74201 16.4644 6.50457 16.2626 6.30274C16.0726 6.10091 15.8411 6 15.568 6H8.44476C8.1717 6 7.93425 6.10091 7.73243 6.30274C7.5306 6.50457 7.42969 6.74201 7.42969 7.01507V7.42466C7.42969 7.69772 7.5306 7.93516 7.73243 8.13699Z" fill="currentColor"/>
</svg>
