<svg width="24" height="24" viewBox="0 0 24 24" fill="none" xmlns="http://www.w3.org/2000/svg">
<path fill-rule="evenodd" clip-rule="evenodd" d="M4 5C4 4.44772 4.44772 4 5 4H12C12.5523 4 13 3.55228 13 3C13 2.44772 12.5523 2 12 2H5C3.34315 2 2 3.34315 2 5V19C2 20.6569 3.34315 22 5 22H19C20.6569 22 22 20.6569 22 19V12C22 11.4477 21.5523 11 21 11C20.4477 11 20 11.4477 20 12V19C20 19.5523 19.5523 20 19 20H5C4.44772 20 4 19.5523 4 19V5ZM10.8401 9.17045C10.9609 8.79518 11.1693 8.45405 11.448 8.17529L16.8912 2.73213C17.8609 1.76247 19.433 1.76247 20.4027 2.73213L21.2719 3.60142C22.2416 4.57108 22.2416 6.14322 21.2719 7.11289L15.8288 12.5561C15.55 12.8348 15.2089 13.0432 14.8336 13.1639L12.5202 13.9084C11.0262 14.3891 9.61498 12.9778 10.0957 11.4839L10.8401 9.17045ZM12.8622 9.58951C12.808 9.64373 12.7675 9.71008 12.744 9.78308L12.0432 11.9609L14.221 11.2601C14.294 11.2366 14.3603 11.1961 14.4146 11.1418L17.7266 7.82983L16.1742 6.2775L12.8622 9.58951ZM19.8577 5.69868L19.1408 6.41562L17.5885 4.86328L18.3054 4.14635C18.494 3.95773 18.7998 3.95773 18.9884 4.14635L19.8577 5.01563C20.0463 5.20425 20.0463 5.51006 19.8577 5.69868Z" fill="currentColor"/>
</svg>
