<svg width="24" height="24" viewBox="0 0 24 24" fill="none" xmlns="http://www.w3.org/2000/svg">
<path d="M9.86195 2H8.41208C7.74578 2 7.26584 2.63934 7.45183 3.27915L9.27576 9.5533H5.32956L4.35425 7.56042C4.18639 7.21745 3.83788 7 3.45604 7H1.58013C1.2489 7 1.00922 7.31623 1.09874 7.63513L2.32617 12.0078L1.09911 16.3644C1.00927 16.6834 1.24898 17 1.58039 17H3.45613C3.83793 17 4.1864 16.7826 4.35428 16.4397L5.32956 14.4476H9.27576L7.45188 20.7208C7.26586 21.3606 7.74581 22 8.41212 22H9.86196C10.3966 22 10.8907 21.7155 11.1592 21.2531L15.08 14.5H19.2167C19.7893 14.5 20.3627 14.4261 20.8881 14.1984C21.7766 13.8134 23.08 13.0668 23.08 12C23.08 10.9332 21.7766 10.1866 20.8881 9.80156C20.3627 9.5739 19.7893 9.5 19.2167 9.5H15.08L11.1592 2.74685C10.8907 2.28452 10.3966 2 9.86195 2Z" fill="currentColor"/>
</svg>
