<svg width="24" height="24" viewBox="0 0 24 24" fill="none" xmlns="http://www.w3.org/2000/svg">
<path fill-rule="evenodd" clip-rule="evenodd" d="M10.6386 4.53012C10.6386 2.58049 12.219 1 14.1687 1C16.1183 1 17.6988 2.58049 17.6988 4.53012V5.44444H21C22.1046 5.44444 23 6.33988 23 7.44445V10.4946C23 11.2646 22.3757 11.8889 21.6057 11.8889H20.3787C19.431 11.8889 18.6627 12.6572 18.6627 13.6049C18.6627 14.5527 19.431 15.321 20.3787 15.321H21.6057C22.3757 15.321 23 15.9452 23 16.7153V21C23 22.1046 22.1046 23 21 23H17.0579C16.3073 23 15.6988 22.3915 15.6988 21.6409V20.5795C15.6988 19.7344 15.0137 19.0494 14.1687 19.0494C13.3236 19.0494 12.6386 19.7344 12.6386 20.5795V21.6409C12.6386 22.3915 12.03 23 11.2794 23H7.57831C6.47374 23 5.57831 22.1046 5.57831 21V17.321H4.71605C2.66373 17.321 1 15.6573 1 13.6049C1 11.5526 2.66373 9.88889 4.71605 9.88889H5.57831V7.44444C5.57831 6.33988 6.47374 5.44444 7.57831 5.44444H10.6386V4.53012Z" fill="currentColor"/>
</svg>
