<svg width="24" height="24" viewBox="0 0 24 24" fill="none" xmlns="http://www.w3.org/2000/svg">
<path fill-rule="evenodd" clip-rule="evenodd" d="M3 12C3 7.02944 7.02944 3 12 3C16.9706 3 21 7.02944 21 12C21 16.9706 16.9706 21 12 21C7.02944 21 3 16.9706 3 12ZM12 1C5.92487 1 1 5.92487 1 12C1 18.0751 5.92487 23 12 23C18.0751 23 23 18.0751 23 12C23 5.92487 18.0751 1 12 1ZM13.0002 17C13.0002 17.5523 12.5525 18 12.0002 18C11.4479 18 11.0002 17.5523 11.0002 17C11.0002 16.4477 11.4479 16 12.0002 16C12.5525 16 13.0002 16.4477 13.0002 17Z" fill="currentColor"/>
<path d="M12.0002 8C11.0095 8 10.2928 8.65093 9.89465 9.44721C9.64766 9.94119 9.04698 10.1414 8.55301 9.89443C8.05903 9.64744 7.8588 9.04676 8.10579 8.55279C8.70765 7.34907 9.99093 6 12.0002 6C12.9633 6 13.9591 6.3199 14.7271 7.00259C15.5135 7.70164 16.0002 8.72864 16.0002 10C16.0002 11.5309 14.8653 12.5418 14.0549 13.0821C13.6193 13.3725 13.1908 13.586 12.8751 13.7263C12.7159 13.7971 12.5818 13.8508 12.4851 13.8876C12.4367 13.906 12.3975 13.9203 12.3689 13.9305L12.3342 13.9427L12.3231 13.9464L12.3192 13.9478L12.3177 13.9483L12.3164 13.9487C11.7925 14.1233 11.2262 13.8402 11.0515 13.3162C10.8771 12.793 11.1593 12.2275 11.6818 12.052L11.6829 12.0517L11.6989 12.0461C11.7143 12.0406 11.7395 12.0315 11.7731 12.0186C11.8406 11.9929 11.9408 11.9529 12.0628 11.8987C12.3097 11.789 12.6312 11.6275 12.9455 11.4179C13.6351 10.9582 14.0002 10.4691 14.0002 10C14.0002 9.27136 13.7369 8.79836 13.3984 8.49741C13.0414 8.1801 12.5371 8 12.0002 8Z" fill="currentColor"/>
</svg>
