<svg width="24" height="24" viewBox="0 0 24 24" fill="none" xmlns="http://www.w3.org/2000/svg">
<path fill-rule="evenodd" clip-rule="evenodd" d="M12 1C5.92487 1 1 5.92487 1 12C1 18.0751 5.92487 23 12 23C18.0751 23 23 18.0751 23 12C23 5.92487 18.0751 1 12 1ZM9.89465 9.44721C10.2928 8.65093 11.0095 8 12.0002 8C12.5371 8 13.0414 8.1801 13.3984 8.49741C13.7369 8.79836 14.0002 9.27136 14.0002 10C14.0002 10.4691 13.6351 10.9582 12.9455 11.4179C12.6312 11.6275 12.3097 11.789 12.0628 11.8987C11.9408 11.9529 11.8406 11.9929 11.7731 12.0186C11.7395 12.0315 11.7143 12.0406 11.6989 12.0461L11.6829 12.0517L11.6818 12.052C11.1593 12.2275 10.8771 12.793 11.0515 13.3162C11.2262 13.8402 11.7925 14.1233 12.3164 13.9487L12.3177 13.9483L12.3192 13.9478L12.3231 13.9464L12.3342 13.9427L12.3689 13.9305C12.3975 13.9203 12.4367 13.906 12.4851 13.8876C12.5818 13.8508 12.7159 13.7971 12.8751 13.7263C13.1908 13.586 13.6193 13.3725 14.0549 13.0821C14.8653 12.5418 16.0002 11.5309 16.0002 10C16.0002 8.72864 15.5135 7.70164 14.7271 7.00259C13.9591 6.3199 12.9633 6 12.0002 6C9.99093 6 8.70765 7.34907 8.10579 8.55279C7.8588 9.04676 8.05903 9.64744 8.55301 9.89443C9.04698 10.1414 9.64766 9.94119 9.89465 9.44721ZM12 18C12.5523 18 13 17.5523 13 17C13 16.4477 12.5523 16 12 16C11.4477 16 11 16.4477 11 17C11 17.5523 11.4477 18 12 18Z" fill="currentColor"/>
</svg>
