<svg width="24" height="24" viewBox="0 0 24 24" fill="none" xmlns="http://www.w3.org/2000/svg">
<path fill-rule="evenodd" clip-rule="evenodd" d="M4.48032 4.62192L3.62552 7.76712C3.62552 7.78904 3.63283 7.81096 3.64744 7.83288C3.66205 7.84749 3.68032 7.85479 3.70223 7.85479H5.28032C5.30223 7.85479 5.3205 7.84749 5.33511 7.83288C5.35703 7.81096 5.36434 7.78904 5.35703 7.76712L4.50223 4.62192C4.50223 4.61461 4.49858 4.61096 4.49128 4.61096C4.48397 4.61096 4.48032 4.61461 4.48032 4.62192ZM1.4447 11C1.29128 11 1.17073 10.9379 1.08306 10.8137C0.995386 10.6895 0.977121 10.5543 1.02826 10.4082L3.32963 3.59178C3.39539 3.41644 3.50132 3.27397 3.64744 3.16438C3.80086 3.05479 3.9689 3 4.15155 3H4.87484C5.06479 3 5.23283 3.05479 5.37895 3.16438C5.53237 3.27397 5.63831 3.41644 5.69675 3.59178L8.00908 10.4082C8.06023 10.5543 8.03831 10.6895 7.94333 10.8137C7.85566 10.9379 7.73511 11 7.58169 11H6.84744C6.6721 11 6.50771 10.9452 6.35429 10.8356C6.20817 10.7187 6.10954 10.5726 6.0584 10.3973L5.78443 9.35616C5.77712 9.29772 5.73694 9.26849 5.66388 9.26849H3.31867C3.25292 9.26849 3.21274 9.29772 3.19813 9.35616L2.92415 10.3973C2.88032 10.5726 2.78169 10.7187 2.62826 10.8356C2.48214 10.9452 2.31776 11 2.13511 11H1.4447ZM11 3C10.4477 3 10 3.44772 10 4V10C10 10.5523 10.4477 11 11 11H22C22.5523 11 23 10.5523 23 10V4C23 3.44772 22.5523 3 22 3H11ZM11 13C10.4477 13 10 13.4477 10 14V20C10 20.5523 10.4477 21 11 21H22C22.5523 21 23 20.5523 23 20V14C23 13.4477 22.5523 13 22 13H11ZM3.78133 19.464V17.5867C3.78133 17.5227 3.80978 17.4907 3.86667 17.4907H4.28267C5.34933 17.4907 5.88267 17.8178 5.88267 18.472C5.88267 18.8631 5.76533 19.1547 5.53067 19.3467C5.296 19.5316 4.92622 19.624 4.42133 19.624C4.208 19.624 4.02667 19.6098 3.87733 19.5813C3.81333 19.5671 3.78133 19.528 3.78133 19.464ZM3.78133 16.104V14.536C3.78133 14.472 3.80978 14.4329 3.86667 14.4187C4.00889 14.3902 4.18311 14.376 4.38933 14.376C5.25689 14.376 5.69067 14.6711 5.69067 15.2613C5.69067 15.88 5.17156 16.1893 4.13333 16.1893H3.86667C3.80978 16.1893 3.78133 16.1609 3.78133 16.104ZM2.17067 20.6907C2.28444 20.8258 2.42667 20.9004 2.59733 20.9147C3.20178 20.9716 3.78489 21 4.34667 21C5.46311 21 6.28089 20.808 6.8 20.424C7.32622 20.0329 7.58933 19.4427 7.58933 18.6533C7.58933 18.1698 7.42222 17.7538 7.088 17.4053C6.76089 17.0569 6.31644 16.8436 5.75467 16.7653C5.74044 16.7653 5.73333 16.7618 5.73333 16.7547C5.73333 16.7404 5.73689 16.7333 5.744 16.7333C6.22756 16.648 6.61156 16.4489 6.896 16.136C7.18756 15.8231 7.33333 15.4427 7.33333 14.9947C7.33333 13.6649 6.30222 13 4.24 13C3.70667 13 3.16267 13.0284 2.608 13.0853C2.43733 13.0996 2.29156 13.1742 2.17067 13.3093C2.05689 13.4373 2 13.5902 2 13.768V20.232C2 20.4027 2.05689 20.5556 2.17067 20.6907Z" fill="currentColor"/>
</svg>
