<svg width="24" height="24" viewBox="0 0 24 24" fill="none" xmlns="http://www.w3.org/2000/svg">
<path d="M13.4142 10.6274C13.8048 11.0179 14.4379 11.0179 14.8284 10.6274C15.219 10.2369 15.219 9.60373 14.8284 9.21321C14.4379 8.82269 13.8048 8.82269 13.4142 9.21321C13.0237 9.60373 13.0237 10.2369 13.4142 10.6274Z" fill="currentColor"/>
<path fill-rule="evenodd" clip-rule="evenodd" d="M2 5C2 3.34315 3.34315 2 5 2H19C20.6569 2 22 3.34315 22 5V19C22 20.6569 20.6569 22 19 22H5L4.99095 22H7.65685C5.77994 21.5789 5.46721 19.0362 7.18615 18.1729L8.71751 17.4038L6.59619 15.2825L5.86581 16.7796C5.0139 18.5258 2.44117 18.2353 2 16.3431V5ZM13.0399 15.2028C17.3033 14.4749 20.1526 6.01043 19.0711 4.92894C17.9896 3.84745 9.52514 6.69671 8.79722 10.9602L7.20504 10.9759C6.8856 10.9791 6.5869 11.1347 6.40122 11.3947L5.09968 13.2168C5.0177 13.3316 5.07708 13.4929 5.21392 13.5271L7.75737 14.163L9.87869 16.2843L10.5146 18.8277C10.5488 18.9646 10.7101 19.024 10.8248 18.942L12.6369 17.6476C12.9025 17.4579 13.0588 17.1506 13.0556 16.8242L13.0399 15.2028Z" fill="currentColor"/>
</svg>
