<svg width="24" height="24" viewBox="0 0 24 24" fill="none" xmlns="http://www.w3.org/2000/svg">
<path d="M14.8284 10.6274C14.4379 11.0179 13.8048 11.0179 13.4142 10.6274C13.0237 10.2369 13.0237 9.60373 13.4142 9.21321C13.8048 8.82269 14.4379 8.82269 14.8284 9.21321C15.219 9.60373 15.219 10.2369 14.8284 10.6274Z" fill="currentColor"/>
<path fill-rule="evenodd" clip-rule="evenodd" d="M5 2C3.34315 2 2 3.34315 2 5V19C2 20.6569 3.34315 22 5 22H19C20.6569 22 22 20.6569 22 19V5C22 3.34315 20.6569 2 19 2H5ZM4.71614 19.0671C4.65393 19.2288 4.81286 19.3878 4.9746 19.3255L7.2841 18.4373C8.16198 18.0996 8.40166 16.9702 7.73658 16.3051C7.07149 15.64 5.94205 15.8797 5.60441 16.7576L4.71614 19.0671ZM19.071 4.92894C20.1525 6.01044 17.3033 14.4749 13.0398 15.2028L13.0556 16.8242C13.0588 17.1506 12.9025 17.4579 12.6369 17.6476L10.8248 18.942C10.71 19.024 10.5487 18.9646 10.5145 18.8277L9.87868 16.2843L7.75736 14.163L5.2139 13.5271C5.07707 13.4929 5.01768 13.3316 5.09966 13.2168L6.4012 11.3947C6.58688 11.1347 6.88559 10.9791 7.20503 10.9759L8.79721 10.9602C9.52513 6.69671 17.9896 3.84745 19.071 4.92894Z" fill="currentColor"/>
</svg>
