<svg width="24" height="24" viewBox="0 0 24 24" fill="none" xmlns="http://www.w3.org/2000/svg">
<path fill-rule="evenodd" clip-rule="evenodd" d="M7.36405 9.15307C8.86063 3.16677 20.1647 1.00167 21.5815 2.41848C22.9983 3.83529 20.8332 15.1394 14.8469 16.6359C15.6617 17.8581 15.2895 19.5132 14.03 20.2689L11.2417 21.9419C10.9966 22.0889 10.6805 21.9429 10.6335 21.661L9.98306 17.7584L6.24162 14.0169L2.33896 13.3665C2.05707 13.3195 1.91107 13.0034 2.0581 12.7583L3.73108 9.97C4.48679 8.71048 6.14191 8.33831 7.36405 9.15307ZM15.4092 10.7103C14.8233 11.2963 13.8733 11.2963 13.2873 10.7103C12.7014 10.1244 12.7014 9.1744 13.2873 8.58845C13.8733 8.00251 14.8233 8.00251 15.4092 8.58845C15.9952 9.1744 15.9952 10.1244 15.4092 10.7103ZM3.12669 21.2714C2.89051 21.3546 2.64623 21.1103 2.72942 20.8741L3.9172 17.5019C4.36869 16.22 6.02868 15.9276 7.05093 16.9499C8.07319 17.9721 7.78079 19.6321 6.49894 20.0836L3.12669 21.2714Z" fill="currentColor"/>
</svg>
