<svg width="24" height="24" viewBox="0 0 24 24" fill="none" xmlns="http://www.w3.org/2000/svg">
<path fill-rule="evenodd" clip-rule="evenodd" d="M13 4C13 3.44772 12.5523 3 12 3C11.4477 3 11 3.44772 11 4V6H4C3.44772 6 3 6.44772 3 7C3 7.46647 3.31939 7.85835 3.75142 7.96886C3.50724 8.16347 3.30195 8.4241 3.16197 8.75074L1.08111 13.6061C1.026 13.7347 0.999935 13.8684 1 14C1 15.0609 1.42143 16.0783 2.17157 16.8284C2.92172 17.5786 3.93913 18 5 18C6.06087 18 7.07828 17.5786 7.82843 16.8284C8.57004 16.0868 8.99037 15.084 8.99984 14.0362C9.00512 13.893 8.97958 13.7465 8.9194 13.6061L6.83855 8.75074C6.70589 8.44121 6.51461 8.19097 6.28716 8H11V19H9C8.44772 19 8 19.4477 8 20C8 20.5523 8.44772 21 9 21H15C15.5523 21 16 20.5523 16 20C16 19.4477 15.5523 19 15 19H13V8H17.7134C17.4859 8.19097 17.2946 8.44121 17.162 8.75074L15.0811 13.6061C15.026 13.7347 14.9999 13.8684 15 14C15 15.0609 15.4214 16.0783 16.1716 16.8284C16.9217 17.5786 17.9391 18 19 18C20.0609 18 21.0783 17.5786 21.8284 16.8284C22.57 16.0868 22.9904 15.084 22.9998 14.0362C23.0051 13.893 22.9796 13.7465 22.9194 13.6061L20.8385 8.75074C20.6985 8.42404 20.4932 8.16338 20.249 7.96876C20.6808 7.85811 21 7.46633 21 7C21 6.44772 20.5523 6 20 6H13V4ZM20.9123 14L19.0003 9.53857L17.0882 14H19H20.9123ZM6.9123 14L5.00026 9.53857L3.08822 14H5H6.9123Z" fill="currentColor"/>
</svg>
