<svg width="24" height="24" viewBox="0 0 24 24" fill="none" xmlns="http://www.w3.org/2000/svg">
<path fill-rule="evenodd" clip-rule="evenodd" d="M5.61516 2.54883L2.11275 9.55268C1.78025 10.2176 2.26374 10.9999 3.00715 10.9999H10.0111C10.7544 10.9999 11.2379 10.2177 10.9055 9.55277L7.40401 2.54892C7.03553 1.81186 5.98373 1.8118 5.61516 2.54883ZM13 3C13 2.44772 13.4477 2 14 2H21C21.5523 2 22 2.44772 22 3V10C22 10.5523 21.5523 11 21 11H14C13.4477 11 13 10.5523 13 10V3ZM11 17.5C11 19.9853 8.98528 22 6.5 22C4.01472 22 2 19.9853 2 17.5C2 15.0147 4.01472 13 6.5 13C8.98528 13 11 15.0147 11 17.5ZM17.9251 13.2588C17.7416 12.9137 17.2586 12.9137 17.0752 13.2588L15.9505 15.3746C15.8814 15.5046 15.7593 15.5962 15.6176 15.6243L13.3924 16.067C13.0229 16.1405 12.8729 16.5995 13.1245 16.8866L14.6675 18.6472C14.7619 18.7549 14.8057 18.8995 14.7875 19.0431L14.4846 21.4386C14.4353 21.8284 14.826 22.1197 15.1722 21.9511L17.2925 20.9185C17.4239 20.8546 17.5763 20.8546 17.7077 20.9185L19.8281 21.9511C20.1742 22.1197 20.565 21.8284 20.5157 21.4386L20.2127 19.0431C20.1945 18.8995 20.2384 18.7549 20.3328 18.6472L21.8755 16.8866C22.1271 16.5995 21.9771 16.1405 21.6077 16.067L19.3826 15.6244C19.2409 15.5962 19.1189 15.5046 19.0498 15.3746L17.9251 13.2588Z" fill="currentColor"/>
</svg>
