<svg width="24" height="24" viewBox="0 0 24 24" fill="none" xmlns="http://www.w3.org/2000/svg">
<path fill-rule="evenodd" clip-rule="evenodd" d="M14 5C14 2.79086 15.7909 1 18 1C20.2091 1 22 2.79086 22 5C22 7.20914 20.2091 9 18 9C16.8887 9 15.8833 8.54685 15.1585 7.81526L9.85018 10.9118C9.94778 11.2577 10 11.6228 10 12C10 12.3772 9.94778 12.7423 9.85018 13.0883L15.1585 16.1848C15.8833 15.4532 16.8887 15 18 15C20.2091 15 22 16.7909 22 19C22 21.2091 20.2091 23 18 23C15.7909 23 14 21.2091 14 19C14 18.6228 14.0522 18.2578 14.1498 17.9118L8.84151 14.8153C8.11664 15.5469 7.11124 16 6 16C3.79086 16 2 14.2091 2 12C2 9.79086 3.79086 8 6 8C7.11125 8 8.11666 8.45314 8.84152 9.18473L14.1498 6.08823C14.0522 5.74224 14 5.37722 14 5Z" fill="currentColor"/>
</svg>
