<svg width="24" height="24" viewBox="0 0 24 24" fill="none" xmlns="http://www.w3.org/2000/svg">
<path fill-rule="evenodd" clip-rule="evenodd" d="M12.448 7.17529C12.1693 7.45405 11.9609 7.79518 11.8401 8.17045L11.0957 10.4839C10.615 11.9778 12.0262 13.3891 13.5202 12.9084L15.8336 12.1639C16.2089 12.0432 16.55 11.8348 16.8288 11.5561L22.2719 6.11289C23.2416 5.14322 23.2416 3.57108 22.2719 2.60142L21.4027 1.73213C20.433 0.762466 18.8609 0.762466 17.8912 1.73213L12.448 7.17529ZM13.744 8.78308C13.7675 8.71008 13.808 8.64373 13.8622 8.58951L17.1742 5.2775L18.7266 6.82983L15.4146 10.1418C15.3603 10.1961 15.294 10.2366 15.221 10.2601L13.0432 10.9609L13.744 8.78308ZM20.1408 5.41562L20.8577 4.69868C21.0463 4.51006 21.0463 4.20425 20.8577 4.01563L19.9884 3.14635C19.7998 2.95773 19.494 2.95773 19.3054 3.14635L18.5885 3.86328L20.1408 5.41562ZM6.99318 18.1137L6.99397 18.1072L6.99813 18.0745C7.0021 18.0442 7.00849 17.9977 7.01758 17.9376C7.03581 17.817 7.06471 17.6431 7.10653 17.4363C7.19139 17.0167 7.32412 16.489 7.51679 16.0044C7.7185 15.4971 7.94139 15.1522 8.14499 14.9825C8.23359 14.9087 8.29771 14.8855 8.34255 14.8777C8.38457 14.8705 8.4719 14.8657 8.62829 14.9282C8.77318 14.9862 8.80533 15.041 8.83546 15.1104C8.89443 15.246 8.91974 15.421 8.9657 15.7866L8.96982 15.8196C9.00573 16.1079 9.0679 16.6071 9.32284 17.0392C9.64715 17.5889 10.1868 17.9062 10.8756 17.9923C11.5859 18.0811 12.1593 17.8613 12.5935 17.4798C12.942 17.1736 13.1837 16.7708 13.3356 16.5176L13.3634 16.4714C13.5544 16.1545 13.6399 16.0357 13.712 15.9764L13.7188 15.971C13.7311 15.9705 13.7569 15.9712 13.8003 15.9797C13.8061 15.9849 13.8168 15.9956 13.8322 16.0149C13.9026 16.1033 13.9671 16.229 14.0952 16.4899L14.1225 16.5461C14.3178 16.9505 14.7806 17.9089 15.923 17.9968C16.3491 18.0296 16.7432 17.9223 17.0483 17.8013C17.3613 17.6771 17.6467 17.5117 17.8772 17.3594C18.1107 17.2052 18.3086 17.0508 18.4475 16.9357C18.5176 16.8776 18.5743 16.8282 18.6148 16.7921C18.6351 16.774 18.6514 16.7592 18.6635 16.7482L18.6782 16.7345L18.6832 16.7299L18.6857 16.7275C19.0872 16.3482 19.1059 15.7147 18.7266 15.3132C18.3475 14.9118 17.7148 14.8937 17.3133 15.2727L17.3101 15.2756C17.307 15.2784 17.3025 15.2826 17.2965 15.2879C17.2929 15.2912 17.2887 15.295 17.2841 15.2991C17.2594 15.3211 17.2211 15.3545 17.1717 15.3954C17.0717 15.4783 16.9328 15.5864 16.7751 15.6905C16.6145 15.7966 16.4543 15.8853 16.3106 15.9423C16.2403 15.9702 16.1834 15.9867 16.1401 15.9953C16.1277 15.9978 16.1171 15.9995 16.1082 16.0006C16.0609 15.9405 16.0018 15.8353 15.8905 15.6086C15.8794 15.5858 15.8671 15.5601 15.8537 15.5318C15.6639 15.1333 15.2322 14.2265 14.1958 14.0192C13.4972 13.8795 12.9038 14.0515 12.4414 14.4318C12.074 14.7341 11.8254 15.1478 11.6727 15.402L11.6505 15.4389C11.4586 15.7572 11.3658 15.8962 11.2735 15.9772L11.2666 15.9835C11.2427 16.0053 11.226 16.0205 11.1237 16.0078C11.0804 16.0023 11.0512 15.9964 11.0323 15.9916C11.0252 15.9713 11.0167 15.9427 11.0075 15.9029C10.9864 15.8109 10.9706 15.7001 10.9501 15.5372L10.9417 15.4693C10.907 15.1847 10.8517 14.7318 10.6697 14.3131C10.4436 13.7929 10.037 13.3376 9.37107 13.0713C8.91936 12.8906 8.45688 12.8284 8.00229 12.9069C7.55053 12.9849 7.17124 13.1905 6.86458 13.4461C6.27764 13.9352 5.90255 14.6512 5.6583 15.2655C5.40502 15.9025 5.24381 16.5573 5.14622 17.0398C5.09683 17.284 5.06237 17.491 5.04006 17.6386C5.02888 17.7125 5.02069 17.7719 5.01516 17.8141L5.00613 17.8865C4.94349 18.4352 5.33755 18.9308 5.88627 18.9934C6.43484 19.0561 6.93033 18.6622 6.99318 18.1137ZM11.0099 15.9847C11.0057 15.9821 11.0027 15.9812 11.0027 15.9812L11.0044 15.9823C11.0044 15.9823 11.0073 15.9837 11.0099 15.9847ZM4 9C4 8.44772 4.44772 8 5 8H10C10.5523 8 11 7.55228 11 7C11 6.44772 10.5523 6 10 6H5C3.34315 6 2 7.34315 2 9V19C2 20.6569 3.34315 22 5 22H19C20.6569 22 22 20.6569 22 19V14C22 13.4477 21.5523 13 21 13C20.4477 13 20 13.4477 20 14V19C20 19.5523 19.5523 20 19 20H5C4.44772 20 4 19.5523 4 19V9Z" fill="currentColor"/>
</svg>
