<svg width="24" height="24" viewBox="0 0 24 24" fill="none" xmlns="http://www.w3.org/2000/svg">
<path fill-rule="evenodd" clip-rule="evenodd" d="M3 18C2.44772 18 2 18.4477 2 19C2 19.5523 2.44772 20 3 20H7C7.55228 20 8 19.5523 8 19C8 18.4477 7.55228 18 7 18H3ZM2 5C2 4.44772 2.44772 4 3 4L9 4C9.55228 4 10 4.44772 10 5C10 5.55228 9.55228 6 9 6L3 6C2.44772 6 2 5.55228 2 5ZM14 12C14 11.4477 14.4477 11 15 11H21C21.5523 11 22 11.4477 22 12C22 12.5523 21.5523 13 21 13H15C14.4477 13 14 12.5523 14 12ZM15.8293 18C15.4175 16.8348 14.3062 16 13 16C11.3431 16 10 17.3431 10 19C10 20.6569 11.3431 22 13 22C14.3062 22 15.4175 21.1652 15.8293 20H21C21.5523 20 22 19.5523 22 19C22 18.4477 21.5523 18 21 18H15.8293ZM3 11C2.44772 11 2 11.4477 2 12C2 12.5523 2.44772 13 3 13H6.17071C6.58254 14.1652 7.69378 15 9 15C10.6569 15 12 13.6569 12 12C12 10.3431 10.6569 9 9 9C7.69378 9 6.58254 9.83481 6.17071 11H3ZM8 12C8 12.5523 8.44772 13 9 13C9.55228 13 10 12.5523 10 12C10 11.4477 9.55228 11 9 11C8.44772 11 8 11.4477 8 12ZM15 4C15.5523 4 16 4.44772 16 5C16 5.55228 15.5523 6 15 6C14.4477 6 14 5.55228 14 5C14 4.44772 14.4477 4 15 4ZM17.8293 4L21 4C21.5523 4 22 4.44771 22 5C22 5.55229 21.5523 6 21 6L17.8293 6C17.4175 7.16519 16.3062 8 15 8C13.3431 8 12 6.65685 12 5C12 3.34314 13.3431 2 15 2C16.3062 2 17.4175 2.83481 17.8293 4ZM13 20C12.4477 20 12 19.5523 12 19C12 18.4477 12.4477 18 13 18C13.5523 18 14 18.4477 14 19C14 19.5523 13.5523 20 13 20Z" fill="currentColor"/>
</svg>
