<svg width="24" height="24" viewBox="0 0 24 24" fill="none" xmlns="http://www.w3.org/2000/svg">
<path fill-rule="evenodd" clip-rule="evenodd" d="M12 1C9.79086 1 8 2.79086 8 5C8 6.67869 9.03408 8.11585 10.5 8.70924V11.5H6C5.17157 11.5 4.5 12.1716 4.5 13V18H3.00003C2.59557 18 2.23093 18.2436 2.07615 18.6173C1.92137 18.991 2.00692 19.4211 2.29292 19.7071L5.29292 22.7071C5.48046 22.8946 5.73481 23 6.00003 23C6.26525 23 6.5196 22.8946 6.70714 22.7071L9.70714 19.7071C9.99314 19.4211 10.0787 18.991 9.92391 18.6173C9.76913 18.2436 9.40449 18 9.00003 18H7.5V14.5H12H16.5V18H15C14.5956 18 14.2309 18.2436 14.0761 18.6173C13.9214 18.991 14.0069 19.4211 14.2929 19.7071L17.2929 22.7071C17.4805 22.8946 17.7348 23 18 23C18.2652 23 18.5196 22.8946 18.7071 22.7071L21.7071 19.7071C21.9931 19.4211 22.0787 18.991 21.9239 18.6173C21.7691 18.2436 21.4045 18 21 18H19.5V13C19.5 12.1716 18.8284 11.5 18 11.5H13.5V8.70924C14.9659 8.11585 16 6.67869 16 5C16 2.79086 14.2091 1 12 1Z" fill="currentColor"/>
</svg>
