<svg width="24" height="24" viewBox="0 0 24 24" fill="none" xmlns="http://www.w3.org/2000/svg">
<path d="M3 18C3.51768 18 3.94379 18.3933 3.99512 18.8975L4.00488 19.1025C4.05278 19.573 4.42703 19.9472 4.89746 19.9951L5.10254 20.0049C5.60667 20.0562 6 20.4823 6 21C6 21.5523 5.55228 22 5 22C3.34315 22 2 20.6569 2 19C2 18.4477 2.44772 18 3 18ZM10 20C10.5523 20 11 20.4477 11 21C11 21.5523 10.5523 22 10 22H8.5C7.94772 22 7.5 21.5523 7.5 21C7.5 20.4477 7.94772 20 8.5 20H10ZM15.5 20C16.0523 20 16.5 20.4477 16.5 21C16.5 21.5523 16.0523 22 15.5 22H14C13.4477 22 13 21.5523 13 21C13 20.4477 13.4477 20 14 20H15.5ZM21 18C21.5523 18 22 18.4477 22 19C22 20.6569 20.6569 22 19 22C18.4477 22 18 21.5523 18 21C18 20.4823 18.3933 20.0562 18.8975 20.0049L19.1025 19.9951C19.573 19.9472 19.9472 19.573 19.9951 19.1025L20.0049 18.8975C20.0562 18.3933 20.4823 18 21 18ZM3 13C3.55228 13 4 13.4477 4 14V15.5C4 16.0523 3.55228 16.5 3 16.5C2.44772 16.5 2 16.0523 2 15.5V14C2 13.4477 2.44772 13 3 13ZM21 12.5C21.5523 12.5 22 12.9477 22 13.5V15C22 15.5523 21.5523 16 21 16C20.4477 16 20 15.5523 20 15V13.5C20 12.9477 20.4477 12.5 21 12.5ZM3 7.5C3.55228 7.5 4 7.94772 4 8.5V10C4 10.5523 3.55228 11 3 11C2.44772 11 2 10.5523 2 10V8.5C2 7.94772 2.44772 7.5 3 7.5ZM21 7.5C21.5523 7.5 22 7.94772 22 8.5V10C22 10.5523 21.5523 11 21 11C20.4477 11 20 10.5523 20 10V8.5C20 7.94772 20.4477 7.5 21 7.5ZM5 2C5.55228 2 6 2.44772 6 3C6 3.51768 5.60667 3.94379 5.10254 3.99512L4.89746 4.00488C4.42703 4.05278 4.05278 4.42703 4.00488 4.89746L3.99512 5.10254C3.94379 5.60667 3.51768 6 3 6C2.44772 6 2 5.55228 2 5C2 3.34315 3.34315 2 5 2ZM19 2C20.6569 2 22 3.34315 22 5C22 5.55228 21.5523 6 21 6C20.4823 6 20.0562 5.60667 20.0049 5.10254L19.9951 4.89746C19.9472 4.42703 19.573 4.05278 19.1025 4.00488L18.8975 3.99512C18.3933 3.94379 18 3.51768 18 3C18 2.44772 18.4477 2 19 2ZM10 2C10.5523 2 11 2.44772 11 3C11 3.55228 10.5523 4 10 4H8.5C7.94772 4 7.5 3.55228 7.5 3C7.5 2.44772 7.94772 2 8.5 2H10ZM15.5 2C16.0523 2 16.5 2.44772 16.5 3C16.5 3.55228 16.0523 4 15.5 4H14C13.4477 4 13 3.55228 13 3C13 2.44772 13.4477 2 14 2H15.5Z" fill="currentColor"/>
</svg>
