<svg width="24" height="24" viewBox="0 0 24 24" fill="none" xmlns="http://www.w3.org/2000/svg">
<path fill-rule="evenodd" clip-rule="evenodd" d="M17.4673 2.29289C17.0768 1.90237 16.4436 1.90237 16.0531 2.29289L11.8105 6.53553C11.4199 6.92606 11.4199 7.55922 11.8105 7.94975L16.0531 12.1924C16.4436 12.5829 17.0768 12.5829 17.4673 12.1924L21.71 7.94975C22.1005 7.55922 22.1005 6.92606 21.71 6.53553L17.4673 2.29289ZM3 4C2.44772 4 2 4.44772 2 5V11C2 11.5523 2.44772 12 3 12H9C9.55229 12 10 11.5523 10 11V5C10 4.44772 9.55229 4 9 4H3ZM3 14C2.44772 14 2 14.4477 2 15V21C2 21.5523 2.44772 22 3 22H9C9.55229 22 10 21.5523 10 21V15C10 14.4477 9.55229 14 9 14H3ZM12 15C12 14.4477 12.4477 14 13 14H19C19.5523 14 20 14.4477 20 15V21C20 21.5523 19.5523 22 19 22H13C12.4477 22 12 21.5523 12 21V15Z" fill="currentColor"/>
</svg>
