<svg width="24" height="24" viewBox="0 0 24 24" fill="none" xmlns="http://www.w3.org/2000/svg">
<path fill-rule="evenodd" clip-rule="evenodd" d="M5 2C3.34315 2 2 3.34315 2 5V8C2 8.55228 2.44772 9 3 9C3.55228 9 4 8.55228 4 8V5C4 4.44772 4.44772 4 5 4H8C8.55228 4 9 3.55228 9 3C9 2.44772 8.55228 2 8 2H5ZM19 2C20.6569 2 22 3.34315 22 5V8C22 8.55228 21.5523 9 21 9C20.4477 9 20 8.55228 20 8V5C20 4.44772 19.5523 4 19 4H16C15.4477 4 15 3.55228 15 3C15 2.44772 15.4477 2 16 2H19ZM22 19C22 20.6569 20.6569 22 19 22H16C15.4477 22 15 21.5523 15 21C15 20.4477 15.4477 20 16 20H19C19.5523 20 20 19.5523 20 19V16C20 15.4477 20.4477 15 21 15C21.5523 15 22 15.4477 22 16V19ZM5 22C3.34315 22 2 20.6569 2 19V16C2 15.4477 2.44772 15 3 15C3.55228 15 4 15.4477 4 16V19C4 19.5523 4.44772 20 5 20H8C8.55228 20 9 20.4477 9 21C9 21.5523 8.55228 22 8 22H5ZM6 7C6 6.44772 6.44772 6 7 6H10C10.5523 6 11 6.44772 11 7V10C11 10.5523 10.5523 11 10 11H7C6.44772 11 6 10.5523 6 10V7ZM14 6C13.4477 6 13 6.44772 13 7V10C13 10.5523 13.4477 11 14 11H17C17.5523 11 18 10.5523 18 10V7C18 6.44772 17.5523 6 17 6H14ZM6 14C6 13.4477 6.44772 13 7 13H10C10.5523 13 11 13.4477 11 14V17C11 17.5523 10.5523 18 10 18H7C6.44772 18 6 17.5523 6 17V14ZM14 13C13.4477 13 13 13.4477 13 14V17C13 17.5523 13.4477 18 14 18H17C17.5523 18 18 17.5523 18 17V14C18 13.4477 17.5523 13 17 13H14Z" fill="currentColor"/>
</svg>
