<svg width="24" height="24" viewBox="0 0 24 24" fill="none" xmlns="http://www.w3.org/2000/svg">
<path fill-rule="evenodd" clip-rule="evenodd" d="M8 1C6.34315 1 5 2.34315 5 4V16C5 17.6569 6.34315 19 8 19H20C21.6569 19 23 17.6569 23 16V4C23 2.34315 21.6569 1 20 1H8ZM17.8137 7.58124C18.1347 7.13183 18.0307 6.50728 17.5812 6.18627C17.1318 5.86526 16.5073 5.96935 16.1863 6.41876L13.1224 10.7082L11.7071 9.29289C11.3166 8.90237 10.6834 8.90237 10.2929 9.29289C9.90237 9.68342 9.90237 10.3166 10.2929 10.7071L12.5429 12.9571C12.7507 13.165 13.0395 13.2708 13.3325 13.2466C13.6254 13.2223 13.8929 13.0704 14.0637 12.8312L17.8137 7.58124ZM2 5C2.55228 5 3 5.44772 3 6V18C3 19.6569 4.34315 21 6 21H18C18.5523 21 19 21.4477 19 22C19 22.5523 18.5523 23 18 23H6C3.23858 23 1 20.7614 1 18V6C1 5.44772 1.44772 5 2 5Z" fill="currentColor"/>
</svg>
