<svg width="24" height="24" viewBox="0 0 24 24" fill="none" xmlns="http://www.w3.org/2000/svg">
<path fill-rule="evenodd" clip-rule="evenodd" d="M6 10C6 6.68629 8.68629 4 12 4C15.3137 4 18 6.68629 18 10V10.5858L16.7071 9.29289C16.3166 8.90237 15.6834 8.90237 15.2929 9.29289C14.9024 9.68342 14.9024 10.3166 15.2929 10.7071L18.2929 13.7071C18.6834 14.0976 19.3166 14.0976 19.7071 13.7071L22.7071 10.7071C23.0976 10.3166 23.0976 9.68342 22.7071 9.29289C22.3166 8.90237 21.6834 8.90237 21.2929 9.29289L20 10.5858V10C20 5.58172 16.4183 2 12 2C7.58172 2 4 5.58172 4 10V13C4 13.5523 4.44772 14 5 14C5.55228 14 6 13.5523 6 13V10ZM2 18C2 16.8954 2.89543 16 4 16H6C7.10457 16 8 16.8954 8 18V20C8 21.1046 7.10457 22 6 22H4C2.89543 22 2 21.1046 2 20V18ZM16 18C16 16.8954 16.8954 16 18 16H20C21.1046 16 22 16.8954 22 18V20C22 21.1046 21.1046 22 20 22H18C16.8954 22 16 21.1046 16 20V18Z" fill="currentColor"/>
</svg>
