<svg width="24" height="24" viewBox="0 0 24 24" fill="none" xmlns="http://www.w3.org/2000/svg">
<path fill-rule="evenodd" clip-rule="evenodd" d="M2 5C2 3.34315 3.34315 2 5 2H8C8.55228 2 9 2.44772 9 3C9 3.55228 8.55228 4 8 4H5C4.44772 4 4 4.44772 4 5V8C4 8.55228 3.55228 9 3 9C2.44772 9 2 8.55228 2 8V5ZM22 5C22 3.34315 20.6569 2 19 2H16C15.4477 2 15 2.44772 15 3C15 3.55228 15.4477 4 16 4H19C19.5523 4 20 4.44772 20 5V8C20 8.55228 20.4477 9 21 9C21.5523 9 22 8.55228 22 8V5ZM19 22C20.6569 22 22 20.6569 22 19V16C22 15.4477 21.5523 15 21 15C20.4477 15 20 15.4477 20 16V19C20 19.5523 19.5523 20 19 20H16C15.4477 20 15 20.4477 15 21C15 21.5523 15.4477 22 16 22H19ZM2 19C2 20.6569 3.34315 22 5 22H8C8.55228 22 9 21.5523 9 21C9 20.4477 8.55228 20 8 20H5C4.44772 20 4 19.5523 4 19V16C4 15.4477 3.55228 15 3 15C2.44772 15 2 15.4477 2 16V19ZM9 7.50126C9 6.43775 10.0761 5.71203 11.0621 6.11055L16.0631 8.13181C17.2902 8.62778 17.3204 10.3542 16.1113 10.8927L11.1103 13.1203C11.0737 13.1366 11.0369 13.1513 11 13.1645V17C11 17.5523 10.5523 18 10 18C9.44772 18 9 17.5523 9 17V11.75V11V7.50126Z" fill="currentColor"/>
</svg>
