<svg width="24" height="24" viewBox="0 0 24 24" fill="none" xmlns="http://www.w3.org/2000/svg">
<path fill-rule="evenodd" clip-rule="evenodd" d="M2 5C2 3.34315 3.34315 2 5 2H8C8.55228 2 9 2.44772 9 3C9 3.55228 8.55228 4 8 4H5C4.44772 4 4 4.44772 4 5V8C4 8.55228 3.55228 9 3 9C2.44772 9 2 8.55228 2 8V5ZM22 5C22 3.34315 20.6569 2 19 2H16C15.4477 2 15 2.44772 15 3C15 3.55228 15.4477 4 16 4H19C19.5523 4 20 4.44772 20 5V8C20 8.55228 20.4477 9 21 9C21.5523 9 22 8.55228 22 8V5ZM19 22C20.6569 22 22 20.6569 22 19V16C22 15.4477 21.5523 15 21 15C20.4477 15 20 15.4477 20 16V19C20 19.5523 19.5523 20 19 20H16C15.4477 20 15 20.4477 15 21C15 21.5523 15.4477 22 16 22H19ZM2 19C2 20.6569 3.34315 22 5 22H8C8.55228 22 9 21.5523 9 21C9 20.4477 8.55228 20 8 20H5C4.44772 20 4 19.5523 4 19V16C4 15.4477 3.55228 15 3 15C2.44772 15 2 15.4477 2 16V19ZM8 6C6.89543 6 6 6.89543 6 8V16C6 17.1046 6.89543 18 8 18H16C17.1046 18 18 17.1046 18 16V8C18 6.89543 17.1046 6 16 6H8ZM8 8H16V16H8V8Z" fill="currentColor"/>
</svg>
