<svg width="24" height="24" viewBox="0 0 24 24" fill="none" xmlns="http://www.w3.org/2000/svg">
<path fill-rule="evenodd" clip-rule="evenodd" d="M3.84414 20.8618C3.506 21.0608 3.08272 21.0437 2.76175 20.818C2.44078 20.5924 2.28145 20.1999 2.3543 19.8143L2.73764 17.7858L1.3029 16.3907C1.02722 16.1226 0.929659 15.7203 1.05196 15.3557C1.17426 14.9912 1.49475 14.729 1.87632 14.6814L3.77422 14.4448L4.58427 12.5983C4.74373 12.2348 5.10309 12 5.50003 12C5.89697 12 6.25633 12.2348 6.41579 12.5983L7.22584 14.4448L9.12374 14.6814C9.50531 14.729 9.8258 14.9912 9.9481 15.3557C10.0704 15.7203 9.97284 16.1226 9.69716 16.3907L8.26242 17.7858L8.64576 19.8143C8.71861 20.1999 8.55928 20.5924 8.23831 20.818C7.91734 21.0437 7.49406 21.0608 7.15592 20.8618L5.50003 19.8872L3.84414 20.8618ZM16.8441 20.8618C16.506 21.0608 16.0827 21.0437 15.7618 20.818C15.4408 20.5924 15.2814 20.1999 15.3543 19.8143L15.7376 17.7858L14.3029 16.3907C14.0272 16.1226 13.9297 15.7203 14.052 15.3557C14.1743 14.9912 14.4948 14.729 14.8763 14.6814L16.7742 14.4448L17.5843 12.5983C17.7437 12.2348 18.1031 12 18.5 12C18.897 12 19.2563 12.2348 19.4158 12.5983L20.2258 14.4448L22.1237 14.6814C22.5053 14.729 22.8258 14.9912 22.9481 15.3557C23.0704 15.7203 22.9728 16.1226 22.6972 16.3907L21.2624 17.7858L21.6458 19.8143C21.7186 20.1999 21.5593 20.5924 21.2383 20.818C20.9173 21.0437 20.4941 21.0608 20.1559 20.8618L18.5 19.8872L16.8441 20.8618ZM9.30483 13.9177C8.9644 14.1082 8.54423 14.0834 8.2286 13.8541C7.91297 13.6248 7.75953 13.2329 7.83556 12.8502L8.38286 10.0958L6.32108 8.1891C6.03465 7.92422 5.92842 7.51694 6.04897 7.1459C6.16953 6.77486 6.49487 6.50781 6.88229 6.46187L9.67102 6.13122L10.8473 3.58115C11.0107 3.22689 11.3652 3 11.7553 3C12.1454 3 12.5 3.22689 12.6634 3.58115L13.8396 6.13122L16.6283 6.46187C17.0158 6.50781 17.3411 6.77486 17.4617 7.1459C17.5822 7.51694 17.476 7.92422 17.1895 8.1891L15.1278 10.0958L15.6751 12.8502C15.7511 13.2329 15.5976 13.6248 15.282 13.8541C14.9664 14.0834 14.5462 14.1082 14.2058 13.9177L11.7553 12.546L9.30483 13.9177Z" fill="currentColor"/>
</svg>
