<svg width="24" height="24" viewBox="0 0 24 24" fill="none" xmlns="http://www.w3.org/2000/svg">
<path fill-rule="evenodd" clip-rule="evenodd" d="M12.8639 3.04962C12.7085 2.71458 12.3712 2.5 12 2.5C11.6288 2.5 11.2915 2.71458 11.1361 3.04962L8.67481 8.35371L2.83943 9.04145C2.47083 9.0849 2.1613 9.33746 2.0466 9.68836C1.9319 10.0393 2.03297 10.4244 2.30548 10.675L6.61973 14.6408L5.47451 20.3699C5.40217 20.7318 5.54817 21.1025 5.84846 21.3194C6.14875 21.5362 6.54851 21.5597 6.8724 21.3795L12 18.5264L17.1276 21.3795C17.4515 21.5597 17.8512 21.5362 18.1515 21.3194C18.4518 21.1025 18.5978 20.7318 18.5255 20.3699L17.3803 14.6408L21.6945 10.675C21.967 10.4244 22.0681 10.0393 21.9534 9.68836C21.8387 9.33746 21.5292 9.0849 21.1606 9.04145L15.3252 8.35371L12.8639 3.04962Z" fill="currentColor"/>
</svg>
