<svg width="24" height="24" viewBox="0 0 24 24" fill="none" xmlns="http://www.w3.org/2000/svg">
<path fill-rule="evenodd" clip-rule="evenodd" d="M12 2.5C12.3712 2.5 12.7085 2.71458 12.8639 3.04962L15.3252 8.35371L21.1606 9.04145C21.5292 9.0849 21.8387 9.33746 21.9534 9.68836C22.0681 10.0393 21.967 10.4244 21.6945 10.675L17.3803 14.6408L18.5255 20.3699C18.5978 20.7318 18.4518 21.1025 18.1515 21.3194C17.8512 21.5362 17.4515 21.5597 17.1276 21.3795L12 18.5264L6.8724 21.3795C6.54851 21.5597 6.14875 21.5362 5.84846 21.3194C5.54817 21.1025 5.40217 20.7318 5.47451 20.3699L6.61973 14.6408L2.30548 10.675C2.03297 10.4244 1.9319 10.0393 2.0466 9.68836C2.1613 9.33746 2.47083 9.0849 2.83943 9.04145L8.67481 8.35371L11.1361 3.04962C11.2915 2.71458 11.6288 2.5 12 2.5ZM12 9.5C12.5523 9.5 13 9.94772 13 10.5V11.5H14C14.5523 11.5 15 11.9477 15 12.5C15 13.0523 14.5523 13.5 14 13.5H13V14.5C13 15.0523 12.5523 15.5 12 15.5C11.4477 15.5 11 15.0523 11 14.5V13.5H10C9.44772 13.5 9 13.0523 9 12.5C9 11.9477 9.44772 11.5 10 11.5H11V10.5C11 9.94772 11.4477 9.5 12 9.5Z" fill="currentColor"/>
</svg>
