<svg width="24" height="24" viewBox="0 0 24 24" fill="none" xmlns="http://www.w3.org/2000/svg">
<path fill-rule="evenodd" clip-rule="evenodd" d="M12 2.5C12.3712 2.5 12.7085 2.71458 12.8639 3.04962L15.3252 8.35371L21.1606 9.04145C21.5292 9.0849 21.8387 9.33746 21.9534 9.68836C22.0681 10.0393 21.967 10.4244 21.6945 10.675L17.3803 14.6408L18.5255 20.3699C18.5978 20.7318 18.4518 21.1025 18.1515 21.3194C17.8512 21.5362 17.4515 21.5597 17.1276 21.3795L12 18.5264L6.8724 21.3795C6.54851 21.5597 6.14875 21.5362 5.84846 21.3194C5.54817 21.1025 5.40217 20.7318 5.47451 20.3699L6.61973 14.6408L2.30548 10.675C2.03297 10.4244 1.9319 10.0393 2.0466 9.68836C2.1613 9.33746 2.47083 9.0849 2.83943 9.04145L8.67481 8.35371L11.1361 3.04962C11.2915 2.71458 11.6288 2.5 12 2.5ZM12 5.70369L10.1796 9.62666C10.041 9.92532 9.7563 10.131 9.42771 10.1697L5.1118 10.6784L8.30267 13.6115C8.5456 13.8349 8.65436 14.1676 8.58988 14.4902L7.74286 18.7275L11.5353 16.6174C11.824 16.4567 12.176 16.4567 12.4647 16.6174L16.2571 18.7275L15.4101 14.4902C15.3456 14.1676 15.4544 13.8349 15.6973 13.6115L18.8882 10.6784L14.5723 10.1697C14.2437 10.131 13.959 9.92532 13.8204 9.62666L12 5.70369Z" fill="currentColor"/>
</svg>
