<svg width="24" height="24" viewBox="0 0 24 24" fill="none" xmlns="http://www.w3.org/2000/svg">
<path fill-rule="evenodd" clip-rule="evenodd" d="M7.66826 6.58115C7.50485 6.22689 7.15033 6 6.7602 6C6.37006 6 6.01555 6.22689 5.85214 6.58115L4.67591 9.13122L1.88718 9.46187C1.49975 9.50781 1.17442 9.77486 1.05386 10.1459C0.933302 10.5169 1.03953 10.9242 1.32597 11.1891L3.38775 13.0958L2.84045 15.8502C2.76442 16.2329 2.91786 16.6248 3.23349 16.8541C3.54911 17.0834 3.96929 17.1082 4.30972 16.9177L5.36668 16.326L5.63574 16.4313C6.15007 16.6325 6.73012 16.3786 6.93132 15.8643C7.13251 15.35 6.87866 14.7699 6.36433 14.5687L5.65503 14.2913C5.50933 14.2343 5.35429 14.2129 5.20218 14.2265L5.45849 12.9365C5.52627 12.5954 5.41195 12.2436 5.15662 12.0075L4.27558 11.1927L5.46726 11.0514C5.81262 11.0105 6.1119 10.793 6.25757 10.4772L6.80831 9.2832C7.09618 9.53382 7.51534 9.60746 7.88439 9.43724C8.38589 9.20591 8.60492 8.61184 8.3736 8.11033L7.66826 6.58115ZM18.1535 6.58115C17.9901 6.22689 17.6356 6 17.2454 6C16.8553 6 16.5008 6.22689 16.3374 6.58115L15.632 8.11033C15.4007 8.61184 15.6197 9.20591 16.1212 9.43724C16.4903 9.60746 16.9094 9.53382 17.1973 9.2832L17.748 10.4772C17.8937 10.793 18.193 11.0105 18.5384 11.0514L19.73 11.1927L18.849 12.0075C18.5937 12.2436 18.4793 12.5954 18.5471 12.9365L18.8034 14.2265C18.6522 14.213 18.498 14.234 18.353 14.2903L17.6382 14.5678C17.1233 14.7676 16.868 15.347 17.0678 15.8618C17.2676 16.3767 17.847 16.6321 18.3619 16.4322L18.6375 16.3252L19.6959 16.9177C20.0363 17.1082 20.4565 17.0834 20.7721 16.8541C21.0878 16.6248 21.2412 16.2329 21.1652 15.8502L20.6179 13.0958L22.6796 11.1891C22.9661 10.9242 23.0723 10.5169 22.9518 10.1459C22.8312 9.77486 22.5059 9.50781 22.1184 9.46187L20.4461 9.26359L19.3297 9.13122L18.1535 6.58115ZM12.6634 8.53111C12.5 8.17684 12.1455 7.94995 11.7553 7.94995C11.3652 7.94995 11.0107 8.17684 10.8473 8.53111L9.67103 11.0812L6.88229 11.4118C6.49487 11.4578 6.16954 11.7248 6.04898 12.0958C5.92842 12.4669 6.03465 12.8742 6.32108 13.139L8.38287 15.0457L7.83557 17.8001C7.75953 18.1828 7.91298 18.5747 8.22861 18.8041C8.54423 19.0334 8.9644 19.0582 9.30483 18.8676L11.7553 17.496L14.2058 18.8676C14.5462 19.0582 14.9664 19.0334 15.282 18.8041C15.5977 18.5747 15.7511 18.1828 15.6751 17.8001L15.1278 15.0457L17.1896 13.139C17.476 12.8742 17.5822 12.4669 17.4617 12.0958C17.3411 11.7248 17.0158 11.4578 16.6283 11.4118L13.8396 11.0812L12.6634 8.53111Z" fill="currentColor"/>
</svg>
