<svg width="24" height="24" viewBox="0 0 24 24" fill="none" xmlns="http://www.w3.org/2000/svg">
<path fill-rule="evenodd" clip-rule="evenodd" d="M13 20C13 19.4477 12.5523 19 12 19C11.4477 19 11 19.4477 11 20V22C11 22.5523 11.4477 23 12 23C12.5523 23 13 22.5523 13 22V20ZM17 12C17 14.7614 14.7614 17 12 17C9.23858 17 7 14.7614 7 12C7 9.23858 9.23858 7 12 7C14.7614 7 17 9.23858 17 12ZM12 1C12.5523 1 13 1.44772 13 2V4C13 4.55228 12.5523 5 12 5C11.4477 5 11 4.55228 11 4V2C11 1.44772 11.4477 1 12 1ZM23 12C23 12.5523 22.5523 13 22 13H20C19.4477 13 19 12.5523 19 12C19 11.4477 19.4477 11 20 11H22C22.5523 11 23 11.4477 23 12ZM4 13C4.55228 13 5 12.5523 5 12C5 11.4477 4.55228 11 4 11H2C1.44772 11 1 11.4477 1 12C1 12.5523 1.44772 13 2 13H4ZM4.2216 19.7782C3.83108 19.3876 3.83108 18.7545 4.2216 18.3639L5.63582 16.9497C6.02634 16.5592 6.65951 16.5592 7.05003 16.9497C7.44056 17.3402 7.44056 17.9734 7.05003 18.3639L5.63582 19.7782C5.24529 20.1687 4.61213 20.1687 4.2216 19.7782ZM16.9496 5.63615C16.5591 6.02668 16.5591 6.65984 16.9496 7.05037C17.3402 7.44089 17.9733 7.44089 18.3638 7.05037L19.7781 5.63615C20.1686 5.24563 20.1686 4.61246 19.7781 4.22194C19.3875 3.83142 18.7544 3.83142 18.3638 4.22194L16.9496 5.63615ZM4.22209 4.2216C4.61262 3.83108 5.24578 3.83108 5.63631 4.2216L7.05052 5.63582C7.44104 6.02634 7.44104 6.65951 7.05052 7.05003C6.66 7.44056 6.02683 7.44056 5.63631 7.05003L4.22209 5.63582C3.83157 5.24529 3.83157 4.61213 4.22209 4.2216ZM18.3638 16.9501C17.9733 16.5596 17.3402 16.5596 16.9496 16.9501C16.5591 17.3406 16.5591 17.9738 16.9496 18.3643L18.3638 19.7785C18.7544 20.1691 19.3875 20.1691 19.7781 19.7785C20.1686 19.388 20.1686 18.7549 19.7781 18.3643L18.3638 16.9501Z" fill="currentColor"/>
</svg>
