<svg width="24" height="24" viewBox="0 0 24 24" fill="none" xmlns="http://www.w3.org/2000/svg">
<path fill-rule="evenodd" clip-rule="evenodd" d="M2 5C2 3.34315 3.34315 2 5 2H19C20.6569 2 22 3.34315 22 5V9V15V19C22 20.6569 20.6569 22 19 22H15H9H5C3.34315 22 2 20.6569 2 19V15V9V5ZM16 20H19C19.5523 20 20 19.5523 20 19V16H16V20ZM14 16V20H10V16H14ZM16 14H20V10H16V14ZM14 10V14H10V10H14ZM15 8H20V5C20 4.44772 19.5523 4 19 4H5C4.44772 4 4 4.44772 4 5V8L9 8H15ZM8 20L8 16H4V19C4 19.5523 4.44772 20 5 20H8ZM8 14L8 10L4 10V14H8Z" fill="currentColor"/>
</svg>
