<svg width="24" height="24" viewBox="0 0 24 24" fill="none" xmlns="http://www.w3.org/2000/svg">
<path fill-rule="evenodd" clip-rule="evenodd" d="M2 3C1.44772 3 1 3.44772 1 4C1 4.55228 1.44772 5 2 5H8C8.55228 5 9 4.55228 9 4C9 3.44772 8.55228 3 8 3H2ZM2 7C1.44772 7 1 7.44772 1 8C1 8.55229 1.44772 9 2 9H8C8.55228 9 9 8.55229 9 8C9 7.44772 8.55228 7 8 7H2ZM1 12C1 11.4477 1.44772 11 2 11H8C8.55228 11 9 11.4477 9 12C9 12.5523 8.55228 13 8 13H2C1.44772 13 1 12.5523 1 12ZM2 15C1.44772 15 1 15.4477 1 16C1 16.5523 1.44772 17 2 17H22C22.5523 17 23 16.5523 23 16C23 15.4477 22.5523 15 22 15H2ZM1 20C1 19.4477 1.44772 19 2 19H22C22.5523 19 23 19.4477 23 20C23 20.5523 22.5523 21 22 21H2C1.44772 21 1 20.5523 1 20ZM11 5C11 3.89543 11.8954 3 13 3H21C22.1046 3 23 3.89543 23 5V11C23 12.1046 22.1046 13 21 13H13C11.8954 13 11 12.1046 11 11V5ZM19.3999 8.4751L18.5692 9.12238L16.5706 6.17296C16.4171 5.94637 16.0833 5.94637 15.9297 6.17296L13.0694 10.3942C12.8953 10.6512 13.0794 10.9984 13.3899 10.9984H17.2569C17.2666 10.9991 17.2765 10.9994 17.2866 10.9994H20.6802C20.9771 10.9994 21.1635 10.679 21.0166 10.4209L19.9742 8.58901C19.8575 8.38392 19.586 8.33008 19.3999 8.4751ZM19.5002 7.0004C20.0525 7.0004 20.5002 6.55268 20.5002 6.0004C20.5002 5.44811 20.0525 5.0004 19.5002 5.0004C18.9479 5.0004 18.5002 5.44811 18.5002 6.0004C18.5002 6.55268 18.9479 7.0004 19.5002 7.0004Z" fill="currentColor"/>
</svg>
