<svg width="24" height="24" viewBox="0 0 24 24" fill="none" xmlns="http://www.w3.org/2000/svg">
<path fill-rule="evenodd" clip-rule="evenodd" d="M1 6C1 4.34315 2.34315 3 4 3H20C21.6569 3 23 4.34315 23 6V18C23 19.6569 21.6569 21 20 21H4C2.34315 21 1 19.6569 1 18V6ZM3 8C3 7.44771 3.44772 7 4 7H9C9.55228 7 10 7.44771 10 8C10 8.55229 9.55228 9 9 9H4C3.44772 9 3 8.55229 3 8ZM4 11C3.44772 11 3 11.4477 3 12C3 12.5523 3.44772 13 4 13H9C9.55228 13 10 12.5523 10 12C10 11.4477 9.55228 11 9 11H4ZM3 16C3 15.4477 3.44772 15 4 15H9C9.55228 15 10 15.4477 10 16C10 16.5523 9.55228 17 9 17H4C3.44772 17 3 16.5523 3 16ZM12.0759 14.3998L15.2635 10.1497C15.4135 9.94973 15.7135 9.94973 15.8634 10.1497L17.5493 12.3975L18.2097 11.4831C18.3594 11.2759 18.668 11.2759 18.8176 11.4831L20.9281 14.4053C21.1072 14.6532 20.93 14.9998 20.6241 14.9998H18.7511H16.4032H12.3759C12.0669 14.9998 11.8905 14.647 12.0759 14.3998ZM19.9385 9.09351C19.9385 9.69757 19.4488 10.1873 18.8447 10.1873C18.2407 10.1873 17.751 9.69757 17.751 9.09351C17.751 8.48944 18.2407 7.99976 18.8447 7.99976C19.4488 7.99976 19.9385 8.48944 19.9385 9.09351Z" fill="currentColor"/>
</svg>
