<svg width="24" height="24" viewBox="0 0 24 24" fill="none" xmlns="http://www.w3.org/2000/svg">
<path d="M7.3102 8.47469L6.00597 13.2736C6.00597 13.307 6.01712 13.3405 6.03942 13.3739C6.06171 13.3962 6.08958 13.4074 6.12302 13.4074H8.53083C8.56427 13.4074 8.59214 13.3962 8.61443 13.3739C8.64788 13.3405 8.65902 13.307 8.64788 13.2736L7.34365 8.47469C7.34365 8.46355 7.33807 8.45797 7.32692 8.45797C7.31578 8.45797 7.3102 8.46355 7.3102 8.47469ZM2.67852 18.2063C2.44442 18.2063 2.26049 18.1115 2.12673 17.922C1.99296 17.7325 1.96509 17.5263 2.04312 17.3033L5.55451 6.90293C5.65484 6.63539 5.81647 6.41802 6.03942 6.25081C6.27351 6.0836 6.5299 6 6.80858 6H7.91216C8.20198 6 8.45837 6.0836 8.68132 6.25081C8.91541 6.41802 9.07705 6.63539 9.16622 6.90293L12.6943 17.3033C12.7724 17.5263 12.7389 17.7325 12.594 17.922C12.4602 18.1115 12.2763 18.2063 12.0422 18.2063H10.9219C10.6544 18.2063 10.4036 18.1226 10.1695 17.9554C9.94653 17.7771 9.79604 17.5541 9.71801 17.2866L9.29999 15.6981C9.28884 15.6089 9.22753 15.5644 9.11606 15.5644H5.53779C5.43746 15.5644 5.37615 15.6089 5.35386 15.6981L4.93584 17.2866C4.86895 17.5541 4.71847 17.7771 4.48437 17.9554C4.26143 18.1226 4.01061 18.2063 3.73193 18.2063H2.67852Z" fill="currentColor"/>
<path d="M18.6135 14.21C17.8555 14.21 17.2759 14.327 16.8746 14.5611C16.4844 14.7952 16.2893 15.1073 16.2893 15.4975C16.2893 15.7984 16.3785 16.0325 16.5569 16.1997C16.7464 16.367 16.9972 16.4506 17.3093 16.4506C17.8667 16.4506 18.3237 16.2778 18.6804 15.9322C19.0483 15.5866 19.2322 15.1463 19.2322 14.6113V14.3437C19.2322 14.2545 19.182 14.21 19.0817 14.21H18.6135ZM16.607 18.3735C15.771 18.3735 15.1021 18.1394 14.6005 17.6712C14.0989 17.203 13.8481 16.562 13.8481 15.7483C13.8481 14.7896 14.2549 14.0205 15.0687 13.4408C15.8936 12.8611 17.0752 12.5713 18.6135 12.5713H19.0817C19.182 12.5713 19.2322 12.5211 19.2322 12.4208C19.2211 11.9749 19.1152 11.6684 18.9145 11.5012C18.725 11.3228 18.3906 11.2336 17.9113 11.2336C17.1421 11.2336 16.3451 11.3674 15.5202 11.6349C15.2861 11.713 15.0631 11.6963 14.8513 11.5848C14.6507 11.4733 14.5281 11.3005 14.4835 11.0664L14.4667 11.033C14.411 10.7543 14.45 10.4923 14.5838 10.2471C14.7176 10.0019 14.9182 9.84023 15.1857 9.7622C16.111 9.48352 17.0585 9.34418 18.0283 9.34418C19.4217 9.34418 20.4138 9.61171 21.0046 10.1468C21.6066 10.6707 21.9075 11.5346 21.9075 12.7385V15.8653C21.9075 16.4115 21.9354 16.8797 21.9911 17.2699C22.0246 17.5151 21.9633 17.7325 21.8072 17.922C21.6512 18.1115 21.4505 18.2063 21.2053 18.2063H20.5699C20.2912 18.2063 20.0459 18.1171 19.8342 17.9387C19.6335 17.7604 19.5165 17.5374 19.483 17.2699C19.4719 17.2364 19.4607 17.1919 19.4496 17.1361C19.4496 17.0804 19.4496 17.0358 19.4496 17.0023C19.4496 16.9912 19.444 16.9856 19.4329 16.9856C19.4106 16.9856 19.3994 16.9912 19.3994 17.0023C19.0984 17.4259 18.6971 17.7604 18.1955 18.0056C17.6939 18.2508 17.1644 18.3735 16.607 18.3735Z" fill="currentColor"/>
</svg>
