<svg width="24" height="24" viewBox="0 0 24 24" fill="none" xmlns="http://www.w3.org/2000/svg">
<path fill-rule="evenodd" clip-rule="evenodd" d="M1 6C1 4.34315 2.34315 3 4 3H20C21.6569 3 23 4.34315 23 6V18C23 19.6569 21.6569 21 20 21H4C2.34315 21 1 19.6569 1 18V6ZM3 8C3 7.44771 3.44772 7 4 7H10C10.5523 7 11 7.44771 11 8C11 8.55229 10.5523 9 10 9H4C3.44772 9 3 8.55229 3 8ZM4 11C3.44772 11 3 11.4477 3 12C3 12.5523 3.44772 13 4 13H10C10.5523 13 11 12.5523 11 12C11 11.4477 10.5523 11 10 11H4ZM3 16C3 15.4477 3.44772 15 4 15H10C10.5523 15 11 15.4477 11 16C11 16.5523 10.5523 17 10 17H4C3.44772 17 3 16.5523 3 16ZM21.0004 12.0001C21.0004 14.2093 19.2095 16.0001 17.0004 16.0001C14.7913 16.0001 13.0004 14.2093 13.0004 12.0001C13.0004 9.79098 14.7913 8.00012 17.0004 8.00012C19.2095 8.00012 21.0004 9.79098 21.0004 12.0001ZM15.9095 10.4978C15.9095 10.2073 16.2332 10.0341 16.4748 10.1952L18.7284 11.6976C18.9443 11.8415 18.9443 12.1587 18.7284 12.3027L16.4748 13.805C16.2332 13.9661 15.9095 13.7929 15.9095 13.5025V10.4978Z" fill="currentColor"/>
</svg>
