<svg width="24" height="24" viewBox="0 0 24 24" fill="none" xmlns="http://www.w3.org/2000/svg">
<path fill-rule="evenodd" clip-rule="evenodd" d="M1 6C1 4.34315 2.34315 3 4 3H20C21.6569 3 23 4.34315 23 6V18C23 19.6569 21.6569 21 20 21H4C2.34315 21 1 19.6569 1 18V6ZM3 8C3 7.44771 3.44772 7 4 7H10C10.5523 7 11 7.44771 11 8C11 8.55229 10.5523 9 10 9H4C3.44772 9 3 8.55229 3 8ZM4 11C3.44772 11 3 11.4477 3 12C3 12.5523 3.44772 13 4 13H10C10.5523 13 11 12.5523 11 12C11 11.4477 10.5523 11 10 11H4ZM3 16C3 15.4477 3.44772 15 4 15H10C10.5523 15 11 15.4477 11 16C11 16.5523 10.5523 17 10 17H4C3.44772 17 3 16.5523 3 16ZM14 8C13.4477 8 13 8.44771 13 9V10.5C13 11.0523 13.4477 11.5 14 11.5C14.5523 11.5 15 11.0523 15 10.5V10H15.5C16.0523 10 16.5 9.55229 16.5 9C16.5 8.44771 16.0523 8 15.5 8H14ZM18.5 8C17.9477 8 17.5 8.44771 17.5 9C17.5 9.55229 17.9477 10 18.5 10H19V10.5C19 11.0523 19.4477 11.5 20 11.5C20.5523 11.5 21 11.0523 21 10.5V9C21 8.44771 20.5523 8 20 8H18.5ZM15 13.5C15 12.9477 14.5523 12.5 14 12.5C13.4477 12.5 13 12.9477 13 13.5V15C13 15.5523 13.4477 16 14 16H15.5C16.0523 16 16.5 15.5523 16.5 15C16.5 14.4477 16.0523 14 15.5 14H15V13.5ZM21 13.5C21 12.9477 20.5523 12.5 20 12.5C19.4477 12.5 19 12.9477 19 13.5V14H18.5C17.9477 14 17.5 14.4477 17.5 15C17.5 15.5523 17.9477 16 18.5 16H20C20.5523 16 21 15.5523 21 15V13.5Z" fill="currentColor"/>
</svg>
