<svg width="24" height="24" viewBox="0 0 24 24" fill="none" xmlns="http://www.w3.org/2000/svg">
<path fill-rule="evenodd" clip-rule="evenodd" d="M4 3C2.34315 3 1 4.34315 1 6V18C1 19.6569 2.34315 21 4 21H20C21.6569 21 23 19.6569 23 18V6C23 4.34315 21.6569 3 20 3H4ZM4 7C3.44772 7 3 7.44772 3 8C3 8.55228 3.44772 9 4 9H8C8.55228 9 9 8.55228 9 8C9 7.44772 8.55228 7 8 7H4ZM4 11C3.44772 11 3 11.4477 3 12C3 12.5523 3.44772 13 4 13H8C8.55228 13 9 12.5523 9 12C9 11.4477 8.55228 11 8 11H4ZM3 16C3 15.4477 3.44772 15 4 15H8C8.55228 15 9 15.4477 9 16C9 16.5523 8.55228 17 8 17H4C3.44772 17 3 16.5523 3 16ZM16 16C16 15.0974 16.1857 13.7573 16.7015 12.6827C16.9517 12.1616 17.2546 11.7436 17.6273 11.4546C17.9855 11.7927 18.4685 12 19 12C20.1046 12 21 11.1046 21 10C21 8.89543 20.1046 8 19 8C18.0891 8 17.3204 8.60897 17.0789 9.44201C16.055 9.96117 15.3521 10.8722 14.8985 11.8173C14.7426 12.1421 14.611 12.4791 14.5009 12.8189C14.4871 12.8086 14.4732 12.7985 14.4593 12.7885C13.6278 12.1898 12.66 12 12 12C11.4477 12 11 12.4477 11 13C11 13.5523 11.4477 14 12 14C12.34 14 12.8722 14.1102 13.2907 14.4115C13.6582 14.6761 14 15.1259 14 16C14 16.5523 14.4477 17 15 17C15.5523 17 16 16.5523 16 16Z" fill="currentColor"/>
</svg>
