<svg width="24" height="24" viewBox="0 0 24 24" fill="none" xmlns="http://www.w3.org/2000/svg">
<path fill-rule="evenodd" clip-rule="evenodd" d="M6 4C6 2.89543 6.89543 2 8 2H20C21.1046 2 22 2.89543 22 4V9C22 10.1046 21.1046 11 20 11H8C6.89543 11 6 10.1046 6 9V7H5C4.44772 7 4 7.44772 4 8V16H6V15C6 13.8954 6.89543 13 8 13H20C21.1046 13 22 13.8954 22 15V20C22 21.1046 21.1046 22 20 22H8C6.89543 22 6 21.1046 6 20V18H4V21C4 21.5523 3.55228 22 3 22C2.44772 22 2 21.5523 2 21V17V8C2 6.34315 3.34315 5 5 5H6V4ZM20 4H8V8H20V4ZM20 15H8V19H20V15Z" fill="currentColor"/>
</svg>
