<svg width="24" height="24" viewBox="0 0 24 24" fill="none" xmlns="http://www.w3.org/2000/svg">
<path fill-rule="evenodd" clip-rule="evenodd" d="M14.9845 3.00014H9.01553C9.00432 2.99995 8.99315 2.99995 8.98201 3.00014H8C7.44772 3.00014 7 3.44786 7 4.00014C7 4.49672 7.36196 4.90877 7.83644 4.98683L6.14208 16.0001H5C4.44772 16.0001 4 16.4479 4 17.0001C4 17.5524 4.44772 18.0001 5 18.0001H6.98452C6.99569 18.0003 7.00684 18.0003 7.01795 18.0001H11V22.0001C11 22.5524 11.4477 23.0001 12 23.0001C12.5523 23.0001 13 22.5524 13 22.0001V18.0001H16.9821C16.9932 18.0003 17.0043 18.0003 17.0155 18.0001H19C19.5523 18.0001 20 17.5524 20 17.0001C20 16.4479 19.5523 16.0001 19 16.0001H17.8579L16.1636 4.98683C16.638 4.90877 17 4.49672 17 4.00014C17 3.44786 16.5523 3.00014 16 3.00014H15.018C15.0069 2.99995 14.9957 2.99995 14.9845 3.00014Z" fill="currentColor"/>
</svg>
