<svg width="24" height="24" viewBox="0 0 24 24" fill="none" xmlns="http://www.w3.org/2000/svg">
<g clip-path="url(#clip0_602_2029)">
<path fill-rule="evenodd" clip-rule="evenodd" d="M14.4153 2.84773L19.5845 5.8322C19.5943 5.83764 19.604 5.84323 19.6136 5.84896L20.464 6.33997C20.9423 6.61611 21.1062 7.2277 20.83 7.70599C20.5817 8.13604 20.0623 8.3119 19.6123 8.14227L15.573 18.5273L16.5621 19.0983C17.0404 19.3744 17.2043 19.986 16.9281 20.4643C16.652 20.9426 16.0404 21.1065 15.5621 20.8303L13.8434 19.8381C13.8337 19.8327 13.824 19.8271 13.8145 19.8214L10.3659 17.8303L8.36594 21.2944C8.08979 21.7727 7.4782 21.9366 6.99991 21.6605C6.52162 21.3843 6.35774 20.7727 6.63388 20.2944L8.63388 16.8303L5.18532 14.8393C5.17561 14.8339 5.16596 14.8284 5.15638 14.8226L3.43773 13.8303C2.95944 13.5542 2.79556 12.9426 3.07171 12.4643C3.34785 11.986 3.95944 11.8222 4.43773 12.0983L5.4268 12.6693L12.4008 3.97871C12.0289 3.67386 11.9215 3.13604 12.1698 2.70599C12.4459 2.2277 13.0575 2.06382 13.5358 2.33997L14.3863 2.83097C14.396 2.83638 14.4057 2.84196 14.4153 2.84773ZM14.1448 5.00098L7.17923 13.6811L10.4999 15.5983L13.8206 17.5155L17.855 7.14306L14.1448 5.00098Z" fill="black"/>
</g>
<defs>
<clipPath id="clip0_602_2029">
<rect width="24" height="24" fill="white"/>
</clipPath>
</defs>
</svg>
