<svg width="24" height="24" viewBox="0 0 24 24" fill="none" xmlns="http://www.w3.org/2000/svg">
<path fill-rule="evenodd" clip-rule="evenodd" d="M9.01553 3.00014H14.9845C14.9957 2.99995 15.0069 2.99995 15.018 3.00014H16C16.5523 3.00014 17 3.44786 17 4.00014C17 4.49672 16.638 4.90877 16.1636 4.98683L17.8579 16.0001H19C19.5523 16.0001 20 16.4479 20 17.0001C20 17.5524 19.5523 18.0001 19 18.0001H17.0155C17.0043 18.0003 16.9932 18.0003 16.9821 18.0001H13V22.0001C13 22.5524 12.5523 23.0001 12 23.0001C11.4477 23.0001 11 22.5524 11 22.0001V18.0001H7.01795C7.00684 18.0003 6.99569 18.0003 6.98452 18.0001H5C4.44772 18.0001 4 17.5524 4 17.0001C4 16.4479 4.44772 16.0001 5 16.0001H6.14208L7.83644 4.98683C7.36196 4.90877 7 4.49672 7 4.00014C7 3.44786 7.44772 3.00014 8 3.00014H8.98201C8.99315 2.99995 9.00432 2.99995 9.01553 3.00014ZM9.85792 5.00014L8.16561 16.0001H12H15.8344L14.1421 5.00014H9.85792Z" fill="currentColor"/>
</svg>
