<svg width="24" height="24" viewBox="0 0 24 24" fill="none" xmlns="http://www.w3.org/2000/svg">
<path fill-rule="evenodd" clip-rule="evenodd" d="M14.4157 2.84772L19.585 5.83219C19.5948 5.83763 19.6044 5.84322 19.614 5.84895L20.4644 6.33995C20.9427 6.61609 21.1066 7.22768 20.8305 7.70598C20.5844 8.13218 20.072 8.30872 19.6248 8.14673L17.3198 14.0374L15.5734 18.5272L16.5625 19.0983C17.0408 19.3744 17.2047 19.986 16.9285 20.4643C16.6524 20.9426 16.0408 21.1065 15.5625 20.8303L13.8439 19.8381C13.8341 19.8326 13.8244 19.8271 13.8149 19.8214L10.3664 17.8303L8.36636 21.2944C8.09022 21.7727 7.47863 21.9366 7.00033 21.6605C6.52204 21.3843 6.35817 20.7727 6.63431 20.2944L8.63431 16.8303L5.18575 14.8393C5.17603 14.8339 5.16638 14.8283 5.1568 14.8226L3.43816 13.8303C2.95986 13.5542 2.79599 12.9426 3.07213 12.4643C3.34827 11.986 3.95986 11.8221 4.43816 12.0983L5.42723 12.6693L5.63144 12.4148C5.63969 12.4041 5.64806 12.3935 5.65655 12.3829L12.4009 3.97844C12.0293 3.67355 11.922 3.13591 12.1702 2.70598C12.4463 2.22768 13.0579 2.06381 13.5362 2.33995L14.3867 2.83096C14.3964 2.83636 14.4061 2.84195 14.4157 2.84772Z" fill="currentColor"/>
</svg>
