<svg width="24" height="24" viewBox="0 0 24 24" fill="none" xmlns="http://www.w3.org/2000/svg">
<path d="M4.06023 14.3999C4.76394 14.4 5.36466 14.9087 5.48055 15.6027L5.62586 16.4774C5.70299 16.9402 6.10363 17.2797 6.57273 17.2799H16.4671C16.9362 17.2797 17.3369 16.9402 17.414 16.4774L17.5593 15.6027C17.6752 14.9087 18.2759 14.4 18.9796 14.3999H21.1199V18.2399C21.1199 19.8305 19.8305 21.1199 18.2399 21.1199H4.79992C3.20934 21.1199 1.91992 19.8305 1.91992 18.2399V14.3999H4.06023ZM18.2399 1.91992C19.8305 1.91992 21.1199 3.20934 21.1199 4.79992V12.4799H18.0196C17.3159 12.48 16.7152 12.9887 16.5993 13.6827L16.454 14.5574C16.3769 15.0202 15.9762 15.3597 15.5071 15.3599H7.53273C7.06363 15.3597 6.66299 15.0202 6.58586 14.5574L6.44055 13.6827C6.32466 12.9887 5.72394 12.48 5.02023 12.4799H1.91992V4.79992C1.91992 3.20934 3.20934 1.91992 4.79992 1.91992H18.2399ZM7.19992 8.63992C6.93483 8.63992 6.71992 8.85483 6.71992 9.11992V10.0799C6.71992 10.345 6.93483 10.5599 7.19992 10.5599H15.8399C16.105 10.5599 16.3199 10.345 16.3199 10.0799V9.11992C16.3199 8.85483 16.105 8.63992 15.8399 8.63992H7.19992ZM7.19992 4.79992C6.93483 4.79992 6.71992 5.01483 6.71992 5.27992V6.23992C6.71992 6.50502 6.93483 6.71992 7.19992 6.71992H15.8399C16.105 6.71992 16.3199 6.50502 16.3199 6.23992V5.27992C16.3199 5.01483 16.105 4.79992 15.8399 4.79992H7.19992Z" fill="currentColor"/>
</svg>
