<svg width="24" height="24" viewBox="0 0 24 24" fill="none" xmlns="http://www.w3.org/2000/svg">
<path fill-rule="evenodd" clip-rule="evenodd" d="M4 5H7H17H20C20.5523 5 21 4.55228 21 4V3C21 2.44772 20.5523 2 20 2H17.2361C16.6868 1.38625 15.8885 1 15 1H9C8.1115 1 7.31321 1.38625 6.76389 2H4C3.44772 2 3 2.44772 3 3V4C3 4.55228 3.44772 5 4 5ZM4.03587 6.53354C4.01646 6.24485 4.2454 6 4.53474 6H19.4653C19.7546 6 19.9835 6.24485 19.9641 6.53354L19.0453 20.2012C18.9394 21.7764 17.6308 23 16.0521 23H7.94795C6.3692 23 5.0606 21.7764 4.9547 20.2012L4.03587 6.53354ZM10 11C9.44772 11 9 11.4477 9 12V17C9 17.5523 9.44772 18 10 18C10.5523 18 11 17.5523 11 17V12C11 11.4477 10.5523 11 10 11ZM14 11C13.4477 11 13 11.4477 13 12V17C13 17.5523 13.4477 18 14 18C14.5523 18 15 17.5523 15 17V12C15 11.4477 14.5523 11 14 11Z" fill="currentColor"/>
</svg>
