<svg width="24" height="24" viewBox="0 0 24 24" fill="none" xmlns="http://www.w3.org/2000/svg">
<path fill-rule="evenodd" clip-rule="evenodd" d="M7 5H4C3.44772 5 3 4.55228 3 4V3C3 2.44772 3.44772 2 4 2H6.76389C7.31321 1.38625 8.1115 1 9 1H15C15.8885 1 16.6868 1.38625 17.2361 2H20C20.5523 2 21 2.44772 21 3V4C21 4.55228 20.5523 5 20 5H17H7ZM4.03587 6.53354C4.01646 6.24485 4.2454 6 4.53474 6H19.4653C19.7546 6 19.9835 6.24485 19.9641 6.53354L19.0453 20.2012C18.9394 21.7764 17.6308 23 16.0521 23H7.94795C6.3692 23 5.0606 21.7764 4.9547 20.2012L4.03587 6.53354ZM12 16C11.4477 16 11 15.5523 11 15V11C11 10.4477 11.4477 10 12 10C12.5523 10 13 10.4477 13 11V15C13 15.5523 12.5523 16 12 16ZM11 18C11 17.4477 11.4477 17 12 17C12.5523 17 13 17.4477 13 18C13 18.5523 12.5523 19 12 19C11.4477 19 11 18.5523 11 18Z" fill="currentColor"/>
</svg>
