<svg width="24" height="24" viewBox="0 0 24 24" fill="none" xmlns="http://www.w3.org/2000/svg">
<path fill-rule="evenodd" clip-rule="evenodd" d="M4 5H7H17H20C20.5523 5 21 4.55228 21 4V3C21 2.44772 20.5523 2 20 2H17.2361C16.6868 1.38625 15.8885 1 15 1H9C8.1115 1 7.31321 1.38625 6.76389 2H4C3.44772 2 3 2.44772 3 3V4C3 4.55228 3.44772 5 4 5ZM4.03587 6.53354C4.01646 6.24485 4.2454 6 4.53474 6H19.4653C19.7546 6 19.9835 6.24485 19.9641 6.53354L19.6507 11.1958C19.1214 11.0678 18.5686 11 18 11C16.9079 11 15.8742 11.2501 14.953 11.6962C14.8244 11.2924 14.4464 11 14 11C13.4477 11 13 11.4477 13 12V13.101C11.7628 14.3636 11 16.0927 11 18C11 19.9587 11.8045 21.7295 13.101 23H7.94795C6.3692 23 5.0606 21.7764 4.9547 20.2012L4.03587 6.53354ZM10 11C9.44772 11 9 11.4477 9 12V17C9 17.5523 9.44772 18 10 18C10.5523 18 11 17.5523 11 17V12C11 11.4477 10.5523 11 10 11ZM23 18C23 20.7614 20.7614 23 18 23C15.2386 23 13 20.7614 13 18C13 15.2386 15.2386 13 18 13C20.7614 13 23 15.2386 23 18ZM18 14.8182C18.5523 14.8182 19 15.2659 19 15.8182V17.382L19.9018 17.8328C20.3957 18.0798 20.596 18.6805 20.349 19.1745C20.102 19.6685 19.5013 19.8687 19.0073 19.6217L17.5528 18.8944C17.214 18.725 17 18.3788 17 18V15.8182C17 15.2659 17.4477 14.8182 18 14.8182Z" fill="currentColor"/>
</svg>
