<svg width="24" height="24" viewBox="0 0 24 24" fill="none" xmlns="http://www.w3.org/2000/svg">
<path d="M17.5 21C19.433 21 21 19.433 21 17.5C21 17.3302 20.9872 17.1633 20.9639 17H22C22.5523 17 23 16.5523 23 16C23 15.4477 22.5523 15 22 15V11.4141C22 10.9499 21.8386 10.5024 21.5469 10.1465L21.4141 10L18.207 6.79297C18.0429 6.62883 17.8276 6.52757 17.5986 6.50488L17.5 6.5H15V5C15 3.89543 14.1046 3 13 3H3C1.89543 3 1 3.89543 1 5V15C1 16.1046 1.89543 17 3 17H3.03613C3.01277 17.1633 3 17.3302 3 17.5C3 19.433 4.567 21 6.5 21C8.433 21 10 19.433 10 17.5C10 17.3302 9.98724 17.1633 9.96387 17H14.0361C14.0128 17.1633 14 17.3302 14 17.5C14 19.433 15.567 21 17.5 21ZM15 8.5H17.0859L20 11.4141V12H15V8.5ZM6.5 19C5.67157 19 5 18.3284 5 17.5C5 17.3245 5.03153 17.1565 5.08691 17C5.13631 16.8604 5.20602 16.7305 5.29199 16.6133C5.35178 16.532 5.41951 16.4573 5.49414 16.3896C5.52373 16.3628 5.55426 16.337 5.58594 16.3125C5.83915 16.1173 6.15555 16 6.5 16C6.84417 16 7.15997 16.1176 7.41309 16.3125C7.44498 16.3371 7.47608 16.3626 7.50586 16.3896C7.58035 16.4572 7.64733 16.5321 7.70703 16.6133C7.79316 16.7306 7.86362 16.8602 7.91309 17C7.96847 17.1565 8 17.3245 8 17.5C8 18.3284 7.32843 19 6.5 19ZM17.5 19C16.6716 19 16 18.3284 16 17.5C16 17.3245 16.0315 17.1565 16.0869 17C16.1363 16.8604 16.206 16.7305 16.292 16.6133C16.3518 16.532 16.4195 16.4573 16.4941 16.3896C16.5237 16.3628 16.5543 16.337 16.5859 16.3125C16.8392 16.1173 17.1556 16 17.5 16C17.8442 16 18.16 16.1176 18.4131 16.3125C18.445 16.3371 18.4761 16.3626 18.5059 16.3896C18.5804 16.4572 18.6473 16.5321 18.707 16.6133C18.7932 16.7306 18.8636 16.8602 18.9131 17C18.9685 17.1565 19 17.3245 19 17.5C19 18.3284 18.3284 19 17.5 19Z" fill="currentColor"/>
</svg>
