<svg width="24" height="24" viewBox="0 0 24 24" fill="none" xmlns="http://www.w3.org/2000/svg">
<path fill-rule="evenodd" clip-rule="evenodd" d="M6 2.5C6 1.67157 6.67157 1 7.5 1C8.32843 1 9 1.67157 9 2.5V5.5C9 5.66014 8.92471 5.8027 8.8076 5.89421L6 3.08661V2.5ZM16.7383 18.1525L19.2929 20.7071C19.6834 21.0976 20.3166 21.0976 20.7071 20.7071C21.0976 20.3166 21.0976 19.6834 20.7071 19.2929L4.70711 3.29289C4.31658 2.90237 3.68342 2.90237 3.29289 3.29289C2.90237 3.68342 2.90237 4.31658 3.29289 4.70711L6.58579 8H4C3.44772 8 3 8.44772 3 9V10C3 10.5523 3.44772 11 4 11H5V13C5 13.9193 5.18106 14.8295 5.53284 15.6788C5.88463 16.5281 6.40024 17.2997 7.05025 17.9497C7.70026 18.5998 8.47194 19.1154 9.32122 19.4672C9.86065 19.6906 10.4247 19.8452 11 19.9282V22C11 22.5523 11.4477 23 12 23C12.5523 23 13 22.5523 13 22V19.9282C13.5753 19.8452 14.1393 19.6906 14.6788 19.4672C15.4378 19.1528 16.1347 18.7076 16.7383 18.1525ZM10.9134 8L18.5033 15.5899C18.8313 14.7661 19 13.8873 19 13V11H20C20.5523 11 21 10.5523 21 10V9C21 8.44772 20.5523 8 20 8H10.9134ZM15 2.5C15 1.67157 15.6716 1 16.5 1C17.3284 1 18 1.67157 18 2.5V5.5C18 5.77614 17.7761 6 17.5 6H15.5C15.2239 6 15 5.77614 15 5.5V2.5Z" fill="currentColor"/>
</svg>
