<svg width="24" height="24" viewBox="0 0 24 24" fill="none" xmlns="http://www.w3.org/2000/svg">
<path fill-rule="evenodd" clip-rule="evenodd" d="M13.9424 3.00167C14.3579 2.97768 14.7448 3.21355 14.9138 3.59387L18.6499 12H21C21.5523 12 22 12.4477 22 13C22 13.5523 21.5523 14 21 14H18C17.6048 14 17.2467 13.7673 17.0862 13.4061L14.1634 6.82982L9.95448 20.2983C9.82961 20.6979 9.46907 20.9774 9.05098 20.9987C8.63289 21.0201 8.24576 20.7787 8.08085 20.3939L5.3406 14H3C2.44772 14 2 13.5523 2 13C2 12.4477 2.44772 12 3 12H6C6.40003 12 6.76157 12.2384 6.91915 12.6061L8.85289 17.1182L13.0455 3.70173C13.1697 3.30449 13.5269 3.02566 13.9424 3.00167Z" fill="currentColor"/>
</svg>
