<svg width="24" height="24" viewBox="0 0 24 24" fill="none" xmlns="http://www.w3.org/2000/svg">
<g clip-path="url(#clip0_602_2027)">
<path fill-rule="evenodd" clip-rule="evenodd" d="M18.2948 2.88069C18.6853 3.27122 18.6853 3.90438 18.2948 4.2949L14.9996 7.59002L16.4138 9.00424L19.709 5.70912C20.0995 5.31859 20.7327 5.31859 21.1232 5.70912C21.2244 5.81035 21.2994 5.9279 21.3482 6.05329C21.687 6.78205 21.9004 7.56929 21.9729 8.38208C22.1194 10.0236 21.682 11.6643 20.7378 13.015C19.7935 14.3658 18.4029 15.34 16.8109 15.7662C15.4391 16.1335 13.982 16.0475 12.6643 15.5833L12.1722 16.0754L7.12121 21.1253C5.94963 22.2969 4.05014 22.2969 2.87857 21.1253C1.707 19.9537 1.707 18.0542 2.87857 16.8827L8.41145 11.3498C7.94444 10.0344 7.8716 8.59574 8.22895 7.23112C8.64644 5.63678 9.61309 4.24088 10.9587 3.28924C12.3042 2.3376 13.9424 1.89124 15.5848 2.02878C16.4077 2.09769 17.2052 2.31098 17.9431 2.65285C18.0713 2.7015 18.1915 2.77745 18.2948 2.88069ZM9.34321 13.2464L4.29278 18.2969C3.90226 18.6874 3.90226 19.3206 4.29278 19.7111C4.68331 20.1016 5.31647 20.1016 5.70699 19.7111L11.4639 13.9542L11.7192 13.7C12.0168 13.4024 12.4688 13.323 12.85 13.5013C13.9298 14.0064 15.1705 14.135 16.2936 13.8343C17.4308 13.5298 18.4241 12.8339 19.0986 11.8691C19.7731 10.9043 20.0855 9.73242 19.9808 8.55987C19.9729 8.47156 19.9627 8.38366 19.9502 8.29628L17.8281 10.4184C17.047 11.1995 15.7807 11.1995 14.9996 10.4184L13.5854 9.00424C12.8044 8.22319 12.8044 6.95686 13.5854 6.17581L15.7068 4.05447C15.611 4.04081 15.5147 4.02991 15.4179 4.0218C14.2448 3.92356 13.0746 4.24239 12.1135 4.92213C11.1524 5.60188 10.4619 6.59895 10.1637 7.73776C9.86668 8.87206 9.98686 10.09 10.4935 11.1579C10.6748 11.5399 10.5961 11.9946 10.2971 12.2936L9.34321 13.2464Z" fill="black"/>
</g>
<defs>
<clipPath id="clip0_602_2027">
<rect width="24" height="24" fill="white"/>
</clipPath>
</defs>
</svg>
