<svg width="24" height="24" viewBox="0 0 24 24" fill="none" xmlns="http://www.w3.org/2000/svg">
<path fill-rule="evenodd" clip-rule="evenodd" d="M20.9079 7.63857L18.3288 10.2177C17.5477 10.9987 16.2814 10.9987 15.5004 10.2177L13.779 8.49636C12.998 7.71531 12.998 6.44898 13.779 5.66793L16.3581 3.08889C16.1803 3.05659 16.0005 3.03271 15.8191 3.01753C14.4932 2.90649 13.1706 3.26685 12.0842 4.03517C10.9979 4.80348 10.2175 5.93046 9.8804 7.21765C9.54452 8.50033 9.68055 9.87674 10.2529 11.0831C10.4342 11.4652 10.3556 11.9199 10.0566 12.2189L9.78276 12.4927L9.78309 12.493L3.35814 18.918C2.88247 19.3937 2.88211 20.1648 3.35733 20.6409C3.8333 21.1177 4.6059 21.118 5.08214 20.6414L10.7216 14.9977L10.721 14.9971L11.7866 13.9315C12.0842 13.6339 12.5362 13.5545 12.9174 13.7328C14.1361 14.3029 15.5377 14.4489 16.809 14.1085C18.0944 13.7644 19.217 12.9778 19.9794 11.8873C20.7418 10.7968 21.0949 9.4722 20.9766 8.14688C20.9614 7.97588 20.9384 7.80629 20.9079 7.63857ZM7.58547 11.8616L7.5858 11.8619L1.94392 17.5038C0.687728 18.76 0.68677 20.7964 1.94178 22.0538C3.1988 23.3131 5.23915 23.3137 6.49688 22.0551L12.1519 16.3959L17.8815 22.1255C19.0531 23.2971 20.9525 23.2971 22.1241 22.1255C23.2957 20.9539 23.2957 19.0544 22.1241 17.8829L19.3881 15.1469C20.2604 14.6044 21.0212 13.8877 21.6186 13.0332C22.6507 11.5567 23.1288 9.76342 22.9687 7.96908C22.8893 7.07969 22.6556 6.2183 22.2846 5.421C22.2359 5.29447 22.1605 5.17584 22.0585 5.07379C21.6679 4.68327 21.0348 4.68327 20.6442 5.07379L16.9146 8.80346L15.1933 7.08214L18.9229 3.35248C19.3135 2.96195 19.3135 2.32879 18.9229 1.93826C18.8207 1.83606 18.7019 1.7606 18.5752 1.71189C17.7654 1.33515 16.8897 1.10018 15.986 1.0245C14.1909 0.874169 12.4002 1.36207 10.9294 2.40228C9.49846 3.41429 8.45956 4.88595 7.98406 6.5698L7.00003 5.58577V2.99998C7.00003 2.56955 6.7246 2.18741 6.31626 2.0513L3.31625 1.0513C2.95692 0.931519 2.56075 1.02504 2.29292 1.29287L1.29292 2.29287C1.02509 2.56071 0.931566 2.95687 1.05134 3.31621L2.05134 6.31621C2.18746 6.72455 2.5696 6.99998 3.00003 6.99998H5.58581L7.54289 8.95706C7.59572 9.00989 7.65299 9.05557 7.7135 9.0941C7.75861 9.83834 7.91189 10.5749 8.16874 11.2783L7.58547 11.8616ZM17.4259 16.0131C17.3928 16.0224 17.3595 16.0315 17.3262 16.0405C16.517 16.2571 15.6801 16.3294 14.8545 16.2701L19.2957 20.7113C19.6862 21.1018 20.3194 21.1018 20.7099 20.7113C21.1004 20.3208 21.1004 19.6876 20.7099 19.2971L17.4259 16.0131ZM3.14415 3.27007L3.27012 3.1441L5.00003 3.72074V4.99998H3.72079L3.14415 3.27007Z" fill="currentColor"/>
</svg>
