<svg width="24" height="24" viewBox="0 0 24 24" fill="none" xmlns="http://www.w3.org/2000/svg">
<path fill-rule="evenodd" clip-rule="evenodd" d="M5.97822 18.6888C7.57307 20.1255 9.68441 21 12 21C14.3156 21 16.4269 20.1255 18.0218 18.6888C16.7631 16.9398 14.5366 15.7776 12 15.7776C9.46337 15.7776 7.23694 16.9398 5.97822 18.6888ZM12 1C5.92487 1 1 5.92487 1 12C1 18.0751 5.92487 23 12 23C18.0751 23 23 18.0751 23 12C23 5.92487 18.0751 1 12 1ZM12 13.1111C13.9637 13.1111 15.5556 11.5192 15.5556 9.55556C15.5556 7.59188 13.9637 6 12 6C10.0363 6 8.44445 7.59188 8.44445 9.55556C8.44445 11.5192 10.0363 13.1111 12 13.1111Z" fill="currentColor"/>
</svg>
