<svg width="24" height="24" viewBox="0 0 24 24" fill="none" xmlns="http://www.w3.org/2000/svg">
<path fill-rule="evenodd" clip-rule="evenodd" d="M12 3C7.02944 3 3 7.02944 3 12C3 16.9706 7.02944 21 12 21C16.9706 21 21 16.9706 21 12C21 7.02944 16.9706 3 12 3ZM1 12C1 5.92487 5.92487 1 12 1C18.0751 1 23 5.92487 23 12C23 18.0751 18.0751 23 12 23C5.92487 23 1 18.0751 1 12ZM8.79692 13.8959C8.46474 13.4577 7.84049 13.3697 7.40006 13.7001C6.95823 14.0314 6.86869 14.6582 7.20006 15.1001L7.20107 15.1014L7.20222 15.1029L7.20496 15.1066L7.21217 15.116L7.23347 15.1432C7.25071 15.165 7.27407 15.1939 7.30342 15.2289C7.36207 15.2987 7.44506 15.3934 7.55151 15.5045C7.76358 15.7258 8.07349 16.0172 8.47439 16.3088C9.27233 16.8891 10.4745 17.5001 12.0001 17.5001C13.5256 17.5001 14.7278 16.8891 15.5257 16.3088C15.9266 16.0172 16.2365 15.7258 16.4486 15.5045C16.5551 15.3934 16.6381 15.2987 16.6967 15.2289C16.7261 15.1939 16.7494 15.165 16.7666 15.1432L16.7879 15.116L16.7952 15.1066L16.7979 15.1029L16.799 15.1014L16.8001 15.1001C17.1314 14.6582 17.0419 14.0314 16.6001 13.7001C16.1596 13.3697 15.5354 13.4577 15.2032 13.8959L15.1986 13.9018C15.1926 13.9093 15.1813 13.9234 15.1647 13.9431C15.1316 13.9826 15.0779 14.0442 15.0046 14.1207C14.8573 14.2744 14.636 14.4829 14.3494 14.6913C13.7723 15.111 12.9745 15.5001 12.0001 15.5001C11.0256 15.5001 10.2278 15.111 9.65073 14.6913C9.36413 14.4829 9.14278 14.2744 8.99548 14.1207C8.92225 14.0442 8.86852 13.9826 8.83537 13.9431C8.81883 13.9234 8.80751 13.9093 8.80156 13.9018L8.79692 13.8959ZM10.5 9.5C10.5 10.3284 9.82843 11 9 11C8.17157 11 7.5 10.3284 7.5 9.5C7.5 8.67157 8.17157 8 9 8C9.82843 8 10.5 8.67157 10.5 9.5ZM16.5 9.5C16.5 10.3284 15.8284 11 15 11C14.1716 11 13.5 10.3284 13.5 9.5C13.5 8.67157 14.1716 8 15 8C15.8284 8 16.5 8.67157 16.5 9.5Z" fill="currentColor"/>
</svg>
