<svg width="24" height="24" viewBox="0 0 24 24" fill="none" xmlns="http://www.w3.org/2000/svg">
<path fill-rule="evenodd" clip-rule="evenodd" d="M12 1C5.92487 1 1 5.92487 1 12C1 18.0751 5.92487 23 12 23C18.0751 23 23 18.0751 23 12C23 5.92487 18.0751 1 12 1ZM7.4 13.7C7.84044 13.3697 8.46468 13.4576 8.79686 13.8958L8.8015 13.9018C8.80745 13.9093 8.81877 13.9234 8.83531 13.9431C8.86846 13.9826 8.92219 14.0442 8.99543 14.1206C9.14272 14.2743 9.36407 14.4828 9.65067 14.6913C10.2277 15.1109 11.0255 15.5 12 15.5C12.9745 15.5 13.7723 15.1109 14.3493 14.6913C14.6359 14.4828 14.8573 14.2743 15.0046 14.1206C15.0778 14.0442 15.1315 13.9826 15.1647 13.9431C15.1812 13.9234 15.1925 13.9093 15.1985 13.9018L15.2031 13.8958C15.5353 13.4576 16.1596 13.3697 16.6 13.7C17.0418 14.0314 17.1314 14.6582 16.8 15.1L16.799 15.1013L16.7978 15.1029L16.7951 15.1065L16.7879 15.1159L16.7666 15.1432C16.7493 15.1649 16.726 15.1938 16.6966 15.2288C16.638 15.2987 16.555 15.3933 16.4486 15.5044C16.2365 15.7257 15.9266 16.0172 15.5257 16.3087C14.7277 16.8891 13.5255 17.5 12 17.5C10.4745 17.5 9.27227 16.8891 8.47433 16.3087C8.07343 16.0172 7.76353 15.7257 7.55145 15.5044C7.445 15.3933 7.36201 15.2987 7.30336 15.2288C7.27401 15.1938 7.25065 15.1649 7.23341 15.1432L7.21211 15.1159L7.2049 15.1065L7.20216 15.1029L7.20101 15.1013L7.2 15.1C6.86863 14.6582 6.95817 14.0314 7.4 13.7ZM9 11C9.82843 11 10.5 10.3284 10.5 9.5C10.5 8.67157 9.82843 8 9 8C8.17157 8 7.5 8.67157 7.5 9.5C7.5 10.3284 8.17157 11 9 11ZM15 11C15.8284 11 16.5 10.3284 16.5 9.5C16.5 8.67157 15.8284 8 15 8C14.1716 8 13.5 8.67157 13.5 9.5C13.5 10.3284 14.1716 11 15 11Z" fill="currentColor"/>
</svg>
