<svg width="24" height="24" viewBox="0 0 24 24" fill="none" xmlns="http://www.w3.org/2000/svg">
<path fill-rule="evenodd" clip-rule="evenodd" d="M3 8.5C3 7.67157 3.67157 7 4.5 7H19.5C20.3284 7 21 7.67157 21 8.5C21 9.32843 20.3284 10 19.5 10H17C16.4477 10 16 10.4477 16 11V21.5C16 22.3284 15.3284 23 14.5 23C13.6716 23 13 22.3284 13 21.5V17C13 16.4477 12.5523 16 12 16C11.4477 16 11 16.4477 11 17V21.5C11 22.3284 10.3284 23 9.5 23C8.67157 23 8 22.3284 8 21.5V11C8 10.4477 7.55228 10 7 10H4.5C3.67157 10 3 9.32843 3 8.5ZM12 6C13.3807 6 14.5 4.88071 14.5 3.5C14.5 2.11929 13.3807 1 12 1C10.6193 1 9.5 2.11929 9.5 3.5C9.5 4.88071 10.6193 6 12 6Z" fill="currentColor"/>
</svg>
