<svg width="24" height="24" viewBox="0 0 24 24" fill="none" xmlns="http://www.w3.org/2000/svg">
<path fill-rule="evenodd" clip-rule="evenodd" d="M5 1C2.79086 1 1 2.79086 1 5V19C1 21.2091 2.79086 23 5 23H19C21.2091 23 23 21.2091 23 19V5C23 2.79086 21.2091 1 19 1H5ZM4.98024 20.9999C4.98682 21 4.9934 21 5 21H19C19.0066 21 19.0132 21 19.0198 20.9999C18.4731 18.0389 15.5384 15.7776 12 15.7776C8.46166 15.7776 5.52691 18.0389 4.98024 20.9999ZM12 13.1111C13.9637 13.1111 15.5556 11.5192 15.5556 9.55556C15.5556 7.59188 13.9637 6 12 6C10.0363 6 8.44445 7.59188 8.44445 9.55556C8.44445 11.5192 10.0363 13.1111 12 13.1111Z" fill="currentColor"/>
</svg>
