<svg width="24" height="24" viewBox="0 0 24 24" fill="none" xmlns="http://www.w3.org/2000/svg">
<path d="M8.71191 13.2725C9.07346 13.2405 9.42921 13.408 9.63379 13.7178C9.86733 14.0716 9.85263 14.5341 9.59668 14.8721C9.45506 15.0591 9.31786 15.2525 9.1875 15.4512L8.98145 15.7773L8.98242 15.7783C8.45709 16.6564 8.00009 17.7629 8 19C8.00002 19.6433 8.08305 20.2179 8.22852 20.7246L8.25391 20.8389C8.2977 21.1066 8.23163 21.3832 8.06641 21.6025C7.87748 21.8531 7.58142 22 7.26758 22H3C2.44781 22 2.00015 21.5522 2 21C2.00024 17.252 4.85904 14.2226 8.55762 13.2988L8.71191 13.2725ZM17.5 13C17.5 13 22 16 22 19C22 22 19.5996 22 19.5996 22H12.4004C12.4004 22 10 22 10 19C10 16.0111 14.4671 13.023 14.5 13.001C14.5 13.001 15.3729 13 16 13H17.5ZM16 14.1973C15.6808 14.1974 15.4194 14.4592 15.4189 14.7783V15.1855C15.1982 15.2349 14.9768 15.3135 14.7734 15.4326C14.3698 15.6738 14.0217 16.0954 14.0244 16.708C14.0273 17.2976 14.3733 17.6698 14.7422 17.8906C15.0616 18.0822 15.4598 18.2049 15.7764 18.2979L15.8252 18.3115C16.191 18.4219 16.4595 18.5098 16.6396 18.623C16.7872 18.7157 16.8076 18.7802 16.8105 18.8613C16.8134 19.0063 16.7584 19.0935 16.6396 19.166C16.4944 19.2561 16.2645 19.3114 16.0176 19.3027C15.6952 19.2911 15.3921 19.1893 14.9971 19.0557C14.9305 19.0325 14.8604 19.0095 14.7881 18.9863C14.4832 18.885 14.1545 19.0507 14.0527 19.3525C13.9515 19.6543 14.1175 19.985 14.4189 20.0869C14.474 20.1043 14.5358 20.1253 14.5967 20.1484C14.8377 20.2327 15.1169 20.3287 15.416 20.3926V20.8164C15.416 21.1359 15.6776 21.3973 15.9971 21.3975C16.3167 21.3974 16.5781 21.136 16.5781 20.8164V20.416C16.8104 20.3666 17.0428 20.2849 17.252 20.1543C17.6674 19.8957 17.9813 19.4539 17.9727 18.8467C17.9638 18.2571 17.6325 17.8759 17.2578 17.6377C16.9238 17.4287 16.5049 17.3009 16.1797 17.2021L16.1602 17.1963C15.7888 17.0831 15.5238 17.0018 15.3379 16.8916C15.1872 16.8017 15.1836 16.7485 15.1836 16.6963C15.1837 16.5891 15.2241 16.507 15.3633 16.4258C15.5201 16.3329 15.7588 16.2784 15.9883 16.2812C16.267 16.2842 16.5752 16.3446 16.8945 16.4316C17.2054 16.513 17.5221 16.3303 17.6064 16.0195C17.6905 15.7088 17.505 15.3919 17.1943 15.3076C17.0056 15.2583 16.7959 15.2086 16.5811 15.1709V14.7783C16.5806 14.4591 16.3193 14.1973 16 14.1973ZM12 2C14.7614 2 17 4.23858 17 7C17 7.55228 16.5523 8 16 8H14.0664C12.5985 8 11.6065 9.33922 11.8506 10.6553C11.9138 10.997 11.7951 11.3473 11.5371 11.5801C11.2789 11.8129 10.9175 11.8952 10.584 11.7969C8.51304 11.1863 7 9.27095 7 7C7 4.23858 9.23858 2 12 2ZM17.916 10C18.1155 10 18.2354 10.2225 18.125 10.3887L17.1875 11.7998H14.7959L13.8584 10.3887C13.748 10.2225 13.8669 10 14.0664 10H17.916Z" fill="currentColor"/>
</svg>
