<svg width="24" height="24" viewBox="0 0 24 24" fill="none" xmlns="http://www.w3.org/2000/svg">
<path fill-rule="evenodd" clip-rule="evenodd" d="M10.6669 7.55577C10.6669 5.10117 12.6567 3.11133 15.1113 3.11133C17.5659 3.11133 19.5558 5.10117 19.5558 7.55577C19.5558 8.79775 19.0452 9.92209 18.2247 10.7275C18.021 10.9275 17.7337 11.0175 17.4524 10.9694C17.1435 10.9167 16.8254 10.8891 16.5002 10.8891C15.5666 10.8891 14.6887 11.1164 13.9163 11.518C13.6621 11.6501 13.3599 11.6516 13.1044 11.5222C11.66 10.7902 10.6669 9.28974 10.6669 7.55577ZM10.4781 14.8375C10.8055 15.0125 10.9897 15.3726 10.94 15.7405C10.9065 15.9885 10.8891 16.2421 10.8891 16.5002C10.8891 17.614 11.2127 18.6494 11.7706 19.5209C11.9458 19.7945 11.9578 20.1419 11.8018 20.4269C11.6459 20.7119 11.3469 20.8891 11.022 20.8891H8.00022C7.5093 20.8891 7.11133 20.4911 7.11133 20.0002C7.11133 18.0075 8.0308 16.2271 9.47064 14.9553C9.74891 14.7095 10.1506 14.6625 10.4781 14.8375ZM3.875 11.3003C3.875 9.5744 5.27411 8.17529 7 8.17529C8.72589 8.17529 10.125 9.5744 10.125 11.3003C10.125 13.0262 8.72589 14.4253 7 14.4253C5.27411 14.4253 3.875 13.0262 3.875 11.3003ZM7.04097 15.4145C7.15687 15.6419 7.12283 15.917 6.95498 16.1093C6.00501 17.1977 5.43619 18.5552 5.42497 20.055C5.42241 20.3983 5.14335 20.6753 4.79999 20.6753H2C1.65482 20.6753 1.375 20.3955 1.375 20.0503C1.375 17.394 3.66057 15.324 6.42828 15.0758C6.68251 15.053 6.92506 15.1871 7.04097 15.4145ZM16.5 21.0002C17.3807 21.0002 18.2023 20.7472 18.8961 20.3099L20.2514 21.6655C20.6419 22.056 21.2751 22.0561 21.6657 21.6656C22.0562 21.2751 22.0563 20.6419 21.6658 20.2514L20.3102 18.8956C20.7472 18.2019 21 17.3806 21 16.5002C21 14.015 18.9853 12.0002 16.5 12.0002C14.0147 12.0002 12 14.015 12 16.5002C12 18.9855 14.0147 21.0002 16.5 21.0002ZM16.5001 19.0002C17.8808 19.0002 19.0001 17.8809 19.0001 16.5002C19.0001 15.1195 17.8808 14.0002 16.5001 14.0002C15.1194 14.0002 14.0001 15.1195 14.0001 16.5002C14.0001 17.8809 15.1194 19.0002 16.5001 19.0002Z" fill="currentColor"/>
</svg>
