<svg width="24" height="24" viewBox="0 0 24 24" fill="none" xmlns="http://www.w3.org/2000/svg">
<path fill-rule="evenodd" clip-rule="evenodd" d="M4.84578 3.04188C4.37179 3.16889 4.08366 3.57489 3.9799 4.08198C3.86917 4.62305 3.34079 4.97192 2.79972 4.8612C2.25865 4.75047 1.90978 4.22209 2.0205 3.68102C2.21559 2.72766 2.87028 1.50067 4.32814 1.11003C5.01691 0.925477 5.79849 0.960962 6.4928 1.30915C7.20912 1.66838 7.75959 2.32529 8.00237 3.23135C8.31232 4.38808 7.65451 5.3521 7.2099 5.85801C6.96345 6.13844 6.70937 6.36289 6.52054 6.5156C6.42492 6.59293 6.34298 6.65431 6.28288 6.69774C6.25276 6.71951 6.22793 6.73691 6.20936 6.74971L6.17551 6.77266C5.71462 7.07696 5.09202 6.95154 4.78772 6.49065C4.48405 6.03073 4.60983 5.41204 5.06836 5.10706L5.07445 5.1029C5.08149 5.09805 5.09411 5.08924 5.11143 5.07673C5.14619 5.0516 5.199 5.01218 5.26292 4.96048C5.39318 4.85514 5.55736 4.7087 5.7076 4.53775C6.05637 4.14089 6.10567 3.88016 6.07052 3.74899C5.96821 3.36715 5.7769 3.18754 5.59623 3.09694C5.39355 2.99529 5.12293 2.96762 4.84578 3.04188ZM7.39941 9C7.39941 9.55229 6.9517 10 6.39941 10C5.84713 10 5.39941 9.55229 5.39941 9C5.39941 8.44772 5.84713 8 6.39941 8C6.9517 8 7.39941 8.44772 7.39941 9ZM12 9C12.5523 9 13 8.55228 13 8C13 7.44772 12.5523 7 12 7C11.4477 7 11 7.44772 11 8C11 8.55228 11.4477 9 12 9ZM12 1C12.5523 1 13 1.44772 13 2V5C13 5.55228 12.5523 6 12 6C11.4477 6 11 5.55228 11 5V2C11 1.44772 11.4477 1 12 1ZM17.9782 3.50817C18.3216 3.1209 18.7741 2.91336 19.2481 3.04036C19.5253 3.11462 19.7458 3.2739 19.8705 3.46327C19.9817 3.63207 20.0575 3.88327 19.9552 4.26511C19.9201 4.39628 19.747 4.59742 19.2465 4.76673C19.031 4.83966 18.8156 4.88439 18.6501 4.91049C18.5689 4.9233 18.5034 4.93104 18.4608 4.93541C18.4395 4.93759 18.4242 4.93891 18.4156 4.93959L18.4083 4.94015C17.8587 4.975 17.4404 5.44791 17.4735 5.99805C17.5065 6.54935 17.9866 6.96904 18.5378 6.93595L18.5751 6.93322C18.5976 6.93142 18.6278 6.92877 18.6648 6.92498C18.7385 6.91742 18.8402 6.90523 18.9617 6.88607C19.2015 6.84824 19.5338 6.78089 19.8874 6.66126C20.5254 6.44543 21.5771 5.93947 21.8871 4.78274C22.1299 3.87668 21.9816 3.03254 21.5408 2.36328C21.1137 1.71459 20.4545 1.29307 19.7658 1.10851C18.3079 0.717877 17.1274 1.45314 16.4818 2.18123C16.1154 2.59445 16.1533 3.22648 16.5665 3.5929C16.9797 3.95933 17.6118 3.92139 17.9782 3.50817ZM17.6953 10C18.2476 10 18.6953 9.55229 18.6953 9C18.6953 8.44772 18.2476 8 17.6953 8C17.143 8 16.6953 8.44772 16.6953 9C16.6953 9.55229 17.143 10 17.6953 10ZM7.33157 11.7522C6.64228 11.2927 5.71097 11.4789 5.25144 12.1682L3.25144 15.1682C3.02552 15.5071 2.94712 15.9233 3.03424 16.3211C3.12135 16.719 3.36651 17.0643 3.71337 17.2778L7 19.3003V22C7 22.5523 7.44772 23 8 23H16C16.5523 23 17 22.5523 17 22V19.3L20.2861 17.2778C20.6329 17.0643 20.8781 16.719 20.9652 16.3211C21.0523 15.9233 20.9739 15.5071 20.748 15.1682L18.748 12.1682C18.2885 11.4789 17.3572 11.2927 16.6679 11.7522C15.9786 12.2117 15.7923 13.143 16.2519 13.8323L17.389 15.538L15.0133 17H8.98613L6.61045 15.538L7.74759 13.8323C8.20712 13.143 8.02086 12.2117 7.33157 11.7522ZM12 16C13.6569 16 15 14.6569 15 13C15 11.3431 13.6569 10 12 10C10.3431 10 9 11.3431 9 13C9 14.6569 10.3431 16 12 16Z" fill="currentColor"/>
</svg>
