<svg width="24" height="24" viewBox="0 0 24 24" fill="none" xmlns="http://www.w3.org/2000/svg">
<path fill-rule="evenodd" clip-rule="evenodd" d="M15.1113 3.11133C12.6567 3.11133 10.6669 5.10117 10.6669 7.55577C10.6669 9.9925 12.6277 11.9711 15.0578 11.9999C15.2731 12.0025 15.482 11.9268 15.6457 11.7869C16.2764 11.2482 17.0736 10.8109 18.0549 10.6372C18.2689 10.5992 18.4617 10.4842 18.5966 10.3138C19.1968 9.55621 19.5558 8.59668 19.5558 7.55577C19.5558 5.10117 17.5659 3.11133 15.1113 3.11133ZM13.9821 14.2427C14.0588 13.9389 13.9698 13.6172 13.7481 13.396C13.5263 13.1747 13.2044 13.0865 12.9008 13.1638C9.63244 13.9963 7.11133 16.6817 7.11133 20.0002C7.11133 20.4911 7.5093 20.8891 8.00022 20.8891H15.1262C15.5318 20.8891 15.886 20.6146 15.9871 20.2218C16.0333 20.0423 16.0951 19.8691 16.1711 19.7036C16.279 19.4687 16.2793 19.1986 16.172 18.9635C16.1261 18.8629 16.0849 18.7586 16.049 18.6508C16.0129 18.5426 15.9832 18.4341 15.9595 18.3257C15.9044 18.0731 15.7421 17.8571 15.5149 17.7339C14.2493 17.0474 13.6409 15.5948 13.9821 14.2427ZM17.8946 15.4475C18.1261 14.9846 18.5095 14.667 19.0002 14.667C19.2871 14.667 19.5414 14.7638 19.7109 14.9144C19.8619 15.0487 20.0002 15.2717 20.0002 15.667C20.0002 15.8028 19.8851 16.0419 19.4455 16.3349C19.2562 16.4612 19.0597 16.5601 18.9066 16.6282C18.8315 16.6616 18.7702 16.686 18.7302 16.7013C18.7102 16.7089 18.6957 16.7141 18.6877 16.717L18.6807 16.7194C18.1589 16.8953 17.8773 17.4604 18.0515 17.9832C18.2262 18.5072 18.7925 18.7903 19.3164 18.6157L19.0106 17.698C19.3165 18.6157 19.3164 18.6157 19.3164 18.6157L19.3177 18.6153L19.319 18.6148L19.3224 18.6137L19.3313 18.6106L19.3577 18.6014C19.3789 18.5938 19.4074 18.5835 19.4422 18.5702C19.5114 18.5438 19.6065 18.5057 19.7189 18.4558C19.9408 18.3572 20.2443 18.2061 20.5549 17.999C21.1153 17.6254 22.0002 16.8645 22.0002 15.667C22.0002 14.729 21.6385 13.952 21.0396 13.4196C20.4591 12.9036 19.7133 12.667 19.0002 12.667C17.4909 12.667 16.541 13.6827 16.1058 14.5531C15.8588 15.0471 16.059 15.6478 16.553 15.8948C17.047 16.1417 17.6477 15.9415 17.8946 15.4475ZM19 22.0002C19.5523 22.0002 20 21.5525 20 21.0002C20 20.448 19.5523 20.0002 19 20.0002C18.4477 20.0002 18 20.448 18 21.0002C18 21.5525 18.4477 22.0002 19 22.0002ZM7 8.17529C5.27411 8.17529 3.875 9.5744 3.875 11.3003C3.875 13.0262 5.27411 14.4253 7 14.4253C8.72589 14.4253 10.125 13.0262 10.125 11.3003C10.125 9.5744 8.72589 8.17529 7 8.17529ZM6.95498 16.1093C7.12283 15.917 7.15687 15.6419 7.04097 15.4145C6.92506 15.1871 6.68251 15.053 6.42828 15.0758C3.66057 15.324 1.375 17.394 1.375 20.0503C1.375 20.3955 1.65482 20.6753 2 20.6753H4.79999C5.14335 20.6753 5.42241 20.3983 5.42497 20.055C5.43619 18.5552 6.00501 17.1977 6.95498 16.1093Z" fill="currentColor"/>
</svg>
