<svg width="24" height="24" viewBox="0 0 24 24" fill="none" xmlns="http://www.w3.org/2000/svg">
<path fill-rule="evenodd" clip-rule="evenodd" d="M10.6669 7.55577C10.6669 5.10117 12.6567 3.11133 15.1113 3.11133C17.5659 3.11133 19.5558 5.10117 19.5558 7.55577C19.5558 8.22283 19.4082 8.85788 19.1431 9.42797C18.9783 9.78258 18.601 9.98777 18.2137 9.93346C18.0055 9.90426 17.7924 9.88911 17.5752 9.88911C16.2493 9.88911 15.057 10.4553 14.2246 11.3619C13.9596 11.6505 13.537 11.7316 13.184 11.5615C11.6965 10.8447 10.6669 9.32135 10.6669 7.55577ZM12.3694 13.9509C12.6323 14.2496 12.6648 14.6865 12.4488 15.0207C12.1897 15.4217 12.0391 15.899 12.0391 16.4137V20.0002C12.0391 20.4911 11.6411 20.8891 11.1502 20.8891H8.00022C7.5093 20.8891 7.11133 20.4911 7.11133 20.0002C7.11133 17.244 8.86017 14.9138 11.3183 13.7366C11.6772 13.5647 12.1065 13.6523 12.3694 13.9509ZM3.875 11.3003C3.875 9.5744 5.27411 8.17529 7 8.17529C8.72589 8.17529 10.125 9.5744 10.125 11.3003C10.125 13.0262 8.72589 14.4253 7 14.4253C5.27411 14.4253 3.875 13.0262 3.875 11.3003ZM7.04097 15.4145C7.15687 15.6419 7.12283 15.917 6.95498 16.1093C6.00501 17.1977 5.43619 18.5552 5.42497 20.055C5.42241 20.3983 5.14335 20.6753 4.79999 20.6753H2C1.65482 20.6753 1.375 20.3955 1.375 20.0503C1.375 17.394 3.66057 15.324 6.42828 15.0758C6.68251 15.053 6.92506 15.1871 7.04097 15.4145ZM18 14.0002C17.4477 14.0002 17 14.448 17 15.0002V16.0002H19V15.0002C19 14.448 18.5523 14.0002 18 14.0002ZM15 15.0002V16.0002C14.4477 16.0002 14 16.448 14 17.0002V21.0002C14 21.5525 14.4477 22.0002 15 22.0002H21C21.5523 22.0002 22 21.5525 22 21.0002V17.0002C22 16.448 21.5523 16.0002 21 16.0002V15.0002C21 13.3434 19.6569 12.0002 18 12.0002C16.3431 12.0002 15 13.3434 15 15.0002Z" fill="currentColor"/>
</svg>
