<svg width="24" height="24" viewBox="0 0 24 24" fill="none" xmlns="http://www.w3.org/2000/svg">
<path fill-rule="evenodd" clip-rule="evenodd" d="M15.1094 4.24702C14.7011 3.85683 14.2274 3.55086 13.7151 3.33965C13.637 3.60139 13.5319 3.92416 13.3988 4.27085C13.0883 5.07988 12.554 6.21613 11.7155 6.90023C10.755 7.68374 9.33611 7.92602 8.34858 8.01257C8.05698 8.03813 7.7811 8.05161 7.5347 8.05779C7.66839 9.12841 8.18316 10.1191 8.98993 10.8451C9.64096 11.4309 10.4434 11.8095 11.2958 11.9446C11.5264 11.9755 11.7465 11.9959 11.9383 11.9996C11.9799 12.0002 12.0215 12.0001 12.0632 11.9996C12.2546 11.9958 12.4742 11.9754 12.7041 11.9446C13.6951 11.7876 14.6106 11.3027 15.2994 10.5601C16.0711 9.72802 16.4987 8.63654 16.5 7.50518V7.49509C16.5 7.45164 16.4993 7.40814 16.498 7.3646C16.4624 6.18338 15.9636 5.06357 15.1094 4.24702ZM8.79417 4.34205C9.57456 3.54982 10.6187 3.07639 11.7238 3.00848C11.6696 3.17633 11.6056 3.36149 11.5316 3.55421C11.2356 4.32551 10.8531 5.0226 10.4512 5.3505C9.99724 5.72084 9.12449 5.9369 8.17395 6.02021C8.0242 6.03334 7.8787 6.04271 7.74027 6.04922C7.95666 5.41392 8.31444 4.82906 8.79417 4.34205ZM5.5 7.04203C5.5 6.94245 5.51485 6.84447 5.54327 6.75104C5.70931 5.31936 6.34797 3.97539 7.36936 2.93852C8.56725 1.72246 10.1954 1.02642 11.9022 1.00074C13.609 0.975053 15.2573 1.62179 16.4913 2.80125C17.5906 3.85202 18.2824 5.25047 18.4566 6.74955C18.4848 6.84207 18.5 6.94027 18.5 7.04203V7.49345V7.50693V12.542C18.5 13.0943 18.0523 13.542 17.5 13.542H14.8803C14.835 13.5538 14.7793 13.568 14.7147 13.5841C14.5325 13.6294 14.2779 13.6897 13.9867 13.7502C13.6961 13.8106 13.3501 13.8752 12.9936 13.9236C12.7627 13.9593 12.529 13.9827 12.2933 13.9934C12.2256 13.9964 12.1579 13.9984 12.0903 13.9994C12.06 13.9999 12.0299 14.0002 12 14.0002C11.9706 14.0002 11.9411 13.9999 11.9113 13.9994C11.6068 13.9953 11.3044 13.9697 11.0062 13.9236C10.6498 13.8752 10.3039 13.8106 10.0133 13.7502C9.72215 13.6897 9.46751 13.6294 9.28529 13.5841C9.22074 13.568 9.16501 13.5538 9.11967 13.542H6.5C5.94772 13.542 5.5 13.0943 5.5 12.542V7.5V7.04203ZM6.41248 16.6564C8.22619 15.7103 10.4002 15.3999 12 15.3999C13.5998 15.3999 15.7738 15.7103 17.5875 16.6564C19.4427 17.6242 21 19.3173 21 21.9999C21 22.5522 20.5523 22.9999 20 22.9999H4C3.44772 22.9999 3 22.5522 3 21.9999C3 19.3173 4.55731 17.6242 6.41248 16.6564Z" fill="currentColor"/>
</svg>
