<svg width="24" height="24" viewBox="0 0 24 24" fill="none" xmlns="http://www.w3.org/2000/svg">
<path fill-rule="evenodd" clip-rule="evenodd" d="M15.1113 3.11133C12.6567 3.11133 10.6669 5.10117 10.6669 7.55577C10.6669 10.0104 12.6567 12.0002 15.1113 12.0002C17.5659 12.0002 19.5558 10.0104 19.5558 7.55577C19.5558 5.10117 17.5659 3.11133 15.1113 3.11133ZM14.6335 14.4814C14.9033 14.2116 14.9708 13.7996 14.8012 13.4577C14.6315 13.1159 14.2627 12.9205 13.8846 12.9722C10.1412 13.4838 7.11133 16.3557 7.11133 20.0002C7.11133 20.4911 7.5093 20.8891 8.00022 20.8891H10.3293C10.7695 20.8891 11.1434 20.5669 11.2084 20.1316C11.2369 19.9412 11.2818 19.7474 11.3449 19.5511L11.9043 17.8128C12.0921 17.2292 12.4161 16.6988 12.8496 16.2653L14.6335 14.4814ZM7 8.17529C5.27411 8.17529 3.875 9.5744 3.875 11.3003C3.875 13.0262 5.27411 14.4253 7 14.4253C8.72589 14.4253 10.125 13.0262 10.125 11.3003C10.125 9.5744 8.72589 8.17529 7 8.17529ZM6.95498 16.1093C7.12283 15.917 7.15687 15.6419 7.04097 15.4145C6.92506 15.1871 6.68251 15.053 6.42828 15.0758C3.66057 15.324 1.375 17.394 1.375 20.0503C1.375 20.3955 1.65482 20.6753 2 20.6753H4.79999C5.14335 20.6753 5.42241 20.3983 5.42497 20.055C5.43619 18.5552 6.00501 17.1977 6.95498 16.1093ZM13.9138 18.4595C13.9989 18.195 14.1458 17.9546 14.3423 17.7581L18.2876 13.8127C18.971 13.1293 20.0791 13.1293 20.7625 13.8127L21.4696 14.5198C22.153 15.2032 22.153 16.3113 21.4696 16.9947L17.5242 20.9401C17.3278 21.1365 17.0873 21.2834 16.8229 21.3685L15.0845 21.9279C14.0185 22.2709 13.0114 21.2638 13.3545 20.1978L13.9138 18.4595ZM15.4029 18.8187C15.3748 18.8468 15.3539 18.8812 15.3417 18.9189L14.857 20.4253L16.3634 19.9406C16.4012 19.9285 16.4355 19.9075 16.4636 19.8794L18.8175 17.5255L17.7568 16.4648L15.4029 18.8187ZM18.8175 15.4042L19.8781 16.4648L20.409 15.934C20.5066 15.8364 20.5066 15.6781 20.409 15.5805L19.7018 14.8734C19.6042 14.7757 19.4459 14.7757 19.3483 14.8734L18.8175 15.4042Z" fill="currentColor"/>
</svg>
