<svg width="24" height="24" viewBox="0 0 24 24" fill="none" xmlns="http://www.w3.org/2000/svg">
<path d="M9.29688 13.376C9.61583 13.3285 9.94164 13.4382 10.168 13.6758C10.4263 13.9472 10.512 14.3404 10.3887 14.6943C10.1375 15.4149 10 16.1906 10 17C10.0001 18.2766 10.3405 19.4715 10.9355 20.5C11.1143 20.8093 11.115 21.1905 10.9365 21.5C10.7579 21.8094 10.4276 22 10.0703 22H4C3.44783 22 3.00019 21.5521 3 21C3.00018 17.3872 5.65962 14.4387 9.16113 13.4062L9.29688 13.376ZM17 12C19.7614 12 22 14.2386 22 17C22 19.7614 19.7614 22 17 22C14.2386 22 12 19.7614 12 17C12 14.2386 14.2386 12 17 12ZM17 13.5C16.4477 13.5 16 13.9477 16 14.5V16.5C16 17.3284 16.6716 18 17.5 18H19C19.5523 18 20 17.5523 20 17C20 16.4477 19.5523 16 19 16H18V14.5C18 13.9477 17.5523 13.5 17 13.5ZM12 2C14.7614 2 17 4.23858 17 7C17 7.87235 16.776 8.69477 16.3818 9.41016L16.2021 9.70996C16.0752 9.90648 15.8842 10.0514 15.6631 10.1211L15.5664 10.1465C14.363 10.3968 13.2716 10.957 12.3799 11.7412C12.1794 11.9176 11.9158 12.0068 11.6494 11.9883C9.05105 11.8078 7 9.64365 7 7C7 4.23858 9.23858 2 12 2Z" fill="currentColor"/>
</svg>
