<svg width="24" height="24" viewBox="0 0 24 24" fill="none" xmlns="http://www.w3.org/2000/svg">
<path fill-rule="evenodd" clip-rule="evenodd" d="M5.35742 2C3.70057 2 2.35742 3.34315 2.35742 5C2.35742 6.65685 3.70057 8 5.35742 8C7.01428 8 8.35742 6.65685 8.35742 5C8.35742 3.34315 7.01428 2 5.35742 2ZM12 6C9.79086 6 8 7.79086 8 10C8 12.2091 9.79086 14 12 14C14.2091 14 16 12.2091 16 10C16 7.79086 14.2091 6 12 6ZM12 15C8.31247 15 5 17.5233 5 21C5 21.5523 5.44772 22 6 22H18C18.5523 22 19 21.5523 19 21C19 17.5233 15.6875 15 12 15ZM18.3574 2C16.7006 2 15.3574 3.34315 15.3574 5C15.3574 6.65685 16.7006 8 18.3574 8C20.0143 8 21.3574 6.65685 21.3574 5C21.3574 3.34315 20.0143 2 18.3574 2ZM6.00309 10.1947C5.99316 9.88218 5.83763 9.59231 5.58275 9.41123C5.32787 9.23015 5.00296 9.17871 4.7046 9.27219C2.61479 9.92698 1 11.7444 1 14C1 14.5523 1.44772 15 2 15H6.25469C6.62727 15 6.96895 14.7928 7.14129 14.4625C7.31362 14.1322 7.28803 13.7334 7.07488 13.4279C6.43168 12.5057 6.04126 11.3957 6.00309 10.1947ZM19.2954 9.27219C18.997 9.17871 18.6721 9.23015 18.4172 9.41123C18.1624 9.59231 18.0068 9.88218 17.9969 10.1947C17.9587 11.3957 17.5683 12.5057 16.9251 13.4279C16.712 13.7334 16.6864 14.1322 16.8587 14.4625C17.031 14.7928 17.3727 15 17.7453 15H22C22.5523 15 23 14.5523 23 14C23 11.7444 21.3852 9.92698 19.2954 9.27219Z" fill="currentColor"/>
</svg>
