<svg width="24" height="24" viewBox="0 0 24 24" fill="none" xmlns="http://www.w3.org/2000/svg">
<path fill-rule="evenodd" clip-rule="evenodd" d="M15.1113 3.11133C12.6567 3.11133 10.6669 5.10117 10.6669 7.55577C10.6669 10.0104 12.6567 12.0002 15.1113 12.0002C17.5659 12.0002 19.5558 10.0104 19.5558 7.55577C19.5558 5.10117 17.5659 3.11133 15.1113 3.11133ZM15.1113 12.8891C10.8083 12.8891 7.11133 15.9651 7.11133 20.0002C7.11133 20.4911 7.5093 20.8891 8.00022 20.8891H22.2224C22.7134 20.8891 23.1113 20.4911 23.1113 20.0002C23.1113 15.9651 19.4144 12.8891 15.1113 12.8891ZM7 8.17529C5.27411 8.17529 3.875 9.5744 3.875 11.3003C3.875 13.0262 5.27411 14.4253 7 14.4253C8.72589 14.4253 10.125 13.0262 10.125 11.3003C10.125 9.5744 8.72589 8.17529 7 8.17529ZM6.95498 16.1093C7.12283 15.917 7.15687 15.6419 7.04097 15.4145C6.92506 15.1871 6.68251 15.053 6.42828 15.0758C3.66057 15.324 1.375 17.394 1.375 20.0503C1.375 20.3955 1.65482 20.6753 2 20.6753H4.79999C5.14335 20.6753 5.42241 20.3983 5.42497 20.055C5.43619 18.5552 6.00501 17.1977 6.95498 16.1093Z" fill="currentColor"/>
</svg>
