<svg width="24" height="24" viewBox="0 0 24 24" fill="none" xmlns="http://www.w3.org/2000/svg">
<path fill-rule="evenodd" clip-rule="evenodd" d="M3 3C1.89543 3 1 3.89543 1 5V19C1 20.1046 1.89543 21 3 21H21C22.1046 21 23 20.1046 23 19V5C23 3.89543 22.1046 3 21 3H3ZM14.1034 5C14.1034 4.44772 14.5511 4 15.1034 4H20.9236C21.4759 4 21.9236 4.44772 21.9236 5V18.9443C21.5543 17.2817 19.8947 16.0891 18 16.0891C16.1481 16.0891 14.5208 17.2285 14.1034 18.8324V5ZM18 11.2002C16.7727 11.2002 15.7778 12.1951 15.7778 13.4224C15.7778 14.6497 16.7727 15.6446 18 15.6446C19.2273 15.6446 20.2222 14.6497 20.2222 13.4224C20.2222 12.1951 19.2273 11.2002 18 11.2002Z" fill="currentColor"/>
</svg>
