<svg width="24" height="24" viewBox="0 0 24 24" fill="none" xmlns="http://www.w3.org/2000/svg">
<path fill-rule="evenodd" clip-rule="evenodd" d="M15.1113 3.11133C12.6567 3.11133 10.6669 5.10117 10.6669 7.55577C10.6669 10.0104 12.6567 12.0002 15.1113 12.0002C17.5659 12.0002 19.5558 10.0104 19.5558 7.55577C19.5558 5.10117 17.5659 3.11133 15.1113 3.11133ZM15.1113 12.8891C10.8083 12.8891 7.11133 15.9651 7.11133 20.0002C7.11133 20.4911 7.5093 20.8891 8.00022 20.8891H12.5353C12.853 20.8891 13.1466 20.7195 13.3053 20.4443C13.4641 20.1691 13.4639 19.8301 13.3048 19.5551C13.0406 19.0984 12.8891 18.5684 12.8891 18.0002C12.8891 16.5233 13.919 15.2849 15.3007 14.9679C15.6328 14.8917 15.8921 14.6324 15.9683 14.3003C15.9877 14.2158 16.0107 14.132 16.0372 14.0491C16.1232 13.7802 16.0763 13.4865 15.9109 13.2577C15.7456 13.0289 15.4813 12.8922 15.199 12.8895C15.1698 12.8892 15.1406 12.8891 15.1113 12.8891ZM15 18.0002C15 17.448 15.4477 17.0002 16 17.0002H19.5858L18.2929 15.7074C17.9024 15.3168 17.9024 14.6837 18.2929 14.2931C18.6834 13.9026 19.3166 13.9026 19.7071 14.2931L22.7071 17.2931C23.0976 17.6837 23.0976 18.3168 22.7071 18.7074L19.7071 21.7073C19.3166 22.0979 18.6834 22.0979 18.2929 21.7074C17.9024 21.3168 17.9024 20.6837 18.2929 20.2931L19.5858 19.0002H16C15.4477 19.0002 15 18.5525 15 18.0002ZM7 8.17529C5.27411 8.17529 3.875 9.5744 3.875 11.3003C3.875 13.0262 5.27411 14.4253 7 14.4253C8.72589 14.4253 10.125 13.0262 10.125 11.3003C10.125 9.5744 8.72589 8.17529 7 8.17529ZM6.95498 16.1093C7.12283 15.917 7.15687 15.6419 7.04097 15.4145C6.92506 15.1871 6.68251 15.053 6.42828 15.0758C3.66057 15.324 1.375 17.394 1.375 20.0503C1.375 20.3955 1.65482 20.6753 2 20.6753H4.79999C5.14335 20.6753 5.42241 20.3983 5.42497 20.055C5.43619 18.5552 6.00501 17.1977 6.95498 16.1093Z" fill="currentColor"/>
</svg>
