<svg width="24" height="24" viewBox="0 0 24 24" fill="none" xmlns="http://www.w3.org/2000/svg">
<path fill-rule="evenodd" clip-rule="evenodd" d="M7 7C7 4.23858 9.23858 2 12 2C14.7614 2 17 4.23858 17 7C17 9.76142 14.7614 12 12 12C9.23858 12 7 9.76142 7 7ZM15 22C15.5523 22 16 21.5523 16 21C16 20.4477 15.5523 20 15 20C14.4477 20 14 20.4477 14 21C14 21.5523 14.4477 22 15 22ZM18 22C18.5523 22 19 21.5523 19 21C19 20.4477 18.5523 20 18 20C17.4477 20 17 20.4477 17 21C17 21.5523 17.4477 22 18 22ZM22 21C22 21.5523 21.5523 22 21 22C20.4477 22 20 21.5523 20 21C20 20.4477 20.4477 20 21 20C21.5523 20 22 20.4477 22 21ZM12 13C7.15904 13 3 16.4605 3 21C3 21.5523 3.44772 22 4 22H11.0354C11.3254 22 11.601 21.8742 11.791 21.6551C11.9809 21.4361 12.0664 21.1454 12.0254 20.8584C12.0087 20.7419 12 20.6222 12 20.5C12 19.1193 13.1193 18 14.5 18H18.5661C18.9502 18 19.3003 17.78 19.467 17.434C19.6337 17.0879 19.5874 16.677 19.348 16.3767C17.7016 14.3113 15.0048 13 12 13Z" fill="currentColor"/>
</svg>
