<svg width="24" height="24" viewBox="0 0 24 24" fill="none" xmlns="http://www.w3.org/2000/svg">
<path fill-rule="evenodd" clip-rule="evenodd" d="M7 7C7 4.23858 9.23858 2 12 2C14.7614 2 17 4.23858 17 7C17 9.76142 14.7614 12 12 12C9.23858 12 7 9.76142 7 7ZM22 19C22.5523 19 23 18.5523 23 18C23 17.4477 22.5523 17 22 17H18.4142L19.7071 15.7071C20.0976 15.3166 20.0976 14.6834 19.7071 14.2929C19.3166 13.9024 18.6834 13.9024 18.2929 14.2929L15.2929 17.2929C14.9024 17.6834 14.9024 18.3166 15.2929 18.7071L18.2929 21.7071C18.6834 22.0976 19.3166 22.0976 19.7071 21.7071C20.0976 21.3166 20.0976 20.6834 19.7071 20.2929L18.4142 19H22ZM12 13C7.15904 13 3 16.4605 3 21C3 21.5523 3.44772 22 4 22H13.3431C13.7476 22 14.1122 21.7564 14.267 21.3827C14.4218 21.009 14.3363 20.5789 14.0503 20.2929L13.8787 20.1213C12.7071 18.9497 12.7071 17.0503 13.8787 15.8787L14.8067 14.9507C15.063 14.6944 15.1605 14.3196 15.0617 13.9709C14.9629 13.6222 14.6831 13.3543 14.3305 13.2706C13.5858 13.0938 12.8044 13 12 13Z" fill="currentColor"/>
</svg>
