<svg width="24" height="24" viewBox="0 0 24 24" fill="none" xmlns="http://www.w3.org/2000/svg">
<path fill-rule="evenodd" clip-rule="evenodd" d="M7 7C7 4.23858 9.23858 2 12 2C14.7614 2 17 4.23858 17 7C17 9.76142 14.7614 12 12 12C9.23858 12 7 9.76142 7 7ZM18 17.4142V21C18 21.5523 18.4477 22 19 22C19.5523 22 20 21.5523 20 21V17.4142L21.2929 18.7071C21.6834 19.0976 22.3166 19.0976 22.7071 18.7071C23.0976 18.3166 23.0976 17.6834 22.7071 17.2929L19.7071 14.2929C19.3166 13.9024 18.6834 13.9024 18.2929 14.2929L15.2929 17.2929C14.9024 17.6834 14.9024 18.3166 15.2929 18.7071C15.6834 19.0976 16.3166 19.0976 16.7071 18.7071L18 17.4142ZM12 13C7.15904 13 3 16.4605 3 21C3 21.5523 3.44772 22 4 22H13.354C13.7698 22 14.1421 21.7428 14.2893 21.354C14.4365 20.9652 14.3277 20.5259 14.0162 20.2507C13.9695 20.2093 13.9236 20.1662 13.8787 20.1213C12.7071 18.9497 12.7071 17.0503 13.8787 15.8787L14.8067 14.9507C15.063 14.6944 15.1605 14.3196 15.0617 13.9709C14.9629 13.6222 14.6831 13.3543 14.3305 13.2706C13.5858 13.0938 12.8044 13 12 13Z" fill="currentColor"/>
</svg>
