<svg width="24" height="24" viewBox="0 0 24 24" fill="none" xmlns="http://www.w3.org/2000/svg">
<path fill-rule="evenodd" clip-rule="evenodd" d="M10.6669 7.55577C10.6669 5.10117 12.6567 3.11133 15.1113 3.11133C17.5659 3.11133 19.5558 5.10117 19.5558 7.55577C19.5558 10.0104 17.5659 12.0002 15.1113 12.0002C12.6567 12.0002 10.6669 10.0104 10.6669 7.55577ZM7.11133 20.0002C7.11133 15.9651 10.8083 12.8891 15.1113 12.8891C16.4177 12.8891 17.656 13.1676 18.7513 13.6652C19.027 13.7905 19.22 14.0474 19.2634 14.3471C19.3068 14.6468 19.1946 14.9479 18.9658 15.1462C18.9093 15.1952 18.8541 15.2465 18.8003 15.3003L17.0055 17.0952C16.7292 17.3715 16.3048 17.4349 15.9597 17.2515C14.7831 16.626 13.2902 16.8105 12.3003 17.8003C11.6927 18.408 11.3891 19.2026 11.3891 20.0002C11.3891 20.4911 10.9911 20.8891 10.5002 20.8891H8.00022C7.5093 20.8891 7.11133 20.4911 7.11133 20.0002ZM3.875 11.3003C3.875 9.5744 5.27411 8.17529 7 8.17529C8.72589 8.17529 10.125 9.5744 10.125 11.3003C10.125 13.0262 8.72589 14.4253 7 14.4253C5.27411 14.4253 3.875 13.0262 3.875 11.3003ZM7.04097 15.4145C7.15687 15.6419 7.12283 15.917 6.95498 16.1093C6.00501 17.1977 5.43619 18.5552 5.42497 20.055C5.42241 20.3983 5.14335 20.6753 4.79999 20.6753H2C1.65482 20.6753 1.375 20.3955 1.375 20.0503C1.375 17.394 3.66057 15.324 6.42828 15.0758C6.68251 15.053 6.92506 15.1871 7.04097 15.4145ZM21.7071 18.2074C22.0976 17.8168 22.0976 17.1837 21.7071 16.7931C21.3166 16.4026 20.6834 16.4026 20.2929 16.7931L16.5 20.586L15.2071 19.2931C14.8166 18.9026 14.1834 18.9026 13.7929 19.2931C13.4024 19.6837 13.4024 20.3168 13.7929 20.7074L15.7929 22.7074C16.1834 23.0979 16.8166 23.0979 17.2071 22.7074L21.7071 18.2074Z" fill="currentColor"/>
</svg>
