<svg width="24" height="24" viewBox="0 0 24 24" fill="none" xmlns="http://www.w3.org/2000/svg">
<path fill-rule="evenodd" clip-rule="evenodd" d="M10.6669 7.55577C10.6669 5.10117 12.6567 3.11133 15.1113 3.11133C17.5659 3.11133 19.5558 5.10117 19.5558 7.55577C19.5558 10.0104 17.5659 12.0002 15.1113 12.0002C12.6567 12.0002 10.6669 10.0104 10.6669 7.55577ZM14.1725 13.4951C14.3689 13.8185 14.3391 14.2309 14.0982 14.5226C13.2142 15.5929 13.1564 17.1198 13.9266 18.2495C14.1325 18.5515 14.1325 18.9489 13.9266 19.2509C13.7216 19.5516 13.5752 19.8803 13.4875 20.2216C13.3864 20.6145 13.0322 20.8891 12.6266 20.8891H8.00022C7.5093 20.8891 7.11133 20.4911 7.11133 20.0002C7.11133 16.5723 9.79832 13.8226 13.2264 13.0875C13.5964 13.0081 13.976 13.1717 14.1725 13.4951ZM21.7071 15.7931C22.0976 16.1837 22.0976 16.8168 21.7071 17.2074L20.1642 18.7502L21.7071 20.2931C22.0976 20.6837 22.0976 21.3168 21.7071 21.7074C21.3166 22.0979 20.6834 22.0979 20.2929 21.7074L18.75 20.1645L17.2071 21.7074C16.8166 22.0979 16.1834 22.0979 15.7929 21.7074C15.4024 21.3168 15.4024 20.6837 15.7929 20.2931L17.3358 18.7502L15.7929 17.2074C15.4024 16.8168 15.4024 16.1837 15.7929 15.7931C16.1834 15.4026 16.8166 15.4026 17.2071 15.7931L18.75 17.336L20.2929 15.7931C20.6834 15.4026 21.3166 15.4026 21.7071 15.7931ZM7 8.17529C5.27411 8.17529 3.875 9.5744 3.875 11.3003C3.875 13.0262 5.27411 14.4253 7 14.4253C8.72589 14.4253 10.125 13.0262 10.125 11.3003C10.125 9.5744 8.72589 8.17529 7 8.17529ZM6.95498 16.1093C7.12283 15.917 7.15687 15.6419 7.04097 15.4145C6.92506 15.1871 6.68251 15.053 6.42828 15.0758C3.66057 15.324 1.375 17.394 1.375 20.0503C1.375 20.3955 1.65482 20.6753 2 20.6753H4.79999C5.14335 20.6753 5.42241 20.3983 5.42497 20.055C5.43619 18.5552 6.00501 17.1977 6.95498 16.1093Z" fill="currentColor"/>
</svg>
