<svg width="24" height="24" viewBox="0 0 24 24" fill="none" xmlns="http://www.w3.org/2000/svg">
<path fill-rule="evenodd" clip-rule="evenodd" d="M15.1113 3.11133C12.6567 3.11133 10.6669 5.10117 10.6669 7.55577C10.6669 10.0104 12.6567 12.0002 15.1113 12.0002C17.5659 12.0002 19.5558 10.0104 19.5558 7.55577C19.5558 5.10117 17.5659 3.11133 15.1113 3.11133ZM15.0238 14.0909C15.1113 13.8042 15.0484 13.4928 14.8565 13.2625C14.6646 13.0323 14.3696 12.9142 14.0718 12.9486C10.2406 13.3902 7.11133 16.2951 7.11133 20.0002C7.11133 20.4911 7.5093 20.8891 8.00022 20.8891H11.5353C11.853 20.8891 12.1466 20.7195 12.3053 20.4443C12.4641 20.1691 12.4639 19.8301 12.3048 19.5551C12.0406 19.0984 11.8891 18.5684 11.8891 18.0002C11.8891 16.5234 12.9189 15.2851 14.3004 14.9679C14.6325 14.8917 14.8917 14.6325 14.9679 14.3005C14.9842 14.2296 15.0028 14.1598 15.0238 14.0909ZM7 8.17529C5.27411 8.17529 3.875 9.5744 3.875 11.3003C3.875 13.0262 5.27411 14.4253 7 14.4253C8.72589 14.4253 10.125 13.0262 10.125 11.3003C10.125 9.5744 8.72589 8.17529 7 8.17529ZM6.95498 16.1093C7.12283 15.917 7.15687 15.6419 7.04097 15.4145C6.92506 15.1871 6.68251 15.053 6.42828 15.0758C3.66057 15.324 1.375 17.394 1.375 20.0503C1.375 20.3955 1.65482 20.6753 2 20.6753H4.79999C5.14335 20.6753 5.42241 20.3983 5.42497 20.055C5.43619 18.5552 6.00501 17.1977 6.95498 16.1093ZM18 14.0002C18.5523 14.0002 19 14.448 19 15.0002V17.0002H21C21.5523 17.0002 22 17.448 22 18.0002C22 18.5525 21.5523 19.0002 21 19.0002H19V21.0002C19 21.5525 18.5523 22.0002 18 22.0002C17.4477 22.0002 17 21.5525 17 21.0002V19.0002H15C14.4477 19.0002 14 18.5525 14 18.0002C14 17.448 14.4477 17.0002 15 17.0002H17V15.0002C17 14.448 17.4477 14.0002 18 14.0002Z" fill="currentColor"/>
</svg>
