<svg width="24" height="24" viewBox="0 0 24 24" fill="none" xmlns="http://www.w3.org/2000/svg">
<path fill-rule="evenodd" clip-rule="evenodd" d="M7 7C7 4.23858 9.23858 2 12 2C14.7614 2 17 4.23858 17 7C17 9.76142 14.7614 12 12 12C9.23858 12 7 9.76142 7 7ZM18 14C17.4477 14 17 14.4477 17 15V16H19V15C19 14.4477 18.5523 14 18 14ZM15 15V16C14.4477 16 14 16.4477 14 17V21C14 21.5523 14.4477 22 15 22H21C21.5523 22 22 21.5523 22 21V17C22 16.4477 21.5523 16 21 16V15C21 13.3431 19.6569 12 18 12C16.3431 12 15 13.3431 15 15ZM12 13C7.15904 13 3 16.4605 3 21C3 21.5523 3.44772 22 4 22H11.0354C11.3254 22 11.601 21.8742 11.791 21.6551C11.9809 21.4361 12.0664 21.1454 12.0254 20.8584C12.0087 20.7419 12 20.6222 12 20.5V16.5C12 15.8114 12.2776 15.1888 12.7284 14.736C12.8945 14.5693 12.9964 14.3493 13.0162 14.1147L13.0184 14.0898C13.0436 13.8105 12.9503 13.5335 12.7614 13.3263C12.5725 13.1191 12.3053 13.0007 12.0248 13L12 13Z" fill="currentColor"/>
</svg>
