<svg width="24" height="24" viewBox="0 0 24 24" fill="none" xmlns="http://www.w3.org/2000/svg">
<path fill-rule="evenodd" clip-rule="evenodd" d="M12 2C9.23858 2 7 4.23858 7 7C7 9.76142 9.23858 12 12 12C14.7614 12 17 9.76142 17 7C17 4.23858 14.7614 2 12 2ZM12 14.0542C12 13.7701 11.8792 13.4994 11.6677 13.3097C11.4562 13.12 11.174 13.0292 10.8915 13.0601C6.55296 13.5334 3 16.8121 3 21C3 21.5523 3.44772 22 4 22H12.356C12.7274 22 13.0682 21.7942 13.2411 21.4655C13.414 21.1368 13.3905 20.7394 13.18 20.4333C12.5187 19.4718 12 18.3039 12 17V14.0542ZM21.9998 14.2C21.9998 13.8844 21.7822 13.584 21.4941 13.4553L21.406 13.4164C21.3302 13.3829 21.2217 13.3354 21.09 13.2783C20.8269 13.1644 20.4696 13.012 20.0948 12.8592C19.7218 12.7071 19.3229 12.551 18.9792 12.4317C18.808 12.3722 18.6407 12.3185 18.4918 12.2787C18.3646 12.2446 18.178 12.2 17.9999 12.2C17.8218 12.2 17.6353 12.2446 17.508 12.2787C17.3592 12.3185 17.1919 12.3722 17.0206 12.4317C16.6769 12.551 16.2779 12.7071 15.9049 12.8592C15.5301 13.012 15.1727 13.1644 14.9096 13.2783C14.7779 13.3353 14.6693 13.3829 14.5935 13.4163L14.5054 13.4553C14.2173 13.584 13.9998 13.8844 13.9998 14.2V17C13.9998 18.3629 14.9009 19.5613 15.687 20.3398C16.0987 20.7476 16.5254 21.0865 16.8849 21.3282C17.0639 21.4485 17.2368 21.5518 17.3912 21.6287C17.468 21.6669 17.5512 21.7041 17.6359 21.7335C17.7051 21.7574 17.8402 21.7999 17.9999 21.7999C18.1596 21.7999 18.2948 21.7574 18.3639 21.7335C18.4486 21.7041 18.5319 21.6668 18.6086 21.6287C18.7631 21.5518 18.936 21.4485 19.1149 21.3281C19.4744 21.0865 19.9011 20.7475 20.3128 20.3398C21.0988 19.5612 21.9998 18.3629 21.9998 17V14.2Z" fill="currentColor"/>
</svg>
