<svg width="24" height="24" viewBox="0 0 24 24" fill="none" xmlns="http://www.w3.org/2000/svg">
<path fill-rule="evenodd" clip-rule="evenodd" d="M10.6669 7.55577C10.6669 5.10117 12.6567 3.11133 15.1113 3.11133C17.5659 3.11133 19.5558 5.10117 19.5558 7.55577C19.5558 10.0104 17.5659 12.0002 15.1113 12.0002C12.6567 12.0002 10.6669 10.0104 10.6669 7.55577ZM7.11133 20.0002C7.11133 15.9651 10.8083 12.8891 15.1113 12.8891C18.1367 12.8891 20.8189 14.3868 22.1804 16.6657C22.3662 16.9768 22.3447 17.3695 22.1258 17.6584C21.907 17.9472 21.5348 18.0743 21.185 17.9796C20.9677 17.9208 20.7384 17.8891 20.5002 17.8891H14.5002C13.1856 17.8891 12.0965 18.8615 11.9156 20.1261C11.853 20.5639 11.478 20.8891 11.0357 20.8891H8.00022C7.5093 20.8891 7.11133 20.4911 7.11133 20.0002ZM15 22.0002C15.5523 22.0002 16 21.5525 16 21.0002C16 20.448 15.5523 20.0002 15 20.0002C14.4477 20.0002 14 20.448 14 21.0002C14 21.5525 14.4477 22.0002 15 22.0002ZM18 22.0002C18.5523 22.0002 19 21.5525 19 21.0002C19 20.448 18.5523 20.0002 18 20.0002C17.4477 20.0002 17 20.448 17 21.0002C17 21.5525 17.4477 22.0002 18 22.0002ZM22 21.0002C22 21.5525 21.5523 22.0002 21 22.0002C20.4477 22.0002 20 21.5525 20 21.0002C20 20.448 20.4477 20.0002 21 20.0002C21.5523 20.0002 22 20.448 22 21.0002ZM7 8.17529C5.27411 8.17529 3.875 9.5744 3.875 11.3003C3.875 13.0262 5.27411 14.4253 7 14.4253C8.72589 14.4253 10.125 13.0262 10.125 11.3003C10.125 9.5744 8.72589 8.17529 7 8.17529ZM6.95498 16.1093C7.12283 15.917 7.15687 15.6419 7.04097 15.4145C6.92506 15.1871 6.68251 15.053 6.42828 15.0758C3.66057 15.324 1.375 17.394 1.375 20.0503C1.375 20.3955 1.65482 20.6753 2 20.6753H4.79999C5.14335 20.6753 5.42241 20.3983 5.42497 20.055C5.43619 18.5552 6.00501 17.1977 6.95498 16.1093Z" fill="currentColor"/>
</svg>
