<svg width="24" height="24" viewBox="0 0 24 24" fill="none" xmlns="http://www.w3.org/2000/svg">
<path fill-rule="evenodd" clip-rule="evenodd" d="M7 7C7 4.23858 9.23858 2 12 2C14.7614 2 17 4.23858 17 7C17 9.76142 14.7614 12 12 12C9.23858 12 7 9.76142 7 7ZM21 19C21.5523 19 22 18.5523 22 18C22 17.4477 21.5523 17 21 17H15C14.4477 17 14 17.4477 14 18C14 18.5523 14.4477 19 15 19H21ZM12 13C7.15904 13 3 16.4605 3 21C3 21.5523 3.44772 22 4 22H12.3542C12.77 22 13.1424 21.7427 13.2895 21.3537C13.4366 20.9648 13.3277 20.5254 13.0159 20.2503C12.3914 19.6991 12 18.8959 12 18C12 16.6554 12.8853 15.515 14.1072 15.1348C14.5434 14.9991 14.8321 14.5851 14.8089 14.129C14.7856 13.6728 14.4562 13.2904 14.0085 13.1998C13.3616 13.0689 12.6892 13 12 13Z" fill="currentColor"/>
</svg>
