<svg width="24" height="24" viewBox="0 0 24 24" fill="none" xmlns="http://www.w3.org/2000/svg">
<path fill-rule="evenodd" clip-rule="evenodd" d="M7 7C7 4.23858 9.23858 2 12 2C14.7614 2 17 4.23858 17 7C17 9.76142 14.7614 12 12 12C9.23858 12 7 9.76142 7 7ZM21.7071 18.2071C22.0976 17.8166 22.0976 17.1834 21.7071 16.7929C21.3166 16.4024 20.6834 16.4024 20.2929 16.7929L16.5 20.5858L15.2071 19.2929C14.8166 18.9024 14.1834 18.9024 13.7929 19.2929C13.4024 19.6834 13.4024 20.3166 13.7929 20.7071L15.7929 22.7071C16.1834 23.0976 16.8166 23.0976 17.2071 22.7071L21.7071 18.2071ZM12 13C7.15904 13 3 16.4605 3 21C3 21.5523 3.44772 22 4 22H10.6264C10.9355 22 11.2272 21.857 11.4166 21.6128C11.606 21.3685 11.6718 21.0503 11.5949 20.751C11.3385 19.7542 11.6014 18.656 12.3787 17.8787C13.333 16.9243 14.7726 16.7462 15.9074 17.3494C16.2956 17.5557 16.773 17.4844 17.0839 17.1735L17.8858 16.3715C18.0913 16.166 18.1972 15.8814 18.1761 15.5916C18.1549 15.3017 18.0087 15.0355 17.7756 14.8621C16.2042 13.6932 14.186 13 12 13Z" fill="currentColor"/>
</svg>
