<svg width="24" height="24" viewBox="0 0 24 24" fill="none" xmlns="http://www.w3.org/2000/svg">
<path fill-rule="evenodd" clip-rule="evenodd" d="M10.1924 3.55381C11.6195 3.10157 12.5383 2.8104 14.0109 3.13359C14.1738 3.16935 14.3277 3.20235 14.4732 3.23355C15.8563 3.53011 16.4832 3.66454 16.9742 4.47659C17.0651 4.62694 17.1326 4.86367 17.1439 5.2044C16.7054 4.82638 16.1988 4.56404 15.6977 4.37931C14.3879 3.89648 12.8756 3.86035 11.9724 3.86035C11.6183 3.86035 11.1706 3.86591 10.6781 3.90176C9.91448 3.95736 9.04339 4.08579 8.24717 4.37931C7.58044 4.62509 6.90402 5.00826 6.39123 5.61851L6.37184 5.6418C6.33227 5.47331 6.30696 5.31431 6.29845 5.16896C6.27867 4.8311 6.35378 4.68812 6.40939 4.62597C6.58464 4.4301 6.75894 4.35049 7.07749 4.29022C7.21328 4.26453 7.34469 4.24751 7.51085 4.22599C7.57789 4.21731 7.65059 4.20789 7.73151 4.19688C7.99196 4.16144 8.29964 4.1133 8.63134 4.0226C9.22693 3.85974 9.73568 3.69853 10.1924 3.55381ZM5.61776 8.83719C5.55723 8.73864 5.47601 8.6025 5.38364 8.43747C5.19164 8.09445 4.94403 7.61349 4.73461 7.07756C4.52871 6.55066 4.33891 5.91868 4.30187 5.28583C4.26485 4.65347 4.37623 3.89889 4.91891 3.29238C5.48572 2.65889 6.12641 2.43468 6.7057 2.32508C6.90371 2.28762 7.11896 2.2598 7.30329 2.23597C7.35943 2.22872 7.41278 2.22182 7.46182 2.21515C7.69295 2.18369 7.89881 2.14948 8.10384 2.09342C8.52239 1.97897 8.92971 1.84799 9.33565 1.71745C10.8775 1.22165 12.3993 0.732288 14.4396 1.18009C14.5902 1.21313 14.746 1.24455 14.9056 1.27673C16.1907 1.53582 17.7196 1.84407 18.6856 3.44176C19.0437 4.03396 19.1448 4.70776 19.1455 5.30032C19.1463 5.901 19.0441 6.50123 18.9197 7.01498C18.7941 7.53325 18.6384 7.9942 18.5151 8.32397C18.4531 8.48982 18.3984 8.62488 18.3584 8.72019L18.3346 8.7764C17.9579 11.9557 15.2531 14.4215 11.9724 14.4215C8.7127 14.4215 6.02154 11.9871 5.61776 8.83719ZM7.56543 8.01448C7.56543 7.4869 7.71792 7.14852 7.92241 6.90516C8.14182 6.64406 8.47922 6.42533 8.93894 6.25586C9.88209 5.90818 11.0732 5.86035 11.9724 5.86035C12.4331 5.86035 12.9705 5.87291 13.5118 5.93191C14.0271 5.98807 14.546 6.08631 15.0059 6.25586C15.4657 6.42533 15.8031 6.64406 16.0225 6.90516C16.2233 7.14415 16.374 7.47477 16.3793 7.98622L16.3794 8.01448C16.3794 10.4484 14.4064 12.4215 11.9724 12.4215C9.53851 12.4215 7.56543 10.4484 7.56543 8.01448ZM12 15.4004C10.4002 15.4004 8.22619 15.7108 6.41248 16.6569C4.55731 17.6247 3 19.3178 3 22.0004C3 22.5527 3.44772 23.0004 4 23.0004H20C20.5523 23.0004 21 22.5527 21 22.0004C21 19.3178 19.4427 17.6247 17.5875 16.6569C15.7738 15.7108 13.5998 15.4004 12 15.4004Z" fill="currentColor"/>
</svg>
