<svg width="24" height="24" viewBox="0 0 24 24" fill="none" xmlns="http://www.w3.org/2000/svg">
<path fill-rule="evenodd" clip-rule="evenodd" d="M7 7C7 4.23858 9.23858 2 12 2C14.7614 2 17 4.23858 17 7C17 9.76142 14.7614 12 12 12C9.23858 12 7 9.76142 7 7ZM16 17C15.4477 17 15 17.4477 15 18C15 18.5523 15.4477 19 16 19H19.5858L18.2929 20.2929C17.9024 20.6834 17.9024 21.3166 18.2929 21.7071C18.6834 22.0976 19.3166 22.0976 19.7071 21.7071L22.7071 18.7071C23.0976 18.3166 23.0976 17.6834 22.7071 17.2929L19.7071 14.2929C19.3166 13.9024 18.6834 13.9024 18.2929 14.2929C17.9024 14.6834 17.9024 15.3166 18.2929 15.7071L19.5858 17H16ZM12 13C7.15904 13 3 16.4605 3 21C3 21.5523 3.44772 22 4 22H13.3542C13.77 22 14.1424 21.7427 14.2895 21.3537C14.4366 20.9648 14.3277 20.5254 14.0159 20.2503C13.3914 19.6991 13 18.8959 13 18C13 16.7663 13.7448 15.7043 14.8134 15.2435C15.2029 15.0755 15.4441 14.6801 15.4151 14.2569C15.3861 13.8337 15.0932 13.4748 14.6844 13.3616C13.8348 13.1262 12.9329 13 12 13Z" fill="currentColor"/>
</svg>
