<svg width="24" height="24" viewBox="0 0 24 24" fill="none" xmlns="http://www.w3.org/2000/svg">
<path fill-rule="evenodd" clip-rule="evenodd" d="M7 7C7 4.23858 9.23858 2 12 2C14.7614 2 17 4.23858 17 7C17 9.76142 14.7614 12 12 12C9.23858 12 7 9.76142 7 7ZM19.0002 14.6667C18.5095 14.6667 18.1261 14.9843 17.8946 15.4473C17.6477 15.9413 17.047 16.1415 16.553 15.8945C16.059 15.6475 15.8588 15.0468 16.1058 14.5529C16.541 13.6825 17.4909 12.6667 19.0002 12.6667C19.7133 12.6667 20.4591 12.9033 21.0396 13.4193C21.6385 13.9517 22.0002 14.7287 22.0002 15.6667C22.0002 16.8643 21.1153 17.6252 20.5549 17.9988C20.2443 18.2059 19.9408 18.3569 19.7189 18.4556C19.6065 18.5055 19.5114 18.5436 19.4422 18.57C19.4074 18.5832 19.3789 18.5936 19.3577 18.6012L19.3313 18.6104L19.3224 18.6134L19.319 18.6146L19.3177 18.615L19.3313 18.6104L19.3164 18.6154C18.7925 18.7901 18.2262 18.5069 18.0515 17.983C17.8773 17.4601 18.1589 16.8951 18.6807 16.7192L18.6877 16.7167C18.6957 16.7139 18.7102 16.7086 18.7302 16.701C18.7702 16.6857 18.8315 16.6613 18.9066 16.6279C19.0597 16.5599 19.2562 16.4609 19.4455 16.3347C19.8851 16.0416 20.0002 15.8025 20.0002 15.6667C20.0002 15.2714 19.8619 15.0484 19.7109 14.9142C19.5414 14.7635 19.2871 14.6667 19.0002 14.6667ZM20 21C20 21.5523 19.5523 22 19 22C18.4477 22 18 21.5523 18 21C18 20.4477 18.4477 20 19 20C19.5523 20 20 20.4477 20 21ZM12 13C7.15904 13 3 16.4605 3 21C3 21.5523 3.44772 22 4 22H15C15.5523 22 16 21.5523 16 21C16 20.5518 16.0976 20.1291 16.2719 19.7497C16.3932 19.4855 16.3936 19.1816 16.2728 18.9171C16.2286 18.8201 16.1889 18.7195 16.1542 18.6154C16.1193 18.511 16.0907 18.4063 16.0678 18.3018C16.0058 18.0177 15.8232 17.7746 15.5676 17.636C14.3574 16.9795 13.7701 15.5959 14.0819 14.3009C14.1487 14.0236 14.0938 13.7309 13.9312 13.4965C13.7685 13.2622 13.5134 13.1085 13.2302 13.0741C12.8276 13.0252 12.4169 13 12 13Z" fill="currentColor"/>
</svg>
