<svg width="24" height="24" viewBox="0 0 24 24" fill="none" xmlns="http://www.w3.org/2000/svg">
<path fill-rule="evenodd" clip-rule="evenodd" d="M10.6669 7.55577C10.6669 5.10117 12.6567 3.11133 15.1113 3.11133C17.5659 3.11133 19.5558 5.10117 19.5558 7.55577C19.5558 10.0104 17.5659 12.0002 15.1113 12.0002C12.6567 12.0002 10.6669 10.0104 10.6669 7.55577ZM14.8565 13.2625C15.0484 13.4928 15.1113 13.8042 15.0238 14.0909C15.0028 14.1598 14.9842 14.2296 14.9679 14.3005C14.8917 14.6325 14.6325 14.8917 14.3004 14.9679C12.9189 15.2851 11.8891 16.5234 11.8891 18.0002C11.8891 18.5684 12.0406 19.0984 12.3048 19.5551C12.4639 19.8301 12.4641 20.1691 12.3053 20.4443C12.1466 20.7195 11.853 20.8891 11.5353 20.8891H8.00022C7.5093 20.8891 7.11133 20.4911 7.11133 20.0002C7.11133 16.2951 10.2406 13.3902 14.0718 12.9486C14.3696 12.9142 14.6646 13.0323 14.8565 13.2625ZM3.875 11.3003C3.875 9.5744 5.27411 8.17529 7 8.17529C8.72589 8.17529 10.125 9.5744 10.125 11.3003C10.125 13.0262 8.72589 14.4253 7 14.4253C5.27411 14.4253 3.875 13.0262 3.875 11.3003ZM7.04097 15.4145C7.15687 15.6419 7.12283 15.917 6.95498 16.1093C6.00501 17.1977 5.43619 18.5552 5.42497 20.055C5.42241 20.3983 5.14335 20.6753 4.79999 20.6753H2C1.65482 20.6753 1.375 20.3955 1.375 20.0503C1.375 17.394 3.66057 15.324 6.42828 15.0758C6.68251 15.053 6.92506 15.1871 7.04097 15.4145ZM21 19.0002C21.5523 19.0002 22 18.5525 22 18.0002C22 17.448 21.5523 17.0002 21 17.0002H15C14.4477 17.0002 14 17.448 14 18.0002C14 18.5525 14.4477 19.0002 15 19.0002H21Z" fill="currentColor"/>
</svg>
