<svg width="24" height="24" viewBox="0 0 24 24" fill="none" xmlns="http://www.w3.org/2000/svg">
<path fill-rule="evenodd" clip-rule="evenodd" d="M4 4C2.34315 4 1 5.34315 1 7V17C1 18.6569 2.34315 20 4 20H20C21.6569 20 23 18.6569 23 17V7C23 5.34315 21.6569 4 20 4H4ZM10 10C10 11.1046 9.10457 12 8 12C6.89543 12 6 11.1046 6 10C6 8.89543 6.89543 8 8 8C9.10457 8 10 8.89543 10 10ZM8 13.5C5.94508 13.5 4.25208 14.8559 4.02572 16.6009C3.9973 16.82 4.17909 17 4.4 17H11.6C11.8209 17 12.0027 16.82 11.9743 16.6009C11.7479 14.8559 10.0549 13.5 8 13.5ZM14 9C13.4477 9 13 9.44772 13 10C13 10.5523 13.4477 11 14 11H19C19.5523 11 20 10.5523 20 10C20 9.44772 19.5523 9 19 9H14ZM15 13C14.4477 13 14 13.4477 14 14C14 14.5523 14.4477 15 15 15H17C17.5523 15 18 14.5523 18 14C18 13.4477 17.5523 13 17 13H15Z" fill="currentColor"/>
</svg>
