<svg width="24" height="24" viewBox="0 0 24 24" fill="none" xmlns="http://www.w3.org/2000/svg">
<path fill-rule="evenodd" clip-rule="evenodd" d="M7 7C7 4.23858 9.23858 2 12 2C14.7614 2 17 4.23858 17 7C17 9.76142 14.7614 12 12 12C9.23858 12 7 9.76142 7 7ZM21.7071 15.7929C22.0976 16.1834 22.0976 16.8166 21.7071 17.2071L20.1642 18.75L21.7071 20.2929C22.0976 20.6834 22.0976 21.3166 21.7071 21.7071C21.3166 22.0976 20.6834 22.0976 20.2929 21.7071L18.75 20.1642L17.2071 21.7071C16.8166 22.0976 16.1834 22.0976 15.7929 21.7071C15.4024 21.3166 15.4024 20.6834 15.7929 20.2929L17.3358 18.75L15.7929 17.2071C15.4024 16.8166 15.4024 16.1834 15.7929 15.7929C16.1834 15.4024 16.8166 15.4024 17.2071 15.7929L18.75 17.3358L20.2929 15.7929C20.6834 15.4024 21.3166 15.4024 21.7071 15.7929ZM12 13C7.15904 13 3 16.4605 3 21C3 21.5523 3.44772 22 4 22H12.5C13.0523 22 13.5 21.5523 13.5 21C13.5 20.4083 13.6734 19.819 14.0182 19.3133C14.2499 18.9735 14.2499 18.5265 14.0182 18.1867C13.2999 17.1332 13.3286 15.7204 14.1028 14.6954C14.3161 14.4131 14.3643 14.0391 14.2296 13.7119C14.0948 13.3847 13.7972 13.1531 13.447 13.1028C12.9753 13.0351 12.4919 13 12 13Z" fill="currentColor"/>
</svg>
