<svg width="24" height="24" viewBox="0 0 24 24" fill="none" xmlns="http://www.w3.org/2000/svg">
<path fill-rule="evenodd" clip-rule="evenodd" d="M7 7C7 4.23858 9.23858 2 12 2C14.7614 2 17 4.23858 17 7C17 9.76142 14.7614 12 12 12C9.23858 12 7 9.76142 7 7ZM13.9138 18.4592C13.9989 18.1947 14.1458 17.9543 14.3423 17.7578L18.2876 13.8125C18.971 13.1291 20.0791 13.129 20.7625 13.8125L21.4696 14.5196C22.153 15.203 22.153 16.311 21.4696 16.9944L17.5242 20.9398C17.3278 21.1363 17.0873 21.2832 16.8229 21.3683L15.0845 21.9276C14.0185 22.2707 13.0114 21.2636 13.3545 20.1975L13.9138 18.4592ZM15.4029 18.8185C15.3748 18.8466 15.3539 18.8809 15.3417 18.9187L14.857 20.4251L16.3634 19.9404C16.4012 19.9282 16.4355 19.9072 16.4636 19.8792L18.8174 17.5253L17.7568 16.4646L15.4029 18.8185ZM20.409 15.9338L19.8781 16.4646L18.8174 15.404L19.3483 14.8731C19.4459 14.7755 19.6042 14.7755 19.7018 14.8731L20.409 15.5802C20.5066 15.6779 20.5066 15.8362 20.409 15.9338ZM12 13C7.15904 13 3 16.4605 3 21C3 21.5523 3.44772 22 4 22H10.2964C10.5763 22 10.8434 21.8827 11.0328 21.6766C11.2221 21.4705 11.3165 21.1945 11.2929 20.9157C11.2572 20.4936 11.3023 20.0455 11.4505 19.5849L12.0099 17.8466C12.1922 17.2798 12.5069 16.7646 12.9279 16.3436L14.4063 14.8653C14.6683 14.6032 14.764 14.2177 14.6547 13.8635C14.5455 13.5093 14.2493 13.2446 13.8851 13.1757C13.2762 13.0604 12.6455 13 12 13Z" fill="currentColor"/>
</svg>
