<svg width="24" height="24" viewBox="0 0 24 24" fill="none" xmlns="http://www.w3.org/2000/svg">
<path fill-rule="evenodd" clip-rule="evenodd" d="M7 7C7 4.23858 9.23858 2 12 2C14.7614 2 17 4.23858 17 7C17 9.76142 14.7614 12 12 12C9.23858 12 7 9.76142 7 7ZM20 15C20 14.4477 19.5523 14 19 14C18.4477 14 18 14.4477 18 15V18.5858L16.7071 17.2929C16.3166 16.9024 15.6834 16.9024 15.2929 17.2929C14.9024 17.6834 14.9024 18.3166 15.2929 18.7071L18.2929 21.7071C18.6834 22.0976 19.3166 22.0976 19.7071 21.7071L22.7071 18.7071C23.0976 18.3166 23.0976 17.6834 22.7071 17.2929C22.3166 16.9024 21.6834 16.9024 21.2929 17.2929L20 18.5858V15ZM12 13C7.15904 13 3 16.4605 3 21C3 21.5523 3.44772 22 4 22H13.3431C13.7476 22 14.1122 21.7564 14.267 21.3827C14.4218 21.009 14.3363 20.5789 14.0503 20.2929L13.8787 20.1213C12.7071 18.9497 12.7071 17.0503 13.8787 15.8787C14.1571 15.6002 14.4747 15.3893 14.8126 15.2438C15.2024 15.0761 15.4439 14.6806 15.415 14.2572C15.3862 13.8339 15.0933 13.4748 14.6843 13.3615C13.8348 13.1262 12.9328 13 12 13Z" fill="currentColor"/>
</svg>
