<svg width="24" height="24" viewBox="0 0 24 24" fill="none" xmlns="http://www.w3.org/2000/svg">
<path fill-rule="evenodd" clip-rule="evenodd" d="M15.1113 3.11133C12.6567 3.11133 10.6669 5.10117 10.6669 7.55577C10.6669 10.0104 12.6567 12.0002 15.1113 12.0002C17.5659 12.0002 19.5558 10.0104 19.5558 7.55577C19.5558 5.10117 17.5659 3.11133 15.1113 3.11133ZM15.1748 14.4259C15.4369 14.1638 15.5088 13.7666 15.3553 13.4292C15.2018 13.0918 14.855 12.8851 14.4852 12.9106C10.4631 13.1873 7.11133 16.1627 7.11133 20.0002C7.11133 20.4911 7.5093 20.8891 8.00022 20.8891H12.535C12.8526 20.8891 13.1461 20.7196 13.3049 20.4445C13.4636 20.1693 13.4635 19.8304 13.3046 19.5554C12.6167 18.3653 12.7833 16.8173 13.8003 15.8003L15.1748 14.4259ZM23 18.0002C23 18.5525 22.5523 19.0002 22 19.0002H18.4142L19.7071 20.2931C20.0976 20.6837 20.0976 21.3168 19.7071 21.7074C19.3166 22.0979 18.6834 22.0979 18.2929 21.7074L15.2929 18.7074C14.9024 18.3168 14.9024 17.6837 15.2929 17.2931L18.2929 14.2931C18.6834 13.9026 19.3166 13.9026 19.7071 14.2931C20.0976 14.6837 20.0976 15.3168 19.7071 15.7074L18.4142 17.0002H22C22.5523 17.0002 23 17.448 23 18.0002ZM7 8.17529C5.27411 8.17529 3.875 9.5744 3.875 11.3003C3.875 13.0262 5.27411 14.4253 7 14.4253C8.72589 14.4253 10.125 13.0262 10.125 11.3003C10.125 9.5744 8.72589 8.17529 7 8.17529ZM6.95498 16.1093C7.12283 15.917 7.15687 15.6419 7.04097 15.4145C6.92506 15.1871 6.68251 15.053 6.42828 15.0758C3.66057 15.324 1.375 17.394 1.375 20.0503C1.375 20.3955 1.65482 20.6753 2 20.6753H4.79999C5.14335 20.6753 5.42241 20.3983 5.42497 20.055C5.43619 18.5552 6.00501 17.1977 6.95498 16.1093Z" fill="currentColor"/>
</svg>
