<svg width="24" height="24" viewBox="0 0 24 24" fill="none" xmlns="http://www.w3.org/2000/svg">
<path fill-rule="evenodd" clip-rule="evenodd" d="M12 2C9.23858 2 7 4.23858 7 7C7 9.76142 9.23858 12 12 12C14.7614 12 17 9.76142 17 7C17 4.23858 14.7614 2 12 2ZM18 14C18.5523 14 19 14.4477 19 15V17H21C21.5523 17 22 17.4477 22 18C22 18.5523 21.5523 19 21 19H19V21C19 21.5523 18.5523 22 18 22C17.4477 22 17 21.5523 17 21V19H15C14.4477 19 14 18.5523 14 18C14 17.4477 14.4477 17 15 17H17V15C17 14.4477 17.4477 14 18 14ZM12 13C7.15904 13 3 16.4605 3 21C3 21.5523 3.44772 22 4 22H12.3542C12.77 22 13.1424 21.7427 13.2895 21.3537C13.4366 20.9648 13.3277 20.5254 13.0159 20.2503C12.3914 19.6991 12 18.8959 12 18C12 16.6554 12.8853 15.515 14.1072 15.1348C14.5434 14.9991 14.8321 14.5851 14.8089 14.129C14.7856 13.6728 14.4562 13.2904 14.0085 13.1998C13.3616 13.0689 12.6892 13 12 13Z" fill="currentColor"/>
</svg>
