<svg width="24" height="24" viewBox="0 0 24 24" fill="none" xmlns="http://www.w3.org/2000/svg">
<path fill-rule="evenodd" clip-rule="evenodd" d="M7 7C7 4.23858 9.23858 2 12 2C14.7614 2 17 4.23858 17 7C17 9.76142 14.7614 12 12 12C9.23858 12 7 9.76142 7 7ZM12.481 14.4558C12.6393 14.1387 12.618 13.7615 12.4249 13.4644C12.2318 13.1672 11.8959 12.9944 11.5418 13.0101C6.90517 13.2168 3 16.6046 3 21C3 21.5522 3.44772 22 4 22H12.394C12.7609 22 13.0984 21.799 13.2732 21.4763C13.448 21.1537 13.4321 20.7612 13.2317 20.4538C12.5633 19.4287 12 18.0983 12 16.5C12 15.7767 12.1703 15.0782 12.481 14.4558ZM16.5 14C17.1312 14 17.6416 14.2504 18 14.5046C18.3583 14.2504 18.8688 14 19.5 14C20.9836 14 22 15.1511 22 16.5C22 18.225 21.0481 19.587 20.2241 20.4522C19.8017 20.8957 19.3822 21.2414 19.0687 21.4766C18.9112 21.5947 18.7783 21.6865 18.6822 21.7503C18.6342 21.7823 18.5951 21.8073 18.5667 21.8252L18.5322 21.8467L18.5212 21.8535L18.5173 21.8558L18.5145 21.8575C18.1978 22.0475 17.8022 22.0475 17.4855 21.8575L17.4843 21.8567L17.4827 21.8558L17.4788 21.8535L17.4678 21.8467L17.4333 21.8252C17.4049 21.8073 17.3658 21.7823 17.3178 21.7503C17.2217 21.6865 17.0888 21.5947 16.9312 21.4766C16.6178 21.2414 16.1983 20.8957 15.7759 20.4522C14.9519 19.587 14 18.225 14 16.5C14 15.1512 15.0164 14 16.5 14Z" fill="currentColor"/>
</svg>
