<svg width="24" height="24" viewBox="0 0 24 24" fill="none" xmlns="http://www.w3.org/2000/svg">
<path fill-rule="evenodd" clip-rule="evenodd" d="M7 7C7 4.23858 9.23858 2 12 2C14.7614 2 17 4.23858 17 7C17 9.76142 14.7614 12 12 12C9.23858 12 7 9.76142 7 7ZM16.8999 21.3999C17.7805 21.3999 18.602 21.147 19.2957 20.7098L20.2927 21.707C20.6832 22.0975 21.3164 22.0976 21.707 21.7071C22.0975 21.3166 22.0976 20.6834 21.7071 20.2929L20.7099 19.2955C21.147 18.6018 21.3999 17.7804 21.3999 16.8999C21.3999 14.4146 19.3852 12.3999 16.8999 12.3999C14.4146 12.3999 12.3999 14.4146 12.3999 16.8999C12.3999 19.3852 14.4146 21.3999 16.8999 21.3999ZM16.8999 19.3999C18.2806 19.3999 19.3999 18.2806 19.3999 16.8999C19.3999 15.5192 18.2806 14.3999 16.8999 14.3999C15.5192 14.3999 14.3999 15.5192 14.3999 16.8999C14.3999 18.2806 15.5192 19.3999 16.8999 19.3999ZM11.5359 14.5172C11.6879 14.1833 11.6448 13.7929 11.4236 13.5001C11.2025 13.2074 10.8387 13.0593 10.476 13.1142C6.33269 13.7419 3 16.9468 3 21C3 21.5523 3.44772 22 4 22H11.2547C11.6273 22 11.969 21.7929 12.1413 21.4626C12.3137 21.1323 12.2881 20.7335 12.0749 20.4279C11.3973 19.4565 11 18.2761 11 17C11 16.1125 11.192 15.2726 11.5359 14.5172Z" fill="currentColor"/>
</svg>
