<svg width="24" height="24" viewBox="0 0 24 24" fill="none" xmlns="http://www.w3.org/2000/svg">
<path fill-rule="evenodd" clip-rule="evenodd" d="M13.99 3.14146C14.0521 2.70667 13.8232 2.28225 13.4258 2.09523C13.0284 1.90821 12.5555 2.00238 12.2601 2.32737L2.26008 13.3274C1.99382 13.6203 1.92538 14.0426 2.08551 14.4046C2.24563 14.7666 2.6042 15 3.00002 15H10.847L10.0101 20.8586C9.94796 21.2934 10.1768 21.7178 10.5742 21.9049C10.9716 22.0919 11.4445 21.9977 11.74 21.6727L21.74 10.6727C22.0062 10.3798 22.0747 9.95747 21.9145 9.59549C21.7544 9.23351 21.3958 9.00004 21 9.00004H13.153L13.99 3.14146Z" fill="currentColor"/>
</svg>
