<svg width="24" height="24" viewBox="0 0 24 24" fill="none" xmlns="http://www.w3.org/2000/svg">
<path fill-rule="evenodd" clip-rule="evenodd" d="M5 2C3.34315 2 2 3.34315 2 5V19C2 20.6569 3.34315 22 5 22H19C20.6569 22 22 20.6569 22 19V5C22 3.34315 20.6569 2 19 2H5ZM12.9258 6.59523C13.3232 6.78225 13.5521 7.20667 13.49 7.64146L13.153 10H16.5C16.8958 10 17.2544 10.2335 17.4145 10.5955C17.5747 10.9575 17.5062 11.3798 17.24 11.6727L12.24 17.1727C11.9445 17.4977 11.4716 17.5919 11.0742 17.4049C10.6768 17.2178 10.448 16.7934 10.5101 16.3586L10.847 14H7.50002C7.1042 14 6.74563 13.7666 6.58551 13.4046C6.42538 13.0426 6.49382 12.6202 6.76008 12.3274L11.7601 6.82737C12.0555 6.50238 12.5284 6.40821 12.9258 6.59523Z" fill="currentColor"/>
</svg>
