<svg width="24" height="24" viewBox="0 0 24 24" fill="none" xmlns="http://www.w3.org/2000/svg">
<path fill-rule="evenodd" clip-rule="evenodd" d="M13.4258 2.09523C13.8232 2.28225 14.0521 2.70667 13.99 3.14146L13.365 7.51646C13.2869 8.0632 12.7803 8.4431 12.2336 8.36499C11.6869 8.28689 11.307 7.78035 11.3851 7.23362L11.5496 6.08215L11.0837 6.59459C10.7122 7.00325 10.0797 7.03336 9.67108 6.66186C9.26243 6.29035 9.23231 5.6579 9.60382 5.24924L12.2601 2.32737C12.5555 2.00238 13.0284 1.90821 13.4258 2.09523ZM13.8125 10C13.8125 9.44776 14.2602 9.00004 14.8125 9.00004H21C21.3958 9.00004 21.7544 9.23351 21.9145 9.59549C22.0746 9.95747 22.0062 10.3798 21.7399 10.6727L18.9274 13.7665C18.5559 14.1751 17.9235 14.2052 17.5148 13.8337C17.1062 13.4622 17.0761 12.8298 17.4476 12.4211L18.7395 11H14.8125C14.2602 11 13.8125 10.5523 13.8125 10ZM6.85681 8.27102L2.26008 13.3274C1.99382 13.6203 1.92538 14.0427 2.08551 14.4046C2.24563 14.7666 2.6042 15.0001 3.00002 15.0001H10.847L10.0101 20.8587C9.94796 21.2935 10.1768 21.7179 10.5742 21.9049C10.9716 22.0919 11.4445 21.9978 11.74 21.6728L15.7964 17.2106L19.2929 20.7071C19.6834 21.0976 20.3166 21.0976 20.7071 20.7071C21.0976 20.3166 21.0976 19.6834 20.7071 19.2929L4.70711 3.29289C4.31658 2.90237 3.68342 2.90237 3.29289 3.29289C2.90237 3.68342 2.90237 4.31658 3.29289 4.70711L6.85681 8.27102ZM14.3806 15.7948L12.9571 14.3713L12.4505 17.918L14.3806 15.7948ZM11.5859 13.0001L8.27262 9.68684L5.26057 13.0001H11.5859Z" fill="currentColor"/>
</svg>
