<svg width="24" height="24" viewBox="0 0 24 24" fill="none" xmlns="http://www.w3.org/2000/svg">
<path fill-rule="evenodd" clip-rule="evenodd" d="M13.4258 2.09523C13.8232 2.28225 14.0521 2.70667 13.99 3.14146L13.365 7.51646C13.3156 7.86228 13.0893 8.15725 12.7681 8.29455C12.4469 8.43186 12.0773 8.3916 11.7932 8.18835L9.76192 6.73523C9.52971 6.5691 9.37958 6.31164 9.34937 6.02772C9.31916 5.7438 9.41175 5.46051 9.60381 5.24924L12.2601 2.32737C12.5555 2.00238 13.0284 1.90821 13.4258 2.09523ZM13.8805 9.63752C14.03 9.25319 14.4001 9.00004 14.8125 9.00004H21C21.3958 9.00004 21.7544 9.23351 21.9145 9.59549C22.0746 9.95747 22.0062 10.3798 21.7399 10.6727L18.9274 13.7665C18.7486 13.9632 18.4987 14.0807 18.233 14.0928C17.9673 14.1049 17.7078 14.0106 17.5118 13.8309L14.1368 10.7372C13.8328 10.4585 13.731 10.0218 13.8805 9.63752ZM15.7964 17.2107L19.2929 20.7072C19.6834 21.0977 20.3166 21.0977 20.7071 20.7072C21.0976 20.3166 21.0976 19.6835 20.7071 19.293L4.70711 3.29295C4.31658 2.90243 3.68342 2.90243 3.29289 3.29295C2.90237 3.68348 2.90237 4.31664 3.29289 4.70717L6.85676 8.27104L2.26008 13.3274C1.99382 13.6203 1.92538 14.0426 2.08551 14.4046C2.24563 14.7666 2.6042 15.0001 3.00002 15.0001H10.847L10.0101 20.8586C9.94796 21.2934 10.1768 21.7179 10.5742 21.9049C10.9716 22.0919 11.4445 21.9977 11.74 21.6727L15.7964 17.2107Z" fill="currentColor"/>
</svg>
