<svg width="24" height="24" viewBox="0 0 24 24" fill="none" xmlns="http://www.w3.org/2000/svg">
<path fill-rule="evenodd" clip-rule="evenodd" d="M5 2C3.34315 2 2 3.34315 2 5V19C2 20.6569 3.34315 22 5 22H19C20.6569 22 22 20.6569 22 19V5C22 3.34315 20.6569 2 19 2H5ZM4 5C4 4.44772 4.44772 4 5 4H19C19.5523 4 20 4.44772 20 5V19C20 19.5523 19.5523 20 19 20H5C4.44772 20 4 19.5523 4 19V5ZM13.6011 6.64146C13.6632 6.20667 13.4343 5.78225 13.0369 5.59523C12.6395 5.40821 12.1666 5.50238 11.8712 5.82737L5.76008 12.5496C5.49382 12.8425 5.42538 13.2648 5.58551 13.6268C5.74563 13.9888 6.1042 14.2223 6.50002 14.2223H10.847L10.399 17.3586C10.3368 17.7934 10.5657 18.2178 10.9631 18.4049C11.3605 18.5919 11.8334 18.4977 12.1288 18.1727L18.24 11.4505C18.5062 11.1576 18.5747 10.7352 18.4145 10.3733C18.2544 10.0113 17.8958 9.77782 17.5 9.77782H13.153L13.6011 6.64146ZM12 12.2223H8.76057L11.1607 9.58215L11.0101 10.6364C10.9691 10.9234 11.0546 11.214 11.2446 11.433C11.4345 11.652 11.7101 11.7778 12 11.7778H15.2395L12.8394 14.4179L12.99 13.3637C13.031 13.0767 12.9454 12.7861 12.7555 12.5671C12.5655 12.3481 12.2899 12.2223 12 12.2223Z" fill="currentColor"/>
</svg>
