<svg width="24" height="24" viewBox="0 0 24 24" fill="none" xmlns="http://www.w3.org/2000/svg">
<path fill-rule="evenodd" clip-rule="evenodd" d="M3 12C3 7.02944 7.02944 3 12 3C16.9706 3 21 7.02944 21 12C21 16.9706 16.9706 21 12 21C7.02944 21 3 16.9706 3 12ZM12 1C5.92487 1 1 5.92487 1 12C1 18.0751 5.92487 23 12 23C18.0751 23 23 18.0751 23 12C23 5.92487 18.0751 1 12 1ZM13.6011 6.64142C13.6632 6.20663 13.4343 5.7822 13.0369 5.59519C12.6395 5.40817 12.1666 5.50234 11.8712 5.82733L5.76006 12.5495C5.4938 12.8424 5.42536 13.2648 5.58549 13.6268C5.74562 13.9888 6.10418 14.2222 6.5 14.2222H10.847L10.3989 17.3586C10.3368 17.7934 10.5657 18.2178 10.9631 18.4048C11.3605 18.5918 11.8334 18.4977 12.1288 18.1727L18.2399 11.4505C18.5062 11.1576 18.5746 10.7352 18.4145 10.3732C18.2544 10.0112 17.8958 9.77778 17.5 9.77778H13.153L13.6011 6.64142ZM12 12.2222H8.76055L11.1607 9.58211L11.01 10.6364C10.9691 10.9233 11.0546 11.214 11.2445 11.433C11.4345 11.652 11.7101 11.7778 12 11.7778H15.2394L12.8393 14.4179L12.9899 13.3636C13.0309 13.0767 12.9454 12.786 12.7555 12.567C12.5655 12.348 12.2899 12.2222 12 12.2222Z" fill="currentColor"/>
</svg>
