<svg width="24" height="24" viewBox="0 0 24 24" fill="none" xmlns="http://www.w3.org/2000/svg">
<path fill-rule="evenodd" clip-rule="evenodd" d="M13.4258 2.09523C13.8232 2.28225 14.0521 2.70667 13.99 3.14146L13.153 9.00004H21C21.3958 9.00004 21.7544 9.23351 21.9145 9.59549C22.0747 9.95747 22.0062 10.3798 21.74 10.6727L11.74 21.6727C11.4445 21.9977 10.9716 22.0919 10.5742 21.9049C10.1768 21.7178 9.94796 21.2934 10.0101 20.8586L10.847 15H3.00002C2.6042 15 2.24563 14.7666 2.08551 14.4046C1.92538 14.0426 1.99382 13.6203 2.26008 13.3274L12.2601 2.32737C12.5555 2.00238 13.0284 1.90821 13.4258 2.09523ZM5.26057 13H12C12.2899 13 12.5655 13.1258 12.7555 13.3448C12.9454 13.5638 13.031 13.8545 12.99 14.1415L12.4505 17.9179L18.7395 11H12C11.7101 11 11.4345 10.8742 11.2446 10.6552C11.0546 10.4362 10.9691 10.1456 11.0101 9.85862L11.5496 6.08215L5.26057 13Z" fill="currentColor"/>
</svg>
