<svg width="24" height="24" viewBox="0 0 24 24" fill="none" xmlns="http://www.w3.org/2000/svg">
<path fill-rule="evenodd" clip-rule="evenodd" d="M1.43099 5.25941C1.15743 5.71181 1 6.24228 1 6.80952V19C1 20.6569 2.34315 22 4 22H18.1716L13.8272 17.6556C13.2612 17.8779 12.6449 18 12 18C9.23858 18 7 15.7614 7 13C7 12.3551 7.12208 11.7388 7.34438 11.1728L1.43099 5.25941ZM9.00278 12.8696C9.00093 12.9128 9 12.9563 9 13C9 14.6569 10.3431 16 12 16C12.0437 16 12.0872 15.9991 12.1304 15.9972C12.1426 15.9967 12.1548 15.9961 12.167 15.9954C12.5686 15.9734 12.9492 15.8724 13.2934 15.7076L20.2929 22.7071C20.6834 23.0976 21.3166 23.0976 21.7071 22.7071C22.0976 22.3166 22.0976 21.6834 21.7071 21.2929L14.7076 14.2934C14.8724 13.9492 14.9734 13.5686 14.9954 13.167C14.9985 13.1117 15 13.056 15 13C15 11.3431 13.6569 10 12 10C11.944 10 11.8883 10.0015 11.833 10.0046C11.4314 10.0266 11.0508 10.1276 10.7066 10.2924L2.70711 2.29289C2.31658 1.90237 1.68342 1.90237 1.29289 2.29289C0.902369 2.68342 0.902369 3.31658 1.29289 3.70711L9.29237 11.7066C9.12763 12.0508 9.02661 12.4314 9.00457 12.833C9.0039 12.8452 9.00331 12.8574 9.00278 12.8696ZM16.6556 14.8272C16.8779 14.2612 17 13.6449 17 13C17 10.2386 14.7614 8 12 8C11.3551 8 10.7388 8.12208 10.1728 8.34438L5.62791 3.79948C5.90431 3.76 6.1542 3.60606 6.31354 3.37155L7.03222 2.31391C7.5907 1.49202 8.5199 1 9.51357 1H14.4864C15.4801 1 16.4093 1.49202 16.9678 2.31391L17.6865 3.37156C17.8726 3.64552 18.1823 3.80952 18.5136 3.80952H20C21.6569 3.80952 23 5.15267 23 6.80952V19C23 19.6166 22.814 20.1898 22.4949 20.6665L16.6556 14.8272Z" fill="currentColor"/>
</svg>
