<svg width="24" height="24" viewBox="0 0 24 24" fill="none" xmlns="http://www.w3.org/2000/svg">
<path fill-rule="evenodd" clip-rule="evenodd" d="M7.03222 2.31391C7.5907 1.49202 8.5199 1 9.51357 1H14.4864C15.4801 1 16.4093 1.49202 16.9678 2.31391L17.6865 3.37156C17.8726 3.64552 18.1823 3.80952 18.5136 3.80952H20C21.6569 3.80952 23 5.15267 23 6.80952V19C23 20.6569 21.6569 22 20 22H4C2.34315 22 1 20.6569 1 19V6.80952C1 5.15267 2.34315 3.80952 4 3.80952H5.48643C5.81765 3.80952 6.12739 3.64552 6.31354 3.37155L7.03222 2.31391ZM14.2961 7.45673C13.1998 7.0026 11.9934 6.88378 10.8295 7.11529C9.94473 7.29128 9.11477 7.66369 8.39897 8.20078C7.95722 8.53225 7.86781 9.15907 8.19927 9.60082C8.53074 10.0426 9.15756 10.132 9.59932 9.80052C10.0765 9.44245 10.6298 9.19418 11.2197 9.07686C11.9956 8.92252 12.7998 9.00173 13.5307 9.30448C14.2617 9.60723 14.8864 10.1199 15.3259 10.7777C15.3746 10.8507 15.4208 10.925 15.4645 11.0007C15.1001 11.014 14.7706 11.2249 14.6067 11.5528C14.4373 11.8916 14.4738 12.297 14.7011 12.6L16.2011 14.6C16.39 14.8518 16.6863 15 17.0011 15C17.3159 15 17.6122 14.8518 17.8011 14.6L19.3011 12.6C19.5284 12.297 19.5649 11.8916 19.3955 11.5528C19.2261 11.214 18.8799 11 18.5011 11H17.6569C17.4914 10.5319 17.2676 10.0838 16.9888 9.66658C16.3295 8.67989 15.3925 7.91085 14.2961 7.45673ZM9.39443 14.4472C9.23035 14.7754 8.90031 14.9865 8.53553 14.9994C8.57918 15.075 8.62539 15.1494 8.67412 15.2223C9.11365 15.8801 9.73836 16.3928 10.4693 16.6955C11.2002 16.9983 12.0044 17.0775 12.7804 16.9231C13.3701 16.8058 13.9233 16.5576 14.4005 16.1996C14.8423 15.8682 15.4691 15.9576 15.8005 16.3994C16.132 16.8412 16.0425 17.468 15.6007 17.7994C14.885 18.3364 14.0552 18.7088 13.1705 18.8847C12.0067 19.1162 10.8003 18.9974 9.7039 18.5433C8.60754 18.0892 7.67047 17.3201 7.01118 16.3334C6.73243 15.9162 6.50863 15.4681 6.34314 15H5.50001C5.12123 15 4.77497 14.786 4.60558 14.4472C4.43619 14.1084 4.47274 13.703 4.70001 13.4L6.20001 11.4C6.38886 11.1482 6.68525 11 7.00001 11C7.31476 11 7.61115 11.1482 7.80001 11.4L9.3 13.4C9.52727 13.703 9.56382 14.1084 9.39443 14.4472Z" fill="currentColor"/>
</svg>
