<svg width="24" height="24" viewBox="0 0 24 24" fill="none" xmlns="http://www.w3.org/2000/svg">
<path fill-rule="evenodd" clip-rule="evenodd" d="M9.51357 1C8.5199 1 7.5907 1.49202 7.03222 2.31391L6.31354 3.37155C6.12739 3.64552 5.81765 3.80952 5.48643 3.80952H4C2.34315 3.80952 1 5.15267 1 6.80952V19C1 20.6569 2.34315 22 4 22H20C21.6569 22 23 20.6569 23 19V6.80952C23 5.15267 21.6569 3.80952 20 3.80952H18.5136C18.1823 3.80952 17.8726 3.64552 17.6865 3.37156L16.9678 2.31391C16.4093 1.49202 15.4801 1 14.4864 1H9.51357ZM12 18C14.7614 18 17 15.7614 17 13C17 10.2386 14.7614 8 12 8C9.23858 8 7 10.2386 7 13C7 15.7614 9.23858 18 12 18ZM15 13C15 14.6569 13.6569 16 12 16C10.3431 16 9 14.6569 9 13C9 11.3431 10.3431 10 12 10C13.6569 10 15 11.3431 15 13Z" fill="currentColor"/>
</svg>
