<svg width="24" height="24" viewBox="0 0 24 24" fill="none" xmlns="http://www.w3.org/2000/svg">
<path fill-rule="evenodd" clip-rule="evenodd" d="M14.4864 1C15.1627 1 15.8091 1.22789 16.3291 1.63254C16.2481 1.79028 16.1808 1.95613 16.1285 2.12854C14.8967 2.50191 14 3.64623 14 5C14 6.35377 14.8967 7.4981 16.1285 7.87146C16.5019 9.10331 17.6462 10 19 10C20.3538 10 21.4981 9.10331 21.8715 7.87146C22.2948 7.74315 22.6786 7.52376 23 7.23611V19C23 20.6569 21.6569 22 20 22H4C2.34315 22 1 20.6569 1 19V6.80952C1 5.15267 2.34315 3.80952 4 3.80952H5.48643C5.81765 3.80952 6.12739 3.64552 6.31354 3.37155L7.03222 2.31391C7.5907 1.49202 8.5199 1 9.51357 1H14.4864ZM17 13C17 15.7614 14.7614 18 12 18C9.23858 18 7 15.7614 7 13C7 10.2386 9.23858 8 12 8C14.7614 8 17 10.2386 17 13ZM12 16C13.6569 16 15 14.6569 15 13C15 11.3431 13.6569 10 12 10C10.3431 10 9 11.3431 9 13C9 14.6569 10.3431 16 12 16ZM19 2C19.5523 2 20 2.44772 20 3V4H21C21.5523 4 22 4.44772 22 5C22 5.55228 21.5523 6 21 6H20V7C20 7.55228 19.5523 8 19 8C18.4477 8 18 7.55228 18 7V6H17C16.4477 6 16 5.55228 16 5C16 4.44772 16.4477 4 17 4H18V3C18 2.44772 18.4477 2 19 2Z" fill="currentColor"/>
</svg>
