<svg width="24" height="24" viewBox="0 0 24 24" fill="none" xmlns="http://www.w3.org/2000/svg">
<path fill-rule="evenodd" clip-rule="evenodd" d="M12 3C9.23858 3 7 5.23858 7 8C7 10.7614 9.23858 13 12 13C14.7614 13 17 10.7614 17 8C17 5.23858 14.7614 3 12 3ZM5 8C5 4.13401 8.13401 1 12 1C15.866 1 19 4.13401 19 8C19 8.54772 18.9371 9.08075 18.8181 9.59225C19.5616 9.91921 20.2441 10.3737 20.8339 10.9368C21.5747 11.6441 22.1514 12.5053 22.5231 13.4597C22.8948 14.4141 23.0525 15.4385 22.9851 16.4605C22.9178 17.4825 22.6269 18.4773 22.1332 19.3747C21.6394 20.2721 20.9547 21.0501 20.1274 21.654C19.3001 22.2579 18.3504 22.6729 17.3452 22.8696C16.34 23.0664 15.3039 23.0402 14.31 22.7929C13.4812 22.5867 12.6986 22.2309 12.0001 21.7445C11.0829 22.3832 10.023 22.795 8.90808 22.9409C7.565 23.1166 6.19979 22.8989 4.97799 22.3141C3.7562 21.7293 2.73031 20.8026 2.02472 19.6464C1.31914 18.4902 0.964166 17.154 1.00286 15.8001C1.04155 14.4461 1.47224 13.1324 2.2427 12.0184C2.97984 10.9525 3.99771 10.1131 5.18191 9.59234C5.06291 9.08081 5 8.54775 5 8ZM13.5001 20.33C13.9034 20.5629 14.3385 20.739 14.7929 20.8521C15.5029 21.0288 16.243 21.0475 16.9609 20.9069C17.6789 20.7663 18.3573 20.4699 18.9482 20.0386C19.5391 19.6073 20.0282 19.0515 20.3809 18.4105C20.7336 17.7695 20.9414 17.059 20.9895 16.3289C21.0376 15.5989 20.9249 14.8672 20.6594 14.1855C20.3939 13.5038 19.982 12.8886 19.4529 12.3834C19.0515 12.0003 18.5902 11.6876 18.0883 11.4569C17.3467 12.7601 16.1989 13.8019 14.817 14.4101C15.092 15.5888 15.0571 16.8213 14.7122 17.9865C14.4592 18.8414 14.0465 19.636 13.5001 20.33ZM12 15C12.3006 15 12.5967 14.9811 12.8873 14.9443C13.0639 15.7619 13.033 16.613 12.7944 17.4189C12.5199 18.3467 11.9821 19.1748 11.2462 19.803C10.5103 20.4311 9.60797 20.8323 8.64863 20.9578C7.68929 21.0833 6.71413 20.9278 5.84142 20.5101C4.96871 20.0924 4.23593 19.4305 3.73194 18.6046C3.22795 17.7787 2.9744 16.8243 3.00204 15.8572C3.02968 14.8901 3.33731 13.9517 3.88764 13.156C4.39849 12.4173 5.09807 11.831 5.91179 11.457C7.11587 13.573 9.39129 15 12 15Z" fill="currentColor"/>
</svg>
