<svg width="24" height="24" viewBox="0 0 24 24" fill="none" xmlns="http://www.w3.org/2000/svg">
<path fill-rule="evenodd" clip-rule="evenodd" d="M19 1.5C19.5523 1.5 20 1.94772 20 2.5V5.08579L20.7929 4.29289C21.1834 3.90237 21.8166 3.90237 22.2071 4.29289C22.5976 4.68342 22.5976 5.31658 22.2071 5.70711L19.7071 8.20711C19.3166 8.59763 18.6834 8.59763 18.2929 8.20711L15.7929 5.70711C15.4024 5.31658 15.4024 4.68342 15.7929 4.29289C16.1834 3.90237 16.8166 3.90237 17.2071 4.29289L18 5.08579V2.5C18 1.94772 18.4477 1.5 19 1.5ZM14.3787 7.12132C13.2467 5.98937 13.2084 4.17791 14.2638 3H4C2.34315 3 1 4.34315 1 6V18C1 19.6569 2.34315 21 4 21H20C21.6569 21 23 19.6569 23 18V7.74264L21.1213 9.62132C19.9497 10.7929 18.0503 10.7929 16.8787 9.62132L14.3787 7.12132ZM7.99959 10C9.10416 10 9.99959 9.10461 9.99959 8.00005C9.99959 6.89548 9.10416 6.00005 7.99959 6.00005C6.89502 6.00005 5.99959 6.89548 5.99959 8.00005C5.99959 9.10461 6.89502 10 7.99959 10ZM20.838 17.7279L15.2482 10.3119C14.9305 9.89044 14.2976 9.89044 13.9799 10.3119L10.0712 15.4976L8.06835 12.7382C7.75127 12.3014 7.10011 12.3014 6.78302 12.7382L3.15308 17.7393C2.77204 18.2642 3.14707 18.9999 3.79575 18.9999H9.00874L9.02424 19H20.2039C20.8591 19 21.2324 18.2512 20.838 17.7279Z" fill="currentColor"/>
</svg>
