<svg width="24" height="24" viewBox="0 0 24 24" fill="none" xmlns="http://www.w3.org/2000/svg">
<path fill-rule="evenodd" clip-rule="evenodd" d="M17.2071 8.20711L21.7071 3.70711C22.0976 3.31658 22.0976 2.68342 21.7071 2.29289C21.3166 1.90237 20.6834 1.90237 20.2929 2.29289L16.5 6.08579L15.2071 4.79289C14.8166 4.40237 14.1834 4.40237 13.7929 4.79289C13.4024 5.18342 13.4024 5.81658 13.7929 6.20711L15.7929 8.20711C16.1834 8.59763 16.8166 8.59763 17.2071 8.20711ZM16.1594 3H16.7574L16.4966 3.26077C16.3891 3.16476 16.2764 3.07784 16.1594 3ZM4 3H12.8406C12.6775 3.10855 12.5226 3.23478 12.3787 3.37868C11.2071 4.55025 11.2071 6.44975 12.3787 7.62132L14.3787 9.62132C14.5552 9.79788 14.7483 9.94784 14.953 10.0712C14.6273 9.91804 14.2163 9.99829 13.9799 10.3119L10.0709 15.498L8.06779 12.7382C7.7507 12.3014 7.09954 12.3014 6.78245 12.7382L3.15251 17.7393C2.77147 18.2642 3.1465 18.9999 3.79518 18.9999H9.00874L9.02424 19H20.2039C20.8591 19 21.2324 18.2512 20.838 17.7279L15.2482 10.3119C15.1946 10.2409 15.1321 10.1818 15.0636 10.1347C16.202 10.7559 17.6578 10.5848 18.6213 9.62132L22.9226 5.32003C22.9732 5.53851 23 5.76613 23 6V18C23 19.6569 21.6569 21 20 21H4C2.34315 21 1 19.6569 1 18V6C1 4.34315 2.34315 3 4 3ZM7.99959 10C9.10416 10 9.99959 9.10461 9.99959 8.00005C9.99959 6.89548 9.10416 6.00005 7.99959 6.00005C6.89502 6.00005 5.99959 6.89548 5.99959 8.00005C5.99959 9.10461 6.89502 10 7.99959 10Z" fill="currentColor"/>
</svg>
