<svg width="24" height="24" viewBox="0 0 24 24" fill="none" xmlns="http://www.w3.org/2000/svg">
<path d="M13.7686 3C13.2923 3.53102 13 4.23057 13 5C13 6.65679 14.3432 7.9999 16 8H22L22.1543 7.99609C22.4495 7.98114 22.7333 7.9224 23 7.82812V18C23 19.6569 21.6569 21 20 21H4C2.34315 21 1 19.6569 1 18V6C1 4.34315 2.34315 3 4 3H13.7686ZM15.248 10.3115C14.9303 9.89044 14.2972 9.89037 13.9795 10.3115L10.0713 15.4971L8.06738 12.7383C7.75024 12.3017 7.09927 12.3015 6.78223 12.7383L3.15234 17.7393C2.77158 18.2641 3.14656 18.9997 3.79492 19H20.2031C20.8584 19 21.2323 18.2508 20.8379 17.7275L15.248 10.3115ZM7.99902 6C6.89473 6.00031 5.99905 6.89564 5.99902 8C5.99902 9.10438 6.89472 9.99969 7.99902 10C9.10359 10 9.99902 9.10457 9.99902 8C9.999 6.89545 9.10358 6 7.99902 6ZM22.1025 4.00488C22.6067 4.05621 23 4.48232 23 5C23 5.51768 22.6067 5.94379 22.1025 5.99512L22 6H16C15.4477 6 15 5.55228 15 5C15 4.44772 15.4477 4 16 4H22L22.1025 4.00488Z" fill="currentColor"/>
</svg>
