<svg width="24" height="24" viewBox="0 0 24 24" fill="none" xmlns="http://www.w3.org/2000/svg">
<path fill-rule="evenodd" clip-rule="evenodd" d="M22.2071 5.70711C21.8166 6.09763 21.1834 6.09763 20.7929 5.70711L20 4.91421V7.5C20 8.05229 19.5523 8.5 19 8.5C18.4477 8.5 18 8.05228 18 7.5V4.91421L17.2071 5.70711C16.8166 6.09763 16.1834 6.09763 15.7929 5.70711C15.4024 5.31658 15.4024 4.68342 15.7929 4.29289L18.2929 1.79289C18.6834 1.40237 19.3166 1.40237 19.7071 1.79289L22.2071 4.29289C22.5976 4.68342 22.5976 5.31658 22.2071 5.70711ZM21.9643 7.96406C22.3242 7.90798 22.6759 7.78627 23 7.59894V18C23 19.6569 21.6569 21 20 21H4C2.34315 21 1 19.6569 1 18V6C1 4.34315 2.34315 3 4 3H14.2638C13.2084 4.17791 13.2467 5.98937 14.3787 7.12132C14.846 7.58864 15.4291 7.86955 16.0357 7.96406C16.2587 9.40056 17.501 10.5 19 10.5C20.499 10.5 21.7413 9.40056 21.9643 7.96406ZM7.99959 10C9.10416 10 9.99959 9.10461 9.99959 8.00005C9.99959 6.89548 9.10416 6.00005 7.99959 6.00005C6.89502 6.00005 5.99959 6.89548 5.99959 8.00005C5.99959 9.10461 6.89502 10 7.99959 10ZM20.838 17.7279L15.2482 10.3119C14.9305 9.89044 14.2976 9.89044 13.9799 10.3119L10.0712 15.4976L8.06835 12.7382C7.75127 12.3014 7.10011 12.3014 6.78302 12.7382L3.15308 17.7393C2.77204 18.2642 3.14707 18.9999 3.79575 18.9999H9.00874L9.02424 19H20.2039C20.8591 19 21.2324 18.2512 20.838 17.7279Z" fill="currentColor"/>
</svg>
