<svg width="24" height="24" viewBox="0 0 24 24" fill="none" xmlns="http://www.w3.org/2000/svg">
<path fill-rule="evenodd" clip-rule="evenodd" d="M19 1C19.5523 1 20 1.44772 20 2V4H22C22.5523 4 23 4.44772 23 5C23 5.55228 22.5523 6 22 6H20V8C20 8.55229 19.5523 9 19 9C18.4477 9 18 8.55229 18 8V6H16C15.4477 6 15 5.55228 15 5C15 4.44772 15.4477 4 16 4H18V2C18 1.44772 18.4477 1 19 1ZM13.0002 5C13.0002 6.65685 14.3433 8 16.0002 8C16.0002 9.65685 17.3433 11 19.0002 11C20.657 11 22.0002 9.65685 22.0002 8C22.3508 8 22.6873 7.93987 23 7.82936V18C23 19.6569 21.6569 21 20 21H4C2.34315 21 1 19.6569 1 18V6C1 4.34315 2.34315 3 4 3H13.7641C13.289 3.53076 13.0002 4.23165 13.0002 5ZM9.99959 8.00005C9.99959 9.10461 9.10416 10 7.99959 10C6.89502 10 5.99959 9.10461 5.99959 8.00005C5.99959 6.89548 6.89502 6.00005 7.99959 6.00005C9.10416 6.00005 9.99959 6.89548 9.99959 8.00005ZM15.2482 10.3119L20.838 17.7279C21.2324 18.2512 20.8591 19 20.2039 19H9.02424L9.00874 18.9999H3.79518C3.1465 18.9999 2.77147 18.2642 3.15251 17.7393L6.78245 12.7382C7.09954 12.3014 7.7507 12.3014 8.06779 12.7382L10.0709 15.498L13.9799 10.3119C14.2976 9.89044 14.9305 9.89044 15.2482 10.3119Z" fill="currentColor"/>
</svg>
