<svg width="24" height="24" viewBox="0 0 24 24" fill="none" xmlns="http://www.w3.org/2000/svg">
<path fill-rule="evenodd" clip-rule="evenodd" d="M6.33333 4C5.04467 4 4 5.04467 4 6.33333V17.6667C4 18.9553 5.04467 20 6.33333 20H17.6667C18.9553 20 20 18.9553 20 17.6667V6.33333C20 5.04467 18.9553 4 17.6667 4H6.33333ZM8.79587 11.4052C9.67659 11.4052 10.3906 10.6912 10.3906 9.81052C10.3906 8.92979 9.67659 8.21582 8.79587 8.21582C7.91514 8.21582 7.20117 8.92979 7.20117 9.81052C7.20117 10.6912 7.91514 11.4052 8.79587 11.4052ZM13.7784 10.8566L18.2355 16.7697C18.5499 17.1869 18.2523 17.784 17.7298 17.784H12.0423L12.0305 17.7841H6.24182C5.7246 17.7841 5.42557 17.1976 5.72939 16.779L8.62371 12.7914C8.87654 12.4431 9.39575 12.4431 9.64857 12.7914L10.463 13.9135L12.7672 10.8566C13.0205 10.5205 13.5251 10.5205 13.7784 10.8566ZM22 8C22.5523 8 23 8.44772 23 9V15C23 15.5523 22.5523 16 22 16C21.4477 16 21 15.5523 21 15V9C21 8.44772 21.4477 8 22 8ZM3 9C3 8.44772 2.55228 8 2 8C1.44772 8 1 8.44772 1 9V15C1 15.5523 1.44772 16 2 16C2.55228 16 3 15.5523 3 15V9Z" fill="currentColor"/>
</svg>
