<svg width="24" height="24" viewBox="0 0 24 24" fill="none" xmlns="http://www.w3.org/2000/svg">
<path fill-rule="evenodd" clip-rule="evenodd" d="M4 3C2.34315 3 1 4.34315 1 6V11.1006L2.29332 12.0665L4.67525 9.67503C5.06499 9.28372 5.69815 9.28245 6.08946 9.67219L8.38695 11.9605L10.6752 9.66297C11.065 9.27166 11.6981 9.27039 12.0894 9.66013L13.4499 11.0151L13.9799 10.312C14.2976 9.89049 14.9305 9.89049 15.2482 10.312L15.5793 10.7513L16.6752 9.65092C17.065 9.25961 17.6981 9.25834 18.0894 9.64808L20.3869 11.9364L22.6752 9.63886C22.7711 9.54255 22.8818 9.46986 23 9.42082V6C23 4.34315 21.6569 3 20 3H4ZM23 12.1469L21.0983 14.0563C20.7086 14.4476 20.0754 14.4488 19.6841 14.0591L17.3866 11.7708L16.7953 12.3645L20.838 17.7279C21.2324 18.2512 20.8591 19 20.2039 19H9.02424L9.00879 18.9999H3.79575C3.14707 18.9999 2.77204 18.2643 3.15308 17.7393L6.59452 12.998L5.38662 11.7949L3.09833 14.0924C2.74715 14.445 2.19014 14.4857 1.79142 14.1879L1 13.5969V18C1 19.6569 2.34315 21 4 21H20C21.6569 21 23 19.6569 23 18V12.1469ZM9.06542 14.112L10.0712 15.4976L12.2346 12.6275L11.3866 11.7829L9.09832 14.0804C9.08754 14.0912 9.07656 14.1017 9.06542 14.112ZM8 10C9.10457 10 10 9.10457 10 8C10 6.89543 9.10457 6 8 6C6.89543 6 6 6.89543 6 8C6 9.10457 6.89543 10 8 10Z" fill="currentColor"/>
</svg>
