<svg width="24" height="24" viewBox="0 0 24 24" fill="none" xmlns="http://www.w3.org/2000/svg">
<path fill-rule="evenodd" clip-rule="evenodd" d="M17.5001 9C18.8808 9 20.0001 7.88071 20.0001 6.5C20.0001 5.11929 18.8808 4 17.5001 4C16.1194 4 15.0001 5.11929 15.0001 6.5C15.0001 7.88071 16.1194 9 17.5001 9ZM9.20011 9.06667L2.20011 18.4C1.70568 19.0592 2.17606 20 3.00011 20H11.906H17.0001H20.9945C21.8103 20 22.2828 19.0758 21.8052 18.4145L17.2609 12.1225C16.8618 11.5698 16.0387 11.5698 15.6396 12.1225L14.3898 13.8529L10.8001 9.06667C10.4001 8.53333 9.60011 8.53333 9.20011 9.06667Z" fill="currentColor"/>
</svg>
