<svg width="24" height="24" viewBox="0 0 24 24" fill="none" xmlns="http://www.w3.org/2000/svg">
<path fill-rule="evenodd" clip-rule="evenodd" d="M1 6C1 4.34315 2.34315 3 4 3H20C21.6569 3 23 4.34315 23 6V18C23 19.6569 21.6569 21 20 21H4C2.34315 21 1 19.6569 1 18V6ZM10 8C10 9.10457 9.10457 10 8 10C6.89543 10 6 9.10457 6 8C6 6.89543 6.89543 6 8 6C9.10457 6 10 6.89543 10 8ZM15.2482 10.312L20.838 17.7279C21.2324 18.2512 20.8591 19 20.2039 19H9.02424L9.00879 18.9999H3.79575C3.14707 18.9999 2.77204 18.2643 3.15308 17.7393L6.78302 12.7383C7.10011 12.3014 7.75127 12.3014 8.06835 12.7383L10.0712 15.4976L13.9799 10.312C14.2976 9.89049 14.9305 9.89049 15.2482 10.312Z" fill="currentColor"/>
</svg>
