<svg width="24" height="24" viewBox="0 0 24 24" fill="none" xmlns="http://www.w3.org/2000/svg">
<path fill-rule="evenodd" clip-rule="evenodd" d="M10.543 1.11783C8.76477 0.641353 6.93698 1.69663 6.46051 3.47485L5.51599 6.99985H3.33333C2.04467 6.99985 1 8.04452 1 9.33318V20.6665C1 21.9552 2.04467 22.9998 3.33333 22.9998H14.6667C15.9553 22.9998 17 21.9552 17 20.6665V20.3274C18.4675 20.3226 19.8087 19.3416 20.2068 17.856L22.8813 7.87477C23.3577 6.09655 22.3024 4.26876 20.5242 3.79229L10.543 1.11783ZM17 18.3269C17.584 18.3215 18.1164 17.93 18.2749 17.3384L20.9494 7.35713C21.14 6.64585 20.7179 5.91473 20.0066 5.72414L10.0254 3.04968C9.31407 2.85909 8.58295 3.2812 8.39236 3.99249L7.58654 6.99985H14.6667C15.9553 6.99985 17 8.04452 17 9.33318V18.3269ZM7.39056 12.8104C7.39056 13.6911 6.67659 14.4051 5.79587 14.4051C4.91514 14.4051 4.20117 13.6911 4.20117 12.8104C4.20117 11.9296 4.91514 11.2157 5.79587 11.2157C6.67659 11.2157 7.39056 11.9296 7.39056 12.8104ZM15.2355 19.7696L10.7784 13.8565C10.5251 13.5204 10.0205 13.5204 9.76716 13.8565L7.46301 16.9133L6.64857 15.7913C6.39575 15.443 5.87654 15.443 5.62371 15.7913L2.72939 19.7788C2.42557 20.1974 2.7246 20.784 3.24182 20.784H9.03047L9.04227 20.7839H14.7298C15.2523 20.7839 15.5499 20.1868 15.2355 19.7696Z" fill="currentColor"/>
</svg>
