<svg width="24" height="24" viewBox="0 0 24 24" fill="none" xmlns="http://www.w3.org/2000/svg">
<path fill-rule="evenodd" clip-rule="evenodd" d="M3.70711 2.29289C3.31658 1.90237 2.68342 1.90237 2.29289 2.29289C1.90237 2.68342 1.90237 3.31658 2.29289 3.70711L3.07732 4.49154C1.83921 5.17148 1 6.48774 1 8V16C1 18.2091 2.79086 20 5 20H15C15.9778 20 16.8463 19.5322 17.394 18.8082L20.2929 21.7071C20.6834 22.0976 21.3166 22.0976 21.7071 21.7071C22.0976 21.3166 22.0976 20.6834 21.7071 20.2929L11.4142 10H13C13.5523 10 14 9.55228 14 9C14 8.44772 13.5523 8 13 8H11C10.5712 8 10.2054 8.2699 10.0633 8.64909L3.70711 2.29289ZM15.9367 17.3509L4.62154 6.03576C3.69794 6.21265 3 7.02482 3 8V16C3 17.1046 3.89543 18 5 18H15C15.4288 18 15.7946 17.7301 15.9367 17.3509ZM9.5 4C8.94772 4 8.5 4.44772 8.5 5C8.5 5.55228 8.94772 6 9.5 6H14C15.1046 6 16 6.89543 16 8V11.8274C16 11.8566 16.0012 11.8854 16.0037 11.9139C15.9793 12.1977 16.0757 12.4899 16.2929 12.7071L20.4393 16.8536C21.3843 17.7985 23 17.1293 23 15.7929V8.20711C23 6.87076 21.3843 6.2015 20.4393 7.14645L18 9.58579V8C18 5.79086 16.2091 4 14 4H9.5ZM21 9.41422L18.4142 12L21 14.5858V9.41422Z" fill="currentColor"/>
</svg>
