<svg width="24" height="24" viewBox="0 0 24 24" fill="none" xmlns="http://www.w3.org/2000/svg">
<path fill-rule="evenodd" clip-rule="evenodd" d="M5 4C2.79086 4 1 5.79086 1 8V16C1 18.2091 2.79086 20 5 20H14C16.2091 20 18 18.2091 18 16V8C18 5.79086 16.2091 4 14 4H5ZM11 8C10.4477 8 10 8.44772 10 9C10 9.55228 10.4477 10 11 10H13C13.5523 10 14 9.55228 14 9C14 8.44772 13.5523 8 13 8H11ZM23 8.42539C23 7.00747 21.2145 6.38114 20.3287 7.48835L19.4383 8.60139C19.1546 8.95601 19 9.39664 19 9.85078V14.1492C19 14.6034 19.1546 15.044 19.4383 15.3986L20.3287 16.5117C21.2145 17.6189 23 16.9925 23 15.5746V8.42539Z" fill="currentColor"/>
</svg>
