<svg width="24" height="24" viewBox="0 0 24 24" fill="none" xmlns="http://www.w3.org/2000/svg">
<path fill-rule="evenodd" clip-rule="evenodd" d="M3.70711 2.29289C3.31658 1.90237 2.68342 1.90237 2.29289 2.29289C1.90237 2.68342 1.90237 3.31658 2.29289 3.70711L3.07732 4.49154C1.83921 5.17148 1 6.48774 1 8V16C1 18.2091 2.79086 20 5 20H14C15.2538 20 16.3728 19.4232 17.1062 18.5204L20.2929 21.7071C20.6834 22.0976 21.3166 22.0976 21.7071 21.7071C22.0976 21.3166 22.0976 20.6834 21.7071 20.2929L3.70711 2.29289ZM13.8166 9.57734L16 11.7607L17 12.7607L18 13.7607V8C18 5.79086 16.2091 4 14 4H8.23926L9.23926 5L10.2393 6L12.2393 8H13C13.5523 8 14 8.44772 14 9C14 9.21506 13.9321 9.41426 13.8166 9.57734ZM20.3287 7.48877C21.2145 6.38157 23 7.0079 23 8.42582V15.575C23 16.993 21.2145 17.6193 20.3287 16.5121L19.4383 15.399C19.1546 15.0444 19 14.6038 19 14.1496V9.85121C19 9.39706 19.1546 8.95644 19.4383 8.60182L20.3287 7.48877Z" fill="currentColor"/>
</svg>
