<svg width="24" height="24" viewBox="0 0 24 24" fill="none" xmlns="http://www.w3.org/2000/svg">
<path fill-rule="evenodd" clip-rule="evenodd" d="M1 8C1 5.79086 2.79086 4 5 4H14C16.2091 4 18 5.79086 18 8V9.58579L20.4393 7.14645C21.3843 6.2015 23 6.87076 23 8.20711V15.7929C23 17.1293 21.3843 17.7985 20.4393 16.8536L18 14.4142V16C18 18.2091 16.2091 20 14 20H5C2.79086 20 1 18.2091 1 16V8ZM16 8V11.9993V12.0007V16C16 17.1046 15.1046 18 14 18H5C3.89543 18 3 17.1046 3 16V8C3 6.89543 3.89543 6 5 6H14C15.1046 6 16 6.89543 16 8ZM21 9.41422L18.4142 12L21 14.5858V9.41422ZM11 8C10.4477 8 10 8.44772 10 9C10 9.55228 10.4477 10 11 10H13C13.5523 10 14 9.55228 14 9C14 8.44772 13.5523 8 13 8H11Z" fill="currentColor"/>
</svg>
