<svg width="24" height="24" viewBox="0 0 24 24" fill="none" xmlns="http://www.w3.org/2000/svg">
<path fill-rule="evenodd" clip-rule="evenodd" d="M3 20V4C3 2.34315 4.34315 1 6 1H13.7564C14.2919 1 14.805 1.21471 15.1808 1.59605L20.4244 6.91602C20.7932 7.29023 21 7.79454 21 8.31997V20C21 21.6569 19.6569 23 18 23H6C4.34315 23 3 21.6569 3 20ZM15 6V3L19 7H16C15.4477 7 15 6.55228 15 6ZM6.13178 14.923V17.9998C6.13178 18.0405 6.14986 18.0654 6.186 18.0744C6.27636 18.0925 6.3848 18.1015 6.5113 18.1015C7.46914 18.1015 7.94806 17.5322 7.94806 16.3937C7.94806 15.3455 7.46914 14.8214 6.5113 14.8214C6.3848 14.8214 6.27636 14.8304 6.186 14.8485C6.14986 14.8575 6.13178 14.8824 6.13178 14.923ZM5.3863 18.9486C5.27786 18.9396 5.18524 18.8944 5.10843 18.8131C5.03614 18.7273 5 18.6279 5 18.5149V14.408C5 14.295 5.03614 14.1979 5.10843 14.1165C5.18524 14.0307 5.27786 13.9833 5.3863 13.9742C5.73871 13.9381 6.08434 13.92 6.4232 13.92C7.25453 13.92 7.89836 14.1391 8.35469 14.5774C8.81554 15.0111 9.04596 15.6165 9.04596 16.3937C9.04596 17.225 8.81554 17.8688 8.35469 18.3251C7.89836 18.777 7.25453 19.0029 6.4232 19.0029C6.08434 19.0029 5.73871 18.9848 5.3863 18.9486ZM12.9496 15.2754C12.7192 15.0043 12.3939 14.8688 11.9737 14.8688C11.5535 14.8688 11.2259 15.0043 10.991 15.2754C10.7606 15.5465 10.6454 15.9419 10.6454 16.4614C10.6454 16.981 10.7606 17.3763 10.991 17.6474C11.2259 17.9185 11.5535 18.0541 11.9737 18.0541C12.3939 18.0541 12.7192 17.9185 12.9496 17.6474C13.1845 17.3763 13.302 16.981 13.302 16.4614C13.302 15.9419 13.1845 15.5465 12.9496 15.2754ZM13.7967 18.3184C13.3449 18.7747 12.7372 19.0029 11.9737 19.0029C11.2101 19.0029 10.6002 18.7747 10.1439 18.3184C9.69205 17.862 9.46614 17.2431 9.46614 16.4614C9.46614 15.6798 9.69205 15.0608 10.1439 14.6045C10.6002 14.1482 11.2101 13.92 11.9737 13.92C12.7372 13.92 13.3449 14.1482 13.7967 14.6045C14.2531 15.0608 14.4812 15.6798 14.4812 16.4614C14.4812 17.2431 14.2531 17.862 13.7967 18.3184ZM15.613 18.3184C16.0874 18.7747 16.7177 19.0029 17.5038 19.0029C17.9692 19.0029 18.3939 18.9125 18.7779 18.7318C18.8773 18.6866 18.9429 18.612 18.9745 18.5081C19.0106 18.3997 19.0084 18.2935 18.9677 18.1896L18.9203 18.0608C18.8841 17.966 18.8164 17.9027 18.717 17.8711C18.6221 17.8395 18.5295 17.8462 18.4391 17.8914C18.177 18.0134 17.9014 18.0744 17.6123 18.0744C17.1605 18.0744 16.7922 17.9298 16.5076 17.6407C16.223 17.3515 16.0806 16.9584 16.0806 16.4614C16.0806 15.9554 16.2162 15.5601 16.4873 15.2754C16.7629 14.9908 17.1379 14.8485 17.6123 14.8485C17.9014 14.8485 18.177 14.9095 18.4391 15.0315C18.5295 15.0766 18.6221 15.0834 18.717 15.0518C18.8164 15.0202 18.8841 14.9569 18.9203 14.862L18.9677 14.7333C19.0084 14.6293 19.0106 14.5254 18.9745 14.4215C18.9429 14.3131 18.8773 14.2363 18.7779 14.1911C18.3939 14.0104 17.9692 13.92 17.5038 13.92C16.6906 13.92 16.0535 14.1459 15.5927 14.5977C15.1318 15.0495 14.9014 15.6708 14.9014 16.4614C14.9014 17.2431 15.1386 17.862 15.613 18.3184Z" fill="currentColor"/>
</svg>
