<svg width="24" height="24" viewBox="0 0 24 24" fill="none" xmlns="http://www.w3.org/2000/svg">
<path fill-rule="evenodd" clip-rule="evenodd" d="M3 20V4C3 2.34315 4.34315 1 6 1H13.7564C14.2919 1 14.805 1.21471 15.1808 1.59605L20.4244 6.91602C20.7932 7.29023 21 7.79454 21 8.31997V20C21 21.6569 19.6569 23 18 23H6C4.34315 23 3 21.6569 3 20ZM15 6V3L19 7H16C15.4477 7 15 6.55228 15 6ZM13.5246 17.2826V18.2292C13.5246 18.2615 13.5407 18.2812 13.573 18.2884C13.6483 18.3027 13.7397 18.3099 13.8473 18.3099C14.1018 18.3099 14.2883 18.2633 14.4066 18.17C14.5249 18.0732 14.5841 17.9262 14.5841 17.729C14.5841 17.3992 14.3152 17.2342 13.7774 17.2342H13.5676C13.5389 17.2342 13.5246 17.2504 13.5246 17.2826ZM13.5246 15.7444V16.535C13.5246 16.5637 13.5389 16.5781 13.5676 16.5781H13.7021C14.2255 16.5781 14.4873 16.4221 14.4873 16.1102C14.4873 15.8126 14.2686 15.6638 13.8311 15.6638C13.7272 15.6638 13.6393 15.6709 13.5676 15.6853C13.5389 15.6924 13.5246 15.7122 13.5246 15.7444ZM12.9276 18.9606C12.8415 18.9535 12.7698 18.9158 12.7125 18.8477C12.6551 18.7796 12.6264 18.7025 12.6264 18.6164V15.3572C12.6264 15.2676 12.6551 15.1905 12.7125 15.1259C12.7734 15.0578 12.8469 15.0202 12.933 15.013C13.2126 14.9843 13.4869 14.97 13.7558 14.97C14.7956 14.97 15.3155 15.3052 15.3155 15.9757C15.3155 16.2016 15.242 16.3934 15.095 16.5512C14.9516 16.7089 14.758 16.8093 14.5142 16.8524C14.5106 16.8524 14.5088 16.8559 14.5088 16.8631C14.5088 16.8667 14.5124 16.8685 14.5196 16.8685C14.8028 16.9079 15.0269 17.0155 15.1918 17.1912C15.3604 17.3669 15.4446 17.5766 15.4446 17.8204C15.4446 18.2184 15.312 18.516 15.0466 18.7132C14.7849 18.9069 14.3725 19.0037 13.8096 19.0037C13.5264 19.0037 13.2324 18.9893 12.9276 18.9606ZM4.00506 15.3196L4.74188 18.6541C4.75981 18.7401 4.80284 18.8118 4.87096 18.8692C4.94267 18.923 5.02335 18.9499 5.11298 18.9499H5.57013C5.65977 18.9499 5.73686 18.9212 5.8014 18.8638C5.86952 18.8065 5.91076 18.7348 5.9251 18.6487L6.3715 15.9596C6.3715 15.956 6.37329 15.9542 6.37687 15.9542C6.38046 15.9542 6.38225 15.956 6.38225 15.9596L6.82865 18.6487C6.84299 18.7348 6.88243 18.8065 6.94697 18.8638C7.01509 18.9212 7.09397 18.9499 7.18361 18.9499H7.64076C7.7304 18.9499 7.80928 18.923 7.87741 18.8692C7.94912 18.8118 7.99394 18.7401 8.01186 18.6541L8.74868 15.3196C8.76661 15.2443 8.75048 15.1761 8.70028 15.1152C8.65367 15.0542 8.59092 15.0238 8.51204 15.0238H8.21624C8.1266 15.0238 8.04772 15.0524 7.97959 15.1098C7.91505 15.1672 7.87561 15.2389 7.86127 15.3249L7.41488 18.0141C7.41488 18.0177 7.41308 18.0194 7.4095 18.0194C7.40591 18.0194 7.40412 18.0177 7.40412 18.0141L6.98999 15.3249C6.97565 15.2389 6.93621 15.1672 6.87167 15.1098C6.80713 15.0524 6.73005 15.0238 6.64041 15.0238H6.13485C6.04521 15.0238 5.96813 15.0524 5.90359 15.1098C5.83905 15.1672 5.79961 15.2389 5.78526 15.3249L5.37114 18.0141C5.37114 18.0177 5.36935 18.0194 5.36576 18.0194C5.36218 18.0194 5.36038 18.0177 5.36038 18.0141L4.91399 15.3249C4.89965 15.2389 4.85841 15.1672 4.79029 15.1098C4.72575 15.0524 4.64866 15.0238 4.55902 15.0238H4.24171C4.16282 15.0238 4.10008 15.0542 4.05347 15.1152C4.00685 15.1761 3.99072 15.2443 4.00506 15.3196ZM9.44248 18.8585C9.50343 18.9194 9.57514 18.9499 9.65761 18.9499H11.5615C11.644 18.9499 11.7139 18.9194 11.7713 18.8585C11.8322 18.7975 11.8627 18.7258 11.8627 18.6433V18.5196C11.8627 18.4372 11.8322 18.3654 11.7713 18.3045C11.7139 18.2435 11.644 18.2131 11.5615 18.2131H10.3138C10.2851 18.2131 10.2707 18.1987 10.2707 18.17V17.2988C10.2707 17.2701 10.2851 17.2557 10.3138 17.2557H11.4539C11.5364 17.2557 11.6063 17.2253 11.6637 17.1643C11.7247 17.1033 11.7551 17.0316 11.7551 16.9492V16.8685C11.7551 16.786 11.7247 16.7143 11.6637 16.6534C11.6063 16.5924 11.5364 16.5619 11.4539 16.5619H10.3138C10.2851 16.5619 10.2707 16.5458 10.2707 16.5135V15.8036C10.2707 15.7749 10.2851 15.7606 10.3138 15.7606H11.5615C11.644 15.7606 11.7139 15.7301 11.7713 15.6691C11.8322 15.6082 11.8627 15.5365 11.8627 15.454V15.3303C11.8627 15.2478 11.8322 15.1761 11.7713 15.1152C11.7139 15.0542 11.644 15.0238 11.5615 15.0238H9.65761C9.57514 15.0238 9.50343 15.0542 9.44248 15.1152C9.38511 15.1761 9.35643 15.2478 9.35643 15.3303V18.6433C9.35643 18.7258 9.38511 18.7975 9.44248 18.8585ZM16.1115 18.8585C16.1725 18.9194 16.2442 18.9499 16.3266 18.9499H16.5794C16.6619 18.9499 16.7336 18.9194 16.7946 18.8585C16.8555 18.7975 16.886 18.7258 16.886 18.6433V16.5512C16.886 16.5476 16.8878 16.5458 16.8914 16.5458C16.895 16.5458 16.8967 16.5476 16.8967 16.5512L17.4615 17.7774C17.4973 17.8599 17.5547 17.9262 17.6336 17.9764C17.7124 18.0266 17.7985 18.0517 17.8917 18.0517H18.1069C18.2001 18.0517 18.2861 18.0266 18.365 17.9764C18.4439 17.9262 18.5013 17.8599 18.5371 17.7774L19.1018 16.5512C19.1018 16.5476 19.1036 16.5458 19.1072 16.5458C19.1108 16.5458 19.1126 16.5476 19.1126 16.5512V18.6433C19.1126 18.7258 19.1431 18.7975 19.204 18.8585C19.265 18.9194 19.3367 18.9499 19.4191 18.9499H19.6934C19.7759 18.9499 19.8476 18.9194 19.9086 18.8585C19.9695 18.7975 20 18.7258 20 18.6433V15.3303C20 15.2478 19.9695 15.1761 19.9086 15.1152C19.8476 15.0542 19.7759 15.0238 19.6934 15.0238H19.3492C19.2596 15.0238 19.1753 15.0506 19.0965 15.1044C19.0176 15.1546 18.9584 15.221 18.919 15.3034L18.0047 17.331C18.0047 17.3346 18.0029 17.3364 17.9993 17.3364C17.9957 17.3364 17.9939 17.3346 17.9939 17.331L17.0796 15.3034C17.0402 15.221 16.981 15.1546 16.9021 15.1044C16.8232 15.0506 16.739 15.0238 16.6493 15.0238H16.3266C16.2442 15.0238 16.1725 15.0542 16.1115 15.1152C16.0506 15.1761 16.0201 15.2478 16.0201 15.3303V18.6433C16.0201 18.7258 16.0506 18.7975 16.1115 18.8585Z" fill="currentColor"/>
</svg>
