<svg width="24" height="24" viewBox="0 0 24 24" fill="none" xmlns="http://www.w3.org/2000/svg">
<path fill-rule="evenodd" clip-rule="evenodd" d="M3 20V4C3 2.34315 4.34315 1 6 1H13.7564C14.2919 1 14.805 1.21471 15.1808 1.59605L20.4244 6.91602C20.7932 7.29023 21 7.79454 21 8.31997V20C21 21.6569 19.6569 23 18 23H6C4.34315 23 3 21.6569 3 20ZM15 6V3L19 7H16C15.4477 7 15 6.55228 15 6ZM6 11.5C6 11.2239 6.22386 11 6.5 11H7.5C7.77614 11 8 11.2239 8 11.5V12.5C8 12.7761 7.77614 13 7.5 13H6.5C6.22386 13 6 12.7761 6 12.5V11.5ZM10 11.5C10 11.2239 10.2239 11 10.5 11H17.5C17.7761 11 18 11.2239 18 11.5V12.5C18 12.7761 17.7761 13 17.5 13H10.5C10.2239 13 10 12.7761 10 12.5V11.5ZM10.5 15C10.2239 15 10 15.2239 10 15.5V16.5C10 16.7761 10.2239 17 10.5 17H17.5C17.7761 17 18 16.7761 18 16.5V15.5C18 15.2239 17.7761 15 17.5 15H10.5ZM6 15.5C6 15.2239 6.22386 15 6.5 15H7.5C7.77614 15 8 15.2239 8 15.5V16.5C8 16.7761 7.77614 17 7.5 17H6.5C6.22386 17 6 16.7761 6 16.5V15.5ZM10.5 19C10.2239 19 10 19.2239 10 19.5V20.5C10 20.7761 10.2239 21 10.5 21H17.5C17.7761 21 18 20.7761 18 20.5V19.5C18 19.2239 17.7761 19 17.5 19H10.5ZM6 19.5C6 19.2239 6.22386 19 6.5 19H7.5C7.77614 19 8 19.2239 8 19.5V20.5C8 20.7761 7.77614 21 7.5 21H6.5C6.22386 21 6 20.7761 6 20.5V19.5Z" fill="currentColor"/>
</svg>
