<svg width="24" height="24" viewBox="0 0 24 24" fill="none" xmlns="http://www.w3.org/2000/svg">
<path fill-rule="evenodd" clip-rule="evenodd" d="M3 20V4C3 2.34315 4.34315 1 6 1H13.7564C14.2919 1 14.805 1.21471 15.1808 1.59605L20.4244 6.91602C20.7932 7.29023 21 7.79454 21 8.31997V20C21 21.6569 19.6569 23 18 23H6C4.34315 23 3 21.6569 3 20ZM15 6V3L19 7H16C15.4477 7 15 6.55228 15 6ZM11.859 14.4987V16.1165C11.859 16.1511 11.8813 16.1734 11.9258 16.1833C12.094 16.2031 12.2276 16.213 12.3265 16.213C12.6827 16.213 12.9573 16.1314 13.1503 15.9681C13.3482 15.7999 13.4471 15.5673 13.4471 15.2705C13.4471 14.6818 13.0736 14.3874 12.3265 14.3874C12.2028 14.3874 12.0668 14.3998 11.9184 14.4245C11.8788 14.4344 11.859 14.4591 11.859 14.4987ZM11.0427 18.9217C10.9289 18.9217 10.8299 18.8797 10.7458 18.7955C10.6617 18.7114 10.6197 18.6125 10.6197 18.4987V13.9644C10.6197 13.8456 10.6592 13.7393 10.7384 13.6453C10.8176 13.5513 10.9165 13.4993 11.0353 13.4894C11.4558 13.4498 11.8615 13.4301 12.2523 13.4301C13.8355 13.4301 14.6271 14.0188 14.6271 15.1963C14.6271 15.8345 14.4416 16.3194 14.0705 16.6508C13.7044 16.9774 13.1651 17.1406 12.4527 17.1406C12.2647 17.1406 12.0891 17.1332 11.9258 17.1184C11.8813 17.1184 11.859 17.1382 11.859 17.1777V18.4987C11.859 18.6125 11.8169 18.7114 11.7328 18.7955C11.6487 18.8797 11.5498 18.9217 11.436 18.9217H11.0427ZM4.42301 18.9217C4.30921 18.9217 4.21027 18.8797 4.12616 18.7955C4.04205 18.7114 4 18.6125 4 18.4987V13.9273C4 13.8135 4.04205 13.7145 4.12616 13.6304C4.21027 13.5463 4.30921 13.5043 4.42301 13.5043H4.86827C4.99196 13.5043 5.10823 13.5414 5.21707 13.6156C5.32591 13.6848 5.40754 13.7764 5.46197 13.8902L6.72356 16.6879C6.72356 16.6929 6.72604 16.6954 6.73098 16.6954C6.73593 16.6954 6.7384 16.6929 6.7384 16.6879L8 13.8902C8.05442 13.7764 8.13605 13.6848 8.2449 13.6156C8.35374 13.5414 8.47001 13.5043 8.59369 13.5043H9.06865C9.18244 13.5043 9.28139 13.5463 9.36549 13.6304C9.4496 13.7145 9.49165 13.8135 9.49165 13.9273V18.4987C9.49165 18.6125 9.4496 18.7114 9.36549 18.7955C9.28139 18.8797 9.18244 18.9217 9.06865 18.9217H8.69017C8.57638 18.9217 8.47743 18.8797 8.39332 18.7955C8.30921 18.7114 8.26716 18.6125 8.26716 18.4987V15.6119C8.26716 15.6069 8.26469 15.6045 8.25974 15.6045C8.25479 15.6045 8.25232 15.6069 8.25232 15.6119L7.4731 17.3039C7.42362 17.4177 7.34447 17.5092 7.23562 17.5785C7.12678 17.6477 7.00804 17.6824 6.87941 17.6824H6.58256C6.45393 17.6824 6.33519 17.6477 6.22635 17.5785C6.1175 17.5092 6.03834 17.4177 5.98887 17.3039L5.20965 15.6119C5.20965 15.6069 5.20717 15.6045 5.20223 15.6045C5.19728 15.6045 5.19481 15.6069 5.19481 15.6119V18.4987C5.19481 18.6125 5.15275 18.7114 5.06865 18.7955C4.98454 18.8797 4.88559 18.9217 4.7718 18.9217H4.42301ZM15.8516 18.2464C16.3908 18.7461 17.1107 18.9959 18.0111 18.9959C18.5702 18.9959 19.102 18.9168 19.6067 18.7584C19.7254 18.7238 19.8194 18.6545 19.8887 18.5506C19.9629 18.4418 20 18.3231 20 18.1944V16.0497C20 15.9359 19.9579 15.837 19.8738 15.7529C19.7897 15.6688 19.6908 15.6267 19.577 15.6267H17.9072C17.7934 15.6267 17.6945 15.6688 17.6104 15.7529C17.5312 15.837 17.4917 15.9359 17.4917 16.0497V16.161C17.4917 16.2748 17.5312 16.3738 17.6104 16.4579C17.6945 16.542 17.7934 16.584 17.9072 16.584H18.7384C18.778 16.584 18.7978 16.6038 18.7978 16.6434V17.8234C18.7978 17.863 18.778 17.8902 18.7384 17.905C18.5652 17.9644 18.3624 17.9941 18.1299 17.9941C17.5807 17.9941 17.1429 17.8357 16.8163 17.5191C16.4947 17.2025 16.334 16.7671 16.334 16.213C16.334 15.6539 16.4898 15.2186 16.8015 14.9069C17.1132 14.5902 17.5485 14.4319 18.1076 14.4319C18.444 14.4319 18.7607 14.5012 19.0575 14.6397C19.1565 14.6842 19.2579 14.6867 19.3618 14.6471C19.4657 14.6075 19.5374 14.5383 19.577 14.4393L19.6289 14.3206C19.6735 14.2068 19.6759 14.0905 19.6364 13.9718C19.5968 13.8531 19.5226 13.769 19.4137 13.7195C18.9981 13.5265 18.5207 13.4301 17.9814 13.4301C17.0662 13.4301 16.3488 13.6799 15.8293 14.1796C15.3098 14.6743 15.0501 15.3521 15.0501 16.213C15.0501 17.0639 15.3173 17.7417 15.8516 18.2464Z" fill="currentColor"/>
</svg>
