<svg width="24" height="24" viewBox="0 0 24 24" fill="none" xmlns="http://www.w3.org/2000/svg">
<path fill-rule="evenodd" clip-rule="evenodd" d="M3 20V4C3 2.34315 4.34315 1 6 1H13.7564C14.2919 1 14.805 1.21471 15.1808 1.59605L20.4244 6.91602C20.7932 7.29023 21 7.79454 21 8.31997V20C21 21.6569 19.6569 23 18 23H6C4.34315 23 3 21.6569 3 20ZM15 6V3L19 7H16C15.4477 7 15 6.55228 15 6ZM13.9418 17.0279C13.3477 16.8544 12.9205 16.6441 12.6603 16.3969C12.4044 16.1453 12.2765 15.8352 12.2765 15.4666C12.2765 15.0546 12.4304 14.7272 12.7384 14.4843C13.0463 14.2414 13.48 14.12 14.0394 14.12C14.4731 14.12 14.8764 14.1807 15.2494 14.3021C15.3492 14.3325 15.4229 14.3954 15.4706 14.4908C15.5183 14.5862 15.5291 14.686 15.5031 14.79L15.4706 14.9332C15.4489 15.0242 15.3947 15.0915 15.308 15.1348C15.2256 15.1782 15.1388 15.1825 15.0477 15.1478C14.7528 15.0394 14.4319 14.9852 14.085 14.9852C13.8594 14.9852 13.6881 15.0286 13.571 15.1153C13.4539 15.202 13.3954 15.3191 13.3954 15.4666C13.3954 15.7095 13.5775 15.8829 13.9418 15.987C14.588 16.1648 15.0412 16.3773 15.3014 16.6245C15.566 16.8717 15.6983 17.1905 15.6983 17.5808C15.6983 18.0405 15.5421 18.3918 15.2299 18.6347C14.9176 18.8776 14.4558 18.999 13.8443 18.999C13.4192 18.999 12.9986 18.9057 12.5822 18.7193C12.4825 18.6759 12.4109 18.6043 12.3675 18.5046C12.3285 18.4005 12.3264 18.2964 12.361 18.1923L12.4066 18.0297C12.4326 17.943 12.489 17.8822 12.5757 17.8475C12.6625 17.8128 12.747 17.8172 12.8294 17.8606C13.1937 18.0427 13.5472 18.1338 13.8898 18.1338C14.1153 18.1338 14.2845 18.0882 14.3972 17.9972C14.5143 17.9018 14.5729 17.7695 14.5729 17.6003C14.5729 17.4616 14.5251 17.3488 14.4297 17.2621C14.3387 17.1753 14.176 17.0973 13.9418 17.0279ZM4.03424 18.8298C4.07761 18.8992 4.14049 18.9339 4.22289 18.9339H4.69778C4.81054 18.9339 4.91462 18.9036 5.01004 18.8429C5.10545 18.7778 5.17484 18.6954 5.21821 18.5957L5.84922 17.171C5.84922 17.1667 5.85139 17.1645 5.85573 17.1645C5.86006 17.1645 5.86223 17.1667 5.86223 17.171L6.49325 18.5957C6.54095 18.6954 6.61251 18.7778 6.70792 18.8429C6.80334 18.9036 6.90525 18.9339 7.01367 18.9339H7.51458C7.60132 18.9339 7.66421 18.8992 7.70324 18.8298C7.74661 18.7561 7.74877 18.6824 7.70974 18.6087L6.62986 16.579C6.61685 16.5443 6.61685 16.5096 6.62986 16.4749L7.67722 14.5103C7.71625 14.4366 7.71408 14.365 7.67071 14.2956C7.63168 14.2219 7.56879 14.185 7.48206 14.185H7.03319C6.92477 14.185 6.82285 14.2176 6.72744 14.2826C6.63203 14.3433 6.56047 14.4236 6.51276 14.5233L5.88825 15.8829C5.88825 15.8873 5.88609 15.8894 5.88175 15.8894C5.87741 15.8894 5.87524 15.8873 5.87524 15.8829L5.25073 14.5233C5.20736 14.4236 5.13797 14.3433 5.04256 14.2826C4.94715 14.2176 4.84307 14.185 4.73031 14.185H4.25542C4.17302 14.185 4.11013 14.2219 4.06677 14.2956C4.0234 14.365 4.02123 14.4366 4.06026 14.5103L5.10762 16.4749C5.12063 16.5096 5.12063 16.5443 5.10762 16.579L4.02773 18.6087C3.9887 18.6824 3.99087 18.7561 4.03424 18.8298ZM8.57495 18.8233C8.64868 18.8971 8.73541 18.9339 8.83516 18.9339H11.2421C11.3419 18.9339 11.4286 18.8971 11.5023 18.8233C11.5761 18.7496 11.6129 18.6629 11.6129 18.5631V18.3875C11.6129 18.2877 11.5761 18.201 11.5023 18.1273C11.4286 18.0535 11.3419 18.0167 11.2421 18.0167H9.66134C9.62231 18.0167 9.60279 17.9993 9.60279 17.9646V14.5559C9.60279 14.4561 9.56593 14.3694 9.4922 14.2956C9.42281 14.2219 9.33824 14.185 9.23849 14.185H8.83516C8.73541 14.185 8.64868 14.2219 8.57495 14.2956C8.50122 14.3694 8.46436 14.4561 8.46436 14.5559V18.5631C8.46436 18.6629 8.50122 18.7496 8.57495 18.8233ZM16.2968 18.8298C16.3401 18.8992 16.403 18.9339 16.4854 18.9339H16.9603C17.0731 18.9339 17.1771 18.9036 17.2726 18.8429C17.368 18.7778 17.4374 18.6954 17.4807 18.5957L18.1117 17.171C18.1117 17.1667 18.1139 17.1645 18.1182 17.1645C18.1226 17.1645 18.1248 17.1667 18.1248 17.171L18.7558 18.5957C18.8035 18.6954 18.875 18.7778 18.9704 18.8429C19.0659 18.9036 19.1678 18.9339 19.2762 18.9339H19.7771C19.8638 18.9339 19.9267 18.8992 19.9658 18.8298C20.0091 18.7561 20.0113 18.6824 19.9723 18.6087L18.8924 16.579C18.8794 16.5443 18.8794 16.5096 18.8924 16.4749L19.9397 14.5103C19.9788 14.4366 19.9766 14.365 19.9332 14.2956C19.8942 14.2219 19.8313 14.185 19.7446 14.185H19.2957C19.1873 14.185 19.0854 14.2176 18.99 14.2826C18.8946 14.3433 18.823 14.4236 18.7753 14.5233L18.1508 15.8829C18.1508 15.8873 18.1486 15.8894 18.1443 15.8894C18.1399 15.8894 18.1378 15.8873 18.1378 15.8829L17.5133 14.5233C17.4699 14.4236 17.4005 14.3433 17.3051 14.2826C17.2097 14.2176 17.1056 14.185 16.9928 14.185H16.5179C16.4355 14.185 16.3727 14.2219 16.3293 14.2956C16.2859 14.365 16.2838 14.4366 16.3228 14.5103L17.3701 16.4749C17.3831 16.5096 17.3831 16.5443 17.3701 16.579L16.2903 18.6087C16.2512 18.6824 16.2534 18.7561 16.2968 18.8298Z" fill="currentColor"/>
</svg>
