<svg width="24" height="24" viewBox="0 0 24 24" fill="none" xmlns="http://www.w3.org/2000/svg">
<path fill-rule="evenodd" clip-rule="evenodd" d="M3 20V4C3 2.34315 4.34315 1 6 1H13.7564C14.2919 1 14.805 1.21471 15.1808 1.59605L20.4244 6.91602C20.7932 7.29023 21 7.79454 21 8.31997V20C21 21.6569 19.6569 23 18 23H6C4.34315 23 3 21.6569 3 20ZM15 6V3L19 7H16C15.4477 7 15 6.55228 15 6ZM4.96742 18.614L4.0066 14.2657C3.9879 14.1675 4.00894 14.0787 4.06972 13.9992C4.1305 13.9197 4.21232 13.88 4.31518 13.88H4.72897C4.84585 13.88 4.94638 13.9174 5.03054 13.9922C5.11937 14.067 5.17314 14.1605 5.19184 14.2727L5.77394 17.7794C5.77394 17.7841 5.77628 17.7864 5.78096 17.7864C5.78563 17.7864 5.78797 17.7841 5.78797 17.7794L6.32799 14.2727C6.34669 14.1605 6.39812 14.067 6.48228 13.9922C6.56644 13.9174 6.66697 13.88 6.78385 13.88H7.4431C7.55999 13.88 7.66051 13.9174 7.74467 13.9922C7.82883 14.067 7.88026 14.1605 7.89896 14.2727L8.43898 17.7794C8.43898 17.7841 8.44132 17.7864 8.446 17.7864C8.45067 17.7864 8.45301 17.7841 8.45301 17.7794L9.03511 14.2727C9.05381 14.1605 9.10524 14.067 9.1894 13.9922C9.27824 13.9174 9.3811 13.88 9.49799 13.88H9.88372C9.98658 13.88 10.0684 13.9197 10.1292 13.9992C10.1946 14.0787 10.2157 14.1675 10.1923 14.2657L9.23148 18.614C9.20811 18.7262 9.14966 18.8197 9.05615 18.8945C8.96732 18.9646 8.86446 18.9997 8.74757 18.9997H8.15144C8.03455 18.9997 7.93169 18.9623 7.84286 18.8875C7.7587 18.8127 7.70727 18.7192 7.68856 18.6069L7.10646 15.1003C7.10646 15.0956 7.10413 15.0933 7.09945 15.0933C7.09477 15.0933 7.09244 15.0956 7.09244 15.1003L6.51034 18.6069C6.49163 18.7192 6.43787 18.8127 6.34903 18.8875C6.26487 18.9623 6.16435 18.9997 6.04746 18.9997H5.45133C5.33445 18.9997 5.22925 18.9646 5.13574 18.8945C5.0469 18.8197 4.9908 18.7262 4.96742 18.614ZM12.8573 14.918L12.3103 16.9308C12.3103 16.9448 12.315 16.9588 12.3243 16.9729C12.3337 16.9822 12.3454 16.9869 12.3594 16.9869H13.3693C13.3833 16.9869 13.395 16.9822 13.4044 16.9729C13.4184 16.9588 13.4231 16.9448 13.4184 16.9308L12.8714 14.918C12.8714 14.9133 12.869 14.911 12.8644 14.911C12.8597 14.911 12.8573 14.9133 12.8573 14.918ZM10.9147 18.9997C10.8165 18.9997 10.7393 18.9599 10.6832 18.8805C10.6271 18.801 10.6154 18.7145 10.6482 18.621L12.1209 14.2587C12.163 14.1465 12.2308 14.0553 12.3243 13.9852C12.4225 13.9151 12.5301 13.88 12.6469 13.88H13.1098C13.2314 13.88 13.3389 13.9151 13.4324 13.9852C13.5306 14.0553 13.5984 14.1465 13.6358 14.2587L15.1156 18.621C15.1483 18.7145 15.1343 18.801 15.0735 18.8805C15.0174 18.9599 14.9403 18.9997 14.8421 18.9997H14.3722C14.26 18.9997 14.1548 18.9646 14.0566 18.8945C13.9631 18.8197 13.9 18.7262 13.8673 18.614L13.6919 17.9477C13.6872 17.9103 13.6615 17.8916 13.6148 17.8916H12.1139C12.0719 17.8916 12.0461 17.9103 12.0368 17.9477L11.8615 18.614C11.8334 18.7262 11.7703 18.8197 11.6721 18.8945C11.5786 18.9646 11.4734 18.9997 11.3565 18.9997H10.9147ZM15.5084 14.2587L16.9882 18.621C17.0256 18.7332 17.0934 18.8244 17.1915 18.8945C17.2897 18.9646 17.3973 18.9997 17.5141 18.9997H17.977C18.0986 18.9997 18.2061 18.9646 18.2996 18.8945C18.3978 18.8244 18.4656 18.7332 18.503 18.621L19.9828 14.2587C20.0155 14.1652 20.0015 14.0787 19.9407 13.9992C19.8846 13.9197 19.8075 13.88 19.7093 13.88H19.2675C19.1506 13.88 19.0454 13.9174 18.9519 13.9922C18.8584 14.0623 18.7952 14.1535 18.7625 14.2657L17.7526 17.8495C17.7526 17.8542 17.7503 17.8565 17.7456 17.8565C17.7409 17.8565 17.7386 17.8542 17.7386 17.8495L16.7567 14.2657C16.724 14.1535 16.6609 14.0623 16.5674 13.9922C16.4738 13.9174 16.3686 13.88 16.2518 13.88H15.7819C15.6837 13.88 15.6042 13.9197 15.5434 13.9992C15.4873 14.0787 15.4756 14.1652 15.5084 14.2587Z" fill="currentColor"/>
</svg>
