<svg width="24" height="24" viewBox="0 0 24 24" fill="none" xmlns="http://www.w3.org/2000/svg">
<path fill-rule="evenodd" clip-rule="evenodd" d="M3 20V4C3 2.34315 4.34315 1 6 1H13.7564C14.2919 1 14.805 1.21471 15.1808 1.59605L20.4244 6.91602C20.7932 7.29023 21 7.79454 21 8.31997V20C21 21.6569 19.6569 23 18 23H6C4.34315 23 3 21.6569 3 20ZM15 6V3L19 7H16C15.4477 7 15 6.55228 15 6ZM12.1866 14.9572V16.4366C12.1866 16.4683 12.207 16.4886 12.2477 16.4977C12.4015 16.5158 12.5237 16.5248 12.6142 16.5248C12.9399 16.5248 13.191 16.4502 13.3674 16.3009C13.5484 16.1471 13.6389 15.9344 13.6389 15.663C13.6389 15.1246 13.2973 14.8554 12.6142 14.8554C12.501 14.8554 12.3766 14.8667 12.2409 14.8893C12.2047 14.8984 12.1866 14.921 12.1866 14.9572ZM11.4401 19.0018C11.3361 19.0018 11.2456 18.9633 11.1687 18.8864C11.0918 18.8095 11.0533 18.719 11.0533 18.615V14.4686C11.0533 14.36 11.0895 14.2627 11.1619 14.1768C11.2343 14.0908 11.3248 14.0433 11.4333 14.0343C11.8179 13.9981 12.1889 13.98 12.5463 13.98C13.994 13.98 14.7179 14.5184 14.7179 15.5951C14.7179 16.1787 14.5482 16.6221 14.2089 16.9252C13.8741 17.2238 13.381 17.3731 12.7295 17.3731C12.5576 17.3731 12.397 17.3663 12.2477 17.3527C12.207 17.3527 12.1866 17.3708 12.1866 17.407V18.615C12.1866 18.719 12.1482 18.8095 12.0713 18.8864C11.9943 18.9633 11.9039 19.0018 11.7998 19.0018H11.4401ZM5.38682 19.0018C5.28276 19.0018 5.19228 18.9633 5.11537 18.8864C5.03846 18.8095 5 18.719 5 18.615V14.4347C5 14.3306 5.03846 14.2401 5.11537 14.1632C5.19228 14.0863 5.28276 14.0478 5.38682 14.0478H5.79399C5.90709 14.0478 6.01341 14.0818 6.11294 14.1496C6.21247 14.213 6.28712 14.2967 6.33689 14.4007L7.49055 16.9591C7.49055 16.9637 7.49281 16.9659 7.49733 16.9659C7.50186 16.9659 7.50412 16.9637 7.50412 16.9591L8.65778 14.4007C8.70755 14.2967 8.78219 14.213 8.88173 14.1496C8.98126 14.0818 9.08757 14.0478 9.20068 14.0478H9.635C9.73905 14.0478 9.82954 14.0863 9.90645 14.1632C9.98336 14.2401 10.0218 14.3306 10.0218 14.4347V18.615C10.0218 18.719 9.98336 18.8095 9.90645 18.8864C9.82954 18.9633 9.73905 19.0018 9.635 19.0018H9.2889C9.18484 19.0018 9.09436 18.9633 9.01745 18.8864C8.94054 18.8095 8.90208 18.719 8.90208 18.615V15.9751C8.90208 15.9706 8.89982 15.9683 8.8953 15.9683C8.89077 15.9683 8.88851 15.9706 8.88851 15.9751L8.17596 17.5224C8.13072 17.6264 8.05833 17.7101 7.9588 17.7735C7.85927 17.8368 7.75069 17.8685 7.63306 17.8685H7.36161C7.24398 17.8685 7.1354 17.8368 7.03587 17.7735C6.93634 17.7101 6.86395 17.6264 6.81871 17.5224L6.10616 15.9751C6.10616 15.9706 6.10389 15.9683 6.09937 15.9683C6.09485 15.9683 6.09258 15.9706 6.09258 15.9751V18.615C6.09258 18.719 6.05413 18.8095 5.97722 18.8864C5.90031 18.9633 5.80982 19.0018 5.70577 19.0018H5.38682ZM15.9937 17.1424V17.1356L17.1609 15.4526C17.1609 15.4481 17.1655 15.4458 17.1745 15.4458C17.179 15.4458 17.1813 15.4481 17.1813 15.4526V17.0949C17.1813 17.1311 17.1609 17.1492 17.1202 17.1492H16.0005C15.996 17.1492 15.9937 17.1469 15.9937 17.1424ZM15.0843 17.9364C15.1613 18.0133 15.2517 18.0517 15.3558 18.0517H17.1202C17.1609 18.0517 17.1813 18.0721 17.1813 18.1128V18.615C17.1813 18.719 17.2175 18.8095 17.2899 18.8864C17.3668 18.9633 17.4573 19.0018 17.5613 19.0018H17.9006C18.0047 19.0018 18.0929 18.9633 18.1653 18.8864C18.2422 18.8095 18.2807 18.719 18.2807 18.615V18.1128C18.2807 18.0721 18.301 18.0517 18.3417 18.0517H18.6132C18.7172 18.0517 18.8077 18.0133 18.8846 17.9364C18.9615 17.8594 19 17.769 19 17.6649V17.536C19 17.4319 18.9615 17.3414 18.8846 17.2645C18.8077 17.1876 18.7172 17.1492 18.6132 17.1492H18.3417C18.301 17.1492 18.2807 17.1311 18.2807 17.0949V14.4347C18.2807 14.3306 18.2422 14.2401 18.1653 14.1632C18.0929 14.0863 18.0047 14.0478 17.9006 14.0478H17.5613C17.308 14.0478 17.1066 14.1519 16.9573 14.36L15.1997 16.837C15.0504 17.0496 14.9758 17.2826 14.9758 17.536V17.6649C14.9758 17.769 15.012 17.8594 15.0843 17.9364Z" fill="currentColor"/>
</svg>
