<svg width="24" height="24" viewBox="0 0 24 24" fill="none" xmlns="http://www.w3.org/2000/svg">
<path fill-rule="evenodd" clip-rule="evenodd" d="M3 20V4C3 2.34315 4.34315 1 6 1H13.7564C14.2919 1 14.805 1.21471 15.1808 1.59605L20.4244 6.91602C20.7932 7.29023 21 7.79454 21 8.31997V20C21 21.6569 19.6569 23 18 23H6C4.34315 23 3 21.6569 3 20ZM15 6V3L19 7H16C15.4477 7 15 6.55228 15 6ZM6.09405 14.1676V15.7243C6.09405 15.773 6.11568 15.7973 6.15892 15.7973H6.54811C6.92649 15.7973 7.21568 15.7189 7.41568 15.5622C7.61568 15.4 7.71568 15.1757 7.71568 14.8892C7.71568 14.327 7.34541 14.0459 6.60486 14.0459C6.4373 14.0459 6.29135 14.0568 6.16703 14.0784C6.11838 14.0892 6.09405 14.1189 6.09405 14.1676ZM5.20216 19C5.07784 19 4.96973 18.9541 4.87784 18.8622C4.78595 18.7703 4.74 18.6622 4.74 18.5378V13.5838C4.74 13.4486 4.78324 13.3324 4.86973 13.2351C4.96162 13.1378 5.07243 13.0838 5.20216 13.073C5.68324 13.0243 6.17784 13 6.68595 13C7.49676 13 8.09946 13.1541 8.49405 13.4622C8.89405 13.7649 9.09405 14.1973 9.09405 14.7595C9.09405 15.1216 8.98865 15.4486 8.77784 15.7405C8.56703 16.027 8.29135 16.2324 7.95081 16.3568C7.94541 16.3568 7.9427 16.3595 7.9427 16.3649C7.9427 16.3757 7.94811 16.3811 7.95892 16.3811C8.22378 16.5324 8.44811 16.8514 8.63189 17.3378L9.09405 18.5703C9.13189 18.673 9.11838 18.7703 9.05351 18.8622C8.98865 18.9541 8.90216 19 8.79405 19H8.29946C8.15892 19 8.03189 18.9595 7.91838 18.8784C7.80486 18.7973 7.72649 18.6919 7.68324 18.5622L7.27784 17.3946C7.20216 17.1676 7.11027 17.0135 7.00216 16.9324C6.89405 16.8514 6.72649 16.8108 6.49946 16.8108H6.15892C6.11568 16.8108 6.09405 16.8351 6.09405 16.8838V18.5378C6.09405 18.6622 6.04811 18.7703 5.95622 18.8622C5.86432 18.9541 5.75622 19 5.63189 19H5.20216ZM10.2859 14.2243C10.1616 14.2243 10.0535 14.1784 9.96162 14.0865C9.86973 13.9946 9.82378 13.8865 9.82378 13.7622V13.5432C9.82378 13.4189 9.86973 13.3108 9.96162 13.2189C10.0535 13.127 10.1616 13.0811 10.2859 13.0811H14.0643C14.1886 13.0811 14.2968 13.127 14.3886 13.2189C14.4805 13.3108 14.5265 13.4189 14.5265 13.5432V13.7622C14.5265 13.8865 14.4805 13.9946 14.3886 14.0865C14.2968 14.1784 14.1886 14.2243 14.0643 14.2243H12.9454C12.9022 14.2243 12.8805 14.2459 12.8805 14.2892V18.5378C12.8805 18.6622 12.8346 18.7703 12.7427 18.8622C12.6508 18.9541 12.5427 19 12.4184 19H11.9319C11.8076 19 11.6995 18.9541 11.6076 18.8622C11.5157 18.7703 11.4697 18.6622 11.4697 18.5378V14.2892C11.4697 14.2459 11.4481 14.2243 11.4049 14.2243H10.2859ZM15.6941 18.8622C15.7859 18.9541 15.8941 19 16.0184 19H16.4805C16.6049 19 16.7103 18.9541 16.7968 18.8622C16.8886 18.7703 16.9346 18.6622 16.9346 18.5378V16.6486C16.9346 16.6 16.9589 16.5757 17.0076 16.5757H18.6373C18.7616 16.5757 18.8697 16.5324 18.9616 16.4459C19.0535 16.3541 19.0995 16.2459 19.0995 16.1216V15.9919C19.0995 15.8676 19.0535 15.7622 18.9616 15.6757C18.8697 15.5838 18.7616 15.5378 18.6373 15.5378H17.0076C16.9589 15.5378 16.9346 15.5135 16.9346 15.4649V14.2568C16.9346 14.2135 16.9589 14.1919 17.0076 14.1919H18.7995C18.9238 14.1919 19.0319 14.1459 19.1238 14.0541C19.2157 13.9622 19.2616 13.8541 19.2616 13.7297V13.5432C19.2616 13.4189 19.2157 13.3108 19.1238 13.2189C19.0319 13.127 18.9238 13.0811 18.7995 13.0811H16.0184C15.8941 13.0811 15.7859 13.127 15.6941 13.2189C15.6022 13.3108 15.5562 13.4189 15.5562 13.5432V18.5378C15.5562 18.6622 15.6022 18.7703 15.6941 18.8622Z" fill="currentColor"/>
</svg>
