<svg width="24" height="24" viewBox="0 0 24 24" fill="none" xmlns="http://www.w3.org/2000/svg">
<path fill-rule="evenodd" clip-rule="evenodd" d="M3 20V4C3 2.34315 4.34315 1 6 1H13.7564C14.2919 1 14.805 1.21471 15.1808 1.59605L20.4244 6.91602C20.7932 7.29023 21 7.79454 21 8.31997V20C21 21.6569 19.6569 23 18 23H6C4.34315 23 3 21.6569 3 20ZM15 6V3L19 7H16C15.4477 7 15 6.55228 15 6ZM8.652 19C7.68133 19 6.90533 18.7307 6.324 18.192C5.748 17.648 5.46 16.9173 5.46 16C5.46 15.072 5.74 14.3413 6.3 13.808C6.86 13.2693 7.63333 13 8.62 13C9.20133 13 9.716 13.104 10.164 13.312C10.2813 13.3653 10.3613 13.456 10.404 13.584C10.4467 13.712 10.444 13.8373 10.396 13.96L10.34 14.088C10.2973 14.1947 10.22 14.2693 10.108 14.312C9.996 14.3547 9.88667 14.352 9.78 14.304C9.46 14.1547 9.11867 14.08 8.756 14.08C8.15333 14.08 7.684 14.2507 7.348 14.592C7.012 14.928 6.844 15.3973 6.844 16C6.844 16.5973 7.01733 17.0667 7.364 17.408C7.716 17.7493 8.188 17.92 8.78 17.92C9.03067 17.92 9.24933 17.888 9.436 17.824C9.47867 17.808 9.5 17.7787 9.5 17.736V16.464C9.5 16.4213 9.47867 16.4 9.436 16.4H8.54C8.41733 16.4 8.31067 16.3547 8.22 16.264C8.13467 16.1733 8.092 16.0667 8.092 15.944V15.824C8.092 15.7013 8.13467 15.5947 8.22 15.504C8.31067 15.4133 8.41733 15.368 8.54 15.368H10.34C10.4627 15.368 10.5693 15.4133 10.66 15.504C10.7507 15.5947 10.796 15.7013 10.796 15.824V18.136C10.796 18.2747 10.756 18.4027 10.676 18.52C10.6013 18.632 10.5 18.7067 10.372 18.744C9.828 18.9147 9.25467 19 8.652 19ZM12.5 18.92C12.3773 18.92 12.2707 18.8747 12.18 18.784C12.0947 18.6933 12.052 18.5867 12.052 18.464V13.536C12.052 13.4133 12.0947 13.3067 12.18 13.216C12.2707 13.1253 12.3773 13.08 12.5 13.08H13.092C13.2147 13.08 13.3187 13.1253 13.404 13.216C13.4947 13.3067 13.54 13.4133 13.54 13.536V18.464C13.54 18.5867 13.4947 18.6933 13.404 18.784C13.3187 18.8747 13.2147 18.92 13.092 18.92H12.5ZM15.012 18.784C15.1027 18.8747 15.2093 18.92 15.332 18.92H15.788C15.9107 18.92 16.0147 18.8747 16.1 18.784C16.1907 18.6933 16.236 18.5867 16.236 18.464V16.6C16.236 16.552 16.26 16.528 16.308 16.528H17.916C18.0387 16.528 18.1453 16.4853 18.236 16.4C18.3267 16.3093 18.372 16.2027 18.372 16.08V15.952C18.372 15.8293 18.3267 15.7253 18.236 15.64C18.1453 15.5493 18.0387 15.504 17.916 15.504H16.308C16.26 15.504 16.236 15.48 16.236 15.432V14.24C16.236 14.1973 16.26 14.176 16.308 14.176H18.076C18.1987 14.176 18.3053 14.1307 18.396 14.04C18.4867 13.9493 18.532 13.8427 18.532 13.72V13.536C18.532 13.4133 18.4867 13.3067 18.396 13.216C18.3053 13.1253 18.1987 13.08 18.076 13.08H15.332C15.2093 13.08 15.1027 13.1253 15.012 13.216C14.9213 13.3067 14.876 13.4133 14.876 13.536V18.464C14.876 18.5867 14.9213 18.6933 15.012 18.784Z" fill="currentColor"/>
</svg>
