<svg width="24" height="24" viewBox="0 0 24 24" fill="none" xmlns="http://www.w3.org/2000/svg">
<path fill-rule="evenodd" clip-rule="evenodd" d="M3 4V20C3 21.6569 4.34315 23 6 23H18C19.6569 23 21 21.6569 21 20V8.31997C21 7.79454 20.7932 7.29023 20.4244 6.91602L15.1808 1.59605C14.805 1.21471 14.2919 1 13.7564 1H6C4.34315 1 3 2.34315 3 4ZM15 3V6C15 6.55228 15.4477 7 16 7H19L15 3ZM11 16C11 17.1046 10.1046 18 9 18C7.89543 18 7 17.1046 7 16C7 14.8954 7.89543 14 9 14V10.0233C8.99858 9.96262 9.00272 9.90121 9.01276 9.83979C9.0558 9.57254 9.20474 9.34072 9.41517 9.18875C9.53213 9.10429 9.66808 9.0445 9.8154 9.017C9.92721 8.9959 10.0437 8.99371 10.1602 9.01276C10.2216 9.02266 10.2812 9.03815 10.3384 9.05869L16.3162 11.0513C16.7246 11.1874 17 11.5696 17 12V19C17 20.1046 16.1046 21 15 21C13.8954 21 13 20.1046 13 19C13 17.8954 13.8954 17 15 17V12.7208L11 11.3874V16Z" fill="currentColor"/>
</svg>
