<svg width="24" height="24" viewBox="0 0 24 24" fill="none" xmlns="http://www.w3.org/2000/svg">
<path fill-rule="evenodd" clip-rule="evenodd" d="M3 4V20C3 21.6569 4.34315 23 6 23H18C19.6569 23 21 21.6569 21 20V8.31997C21 7.79454 20.7932 7.29023 20.4244 6.91602L15.1808 1.59605C14.805 1.21471 14.2919 1 13.7564 1H6C4.34315 1 3 2.34315 3 4ZM19 7L15 3V6C15 6.55228 15.4477 7 16 7H19ZM7.5 21C8.88071 21 10 20.1046 10 19C10 17.8954 8.88071 15 7.5 15C6.11929 15 5 17.8954 5 19C5 20.1046 6.11929 21 7.5 21ZM7.5 20C8.05228 20 8.5 19.5523 8.5 19C8.5 18.4477 8.05228 18 7.5 18C6.94772 18 6.5 18.4477 6.5 19C6.5 19.5523 6.94772 20 7.5 20ZM7.5 14C8.32843 14 9 13.3284 9 12.5C9 11.6716 8.32843 11 7.5 11C6.67157 11 6 11.6716 6 12.5C6 13.3284 6.67157 14 7.5 14ZM9 8.5C9 9.32843 8.32843 10 7.5 10C6.67157 10 6 9.32843 6 8.5C6 7.67157 6.67157 7 7.5 7C8.32843 7 9 7.67157 9 8.5ZM7.5 6C8.32843 6 9 5.32843 9 4.5C9 3.67157 8.32843 3 7.5 3C6.67157 3 6 3.67157 6 4.5C6 5.32843 6.67157 6 7.5 6Z" fill="currentColor"/>
</svg>
