<svg width="24" height="24" viewBox="0 0 24 24" fill="none" xmlns="http://www.w3.org/2000/svg">
<path fill-rule="evenodd" clip-rule="evenodd" d="M3 20V4C3 2.34315 4.34315 1 6 1H13.7564C14.2919 1 14.805 1.21471 15.1808 1.59605L20.4244 6.91602C20.7932 7.29023 21 7.79454 21 8.31997V20C21 21.6569 19.6569 23 18 23H6C4.34315 23 3 21.6569 3 20ZM15 6V3L19 7H16C15.4477 7 15 6.55228 15 6ZM6.16849 14.1589C6.04247 14.1589 5.93288 14.1123 5.83973 14.0192C5.74658 13.926 5.7 13.8164 5.7 13.6904V13.4685C5.7 13.3425 5.74658 13.2329 5.83973 13.1397C5.93288 13.0466 6.04247 13 6.16849 13H9.99863C10.1247 13 10.2342 13.0466 10.3274 13.1397C10.4205 13.2329 10.4671 13.3425 10.4671 13.4685V13.6904C10.4671 13.8164 10.4205 13.926 10.3274 14.0192C10.2342 14.1123 10.1247 14.1589 9.99863 14.1589H8.86438C8.82055 14.1589 8.79863 14.1808 8.79863 14.2247V18.5315C8.79863 18.6575 8.75205 18.7671 8.6589 18.8603C8.56575 18.9534 8.45616 19 8.33014 19H7.83699C7.71096 19 7.60137 18.9534 7.50822 18.8603C7.41507 18.7671 7.36849 18.6575 7.36849 18.5315V14.2247C7.36849 14.1808 7.34658 14.1589 7.30274 14.1589H6.16849ZM12.0945 19C11.9685 19 11.8589 18.9534 11.7658 18.8603C11.6781 18.7671 11.6342 18.6575 11.6342 18.5315V13.4685C11.6342 13.3425 11.6781 13.2329 11.7658 13.1397C11.8589 13.0466 11.9685 13 12.0945 13H12.7027C12.8288 13 12.9356 13.0466 13.0233 13.1397C13.1164 13.2329 13.163 13.3425 13.163 13.4685V18.5315C13.163 18.6575 13.1164 18.7671 13.0233 18.8603C12.9356 18.9534 12.8288 19 12.7027 19H12.0945ZM14.6753 18.8603C14.7685 18.9534 14.8781 19 15.0041 19H15.4726C15.5986 19 15.7055 18.9534 15.7932 18.8603C15.8863 18.7671 15.9329 18.6575 15.9329 18.5315V16.6164C15.9329 16.5671 15.9575 16.5425 16.0068 16.5425H17.6589C17.7849 16.5425 17.8945 16.4986 17.9877 16.411C18.0808 16.3178 18.1274 16.2082 18.1274 16.0822V15.9507C18.1274 15.8247 18.0808 15.7178 17.9877 15.6301C17.8945 15.537 17.7849 15.4904 17.6589 15.4904H16.0068C15.9575 15.4904 15.9329 15.4658 15.9329 15.4164V14.1918C15.9329 14.1479 15.9575 14.126 16.0068 14.126H17.8233C17.9493 14.126 18.0589 14.0795 18.1521 13.9863C18.2452 13.8932 18.2918 13.7836 18.2918 13.6575V13.4685C18.2918 13.3425 18.2452 13.2329 18.1521 13.1397C18.0589 13.0466 17.9493 13 17.8233 13H15.0041C14.8781 13 14.7685 13.0466 14.6753 13.1397C14.5822 13.2329 14.5356 13.3425 14.5356 13.4685V18.5315C14.5356 18.6575 14.5822 18.7671 14.6753 18.8603Z" fill="currentColor"/>
</svg>
