<svg width="24" height="24" viewBox="0 0 24 24" fill="none" xmlns="http://www.w3.org/2000/svg">
<path fill-rule="evenodd" clip-rule="evenodd" d="M3 20V4C3 2.34315 4.34315 1 6 1H13.7564C14.2919 1 14.805 1.21471 15.1808 1.59605L20.4244 6.91602C20.7932 7.29023 21 7.79454 21 8.31997V20C21 21.6569 19.6569 23 18 23H6C4.34315 23 3 21.6569 3 20ZM15 6V3L19 7H16C15.4477 7 15 6.55228 15 6ZM14.9226 15.8848C15.234 16.1806 15.7453 16.4323 16.4563 16.6399C16.7366 16.723 16.9312 16.8164 17.0402 16.9202C17.1544 17.024 17.2115 17.159 17.2115 17.325C17.2115 17.5275 17.1414 17.6858 17.0013 17.7999C16.8663 17.9089 16.6639 17.9634 16.394 17.9634C15.984 17.9634 15.561 17.8544 15.125 17.6365C15.0264 17.5846 14.9252 17.5794 14.8214 17.6209C14.7176 17.6624 14.6501 17.7351 14.619 17.8389L14.5645 18.0335C14.523 18.1581 14.5256 18.2826 14.5723 18.4072C14.6242 18.5266 14.7098 18.6122 14.8292 18.6641C15.3275 18.8873 15.8309 18.9989 16.3395 18.9989C17.0714 18.9989 17.6241 18.8536 17.9978 18.5629C18.3715 18.2723 18.5583 17.8518 18.5583 17.3017C18.5583 16.8346 18.4 16.4531 18.0834 16.1572C17.772 15.8614 17.2297 15.6071 16.4563 15.3943C16.0203 15.2697 15.8024 15.0621 15.8024 14.7715C15.8024 14.595 15.8724 14.4549 16.0126 14.3511C16.1527 14.2473 16.3577 14.1954 16.6276 14.1954C17.0428 14.1954 17.4269 14.2602 17.7798 14.39C17.8888 14.4315 17.9926 14.4263 18.0912 14.3744C18.195 14.3225 18.2599 14.2421 18.2859 14.1331L18.3248 13.9618C18.3559 13.8372 18.343 13.7179 18.2859 13.6037C18.2288 13.4895 18.1405 13.4142 18.0212 13.3779C17.5748 13.2326 17.0921 13.1599 16.5731 13.1599C15.9036 13.1599 15.3845 13.3052 15.016 13.5959C14.6475 13.8865 14.4633 14.2784 14.4633 14.7715C14.4633 15.2126 14.6164 15.5837 14.9226 15.8848ZM4.8251 18.921C4.72648 18.921 4.65123 18.8795 4.59932 18.7965C4.54742 18.7082 4.54483 18.62 4.59154 18.5318L5.8839 16.1028C5.89947 16.0612 5.89947 16.0197 5.8839 15.9782L4.63047 13.627C4.58375 13.5388 4.58635 13.4532 4.63825 13.3701C4.69015 13.2819 4.76541 13.2378 4.86402 13.2378H5.43235C5.5673 13.2378 5.69186 13.2767 5.80604 13.3545C5.92023 13.4272 6.00327 13.5232 6.05517 13.6426L6.80256 15.2697C6.80256 15.2749 6.80516 15.2775 6.81035 15.2775C6.81554 15.2775 6.81813 15.2749 6.81813 15.2697L7.56552 13.6426C7.62261 13.5232 7.70825 13.4272 7.82243 13.3545C7.93662 13.2767 8.05859 13.2378 8.18834 13.2378H8.72553C8.82933 13.2378 8.90459 13.2819 8.9513 13.3701C9.0032 13.4532 9.0058 13.5388 8.95909 13.627L7.70566 15.9782C7.69008 16.0197 7.69008 16.0612 7.70566 16.1028L8.99801 18.5318C9.04473 18.62 9.04213 18.7082 8.99023 18.7965C8.94352 18.8795 8.86826 18.921 8.76446 18.921H8.16499C8.03523 18.921 7.91326 18.8847 7.79908 18.812C7.68489 18.7342 7.59926 18.6356 7.54216 18.5162L6.78699 16.8112C6.78699 16.806 6.7844 16.8034 6.77921 16.8034C6.77402 16.8034 6.77142 16.806 6.77142 16.8112L6.01625 18.5162C5.96435 18.6356 5.8813 18.7342 5.76712 18.812C5.65293 18.8847 5.52837 18.921 5.39342 18.921H4.8251ZM10.3449 18.921C10.2255 18.921 10.1217 18.8769 10.0335 18.7887C9.94522 18.7004 9.90111 18.5966 9.90111 18.4773V13.6815C9.90111 13.5622 9.94522 13.4583 10.0335 13.3701C10.1217 13.2819 10.2255 13.2378 10.3449 13.2378H10.8276C10.9469 13.2378 11.0481 13.2819 11.1312 13.3701C11.2194 13.4583 11.2635 13.5622 11.2635 13.6815V17.761C11.2635 17.8025 11.2869 17.8233 11.3336 17.8233H13.2254C13.3448 17.8233 13.4486 17.8674 13.5368 17.9557C13.6251 18.0439 13.6692 18.1477 13.6692 18.2671V18.4773C13.6692 18.5966 13.6251 18.7004 13.5368 18.7887C13.4486 18.8769 13.3448 18.921 13.2254 18.921H10.3449Z" fill="currentColor"/>
</svg>
