<svg width="24" height="24" viewBox="0 0 24 24" fill="none" xmlns="http://www.w3.org/2000/svg">
<path fill-rule="evenodd" clip-rule="evenodd" d="M3 20V4C3 2.34315 4.34315 1 6 1H13.7564C14.2919 1 14.805 1.21471 15.1808 1.59605L20.4244 6.91602C20.7932 7.29023 21 7.79454 21 8.31997V20C21 21.6569 19.6569 23 18 23H6C4.34315 23 3 21.6569 3 20ZM15 6V3L19 7H16C15.4477 7 15 6.55228 15 6ZM8.00806 16.5891C8.24911 16.8181 8.64482 17.013 9.19521 17.1736C9.41215 17.2379 9.5628 17.3102 9.64716 17.3906C9.73555 17.4709 9.77974 17.5754 9.77974 17.7039C9.77974 17.8606 9.7255 17.9832 9.61703 18.0715C9.51258 18.1559 9.3559 18.1981 9.147 18.1981C8.82962 18.1981 8.5022 18.1137 8.16474 17.945C8.08841 17.9048 8.01007 17.9008 7.92973 17.9329C7.84938 17.9651 7.79715 18.0213 7.77305 18.1017L7.73086 18.2523C7.69872 18.3487 7.70073 18.4452 7.73689 18.5416C7.77706 18.634 7.84335 18.7003 7.93575 18.7404C8.32142 18.9132 8.71111 18.9996 9.10481 18.9996C9.67127 18.9996 10.0991 18.8871 10.3884 18.6621C10.6776 18.4371 10.8223 18.1117 10.8223 17.6859C10.8223 17.3243 10.6997 17.029 10.4547 16.8C10.2136 16.571 9.7938 16.3742 9.19521 16.2095C8.85774 16.1131 8.68901 15.9524 8.68901 15.7274C8.68901 15.5908 8.74325 15.4823 8.85172 15.402C8.96019 15.3216 9.11888 15.2815 9.32778 15.2815C9.64917 15.2815 9.94646 15.3317 10.2196 15.4321C10.304 15.4642 10.3844 15.4602 10.4607 15.4201C10.541 15.3799 10.5913 15.3176 10.6113 15.2332L10.6415 15.1007C10.6656 15.0043 10.6555 14.9119 10.6113 14.8235C10.5671 14.7351 10.4989 14.6768 10.4065 14.6487C10.061 14.5362 9.68734 14.48 9.2856 14.48C8.76735 14.48 8.36561 14.5925 8.08038 14.8174C7.79514 15.0424 7.65252 15.3457 7.65252 15.7274C7.65252 16.0689 7.77104 16.3561 8.00806 16.5891ZM4.04289 18.65C4.08708 18.7384 4.15538 18.8007 4.24778 18.8368C4.529 18.9453 4.82628 18.9996 5.13964 18.9996C5.78644 18.9996 6.24844 18.861 6.52564 18.5838C6.80686 18.3025 6.94747 17.8184 6.94747 17.1315V14.8837C6.94747 14.7913 6.91332 14.711 6.84503 14.6427C6.78075 14.5744 6.70241 14.5402 6.61001 14.5402H6.23639C6.13997 14.5402 6.05762 14.5744 5.98932 14.6427C5.92504 14.711 5.8929 14.7913 5.8929 14.8837V17.0109C5.8929 17.3203 5.86478 17.5593 5.80854 17.728C5.75229 17.8968 5.66994 18.0133 5.56147 18.0776C5.453 18.1418 5.30034 18.174 5.10348 18.174C4.91065 18.174 4.68568 18.1218 4.42856 18.0173C4.34821 17.9852 4.26787 17.9872 4.18752 18.0233C4.11119 18.0595 4.06499 18.1197 4.04892 18.2041L4.01276 18.3668C3.98866 18.4632 3.9987 18.5576 4.04289 18.65ZM14.4138 15.6852C14.2089 15.4442 13.9197 15.3236 13.546 15.3236C13.1724 15.3236 12.8812 15.4442 12.6723 15.6852C12.4674 15.9262 12.3649 16.2778 12.3649 16.7398C12.3649 17.2018 12.4674 17.5533 12.6723 17.7943C12.8812 18.0354 13.1724 18.1559 13.546 18.1559C13.9197 18.1559 14.2089 18.0354 14.4138 17.7943C14.6227 17.5533 14.7272 17.2018 14.7272 16.7398C14.7272 16.2778 14.6227 15.9262 14.4138 15.6852ZM15.1671 18.3909C14.7653 18.7967 14.225 18.9996 13.546 18.9996C12.8671 18.9996 12.3248 18.7967 11.919 18.3909C11.5173 17.9852 11.3164 17.4348 11.3164 16.7398C11.3164 16.0448 11.5173 15.4944 11.919 15.0886C12.3248 14.6829 12.8671 14.48 13.546 14.48C14.225 14.48 14.7653 14.6829 15.1671 15.0886C15.5728 15.4944 15.7757 16.0448 15.7757 16.7398C15.7757 17.4348 15.5728 17.9852 15.1671 18.3909ZM16.5229 18.8368C16.5912 18.9051 16.6716 18.9393 16.764 18.9393H17.0834C17.1758 18.9393 17.2541 18.9051 17.3184 18.8368C17.3867 18.7686 17.4208 18.6882 17.4208 18.5958V16.2456C17.4208 16.2416 17.4228 16.2396 17.4269 16.2396C17.4349 16.2396 17.4389 16.2416 17.4389 16.2456L18.8249 18.644C18.9414 18.8409 19.1122 18.9393 19.3371 18.9393H19.6565C19.7489 18.9393 19.8293 18.9051 19.8976 18.8368C19.9659 18.7686 20 18.6882 20 18.5958V14.8837C20 14.7913 19.9659 14.711 19.8976 14.6427C19.8293 14.5744 19.7489 14.5402 19.6565 14.5402H19.3371C19.2447 14.5402 19.1644 14.5744 19.0961 14.6427C19.0318 14.711 18.9997 14.7913 18.9997 14.8837V17.2339C18.9997 17.2379 18.9977 17.2399 18.9936 17.2399C18.9856 17.2399 18.9816 17.2379 18.9816 17.2339L17.5956 14.8355C17.4791 14.6387 17.3083 14.5402 17.0834 14.5402H16.764C16.6716 14.5402 16.5912 14.5744 16.5229 14.6427C16.4546 14.711 16.4205 14.7913 16.4205 14.8837V18.5958C16.4205 18.6882 16.4546 18.7686 16.5229 18.8368Z" fill="currentColor"/>
</svg>
