<svg width="24" height="24" viewBox="0 0 24 24" fill="none" xmlns="http://www.w3.org/2000/svg">
<path fill-rule="evenodd" clip-rule="evenodd" d="M3 20V4C3 2.34315 4.34315 1 6 1H13.7564C14.2919 1 14.805 1.21471 15.1808 1.59605L20.4244 6.91602C20.7932 7.29023 21 7.79454 21 8.31997V20C21 21.6569 19.6569 23 18 23H6C4.34315 23 3 21.6569 3 20ZM15 6V3L19 7H16C15.4477 7 15 6.55228 15 6ZM12.3468 14.2249V15.9432C12.3468 15.9799 12.3704 16.0036 12.4177 16.0141C12.5964 16.0351 12.7383 16.0456 12.8434 16.0456C13.2217 16.0456 13.5133 15.9589 13.7182 15.7855C13.9284 15.6069 14.0335 15.3599 14.0335 15.0446C14.0335 14.4194 13.6368 14.1067 12.8434 14.1067C12.712 14.1067 12.5675 14.1199 12.4099 14.1461C12.3678 14.1566 12.3468 14.1829 12.3468 14.2249ZM11.4798 18.9225C11.3589 18.9225 11.2539 18.8778 11.1645 18.7885C11.0752 18.6992 11.0305 18.5941 11.0305 18.4732V13.6575C11.0305 13.5313 11.0726 13.4184 11.1567 13.3185C11.2407 13.2187 11.3458 13.1635 11.4719 13.153C11.9186 13.111 12.3494 13.09 12.7645 13.09C14.446 13.09 15.2867 13.7153 15.2867 14.9658C15.2867 15.6437 15.0897 16.1586 14.6956 16.5107C14.3067 16.8575 13.734 17.0309 12.9773 17.0309C12.7777 17.0309 12.5911 17.023 12.4177 17.0072C12.3704 17.0072 12.3468 17.0282 12.3468 17.0703V18.4732C12.3468 18.5941 12.3021 18.6992 12.2128 18.7885C12.1235 18.8778 12.0184 18.9225 11.8975 18.9225H11.4798ZM4.44926 18.9225C4.32841 18.9225 4.22332 18.8778 4.13399 18.7885C4.04466 18.6992 4 18.5941 4 18.4732V13.618C4 13.4972 4.04466 13.3921 4.13399 13.3028C4.22332 13.2134 4.32841 13.1688 4.44926 13.1688H4.92217C5.05353 13.1688 5.17701 13.2082 5.29261 13.287C5.40821 13.3606 5.49491 13.4578 5.55271 13.5786L6.89261 16.5501C6.89261 16.5553 6.89524 16.5579 6.90049 16.5579C6.90575 16.5579 6.90837 16.5553 6.90837 16.5501L8.24828 13.5786C8.30608 13.4578 8.39278 13.3606 8.50837 13.287C8.62397 13.2082 8.74746 13.1688 8.87882 13.1688H9.38325C9.50411 13.1688 9.6092 13.2134 9.69852 13.3028C9.78785 13.3921 9.83251 13.4972 9.83251 13.618V18.4732C9.83251 18.5941 9.78785 18.6992 9.69852 18.7885C9.6092 18.8778 9.50411 18.9225 9.38325 18.9225H8.98128C8.86043 18.9225 8.75534 18.8778 8.66601 18.7885C8.57668 18.6992 8.53202 18.5941 8.53202 18.4732V15.4072C8.53202 15.402 8.52939 15.3993 8.52414 15.3993C8.51888 15.3993 8.51626 15.402 8.51626 15.4072L7.68867 17.2043C7.63613 17.3251 7.55205 17.4223 7.43645 17.4959C7.32085 17.5694 7.19475 17.6062 7.05813 17.6062H6.74286C6.60624 17.6062 6.48013 17.5694 6.36453 17.4959C6.24893 17.4223 6.16486 17.3251 6.11232 17.2043L5.28473 15.4072C5.28473 15.402 5.2821 15.3993 5.27685 15.3993C5.27159 15.3993 5.26897 15.402 5.26897 15.4072V18.4732C5.26897 18.5941 5.2243 18.6992 5.13498 18.7885C5.04565 18.8778 4.94056 18.9225 4.8197 18.9225H4.44926ZM16.2167 14.1146C16.3061 14.2039 16.4112 14.2486 16.532 14.2486H18.3054C18.3107 14.2486 18.3133 14.2512 18.3133 14.2565V14.2643L17.1941 15.2338C16.9681 15.4282 16.8552 15.6726 16.8552 15.9668V15.9826C16.8552 16.1034 16.8998 16.2085 16.9892 16.2978C17.0785 16.3819 17.1836 16.424 17.3044 16.424C17.8351 16.4292 18.1977 16.4844 18.3921 16.5895C18.5865 16.6946 18.6837 16.8758 18.6837 17.1333C18.6837 17.3855 18.5997 17.5826 18.4315 17.7244C18.2634 17.8663 18.0269 17.9373 17.7222 17.9373C17.4174 17.9373 17.089 17.8637 16.7369 17.7166C16.6319 17.6745 16.5241 17.6772 16.4138 17.7244C16.3087 17.7665 16.2378 17.8427 16.201 17.953L16.1458 18.1264C16.1038 18.2525 16.1064 18.376 16.1537 18.4969C16.2062 18.6177 16.2929 18.7018 16.4138 18.7491C16.8499 18.9172 17.3228 19.0013 17.8325 19.0013C18.5314 19.0013 19.0673 18.8384 19.4404 18.5126C19.8135 18.1868 20 17.7192 20 17.1097C20 16.6263 19.8608 16.2427 19.5823 15.9589C19.309 15.6752 18.9438 15.5333 18.4867 15.5333H18.3921C18.3869 15.5333 18.3842 15.5307 18.3842 15.5254V15.5176L19.5744 14.5323C19.8056 14.3432 19.9212 14.0988 19.9212 13.7993V13.618C19.9212 13.4972 19.8765 13.3921 19.7872 13.3028C19.6979 13.2134 19.5928 13.1688 19.4719 13.1688H16.532C16.4112 13.1688 16.3061 13.2134 16.2167 13.3028C16.1274 13.3921 16.0828 13.4972 16.0828 13.618V13.7993C16.0828 13.9202 16.1274 14.0253 16.2167 14.1146Z" fill="currentColor"/>
</svg>
