<svg width="24" height="24" viewBox="0 0 24 24" fill="none" xmlns="http://www.w3.org/2000/svg">
<path fill-rule="evenodd" clip-rule="evenodd" d="M3 20V4C3 2.34315 4.34315 1 6 1H13.7564C14.2919 1 14.805 1.21471 15.1808 1.59605L20.4244 6.91602C20.7932 7.29023 21 7.79454 21 8.31997V20C21 21.6569 19.6569 23 18 23H6C4.34315 23 3 21.6569 3 20ZM15 6V3L19 7H16C15.4477 7 15 6.55228 15 6ZM10.5365 18.309L14.668 15.5547C15.0638 15.2908 15.0638 14.7092 14.6679 14.4453L10.5365 11.691C10.0934 11.3956 9.5 11.7132 9.5 12.2457V17.7543C9.5 18.2868 10.0934 18.6044 10.5365 18.309Z" fill="currentColor"/>
</svg>
