<svg width="24" height="24" viewBox="0 0 24 24" fill="none" xmlns="http://www.w3.org/2000/svg">
<path fill-rule="evenodd" clip-rule="evenodd" d="M3 20V4C3 2.34315 4.34315 1 6 1H13.7564C14.2919 1 14.805 1.21471 15.1808 1.59605L20.4244 6.91602C20.7932 7.29023 21 7.79454 21 8.31997V20C21 21.6569 19.6569 23 18 23H6C4.34315 23 3 21.6569 3 20ZM15 6V3L19 7H16C15.4477 7 15 6.55228 15 6ZM6.12604 14.152V15.896C6.12604 15.9333 6.15004 15.9573 6.19804 15.968C6.37937 15.9893 6.52337 16 6.63004 16C7.01404 16 7.31004 15.912 7.51804 15.736C7.73137 15.5547 7.83804 15.304 7.83804 14.984C7.83804 14.3493 7.43537 14.032 6.63004 14.032C6.49671 14.032 6.35004 14.0453 6.19004 14.072C6.14737 14.0827 6.12604 14.1093 6.12604 14.152ZM5.24604 18.92C5.12337 18.92 5.01671 18.8747 4.92604 18.784C4.83537 18.6933 4.79004 18.5867 4.79004 18.464V13.576C4.79004 13.448 4.83271 13.3333 4.91804 13.232C5.00337 13.1307 5.11004 13.0747 5.23804 13.064C5.69137 13.0213 6.12871 13 6.55004 13C8.25671 13 9.11004 13.6347 9.11004 14.904C9.11004 15.592 8.91004 16.1147 8.51004 16.472C8.11537 16.824 7.53404 17 6.76604 17C6.56337 17 6.37404 16.992 6.19804 16.976C6.15004 16.976 6.12604 16.9973 6.12604 17.04V18.464C6.12604 18.5867 6.08071 18.6933 5.99004 18.784C5.89937 18.8747 5.79271 18.92 5.67004 18.92H5.24604ZM11.262 17.816C11.262 17.864 11.2834 17.8933 11.326 17.904C11.4327 17.9253 11.5607 17.936 11.71 17.936C12.8407 17.936 13.406 17.264 13.406 15.92C13.406 14.6827 12.8407 14.064 11.71 14.064C11.5607 14.064 11.4327 14.0747 11.326 14.096C11.2834 14.1067 11.262 14.136 11.262 14.184V17.816ZM10.382 18.936C10.254 18.9253 10.1447 18.872 10.054 18.776C9.96871 18.6747 9.92604 18.5573 9.92604 18.424V13.576C9.92604 13.4427 9.96871 13.328 10.054 13.232C10.1447 13.1307 10.254 13.0747 10.382 13.064C10.798 13.0213 11.206 13 11.606 13C12.5874 13 13.3474 13.2587 13.886 13.776C14.43 14.288 14.702 15.0027 14.702 15.92C14.702 16.9013 14.43 17.6613 13.886 18.2C13.3474 18.7333 12.5874 19 11.606 19C11.206 19 10.798 18.9787 10.382 18.936ZM15.694 18.784C15.7847 18.8747 15.8914 18.92 16.014 18.92H16.47C16.5927 18.92 16.6967 18.8747 16.782 18.784C16.8727 18.6933 16.918 18.5867 16.918 18.464V16.6C16.918 16.552 16.942 16.528 16.99 16.528H18.598C18.7207 16.528 18.8274 16.4853 18.918 16.4C19.0087 16.3093 19.054 16.2027 19.054 16.08V15.952C19.054 15.8293 19.0087 15.7253 18.918 15.64C18.8274 15.5493 18.7207 15.504 18.598 15.504H16.99C16.942 15.504 16.918 15.48 16.918 15.432V14.24C16.918 14.1973 16.942 14.176 16.99 14.176H18.758C18.8807 14.176 18.9874 14.1307 19.078 14.04C19.1687 13.9493 19.214 13.8427 19.214 13.72V13.536C19.214 13.4133 19.1687 13.3067 19.078 13.216C18.9874 13.1253 18.8807 13.08 18.758 13.08H16.014C15.8914 13.08 15.7847 13.1253 15.694 13.216C15.6034 13.3067 15.558 13.4133 15.558 13.536V18.464C15.558 18.5867 15.6034 18.6933 15.694 18.784Z" fill="currentColor"/>
</svg>
