<svg width="24" height="24" viewBox="0 0 24 24" fill="none" xmlns="http://www.w3.org/2000/svg">
<path fill-rule="evenodd" clip-rule="evenodd" d="M3 20V4C3 2.34315 4.34315 1 6 1H13.7564C14.2919 1 14.805 1.21471 15.1808 1.59605L20.4244 6.91602C20.7932 7.29023 21 7.79454 21 8.31997V20C21 21.6569 19.6569 23 18 23H6C4.34315 23 3 21.6569 3 20ZM15 6V3L19 7H16C15.4477 7 15 6.55228 15 6ZM7.68294 15.0631C7.43932 14.7764 7.09539 14.6331 6.65114 14.6331C6.2069 14.6331 5.86058 14.7764 5.61218 15.0631C5.36856 15.3497 5.24675 15.7676 5.24675 16.317C5.24675 16.8663 5.36856 17.2843 5.61218 17.5709C5.86058 17.8575 6.2069 18.0008 6.65114 18.0008C7.09539 18.0008 7.43932 17.8575 7.68294 17.5709C7.93133 17.2843 8.05553 16.8663 8.05553 16.317C8.05553 15.7676 7.93133 15.3497 7.68294 15.0631ZM8.57859 18.2803C8.10091 18.7627 7.45843 19.0039 6.65114 19.0039C5.84386 19.0039 5.19898 18.7627 4.71652 18.2803C4.23884 17.7978 4 17.1434 4 16.317C4 15.4906 4.23884 14.8362 4.71652 14.3537C5.19898 13.8712 5.84386 13.63 6.65114 13.63C7.45843 13.63 8.10091 13.8712 8.57859 14.3537C9.06105 14.8362 9.30228 15.4906 9.30228 16.317C9.30228 17.1434 9.06105 17.7978 8.57859 18.2803ZM12.6055 19.0039C11.7361 19.0039 11.0411 18.7627 10.5204 18.2803C10.0045 17.793 9.74653 17.1386 9.74653 16.317C9.74653 15.4858 9.99731 14.8314 10.4989 14.3537C11.0004 13.8712 11.6931 13.63 12.5768 13.63C13.0975 13.63 13.5584 13.7232 13.9597 13.9094C14.0648 13.9572 14.1364 14.0384 14.1747 14.1531C14.2129 14.2677 14.2105 14.38 14.1675 14.4898L14.1173 14.6045C14.0791 14.7 14.0099 14.7669 13.9095 14.8051C13.8092 14.8433 13.7113 14.8409 13.6158 14.7979C13.3292 14.6642 13.0234 14.5973 12.6986 14.5973C12.1588 14.5973 11.7385 14.7502 11.4375 15.0559C11.1366 15.3568 10.9861 15.7772 10.9861 16.317C10.9861 16.852 11.1414 17.2723 11.4519 17.5781C11.7671 17.8838 12.1899 18.0366 12.7201 18.0366C12.9446 18.0366 13.1405 18.008 13.3077 17.9506C13.3459 17.9363 13.365 17.91 13.365 17.8718V16.7326C13.365 16.6943 13.3459 16.6752 13.3077 16.6752H12.5051C12.3953 16.6752 12.2997 16.6346 12.2185 16.5534C12.1421 16.4722 12.1039 16.3767 12.1039 16.2668V16.1593C12.1039 16.0495 12.1421 15.9539 12.2185 15.8727C12.2997 15.7915 12.3953 15.7509 12.5051 15.7509H14.1173C14.2272 15.7509 14.3227 15.7915 14.4039 15.8727C14.4851 15.9539 14.5258 16.0495 14.5258 16.1593V18.2301C14.5258 18.3543 14.4899 18.4689 14.4183 18.574C14.3514 18.6743 14.2606 18.7412 14.146 18.7747C13.6588 18.9275 13.1452 19.0039 12.6055 19.0039ZM15.9946 18.2803C16.5153 18.7627 17.2103 19.0039 18.0797 19.0039C18.6195 19.0039 19.133 18.9275 19.6202 18.7747C19.7349 18.7412 19.8256 18.6743 19.8925 18.574C19.9642 18.4689 20 18.3543 20 18.2301V16.1593C20 16.0495 19.9594 15.9539 19.8782 15.8727C19.797 15.7915 19.7014 15.7509 19.5916 15.7509H17.9794C17.8695 15.7509 17.774 15.7915 17.6928 15.8727C17.6164 15.9539 17.5781 16.0495 17.5781 16.1593V16.2668C17.5781 16.3767 17.6164 16.4722 17.6928 16.5534C17.774 16.6346 17.8695 16.6752 17.9794 16.6752H18.7819C18.8201 16.6752 18.8392 16.6943 18.8392 16.7326V17.8718C18.8392 17.91 18.8201 17.9363 18.7819 17.9506C18.6147 18.008 18.4189 18.0366 18.1944 18.0366C17.6641 18.0366 17.2414 17.8838 16.9261 17.5781C16.6156 17.2723 16.4604 16.852 16.4604 16.317C16.4604 15.7772 16.6108 15.3568 16.9118 15.0559C17.2127 14.7502 17.6331 14.5973 18.1729 14.5973C18.4977 14.5973 18.8034 14.6642 19.09 14.7979C19.1856 14.8409 19.2835 14.8433 19.3838 14.8051C19.4841 14.7669 19.5534 14.7 19.5916 14.6045L19.6417 14.4898C19.6847 14.38 19.6871 14.2677 19.6489 14.1531C19.6107 14.0384 19.539 13.9572 19.4339 13.9094C19.0327 13.7232 18.5717 13.63 18.0511 13.63C17.1673 13.63 16.4747 13.8712 15.9731 14.3537C15.4716 14.8314 15.2208 15.4858 15.2208 16.317C15.2208 17.1386 15.4787 17.793 15.9946 18.2803Z" fill="currentColor"/>
</svg>
