<svg width="24" height="24" viewBox="0 0 24 24" fill="none" xmlns="http://www.w3.org/2000/svg">
<path fill-rule="evenodd" clip-rule="evenodd" d="M3 20V4C3 2.34315 4.34315 1 6 1H13.7564C14.2919 1 14.805 1.21471 15.1808 1.59605L20.4244 6.91602C20.7932 7.29023 21 7.79454 21 8.31997V20C21 21.6569 19.6569 23 18 23H6C4.34315 23 3 21.6569 3 20ZM15 6V3L19 7H16C15.4477 7 15 6.55228 15 6ZM5.08849 19C4.96247 19 4.85288 18.9534 4.75973 18.8603C4.66658 18.7671 4.62 18.6575 4.62 18.5315V13.4685C4.62 13.3425 4.66658 13.2329 4.75973 13.1397C4.85288 13.0466 4.96247 13 5.08849 13H7.90767C8.0337 13 8.14329 13.0466 8.23644 13.1397C8.32959 13.2329 8.37616 13.3425 8.37616 13.4685V13.6575C8.37616 13.7836 8.32959 13.8932 8.23644 13.9863C8.14329 14.0795 8.0337 14.126 7.90767 14.126H6.09123C6.04192 14.126 6.01726 14.1479 6.01726 14.1918V15.4164C6.01726 15.4658 6.04192 15.4904 6.09123 15.4904H7.74329C7.86932 15.4904 7.9789 15.537 8.07205 15.6301C8.16521 15.7178 8.21178 15.8247 8.21178 15.9507V16.0822C8.21178 16.2082 8.16521 16.3178 8.07205 16.411C7.9789 16.4986 7.86932 16.5425 7.74329 16.5425H6.09123C6.04192 16.5425 6.01726 16.5671 6.01726 16.6164V18.5315C6.01726 18.6575 5.97069 18.7671 5.87753 18.8603C5.78986 18.9534 5.68301 19 5.55699 19H5.08849ZM9.97069 19C9.84466 19 9.73507 18.9534 9.64192 18.8603C9.54877 18.7671 9.50219 18.6575 9.50219 18.5315V13.4685C9.50219 13.3425 9.54877 13.2329 9.64192 13.1397C9.73507 13.0466 9.84466 13 9.97069 13H10.4803C10.6063 13 10.7132 13.0466 10.8008 13.1397C10.894 13.2329 10.9405 13.3425 10.9405 13.4685V17.7753C10.9405 17.8192 10.9652 17.8411 11.0145 17.8411H13.0118C13.1378 17.8411 13.2474 17.8877 13.3405 17.9808C13.4337 18.074 13.4803 18.1836 13.4803 18.3096V18.5315C13.4803 18.6575 13.4337 18.7671 13.3405 18.8603C13.2474 18.9534 13.1378 19 13.0118 19H9.97069ZM14.1296 13.4438L15.8638 18.5562C15.9077 18.6877 15.9871 18.7945 16.1022 18.8767C16.2173 18.9589 16.3433 19 16.4803 19H17.0227C17.1652 19 17.2912 18.9589 17.4008 18.8767C17.5159 18.7945 17.5953 18.6877 17.6392 18.5562L19.3734 13.4438C19.4118 13.3342 19.3953 13.2329 19.3241 13.1397C19.2584 13.0466 19.1679 13 19.0529 13H18.5351C18.3981 13 18.2748 13.0438 18.1652 13.1315C18.0556 13.2137 17.9816 13.3205 17.9433 13.4521L16.7597 17.6521C16.7597 17.6575 16.757 17.6603 16.7515 17.6603C16.746 17.6603 16.7433 17.6575 16.7433 17.6521L15.5926 13.4521C15.5542 13.3205 15.4803 13.2137 15.3707 13.1315C15.2611 13.0438 15.1378 13 15.0008 13H14.4501C14.3351 13 14.2419 13.0466 14.1707 13.1397C14.1049 13.2329 14.0912 13.3342 14.1296 13.4438Z" fill="currentColor"/>
</svg>
