<svg width="24" height="24" viewBox="0 0 24 24" fill="none" xmlns="http://www.w3.org/2000/svg">
<path fill-rule="evenodd" clip-rule="evenodd" d="M3 20V4C3 2.34315 4.34315 1 6 1H13.7564C14.2919 1 14.805 1.21471 15.1808 1.59605L20.4244 6.91602C20.7932 7.29023 21 7.79454 21 8.31997V20C21 21.6569 19.6569 23 18 23H6C4.34315 23 3 21.6569 3 20ZM15 6V3L19 7H16C15.4477 7 15 6.55228 15 6ZM10.7383 13.8858V15.7263C10.7383 15.7657 10.7636 15.791 10.8143 15.8023C11.0057 15.8248 11.1576 15.836 11.2702 15.836C11.6755 15.836 11.9878 15.7432 12.2073 15.5574C12.4325 15.3661 12.5451 15.1015 12.5451 14.7638C12.5451 14.094 12.1201 13.7591 11.2702 13.7591C11.1295 13.7591 10.9747 13.7732 10.8058 13.8013C10.7608 13.8126 10.7383 13.8407 10.7383 13.8858ZM9.8096 18.9176C9.68015 18.9176 9.56758 18.8698 9.47189 18.7741C9.37621 18.6784 9.32837 18.5659 9.32837 18.4364V13.2779C9.32837 13.1428 9.37339 13.0218 9.46345 12.9148C9.55351 12.8079 9.66608 12.7488 9.80116 12.7375C10.2796 12.6925 10.7411 12.67 11.1858 12.67C12.9869 12.67 13.8875 13.3398 13.8875 14.6794C13.8875 15.4054 13.6764 15.957 13.2542 16.3342C12.8377 16.7056 12.2242 16.8914 11.4137 16.8914C11.1998 16.8914 11 16.8829 10.8143 16.866C10.7636 16.866 10.7383 16.8886 10.7383 16.9336V18.4364C10.7383 18.5659 10.6905 18.6784 10.5948 18.7741C10.4991 18.8698 10.3865 18.9176 10.2571 18.9176H9.8096ZM4.34715 18.7741C4.21769 18.7234 4.12201 18.6362 4.06009 18.5124C3.99818 18.3829 3.98411 18.2507 4.01788 18.1156L4.06854 17.8876C4.09105 17.7694 4.15578 17.685 4.26272 17.6343C4.37529 17.5837 4.48786 17.5809 4.60043 17.6259C4.96065 17.7722 5.27585 17.8454 5.54602 17.8454C5.82181 17.8454 6.0357 17.8004 6.18766 17.7103C6.33963 17.6203 6.45502 17.457 6.53382 17.2206C6.61262 16.9842 6.65202 16.6493 6.65202 16.216V13.2357C6.65202 13.1062 6.69704 12.9936 6.7871 12.898C6.88278 12.8023 6.99817 12.7544 7.13325 12.7544H7.6567C7.78616 12.7544 7.89591 12.8023 7.98597 12.898C8.08165 12.9936 8.1295 13.1062 8.1295 13.2357V16.3848C8.1295 17.3473 7.9325 18.0255 7.5385 18.4195C7.15014 18.8079 6.50286 19.0021 5.59667 19.0021C5.15765 19.0021 4.74114 18.9261 4.34715 18.7741ZM15.2805 18.1493C15.894 18.7178 16.713 19.0021 17.7373 19.0021C18.3734 19.0021 18.9784 18.912 19.5525 18.7319C19.6876 18.6925 19.7946 18.6137 19.8734 18.4955C19.9578 18.3717 20 18.2366 20 18.0902V15.6503C20 15.5208 19.9522 15.4083 19.8565 15.3126C19.7608 15.2169 19.6482 15.1691 19.5188 15.1691H17.6191C17.4897 15.1691 17.3771 15.2169 17.2814 15.3126C17.1914 15.4083 17.1464 15.5208 17.1464 15.6503V15.7769C17.1464 15.9064 17.1914 16.019 17.2814 16.1146C17.3771 16.2103 17.4897 16.2582 17.6191 16.2582H18.5647C18.6098 16.2582 18.6323 16.2807 18.6323 16.3257V17.6681C18.6323 17.7131 18.6098 17.7441 18.5647 17.761C18.3677 17.8285 18.137 17.8623 17.8724 17.8623C17.2477 17.8623 16.7495 17.6822 16.3781 17.322C16.0122 16.9617 15.8293 16.4664 15.8293 15.836C15.8293 15.2 16.0066 14.7047 16.3612 14.3501C16.7158 13.9899 17.2111 13.8098 17.8471 13.8098C18.2298 13.8098 18.5901 13.8886 18.9278 14.0462C19.0403 14.0968 19.1557 14.0996 19.2739 14.0546C19.3921 14.0096 19.4737 13.9308 19.5188 13.8182L19.5779 13.6831C19.6285 13.5537 19.6313 13.4214 19.5863 13.2863C19.5413 13.1512 19.4569 13.0556 19.333 12.9993C18.8602 12.7798 18.3171 12.67 17.7036 12.67C16.6623 12.67 15.8462 12.9542 15.2552 13.5227C14.6642 14.0856 14.3687 14.8567 14.3687 15.836C14.3687 16.8041 14.6726 17.5752 15.2805 18.1493Z" fill="currentColor"/>
</svg>
