<svg width="24" height="24" viewBox="0 0 24 24" fill="none" xmlns="http://www.w3.org/2000/svg">
<path fill-rule="evenodd" clip-rule="evenodd" d="M3 20V4C3 2.34315 4.34315 1 6 1H13.7564C14.2919 1 14.805 1.21471 15.1808 1.59605L20.4244 6.91602C20.7932 7.29023 21 7.79454 21 8.31997V20C21 21.6569 19.6569 23 18 23H6C4.34315 23 3 21.6569 3 20ZM15 6V3L19 7H16C15.4477 7 15 6.55228 15 6ZM7.602 19C6.674 19 5.93 18.7307 5.37 18.192C4.81 17.6533 4.53 16.9227 4.53 16C4.53 15.0667 4.802 14.3333 5.346 13.8C5.89 13.2667 6.642 13 7.602 13C8.15133 13 8.65267 13.1067 9.106 13.32C9.22333 13.3733 9.30067 13.464 9.338 13.592C9.38067 13.7147 9.378 13.8373 9.33 13.96L9.274 14.112C9.23133 14.224 9.15133 14.2987 9.034 14.336C8.922 14.3733 8.81267 14.3653 8.706 14.312C8.39667 14.168 8.07133 14.096 7.73 14.096C7.17 14.096 6.72733 14.264 6.402 14.6C6.082 14.936 5.922 15.4027 5.922 16C5.922 16.5867 6.09 17.0507 6.426 17.392C6.762 17.7333 7.19667 17.904 7.73 17.904C8.07133 17.904 8.39667 17.832 8.706 17.688C8.81267 17.6347 8.922 17.6267 9.034 17.664C9.15133 17.7013 9.23133 17.776 9.274 17.888L9.33 18.04C9.378 18.1627 9.38067 18.288 9.338 18.416C9.30067 18.5387 9.22333 18.6267 9.106 18.68C8.65267 18.8933 8.15133 19 7.602 19ZM12.274 16.576C11.5433 16.3627 11.018 16.104 10.698 15.8C10.3833 15.4907 10.226 15.1093 10.226 14.656C10.226 14.1493 10.4153 13.7467 10.794 13.448C11.1727 13.1493 11.706 13 12.394 13C12.9273 13 13.4233 13.0747 13.882 13.224C14.0047 13.2613 14.0953 13.3387 14.154 13.456C14.2127 13.5733 14.226 13.696 14.194 13.824L14.154 14C14.1273 14.112 14.0607 14.1947 13.954 14.248C13.8527 14.3013 13.746 14.3067 13.634 14.264C13.2713 14.1307 12.8767 14.064 12.45 14.064C12.1727 14.064 11.962 14.1173 11.818 14.224C11.674 14.3307 11.602 14.4747 11.602 14.656C11.602 14.9547 11.826 15.168 12.274 15.296C13.0687 15.5147 13.626 15.776 13.946 16.08C14.2713 16.384 14.434 16.776 14.434 17.256C14.434 17.8213 14.242 18.2533 13.858 18.552C13.474 18.8507 12.906 19 12.154 19C11.6313 19 11.114 18.8853 10.602 18.656C10.4793 18.6027 10.3913 18.5147 10.338 18.392C10.29 18.264 10.2873 18.136 10.33 18.008L10.386 17.808C10.418 17.7013 10.4873 17.6267 10.594 17.584C10.7007 17.5413 10.8047 17.5467 10.906 17.6C11.354 17.824 11.7887 17.936 12.21 17.936C12.4873 17.936 12.6953 17.88 12.834 17.768C12.978 17.6507 13.05 17.488 13.05 17.28C13.05 17.1093 12.9913 16.9707 12.874 16.864C12.762 16.7573 12.562 16.6613 12.274 16.576ZM15.722 15.8C16.042 16.104 16.5673 16.3627 17.298 16.576C17.586 16.6613 17.786 16.7573 17.898 16.864C18.0153 16.9707 18.074 17.1093 18.074 17.28C18.074 17.488 18.002 17.6507 17.858 17.768C17.7193 17.88 17.5113 17.936 17.234 17.936C16.8127 17.936 16.378 17.824 15.93 17.6C15.8287 17.5467 15.7247 17.5413 15.618 17.584C15.5113 17.6267 15.442 17.7013 15.41 17.808L15.354 18.008C15.3113 18.136 15.314 18.264 15.362 18.392C15.4153 18.5147 15.5033 18.6027 15.626 18.656C16.138 18.8853 16.6553 19 17.178 19C17.93 19 18.498 18.8507 18.882 18.552C19.266 18.2533 19.458 17.8213 19.458 17.256C19.458 16.776 19.2953 16.384 18.97 16.08C18.65 15.776 18.0927 15.5147 17.298 15.296C16.85 15.168 16.626 14.9547 16.626 14.656C16.626 14.4747 16.698 14.3307 16.842 14.224C16.986 14.1173 17.1967 14.064 17.474 14.064C17.9007 14.064 18.2953 14.1307 18.658 14.264C18.77 14.3067 18.8767 14.3013 18.978 14.248C19.0847 14.1947 19.1513 14.112 19.178 14L19.218 13.824C19.25 13.696 19.2367 13.5733 19.178 13.456C19.1193 13.3387 19.0287 13.2613 18.906 13.224C18.4473 13.0747 17.9513 13 17.418 13C16.73 13 16.1967 13.1493 15.818 13.448C15.4393 13.7467 15.25 14.1493 15.25 14.656C15.25 15.1093 15.4073 15.4907 15.722 15.8Z" fill="currentColor"/>
</svg>
