<svg width="24" height="24" viewBox="0 0 24 24" fill="none" xmlns="http://www.w3.org/2000/svg">
<path fill-rule="evenodd" clip-rule="evenodd" d="M3 20V4C3 2.34315 4.34315 1 6 1H13.7564C14.2919 1 14.805 1.21471 15.1808 1.59605L20.4244 6.91602C20.7932 7.29023 21 7.79454 21 8.31997V20C21 21.6569 19.6569 23 18 23H6C4.34315 23 3 21.6569 3 20ZM15 6V3L19 7H16C15.4477 7 15 6.55228 15 6ZM5.2952 16.515V17.88C5.2952 17.9265 5.31847 17.955 5.365 17.9653C5.47358 17.986 5.60543 17.9963 5.76054 17.9963C6.12765 17.9963 6.39651 17.9291 6.56714 17.7947C6.73776 17.6551 6.82307 17.4431 6.82307 17.1587C6.82307 16.683 6.43529 16.4452 5.65972 16.4452H5.35725C5.31588 16.4452 5.2952 16.4685 5.2952 16.515ZM5.2952 14.2969V15.437C5.2952 15.4783 5.31588 15.499 5.35725 15.499H5.55114C6.30603 15.499 6.68347 15.2741 6.68347 14.8243C6.68347 14.3951 6.36807 14.1805 5.73728 14.1805C5.58733 14.1805 5.46066 14.1909 5.35725 14.2116C5.31588 14.2219 5.2952 14.2503 5.2952 14.2969ZM4.43432 18.9348C4.31023 18.9244 4.20682 18.8701 4.12409 18.7719C4.04136 18.6737 4 18.5625 4 18.4384V13.7385C4 13.6092 4.04136 13.498 4.12409 13.405C4.21199 13.3067 4.31798 13.2524 4.44207 13.2421C4.84537 13.2007 5.24091 13.1801 5.6287 13.1801C7.12813 13.1801 7.87785 13.6635 7.87785 14.6304C7.87785 14.9561 7.77185 15.2327 7.55986 15.4602C7.35305 15.6877 7.07384 15.8325 6.72225 15.8945C6.71708 15.8945 6.71449 15.8997 6.71449 15.9101C6.71449 15.9152 6.71966 15.9178 6.73 15.9178C7.13847 15.9747 7.46163 16.1298 7.69947 16.3832C7.94248 16.6365 8.06398 16.939 8.06398 17.2906C8.06398 17.8645 7.87268 18.2936 7.49006 18.578C7.11262 18.8572 6.51802 18.9968 5.70625 18.9968C5.29779 18.9968 4.87381 18.9761 4.43432 18.9348ZM9.33592 18.9193C9.217 18.9193 9.11359 18.8753 9.02569 18.7874C8.93779 18.6995 8.89384 18.5961 8.89384 18.4772V13.6997C8.89384 13.5808 8.93779 13.4774 9.02569 13.3895C9.11359 13.3016 9.217 13.2576 9.33592 13.2576H9.80126C9.93052 13.2576 10.052 13.2964 10.1658 13.3739C10.2795 13.4463 10.3648 13.542 10.4217 13.6609L11.7402 16.5848C11.7402 16.59 11.7428 16.5926 11.7479 16.5926C11.7531 16.5926 11.7557 16.59 11.7557 16.5848L13.0742 13.6609C13.131 13.542 13.2164 13.4463 13.3301 13.3739C13.4439 13.2964 13.5654 13.2576 13.6946 13.2576H14.191C14.3099 13.2576 14.4133 13.3016 14.5012 13.3895C14.5891 13.4774 14.6331 13.5808 14.6331 13.6997V18.4772C14.6331 18.5961 14.5891 18.6995 14.5012 18.7874C14.4133 18.8753 14.3099 18.9193 14.191 18.9193H13.7954C13.6765 18.9193 13.5731 18.8753 13.4852 18.7874C13.3973 18.6995 13.3534 18.5961 13.3534 18.4772V15.4602C13.3534 15.4551 13.3508 15.4525 13.3456 15.4525C13.3404 15.4525 13.3379 15.4551 13.3379 15.4602L12.5235 17.2285C12.4718 17.3474 12.3891 17.4431 12.2753 17.5155C12.1616 17.5879 12.0375 17.6241 11.9031 17.6241H11.5928C11.4584 17.6241 11.3343 17.5879 11.2206 17.5155C11.1068 17.4431 11.0241 17.3474 10.9724 17.2285L10.158 15.4602C10.158 15.4551 10.1554 15.4525 10.1503 15.4525C10.1451 15.4525 10.1425 15.4551 10.1425 15.4602V18.4772C10.1425 18.5961 10.0986 18.6995 10.0107 18.7874C9.92277 18.8753 9.81936 18.9193 9.70044 18.9193H9.33592ZM17.1071 15.9876V14.2969C17.1071 14.2555 17.1278 14.2297 17.1692 14.2193C17.3243 14.1935 17.4665 14.1805 17.5957 14.1805C18.3765 14.1805 18.7668 14.4882 18.7668 15.1035C18.7668 15.4137 18.6634 15.6567 18.4566 15.8325C18.255 16.0031 17.968 16.0884 17.5957 16.0884C17.4923 16.0884 17.3527 16.0781 17.1769 16.0574C17.1304 16.0471 17.1071 16.0238 17.1071 15.9876ZM15.9438 18.7874C16.0317 18.8753 16.1351 18.9193 16.254 18.9193H16.6651C16.784 18.9193 16.8874 18.8753 16.9753 18.7874C17.0632 18.6995 17.1071 18.5961 17.1071 18.4772V17.0967C17.1071 17.0553 17.1304 17.0346 17.1769 17.0346C17.3476 17.0501 17.5311 17.0579 17.7276 17.0579C18.4721 17.0579 19.0357 16.8873 19.4183 16.546C19.8061 16.1996 20 15.6929 20 15.0259C20 13.7953 19.1727 13.1801 17.5182 13.1801C17.1097 13.1801 16.6857 13.2007 16.2462 13.2421C16.1222 13.2524 16.0187 13.3067 15.936 13.405C15.8533 13.5032 15.8119 13.6144 15.8119 13.7385V18.4772C15.8119 18.5961 15.8559 18.6995 15.9438 18.7874Z" fill="currentColor"/>
</svg>
