<svg width="24" height="24" viewBox="0 0 24 24" fill="none" xmlns="http://www.w3.org/2000/svg">
<path fill-rule="evenodd" clip-rule="evenodd" d="M3 20V4C3 2.34315 4.34315 1 6 1H13.7564C14.2919 1 14.805 1.21471 15.1808 1.59605L20.4244 6.91602C20.7932 7.29023 21 7.79454 21 8.31997V20C21 21.6569 19.6569 23 18 23H6C4.34315 23 3 21.6569 3 20ZM15 6V3L19 7H16C15.4477 7 15 6.55228 15 6ZM4.12794 14.4432C4.21323 14.5285 4.31358 14.5711 4.42897 14.5711H5.46754C5.50768 14.5711 5.52775 14.5912 5.52775 14.6314V18.5749C5.52775 18.6903 5.5704 18.7907 5.65569 18.8759C5.74098 18.9612 5.84133 19.0039 5.95673 19.0039H6.40828C6.52368 19.0039 6.62402 18.9612 6.70931 18.8759C6.79461 18.7907 6.83725 18.6903 6.83725 18.5749V14.6314C6.83725 14.5912 6.85732 14.5711 6.89746 14.5711H7.93603C8.05143 14.5711 8.15177 14.5285 8.23706 14.4432C8.32236 14.3579 8.365 14.2576 8.365 14.1422V13.939C8.365 13.8236 8.32236 13.7232 8.23706 13.6379C8.15177 13.5526 8.05143 13.51 7.93603 13.51H4.42897C4.31358 13.51 4.21323 13.5526 4.12794 13.6379C4.04265 13.7232 4 13.8236 4 13.939V14.1422C4 14.2576 4.04265 14.3579 4.12794 14.4432ZM9.55409 18.8759C9.63939 18.9612 9.73973 19.0039 9.85513 19.0039H10.412C10.5274 19.0039 10.6253 18.9612 10.7056 18.8759C10.7908 18.7907 10.8335 18.6903 10.8335 18.5749V13.939C10.8335 13.8236 10.7908 13.7232 10.7056 13.6379C10.6253 13.5526 10.5274 13.51 10.412 13.51H9.85513C9.73973 13.51 9.63939 13.5526 9.55409 13.6379C9.47382 13.7232 9.43368 13.8236 9.43368 13.939V18.5749C9.43368 18.6903 9.47382 18.7907 9.55409 18.8759ZM12.5193 19.0039C12.4039 19.0039 12.3035 18.9612 12.2183 18.8759C12.133 18.7907 12.0903 18.6903 12.0903 18.5749V13.939C12.0903 13.8236 12.133 13.7232 12.2183 13.6379C12.3035 13.5526 12.4039 13.51 12.5193 13.51H15.1007C15.2161 13.51 15.3164 13.5526 15.4017 13.6379C15.487 13.7232 15.5296 13.8236 15.5296 13.939V14.1121C15.5296 14.2275 15.487 14.3278 15.4017 14.4131C15.3164 14.4984 15.2161 14.541 15.1007 14.541H13.4374C13.3923 14.541 13.3697 14.5611 13.3697 14.6013V15.7226C13.3697 15.7678 13.3923 15.7903 13.4374 15.7903H14.9501C15.0655 15.7903 15.1659 15.833 15.2512 15.9183C15.3365 15.9986 15.3791 16.0964 15.3791 16.2118V16.3322C15.3791 16.4476 15.3365 16.5479 15.2512 16.6332C15.1659 16.7135 15.0655 16.7537 14.9501 16.7537H13.4374C13.3923 16.7537 13.3697 16.7762 13.3697 16.8214V18.5749C13.3697 18.6903 13.3271 18.7907 13.2418 18.8759C13.1615 18.9612 13.0637 19.0039 12.9483 19.0039H12.5193ZM16.6886 18.8759C16.7739 18.9612 16.8743 19.0039 16.9897 19.0039H17.4186C17.534 19.0039 17.6319 18.9612 17.7121 18.8759C17.7974 18.7907 17.8401 18.6903 17.8401 18.5749V16.8214C17.8401 16.7762 17.8627 16.7537 17.9078 16.7537H19.4205C19.5359 16.7537 19.6362 16.7135 19.7215 16.6332C19.8068 16.5479 19.8495 16.4476 19.8495 16.3322V16.2118C19.8495 16.0964 19.8068 15.9986 19.7215 15.9183C19.6362 15.833 19.5359 15.7903 19.4205 15.7903H17.9078C17.8627 15.7903 17.8401 15.7678 17.8401 15.7226V14.6013C17.8401 14.5611 17.8627 14.541 17.9078 14.541H19.571C19.6864 14.541 19.7868 14.4984 19.8721 14.4131C19.9574 14.3278 20 14.2275 20 14.1121V13.939C20 13.8236 19.9574 13.7232 19.8721 13.6379C19.7868 13.5526 19.6864 13.51 19.571 13.51H16.9897C16.8743 13.51 16.7739 13.5526 16.6886 13.6379C16.6033 13.7232 16.5607 13.8236 16.5607 13.939V18.5749C16.5607 18.6903 16.6033 18.7907 16.6886 18.8759Z" fill="currentColor"/>
</svg>
