<svg width="24" height="24" viewBox="0 0 24 24" fill="none" xmlns="http://www.w3.org/2000/svg">
<path fill-rule="evenodd" clip-rule="evenodd" d="M3 20V4C3 2.34315 4.34315 1 6 1H13.7564C14.2919 1 14.805 1.21471 15.1808 1.59605L20.4244 6.91602C20.7932 7.29023 21 7.79454 21 8.31997V20C21 21.6569 19.6569 23 18 23H6C4.34315 23 3 21.6569 3 20ZM15 6V3L19 7H16C15.4477 7 15 6.55228 15 6ZM7.00714 10.31L8.34023 15.8918C8.42567 16.2495 8.70858 16.5267 9.06802 16.6047L11.7198 17.1807C11.6606 17.4829 11.748 17.8082 11.9822 18.0424L12.659 18.7192C13.0327 19.0929 13.6388 19.0929 14.0125 18.7192L16.7197 16.012C17.0934 15.6383 17.0934 15.0322 16.7197 14.6585L16.0429 13.9817C15.8087 13.7474 15.4832 13.66 15.1809 13.7193L14.6049 11.0679C14.5268 10.7084 14.2497 10.4256 13.8919 10.3401L8.31134 9.00714C8.07657 8.95106 7.91588 9.23842 8.08657 9.40908L11.3964 12.7188C11.7158 12.6334 12.0708 12.7159 12.3214 12.9665C12.6951 13.3403 12.6951 13.9463 12.3214 14.3201C11.9476 14.6939 11.3416 14.6939 10.9678 14.3201C10.7174 14.0697 10.6347 13.715 10.7199 13.3958L7.40907 10.0852C7.2384 9.91457 6.95107 10.0753 7.00714 10.31ZM12.659 17.3656L12.8215 17.2031L12.8281 17.1966L15.1969 14.8278L15.2034 14.8212L15.3661 14.6585L16.0429 15.3352L13.3357 18.0424L12.659 17.3656Z" fill="currentColor"/>
</svg>
