<svg width="24" height="24" viewBox="0 0 24 24" fill="none" xmlns="http://www.w3.org/2000/svg">
<path fill-rule="evenodd" clip-rule="evenodd" d="M3 20V4C3 2.34315 4.34315 1 6 1H13.7564C14.2919 1 14.805 1.21471 15.1808 1.59605L20.4244 6.91602C20.7932 7.29023 21 7.79454 21 8.31997V20C21 21.6569 19.6569 23 18 23H6C4.34315 23 3 21.6569 3 20ZM15 6V3L19 7H16C15.4477 7 15 6.55228 15 6ZM7.74643 19.1041C6.91678 19.1041 6.25163 18.8633 5.75098 18.3817C5.25033 17.9002 5 17.2469 5 16.4221C5 15.5876 5.24317 14.932 5.72952 14.4552C6.21587 13.9784 6.88817 13.74 7.74643 13.74C8.23755 13.74 8.68575 13.8354 9.09104 14.0261C9.19594 14.0738 9.26507 14.1548 9.29845 14.2692C9.33659 14.3789 9.33421 14.4886 9.2913 14.5982L9.24123 14.7341C9.20309 14.8343 9.13157 14.901 9.02667 14.9344C8.92654 14.9678 8.82879 14.9606 8.73343 14.9129C8.45688 14.7842 8.16602 14.7198 7.86086 14.7198C7.36021 14.7198 6.96446 14.87 6.67361 15.1704C6.38752 15.4708 6.24448 15.888 6.24448 16.4221C6.24448 16.9465 6.39467 17.3614 6.69506 17.6665C6.99545 17.9717 7.38405 18.1243 7.86086 18.1243C8.16602 18.1243 8.45688 18.0599 8.73343 17.9312C8.82879 17.8835 8.92654 17.8763 9.02667 17.9097C9.13157 17.9431 9.20309 18.0098 9.24123 18.11L9.2913 18.2459C9.33421 18.3555 9.33659 18.4676 9.29845 18.582C9.26507 18.6917 9.19594 18.7703 9.09104 18.818C8.68575 19.0088 8.23755 19.1041 7.74643 19.1041ZM11.9233 16.937C11.2701 16.7463 10.8004 16.515 10.5143 16.2432C10.233 15.9667 10.0923 15.6258 10.0923 15.2205C10.0923 14.7675 10.2616 14.4075 10.6001 14.1405C10.9387 13.8735 11.4155 13.74 12.0306 13.74C12.5074 13.74 12.9508 13.8067 13.3609 13.9403C13.4705 13.9736 13.5516 14.0428 13.6041 14.1477C13.6565 14.2526 13.6684 14.3622 13.6398 14.4767L13.6041 14.634C13.5802 14.7341 13.5206 14.808 13.4252 14.8557C13.3347 14.9034 13.2393 14.9082 13.1392 14.87C12.8149 14.7508 12.4621 14.6912 12.0806 14.6912C11.8327 14.6912 11.6444 14.7389 11.5156 14.8343C11.3869 14.9296 11.3225 15.0584 11.3225 15.2205C11.3225 15.4875 11.5228 15.6782 11.9233 15.7927C12.6337 15.9882 13.132 16.2218 13.4181 16.4936C13.7089 16.7654 13.8544 17.1158 13.8544 17.5449C13.8544 18.0504 13.6827 18.4366 13.3394 18.7036C12.9961 18.9706 12.4883 19.1041 11.816 19.1041C11.3487 19.1041 10.8862 19.0016 10.4285 18.7966C10.3188 18.7489 10.2402 18.6702 10.1925 18.5605C10.1496 18.4461 10.1472 18.3317 10.1853 18.2172L10.2354 18.0384C10.264 17.9431 10.326 17.8763 10.4213 17.8382C10.5167 17.8 10.6097 17.8048 10.7003 17.8525C11.1008 18.0527 11.4894 18.1529 11.8661 18.1529C12.114 18.1529 12.3 18.1028 12.4239 18.0027C12.5527 17.8978 12.6171 17.7524 12.6171 17.5664C12.6171 17.4138 12.5646 17.2898 12.4597 17.1945C12.3596 17.0991 12.1808 17.0133 11.9233 16.937ZM14.4552 13.9331C14.3979 14.0142 14.386 14.1024 14.4194 14.1977L15.9285 18.6464C15.9666 18.7608 16.0358 18.8538 16.1359 18.9253C16.236 18.9968 16.3457 19.0326 16.4649 19.0326H16.937C17.0609 19.0326 17.1706 18.9968 17.266 18.9253C17.3661 18.8538 17.4352 18.7608 17.4734 18.6464L18.9825 14.1977C19.0159 14.1024 19.0015 14.0142 18.9396 13.9331C18.8823 13.852 18.8037 13.8115 18.7035 13.8115H18.253C18.1338 13.8115 18.0265 13.8497 17.9311 13.9259C17.8357 13.9975 17.7714 14.0904 17.738 14.2049L16.7081 17.8596C16.7081 17.8644 16.7057 17.8668 16.7009 17.8668C16.6962 17.8668 16.6938 17.8644 16.6938 17.8596L15.6925 14.2049C15.6591 14.0904 15.5947 13.9975 15.4994 13.9259C15.404 13.8497 15.2967 13.8115 15.1775 13.8115H14.6983C14.5982 13.8115 14.5171 13.852 14.4552 13.9331Z" fill="currentColor"/>
</svg>
