<svg width="24" height="24" viewBox="0 0 24 24" fill="none" xmlns="http://www.w3.org/2000/svg">
<path fill-rule="evenodd" clip-rule="evenodd" d="M3 20V4C3 2.34315 4.34315 1 6 1H13.7564C14.2919 1 14.805 1.21471 15.1808 1.59605L20.4244 6.91602C20.7932 7.29023 21 7.79454 21 8.31997V20C21 21.6569 19.6569 23 18 23H6C4.34315 23 3 21.6569 3 20ZM15 6V3L19 7H16C15.4477 7 15 6.55228 15 6ZM4.97794 18.1353V15.4767C4.97794 15.4415 4.99356 15.4201 5.02479 15.4123C5.10287 15.3966 5.19657 15.3888 5.30588 15.3888C6.13352 15.3888 6.54734 15.8417 6.54734 16.7474C6.54734 17.7312 6.13352 18.2231 5.30588 18.2231C5.19657 18.2231 5.10287 18.2153 5.02479 18.1997C4.99356 18.1919 4.97794 18.1704 4.97794 18.1353ZM4.0937 18.838C4.16006 18.9083 4.24009 18.9473 4.33379 18.9551C4.6383 18.9863 4.93695 19.002 5.22975 19.002C5.94808 19.002 6.5044 18.8068 6.8987 18.4164C7.2969 18.0221 7.496 17.4658 7.496 16.7474C7.496 16.0759 7.2969 15.5528 6.8987 15.178C6.5044 14.7993 5.94808 14.61 5.22975 14.61C4.93695 14.61 4.6383 14.6256 4.33379 14.6568C4.24009 14.6647 4.16006 14.7056 4.0937 14.7798C4.03123 14.8501 4 14.934 4 15.0316V18.5803C4 18.6779 4.03123 18.7638 4.0937 18.838ZM10.0258 15.4298C10.3888 15.4298 10.6699 15.547 10.869 15.7812C11.072 16.0154 11.1735 16.357 11.1735 16.806C11.1735 17.2549 11.072 17.5965 10.869 17.8308C10.6699 18.065 10.3888 18.1821 10.0258 18.1821C9.6627 18.1821 9.37967 18.065 9.17666 17.8308C8.97756 17.5965 8.87801 17.2549 8.87801 16.806C8.87801 16.357 8.97756 16.0154 9.17666 15.7812C9.37967 15.547 9.6627 15.4298 10.0258 15.4298ZM10.0258 19.002C10.6855 19.002 11.2106 18.8048 11.601 18.4105C11.9953 18.0162 12.1925 17.4814 12.1925 16.806C12.1925 16.1306 11.9953 15.5958 11.601 15.2015C11.2106 14.8071 10.6855 14.61 10.0258 14.61C9.366 14.61 8.83897 14.8071 8.44467 15.2015C8.05427 15.5958 7.85907 16.1306 7.85907 16.806C7.85907 17.4814 8.05427 18.0162 8.44467 18.4105C8.83897 18.8048 9.366 19.002 10.0258 19.002ZM14.8042 19.002C14.1249 19.002 13.5803 18.8048 13.1704 18.4105C12.7605 18.0162 12.5555 17.4814 12.5555 16.806C12.5555 16.1228 12.7546 15.586 13.1529 15.1956C13.5511 14.8052 14.1015 14.61 14.8042 14.61C15.2063 14.61 15.5733 14.6881 15.9051 14.8442C15.991 14.8833 16.0476 14.9496 16.075 15.0433C16.1062 15.1331 16.1043 15.2229 16.0691 15.3127L16.0281 15.424C15.9969 15.506 15.9383 15.5606 15.8524 15.5879C15.7705 15.6153 15.6904 15.6094 15.6124 15.5704C15.3859 15.465 15.1478 15.4123 14.8979 15.4123C14.488 15.4123 14.164 15.5352 13.9258 15.7812C13.6916 16.0271 13.5745 16.3687 13.5745 16.806C13.5745 17.2354 13.6975 17.5751 13.9434 17.8249C14.1894 18.0748 14.5075 18.1997 14.8979 18.1997C15.1478 18.1997 15.3859 18.147 15.6124 18.0416C15.6904 18.0025 15.7705 17.9967 15.8524 18.024C15.9383 18.0513 15.9969 18.106 16.0281 18.188L16.0691 18.2992C16.1043 18.389 16.1062 18.4808 16.075 18.5745C16.0476 18.6643 15.991 18.7287 15.9051 18.7677C15.5733 18.9239 15.2063 19.002 14.8042 19.002ZM16.6664 18.8497C16.7055 18.9122 16.7621 18.9434 16.8362 18.9434H17.2637C17.3652 18.9434 17.4589 18.9161 17.5448 18.8614C17.6307 18.8029 17.6932 18.7287 17.7322 18.6389L18.3002 17.3564C18.3002 17.3525 18.3022 17.3506 18.3061 17.3506C18.31 17.3506 18.3119 17.3525 18.3119 17.3564L18.88 18.6389C18.9229 18.7287 18.9873 18.8029 19.0732 18.8614C19.1591 18.9161 19.2508 18.9434 19.3484 18.9434H19.7994C19.8774 18.9434 19.934 18.9122 19.9692 18.8497C20.0082 18.7833 20.0102 18.717 19.975 18.6506L19.0029 16.8235C18.9912 16.7923 18.9912 16.7611 19.0029 16.7299L19.9458 14.9614C19.9809 14.895 19.9789 14.8306 19.9399 14.7681C19.9048 14.7017 19.8482 14.6686 19.7701 14.6686H19.366C19.2684 14.6686 19.1767 14.6978 19.0908 14.7564C19.0049 14.8111 18.9405 14.8833 18.8975 14.9731L18.3354 16.197C18.3354 16.2009 18.3334 16.2028 18.3295 16.2028C18.3256 16.2028 18.3237 16.2009 18.3237 16.197L17.7615 14.9731C17.7224 14.8833 17.66 14.8111 17.5741 14.7564C17.4882 14.6978 17.3945 14.6686 17.293 14.6686H16.8655C16.7914 14.6686 16.7347 14.7017 16.6957 14.7681C16.6567 14.8306 16.6547 14.895 16.6898 14.9614L17.6327 16.7299C17.6444 16.7611 17.6444 16.7923 17.6327 16.8235L16.6606 18.6506C16.6254 18.717 16.6274 18.7833 16.6664 18.8497Z" fill="currentColor"/>
</svg>
