<svg width="24" height="24" viewBox="0 0 24 24" fill="none" xmlns="http://www.w3.org/2000/svg">
<path fill-rule="evenodd" clip-rule="evenodd" d="M3 20V4C3 2.34315 4.34315 1 6 1H13.7564C14.2919 1 14.805 1.21471 15.1808 1.59605L20.4244 6.91602C20.7932 7.29023 21 7.79454 21 8.31997V20C21 21.6569 19.6569 23 18 23H6C4.34315 23 3 21.6569 3 20ZM15 6V3L19 7H16C15.4477 7 15 6.55228 15 6ZM6.27134 14.4662V16.1258C6.27134 16.1614 6.29418 16.1842 6.33986 16.1944C6.51242 16.2147 6.64945 16.2248 6.75095 16.2248C7.11637 16.2248 7.39804 16.1411 7.59598 15.9736C7.79899 15.801 7.90049 15.5625 7.90049 15.258C7.90049 14.654 7.51731 14.3521 6.75095 14.3521C6.62407 14.3521 6.4845 14.3647 6.33225 14.3901C6.29164 14.4003 6.27134 14.4256 6.27134 14.4662ZM5.43393 19.0035C5.3172 19.0035 5.2157 18.9604 5.12942 18.8741C5.04314 18.7878 5 18.6863 5 18.5696V13.9181C5 13.7963 5.0406 13.6872 5.12181 13.5908C5.20301 13.4943 5.30451 13.441 5.42632 13.4309C5.85771 13.3903 6.27388 13.37 6.67482 13.37C8.29889 13.37 9.11093 13.9739 9.11093 15.1818C9.11093 15.8366 8.92061 16.3339 8.53997 16.674C8.1644 17.0089 7.6112 17.1764 6.88037 17.1764C6.68751 17.1764 6.50734 17.1688 6.33986 17.1536C6.29418 17.1536 6.27134 17.1739 6.27134 17.2145V18.5696C6.27134 18.6863 6.2282 18.7878 6.14193 18.8741C6.05565 18.9604 5.95414 19.0035 5.83741 19.0035H5.43393ZM11.1588 14.4662V16.1258C11.1588 16.1614 11.1816 16.1842 11.2273 16.1944C11.3999 16.2147 11.5369 16.2248 11.6384 16.2248C12.0038 16.2248 12.2855 16.1411 12.4834 15.9736C12.6864 15.801 12.7879 15.5625 12.7879 15.258C12.7879 14.654 12.4047 14.3521 11.6384 14.3521C11.5115 14.3521 11.3719 14.3647 11.2197 14.3901C11.1791 14.4003 11.1588 14.4256 11.1588 14.4662ZM10.3214 19.0035C10.2046 19.0035 10.1031 18.9604 10.0169 18.8741C9.93058 18.7878 9.88744 18.6863 9.88744 18.5696V13.9181C9.88744 13.7963 9.92804 13.6872 10.0092 13.5908C10.0904 13.4943 10.192 13.441 10.3138 13.4309C10.7452 13.3903 11.1613 13.37 11.5623 13.37C13.1863 13.37 13.9984 13.9739 13.9984 15.1818C13.9984 15.8366 13.808 16.3339 13.4274 16.674C13.0518 17.0089 12.4986 17.1764 11.7678 17.1764C11.575 17.1764 11.3948 17.1688 11.2273 17.1536C11.1816 17.1536 11.1588 17.1739 11.1588 17.2145V18.5696C11.1588 18.6863 11.1156 18.7878 11.0294 18.8741C10.9431 18.9604 10.8416 19.0035 10.7249 19.0035H10.3214ZM14.714 14.3901C14.8003 14.4764 14.9018 14.5195 15.0185 14.5195H16.0691C16.1097 14.5195 16.13 14.5398 16.13 14.5804V18.5696C16.13 18.6863 16.1731 18.7878 16.2594 18.8741C16.3457 18.9604 16.4472 19.0035 16.5639 19.0035H17.0207C17.1374 19.0035 17.2389 18.9604 17.3252 18.8741C17.4115 18.7878 17.4546 18.6863 17.4546 18.5696V14.5804C17.4546 14.5398 17.4749 14.5195 17.5155 14.5195H18.5661C18.6828 14.5195 18.7843 14.4764 18.8706 14.3901C18.9569 14.3038 19 14.2023 19 14.0856V13.8801C19 13.7633 18.9569 13.6618 18.8706 13.5755C18.7843 13.4893 18.6828 13.4461 18.5661 13.4461H15.0185C14.9018 13.4461 14.8003 13.4893 14.714 13.5755C14.6277 13.6618 14.5846 13.7633 14.5846 13.8801V14.0856C14.5846 14.2023 14.6277 14.3038 14.714 14.3901Z" fill="currentColor"/>
</svg>
