<svg width="24" height="24" viewBox="0 0 24 24" fill="none" xmlns="http://www.w3.org/2000/svg">
<path fill-rule="evenodd" clip-rule="evenodd" d="M3 20V4C3 2.34315 4.34315 1 6 1H13.7564C14.2919 1 14.805 1.21471 15.1808 1.59605L20.4244 6.91602C20.7932 7.29023 21 7.79454 21 8.31997V20C21 21.6569 19.6569 23 18 23H6C4.34315 23 3 21.6569 3 20ZM15 6V3L19 7H16C15.4477 7 15 6.55228 15 6ZM17 15C17 17.7614 14.7614 20 12 20C9.23858 20 7 17.7614 7 15C7 12.2386 9.23858 10 12 10C14.7614 10 17 12.2386 17 15ZM12 11.5C12.5523 11.5 13 11.9477 13 12.5V14.6667L14.3 16.4C14.6314 16.8418 14.5418 17.4686 14.1 17.8C13.6582 18.1314 13.0314 18.0418 12.7 17.6L11.2 15.6C11.0702 15.4269 11 15.2164 11 15V12.5C11 11.9477 11.4477 11.5 12 11.5Z" fill="currentColor"/>
</svg>
