<svg width="24" height="24" viewBox="0 0 24 24" fill="none" xmlns="http://www.w3.org/2000/svg">
<path fill-rule="evenodd" clip-rule="evenodd" d="M3 20V4C3 2.34315 4.34315 1 6 1H13.7564C14.2919 1 14.805 1.21471 15.1808 1.59605L20.4244 6.91602C20.7932 7.29023 21 7.79454 21 8.31997V20C21 21.6569 19.6569 23 18 23H6C4.34315 23 3 21.6569 3 20ZM15 6V3L19 7H16C15.4477 7 15 6.55228 15 6ZM4.89016 18.6459L4.00607 14.645C3.98887 14.5546 4.00822 14.4729 4.06415 14.3997C4.12008 14.3266 4.19537 14.29 4.29001 14.29H4.67075C4.77831 14.29 4.8708 14.3245 4.94824 14.3933C5.02998 14.4621 5.07946 14.5482 5.09666 14.6514L5.63228 17.878C5.63228 17.8823 5.63443 17.8845 5.63873 17.8845C5.64303 17.8845 5.64519 17.8823 5.64519 17.878L6.14208 14.6514C6.15929 14.5482 6.20661 14.4621 6.28405 14.3933C6.36149 14.3245 6.45399 14.29 6.56154 14.29H7.16814C7.27569 14.29 7.36819 14.3245 7.44563 14.3933C7.52307 14.4621 7.57039 14.5482 7.5876 14.6514L8.08449 17.878C8.08449 17.8823 8.08665 17.8845 8.09095 17.8845C8.09525 17.8845 8.0974 17.8823 8.0974 17.878L8.63302 14.6514C8.65022 14.5482 8.69755 14.4621 8.77499 14.3933C8.85673 14.3245 8.95137 14.29 9.05893 14.29H9.41385C9.5085 14.29 9.58379 14.3266 9.63971 14.3997C9.69994 14.4729 9.7193 14.5546 9.69779 14.645L8.81371 18.6459C8.79219 18.7492 8.73842 18.8352 8.65238 18.9041C8.57064 18.9686 8.47599 19.0009 8.36843 19.0009H7.81991C7.71236 19.0009 7.61771 18.9665 7.53597 18.8976C7.45853 18.8288 7.41121 18.7427 7.394 18.6395L6.85839 15.4129C6.85839 15.4086 6.85624 15.4064 6.85193 15.4064C6.84763 15.4064 6.84548 15.4086 6.84548 15.4129L6.30986 18.6395C6.29266 18.7427 6.24318 18.8288 6.16144 18.8976C6.084 18.9665 5.99151 19.0009 5.88395 19.0009H5.33543C5.22788 19.0009 5.13108 18.9686 5.04504 18.9041C4.9633 18.8352 4.91167 18.7492 4.89016 18.6459ZM10.7948 19.0009C10.6959 19.0009 10.6098 18.9643 10.5367 18.8912C10.4636 18.818 10.427 18.732 10.427 18.633V14.6579C10.427 14.5589 10.4636 14.4729 10.5367 14.3997C10.6098 14.3266 10.6959 14.29 10.7948 14.29H11.182C11.2896 14.29 11.3907 14.3223 11.4853 14.3868C11.58 14.4471 11.651 14.5267 11.6983 14.6256L12.7953 17.0585C12.7953 17.0628 12.7975 17.0649 12.8018 17.0649C12.8061 17.0649 12.8082 17.0628 12.8082 17.0585L13.9053 14.6256C13.9526 14.5267 14.0236 14.4471 14.1182 14.3868C14.2129 14.3223 14.314 14.29 14.4215 14.29H14.8345C14.9335 14.29 15.0195 14.3266 15.0927 14.3997C15.1658 14.4729 15.2024 14.5589 15.2024 14.6579V18.633C15.2024 18.732 15.1658 18.818 15.0927 18.8912C15.0195 18.9643 14.9335 19.0009 14.8345 19.0009H14.5054C14.4065 19.0009 14.3204 18.9643 14.2473 18.8912C14.1742 18.818 14.1376 18.732 14.1376 18.633V16.1227C14.1376 16.1184 14.1354 16.1163 14.1311 16.1163C14.1268 16.1163 14.1247 16.1184 14.1247 16.1227L13.4471 17.5941C13.4041 17.693 13.3352 17.7726 13.2406 17.8328C13.146 17.8931 13.0427 17.9232 12.9308 17.9232H12.6727C12.5609 17.9232 12.4576 17.8931 12.363 17.8328C12.2683 17.7726 12.1995 17.693 12.1565 17.5941L11.4789 16.1227C11.4789 16.1184 11.4767 16.1163 11.4724 16.1163C11.4681 16.1163 11.466 16.1184 11.466 16.1227V18.633C11.466 18.732 11.4294 18.818 11.3563 18.8912C11.2831 18.9643 11.1971 19.0009 11.0981 19.0009H10.7948ZM17.4029 17.0972L17.9063 15.2451C17.9063 15.2408 17.9084 15.2387 17.9127 15.2387C17.917 15.2387 17.9192 15.2408 17.9192 15.2451L18.4225 17.0972C18.4268 17.1101 18.4225 17.123 18.4096 17.1359C18.401 17.1445 18.3903 17.1488 18.3773 17.1488H17.4481C17.4352 17.1488 17.4244 17.1445 17.4158 17.1359C17.4072 17.123 17.4029 17.1101 17.4029 17.0972ZM15.9058 18.8912C15.9574 18.9643 16.0284 19.0009 16.1187 19.0009H16.5253C16.6328 19.0009 16.7296 18.9686 16.8157 18.9041C16.906 18.8352 16.9641 18.7492 16.9899 18.6459L17.1512 18.0329C17.1598 17.9985 17.1835 17.9813 17.2222 17.9813H18.6032C18.6462 17.9813 18.6699 17.9985 18.6742 18.0329L18.8355 18.6459C18.8656 18.7492 18.9237 18.8352 19.0098 18.9041C19.1001 18.9686 19.1969 19.0009 19.3002 19.0009H19.7325C19.8229 19.0009 19.8938 18.9643 19.9455 18.8912C20.0014 18.818 20.0143 18.7384 19.9842 18.6524L18.6226 14.6385C18.5881 14.5353 18.5258 14.4514 18.4354 14.3868C18.3494 14.3223 18.2504 14.29 18.1386 14.29H17.7127C17.6051 14.29 17.5062 14.3223 17.4158 14.3868C17.3298 14.4514 17.2674 14.5353 17.2287 14.6385L15.8735 18.6524C15.8434 18.7384 15.8541 18.818 15.9058 18.8912Z" fill="currentColor"/>
</svg>
