<svg width="24" height="24" viewBox="0 0 24 24" fill="none" xmlns="http://www.w3.org/2000/svg">
<path fill-rule="evenodd" clip-rule="evenodd" d="M3 20V4C3 2.34315 4.34315 1 6 1H13.7564C14.2919 1 14.805 1.21471 15.1808 1.59605L20.4244 6.91602C20.7932 7.29023 21 7.79454 21 8.31997V20C21 21.6569 19.6569 23 18 23H6C4.34315 23 3 21.6569 3 20ZM15 6V3L19 7H16C15.4477 7 15 6.55228 15 6ZM9.10159 16.5239V15.1304C9.10159 15.0963 9.11864 15.075 9.15273 15.0665C9.28057 15.0452 9.39776 15.0345 9.50429 15.0345C10.1478 15.0345 10.4695 15.2881 10.4695 15.7952C10.4695 16.0509 10.3843 16.2511 10.2138 16.396C10.0476 16.5367 9.81111 16.607 9.50429 16.607C9.41906 16.607 9.30401 16.5984 9.15912 16.5814C9.12077 16.5729 9.10159 16.5537 9.10159 16.5239ZM8.14279 18.8314C8.21523 18.9038 8.30046 18.9401 8.39847 18.9401H8.73725C8.83526 18.9401 8.92048 18.9038 8.99293 18.8314C9.06537 18.759 9.10159 18.6737 9.10159 18.5757V17.4379C9.10159 17.4038 9.12077 17.3868 9.15912 17.3868C9.29974 17.3996 9.45102 17.406 9.61295 17.406C10.2266 17.406 10.6911 17.2654 11.0064 16.9841C11.326 16.6986 11.4858 16.281 11.4858 15.7313C11.4858 14.7171 10.804 14.21 9.44037 14.21C9.10372 14.21 8.75429 14.227 8.39208 14.2611C8.2898 14.2696 8.20458 14.3144 8.13639 14.3953C8.06821 14.4763 8.03412 14.5679 8.03412 14.6702V18.5757C8.03412 18.6737 8.07034 18.759 8.14279 18.8314ZM4.0455 18.6332C4.09237 18.727 4.16481 18.793 4.26283 18.8314C4.56112 18.9465 4.87646 19.004 5.20885 19.004C5.89492 19.004 6.38498 18.857 6.67901 18.5629C6.97731 18.2646 7.12645 17.7511 7.12645 17.0225V14.6382C7.12645 14.5402 7.09023 14.455 7.01779 14.3825C6.94961 14.3101 6.86651 14.2739 6.7685 14.2739H6.37219C6.26992 14.2739 6.18256 14.3101 6.11012 14.3825C6.04194 14.455 6.00785 14.5402 6.00785 14.6382V16.8946C6.00785 17.2227 5.97802 17.4763 5.91836 17.6553C5.8587 17.8342 5.77134 17.9578 5.65629 18.026C5.54123 18.0942 5.3793 18.1283 5.17049 18.1283C4.96595 18.1283 4.72731 18.0729 4.45459 17.9621C4.36936 17.928 4.28413 17.9301 4.1989 17.9685C4.11794 18.0068 4.06893 18.0707 4.05189 18.1602L4.01354 18.3328C3.98797 18.4351 3.99862 18.5352 4.0455 18.6332ZM12.4958 18.9401C12.3977 18.9401 12.3125 18.9038 12.2401 18.8314C12.1719 18.759 12.1378 18.6737 12.1378 18.5757V14.6382C12.1378 14.5402 12.1719 14.455 12.2401 14.3825C12.3125 14.3101 12.3977 14.2739 12.4958 14.2739H14.7585C14.8565 14.2739 14.9396 14.3101 15.0078 14.3825C15.0803 14.455 15.1165 14.5402 15.1165 14.6382V14.7852C15.1165 14.8833 15.0803 14.9685 15.0078 15.0409C14.9396 15.1134 14.8565 15.1496 14.7585 15.1496H13.2756C13.2415 15.1496 13.2244 15.1666 13.2244 15.2007V16.0445C13.2244 16.0828 13.2415 16.102 13.2756 16.102H14.6307C14.7287 16.102 14.8118 16.1382 14.88 16.2107C14.9524 16.2831 14.9886 16.3683 14.9886 16.4663V16.5622C14.9886 16.6602 14.9524 16.7455 14.88 16.8179C14.8118 16.8904 14.7287 16.9266 14.6307 16.9266H13.2756C13.2415 16.9266 13.2244 16.9436 13.2244 16.9777V18.0132C13.2244 18.0473 13.2415 18.0644 13.2756 18.0644H14.7585C14.8565 18.0644 14.9396 18.1006 15.0078 18.173C15.0803 18.2455 15.1165 18.3307 15.1165 18.4287V18.5757C15.1165 18.6737 15.0803 18.759 15.0078 18.8314C14.9396 18.9038 14.8565 18.9401 14.7585 18.9401H12.4958ZM16.4269 18.3584C16.8913 18.7888 17.5114 19.004 18.2869 19.004C18.7685 19.004 19.2266 18.9358 19.6612 18.7994C19.7635 18.7696 19.8445 18.7099 19.9041 18.6205C19.968 18.5267 20 18.4244 20 18.3136V16.4663C20 16.3683 19.9638 16.2831 19.8913 16.2107C19.8189 16.1382 19.7337 16.102 19.6357 16.102H18.1974C18.0994 16.102 18.0142 16.1382 17.9418 16.2107C17.8736 16.2831 17.8395 16.3683 17.8395 16.4663V16.5622C17.8395 16.6602 17.8736 16.7455 17.9418 16.8179C18.0142 16.8904 18.0994 16.9266 18.1974 16.9266H18.9134C18.9474 16.9266 18.9645 16.9436 18.9645 16.9777V17.994C18.9645 18.0281 18.9474 18.0516 18.9134 18.0644C18.7642 18.1155 18.5895 18.1411 18.3892 18.1411C17.9162 18.1411 17.5391 18.0047 17.2578 17.732C16.9808 17.4592 16.8423 17.0842 16.8423 16.607C16.8423 16.1254 16.9766 15.7504 17.245 15.482C17.5135 15.2092 17.8885 15.0729 18.37 15.0729C18.6598 15.0729 18.9325 15.1325 19.1882 15.2519C19.2734 15.2902 19.3608 15.2923 19.4503 15.2583C19.5398 15.2242 19.6016 15.1645 19.6357 15.0793L19.6804 14.977C19.7188 14.879 19.7209 14.7789 19.6868 14.6766C19.6527 14.5743 19.5888 14.5019 19.495 14.4593C19.1371 14.2931 18.7259 14.21 18.2614 14.21C17.473 14.21 16.8551 14.4252 16.4077 14.8556C15.9602 15.2817 15.7365 15.8655 15.7365 16.607C15.7365 17.3399 15.9666 17.9237 16.4269 18.3584Z" fill="currentColor"/>
</svg>
