<svg width="24" height="24" viewBox="0 0 24 24" fill="none" xmlns="http://www.w3.org/2000/svg">
<path fill-rule="evenodd" clip-rule="evenodd" d="M3 20V4C3 2.34315 4.34315 1 6 1H13.7564C14.2919 1 14.805 1.21471 15.1808 1.59605L20.4244 6.91602C20.7932 7.29023 21 7.79454 21 8.31997V20C21 21.6569 19.6569 23 18 23H6C4.34315 23 3 21.6569 3 20ZM15 6V3L19 7H16C15.4477 7 15 6.55228 15 6ZM5.41824 14.6746C5.30573 14.6746 5.2079 14.633 5.12474 14.5499C5.04158 14.4667 5 14.3689 5 14.2564V14.0582C5 13.9457 5.04158 13.8479 5.12474 13.7647C5.2079 13.6816 5.30573 13.64 5.41824 13.64H8.83753C8.95004 13.64 9.04787 13.6816 9.13103 13.7647C9.21419 13.8479 9.25577 13.9457 9.25577 14.0582V14.2564C9.25577 14.3689 9.21419 14.4667 9.13103 14.5499C9.04787 14.633 8.95004 14.6746 8.83753 14.6746H7.82495C7.78581 14.6746 7.76625 14.6942 7.76625 14.7333V18.5782C7.76625 18.6907 7.72467 18.7885 7.64151 18.8717C7.55835 18.9548 7.46052 18.9964 7.34801 18.9964H6.90776C6.79525 18.9964 6.69741 18.9548 6.61426 18.8717C6.5311 18.7885 6.48952 18.6907 6.48952 18.5782V14.7333C6.48952 14.6942 6.46995 14.6746 6.43082 14.6746H5.41824ZM10.1436 18.9964C10.0507 18.9964 9.97973 18.9573 9.93082 18.879C9.8819 18.7958 9.87946 18.7127 9.92348 18.6295L11.1415 16.3402C11.1562 16.3011 11.1562 16.2619 11.1415 16.2228L9.96017 14.0069C9.91614 13.9237 9.91859 13.843 9.96751 13.7647C10.0164 13.6816 10.0874 13.64 10.1803 13.64H10.7159C10.8431 13.64 10.9605 13.6767 11.0681 13.7501C11.1758 13.8185 11.254 13.909 11.3029 14.0216L12.0073 15.5551C12.0073 15.56 12.0098 15.5624 12.0147 15.5624C12.0196 15.5624 12.022 15.56 12.022 15.5551L12.7264 14.0216C12.7802 13.909 12.8609 13.8185 12.9686 13.7501C13.0762 13.6767 13.1911 13.64 13.3134 13.64H13.8197C13.9175 13.64 13.9885 13.6816 14.0325 13.7647C14.0814 13.843 14.0839 13.9237 14.0398 14.0069L12.8585 16.2228C12.8438 16.2619 12.8438 16.3011 12.8585 16.3402L14.0765 18.6295C14.1205 18.7127 14.1181 18.7958 14.0692 18.879C14.0252 18.9573 13.9542 18.9964 13.8564 18.9964H13.2914C13.1691 18.9964 13.0542 18.9622 12.9465 18.8937C12.8389 18.8203 12.7582 18.7274 12.7044 18.6148L11.9927 17.0079C11.9927 17.003 11.9902 17.0006 11.9853 17.0006C11.9804 17.0006 11.978 17.003 11.978 17.0079L11.2662 18.6148C11.2173 18.7274 11.1391 18.8203 11.0314 18.8937C10.9238 18.9622 10.8064 18.9964 10.6792 18.9964H10.1436ZM14.869 14.5499C14.9521 14.633 15.05 14.6746 15.1625 14.6746H16.1751C16.2142 14.6746 16.2338 14.6942 16.2338 14.7333V18.5782C16.2338 18.6907 16.2753 18.7885 16.3585 18.8717C16.4416 18.9548 16.5395 18.9964 16.652 18.9964H17.0922C17.2048 18.9964 17.3026 18.9548 17.3857 18.8717C17.4689 18.7885 17.5105 18.6907 17.5105 18.5782V14.7333C17.5105 14.6942 17.53 14.6746 17.5692 14.6746H18.5818C18.6943 14.6746 18.7921 14.633 18.8753 14.5499C18.9584 14.4667 19 14.3689 19 14.2564V14.0582C19 13.9457 18.9584 13.8479 18.8753 13.7647C18.7921 13.6816 18.6943 13.64 18.5818 13.64H15.1625C15.05 13.64 14.9521 13.6816 14.869 13.7647C14.7858 13.8479 14.7442 13.9457 14.7442 14.0582V14.2564C14.7442 14.3689 14.7858 14.4667 14.869 14.5499Z" fill="currentColor"/>
</svg>
