<svg width="24" height="24" viewBox="0 0 24 24" fill="none" xmlns="http://www.w3.org/2000/svg">
<path fill-rule="evenodd" clip-rule="evenodd" d="M3 20V4C3 2.34315 4.34315 1 6 1H13.7564C14.2919 1 14.805 1.21471 15.1808 1.59605L20.4244 6.91602C20.7932 7.29023 21 7.79454 21 8.31997V20C21 21.6569 19.6569 23 18 23H6C4.34315 23 3 21.6569 3 20ZM15 6V3L19 7H16C15.4477 7 15 6.55228 15 6ZM5.32935 14.1463V15.8816C5.32935 15.9187 5.35323 15.9426 5.401 15.9532C5.58143 15.9745 5.72471 15.9851 5.83085 15.9851C6.21294 15.9851 6.50746 15.8975 6.71443 15.7224C6.9267 15.542 7.03284 15.2925 7.03284 14.9741C7.03284 14.3426 6.63217 14.0269 5.83085 14.0269C5.69818 14.0269 5.55224 14.0401 5.39303 14.0667C5.35058 14.0773 5.32935 14.1038 5.32935 14.1463ZM4.45373 18.8905C4.33167 18.8905 4.22554 18.8454 4.13532 18.7552C4.04511 18.665 4 18.5589 4 18.4368V13.5731C4 13.4458 4.04245 13.3317 4.12736 13.2308C4.21227 13.13 4.31841 13.0743 4.44577 13.0637C4.89685 13.0212 5.33201 13 5.75124 13C7.44942 13 8.29851 13.6315 8.29851 14.8945C8.29851 15.5791 8.0995 16.0992 7.70149 16.4547C7.30879 16.805 6.73035 16.9801 5.96617 16.9801C5.76451 16.9801 5.57612 16.9721 5.401 16.9562C5.35323 16.9562 5.32935 16.9774 5.32935 17.0199V18.4368C5.32935 18.5589 5.28425 18.665 5.19403 18.7552C5.10381 18.8454 4.99768 18.8905 4.87562 18.8905H4.45373ZM9.56418 18.8905C9.44212 18.8905 9.33599 18.8454 9.24577 18.7552C9.15556 18.665 9.11045 18.5589 9.11045 18.4368V13.5333C9.11045 13.4113 9.15556 13.3051 9.24577 13.2149C9.33599 13.1247 9.44212 13.0796 9.56418 13.0796H9.98607C10.2833 13.0796 10.5088 13.2096 10.6627 13.4697L12.4935 16.6378C12.4935 16.6431 12.4988 16.6458 12.5095 16.6458C12.5148 16.6458 12.5174 16.6431 12.5174 16.6378V13.5333C12.5174 13.4113 12.5599 13.3051 12.6448 13.2149C12.735 13.1247 12.8411 13.0796 12.9632 13.0796H13.3851C13.5071 13.0796 13.6133 13.1247 13.7035 13.2149C13.7937 13.3051 13.8388 13.4113 13.8388 13.5333V18.4368C13.8388 18.5589 13.7937 18.665 13.7035 18.7552C13.6133 18.8454 13.5071 18.8905 13.3851 18.8905H12.9632C12.666 18.8905 12.4405 18.7605 12.2866 18.5005L10.4557 15.3323C10.4557 15.327 10.4504 15.3244 10.4398 15.3244C10.4345 15.3244 10.4318 15.327 10.4318 15.3323V18.4368C10.4318 18.5589 10.3867 18.665 10.2965 18.7552C10.2116 18.8454 10.1081 18.8905 9.98607 18.8905H9.56418ZM15.5502 18.1662C16.1287 18.7022 16.9008 18.9701 17.8667 18.9701C18.4663 18.9701 19.0368 18.8852 19.5781 18.7154C19.7055 18.6783 19.8063 18.604 19.8806 18.4925C19.9602 18.3758 20 18.2484 20 18.1104V15.81C20 15.6879 19.9549 15.5818 19.8647 15.4915C19.7745 15.4013 19.6683 15.3562 19.5463 15.3562H17.7552C17.6332 15.3562 17.527 15.4013 17.4368 15.4915C17.3519 15.5818 17.3095 15.6879 17.3095 15.81V15.9294C17.3095 16.0514 17.3519 16.1575 17.4368 16.2478C17.527 16.338 17.6332 16.3831 17.7552 16.3831H18.6468C18.6892 16.3831 18.7104 16.4043 18.7104 16.4468V17.7124C18.7104 17.7549 18.6892 17.7841 18.6468 17.8C18.461 17.8637 18.2435 17.8955 17.994 17.8955C17.405 17.8955 16.9353 17.7257 16.5851 17.3861C16.2401 17.0464 16.0677 16.5794 16.0677 15.9851C16.0677 15.3854 16.2348 14.9184 16.5692 14.5841C16.9035 14.2444 17.3705 14.0746 17.9701 14.0746C18.331 14.0746 18.6706 14.1489 18.9891 14.2975C19.0952 14.3453 19.204 14.3479 19.3154 14.3055C19.4269 14.263 19.5038 14.1887 19.5463 14.0826L19.602 13.9552C19.6498 13.8332 19.6524 13.7085 19.61 13.5811C19.5675 13.4537 19.4879 13.3635 19.3711 13.3104C18.9254 13.1035 18.4133 13 17.8348 13C16.8531 13 16.0836 13.268 15.5264 13.804C14.9692 14.3347 14.6905 15.0617 14.6905 15.9851C14.6905 16.8978 14.9771 17.6249 15.5502 18.1662Z" fill="currentColor"/>
</svg>
