<svg width="24" height="24" viewBox="0 0 24 24" fill="none" xmlns="http://www.w3.org/2000/svg">
<path fill-rule="evenodd" clip-rule="evenodd" d="M3 20V4C3 2.34315 4.34315 1 6 1H13.7564C14.2919 1 14.805 1.21471 15.1808 1.59605L20.4244 6.91602C20.7932 7.29023 21 7.79454 21 8.31997V20C21 21.6569 19.6569 23 18 23H6C4.34315 23 3 21.6569 3 20ZM15 6V3L19 7H16C15.4477 7 15 6.55228 15 6ZM7.87764 14.2161L7.23675 16.5742C7.23675 16.5907 7.24222 16.6071 7.25318 16.6235C7.26414 16.6345 7.27783 16.64 7.29426 16.64H8.47745C8.49389 16.64 8.50758 16.6345 8.51854 16.6235C8.53497 16.6071 8.54045 16.5907 8.53497 16.5742L7.89407 14.2161C7.89407 14.2106 7.89134 14.2078 7.88586 14.2078C7.88038 14.2078 7.87764 14.2106 7.87764 14.2161ZM5.60164 18.9981C5.48661 18.9981 5.39623 18.9516 5.33049 18.8584C5.26476 18.7653 5.25107 18.664 5.28941 18.5544L7.0149 13.4437C7.0642 13.3122 7.14363 13.2054 7.25318 13.1232C7.36821 13.0411 7.4942 13 7.63114 13H8.17344C8.31586 13 8.44185 13.0411 8.5514 13.1232C8.66644 13.2054 8.74586 13.3122 8.78969 13.4437L10.5234 18.5544C10.5617 18.664 10.5453 18.7653 10.4741 18.8584C10.4084 18.9516 10.318 18.9981 10.2029 18.9981H9.65243C9.52096 18.9981 9.39771 18.957 9.28268 18.8749C9.17313 18.7872 9.09918 18.6777 9.06083 18.5462L8.85542 17.7656C8.84994 17.7218 8.81981 17.6999 8.76504 17.6999H7.00668C6.95738 17.6999 6.92725 17.7218 6.9163 17.7656L6.71088 18.5462C6.67802 18.6777 6.60407 18.7872 6.48904 18.8749C6.37948 18.957 6.25623 18.9981 6.11929 18.9981H5.60164ZM12.7172 18.5544L10.9835 13.4437C10.9452 13.3341 10.9589 13.2328 11.0246 13.1397C11.0958 13.0466 11.1889 13 11.304 13H11.8545C11.9914 13 12.1147 13.0438 12.2242 13.1315C12.3338 13.2136 12.4077 13.3204 12.4461 13.4519L13.5964 17.6506C13.5964 17.6561 13.5991 17.6588 13.6046 17.6588C13.6101 17.6588 13.6128 17.6561 13.6128 17.6506L14.796 13.4519C14.8344 13.3204 14.9083 13.2136 15.0179 13.1315C15.1274 13.0438 15.2507 13 15.3876 13H15.9053C16.0203 13 16.1107 13.0466 16.1764 13.1397C16.2476 13.2328 16.2641 13.3341 16.2257 13.4437L14.492 18.5544C14.4482 18.6859 14.3688 18.7927 14.2537 18.8749C14.1442 18.957 14.0182 18.9981 13.8758 18.9981H13.3335C13.1965 18.9981 13.0705 18.957 12.9555 18.8749C12.8405 18.7927 12.761 18.6859 12.7172 18.5544ZM17.335 18.8584C17.4281 18.9516 17.5376 18.9981 17.6636 18.9981H18.2716C18.3976 18.9981 18.5045 18.9516 18.5921 18.8584C18.6852 18.7653 18.7318 18.6558 18.7318 18.5298V13.4683C18.7318 13.3424 18.6852 13.2328 18.5921 13.1397C18.5045 13.0466 18.3976 13 18.2716 13H17.6636C17.5376 13 17.4281 13.0466 17.335 13.1397C17.2473 13.2328 17.2035 13.3424 17.2035 13.4683V18.5298C17.2035 18.6558 17.2473 18.7653 17.335 18.8584Z" fill="currentColor"/>
</svg>
