<svg width="24" height="24" viewBox="0 0 24 24" fill="none" xmlns="http://www.w3.org/2000/svg">
<path fill-rule="evenodd" clip-rule="evenodd" d="M3 20V4C3 2.34315 4.34315 1 6 1H13.7564C14.2919 1 14.805 1.21471 15.1808 1.59605L20.4244 6.91602C20.7932 7.29023 21 7.79454 21 8.31997V20C21 21.6569 19.6569 23 18 23H6C4.34315 23 3 21.6569 3 20ZM15 6V3L19 7H16C15.4477 7 15 6.55228 15 6ZM8 11C6.89543 11 6 11.8954 6 13V19C6 20.1046 6.89543 21 8 21H11H16C17.1046 21 18 20.1046 18 19V13C18 11.8954 17.1046 11 16 11H8ZM16 19H12V17H16V19ZM10 19V17H8V19H10ZM16 15H12V13H16V15ZM10 15V13H8V15H10Z" fill="currentColor"/>
</svg>
