<svg width="24" height="24" viewBox="0 0 24 24" fill="none" xmlns="http://www.w3.org/2000/svg">
<path fill-rule="evenodd" clip-rule="evenodd" d="M3 20V4C3 2.34315 4.34315 1 6 1H13.7564C14.2919 1 14.805 1.21471 15.1808 1.59605L20.4244 6.91602C20.7932 7.29023 21 7.79454 21 8.31997V20C21 21.6569 19.6569 23 18 23H6C4.34315 23 3 21.6569 3 20ZM15 6V3L19 7H16C15.4477 7 15 6.55228 15 6ZM4.097 18.8985C4.16167 18.9631 4.23776 18.9955 4.32525 18.9955H4.6505C4.73799 18.9955 4.81217 18.9631 4.87304 18.8985C4.93771 18.8338 4.97004 18.7577 4.97004 18.6702V17.2437C4.97004 17.2133 4.98716 17.198 5.0214 17.198H6.36805C6.40228 17.198 6.4194 17.2133 6.4194 17.2437V18.6702C6.4194 18.7577 6.44983 18.8338 6.5107 18.8985C6.57537 18.9631 6.65145 18.9955 6.73894 18.9955H7.06419C7.15169 18.9955 7.22777 18.9631 7.29244 18.8985C7.35711 18.8338 7.38944 18.7577 7.38944 18.6702V15.1552C7.38944 15.0678 7.35711 14.9917 7.29244 14.927C7.22777 14.8623 7.15169 14.83 7.06419 14.83H6.73894C6.65145 14.83 6.57537 14.8623 6.5107 14.927C6.44983 14.9917 6.4194 15.0678 6.4194 15.1552V16.4106C6.4194 16.4448 6.40228 16.462 6.36805 16.462H5.0214C4.98716 16.462 4.97004 16.4448 4.97004 16.4106V15.1552C4.97004 15.0678 4.93771 14.9917 4.87304 14.927C4.81217 14.8623 4.73799 14.83 4.6505 14.83H4.32525C4.23776 14.83 4.16167 14.8623 4.097 14.927C4.03233 14.9917 4 15.0678 4 15.1552V18.6702C4 18.7577 4.03233 18.8338 4.097 18.8985ZM8.21113 15.5376C8.2758 15.6022 8.35188 15.6346 8.43937 15.6346H9.22682C9.25725 15.6346 9.27247 15.6498 9.27247 15.6802V18.6702C9.27247 18.7577 9.3048 18.8338 9.36947 18.8985C9.43414 18.9631 9.51022 18.9955 9.59772 18.9955H9.94009C10.0276 18.9955 10.1037 18.9631 10.1683 18.8985C10.233 18.8338 10.2653 18.7577 10.2653 18.6702V15.6802C10.2653 15.6498 10.2806 15.6346 10.311 15.6346H11.0984C11.1859 15.6346 11.262 15.6022 11.3267 15.5376C11.3913 15.4729 11.4237 15.3968 11.4237 15.3093V15.1552C11.4237 15.0678 11.3913 14.9917 11.3267 14.927C11.262 14.8623 11.1859 14.83 11.0984 14.83H8.43937C8.35188 14.83 8.2758 14.8623 8.21113 14.927C8.14646 14.9917 8.11412 15.0678 8.11412 15.1552V15.3093C8.11412 15.3968 8.14646 15.4729 8.21113 15.5376ZM12.4736 18.9955C12.3861 18.9955 12.31 18.9631 12.2454 18.8985C12.1807 18.8338 12.1484 18.7577 12.1484 18.6702V15.1552C12.1484 15.0678 12.1807 14.9917 12.2454 14.927C12.31 14.8623 12.3861 14.83 12.4736 14.83H12.816C12.9111 14.83 13.0005 14.8585 13.0842 14.9156C13.1679 14.9688 13.2306 15.0392 13.2725 15.1267L14.2425 17.2779C14.2425 17.2817 14.2444 17.2836 14.2482 17.2836C14.252 17.2836 14.2539 17.2817 14.2539 17.2779L15.224 15.1267C15.2658 15.0392 15.3286 14.9688 15.4123 14.9156C15.496 14.8585 15.5854 14.83 15.6805 14.83H16.0456C16.1331 14.83 16.2092 14.8623 16.2739 14.927C16.3386 14.9917 16.3709 15.0678 16.3709 15.1552V18.6702C16.3709 18.7577 16.3386 18.8338 16.2739 18.8985C16.2092 18.9631 16.1331 18.9955 16.0456 18.9955H15.7546C15.6671 18.9955 15.5911 18.9631 15.5264 18.8985C15.4617 18.8338 15.4294 18.7577 15.4294 18.6702V16.4505C15.4294 16.4467 15.4275 16.4448 15.4237 16.4448C15.4199 16.4448 15.418 16.4467 15.418 16.4505L14.8188 17.7515C14.7808 17.839 14.7199 17.9094 14.6362 17.9627C14.5525 18.0159 14.4612 18.0426 14.3623 18.0426H14.1341C14.0352 18.0426 13.9439 18.0159 13.8602 17.9627C13.7765 17.9094 13.7156 17.839 13.6776 17.7515L13.0785 16.4505C13.0785 16.4467 13.0766 16.4448 13.0728 16.4448C13.0689 16.4448 13.067 16.4467 13.067 16.4505V18.6702C13.067 18.7577 13.0347 18.8338 12.97 18.8985C12.9054 18.9631 12.8293 18.9955 12.7418 18.9955H12.4736ZM17.3352 18.8985C17.3999 18.9631 17.476 18.9955 17.5635 18.9955H19.6748C19.7622 18.9955 19.8383 18.9631 19.903 18.8985C19.9677 18.8338 20 18.7577 20 18.6702V18.5162C20 18.4287 19.9677 18.3526 19.903 18.2879C19.8383 18.2232 19.7622 18.1909 19.6748 18.1909H18.2882C18.2539 18.1909 18.2368 18.1757 18.2368 18.1453V15.1552C18.2368 15.0678 18.2045 14.9917 18.1398 14.927C18.0789 14.8623 18.0048 14.83 17.9173 14.83H17.5635C17.476 14.83 17.3999 14.8623 17.3352 14.927C17.2706 14.9917 17.2382 15.0678 17.2382 15.1552V18.6702C17.2382 18.7577 17.2706 18.8338 17.3352 18.8985Z" fill="currentColor"/>
</svg>
