<svg width="24" height="24" viewBox="0 0 24 24" fill="none" xmlns="http://www.w3.org/2000/svg">
<path fill-rule="evenodd" clip-rule="evenodd" d="M2 4V20C2 21.6569 3.34315 23 5 23H17C18.6569 23 20 21.6569 20 20V19.3452L19.2622 20.083C19.1981 20.1471 19.1178 20.1925 19.0299 20.2145L17.1017 20.6966C16.3362 20.8879 15.6239 20.4269 15.4066 19.7554C15.3863 19.7564 15.3468 19.7395 15.3356 19.7344C15.3221 19.7285 15.2791 19.7108 15.2706 19.7079C15.2672 19.7068 15.2613 19.7069 15.2549 19.7071C15.2449 19.7073 15.2335 19.7076 15.2279 19.7031C15.2187 19.6958 15.1797 19.7129 15.1696 19.7187C15.1594 19.7246 15.0956 19.7097 15.0463 19.6912L15.0026 19.6713L14.9977 19.6691C14.9964 19.6535 14.9884 19.6478 14.98 19.6567C14.9717 19.6656 14.9199 19.6787 14.8876 19.6618C14.8553 19.6449 14.776 19.5361 14.7654 19.4959L14.7195 19.4826L14.6969 19.4762C14.6812 19.4292 14.6605 19.3761 14.6509 19.3583C14.6412 19.3403 14.6042 19.2736 14.5851 19.252C14.5718 19.2369 14.5659 19.191 14.5624 19.1639C14.5609 19.1525 14.5589 19.1435 14.5589 19.1435C14.5557 19.1402 14.5397 19.1287 14.5319 19.1246C14.5239 19.1207 14.4988 19.0749 14.4769 19.034L14.4343 19.0147C14.4129 19.0049 14.3946 18.9872 14.3761 18.9694C14.3629 18.9566 14.3496 18.9438 14.335 18.9337C14.3287 18.9294 14.318 18.9335 14.307 18.9377C14.3007 18.9401 14.2944 18.9425 14.2886 18.9435C14.2787 18.9452 14.2687 18.9463 14.2587 18.9474C14.243 18.9492 14.2273 18.951 14.212 18.955L14.1928 18.9599L14.1852 18.9618C14.1573 18.9746 14.1242 18.989 14.1118 18.9939C14.0994 18.9987 14.0607 18.9914 14.0492 18.9849C14.0437 18.9818 14.0341 18.988 14.0233 18.9949C14.0115 19.0025 13.9981 19.011 13.9874 19.009L13.9686 19.0076L13.9552 19.0064L13.9506 19.0059C13.9317 19.0038 13.9126 19.0017 13.8955 19.007L13.8539 19.02C13.8081 19.0349 13.7566 19.0477 13.7396 19.0485C13.7301 19.0489 13.7195 19.0655 13.7096 19.0811C13.7017 19.0936 13.6942 19.1055 13.688 19.1077C13.6744 19.1127 13.6248 19.1269 13.6083 19.128C13.5919 19.1291 13.5343 19.1479 13.5097 19.1619C13.4912 19.1724 13.4429 19.1764 13.4185 19.1785C13.4104 19.1791 13.404 19.18 13.404 19.18C13.4017 19.181 13.396 19.1866 13.3892 19.1932C13.3845 19.1978 13.3792 19.203 13.3743 19.2074C13.3683 19.2128 13.3516 19.2209 13.3349 19.229C13.3182 19.2371 13.3013 19.2453 13.2944 19.2511C13.2861 19.258 13.2594 19.2644 13.2341 19.2704C13.217 19.2745 13.2005 19.2784 13.1909 19.2822C13.1832 19.2853 13.1702 19.2913 13.1558 19.298C13.1262 19.3118 13.0904 19.3284 13.0801 19.3287C13.0764 19.3289 13.071 19.33 13.0645 19.3313C13.0439 19.3354 13.0122 19.3418 12.99 19.3272L12.9982 19.3863C12.9987 19.3893 12.9893 19.3973 12.984 19.3978L12.9546 19.401C12.9312 19.4225 12.8958 19.4459 12.8758 19.4529C12.8672 19.456 12.8488 19.462 12.8289 19.4684C12.803 19.4768 12.7745 19.486 12.7619 19.4908C12.7397 19.4994 12.6722 19.5239 12.6618 19.5275C12.6594 19.5283 12.656 19.5302 12.6521 19.5325C12.6393 19.5398 12.6205 19.5507 12.6074 19.538C12.5947 19.5256 12.5719 19.5605 12.5574 19.5826C12.5523 19.5904 12.5482 19.5967 12.546 19.5987L12.539 19.5973C12.514 19.5922 12.4942 19.6038 12.4744 19.6154C12.4639 19.6216 12.4534 19.6277 12.4422 19.6313L12.4254 19.6367C12.4117 19.6481 12.3952 19.6566 12.3889 19.6557C12.3824 19.6547 12.3655 19.6632 12.3655 19.6767C12.3655 19.6848 12.3527 19.6816 12.341 19.6787C12.3334 19.6768 12.3263 19.675 12.3236 19.6766C12.3167 19.6804 12.2749 19.6812 12.2476 19.6751L12.2401 19.7223L12.2375 19.7389L12.2364 19.7457C12.2025 19.75 12.1526 19.7576 12.1255 19.7628C12.1106 19.7655 12.084 19.7805 12.0618 19.793C12.0437 19.8033 12.0286 19.8118 12.0254 19.8105C12.0183 19.8078 11.9481 19.8066 11.886 19.8153L11.8672 19.8943L11.8595 19.927C11.8461 19.9066 11.8197 19.8968 11.8009 19.9051C11.782 19.9132 11.7155 19.9476 11.6964 19.9689L11.6774 19.9317C11.6763 19.9298 11.6588 19.9346 11.6523 19.9406L11.6181 19.9734C11.5788 19.9853 11.5341 20.0042 11.5188 20.0156C11.5127 20.0202 11.4991 20.0217 11.4833 20.0233C11.4598 20.0258 11.4315 20.0288 11.4161 20.0434L11.3823 20.0425C11.3737 20.0422 11.3736 20.0509 11.3736 20.06C11.3736 20.0718 11.3736 20.0842 11.3541 20.0778L11.341 20.0735C11.3258 20.0734 11.3064 20.0805 11.2979 20.0892C11.2937 20.0936 11.2842 20.0908 11.2741 20.0879C11.2641 20.085 11.2536 20.0819 11.2473 20.0857C11.2348 20.0934 11.1935 20.1324 11.1845 20.1581L11.1511 20.1421L11.1409 20.1372C11.12 20.1571 11.0895 20.1745 11.0731 20.1759L11.0593 20.1741L11.041 20.1715C11.0217 20.174 10.9558 20.1922 10.8944 20.2124L10.8439 20.2456C10.8413 20.2473 10.8392 20.2497 10.8372 20.2521C10.8317 20.2586 10.8267 20.2645 10.8151 20.2521L10.7971 20.2328C10.7861 20.2522 10.7659 20.2759 10.7523 20.2854L10.7382 20.2858L10.7088 20.2867C10.6819 20.3034 10.6578 20.3202 10.6551 20.3239C10.6523 20.3275 10.6167 20.3373 10.5814 20.3463L10.5496 20.3683L10.5208 20.3881C10.482 20.4054 10.4462 20.4128 10.4412 20.4046C10.4388 20.4006 10.4302 20.4008 10.4206 20.401C10.4107 20.4012 10.3998 20.4014 10.3943 20.3969C10.3881 20.3919 10.381 20.404 10.3739 20.4161C10.3683 20.4256 10.3627 20.4352 10.3575 20.4363L10.3462 20.4358L10.3391 20.4356C10.3314 20.4304 10.3102 20.4391 10.2919 20.4549L10.2731 20.4671C10.2515 20.4811 10.2328 20.4846 10.2104 20.4869L10.1989 20.4881C10.1869 20.4965 10.1612 20.5216 10.1418 20.5437C10.1285 20.5589 10.0863 20.548 10.0566 20.5403C10.0432 20.5369 10.0324 20.5341 10.0278 20.5346C10.0201 20.5355 10.0053 20.5441 9.99054 20.5527C9.97756 20.5603 9.96461 20.5679 9.95668 20.57L9.94475 20.5734C9.92162 20.5802 9.88154 20.592 9.86894 20.5892C9.86104 20.5874 9.85038 20.5999 9.83941 20.6127C9.82924 20.6246 9.8188 20.6368 9.81009 20.6382C9.79198 20.6414 9.74214 20.6258 9.73195 20.6186C9.72571 20.6143 9.71253 20.6287 9.69966 20.6428C9.69121 20.6521 9.68289 20.6612 9.67676 20.6648C9.66122 20.6739 9.64217 20.6669 9.6352 20.6576C9.62831 20.6483 9.58675 20.669 9.57246 20.6787C9.5581 20.6884 9.51507 20.7023 9.50899 20.6884C9.50298 20.6746 9.45841 20.7016 9.44676 20.7095L9.44493 20.7073C9.42232 20.68 9.40931 20.6953 9.39614 20.7108C9.39287 20.7147 9.38958 20.7185 9.38614 20.7218L9.38328 20.7245C9.37749 20.7234 9.36467 20.7296 9.35485 20.7382C9.34495 20.7469 9.31571 20.722 9.313 20.7151C9.31028 20.7083 9.29108 20.6994 9.27854 20.7175C9.26601 20.7358 9.21581 20.7187 9.21815 20.7132C9.22057 20.7076 9.21133 20.6973 9.19242 20.7025C9.17685 20.7069 9.13404 20.6936 9.11233 20.6868L9.10175 20.6836C9.09318 20.6813 9.06826 20.6824 9.04861 20.6833C9.03936 20.6837 9.03127 20.6841 9.02663 20.684L9.02229 20.684C8.99894 20.6839 8.91559 20.6835 8.85475 20.6807C8.78915 20.6778 8.63362 20.6289 8.62643 20.612C8.62194 20.6016 8.59144 20.5925 8.5619 20.5837C8.54374 20.5782 8.52588 20.5729 8.51473 20.5675L8.50095 20.5431L8.48365 20.513C8.45741 20.4922 8.4333 20.4711 8.43007 20.4657C8.42685 20.4605 8.40244 20.4446 8.38602 20.4355C8.3752 20.4293 8.35524 20.4029 8.33949 20.382C8.33146 20.3713 8.32451 20.3621 8.32042 20.3578C8.31401 20.351 8.31098 20.3298 8.30798 20.3089C8.30535 20.2906 8.30274 20.2724 8.29792 20.2642C8.28751 20.2467 8.27175 20.1853 8.27586 20.1718C8.27843 20.1633 8.26564 20.1548 8.25559 20.1482C8.24957 20.1442 8.24453 20.1408 8.24434 20.1385L8.24595 20.134C8.25812 20.1003 8.24229 20.0785 8.21861 20.0654L8.20579 20.0583C8.20828 20.0509 8.22228 20.035 8.23672 20.0229L8.23928 20.001L8.24104 19.9862C8.25372 19.9591 8.25145 19.9463 8.23591 19.9574C8.22044 19.9688 8.18482 19.99 8.18189 19.9863C8.1795 19.9834 8.18916 19.9518 8.19587 19.9298L8.19978 19.9169C8.20542 19.8977 8.17485 19.8476 8.1695 19.8391C8.16802 19.8368 8.16667 19.8325 8.16505 19.8274C8.1609 19.8143 8.15495 19.7956 8.14041 19.7882L8.14121 19.7824L8.14693 19.7438C8.13234 19.7087 8.11438 19.6497 8.10706 19.6126C8.10274 19.591 8.0838 19.5465 8.06774 19.5087C8.05621 19.4816 8.04618 19.458 8.0441 19.4489L8.03786 19.4295L8.02812 19.3993C8.01309 19.3683 7.98795 19.28 7.97212 19.2033L7.97241 19.1965C7.97272 19.1883 7.97357 19.1798 7.97442 19.1714C7.97639 19.1518 7.97837 19.132 7.97366 19.1146L7.94954 19.0252C7.96135 18.9272 7.96655 18.8349 7.96105 18.82L7.96376 18.8074L7.96743 18.791C7.97439 18.7739 7.98451 18.7219 7.98986 18.6758L8.05289 18.5953L8.05524 18.5924C8.0537 18.5858 8.05626 18.5699 8.06095 18.5572C8.06285 18.5519 8.06175 18.5429 8.06061 18.5336C8.05903 18.5207 8.05737 18.5072 8.06374 18.5025C8.06954 18.4981 8.07932 18.4748 8.09077 18.4474C8.10058 18.424 8.11163 18.3977 8.12245 18.3778L8.13586 18.3379C8.13774 18.3323 8.1394 18.3267 8.14105 18.3211C8.14743 18.2995 8.15355 18.2788 8.17068 18.2655L8.20366 18.2397C8.20044 18.1969 8.20689 18.1599 8.2181 18.1575C8.22932 18.155 8.25841 18.1427 8.24918 18.1378C8.23994 18.1329 8.22184 18.1173 8.22931 18.1143C8.23679 18.1113 8.25423 18.1013 8.25321 18.0983C8.25218 18.0952 8.23921 18.0818 8.22822 18.0736C8.21722 18.0654 8.16232 18.0827 8.14026 18.0924C8.1347 18.0949 8.12549 18.0992 8.11436 18.1044C8.08131 18.1198 8.03123 18.1431 8.00877 18.1496C7.99332 18.154 7.96734 18.1705 7.94475 18.1848C7.92339 18.1983 7.90506 18.2099 7.90153 18.2076L7.8945 18.2029L7.82435 18.2301L7.81128 18.2389C7.79981 18.2468 7.78837 18.2546 7.77635 18.2611L7.76528 18.2672C7.75172 18.2727 7.73728 18.291 7.7331 18.3077L7.71346 18.3106L7.70173 18.3124C7.68949 18.3193 7.65321 18.3352 7.6211 18.3475C7.60296 18.3545 7.56578 18.3788 7.53295 18.4002C7.50773 18.4167 7.48499 18.4315 7.47554 18.4355L7.45545 18.4438L7.43831 18.4508C7.41998 18.4596 7.37886 18.4849 7.34698 18.507C7.31509 18.5292 7.20317 18.597 7.17107 18.6134C7.13904 18.6297 7.045 18.683 7.03481 18.6981C7.02451 18.7131 6.97611 18.7364 6.96041 18.7439C6.94487 18.7515 6.88807 18.7765 6.86872 18.7835C6.84937 18.7903 6.79777 18.8131 6.7985 18.8188C6.79924 18.8246 6.76684 18.8617 6.7247 18.8853C6.68248 18.909 6.52643 18.9963 6.47102 19.0266L6.42997 19.0753C6.4217 19.085 6.41395 19.0956 6.40616 19.1061C6.3911 19.1266 6.3759 19.1472 6.35653 19.1629L6.32838 19.1858C6.29841 19.2123 6.25289 19.2575 6.22724 19.2863C6.21084 19.3047 6.16341 19.3321 6.12833 19.3524C6.10869 19.3638 6.09292 19.3729 6.08863 19.3769C6.07676 19.3883 6.03557 19.4095 6.01841 19.4021L6.00368 19.3986L5.97312 19.3913C5.93918 19.385 5.89894 19.3883 5.8837 19.3985C5.87343 19.4053 5.85177 19.3947 5.83787 19.3878C5.83103 19.3844 5.82528 19.383 5.82528 19.383C5.82286 19.3861 5.79648 19.3902 5.77317 19.3904L5.77932 19.3584C5.78034 19.3529 5.78271 19.3478 5.78508 19.3427C5.78698 19.3386 5.78889 19.3344 5.7901 19.3301L5.79368 19.3187C5.80185 19.2937 5.80921 19.2713 5.76738 19.2589C5.74707 19.2529 5.71468 19.2258 5.71944 19.1841C5.7219 19.1627 5.71198 19.1591 5.69764 19.1539L5.69166 19.1517L5.67774 19.1463C5.66865 19.1222 5.63259 19.0673 5.59748 19.0244L5.61998 18.9655L5.62049 18.9642C5.61661 18.9606 5.5889 18.9335 5.559 18.9038L5.55577 18.852L5.55321 18.8105C5.52997 18.7662 5.50813 18.7086 5.50454 18.6828C5.50087 18.6569 5.51143 18.5759 5.52037 18.5582L5.50183 18.5409C5.49889 18.5383 5.49963 18.5236 5.50307 18.5206L5.51377 18.511C5.52741 18.503 5.53173 18.4854 5.52337 18.472L5.53826 18.4564C5.54639 18.448 5.55057 18.4323 5.55218 18.4192C5.55291 18.4135 5.55154 18.4072 5.55021 18.401C5.54859 18.3934 5.54702 18.3861 5.5494 18.3806C5.55372 18.3705 5.56122 18.3621 5.56878 18.3536C5.57287 18.349 5.57699 18.3444 5.58062 18.3395L5.60246 18.3097C5.62672 18.2777 5.63999 18.2384 5.63193 18.2225C5.62683 18.2125 5.64521 18.2018 5.66196 18.192C5.67174 18.1863 5.68095 18.1809 5.68463 18.1762C5.68954 18.1699 5.70227 18.163 5.71374 18.1567C5.72552 18.1502 5.73601 18.1445 5.73535 18.1409C5.73417 18.1338 5.7536 18.1047 5.76598 18.0894C5.77447 18.0788 5.7972 18.0604 5.81247 18.0481C5.81948 18.0424 5.82492 18.038 5.82668 18.0363C5.83092 18.0319 5.8378 18.0134 5.84222 18.0015L5.84536 17.9933C5.84785 17.9871 5.862 17.9728 5.87707 17.9575L5.89176 17.9425C5.90587 17.9278 5.95011 17.9091 5.97743 17.8976C5.98745 17.8933 5.99519 17.8901 5.99833 17.8883C6.00467 17.8848 6.01499 17.8703 6.02519 17.8561C6.03387 17.8439 6.04246 17.8319 6.0484 17.8269C6.05257 17.8234 6.05844 17.8173 6.06455 17.811C6.07717 17.798 6.09089 17.7838 6.09252 17.7891C6.09487 17.7967 6.10622 17.8076 6.10835 17.7836C6.10986 17.7669 6.14034 17.7386 6.16794 17.7129C6.1804 17.7013 6.19227 17.6902 6.20063 17.6811L6.23904 17.7031C6.24197 17.7049 6.25106 17.6976 6.25479 17.6924C6.26645 17.6758 6.2773 17.6586 6.28771 17.6411C6.29789 17.6241 6.30502 17.6288 6.31512 17.6355L6.32119 17.6394L6.32369 17.6408C6.34282 17.651 6.36657 17.6473 6.33908 17.6136C6.33908 17.6136 6.35521 17.589 6.36672 17.5813C6.36985 17.5793 6.3764 17.5823 6.38228 17.585C6.38741 17.5873 6.39203 17.5895 6.3934 17.5878L6.4373 17.5333C6.50239 17.5082 6.56007 17.4781 6.5655 17.4663L6.57297 17.4576L6.57634 17.4536C6.58514 17.4555 6.60662 17.4647 6.62399 17.4745L6.63036 17.4525L6.63301 17.4434L6.63381 17.4406C6.62252 17.4184 6.62377 17.4012 6.63667 17.4023C6.64957 17.4034 6.69237 17.396 6.70593 17.3919C6.71949 17.3879 6.76149 17.3418 6.77791 17.3101L6.79997 17.2948L6.81148 17.2868C6.83823 17.2881 6.89547 17.2786 6.93872 17.2657L6.95008 17.2123C6.95008 17.2123 6.96313 17.212 6.97002 17.2126C6.97373 17.213 6.97784 17.2141 6.98193 17.2152C6.99024 17.2173 6.99845 17.2195 7.00308 17.2158L7.01546 17.206C7.01319 17.1862 7.02675 17.1738 7.04559 17.1784L7.06083 17.174C7.07783 17.1689 7.09341 17.1561 7.108 17.1441L7.12423 17.1306C7.13838 17.1127 7.15568 17.1 7.16271 17.1024C7.16975 17.1047 7.19489 17.0892 7.20772 17.0734L7.22164 17.069L7.23483 17.0649C7.25235 17.0719 7.27595 17.0765 7.28717 17.0748L7.29443 17.0686L7.3074 17.0574C7.31957 17.0422 7.33283 17.0245 7.33686 17.0183C7.34075 17.0119 7.35966 17.007 7.37182 17.0186L7.3804 17.0225L7.40994 17.0363C7.43398 17.0159 7.48155 16.9935 7.51563 16.9864L7.53982 16.9687L7.55455 16.9578C7.57185 16.9403 7.59443 16.9337 7.60476 16.9431C7.61059 16.9484 7.62205 16.9381 7.63359 16.9277C7.64251 16.9197 7.65147 16.9117 7.6579 16.9108L7.66163 16.9103C7.67922 16.9079 7.71952 16.9026 7.73031 16.8913C7.73808 16.8831 7.75782 16.8955 7.77276 16.905C7.7801 16.9096 7.78628 16.9135 7.78932 16.9139C7.79712 16.9147 7.82915 16.8982 7.85421 16.8853L7.86774 16.8784L7.8975 16.8791L7.91527 16.8793C7.93061 16.8793 7.94688 16.8793 7.96017 16.8814C7.97888 16.8844 7.97915 16.8821 7.98093 16.8666L7.98179 16.8596C7.98546 16.853 7.99807 16.8544 8.00957 16.8628C8.01706 16.8682 8.03528 16.8593 8.04985 16.8522C8.05783 16.8483 8.06471 16.845 8.06813 16.8448L8.10381 16.8437C8.13456 16.8429 8.17965 16.8416 8.2192 16.8401C8.2582 16.8387 8.33747 16.8551 8.39508 16.8671C8.43133 16.8746 8.45904 16.8803 8.46269 16.8787C8.47214 16.8745 8.50285 16.8852 8.51597 16.8956L8.53444 16.8823C8.54117 16.8775 8.55085 16.878 8.56064 16.8784C8.5658 16.8787 8.57098 16.8789 8.57578 16.8784C8.58447 16.8775 8.59331 16.8793 8.60223 16.8811C8.62033 16.8847 8.6387 16.8884 8.65648 16.8698L8.65956 16.8666C8.68558 16.8901 8.7086 16.8988 8.71065 16.8858C8.71277 16.8729 8.7654 16.8705 8.78541 16.876C8.80549 16.8813 8.86164 16.9312 8.87681 16.9475C8.89198 16.9635 8.94981 16.9785 8.95458 16.9785C8.95942 16.9786 8.98404 16.9984 9.00852 17.0195C9.03308 17.0406 9.0783 17.1215 9.07244 17.1321C9.06797 17.1402 9.0849 17.1635 9.09589 17.1787C9.09912 17.1831 9.10187 17.1869 9.10337 17.1893C9.11004 17.2001 9.13371 17.2382 9.14177 17.2491C9.14969 17.26 9.16332 17.3101 9.16611 17.3333C9.16889 17.3564 9.18077 17.4254 9.18495 17.4145C9.18898 17.4036 9.19968 17.4008 9.20254 17.4241C9.20341 17.4312 9.20567 17.4435 9.20833 17.4578C9.21439 17.4906 9.22246 17.5342 9.22042 17.5521C9.21749 17.5778 9.24299 17.6654 9.25553 17.7068C9.26792 17.7481 9.30493 17.8622 9.319 17.8655C9.32585 17.8671 9.34163 17.8878 9.3579 17.9091C9.37471 17.9312 9.39205 17.9539 9.40058 17.957C9.40997 17.9605 9.40854 17.9783 9.4072 17.995C9.40613 18.0082 9.40513 18.0208 9.40967 18.0248C9.41993 18.0337 9.43994 18.0622 9.43547 18.0716C9.43093 18.0812 9.43467 18.1106 9.43855 18.1226C9.43947 18.1255 9.44142 18.1343 9.44407 18.1463C9.4524 18.184 9.46763 18.2529 9.4793 18.2671L9.44024 18.2668H9.43738C9.43415 18.2742 9.43049 18.2928 9.42924 18.3079C9.42792 18.323 9.43144 18.3913 9.43613 18.4255L9.41114 18.4562C9.3945 18.4764 9.39003 18.5144 9.38996 18.5444L9.38981 18.5689C9.37552 18.5777 9.35287 18.6045 9.33938 18.6286L9.33191 18.6533L9.32494 18.6759C9.31717 18.7014 9.30435 18.7322 9.29636 18.7445C9.28837 18.7568 9.26799 18.8041 9.26506 18.8197C9.26424 18.8241 9.26248 18.8305 9.26044 18.8379C9.25534 18.8564 9.24847 18.8813 9.25025 18.8979C9.25171 18.9116 9.2323 18.9264 9.21472 18.9398C9.20221 18.9493 9.19064 18.9582 9.18817 18.9654C9.18518 18.9741 9.17553 18.9959 9.16526 19.019C9.15517 19.0418 9.14448 19.0659 9.13892 19.0803C9.1335 19.0943 9.11886 19.1279 9.10297 19.1643C9.08582 19.2036 9.06703 19.2467 9.05705 19.2715L9.03725 19.314C9.02743 19.3351 9.01653 19.3556 9.00564 19.3761C8.99443 19.3971 8.98322 19.4182 8.97319 19.4399L8.96814 19.4509C8.97048 19.4692 8.99929 19.4775 9.0322 19.4691C9.05408 19.4636 9.10068 19.4664 9.13338 19.4684C9.14986 19.4694 9.16281 19.4702 9.16728 19.4696L9.17271 19.4523L9.1815 19.4236C9.19689 19.4367 9.21514 19.4423 9.22203 19.4359C9.22907 19.4297 9.27261 19.4164 9.29841 19.4116C9.30667 19.4101 9.31811 19.4056 9.32997 19.401C9.35502 19.3912 9.38198 19.3807 9.38512 19.3952C9.38848 19.4104 9.41755 19.3969 9.44391 19.3848C9.45425 19.38 9.46418 19.3754 9.47197 19.3728C9.48734 19.3677 9.51573 19.3479 9.54051 19.3306C9.5603 19.3168 9.57778 19.3046 9.58448 19.3028C9.59097 19.3011 9.60275 19.2949 9.61513 19.2883C9.63141 19.2797 9.64873 19.2706 9.65639 19.2704C9.66995 19.2703 9.70674 19.2531 9.71517 19.2464C9.72035 19.2425 9.73381 19.2464 9.74468 19.2496C9.75148 19.2515 9.75728 19.2532 9.75937 19.2525C9.76298 19.2512 9.77259 19.2446 9.78128 19.2386L9.79279 19.2308C9.80181 19.2251 9.83985 19.2215 9.85187 19.2232C9.86125 19.2245 9.90713 19.1937 9.95177 19.1637L9.98834 19.1393L10.0468 19.1318L10.0841 19.1269C10.1246 19.1167 10.1676 19.1035 10.1796 19.0974L10.1899 19.0899L10.2152 19.0715C10.247 19.0673 10.276 19.0578 10.2799 19.0505C10.2838 19.0431 10.3006 19.0236 10.3088 19.0232C10.3169 19.023 10.3452 19.0194 10.3539 19.018C10.3627 19.0166 10.3971 18.9829 10.4153 18.954L10.4453 18.9918C10.4467 18.9937 10.462 18.9872 10.4651 18.981L10.4963 18.9206C10.547 18.927 10.5748 18.9563 10.558 18.9855L10.5966 19.0068L10.6071 19.0127C10.6199 19.0161 10.6328 19.0068 10.6356 18.992L10.6317 18.9816L10.6274 18.9698C10.6311 18.9608 10.6416 18.9467 10.6504 18.9382L10.6584 18.9302L10.6946 18.9025L10.707 18.8801L10.7098 18.875C10.7203 18.8921 10.7318 18.8983 10.7353 18.8886C10.7388 18.8789 10.7551 18.863 10.7694 18.8524C10.7775 18.8465 10.7958 18.8489 10.8108 18.8508C10.8222 18.8523 10.8317 18.8535 10.8333 18.8507C10.8348 18.848 10.8403 18.8467 10.8465 18.8451C10.8556 18.8429 10.8664 18.8402 10.8684 18.8323L10.8816 18.8264L10.8844 18.8253C10.8871 18.8231 10.9259 18.8027 10.9705 18.7798L11.017 18.7896L11.0217 18.7906C11.0269 18.7917 11.0364 18.7849 11.0429 18.7758C11.0494 18.7666 11.0803 18.7487 11.0913 18.7521C11.0984 18.7543 11.12 18.7435 11.1399 18.7334C11.1509 18.7279 11.1615 18.7225 11.1688 18.7198L11.1888 18.7162L11.1952 18.7149C11.2032 18.7209 11.2185 18.7171 11.2292 18.7067C11.2399 18.6962 11.276 18.6629 11.2877 18.6594C11.2965 18.6567 11.3289 18.6434 11.3565 18.6321L11.3814 18.622L11.4107 18.6193L11.4332 18.6171C11.457 18.5993 11.4873 18.5715 11.5007 18.5552C11.5087 18.5455 11.5328 18.5523 11.5541 18.5583C11.5681 18.5622 11.581 18.5659 11.5871 18.5641L11.5972 18.5538C11.6028 18.5482 11.6063 18.5401 11.6099 18.5319C11.6131 18.5248 11.6162 18.5177 11.6207 18.5121C11.623 18.5093 11.623 18.5093 11.623 18.5093C11.636 18.5171 11.6673 18.5137 11.6926 18.5017L11.7096 18.4933C11.7399 18.4782 11.7859 18.4551 11.7933 18.4636C11.8004 18.4718 11.8313 18.4543 11.8533 18.4418L11.86 18.438L11.8682 18.4336L11.8794 18.4186L11.908 18.3804C11.9375 18.4007 11.9638 18.4111 11.9663 18.4037L11.9674 18.3971L11.9706 18.3775C11.9861 18.3759 12.0065 18.3675 12.0157 18.359C12.019 18.356 12.0259 18.351 12.034 18.3452C12.049 18.3345 12.0682 18.3208 12.0772 18.3102C12.0864 18.2992 12.1102 18.3106 12.1258 18.3181C12.1334 18.3218 12.1404 18.3234 12.1404 18.3234C12.1441 18.3197 12.1742 18.3004 12.1979 18.2859C12.2217 18.2715 12.2856 18.2316 12.2873 18.2295C12.289 18.2272 12.3138 18.2234 12.3416 18.2203C12.3565 18.2186 12.3842 18.2077 12.4075 18.1985C12.4276 18.1907 12.4444 18.184 12.4474 18.1855C12.454 18.1887 12.4844 18.1744 12.5117 18.1578C12.5337 18.1443 12.5931 18.1356 12.6168 18.132L12.6238 18.131L12.6266 18.1305C12.6298 18.1292 12.6396 18.1197 12.6315 18.1156C12.6234 18.1117 12.6218 18.0873 12.6426 18.0687C12.6571 18.0558 12.6945 18.0668 12.7171 18.0735C12.727 18.0764 12.7352 18.0774 12.7352 18.0774C12.7374 18.075 12.7472 18.0693 12.7581 18.0631L12.7699 18.0562L12.777 18.0519C12.784 18.0476 12.7986 18.0437 12.8132 18.0398C12.8309 18.0351 12.8487 18.0304 12.8526 18.0251L12.8602 18.0166L12.8628 18.0137C12.8684 18.0076 12.875 18.0002 12.8806 18.0007L12.8999 18.0022C12.921 18.0076 12.9502 17.9957 12.9646 17.9757L12.9799 17.9685L12.9968 17.9602L13.0012 17.9581C13.0289 17.9603 13.0695 17.967 13.0913 17.973C13.1097 17.9781 13.1633 17.9394 13.1953 17.9163L13.2098 17.906C13.2365 17.8871 13.3371 17.907 13.363 17.9138L13.3847 17.8909C13.3955 17.8796 13.4107 17.8708 13.4251 17.8673L13.4473 17.8621C13.4695 17.8745 13.5028 17.8731 13.5215 17.859L13.5412 17.8499C13.5445 17.8484 13.5494 17.8524 13.5547 17.8567C13.5601 17.8611 13.5658 17.8658 13.5706 17.8654L13.6015 17.8631C13.6349 17.8535 13.6728 17.8431 13.6858 17.8401C13.6914 17.8388 13.7019 17.8418 13.7134 17.8451C13.729 17.8496 13.7464 17.8546 13.7561 17.8504C13.767 17.8456 13.7963 17.8521 13.8202 17.8574C13.8334 17.8604 13.8451 17.863 13.851 17.8631L13.8664 17.8608L13.8737 17.8597C13.8809 17.8552 13.9064 17.8523 13.9303 17.8532C13.9417 17.8537 13.9682 17.8629 13.9975 17.8731C14.0298 17.8843 14.0658 17.8969 14.0887 17.9002C14.1324 17.9065 14.2934 17.9129 14.3478 17.9119L14.3827 17.961C14.398 17.9827 14.4133 17.9846 14.4315 17.9636L14.4334 17.9612C14.4473 17.9711 14.4639 17.9819 14.4702 17.9853C14.4767 17.9886 14.4952 17.9856 14.5067 17.9831C14.5165 17.9811 14.5359 18.0006 14.5491 18.0138L14.5554 18.0201L14.5642 18.029L14.5713 18.0362C14.5909 18.0563 14.621 18.0872 14.6379 18.1005C14.6611 18.1188 14.7211 18.2249 14.7433 18.2767L14.7769 18.3149L14.779 18.3175C14.7741 18.3286 14.7812 18.3631 14.7947 18.3941C14.8063 18.4207 14.8304 18.4907 14.8382 18.5136L14.8407 18.5207C14.842 18.5243 14.8455 18.543 14.8496 18.5646L14.8574 18.6047L14.8655 18.6344C14.8675 18.6418 14.8738 18.6465 14.8802 18.6512C14.8911 18.6593 14.9022 18.6675 14.8921 18.6895L14.8756 18.7253C14.9031 18.7354 14.93 18.7529 14.9357 18.7639C14.9414 18.775 14.9664 18.8274 14.977 18.8555L14.9936 18.8637L15.0227 18.8782C15.0589 18.8852 15.1066 18.8927 15.1287 18.8945C15.1369 18.8951 15.1526 18.8952 15.17 18.8952C15.1991 18.8952 15.2332 18.8952 15.2454 18.8984L15.2636 18.9025L15.2789 18.9059C15.296 18.9071 15.3246 18.9015 15.3428 18.8934C15.3501 18.89 15.3694 18.8887 15.3905 18.8874L15.4055 18.8864L15.8648 17.0494C15.8868 16.9615 15.9322 16.8812 15.9963 16.8171L20 12.8134V8.31997C20 7.79454 19.7932 7.29023 19.4244 6.91602L14.1808 1.59605C13.805 1.21471 13.2919 1 12.7564 1H5C3.34315 1 2 2.34315 2 4ZM16.7677 17.5607C16.7897 17.4727 16.8352 17.3924 16.8993 17.3283L20 14.2276L21.6672 12.5605C21.9933 12.2344 22.522 12.2344 22.848 12.5605L23.5189 13.2313C23.845 13.5574 23.845 14.0861 23.5189 14.4122L21.3812 16.5499L18.751 19.1801C18.6869 19.2441 18.6066 19.2896 18.5187 19.3116L16.8592 19.7264C16.7638 19.7503 16.6713 19.7397 16.5914 19.7047C16.5487 19.6859 16.5095 19.6602 16.4756 19.6289C16.4278 19.585 16.3901 19.5302 16.3668 19.4688C16.3381 19.3934 16.331 19.308 16.3529 19.2202L16.5206 18.5495L16.7677 17.5607ZM14 3V6C14 6.55228 14.4477 7 15 7H18L14 3ZM5.5 10.14C5.5 9.5104 6.0104 9 6.64 9H15.36C15.9896 9 16.5 9.5104 16.5 10.14C16.5 10.7696 15.9896 11.28 15.36 11.28H6.64C6.0104 11.28 5.5 10.7696 5.5 10.14ZM5.5 14.0599C5.5 13.4303 6.0104 12.9199 6.64 12.9199H15.36C15.9896 12.9199 16.5 13.4303 16.5 14.0599C16.5 14.6895 15.9896 15.1999 15.36 15.1999H6.64C6.0104 15.1999 5.5 14.6895 5.5 14.0599Z" fill="currentColor"/>
</svg>
