<svg width="24" height="24" viewBox="0 0 24 24" fill="none" xmlns="http://www.w3.org/2000/svg">
<path fill-rule="evenodd" clip-rule="evenodd" d="M5 2C3.34315 2 2 3.34315 2 5V19C2 20.6569 3.34315 22 5 22H19C20.6569 22 22 20.6569 22 19V5C22 3.34315 20.6569 2 19 2H5ZM15.2929 13.7071C15.6834 14.0976 16.3166 14.0976 16.7071 13.7071C17.0976 13.3166 17.0976 12.6834 16.7071 12.2929L12.7071 8.29289C12.3166 7.90237 11.6834 7.90237 11.2929 8.29289L7.29289 12.2929C6.90237 12.6834 6.90237 13.3166 7.29289 13.7071C7.68342 14.0976 8.31658 14.0976 8.70711 13.7071L12 10.4142L15.2929 13.7071Z" fill="currentColor"/>
</svg>
