<svg width="24" height="24" viewBox="0 0 24 24" fill="none" xmlns="http://www.w3.org/2000/svg">
<path fill-rule="evenodd" clip-rule="evenodd" d="M6.70711 8.7071C7.09763 8.31657 7.09763 7.68341 6.70711 7.29289C6.31658 6.90236 5.68342 6.90236 5.29289 7.29289L1.29289 11.2929C0.902369 11.6834 0.902369 12.3166 1.29289 12.7071L5.29289 16.7071C5.68342 17.0976 6.31658 17.0976 6.70711 16.7071C7.09763 16.3166 7.09763 15.6834 6.70711 15.2929L3.41421 12L6.70711 8.7071ZM18.7071 7.29289C18.3166 6.90236 17.6834 6.90236 17.2929 7.29289C16.9024 7.68341 16.9024 8.31657 17.2929 8.7071L20.5858 12L17.2929 15.2929C16.9024 15.6834 16.9024 16.3166 17.2929 16.7071C17.6834 17.0976 18.3166 17.0976 18.7071 16.7071L22.7071 12.7071C23.0976 12.3166 23.0976 11.6834 22.7071 11.2929L18.7071 7.29289Z" fill="currentColor"/>
<path fill-rule="evenodd" clip-rule="evenodd" d="M13.2425 7.02985C13.7783 7.1638 14.1041 7.70673 13.9701 8.24253L11.9701 16.2425C11.8362 16.7783 11.2933 17.1041 10.7575 16.9701C10.2217 16.8362 9.89591 16.2933 10.0299 15.7575L12.0299 7.75746C12.1638 7.22166 12.7067 6.8959 13.2425 7.02985Z" fill="currentColor"/>
</svg>
