<svg width="24" height="24" viewBox="0 0 24 24" fill="none" xmlns="http://www.w3.org/2000/svg">
<path fill-rule="evenodd" clip-rule="evenodd" d="M2 12C2 11.4477 2.44771 11 3 11L12.5858 11L9.29289 7.70711C8.90237 7.31658 8.90237 6.68342 9.29289 6.29289C9.68342 5.90237 10.3166 5.90237 10.7071 6.29289L15.7071 11.2929C16.0976 11.6834 16.0976 12.3166 15.7071 12.7071L10.7071 17.7071C10.3166 18.0976 9.68342 18.0976 9.29289 17.7071C8.90237 17.3166 8.90237 16.6834 9.29289 16.2929L12.5858 13L3 13C2.44771 13 2 12.5523 2 12ZM16 20C15.4477 20 15 20.4477 15 21C15 21.5523 15.4477 22 16 22L19 22C20.6569 22 22 20.6569 22 19L22 5C22 3.34314 20.6569 2 19 2L16 2C15.4477 2 15 2.44772 15 3C15 3.55228 15.4477 4 16 4L19 4C19.5523 4 20 4.44771 20 5L20 19C20 19.5523 19.5523 20 19 20L16 20Z" fill="currentColor"/>
</svg>
