<svg width="24" height="24" viewBox="0 0 24 24" fill="none" xmlns="http://www.w3.org/2000/svg">
<path fill-rule="evenodd" clip-rule="evenodd" d="M11.7071 2.29289C11.3166 1.90237 10.6834 1.90237 10.2929 2.29289L6.29289 6.29289C5.90237 6.68342 5.90237 7.31658 6.29289 7.70711L10.2929 11.7071C10.6834 12.0976 11.3166 12.0976 11.7071 11.7071C12.0976 11.3166 12.0976 10.6834 11.7071 10.2929L9.41421 8H11C11 8 11 8 11 8C12.3261 8 13.5979 8.52679 14.5355 9.46447C15.4732 10.4022 16 11.6739 16 13C16 14.3261 15.4732 15.5979 14.5355 16.5355C13.5979 17.4732 12.3261 18 11 18H9C8.44772 18 8 18.4477 8 19C8 19.5523 8.44772 20 9 20H11C12.8565 20 14.637 19.2625 15.9497 17.9497C17.2625 16.637 18 14.8565 18 13C18 11.1435 17.2625 9.36301 15.9498 8.05026C14.637 6.7375 12.8565 6 11 6C11 6 11 6 11 6H9.41421L11.7071 3.70711C12.0976 3.31658 12.0976 2.68342 11.7071 2.29289Z" fill="currentColor"/>
</svg>
