<svg width="24" height="24" viewBox="0 0 24 24" fill="none" xmlns="http://www.w3.org/2000/svg">
<path fill-rule="evenodd" clip-rule="evenodd" d="M7 4C7.55228 4 8 4.44772 8 5V16.5858L10.2929 14.2929C10.6834 13.9024 11.3166 13.9024 11.7071 14.2929C12.0976 14.6834 12.0976 15.3166 11.7071 15.7071L7.70711 19.7071C7.31658 20.0976 6.68342 20.0976 6.29289 19.7071L2.29289 15.7071C1.90237 15.3166 1.90237 14.6834 2.29289 14.2929C2.68342 13.9024 3.31658 13.9024 3.70711 14.2929L6 16.5858V5C6 4.44772 6.44772 4 7 4ZM13.7071 10.2929C13.3166 9.90237 12.6834 9.90237 12.2929 10.2929C11.9024 10.6834 11.9024 11.3166 12.2929 11.7071L16.2929 15.7071C16.6834 16.0976 17.3166 16.0976 17.7071 15.7071L21.7071 11.7071C22.0976 11.3166 22.0976 10.6834 21.7071 10.2929C21.3166 9.90237 20.6834 9.90237 20.2929 10.2929L18 12.5858V5C18 4.44772 17.5523 4 17 4C16.4477 4 16 4.44772 16 5V12.5858L13.7071 10.2929Z" fill="currentColor"/>
</svg>
