<svg width="24" height="24" viewBox="0 0 24 24" fill="none" xmlns="http://www.w3.org/2000/svg">
<path fill-rule="evenodd" clip-rule="evenodd" d="M13.7071 3.70711C14.0976 3.31658 14.0976 2.68342 13.7071 2.29289C13.3166 1.90237 12.6834 1.90237 12.2929 2.29289L8.29289 6.29289C7.90237 6.68342 7.90237 7.31658 8.29289 7.70711L12.2929 11.7071C12.6834 12.0976 13.3166 12.0976 13.7071 11.7071C14.0976 11.3166 14.0976 10.6834 13.7071 10.2929L11.4142 8H19C19.5523 8 20 7.55228 20 7C20 6.44772 19.5523 6 19 6H11.4142L13.7071 3.70711ZM9.70711 13.7071L7.41421 16H19C19.5523 16 20 16.4477 20 17C20 17.5523 19.5523 18 19 18H7.41421L9.70711 20.2929C10.0976 20.6834 10.0976 21.3166 9.70711 21.7071C9.31658 22.0976 8.68342 22.0976 8.29289 21.7071L4.29289 17.7071C3.90237 17.3166 3.90237 16.6834 4.29289 16.2929L8.29289 12.2929C8.68342 11.9024 9.31658 11.9024 9.70711 12.2929C10.0976 12.6834 10.0976 13.3166 9.70711 13.7071Z" fill="currentColor"/>
</svg>
