<svg width="24" height="24" viewBox="0 0 24 24" fill="none" xmlns="http://www.w3.org/2000/svg">
<path fill-rule="evenodd" clip-rule="evenodd" d="M5 2C3.34315 2 2 3.34315 2 5V19C2 20.6569 3.34315 22 5 22H19C20.6569 22 22 20.6569 22 19V5C22 3.34315 20.6569 2 19 2H5ZM12.2929 16.7071C11.9023 16.3166 11.9023 15.6834 12.2929 15.2929L14.5858 13H6.99997C6.44768 13 5.99997 12.5523 5.99997 12C5.99997 11.4477 6.44768 11 6.99997 11H14.5858L12.2929 8.70711C11.9023 8.31658 11.9023 7.68342 12.2929 7.29289C12.6834 6.90237 13.3166 6.90237 13.7071 7.29289L17.7071 11.2929C18.0976 11.6834 18.0976 12.3166 17.7071 12.7071L13.7071 16.7071C13.3166 17.0976 12.6834 17.0976 12.2929 16.7071Z" fill="currentColor"/>
</svg>
