<svg width="24" height="24" viewBox="0 0 24 24" fill="none" xmlns="http://www.w3.org/2000/svg">
<path fill-rule="evenodd" clip-rule="evenodd" d="M10 4C10.5523 4 11 4.44772 11 5V6.85714C11 7.40943 11.4477 7.85714 12 7.85714C12.5523 7.85714 13 7.40943 13 6.85714V5C13 3.34315 11.6569 2 10 2H5C3.34315 2 2 3.34315 2 5V19C2 20.6569 3.34315 22 5 22H10C11.6569 22 13 20.6569 13 19V17.1429C13 16.5906 12.5523 16.1429 12 16.1429C11.4477 16.1429 11 16.5906 11 17.1429V19C11 19.5523 10.5523 20 10 20H5C4.44772 20 4 19.5523 4 19L4 5C4 4.44772 4.44772 4 5 4L10 4ZM17.7071 7.29289C17.3166 6.90237 16.6834 6.90237 16.2929 7.29289C15.9024 7.68342 15.9024 8.31658 16.2929 8.70711L18.5858 11L8 11C7.44772 11 7 11.4477 7 12C7 12.5523 7.44772 13 8 13L18.5858 13L16.2929 15.2929C15.9024 15.6834 15.9024 16.3166 16.2929 16.7071C16.6834 17.0976 17.3166 17.0976 17.7071 16.7071L21.7071 12.7071C22.0976 12.3166 22.0976 11.6834 21.7071 11.2929L17.7071 7.29289Z" fill="currentColor"/>
</svg>
