<svg width="24" height="24" viewBox="0 0 24 24" fill="none" xmlns="http://www.w3.org/2000/svg">
<path fill-rule="evenodd" clip-rule="evenodd" d="M3 12C3 7.02944 7.02944 3 12 3C16.9706 3 21 7.02944 21 12C21 16.9706 16.9706 21 12 21C7.02944 21 3 16.9706 3 12ZM12 1C5.92487 1 1 5.92487 1 12C1 18.0751 5.92487 23 12 23C18.0751 23 23 18.0751 23 12C23 5.92487 18.0751 1 12 1ZM8.29502 8.29078C8.3904 8.19595 8.50014 8.12432 8.61722 8.07588C8.73512 8.02699 8.86441 8 9 8H14C14.5523 8 15 8.44772 15 9C15 9.55229 14.5523 10 14 10H11.4142L15.7071 14.2929C16.0976 14.6834 16.0976 15.3166 15.7071 15.7071C15.3166 16.0976 14.6834 16.0976 14.2929 15.7071L10 11.4142V14C10 14.5523 9.55229 15 9 15C8.44772 15 8 14.5523 8 14V9C8 8.86441 8.02699 8.73512 8.07588 8.61722C8.12432 8.50014 8.19595 8.3904 8.29078 8.29502L8.29502 8.29078Z" fill="currentColor"/>
</svg>
