<svg width="24" height="24" viewBox="0 0 24 24" fill="none" xmlns="http://www.w3.org/2000/svg">
<path fill-rule="evenodd" clip-rule="evenodd" d="M14 3C14 2.44772 14.4477 2 15 2H21C21.5523 2 22 2.44772 22 3V9C22 9.55228 21.5523 10 21 10C20.4477 10 20 9.55228 20 9V5.41421L13.7071 11.7071C13.3166 12.0976 12.6834 12.0976 12.2929 11.7071C11.9024 11.3166 11.9024 10.6834 12.2929 10.2929L18.5858 4H15C14.4477 4 14 3.55228 14 3ZM5 4C3.34315 4 2 5.34315 2 7V19C2 20.6569 3.34315 22 5 22H17C18.6569 22 20 20.6569 20 19V14C20 13.4477 19.5523 13 19 13C18.4477 13 18 13.4477 18 14V19C18 19.5523 17.5523 20 17 20H5C4.44772 20 4 19.5523 4 19V7C4 6.44772 4.44772 6 5 6H10C10.5523 6 11 5.55228 11 5C11 4.44772 10.5523 4 10 4H5Z" fill="currentColor"/>
</svg>
