<svg width="24" height="24" viewBox="0 0 24 24" fill="none" xmlns="http://www.w3.org/2000/svg">
<path fill-rule="evenodd" clip-rule="evenodd" d="M8 4C8.55229 4 9 3.55228 9 3C9 2.44772 8.55229 2 8 2L5 2C3.34315 2 2 3.34315 2 5L2 19C2 20.6569 3.34315 22 5 22L8 22C8.55228 22 9 21.5523 9 21C9 20.4477 8.55228 20 8 20L5 20C4.44772 20 4 19.5523 4 19L4 5C4 4.44772 4.44772 4 5 4L8 4ZM8 12C8 11.4477 8.44772 11 9 11L18.5858 11L15.2929 7.70711C14.9024 7.31658 14.9024 6.68342 15.2929 6.29289C15.6834 5.90237 16.3166 5.90237 16.7071 6.29289L21.7071 11.2929C22.0976 11.6834 22.0976 12.3166 21.7071 12.7071L16.7071 17.7071C16.3166 18.0976 15.6834 18.0976 15.2929 17.7071C14.9024 17.3166 14.9024 16.6834 15.2929 16.2929L18.5858 13L9 13C8.44772 13 8 12.5523 8 12Z" fill="currentColor"/>
</svg>
