<svg width="24" height="24" viewBox="0 0 24 24" fill="none" xmlns="http://www.w3.org/2000/svg">
<path fill-rule="evenodd" clip-rule="evenodd" d="M12 23C18.0751 23 23 18.0751 23 12C23 5.92487 18.0751 1 12 1C5.92487 1 1 5.92487 1 12C1 18.0751 5.92487 23 12 23ZM12.2929 16.7071C11.9023 16.3166 11.9023 15.6834 12.2929 15.2929L14.5858 13H6.99997C6.44768 13 5.99997 12.5523 5.99997 12C5.99997 11.4477 6.44768 11 6.99997 11H14.5858L12.2929 8.70711C11.9023 8.31658 11.9023 7.68342 12.2929 7.29289C12.6834 6.90237 13.3166 6.90237 13.7071 7.29289L17.7071 11.2929C18.0976 11.6834 18.0976 12.3166 17.7071 12.7071L13.7071 16.7071C13.3166 17.0976 12.6834 17.0976 12.2929 16.7071Z" fill="currentColor"/>
</svg>
