<svg width="24" height="24" viewBox="0 0 24 24" fill="none" xmlns="http://www.w3.org/2000/svg">
<path fill-rule="evenodd" clip-rule="evenodd" d="M8.70711 5.29289C8.31658 4.90237 7.68342 4.90237 7.29289 5.29289C6.90237 5.68342 6.90237 6.31658 7.29289 6.70711L8.58579 8H7C5.67392 8 4.40215 8.52678 3.46447 9.46447C2.52679 10.4021 2 11.6739 2 13C2 14.3261 2.52678 15.5978 3.46446 16.5355C4.40214 17.4732 5.67392 18 7 18H10C10.5523 18 11 17.5523 11 17C11 16.4477 10.5523 16 10 16H7C6.20435 16 5.44129 15.6839 4.87868 15.1213C4.31607 14.5587 4 13.7956 4 13C4 12.2043 4.31607 11.4413 4.87868 10.8787C5.44129 10.3161 6.20435 10 7 10H8.58579L7.29289 11.2929C6.90237 11.6834 6.90237 12.3166 7.29289 12.7071C7.68342 13.0976 8.31658 13.0976 8.70711 12.7071L11.7071 9.70711C12.0976 9.31658 12.0976 8.68342 11.7071 8.29289L8.70711 5.29289ZM15 7C14.4477 7 14 7.44772 14 8V10C14 10.5523 14.4477 11 15 11H21C21.5523 11 22 10.5523 22 10V8C22 7.44772 21.5523 7 21 7H15ZM15 14C14.4477 14 14 14.4477 14 15V17C14 17.5523 14.4477 18 15 18H21C21.5523 18 22 17.5523 22 17V15C22 14.4477 21.5523 14 21 14H15Z" fill="currentColor"/>
</svg>
