<svg width="24" height="24" viewBox="0 0 24 24" fill="none" xmlns="http://www.w3.org/2000/svg">
<path fill-rule="evenodd" clip-rule="evenodd" d="M17.8414 1.74924C17.7029 1.2146 17.1572 0.89346 16.6226 1.03195C16.0879 1.17044 15.7668 1.71611 15.9053 2.25075L16.0632 2.86027C14.8083 2.30226 13.4432 2.00486 12.0512 1.99773C9.78334 1.98611 7.57884 2.74574 5.7995 4.15198C4.02017 5.55821 2.77169 7.52752 2.25894 9.73673C1.74619 11.9459 1.99962 14.2638 2.97766 16.31C3.95569 18.3563 5.60023 20.0092 7.6414 20.9977C9.68257 21.9862 11.9991 22.2515 14.2109 21.7501C16.4228 21.2487 18.3984 20.0103 19.8138 18.2382C21.2291 16.4661 22 14.2655 22 11.9976C22 11.4453 21.5523 10.9976 21 10.9976C20.4477 10.9976 20 11.4453 20 11.9976C20 13.8119 19.3833 15.5724 18.251 16.9901C17.1187 18.4078 15.5382 19.3985 13.7688 19.7996C11.9993 20.2008 10.1461 19.9885 8.51312 19.1977C6.88018 18.4069 5.56456 17.0845 4.78213 15.4476C3.9997 13.8106 3.79695 11.9563 4.20715 10.1889C4.61735 8.42153 5.61614 6.84609 7.0396 5.7211C8.46307 4.59612 10.2267 3.98841 12.041 3.9977C13.0949 4.0031 14.1295 4.21649 15.0884 4.61775L14.3532 4.80491C13.818 4.94117 13.4946 5.4855 13.6309 6.02071C13.7671 6.55593 14.3114 6.87934 14.8467 6.74308L17.8965 5.96663C18.112 5.91178 18.3017 5.78707 18.4373 5.6139C18.6575 5.33518 18.7058 4.97469 18.5958 4.66173L17.8414 1.74924Z" fill="currentColor"/>
</svg>
