<svg width="24" height="24" viewBox="0 0 24 24" fill="none" xmlns="http://www.w3.org/2000/svg">
<path fill-rule="evenodd" clip-rule="evenodd" d="M12 23C18.0751 23 23 18.0751 23 12C23 5.92487 18.0751 1 12 1C5.92487 1 1 5.92487 1 12C1 18.0751 5.92487 23 12 23ZM16.7071 11.7071C16.3166 12.0976 15.6834 12.0976 15.2929 11.7071L13 9.41422L13 17C13 17.5523 12.5523 18 12 18C11.4477 18 11 17.5523 11 17L11 9.41422L8.70711 11.7071C8.31658 12.0976 7.68342 12.0976 7.2929 11.7071C6.90237 11.3166 6.90237 10.6834 7.2929 10.2929L11.2929 6.2929C11.6834 5.90237 12.3166 5.90237 12.7071 6.2929L16.7071 10.2929C17.0976 10.6834 17.0976 11.3166 16.7071 11.7071Z" fill="currentColor"/>
</svg>
