<svg width="24" height="24" viewBox="0 0 24 24" fill="none" xmlns="http://www.w3.org/2000/svg">
<path fill-rule="evenodd" clip-rule="evenodd" d="M6.29289 4.29289C6.68342 3.90237 7.31658 3.90237 7.70711 4.29289L11.7071 8.29289C12.0976 8.68342 12.0976 9.31658 11.7071 9.70711C11.3166 10.0976 10.6834 10.0976 10.2929 9.70711L8 7.41421V19C8 19.5523 7.55228 20 7 20C6.44772 20 6 19.5523 6 19V7.41421L3.70711 9.70711C3.31658 10.0976 2.68342 10.0976 2.29289 9.70711C1.90237 9.31658 1.90237 8.68342 2.29289 8.29289L6.29289 4.29289ZM16 11.4142L13.7071 13.7071C13.3166 14.0976 12.6834 14.0976 12.2929 13.7071C11.9024 13.3166 11.9024 12.6834 12.2929 12.2929L16.2929 8.29289C16.6834 7.90237 17.3166 7.90237 17.7071 8.29289L21.7071 12.2929C22.0976 12.6834 22.0976 13.3166 21.7071 13.7071C21.3166 14.0976 20.6834 14.0976 20.2929 13.7071L18 11.4142V19C18 19.5523 17.5523 20 17 20C16.4477 20 16 19.5523 16 19V11.4142Z" fill="currentColor"/>
</svg>
