<svg width="24" height="24" viewBox="0 0 24 24" fill="none" xmlns="http://www.w3.org/2000/svg">
<path d="M19.7763 12.6973C19.9138 12.1625 20.4592 11.8402 20.9941 11.9775C21.5289 12.115 21.8512 12.6604 21.7138 13.1953L21.3593 14.5752C20.0095 19.6122 15.077 22.7817 9.72736 21.3086C7.11083 20.588 5.65531 19.2792 4.86697 18.0644C4.73722 17.8645 4.62659 17.6691 4.53298 17.4824L4.31716 18.291C4.17413 18.8243 3.62497 19.141 3.09157 18.998C2.55848 18.855 2.24192 18.3066 2.38453 17.7734L3.16188 14.875C3.30498 14.3418 3.85316 14.025 4.3865 14.168L7.28398 14.9443C7.81732 15.0872 8.1337 15.6356 7.99102 16.1689C7.84809 16.7023 7.2998 17.0197 6.7664 16.8769L6.42851 16.7861C6.46415 16.8481 6.50299 16.9113 6.54472 16.9756C7.05524 17.7622 8.0936 18.7847 10.2586 19.3808C14.4707 20.5407 18.3434 18.0912 19.4257 14.0625L19.7763 12.6973ZM13.5428 9.04296C13.9333 8.65248 14.5663 8.6526 14.9569 9.04296C15.3474 9.43349 15.3474 10.0665 14.9569 10.457L13.4139 12L14.9569 13.543C15.3474 13.9335 15.3474 14.5665 14.9569 14.957C14.5664 15.3476 13.9334 15.3476 13.5428 14.957L11.9998 13.4141L10.4569 14.957C10.0663 15.3476 9.43332 15.3476 9.04278 14.957C8.65242 14.5665 8.65231 13.9334 9.04278 13.543L10.5858 12L9.04278 10.457C8.65237 10.0665 8.65229 9.43345 9.04278 9.04296C9.43328 8.6525 10.0663 8.65256 10.4569 9.04296L11.9998 10.5859L13.5428 9.04296ZM2.89039 9.43553C4.24013 4.39854 9.17269 1.22906 14.5223 2.70214C17.1389 3.42268 18.5943 4.73151 19.3827 5.94628C19.5125 6.14622 19.6231 6.34159 19.7167 6.52831L19.9335 5.71971C20.0766 5.1865 20.6248 4.86978 21.1581 5.01268C21.6913 5.15567 22.0078 5.70402 21.8652 6.23729L21.0888 9.13573C20.9458 9.66895 20.3974 9.9854 19.8642 9.84276L16.9657 9.06639C16.4325 8.92342 16.116 8.37507 16.2587 7.84178C16.4016 7.30837 16.9499 6.99192 17.4833 7.13475L17.8212 7.2246C17.7855 7.1626 17.7467 7.09943 17.705 7.03514C17.1944 6.24847 16.156 5.22601 13.9911 4.62987C9.77902 3.47015 5.90625 5.91952 4.824 9.94823L4.47341 11.3135C4.3359 11.8482 3.79046 12.1706 3.25563 12.0332C2.72091 11.8956 2.39854 11.3502 2.5359 10.8154L2.89039 9.43553Z" fill="currentColor"/>
</svg>
