<svg width="24" height="24" viewBox="0 0 24 24" fill="none" xmlns="http://www.w3.org/2000/svg">
<path fill-rule="evenodd" clip-rule="evenodd" d="M5 2C3.34315 2 2 3.34315 2 5V19C2 20.6569 3.34315 22 5 22H19C20.6569 22 22 20.6569 22 19V5C22 3.34315 20.6569 2 19 2H5ZM4 5C4 4.44772 4.44772 4 5 4H19C19.5523 4 20 4.44772 20 5V19C20 19.5523 19.5523 20 19 20H5C4.44772 20 4 19.5523 4 19V5ZM15.7071 9.70711L11.4142 14H14C14.5523 14 15 14.4477 15 15C15 15.5523 14.5523 16 14 16H9.00069H9L8.997 16C8.74301 15.9992 8.48924 15.9023 8.29502 15.7092L8.29078 15.705C8.19595 15.6096 8.12432 15.4999 8.07588 15.3828C8.02699 15.2649 8 15.1356 8 15V10C8 9.44772 8.44772 9 9 9C9.55228 9 10 9.44772 10 10V12.5858L14.2929 8.29289C14.6834 7.90237 15.3166 7.90237 15.7071 8.29289C16.0976 8.68342 16.0976 9.31658 15.7071 9.70711Z" fill="currentColor"/>
</svg>
