<svg width="24" height="24" viewBox="0 0 24 24" fill="none" xmlns="http://www.w3.org/2000/svg">
<path d="M3.2931 3.29296C3.68362 2.90243 4.31663 2.90243 4.70715 3.29296L20.707 19.293C21.0975 19.6835 21.0975 20.3165 20.707 20.707C20.3165 21.0974 19.6835 21.0974 19.293 20.707L17.9707 19.3848C17.1252 20.0683 16.169 20.6061 15.1387 20.9668C13.8294 21.425 12.4351 21.5911 11.0548 21.4531C9.67428 21.315 8.3403 20.8756 7.14757 20.167C6.10419 19.547 5.18972 18.7339 4.45423 17.7724L4.31653 18.289C4.17359 18.8225 3.62539 19.14 3.09193 18.9971C2.55854 18.8541 2.24197 18.3049 2.38491 17.7715L3.16127 14.874C3.30418 14.3407 3.85252 14.0243 4.38587 14.167L7.28428 14.9433C7.81752 15.0864 8.13406 15.6346 7.99131 16.168C7.84839 16.7013 7.3001 17.0178 6.76671 16.875L6.42882 16.7851C6.46443 16.8471 6.50334 16.9104 6.54503 16.9746L6.44737 17.0371C6.94733 17.5885 7.52601 18.0661 8.16904 18.4482C9.11065 19.0077 10.1642 19.3538 11.254 19.4629C12.3438 19.5718 13.4448 19.4409 14.4786 19.0791C15.2248 18.8178 15.9213 18.4382 16.5469 17.9609L6.0382 7.45213C5.23285 8.50807 4.71772 9.76358 4.55579 11.0937C4.48908 11.6419 3.98972 12.0324 3.44154 11.9658C2.8936 11.899 2.50305 11.4005 2.56947 10.8525C2.78548 9.07795 3.4986 7.40816 4.61438 6.02831L3.2931 4.70702C2.90263 4.31654 2.90272 3.68349 3.2931 3.29296ZM20.5547 12.249C21.1009 12.3295 21.4786 12.8376 21.3984 13.3838C21.2938 14.0942 21.1092 14.7911 20.8477 15.4599C20.6465 15.9743 20.0661 16.2284 19.5518 16.0273C19.0376 15.8261 18.7833 15.2457 18.9844 14.7314C19.1909 14.2035 19.3373 13.6536 19.4199 13.0928C19.5006 12.5467 20.0086 12.1688 20.5547 12.249ZM8.64755 3.11131C10.5274 2.40228 12.595 2.30402 14.5499 2.84862C16.4407 3.37547 18.1102 4.4716 19.3418 5.97167L19.3828 5.9453C19.4572 6.05985 19.5239 6.17345 19.5859 6.28417C19.6344 6.3485 19.6816 6.41381 19.7285 6.47948L19.9336 5.71874C20.0766 5.18538 20.6248 4.86878 21.1582 5.0117C21.6915 5.15473 22.008 5.70299 21.8652 6.23631L21.0889 9.13377C20.946 9.66708 20.3976 9.98439 19.8643 9.84178L16.9659 9.06444C16.4326 8.92135 16.1159 8.37318 16.2588 7.83983C16.4018 7.30663 16.9502 6.99011 17.4834 7.1328L17.7696 7.20995C16.7996 6.04187 15.4923 5.18759 14.0127 4.77538C12.4694 4.34542 10.8368 4.42255 9.35263 4.98241C8.83623 5.17688 8.25964 4.91653 8.06455 4.40038C7.86965 3.88371 8.13097 3.30632 8.64755 3.11131Z" fill="currentColor"/>
</svg>
