<svg width="24" height="24" viewBox="0 0 24 24" fill="none" xmlns="http://www.w3.org/2000/svg">
<path fill-rule="evenodd" clip-rule="evenodd" d="M4 5C4 4.44772 4.44772 4 5 4H12C12.5523 4 13 3.55228 13 3C13 2.44772 12.5523 2 12 2H5C3.34315 2 2 3.34315 2 5V19C2 20.6569 3.34315 22 5 22H19C20.6569 22 22 20.6569 22 19V12C22 11.4477 21.5523 11 21 11C20.4477 11 20 11.4477 20 12V19C20 19.5523 19.5523 20 19 20H5C4.44772 20 4 19.5523 4 19V5ZM15 3C15 2.44772 15.4477 2 16 2H21C21.5523 2 22 2.44772 22 3V8C22 8.55228 21.5523 9 21 9C20.4477 9 20 8.55228 20 8V5.41421L13.7071 11.7071C13.3166 12.0976 12.6834 12.0976 12.2929 11.7071C11.9024 11.3166 11.9024 10.6834 12.2929 10.2929L18.5858 4H16C15.4477 4 15 3.55228 15 3Z" fill="currentColor"/>
</svg>
