<svg width="24" height="24" viewBox="0 0 24 24" fill="none" xmlns="http://www.w3.org/2000/svg">
<path fill-rule="evenodd" clip-rule="evenodd" d="M11.7071 2.29289C11.3166 1.90237 10.6834 1.90237 10.2929 2.29289C9.90237 2.68342 9.90237 3.31658 10.2929 3.70711L12.5858 6H5C4.44772 6 4 6.44772 4 7C4 7.55228 4.44772 8 5 8H12.5858L10.2929 10.2929C9.90237 10.6834 9.90237 11.3166 10.2929 11.7071C10.6834 12.0976 11.3166 12.0976 11.7071 11.7071L15.7071 7.70711C16.0976 7.31658 16.0976 6.68342 15.7071 6.29289L11.7071 2.29289ZM14.2929 12.2929C14.6834 11.9024 15.3166 11.9024 15.7071 12.2929L19.7071 16.2929C20.0976 16.6834 20.0976 17.3166 19.7071 17.7071L15.7071 21.7071C15.3166 22.0976 14.6834 22.0976 14.2929 21.7071C13.9024 21.3166 13.9024 20.6834 14.2929 20.2929L16.5858 18H5C4.44772 18 4 17.5523 4 17C4 16.4477 4.44772 16 5 16H16.5858L14.2929 13.7071C13.9024 13.3166 13.9024 12.6834 14.2929 12.2929Z" fill="currentColor"/>
</svg>
