<svg width="24" height="24" viewBox="0 0 24 24" fill="none" xmlns="http://www.w3.org/2000/svg">
<path d="M21 2C21.5523 2 22 2.44772 22 3V21C22 21.5523 21.5523 22 21 22C20.4477 22 20 21.5523 20 21V3C20 2.44772 20.4477 2 21 2Z" fill="currentColor"/>
<path d="M3 11C2.44772 11 2 11.4477 2 12C2 12.5523 2.44772 13 3 13L14.5858 13L10.2929 17.2929C9.90237 17.6834 9.90237 18.3166 10.2929 18.7071C10.6834 19.0976 11.3166 19.0976 11.7071 18.7071L17.7071 12.7071C18.0976 12.3166 18.0976 11.6834 17.7071 11.2929L11.7071 5.29289C11.3166 4.90237 10.6834 4.90237 10.2929 5.29289C9.90237 5.68342 9.90237 6.31658 10.2929 6.70711L14.5858 11L3 11Z" fill="currentColor"/>
</svg>
