<svg width="24" height="24" viewBox="0 0 24 24" fill="none" xmlns="http://www.w3.org/2000/svg">
<path d="M3 4C2.44772 4 2 4.44772 2 5C2 5.55228 2.44772 6 3 6H21C21.5523 6 22 5.55228 22 5C22 4.44772 21.5523 4 21 4H3Z" fill="currentColor"/>
<path d="M9.29289 12.7071C9.68342 13.0976 10.3166 13.0976 10.7071 12.7071C11.0976 12.3166 11.0976 11.6834 10.7071 11.2929L7.70711 8.29289C7.61123 8.19702 7.50073 8.12468 7.38278 8.07588C7.26575 8.02735 7.1375 8.0004 7.003 8L7 8L6.997 8C6.74208 8.00076 6.48739 8.09839 6.29289 8.29289L3.29289 11.2929C2.90237 11.6834 2.90237 12.3166 3.29289 12.7071C3.68342 13.0976 4.31658 13.0976 4.70711 12.7071L6 11.4142V19C6 19.5523 6.44772 20 7 20C7.55228 20 8 19.5523 8 19V11.4142L9.29289 12.7071Z" fill="currentColor"/>
<path d="M14 8H20C20.5523 8 21 8.44772 21 9V11.5C21 12.0523 20.5523 12.5 20 12.5H14C13.4477 12.5 13 12.0523 13 11.5V9C13 8.44772 13.4477 8 14 8Z" fill="currentColor"/>
<path d="M13 15.5C13 14.9477 13.4477 14.5 14 14.5H20C20.5523 14.5 21 14.9477 21 15.5V18C21 18.5523 20.5523 19 20 19H14C13.4477 19 13 18.5523 13 18V15.5Z" fill="currentColor"/>
</svg>
