<svg width="24" height="24" viewBox="0 0 24 24" fill="none" xmlns="http://www.w3.org/2000/svg">
<path fill-rule="evenodd" clip-rule="evenodd" d="M21 22C21.5523 22 22 21.5523 22 21C22 20.4477 21.5523 20 21 20L3 20C2.44772 20 2 20.4477 2 21C2 21.5523 2.44772 22 3 22L21 22ZM12 18C11.4477 18 11 17.5523 11 17L11 5.41421L6.70711 9.70711C6.31658 10.0976 5.68342 10.0976 5.29289 9.70711C4.90237 9.31658 4.90237 8.68342 5.29289 8.29289L11.2929 2.29289C11.6834 1.90237 12.3166 1.90237 12.7071 2.29289L18.7071 8.29289C19.0976 8.68342 19.0976 9.31658 18.7071 9.70711C18.3166 10.0976 17.6834 10.0976 17.2929 9.70711L13 5.41421L13 17C13 17.5523 12.5523 18 12 18Z" fill="currentColor"/>
</svg>
