<svg width="24" height="24" viewBox="0 0 24 24" fill="none" xmlns="http://www.w3.org/2000/svg">
<path fill-rule="evenodd" clip-rule="evenodd" d="M3 12C3 7.02944 7.02944 3 12 3C16.9706 3 21 7.02944 21 12C21 16.9706 16.9706 21 12 21C7.02944 21 3 16.9706 3 12ZM12 1C5.92487 1 1 5.92487 1 12C1 18.0751 5.92487 23 12 23C18.0751 23 23 18.0751 23 12C23 5.92487 18.0751 1 12 1ZM15.7071 9.70711L11.4142 14H14C14.5523 14 15 14.4477 15 15C15 15.5523 14.5523 16 14 16H9.00069L8.997 16C8.74301 15.9992 8.48924 15.9023 8.29502 15.7092L8.29078 15.705C8.19595 15.6096 8.12432 15.4999 8.07588 15.3828C8.02699 15.2649 8 15.1356 8 15V10C8 9.44771 8.44772 9 9 9C9.55229 9 10 9.44771 10 10V12.5858L14.2929 8.29289C14.6834 7.90237 15.3166 7.90237 15.7071 8.29289C16.0976 8.68342 16.0976 9.31658 15.7071 9.70711Z" fill="currentColor"/>
</svg>
