<svg width="24" height="24" viewBox="0 0 24 24" fill="none" xmlns="http://www.w3.org/2000/svg">
<path d="M4 13C4.55228 13 5 13.4477 5 14V15C5.00004 16.1045 5.89546 17 7 17H17.5859L16.293 15.707C15.9025 15.3165 15.9025 14.6835 16.293 14.293C16.6835 13.9025 17.3165 13.9025 17.707 14.293L20.707 17.293C21.0975 17.6835 21.0975 18.3165 20.707 18.707L17.707 21.7071C17.3165 22.0975 16.6835 22.0975 16.293 21.7071C15.9025 21.3165 15.9025 20.6835 16.293 20.293L17.5859 19H7C4.79089 19 3.00004 17.2091 3 15V14C3 13.4477 3.44772 13 4 13ZM6.29297 2.29295C6.68349 1.90243 7.31651 1.90243 7.70703 2.29295C8.09752 2.68348 8.09754 3.31651 7.70703 3.70702L6.41406 4.99999H17C19.2091 4.99999 21 6.79086 21 9V10C21 10.5523 20.5523 11 20 11C19.4477 11 19 10.5523 19 10V9C19 7.89543 18.1046 7 17 7H6.41406L7.70703 8.29297C8.09752 8.68349 8.09754 9.31652 7.70703 9.70703C7.31652 10.0975 6.68348 10.0975 6.29297 9.70703L3.29297 6.70703C2.90246 6.31651 2.90248 5.68349 3.29297 5.29296L6.29297 2.29295Z" fill="currentColor"/>
</svg>
