<svg width="24" height="24" viewBox="0 0 24 24" fill="none" xmlns="http://www.w3.org/2000/svg">
<path fill-rule="evenodd" clip-rule="evenodd" d="M7 6C5.67392 6 4.40215 6.52678 3.46447 7.46447C2.52679 8.40215 2 9.67392 2 11C2 12.3261 2.52678 13.5978 3.46446 14.5355C4.40214 15.4732 5.67391 16 7 16H8.58579L7.29289 17.2929C6.90237 17.6834 6.90237 18.3166 7.29289 18.7071C7.68342 19.0976 8.31658 19.0976 8.70711 18.7071L11.7071 15.7071C12.0976 15.3166 12.0976 14.6834 11.7071 14.2929L8.70711 11.2929C8.31658 10.9024 7.68342 10.9024 7.29289 11.2929C6.90237 11.6834 6.90237 12.3166 7.29289 12.7071L8.58579 14H7C6.20435 14 5.44129 13.6839 4.87868 13.1213C4.31607 12.5587 4 11.7956 4 11C4 10.2043 4.31607 9.44129 4.87868 8.87868C5.44129 8.31607 6.20435 8 7 8H10C10.5523 8 11 7.55228 11 7C11 6.44772 10.5523 6 10 6H7ZM15 6C14.4477 6 14 6.44772 14 7V9C14 9.55228 14.4477 10 15 10H21C21.5523 10 22 9.55228 22 9V7C22 6.44772 21.5523 6 21 6H15ZM15 13C14.4477 13 14 13.4477 14 14V16C14 16.5523 14.4477 17 15 17H21C21.5523 17 22 16.5523 22 16V14C22 13.4477 21.5523 13 21 13H15Z" fill="currentColor"/>
</svg>
