<svg width="24" height="24" viewBox="0 0 24 24" fill="none" xmlns="http://www.w3.org/2000/svg">
<path fill-rule="evenodd" clip-rule="evenodd" d="M5 2C3.34315 2 2 3.34315 2 5V19C2 20.6569 3.34315 22 5 22H19C20.6569 22 22 20.6569 22 19V5C22 3.34315 20.6569 2 19 2H5ZM4 5C4 4.44772 4.44772 4 5 4H19C19.5523 4 20 4.44772 20 5V19C20 19.5523 19.5523 20 19 20H5C4.44772 20 4 19.5523 4 19V5ZM15.7092 8.29502C15.804 8.3904 15.8757 8.50014 15.9241 8.61722C15.9727 8.73425 15.9996 8.8625 16 8.997L16 9V14C16 14.5523 15.5523 15 15 15C14.4477 15 14 14.5523 14 14V11.4142L9.70711 15.7071C9.31658 16.0976 8.68342 16.0976 8.29289 15.7071C7.90237 15.3166 7.90237 14.6834 8.29289 14.2929L12.5858 10H10C9.44772 10 9 9.55228 9 9C9 8.44772 9.44772 8 10 8H15C15.1356 8 15.2649 8.02699 15.3828 8.07588C15.4999 8.12432 15.6096 8.19595 15.705 8.29078L15.7092 8.29502Z" fill="currentColor"/>
</svg>
