<svg width="24" height="24" viewBox="0 0 24 24" fill="none" xmlns="http://www.w3.org/2000/svg">
<path fill-rule="evenodd" clip-rule="evenodd" d="M3 12C3 7.02944 7.02944 3 12 3C16.9706 3 21 7.02944 21 12C21 16.9706 16.9706 21 12 21C7.02944 21 3 16.9706 3 12ZM12 1C5.92487 1 1 5.92487 1 12C1 18.0751 5.92487 23 12 23C18.0751 23 23 18.0751 23 12C23 5.92487 18.0751 1 12 1ZM8.29289 8.29289C8.68342 7.90237 9.31658 7.90237 9.70711 8.29289L14 12.5858V10C14 9.44771 14.4477 9 15 9C15.5523 9 16 9.44771 16 10V14.9993L16 15.003C15.9992 15.2579 15.9016 15.5126 15.7071 15.7071C15.6112 15.803 15.5007 15.8753 15.3828 15.9241C15.2657 15.9727 15.1375 15.9996 15.003 16L15 16H10C9.44771 16 9 15.5523 9 15C9 14.4477 9.44771 14 10 14H12.5858L8.29289 9.70711C7.90237 9.31658 7.90237 8.68342 8.29289 8.29289Z" fill="currentColor"/>
</svg>
