<svg width="24" height="24" viewBox="0 0 24 24" fill="none" xmlns="http://www.w3.org/2000/svg">
<path fill-rule="evenodd" clip-rule="evenodd" d="M21.1579 5.01272C21.6914 5.15566 22.008 5.704 21.865 6.23747L21.0886 9.13524C20.9456 9.66871 20.3973 9.98529 19.8638 9.84235L16.966 9.06589C16.4326 8.92295 16.116 8.37461 16.2589 7.84115C16.4019 7.30768 16.9502 6.9911 17.4837 7.13404L17.8215 7.22455C17.7858 7.16248 17.7472 7.09912 17.7054 7.03476C17.1949 6.24808 16.1563 5.22621 13.9913 4.63005C9.77911 3.47017 5.90626 5.91934 4.82411 9.9483L4.47361 11.3129C4.33622 11.8479 3.7912 12.1701 3.25628 12.0327C2.72136 11.8953 2.3991 11.3503 2.53649 10.8154L2.8909 9.43552C4.24058 4.39845 9.17262 1.22873 14.5223 2.70182C17.139 3.42238 18.5947 4.73119 19.3831 5.94602C19.5129 6.14596 19.6231 6.34109 19.7167 6.52781L19.9332 5.71983C20.0761 5.18636 20.6245 4.86978 21.1579 5.01272ZM3.09226 18.9976C2.55879 18.8546 2.24221 18.3063 2.38515 17.7728L3.16161 14.875C3.30455 14.3416 3.85289 14.025 4.38635 14.1679L7.28413 14.9444C7.8176 15.0873 8.13418 15.6357 7.99124 16.1691C7.8483 16.7026 7.29996 17.0192 6.76649 16.8762L6.42873 16.7857C6.46439 16.8478 6.50299 16.9112 6.54476 16.9755C7.05528 17.7622 8.09389 18.7841 10.2589 19.3802C14.4711 20.5401 18.3439 18.0909 19.4261 14.062L19.7766 12.6973C19.914 12.1624 20.459 11.8402 20.9939 11.9775C21.5288 12.1149 21.8511 12.66 21.7137 13.1949L21.3593 14.5748C20.0096 19.6118 15.0776 22.7815 9.72792 21.3085C7.11116 20.5879 5.65544 19.2791 4.86707 18.0643C4.73732 17.8643 4.62711 17.6692 4.5335 17.4825L4.317 18.2905C4.17406 18.8239 3.62573 19.1405 3.09226 18.9976Z" fill="currentColor"/>
</svg>
