<svg width="24" height="24" viewBox="0 0 24 24" fill="none" xmlns="http://www.w3.org/2000/svg">
<path d="M3 2C3.55229 2 4 2.44772 4 3L4 21C4 21.5523 3.55228 22 3 22C2.44772 22 2 21.5523 2 21V3C2 2.44772 2.44772 2 3 2Z" fill="currentColor"/>
<path d="M21 13C21.5523 13 22 12.5523 22 12C22 11.4477 21.5523 11 21 11L9.41421 11L13.7071 6.70711C14.0976 6.31658 14.0976 5.68342 13.7071 5.29289C13.3166 4.90237 12.6834 4.90237 12.2929 5.29289L6.29289 11.2929C5.90237 11.6834 5.90237 12.3166 6.29289 12.7071L12.2929 18.7071C12.6834 19.0976 13.3166 19.0976 13.7071 18.7071C14.0976 18.3166 14.0976 17.6834 13.7071 17.2929L9.41421 13L21 13Z" fill="currentColor"/>
</svg>
