<svg width="24" height="24" viewBox="0 0 24 24" fill="none" xmlns="http://www.w3.org/2000/svg">
<path fill-rule="evenodd" clip-rule="evenodd" d="M12 2C12.5523 2 13 2.44772 13 3V10.5858L15.2929 8.29289C15.6834 7.90237 16.3166 7.90237 16.7071 8.29289C17.0976 8.68342 17.0976 9.31658 16.7071 9.70711L12.7071 13.7071C12.3166 14.0976 11.6834 14.0976 11.2929 13.7071L7.29289 9.70711C6.90237 9.31658 6.90237 8.68342 7.29289 8.29289C7.68342 7.90237 8.31658 7.90237 8.70711 8.29289L11 10.5858V3C11 2.44772 11.4477 2 12 2ZM3 20C2.44772 20 2 20.4477 2 21C2 21.5523 2.44772 22 3 22H21C21.5523 22 22 21.5523 22 21C22 20.4477 21.5523 20 21 20H3ZM6.32068 16C5.76839 16 5.32068 16.4477 5.32068 17C5.32068 17.5523 5.76839 18 6.32068 18L17.6793 18C18.2316 18 18.6793 17.5523 18.6793 17C18.6793 16.4477 18.2316 16 17.6793 16L6.32068 16Z" fill="currentColor"/>
</svg>
