<svg width="24" height="24" viewBox="0 0 24 24" fill="none" xmlns="http://www.w3.org/2000/svg">
<path fill-rule="evenodd" clip-rule="evenodd" d="M17.7071 8.70717C17.3166 9.09769 16.6834 9.09769 16.2929 8.70717L13 5.41427L13 15.0001C13 15.5523 12.5523 16.0001 12 16.0001C11.4477 16.0001 11 15.5523 11 15.0001L11 5.41427L7.70711 8.70717C7.31658 9.09769 6.68342 9.09769 6.29289 8.70717C5.90237 8.31664 5.90237 7.68348 6.29289 7.29295L11.2929 2.29295C11.6834 1.90243 12.3166 1.90243 12.7071 2.29295L17.7071 7.29295C18.0976 7.68348 18.0976 8.31664 17.7071 8.70717ZM4 16C4 15.4477 3.55228 15 3 15C2.44772 15 2 15.4477 2 16V19C2 20.6569 3.34315 22 5 22H19C20.6569 22 22 20.6569 22 19V16C22 15.4477 21.5523 15 21 15C20.4477 15 20 15.4477 20 16V19C20 19.5523 19.5523 20 19 20H5C4.44772 20 4 19.5523 4 19V16Z" fill="currentColor"/>
</svg>
