<svg width="24" height="24" viewBox="0 0 24 24" fill="none" xmlns="http://www.w3.org/2000/svg">
<path fill-rule="evenodd" clip-rule="evenodd" d="M16.7071 2.29289C16.3166 1.90237 15.6834 1.90237 15.2929 2.29289C14.9024 2.68342 14.9024 3.31658 15.2929 3.70711L17.5858 6H10H9.99999C8.14348 6 6.363 6.7375 5.05025 8.05026C3.7375 9.36301 3 11.1435 3 13C3 14.8565 3.7375 16.637 5.05025 17.9497C6.36301 19.2625 8.14348 20 10 20H20C20.5523 20 21 19.5523 21 19C21 18.4477 20.5523 18 20 18H10C8.67392 18 7.40215 17.4732 6.46447 16.5355C5.52678 15.5979 5 14.3261 5 13C5 11.6739 5.52678 10.4022 6.46446 9.46447C7.40215 8.52679 8.67391 8 9.99999 8H10H17.5858L15.2929 10.2929C14.9024 10.6834 14.9024 11.3166 15.2929 11.7071C15.6834 12.0976 16.3166 12.0976 16.7071 11.7071L20.7071 7.70711C21.0976 7.31658 21.0976 6.68342 20.7071 6.29289L16.7071 2.29289Z" fill="currentColor"/>
</svg>
