<svg width="24" height="24" viewBox="0 0 24 24" fill="none" xmlns="http://www.w3.org/2000/svg">
<path fill-rule="evenodd" clip-rule="evenodd" d="M5 2C3.34315 2 2 3.34315 2 5V19C2 20.6569 3.34315 22 5 22H19C20.6569 22 22 20.6569 22 19V5C22 3.34315 20.6569 2 19 2H5ZM4 5C4 4.44772 4.44772 4 5 4H19C19.5523 4 20 4.44772 20 5V19C20 19.5523 19.5523 20 19 20H5C4.44772 20 4 19.5523 4 19V5ZM8.29502 8.29078C8.3904 8.19595 8.50014 8.12432 8.61722 8.07588C8.73512 8.02699 8.86441 8 9 8H14C14.5523 8 15 8.44772 15 9C15 9.55228 14.5523 10 14 10H11.4142L15.7071 14.2929C16.0976 14.6834 16.0976 15.3166 15.7071 15.7071C15.3166 16.0976 14.6834 16.0976 14.2929 15.7071L10 11.4142V14C10 14.5523 9.55228 15 9 15C8.44772 15 8 14.5523 8 14V9C8 8.86441 8.02699 8.73512 8.07588 8.61722C8.12432 8.50014 8.19595 8.3904 8.29078 8.29502L8.29502 8.29078Z" fill="currentColor"/>
</svg>
