<svg width="24" height="24" viewBox="0 0 24 24" fill="none" xmlns="http://www.w3.org/2000/svg">
<path fill-rule="evenodd" clip-rule="evenodd" d="M5 4C4.44772 4 4 4.44772 4 5V7.5C4 8.05228 3.55228 8.5 3 8.5C2.44772 8.5 2 8.05228 2 7.5V5C2 3.34315 3.34315 2 5 2H7.5C8.05228 2 8.5 2.44772 8.5 3C8.5 3.55228 8.05228 4 7.5 4H5ZM15.5 3C15.5 2.44772 15.9477 2 16.5 2H19C20.6569 2 22 3.34315 22 5V7.5C22 8.05228 21.5523 8.5 21 8.5C20.4477 8.5 20 8.05228 20 7.5V5C20 4.44772 19.5523 4 19 4H16.5C15.9477 4 15.5 3.55228 15.5 3ZM3 15.5C3.55228 15.5 4 15.9477 4 16.5V19C4 19.5523 4.44772 20 5 20H7.5C8.05228 20 8.5 20.4477 8.5 21C8.5 21.5523 8.05228 22 7.5 22H5C3.34315 22 2 20.6569 2 19V16.5C2 15.9477 2.44772 15.5 3 15.5ZM22 16.5V19C22 20.6569 20.6569 22 19 22H16.5C15.9477 22 15.5 21.5523 15.5 21C15.5 20.4477 15.9477 20 16.5 20H19C19.5523 20 20 19.5523 20 19V16.5C20 15.9477 20.4477 15.5 21 15.5C21.5523 15.5 22 15.9477 22 16.5ZM19.7071 9.29289L21.7071 11.2929C22.0976 11.6834 22.0976 12.3166 21.7071 12.7071L19.7071 14.7071C19.3166 15.0976 18.6834 15.0976 18.2929 14.7071C17.9024 14.3166 17.9024 13.6834 18.2929 13.2929L18.5858 13H16C15.4477 13 15 12.5523 15 12C15 11.4477 15.4477 11 16 11H18.5858L18.2929 10.7071C17.9024 10.3166 17.9024 9.68342 18.2929 9.29289C18.6834 8.90237 19.3166 8.90237 19.7071 9.29289ZM4.29289 14.7071C4.68342 15.0976 5.31658 15.0976 5.70711 14.7071C6.09763 14.3166 6.09763 13.6834 5.70711 13.2929L5.41421 13H8C8.55228 13 9 12.5523 9 12C9 11.4477 8.55228 11 8 11H5.41421L5.70711 10.7071C6.09763 10.3166 6.09763 9.68342 5.70711 9.29289C5.31658 8.90237 4.68342 8.90237 4.29289 9.29289L2.29289 11.2929C1.90237 11.6834 1.90237 12.3166 2.29289 12.7071L4.29289 14.7071ZM14.7071 19.7071L12.7071 21.7071C12.3166 22.0976 11.6834 22.0976 11.2929 21.7071L9.29289 19.7071C8.90237 19.3166 8.90237 18.6834 9.29289 18.2929C9.68342 17.9024 10.3166 17.9024 10.7071 18.2929L11 18.5858V16C11 15.4477 11.4477 15 12 15C12.5523 15 13 15.4477 13 16V18.5858L13.2929 18.2929C13.6834 17.9024 14.3166 17.9024 14.7071 18.2929C15.0976 18.6834 15.0976 19.3166 14.7071 19.7071ZM11.2929 2.29289L9.29289 4.29289C8.90237 4.68342 8.90237 5.31658 9.29289 5.70711C9.68342 6.09763 10.3166 6.09763 10.7071 5.70711L11 5.41421V8C11 8.55228 11.4477 9 12 9C12.5523 9 13 8.55228 13 8V5.41421L13.2929 5.70711C13.6834 6.09763 14.3166 6.09763 14.7071 5.70711C15.0976 5.31658 15.0976 4.68342 14.7071 4.29289L12.7071 2.29289C12.3166 1.90237 11.6834 1.90237 11.2929 2.29289Z" fill="currentColor"/>
</svg>
