<svg width="24" height="24" viewBox="0 0 24 24" fill="none" xmlns="http://www.w3.org/2000/svg">
<path fill-rule="evenodd" clip-rule="evenodd" d="M6.15861 1.74924C6.29709 1.2146 6.84277 0.89346 7.37741 1.03195C7.91205 1.17044 8.2332 1.71611 8.09471 2.25075L7.93682 2.86027C9.19171 2.30226 10.5568 2.00486 11.9488 1.99773C14.2167 1.98611 16.4212 2.74574 18.2005 4.15198C19.9798 5.55821 21.2283 7.52752 21.7411 9.73673C22.2538 11.9459 22.0004 14.2638 21.0223 16.31C20.0443 18.3563 18.3998 20.0092 16.3586 20.9977C14.3174 21.9862 12.0009 22.2515 9.78905 21.7501C7.57724 21.2487 5.60157 20.0103 4.18624 18.2382C2.77091 16.4661 1.99999 14.2655 1.99999 11.9976C1.99999 11.4453 2.44771 10.9976 2.99999 10.9976C3.55227 10.9976 3.99999 11.4453 3.99999 11.9976C3.99999 13.8119 4.61673 15.5724 5.74899 16.9901C6.88125 18.4078 8.46179 19.3985 10.2312 19.7996C12.0007 20.2008 13.8539 19.9885 15.4869 19.1977C17.1198 18.4069 18.4354 17.0845 19.2179 15.4476C20.0003 13.8106 20.203 11.9563 19.7928 10.1889C19.3826 8.42153 18.3839 6.84609 16.9604 5.7211C15.5369 4.59612 13.7733 3.98841 11.959 3.9977C10.9051 4.0031 9.8705 4.21649 8.91164 4.61775L9.64678 4.80491C10.182 4.94117 10.5054 5.4855 10.3691 6.02071C10.2329 6.55593 9.68855 6.87934 9.15334 6.74308L6.10348 5.96663C5.88803 5.91178 5.69827 5.78707 5.56273 5.6139C5.3425 5.33518 5.29425 4.97469 5.40418 4.66173L6.15861 1.74924Z" fill="currentColor"/>
</svg>
