<svg width="24" height="24" viewBox="0 0 24 24" fill="none" xmlns="http://www.w3.org/2000/svg">
<path fill-rule="evenodd" clip-rule="evenodd" d="M8 20C7.44771 20 7 19.5523 7 19V17.1429C7 16.5906 6.55228 16.1429 6 16.1429C5.44772 16.1429 5 16.5906 5 17.1429V19C5 20.6569 6.34315 22 8 22H19C20.6569 22 22 20.6569 22 19V5C22 3.34314 20.6569 2 19 2H8C6.34314 2 5 3.34315 5 5V6.85714C5 7.40943 5.44771 7.85714 6 7.85714C6.55228 7.85714 7 7.40943 7 6.85714L7 5C7 4.44772 7.44771 4 8 4L19 4C19.5523 4 20 4.44772 20 5V19C20 19.5523 19.5523 20 19 20H8ZM12.7071 7.29289C12.3166 6.90237 11.6834 6.90237 11.2929 7.29289C10.9024 7.68342 10.9024 8.31658 11.2929 8.70711L13.5858 11H3C2.44772 11 2 11.4477 2 12C2 12.5523 2.44772 13 3 13H13.5858L11.2929 15.2929C10.9024 15.6834 10.9024 16.3166 11.2929 16.7071C11.6834 17.0976 12.3166 17.0976 12.7071 16.7071L16.7071 12.7071C17.0976 12.3166 17.0976 11.6834 16.7071 11.2929L12.7071 7.29289Z" fill="currentColor"/>
</svg>
