<svg width="24" height="24" viewBox="0 0 24 24" fill="none" xmlns="http://www.w3.org/2000/svg">
<path fill-rule="evenodd" clip-rule="evenodd" d="M7.29289 6.29289C6.90237 6.68342 6.90237 7.31658 7.29289 7.70711C7.68342 8.09763 8.31658 8.09763 8.70711 7.70711L11 5.41421V16C11 16.5523 11.4477 17 12 17C12.5523 17 13 16.5523 13 16V5.41421L15.2929 7.70711C15.6834 8.09763 16.3166 8.09763 16.7071 7.70711C17.0976 7.31658 17.0976 6.68342 16.7071 6.29289L12.7071 2.29289C12.3166 1.90237 11.6834 1.90237 11.2929 2.29289L7.29289 6.29289ZM4 14C4 13.4477 4.44772 13 5 13H6.85714C7.40943 13 7.85714 12.5523 7.85714 12C7.85714 11.4477 7.40943 11 6.85714 11H5C3.34315 11 2 12.3431 2 14V19C2 20.6569 3.34315 22 5 22H19C20.6569 22 22 20.6569 22 19V14C22 12.3431 20.6569 11 19 11H17.1429C16.5906 11 16.1429 11.4477 16.1429 12C16.1429 12.5523 16.5906 13 17.1429 13H19C19.5523 13 20 13.4477 20 14V19C20 19.5523 19.5523 20 19 20H5C4.44772 20 4 19.5523 4 19V14Z" fill="currentColor"/>
</svg>
