<svg width="24" height="24" viewBox="0 0 24 24" fill="none" xmlns="http://www.w3.org/2000/svg">
<path d="M20 5C20.5128 5 20.9355 5.38604 20.9933 5.88338L21 6V10.5C21 12.3686 19.5357 13.8951 17.692 13.9948L17.5 14H6.415L9.70711 17.2929C10.0676 17.6534 10.0953 18.2206 9.79029 18.6129L9.70711 18.7071C9.34662 19.0676 8.77939 19.0953 8.3871 18.7903L8.29289 18.7071L3.29289 13.7071C3.2575 13.6717 3.22531 13.6343 3.19633 13.5953L3.12467 13.4841L3.07123 13.3713L3.03585 13.266L3.01102 13.1485L3.00398 13.0898L3 13L3.00279 12.9248L3.02024 12.7993L3.04974 12.6879L3.09367 12.5768L3.146 12.4793L3.2097 12.3871L3.29289 12.2929L8.29289 7.29289C8.68342 6.90237 9.31658 6.90237 9.70711 7.29289C10.0676 7.65338 10.0953 8.22061 9.79029 8.6129L9.70711 8.70711L6.415 12H17.5C18.2797 12 18.9204 11.4051 18.9931 10.6445L19 10.5V6C19 5.44772 19.4477 5 20 5Z" fill="currentColor"/>
</svg>
