<svg width="24" height="24" viewBox="0 0 24 24" fill="none" xmlns="http://www.w3.org/2000/svg">
<path fill-rule="evenodd" clip-rule="evenodd" d="M16.7071 12.7071C17.0976 12.3166 17.0976 11.6834 16.7071 11.2929C16.3166 10.9024 15.6834 10.9024 15.2929 11.2929L13 13.5858V3C13 2.44772 12.5523 2 12 2C11.4477 2 11 2.44772 11 3V13.5858L8.70711 11.2929C8.31658 10.9024 7.68342 10.9024 7.29289 11.2929C6.90237 11.6834 6.90237 12.3166 7.29289 12.7071L11.2929 16.7071C11.6834 17.0976 12.3166 17.0976 12.7071 16.7071L16.7071 12.7071ZM4 8C4 7.44772 4.44772 7 5 7H6.85714C7.40943 7 7.85714 6.55229 7.85714 6C7.85714 5.44772 7.40943 5 6.85714 5H5C3.34315 5 2 6.34315 2 8V19C2 20.6569 3.34315 22 5 22H19C20.6569 22 22 20.6569 22 19V8C22 6.34315 20.6569 5 19 5H17.1429C16.5906 5 16.1429 5.44772 16.1429 6C16.1429 6.55229 16.5906 7 17.1429 7H19C19.5523 7 20 7.44772 20 8V19C20 19.5523 19.5523 20 19 20H5C4.44772 20 4 19.5523 4 19V8Z" fill="currentColor"/>
</svg>
