<svg width="24" height="24" viewBox="0 0 24 24" fill="none" xmlns="http://www.w3.org/2000/svg">
<path fill-rule="evenodd" clip-rule="evenodd" d="M12.7072 1.29305C12.5197 1.10551 12.2653 1.00015 12.0001 1.00015C11.7349 1.00015 11.4805 1.10551 11.293 1.29305L8.29299 4.29305C7.90246 4.68357 7.90246 5.31674 8.29299 5.70726C8.68351 6.09778 9.31668 6.09778 9.7072 5.70726L11.0001 4.41437V11H4.41446L5.70735 9.70711C6.09788 9.31658 6.09788 8.68342 5.70735 8.2929C5.31683 7.90237 4.68366 7.90237 4.29314 8.2929L1.29314 11.2929C1.1056 11.4804 1.00024 11.7348 1.00024 12C1.00024 12.2652 1.1056 12.5196 1.29314 12.7071L4.29314 15.7071C4.68366 16.0976 5.31683 16.0976 5.70735 15.7071C6.09788 15.3166 6.09788 14.6834 5.70735 14.2929L4.41446 13L11.0001 13V19.5856L9.7072 18.2927C9.31668 17.9022 8.68351 17.9022 8.29299 18.2927C7.90246 18.6833 7.90246 19.3164 8.29299 19.707L11.293 22.707C11.4805 22.8945 11.7349 22.9999 12.0001 22.9999C12.2653 22.9999 12.5197 22.8945 12.7072 22.707L15.7072 19.707C16.0977 19.3164 16.0977 18.6833 15.7072 18.2927C15.3167 17.9022 14.6835 17.9022 14.293 18.2927L13.0001 19.5856V13L19.5857 13L18.2928 14.2929C17.9023 14.6834 17.9023 15.3166 18.2928 15.7071C18.6834 16.0976 19.3165 16.0976 19.707 15.7071L22.707 12.7071C22.8946 12.5196 22.9999 12.2652 22.9999 12C22.9999 11.7348 22.8946 11.4804 22.707 11.2929L19.707 8.29289C19.3165 7.90237 18.6834 7.90237 18.2928 8.29289C17.9023 8.68342 17.9023 9.31658 18.2928 9.70711L19.5857 11H13.0001V4.41437L14.293 5.70726C14.6835 6.09778 15.3167 6.09778 15.7072 5.70726C16.0977 5.31674 16.0977 4.68357 15.7072 4.29305L12.7072 1.29305Z" fill="currentColor"/>
</svg>
