<svg width="24" height="24" viewBox="0 0 24 24" fill="none" xmlns="http://www.w3.org/2000/svg">
<path fill-rule="evenodd" clip-rule="evenodd" d="M7.29289 2.29289C7.68342 1.90237 8.31658 1.90237 8.70711 2.29289C9.09763 2.68342 9.09763 3.31658 8.70711 3.70711L6.41421 6H14H14C15.8565 6 17.637 6.7375 18.9498 8.05026C20.2625 9.36301 21 11.1435 21 13C21 14.8565 20.2625 16.637 18.9497 17.9497C17.637 19.2625 15.8565 20 14 20H4C3.44772 20 3 19.5523 3 19C3 18.4477 3.44772 18 4 18H14C15.3261 18 16.5979 17.4732 17.5355 16.5355C18.4732 15.5979 19 14.3261 19 13C19 11.6739 18.4732 10.4022 17.5355 9.46447C16.5979 8.52679 15.3261 8 14 8H14H6.41421L8.70711 10.2929C9.09763 10.6834 9.09763 11.3166 8.70711 11.7071C8.31658 12.0976 7.68342 12.0976 7.29289 11.7071L3.29289 7.70711C2.90237 7.31658 2.90237 6.68342 3.29289 6.29289L7.29289 2.29289Z" fill="currentColor"/>
</svg>
