<svg width="24" height="24" viewBox="0 0 24 24" fill="none" xmlns="http://www.w3.org/2000/svg">
<path fill-rule="evenodd" clip-rule="evenodd" d="M12.2929 2.29289C12.6834 1.90237 13.3166 1.90237 13.7071 2.29289L17.7071 6.29289C18.0976 6.68342 18.0976 7.31658 17.7071 7.70711L13.7071 11.7071C13.3166 12.0976 12.6834 12.0976 12.2929 11.7071C11.9024 11.3166 11.9024 10.6834 12.2929 10.2929L14.5858 8H13C13 8 13 8 13 8C11.6739 8 10.4021 8.52679 9.46446 9.46447C8.52678 10.4022 8 11.6739 8 13C8 14.3261 8.52678 15.5979 9.46447 16.5355C10.4021 17.4732 11.6739 18 13 18H15C15.5523 18 16 18.4477 16 19C16 19.5523 15.5523 20 15 20H13C11.1435 20 9.36301 19.2625 8.05025 17.9497C6.7375 16.637 6 14.8565 6 13C6 11.1435 6.7375 9.36301 8.05025 8.05026C9.363 6.7375 11.1435 6 13 6C13 6 13 6 13 6H14.5858L12.2929 3.70711C11.9024 3.31658 11.9024 2.68342 12.2929 2.29289Z" fill="currentColor"/>
</svg>
