<svg width="24" height="24" viewBox="0 0 24 24" fill="none" xmlns="http://www.w3.org/2000/svg">
<path fill-rule="evenodd" clip-rule="evenodd" d="M5 2C3.34315 2 2 3.34315 2 5V19C2 20.6569 3.34315 22 5 22H19C20.6569 22 22 20.6569 22 19V5C22 3.34315 20.6569 2 19 2H5ZM4 5C4 4.44772 4.44772 4 5 4H19C19.5523 4 20 4.44772 20 5V19C20 19.5523 19.5523 20 19 20H5C4.44772 20 4 19.5523 4 19V5ZM8.29289 8.29289C8.68342 7.90237 9.31658 7.90237 9.70711 8.29289L14 12.5858V10C14 9.44772 14.4477 9 15 9C15.5523 9 16 9.44772 16 10V14.9993V15L16 15.003C15.9992 15.2579 15.9016 15.5126 15.7071 15.7071C15.6112 15.803 15.5007 15.8753 15.3828 15.9241C15.2657 15.9727 15.1375 15.9996 15.003 16L15 16H14.9993H10C9.44772 16 9 15.5523 9 15C9 14.4477 9.44772 14 10 14H12.5858L8.29289 9.70711C7.90237 9.31658 7.90237 8.68342 8.29289 8.29289Z" fill="currentColor"/>
</svg>
