<svg width="24" height="24" viewBox="0 0 24 24" fill="none" xmlns="http://www.w3.org/2000/svg">
<path fill-rule="evenodd" clip-rule="evenodd" d="M3 12C3 7.02944 7.02944 3 12 3C16.9706 3 21 7.02944 21 12C21 16.9706 16.9706 21 12 21C7.02944 21 3 16.9706 3 12ZM12 1C5.92487 1 1 5.92487 1 12C1 18.0751 5.92487 23 12 23C18.0751 23 23 18.0751 23 12C23 5.92487 18.0751 1 12 1ZM15.7092 8.29502C15.804 8.3904 15.8757 8.50014 15.9241 8.61722C15.9727 8.73425 15.9996 8.8625 16 8.997L16 9V14C16 14.5523 15.5523 15 15 15C14.4477 15 14 14.5523 14 14V11.4142L9.70711 15.7071C9.31658 16.0976 8.68342 16.0976 8.29289 15.7071C7.90237 15.3166 7.90237 14.6834 8.29289 14.2929L12.5858 10H10C9.44771 10 9 9.55229 9 9C9 8.44772 9.44771 8 10 8H15C15.1356 8 15.2649 8.02699 15.3828 8.07588C15.4999 8.12432 15.6096 8.19595 15.705 8.29078L15.7092 8.29502Z" fill="currentColor"/>
</svg>
