<svg width="24" height="24" viewBox="0 0 24 24" fill="none" xmlns="http://www.w3.org/2000/svg">
<path d="M17 4C17.5523 4 18 4.44772 18 5V12.5858L19.2929 11.2929C19.6834 10.9024 20.3166 10.9024 20.7071 11.2929C21.0976 11.6834 21.0976 12.3166 20.7071 12.7071L17.7071 15.7071C17.3166 16.0976 16.6834 16.0976 16.2929 15.7071L13.2929 12.7071C12.9024 12.3166 12.9024 11.6834 13.2929 11.2929C13.6834 10.9024 14.3166 10.9024 14.7071 11.2929L16 12.5858V5C16 4.44772 16.4477 4 17 4Z" fill="currentColor"/>
<path d="M3 6C3 5.44772 3.44772 5 4 5H10C10.5523 5 11 5.44772 11 6V8.5C11 9.05228 10.5523 9.5 10 9.5H4C3.44772 9.5 3 9.05228 3 8.5V6Z" fill="currentColor"/>
<path d="M3 12.5C3 11.9477 3.44772 11.5 4 11.5H10C10.5523 11.5 11 11.9477 11 12.5V15C11 15.5523 10.5523 16 10 16H4C3.44772 16 3 15.5523 3 15V12.5Z" fill="currentColor"/>
<path d="M3 18C2.44772 18 2 18.4477 2 19C2 19.5523 2.44772 20 3 20H21C21.5523 20 22 19.5523 22 19C22 18.4477 21.5523 18 21 18H3Z" fill="currentColor"/>
</svg>
