<svg width="24" height="24" viewBox="0 0 24 24" fill="none" xmlns="http://www.w3.org/2000/svg">
<path fill-rule="evenodd" clip-rule="evenodd" d="M18.7071 2.29292C18.4211 2.00692 17.991 1.92137 17.6173 2.07615C17.2436 2.23093 17 2.59557 17 3.00003V5H3C2.44772 5 2 5.44772 2 6C2 6.55228 2.44772 7 3 7H17V9.00003C17 9.40449 17.2436 9.76913 17.6173 9.92391C17.991 10.0787 18.4211 9.99313 18.7071 9.70714L21.7071 6.70714C22.0976 6.31661 22.0976 5.68345 21.7071 5.29292L18.7071 2.29292ZM5 13H8C9.65685 13 11 14.3431 11 16V19C11 20.6569 9.65685 22 8 22H5C3.34315 22 2 20.6569 2 19V16C2 14.3431 3.34315 13 5 13ZM5 15C4.44772 15 4 15.4477 4 16V19C4 19.5523 4.44772 20 5 20H8C8.55228 20 9 19.5523 9 19V16C9 15.4477 8.55228 15 8 15H5ZM16 13C14.3431 13 13 14.3431 13 16V19C13 20.6569 14.3431 22 16 22H19C20.6569 22 22 20.6569 22 19V16C22 14.3431 20.6569 13 19 13H16Z" fill="currentColor"/>
</svg>
