<svg width="24" height="24" viewBox="0 0 24 24" fill="none" xmlns="http://www.w3.org/2000/svg">
<path fill-rule="evenodd" clip-rule="evenodd" d="M17.7071 3.29292C17.4211 3.00692 16.991 2.92137 16.6173 3.07615C16.2436 3.23093 16 3.59557 16 4.00003V6H4C3.44772 6 3 6.44772 3 7C3 7.55228 3.44772 8 4 8H16V10C16 10.4045 16.2436 10.7691 16.6173 10.9239C16.991 11.0787 17.4211 10.9931 17.7071 10.7071L20.7071 7.70714C21.0976 7.31661 21.0976 6.68345 20.7071 6.29292L17.7071 3.29292ZM7.38268 13.0761C7.75636 13.2309 8 13.5956 8 14V16H20C20.5523 16 21 16.4477 21 17C21 17.5523 20.5523 18 20 18H8V20C8 20.4045 7.75636 20.7691 7.38268 20.9239C7.00901 21.0787 6.57889 20.9931 6.29289 20.7071L3.29289 17.7071C2.90237 17.3166 2.90237 16.6834 3.29289 16.2929L6.29289 13.2929C6.57889 13.0069 7.00901 12.9214 7.38268 13.0761Z" fill="currentColor"/>
</svg>
