<svg width="24" height="24" viewBox="0 0 24 24" fill="none" xmlns="http://www.w3.org/2000/svg">
<path fill-rule="evenodd" clip-rule="evenodd" d="M6.29292 3.29289C6.68345 2.90237 7.31661 2.90237 7.70714 3.29289L10.7071 6.29289C10.9931 6.57889 11.0787 7.00901 10.9239 7.38268C10.7691 7.75636 10.4045 8 10 8H8V20C8 20.5523 7.55228 21 7 21C6.44772 21 6 20.5523 6 20V8H4.00003C3.59557 8 3.23093 7.75636 3.07615 7.38268C2.92137 7.00901 3.00692 6.57889 3.29292 6.29289L6.29292 3.29289ZM16 4V16H14C13.5956 16 13.2309 16.2436 13.0761 16.6173C12.9214 16.991 13.0069 17.4211 13.2929 17.7071L16.2929 20.7071C16.6834 21.0976 17.3166 21.0976 17.7071 20.7071L20.7071 17.7071C20.9931 17.4211 21.0787 16.991 20.9239 16.6173C20.7691 16.2436 20.4045 16 20 16H18V4C18 3.44772 17.5523 3 17 3C16.4477 3 16 3.44772 16 4Z" fill="currentColor"/>
</svg>
