<svg width="24" height="24" viewBox="0 0 24 24" fill="none" xmlns="http://www.w3.org/2000/svg">
<path fill-rule="evenodd" clip-rule="evenodd" d="M2.29289 2.29289C2.68342 1.90237 3.31658 1.90237 3.70711 2.29289L7.00003 5.58582L8.29292 4.29292C8.57892 4.00692 9.00904 3.92137 9.38271 4.07615C9.75639 4.23093 10 4.59557 10 5.00003V9.00003C10 9.55231 9.55231 10 9.00003 10H5.00003C4.59557 10 4.23093 9.75639 4.07615 9.38271C3.92137 9.00904 4.00692 8.57892 4.29292 8.29292L5.58582 7.00003L2.29289 3.70711C1.90237 3.31658 1.90237 2.68342 2.29289 2.29289ZM5.00003 14C4.59557 14 4.23093 14.2436 4.07615 14.6173C3.92137 14.991 4.00692 15.4211 4.29292 15.7071L5.5858 17L2.29289 20.2929C1.90237 20.6834 1.90237 21.3166 2.29289 21.7071C2.68342 22.0976 3.31658 22.0976 3.70711 21.7071L7.00001 18.4142L8.29292 19.7071C8.57892 19.9931 9.00904 20.0787 9.38271 19.9239C9.75639 19.7691 10 19.4045 10 19V15C10 14.4477 9.55231 14 9.00003 14H5.00003ZM19 14H15C14.4477 14 14 14.4477 14 15V19C14 19.4045 14.2436 19.7691 14.6173 19.9239C14.991 20.0787 15.4211 19.9931 15.7071 19.7071L17 18.4142L20.2929 21.7071C20.6834 22.0976 21.3166 22.0976 21.7071 21.7071C22.0976 21.3166 22.0976 20.6834 21.7071 20.2929L18.4142 17L19.7071 15.7071C19.9931 15.4211 20.0787 14.991 19.9239 14.6173C19.7691 14.2436 19.4045 14 19 14ZM14.6173 4.07615C14.991 3.92137 15.4211 4.00692 15.7071 4.29292L17 5.5858L20.2929 2.29289C20.6834 1.90237 21.3166 1.90237 21.7071 2.29289C22.0976 2.68342 22.0976 3.31658 21.7071 3.70711L18.4142 7.00001L19.7071 8.29292C19.9931 8.57892 20.0787 9.00904 19.9239 9.38271C19.7691 9.75639 19.4045 10 19 10H15C14.4477 10 14 9.55231 14 9.00003V5.00003C14 4.59557 14.2436 4.23093 14.6173 4.07615Z" fill="currentColor"/>
</svg>
