<svg width="24" height="24" viewBox="0 0 24 24" fill="none" xmlns="http://www.w3.org/2000/svg">
<path fill-rule="evenodd" clip-rule="evenodd" d="M16.2929 3.29289C16.6834 2.90237 17.3166 2.90237 17.7071 3.29289L20.7071 6.29289C20.9931 6.57889 21.0787 7.00901 20.9239 7.38268C20.7691 7.75636 20.4045 8 20 8H18V20C18 20.5523 17.5523 21 17 21C16.4477 21 16 20.5523 16 20V8H14C13.5956 8 13.2309 7.75636 13.0761 7.38268C12.9214 7.00901 13.0069 6.57889 13.2929 6.29289L16.2929 3.29289ZM8 4C8 3.44772 7.55228 3 7 3C6.44772 3 6 3.44772 6 4V16H4.00003C3.59557 16 3.23093 16.2436 3.07615 16.6173C2.92137 16.991 3.00692 17.4211 3.29292 17.7071L6.29292 20.7071C6.68345 21.0976 7.31661 21.0976 7.70714 20.7071L10.7071 17.7071C10.9931 17.4211 11.0787 16.991 10.9239 16.6173C10.7691 16.2436 10.4045 16 10 16H8V4Z" fill="currentColor"/>
</svg>
