<svg width="24" height="24" viewBox="0 0 24 24" fill="none" xmlns="http://www.w3.org/2000/svg">
<path fill-rule="evenodd" clip-rule="evenodd" d="M5 2C3.34315 2 2 3.34315 2 5V19C2 20.6569 3.34315 22 5 22H19C20.6569 22 22 20.6569 22 19V5C22 3.34315 20.6569 2 19 2H5ZM14.6173 4.07615C14.991 3.92137 15.4211 4.00692 15.7071 4.29292L18.7071 7.29292C19.0976 7.68345 19.0976 8.31661 18.7071 8.70714L15.7071 11.7071C15.4211 11.9931 14.991 12.0787 14.6173 11.9239C14.2436 11.7691 14 11.4045 14 11V9.00003H6C5.44772 9.00003 5 8.55231 5 8.00003C5 7.44774 5.44772 7.00003 6 7.00003H14V5.00003C14 4.59557 14.2436 4.23093 14.6173 4.07615ZM9.38268 12.0761C9.75636 12.2309 10 12.5956 10 13V15H18C18.5523 15 19 15.4477 19 16C19 16.5523 18.5523 17 18 17H10V19C10 19.4045 9.75636 19.7691 9.38268 19.9239C9.00901 20.0787 8.57889 19.9931 8.29289 19.7071L5.29289 16.7071C4.90237 16.3166 4.90237 15.6834 5.29289 15.2929L8.29289 12.2929C8.57889 12.0069 9.00901 11.9214 9.38268 12.0761Z" fill="currentColor"/>
</svg>
