<svg width="24" height="24" viewBox="0 0 24 24" fill="none" xmlns="http://www.w3.org/2000/svg">
<path fill-rule="evenodd" clip-rule="evenodd" d="M21.7071 18.7071C21.9931 18.4211 22.0786 17.991 21.9239 17.6173C21.7691 17.2436 21.4044 17 21 17H19V3C19 2.44772 18.5523 2 18 2C17.4477 2 17 2.44772 17 3L17 17L15 17C14.5955 17 14.2309 17.2436 14.0761 17.6173C13.9213 17.991 14.0069 18.4211 14.2929 18.7071L17.2929 21.7071C17.6834 22.0976 18.3166 22.0976 18.7071 21.7071L21.7071 18.7071ZM11 5V8C11 9.65686 9.65685 11 8 11H5C3.34315 11 2 9.65685 2 8L2 5C2 3.34315 3.34315 2 5 2L8 2C9.65686 2 11 3.34315 11 5ZM9 5C9 4.44772 8.55228 4 8 4L5 4C4.44772 4 4 4.44772 4 5L4 8C4 8.55228 4.44772 9 5 9H8C8.55228 9 9 8.55228 9 8V5ZM11 16C11 14.3431 9.65686 13 8 13H5C3.34315 13 2 14.3431 2 16L2 19C2 20.6569 3.34315 22 5 22H8C9.65685 22 11 20.6569 11 19V16Z" fill="currentColor"/>
</svg>
