<svg width="24" height="24" viewBox="0 0 24 24" fill="none" xmlns="http://www.w3.org/2000/svg">
<path fill-rule="evenodd" clip-rule="evenodd" d="M16 16L16 4C16 3.44772 16.4477 3 17 3C17.5523 3 18 3.44771 18 4L18 16H20C20.4044 16 20.7691 16.2436 20.9239 16.6173C21.0786 16.991 20.9931 17.4211 20.7071 17.7071L17.7071 20.7071C17.3166 21.0976 16.6834 21.0976 16.2929 20.7071L13.2929 17.7071C13.0069 17.4211 12.9213 16.991 13.0761 16.6173C13.2309 16.2436 13.5955 16 14 16H16ZM3 14C3 13.4477 3.44772 13 4 13H9C9.55228 13 10 13.4477 10 14C10 14.5523 9.55228 15 9 15H4C3.44772 15 3 14.5523 3 14ZM4 9C3.44772 9 3 9.44772 3 10C3 10.5523 3.44772 11 4 11H11C11.5523 11 12 10.5523 12 10C12 9.44772 11.5523 9 11 9H4ZM3 6C3 5.44772 3.44772 5 4 5H13C13.5523 5 14 5.44772 14 6C14 6.55228 13.5523 7 13 7H4C3.44772 7 3 6.55228 3 6ZM4 17C3.44772 17 3 17.4477 3 18C3 18.5523 3.44772 19 4 19H6C6.55228 19 7 18.5523 7 18C7 17.4477 6.55228 17 6 17H4Z" fill="currentColor"/>
</svg>
