<svg width="24" height="24" viewBox="0 0 24 24" fill="none" xmlns="http://www.w3.org/2000/svg">
<path fill-rule="evenodd" clip-rule="evenodd" d="M18 4C17.4477 4 17 4.44772 17 5V10C17 10.5523 16.5523 11 16 11H10V8.00003C10 7.59557 9.75636 7.23093 9.38268 7.07615C9.00901 6.92137 8.57889 7.00692 8.29289 7.29292L3.29289 12.2929C2.90237 12.6834 2.90237 13.3166 3.29289 13.7071L8.29289 18.7071C8.57889 18.9931 9.00901 19.0787 9.38268 18.9239C9.75636 18.7691 10 18.4045 10 18V15H17C19.2091 15 21 13.2091 21 11V5C21 4.44772 20.5523 4 20 4H18Z" fill="currentColor"/>
</svg>
