<svg width="24" height="24" viewBox="0 0 24 24" fill="none" xmlns="http://www.w3.org/2000/svg">
<path fill-rule="evenodd" clip-rule="evenodd" d="M7.38268 3.07615C7.75636 3.23093 8 3.59557 8 4.00003V6H20C20.5523 6 21 6.44772 21 7C21 7.55228 20.5523 8 20 8H8V10C8 10.4045 7.75636 10.7691 7.38268 10.9239C7.00901 11.0787 6.57889 10.9931 6.29289 10.7071L3.29289 7.70714C2.90237 7.31661 2.90237 6.68345 3.29289 6.29292L6.29289 3.29292C6.57889 3.00692 7.00901 2.92137 7.38268 3.07615ZM16 18V20C16 20.4045 16.2436 20.7691 16.6173 20.9239C16.991 21.0787 17.4211 20.9931 17.7071 20.7071L20.7071 17.7071C21.0976 17.3166 21.0976 16.6834 20.7071 16.2929L17.7071 13.2929C17.4211 13.0069 16.991 12.9214 16.6173 13.0761C16.2436 13.2309 16 13.5956 16 14V16H4C3.44772 16 3 16.4477 3 17C3 17.5523 3.44772 18 4 18H16Z" fill="currentColor"/>
</svg>
