<svg width="24" height="24" viewBox="0 0 24 24" fill="none" xmlns="http://www.w3.org/2000/svg">
<path fill-rule="evenodd" clip-rule="evenodd" d="M7 2H3C2.44772 2 2 2.44772 2 3V7C2 7.40446 2.24364 7.7691 2.61732 7.92388C2.99099 8.07866 3.42111 7.9931 3.70711 7.70711L5 6.41421L8.29289 9.70711C8.68342 10.0976 9.31658 10.0976 9.70711 9.70711C10.0976 9.31658 10.0976 8.68342 9.70711 8.29289L6.41421 5L7.70711 3.70711C7.9931 3.42111 8.07866 2.99099 7.92388 2.61732C7.7691 2.24364 7.40446 2 7 2ZM17 2C16.5956 2 16.2309 2.24364 16.0761 2.61732C15.9214 2.99099 16.0069 3.42111 16.2929 3.70711L17.5858 4.99999L14.2929 8.29289C13.9024 8.68342 13.9024 9.31658 14.2929 9.70711C14.6834 10.0976 15.3166 10.0976 15.7071 9.70711L19 6.4142L20.2929 7.70711C20.5789 7.9931 21.009 8.07866 21.3827 7.92388C21.7564 7.7691 22 7.40446 22 7V3C22 2.44772 21.5523 2 21 2H17ZM9.70711 15.7071C10.0976 15.3166 10.0976 14.6834 9.70711 14.2929C9.31658 13.9024 8.68342 13.9024 8.29289 14.2929L4.99999 17.5858L3.70711 16.2929C3.42111 16.0069 2.99099 15.9214 2.61732 16.0761C2.24364 16.2309 2 16.5956 2 17V21C2 21.5523 2.44772 22 3 22H7C7.40446 22 7.7691 21.7564 7.92388 21.3827C8.07866 21.009 7.9931 20.5789 7.70711 20.2929L6.4142 19L9.70711 15.7071ZM14.2929 14.2929C14.6834 13.9024 15.3166 13.9024 15.7071 14.2929L19 17.5858L20.2929 16.2929C20.5789 16.0069 21.009 15.9214 21.3827 16.0761C21.7564 16.2309 22 16.5956 22 17V21C22 21.5523 21.5523 22 21 22H17C16.5956 22 16.2309 21.7564 16.0761 21.3827C15.9214 21.009 16.0069 20.5789 16.2929 20.2929L17.5858 19L14.2929 15.7071C13.9024 15.3166 13.9024 14.6834 14.2929 14.2929Z" fill="currentColor"/>
</svg>
