<svg width="24" height="24" viewBox="0 0 24 24" fill="none" xmlns="http://www.w3.org/2000/svg">
<path fill-rule="evenodd" clip-rule="evenodd" d="M5 2C3.34315 2 2 3.34315 2 5V19C2 20.6569 3.34315 22 5 22H19C20.6569 22 22 20.6569 22 19V5C22 3.34315 20.6569 2 19 2H5ZM5 7C5 6.44772 5.44772 6 6 6H18C18.5523 6 19 6.44772 19 7C19 7.55228 18.5523 8 18 8H6C5.44772 8 5 7.55228 5 7ZM15 17H18C18.5523 17 19 16.5523 19 16C19 15.4477 18.5523 15 18 15H15V14V13C15 12.5955 14.7564 12.2309 14.3827 12.0761C14.009 11.9213 13.5789 12.0069 13.2929 12.2929L10.2929 15.2929C9.90237 15.6834 9.90237 16.3166 10.2929 16.7071L13.2929 19.7071C13.5789 19.9931 14.009 20.0787 14.3827 19.9239C14.7564 19.7691 15 19.4045 15 19V18V17ZM6 10C5.44772 10 5 10.4477 5 11C5 11.5523 5.44772 12 6 12H10C10.5523 12 11 11.5523 11 11C11 10.4477 10.5523 10 10 10H6Z" fill="currentColor"/>
</svg>
