<svg width="24" height="24" viewBox="0 0 24 24" fill="none" xmlns="http://www.w3.org/2000/svg">
<path fill-rule="evenodd" clip-rule="evenodd" d="M12 3.00003C12 2.59557 11.7564 2.23093 11.3827 2.07615C11.009 1.92137 10.5789 2.00692 10.2929 2.29292L2.29289 10.2929C1.90237 10.6834 1.90237 11.3166 2.29289 11.7071L10.2929 19.7071C10.5789 19.9931 11.009 20.0787 11.3827 19.9239C11.7564 19.7691 12 19.4045 12 19V14.2539H14.5C16.5703 14.2539 18.25 15.9336 18.25 18.0039C18.25 19.1875 17.6641 20.1992 17.2969 20.543C17.082 20.7422 16.9141 21.0117 16.9141 21.3047C16.9141 21.7266 17.2578 22 17.6836 22C17.793 22 17.9023 21.9847 18 21.93C18.7305 21.5316 22 19.3008 22 14.875C22 11.0781 18.9219 8 15.125 8H12V3.00003Z" fill="currentColor"/>
</svg>
