<svg width="24" height="24" viewBox="0 0 24 24" fill="none" xmlns="http://www.w3.org/2000/svg">
<path fill-rule="evenodd" clip-rule="evenodd" d="M7.56265 3.26139C7.9036 2.8994 8.44343 2.91531 8.76663 3.29719C9.08982 3.67907 9.07561 4.28372 8.73466 4.64571L3.70209 10L8.73466 15.3543C9.07561 15.7163 9.08982 16.3209 8.76663 16.7028C8.44343 17.0847 7.9036 17.1006 7.56265 16.7386L2.53007 11.3843C1.82331 10.6325 1.82331 9.36751 2.53007 8.61568L7.56265 3.26139ZM13.3827 3.07615C13.7564 3.23093 14 3.59557 14 4.00003V7H14.9286C18.8339 7 22 10.135 22 14.002C22 18.5095 18.7254 20.5226 17.9741 20.9244C17.8737 20.9761 17.7612 21 17.6487 21C17.2107 21 16.8571 20.6499 16.8571 20.2163C16.8571 19.9179 17.0299 19.6434 17.2509 19.4405C17.6286 19.0904 18.1429 18.3941 18.1429 17.1847C18.1429 15.0762 16.4152 13.3654 14.2857 13.3654H14V16C14 16.4045 13.7564 16.7691 13.3827 16.9239C13.009 17.0787 12.5789 16.9931 12.2929 16.7071L6.29289 10.7071C5.90237 10.3166 5.90237 9.68345 6.29289 9.29292L12.2929 3.29292C12.5789 3.00692 13.009 2.92137 13.3827 3.07615Z" fill="currentColor"/>
</svg>
