<svg width="24" height="24" viewBox="0 0 24 24" fill="none" xmlns="http://www.w3.org/2000/svg">
<path fill-rule="evenodd" clip-rule="evenodd" d="M12 3.00003C12 2.59557 12.2436 2.23093 12.6173 2.07615C12.991 1.92137 13.4211 2.00692 13.7071 2.29292L21.7071 10.2929C22.0976 10.6834 22.0976 11.3166 21.7071 11.7071L13.7071 19.7071C13.4211 19.9931 12.991 20.0787 12.6173 19.9239C12.2436 19.7691 12 19.4045 12 19V14.2539H9.5C7.42969 14.2539 5.75 15.9336 5.75 18.0039C5.75 19.1875 6.33594 20.1992 6.70312 20.543C6.91797 20.7422 7.08594 21.0117 7.08594 21.3047C7.08594 21.7266 6.74219 22 6.31641 22C6.20703 22 6.09766 21.9847 6 21.93C5.26953 21.5316 2 19.3008 2 14.875C2 11.0781 5.07812 8 8.875 8H12V3.00003Z" fill="currentColor"/>
</svg>
