<svg width="24" height="24" viewBox="0 0 24 24" fill="none" xmlns="http://www.w3.org/2000/svg">
<path fill-rule="evenodd" clip-rule="evenodd" d="M9.05692 4.58527L9.06156 4.60817C7.61036 5.28017 6.65822 6.41465 6.05748 7.52372C5.59728 8.37331 5.33653 9.2125 5.19009 9.83271C5.11638 10.1449 5.07034 10.4072 5.04239 10.595C5.02839 10.6891 5.01887 10.7649 5.01265 10.8195C5.00954 10.8468 5.00726 10.8688 5.00565 10.8851L4.99763 10.943C4.99046 10.9943 4.97989 11.0694 4.9664 11.1632C4.93942 11.3509 4.90086 11.6133 4.85464 11.9113C4.76138 12.5126 4.63996 13.2389 4.52158 13.7899C4.24349 15.0843 3.53613 16.8973 3.11587 17.9114C2.7086 18.8942 3.42301 20 4.50776 20H7.937C7.97625 20.1276 8.02155 20.2535 8.07282 20.3773C8.28652 20.8932 8.59974 21.362 8.99461 21.7569C9.38947 22.1517 9.85824 22.4649 10.3742 22.6786C10.8901 22.8923 11.443 23.0023 12.0014 23.0023C12.5599 23.0023 13.1128 22.8923 13.6287 22.6786C14.1446 22.4649 14.6134 22.1517 15.0083 21.7569C15.4031 21.362 15.7163 20.8932 15.93 20.3773C15.9813 20.2535 16.0266 20.1276 16.0659 20H19.491C20.5757 20 21.2902 18.8941 20.8828 17.9114C20.4625 16.8972 19.755 15.0843 19.477 13.7899C19.3644 13.2658 19.249 12.5829 19.1577 12H13.9993C12.3424 12 10.9993 10.6569 10.9993 9C10.9993 7.34315 12.3424 6 13.9993 6H16.8517C16.3399 5.45416 15.7091 4.96575 14.9371 4.60823L14.9418 4.58527C15.0575 4.00333 14.9981 3.40013 14.7711 2.85195C14.544 2.30377 14.1595 1.83524 13.6661 1.50559C13.1728 1.17595 12.5928 1 11.9994 1C11.4061 1 10.8259 1.17595 10.3326 1.50559C9.83921 1.83524 9.4547 2.30377 9.22763 2.85195C9.00057 3.40013 8.94116 4.00333 9.05692 4.58527ZM10.4088 20.3426C10.3039 20.2377 10.2098 20.1229 10.1278 20H13.875C13.7931 20.1229 13.699 20.2377 13.594 20.3426C13.3849 20.5518 13.1366 20.7177 12.8633 20.8309C12.5901 20.9441 12.2972 21.0023 12.0014 21.0023C11.7057 21.0023 11.4128 20.9441 11.1395 20.8309C10.8663 20.7177 10.618 20.5518 10.4088 20.3426ZM11.4438 3.16853C11.6083 3.05865 11.8016 3 11.9994 3C12.0118 3 12.0241 3.00023 12.0364 3.00069C12.2212 3.00756 12.4007 3.06554 12.5548 3.16853C12.7193 3.27841 12.8475 3.43459 12.9232 3.61732C12.9815 3.75827 13.0067 3.91014 12.9974 4.06125C12.681 4.02121 12.3485 4 11.9993 4C11.6501 4 11.3177 4.02121 11.0013 4.06123C10.992 3.91013 11.0172 3.75826 11.0755 3.61732C11.1512 3.43459 11.2794 3.27841 11.4438 3.16853ZM14 8C13.4477 8 13 8.44772 13 9C13 9.55229 13.4477 10 14 10H20C20.5523 10 21 9.55229 21 9C21 8.44772 20.5523 8 20 8H14Z" fill="currentColor"/>
</svg>
