<svg width="24" height="24" viewBox="0 0 24 24" fill="none" xmlns="http://www.w3.org/2000/svg">
<path fill-rule="evenodd" clip-rule="evenodd" d="M10.3333 1.50559C10.8266 1.17595 11.4067 1 12 1C12.5933 1 13.1734 1.17595 13.6667 1.50559C14.1601 1.83524 14.5446 2.30377 14.7716 2.85195C14.9987 3.40013 15.0581 4.00333 14.9424 4.58527L14.9378 4.60791C16.3893 5.27987 17.3416 6.41451 17.9424 7.52372C18.4026 8.37331 18.6634 9.2125 18.8098 9.83271C18.8835 10.1449 18.9296 10.4072 18.9575 10.595C18.9715 10.6891 18.981 10.7649 18.9872 10.8195C18.9904 10.8468 18.9926 10.8689 18.9943 10.8852L18.9959 10.8974L19.0093 10.9931C19.021 11.0763 19.0381 11.1963 19.0596 11.3428C19.1025 11.6362 19.1627 12.0337 19.2317 12.4526C19.3025 12.8817 19.0877 13.3074 18.7004 13.5055C18.3131 13.7035 17.8422 13.6286 17.5357 13.32L10.2696 6.00704C10.0803 5.86325 9.88872 5.70998 9.72338 5.56203C9.60967 5.46028 9.48834 5.34335 9.38456 5.22035C9.31282 5.13531 9.12109 4.90423 9.05765 4.58527C8.94189 4.00333 9.0013 3.40013 9.22836 2.85195C9.45543 2.30377 9.83994 1.83524 10.3333 1.50559ZM12.9239 3.61732C12.9823 3.75825 13.0074 3.91008 12.9981 4.06117C12.6819 4.02118 12.3496 4 12.0006 4C11.668 4 11.3481 4.01939 11.0406 4.05684C11.0258 4.04341 11.0124 4.03095 11.0002 4.01945C10.9975 3.88223 11.0231 3.74528 11.0761 3.61732C11.1518 3.43459 11.28 3.27841 11.4444 3.16853C11.6089 3.05865 11.8022 3 12 3C12.1978 3 12.3911 3.05865 12.5556 3.16853C12.72 3.27841 12.8482 3.43459 12.9239 3.61732ZM4.70711 3.29289C4.31658 2.90237 3.68342 2.90237 3.29289 3.29289C2.90237 3.68342 2.90237 4.31658 3.29289 4.70711L6.07615 7.49037C5.64735 8.27334 5.38969 9.04796 5.2356 9.64979C5.14294 10.0117 5.08573 10.3191 5.05133 10.5396C5.0341 10.6501 5.0225 10.7393 5.015 10.8034C5.01125 10.8355 5.00852 10.8613 5.00662 10.8804L5.00618 10.885L4.99812 10.943C4.99095 10.9944 4.98038 11.0694 4.9669 11.1632C4.93991 11.3509 4.90135 11.6133 4.85514 11.9113C4.76187 12.5126 4.64045 13.239 4.52208 13.79C4.24313 15.0883 3.54301 16.9055 3.12888 17.9187C2.72743 18.9009 3.44244 20 4.52341 20H7.93701C7.97625 20.1276 8.02155 20.2535 8.07282 20.3773C8.28652 20.8932 8.59974 21.362 8.99461 21.7569C9.38947 22.1517 9.85824 22.4649 10.3742 22.6786C10.8901 22.8923 11.443 23.0023 12.0014 23.0023C12.5599 23.0023 13.1128 22.8923 13.6287 22.6786C14.1446 22.4649 14.6134 22.1517 15.0083 21.7569C15.4031 21.362 15.7163 20.8932 15.93 20.3773C15.9813 20.2535 16.0266 20.1276 16.0659 20H18.5858L19.2929 20.7071C19.6834 21.0976 20.3166 21.0976 20.7071 20.7071C21.0976 20.3166 21.0976 19.6834 20.7071 19.2929L4.70711 3.29289ZM10.4088 20.3426C10.3039 20.2377 10.2098 20.1229 10.1278 20H13.875C13.7931 20.1229 13.699 20.2377 13.594 20.3426C13.3849 20.5518 13.1366 20.7177 12.8633 20.8309C12.5901 20.9441 12.2972 21.0023 12.0014 21.0023C11.7057 21.0023 11.4128 20.9441 11.1395 20.8309C10.8663 20.7177 10.618 20.5518 10.4088 20.3426Z" fill="currentColor"/>
</svg>
