<svg width="24" height="24" viewBox="0 0 24 24" fill="none" xmlns="http://www.w3.org/2000/svg">
<path fill-rule="evenodd" clip-rule="evenodd" d="M12 1C11.4067 1 10.8266 1.17595 10.3333 1.50559C9.83994 1.83524 9.45543 2.30377 9.22836 2.85195C9.0013 3.40013 8.94189 4.00333 9.05765 4.58527C9.05914 4.59281 9.06067 4.60034 9.06223 4.60786C7.61065 5.27982 6.65831 6.41448 6.05748 7.52372C5.59728 8.37331 5.33653 9.2125 5.19009 9.83271C5.11638 10.1449 5.07034 10.4072 5.04239 10.595C5.02839 10.6891 5.01887 10.7649 5.01265 10.8195C5.00954 10.8468 5.00726 10.8688 5.00565 10.8851L4.99763 10.943C4.99046 10.9943 4.97989 11.0694 4.9664 11.1632C4.93942 11.3509 4.90086 11.6133 4.85464 11.9113C4.76138 12.5126 4.63996 13.2389 4.52158 13.7899C4.24349 15.0843 3.53613 16.8973 3.11587 17.9114C2.7086 18.8942 3.42301 20 4.50776 20H7.937C7.97625 20.1276 8.02155 20.2535 8.07282 20.3773C8.28652 20.8932 8.59974 21.362 8.99461 21.7569C9.38947 22.1517 9.85824 22.4649 10.3742 22.6786C10.8901 22.8923 11.443 23.0023 12.0014 23.0023C12.5599 23.0023 13.1128 22.8923 13.6287 22.6786C14.1446 22.4649 14.6134 22.1517 15.0083 21.7569C15.4031 21.362 15.7163 20.8932 15.93 20.3773C15.9813 20.2535 16.0266 20.1276 16.0659 20H19.491C20.5758 20 21.2902 18.8941 20.8828 17.9114C20.4625 16.8972 19.755 15.0843 19.477 13.7899C19.3586 13.2389 19.2372 12.5126 19.1439 11.9113C19.0977 11.6133 19.0591 11.3509 19.0321 11.1632C19.0187 11.0694 19.0081 10.9943 19.0009 10.943L18.9929 10.8851C18.9913 10.8688 18.989 10.8468 18.9859 10.8195C18.9797 10.7649 18.9702 10.6891 18.9562 10.595C18.9282 10.4072 18.8822 10.1449 18.8084 9.83271C18.662 9.2125 18.4013 8.37331 17.9411 7.52372C17.3404 6.41482 16.3885 5.28051 14.9376 4.60848C14.9392 4.60075 14.9408 4.59301 14.9424 4.58527C15.0581 4.00333 14.9987 3.40013 14.7716 2.85195C14.5446 2.30377 14.1601 1.83524 13.6667 1.50559C13.1734 1.17595 12.5933 1 12 1ZM12.9981 4.06134C13.0074 3.9102 12.9823 3.7583 12.9239 3.61732C12.8482 3.43459 12.72 3.27841 12.5556 3.16853C12.3911 3.05865 12.1978 3 12 3C11.8022 3 11.6089 3.05865 11.4444 3.16853C11.28 3.27841 11.1518 3.43459 11.0761 3.61732C11.0177 3.75824 10.9926 3.91008 11.0019 4.06116C11.3181 4.02118 11.6503 4 11.9993 4C12.3488 4 12.6815 4.02124 12.9981 4.06134ZM10.1278 20H13.875C13.7931 20.1229 13.699 20.2377 13.594 20.3426C13.3849 20.5518 13.1366 20.7177 12.8633 20.8309C12.5901 20.9441 12.2972 21.0023 12.0014 21.0023C11.7057 21.0023 11.4128 20.9441 11.1395 20.8309C10.8663 20.7177 10.618 20.5518 10.4088 20.3426C10.3039 20.2377 10.2098 20.1229 10.1278 20Z" fill="currentColor"/>
</svg>
