<svg width="24" height="24" viewBox="0 0 24 24" fill="none" xmlns="http://www.w3.org/2000/svg">
<path fill-rule="evenodd" clip-rule="evenodd" d="M10.3326 1.50559C10.826 1.17595 11.406 1 11.9993 1C12.5927 1 13.1727 1.17595 13.6661 1.50559C14.1594 1.83524 14.5439 2.30377 14.771 2.85195C14.8614 3.07021 14.9252 3.2972 14.962 3.52809C14.9864 3.68101 14.9214 3.83083 14.8152 3.94356C14.4172 4.36615 14.1405 4.90425 14.0406 5.50223C13.9951 5.7746 13.7741 5.99562 13.5018 6.0411C13.4293 6.05321 13.3576 6.06792 13.287 6.08513C13.2069 6.10465 13.1235 6.1079 13.0425 6.09269C12.7223 6.03259 12.3754 6 11.9993 6C9.71003 6 8.50349 7.20718 7.81606 8.47628C7.46376 9.12669 7.25576 9.7875 7.13657 10.2923C7.07747 10.5426 7.04148 10.7491 7.02061 10.8894C7.01019 10.9594 7.0036 11.0125 6.99981 11.0458C6.99791 11.0624 6.99672 11.0741 6.99609 11.0804L6.99575 11.0839L6.99562 11.0855L6.99365 11.1091L6.99012 11.135L6.98988 11.1367L6.98929 11.1411L6.98703 11.1575L6.97841 11.2196C6.97091 11.2733 6.95996 11.351 6.94606 11.4477C6.91827 11.641 6.87861 11.9109 6.83101 12.2178C6.73665 12.8262 6.60807 13.5998 6.47696 14.2101C6.21777 15.4165 5.66204 16.9316 5.23815 18H18.7605C18.4379 17.187 18.039 16.1154 17.7525 15.1179C17.7212 15.0091 17.788 14.8975 17.896 14.8638C18.3871 14.7102 18.8239 14.4338 19.1704 14.0705C19.2911 13.9441 19.5239 13.9926 19.568 14.1617C19.8946 15.4141 20.5087 17.0087 20.8828 17.9114C21.2902 18.8941 20.5757 20 19.491 20H16.0659C16.0266 20.1276 15.9813 20.2535 15.93 20.3773C15.7163 20.8932 15.4031 21.362 15.0083 21.7569C14.6134 22.1517 14.1446 22.4649 13.6287 22.6786C13.1128 22.8923 12.5599 23.0023 12.0014 23.0023C11.443 23.0023 10.8901 22.8923 10.3742 22.6786C9.85824 22.4649 9.38947 22.1517 8.99461 21.7569C8.59974 21.362 8.28652 20.8932 8.07282 20.3773C8.02155 20.2535 7.97625 20.1276 7.937 20H4.50776C3.42301 20 2.7086 18.8942 3.11587 17.9114C3.53613 16.8973 4.24349 15.0843 4.52158 13.7899C4.63996 13.2389 4.76138 12.5126 4.85464 11.9113C4.90086 11.6133 4.93942 11.3509 4.9664 11.1632C4.97989 11.0694 4.99046 10.9943 4.99763 10.943L5.00564 10.8853C5.00724 10.8689 5.00954 10.8468 5.01265 10.8195C5.01887 10.7649 5.02839 10.6891 5.04239 10.595C5.07034 10.4072 5.11638 10.1449 5.19009 9.83271C5.33653 9.2125 5.59728 8.37331 6.05748 7.52372C6.65823 6.41464 7.61039 5.28013 9.06163 4.60814L9.05699 4.58527C8.94123 4.00333 9.00064 3.40013 9.22771 2.85195C9.45477 2.30377 9.83929 1.83524 10.3326 1.50559ZM10.1278 20C10.2098 20.1229 10.3039 20.2377 10.4088 20.3426C10.618 20.5518 10.8663 20.7177 11.1395 20.8309C11.4128 20.9441 11.7057 21.0023 12.0014 21.0023C12.2972 21.0023 12.5901 20.9441 12.8633 20.8309C13.1366 20.7177 13.3849 20.5518 13.594 20.3426C13.699 20.2377 13.7931 20.1229 13.875 20H10.1278ZM12.9232 3.61732C12.9816 3.75827 13.0067 3.91014 12.9975 4.06126C12.681 4.02122 12.3485 4 11.9993 4C11.6501 4 11.3176 4.02121 11.0012 4.06124C10.9919 3.91013 11.0171 3.75827 11.0755 3.61732C11.1512 3.43459 11.2793 3.27841 11.4438 3.16853C11.6082 3.05865 11.8016 3 11.9993 3C12.1971 3 12.3905 3.05865 12.5549 3.16853C12.7194 3.27841 12.8475 3.43459 12.9232 3.61732ZM13 9C13 8.44772 13.4477 8 14 8H16V6C16 5.44772 16.4477 5 17 5C17.5523 5 18 5.44772 18 6V8H20C20.5523 8 21 8.44772 21 9C21 9.55229 20.5523 10 20 10H18V12C18 12.5523 17.5523 13 17 13C16.4477 13 16 12.5523 16 12V10H14C13.4477 10 13 9.55229 13 9Z" fill="currentColor"/>
</svg>
