<svg width="24" height="24" viewBox="0 0 24 24" fill="none" xmlns="http://www.w3.org/2000/svg">
<path fill-rule="evenodd" clip-rule="evenodd" d="M10.3333 1.50559C10.8266 1.17595 11.4067 1 12 1C12.5933 1 13.1734 1.17595 13.6667 1.50559C14.1601 1.83524 14.5446 2.30377 14.7716 2.85195C14.9987 3.40013 15.0581 4.00333 14.9424 4.58527C14.9408 4.59306 14.9392 4.60084 14.9376 4.6086C16.3883 5.28066 17.3401 6.41489 17.9408 7.52372C18.401 8.37331 18.6617 9.2125 18.8081 9.83271C18.8819 10.1449 18.9279 10.4072 18.9559 10.595C18.9698 10.6891 18.9794 10.7649 18.9856 10.8195C18.9887 10.8468 18.991 10.8688 18.9926 10.8851L18.9943 10.8974L19.0076 10.9931C19.0193 11.0763 19.0364 11.1963 19.0579 11.3428C19.1009 11.6362 19.1611 12.0337 19.2301 12.4526C19.3199 12.9975 18.9509 13.512 18.406 13.6019C17.8611 13.6917 17.3465 13.3227 17.2567 12.7778C17.1852 12.3437 17.1231 11.9337 17.079 11.6327C17.057 11.482 17.0393 11.3582 17.0272 11.2718L17.0131 11.1715L17.0082 11.1358L17.0046 11.1091L17.0027 11.0859L17.0021 11.0804C17.0015 11.0741 17.0003 11.0624 16.9984 11.0458C16.9946 11.0125 16.9881 10.9594 16.9776 10.8894C16.9568 10.7491 16.9208 10.5426 16.8617 10.2923C16.7425 9.7875 16.5345 9.12669 16.1822 8.47628C15.4947 7.20718 14.2882 6 11.999 6C11.6576 6 11.3444 6.02664 11.0568 6.07434C10.6385 6.18062 10.1662 6.09826 9.79555 5.74948C9.681 5.6417 9.53745 5.49505 9.40874 5.32438C9.29205 5.16965 9.12253 4.91145 9.05765 4.58527C8.94189 4.00333 9.0013 3.40013 9.22836 2.85195C9.45543 2.30377 9.83994 1.83524 10.3333 1.50559ZM11.0019 4.06146C11.3206 4.02099 11.6528 4 11.999 4C12.3486 4 12.6814 4.02126 12.9981 4.06138C13.0074 3.91022 12.9823 3.75831 12.9239 3.61732C12.8482 3.43459 12.72 3.27841 12.5556 3.16853C12.3911 3.05865 12.1978 3 12 3C11.8022 3 11.6089 3.05865 11.4444 3.16853C11.28 3.27841 11.1518 3.43459 11.0761 3.61732C11.0177 3.75834 10.9926 3.91028 11.0019 4.06146ZM7.93701 20H4.52323C3.44226 20 2.72725 18.9009 3.1287 17.9187C3.54284 16.9055 4.24295 15.0883 4.5219 13.79C4.64028 13.239 4.7617 12.5126 4.85496 11.9113C4.90118 11.6133 4.93974 11.3509 4.96672 11.1632C4.9802 11.0694 4.99078 10.9944 4.99795 10.943L5.00601 10.8849L5.00645 10.8803C5.00834 10.8613 5.01108 10.8355 5.01483 10.8034C5.02232 10.7393 5.03392 10.65 5.05116 10.5396C5.08556 10.3191 5.14276 10.0117 5.23542 9.64979C5.38952 9.04793 5.64719 8.27326 6.07604 7.49025L3.29289 4.70711C2.90237 4.31658 2.90237 3.68342 3.29289 3.29289C3.68342 2.90237 4.31658 2.90237 4.70711 3.29289L20.7071 19.2929C21.0976 19.6834 21.0976 20.3166 20.7071 20.7071C20.3166 21.0976 19.6834 21.0976 19.2929 20.7071L18.5858 20H16.0659C16.0266 20.1276 15.9813 20.2535 15.93 20.3773C15.7163 20.8932 15.4031 21.362 15.0083 21.7569C14.6134 22.1517 14.1446 22.4649 13.6287 22.6786C13.1128 22.8923 12.5599 23.0023 12.0014 23.0023C11.443 23.0023 10.8901 22.8923 10.3742 22.6786C9.85824 22.4649 9.38947 22.1517 8.99461 21.7569C8.59974 21.362 8.28652 20.8932 8.07282 20.3773C8.02155 20.2535 7.97625 20.1276 7.93701 20ZM5.25031 18H16.5858L7.56948 8.9837C7.38897 9.39792 7.26153 9.79979 7.17293 10.1458C7.09846 10.4367 7.05336 10.6805 7.02726 10.8478C7.01423 10.9313 7.00602 10.9952 7.00128 11.0358C6.99891 11.0561 6.99741 11.0705 6.9966 11.0785L6.99594 11.0854L6.99396 11.1091L6.99044 11.135L6.98735 11.1575L6.97873 11.2196C6.97123 11.2733 6.96028 11.351 6.94638 11.4477C6.91859 11.641 6.87893 11.9109 6.83133 12.2178C6.73697 12.8262 6.60838 13.5998 6.47728 14.2101C6.21822 15.4159 5.66865 16.9318 5.25031 18ZM13.875 20C13.7931 20.1229 13.699 20.2377 13.594 20.3426C13.3849 20.5518 13.1366 20.7177 12.8633 20.8309C12.5901 20.9441 12.2972 21.0023 12.0014 21.0023C11.7057 21.0023 11.4128 20.9441 11.1395 20.8309C10.8663 20.7177 10.618 20.5518 10.4088 20.3426C10.3039 20.2377 10.2098 20.1229 10.1278 20H13.875Z" fill="currentColor"/>
</svg>
