<svg width="24" height="24" viewBox="0 0 24 24" fill="none" xmlns="http://www.w3.org/2000/svg">
<path fill-rule="evenodd" clip-rule="evenodd" d="M10.3333 1.50559C10.8266 1.17595 11.4067 1 12 1C12.5933 1 13.1734 1.17595 13.6667 1.50559C14.1601 1.83524 14.5446 2.30377 14.7716 2.85195C14.9987 3.40013 15.0581 4.00333 14.9424 4.58527C14.9408 4.59301 14.9392 4.60075 14.9376 4.60848C16.3885 5.28051 17.3404 6.41482 17.9411 7.52372C18.4013 8.37331 18.662 9.2125 18.8084 9.83271C18.8822 10.1449 18.9282 10.4072 18.9562 10.595C18.9702 10.6891 18.9797 10.7649 18.9859 10.8195C18.989 10.8468 18.9913 10.8688 18.9929 10.8851L19.0009 10.943C19.0081 10.9943 19.0187 11.0694 19.0321 11.1632C19.0591 11.3509 19.0977 11.6133 19.1439 11.9113C19.2372 12.5126 19.3586 13.2389 19.477 13.7899C19.755 15.0843 20.4625 16.8972 20.8828 17.9114C21.2902 18.8941 20.5757 20 19.491 20H16.0659C16.0266 20.1276 15.9813 20.2535 15.93 20.3773C15.7163 20.8932 15.4031 21.362 15.0083 21.7569C14.6134 22.1517 14.1446 22.4649 13.6287 22.6786C13.1128 22.8923 12.5599 23.0023 12.0014 23.0023C11.443 23.0023 10.8901 22.8923 10.3742 22.6786C9.85824 22.4649 9.38947 22.1517 8.99461 21.7569C8.59974 21.362 8.28652 20.8932 8.07282 20.3773C8.02155 20.2535 7.97625 20.1276 7.937 20H4.50776C3.42301 20 2.7086 18.8942 3.11587 17.9114C3.53613 16.8973 4.24349 15.0843 4.52158 13.7899C4.63996 13.2389 4.76138 12.5126 4.85464 11.9113C4.90086 11.6133 4.93942 11.3509 4.9664 11.1632C4.97989 11.0694 4.99046 10.9943 4.99763 10.943L5.00565 10.8851C5.00726 10.8688 5.00954 10.8468 5.01265 10.8195C5.01887 10.7649 5.02839 10.6891 5.04239 10.595C5.07034 10.4072 5.11638 10.1449 5.19009 9.83271C5.33653 9.2125 5.59728 8.37331 6.05748 7.52372C6.65831 6.41448 7.61065 5.27982 9.06223 4.60786C9.06067 4.60034 9.05914 4.59281 9.05765 4.58527C8.94189 4.00333 9.0013 3.40013 9.22836 2.85195C9.45543 2.30377 9.83994 1.83524 10.3333 1.50559ZM11.0019 4.06116C11.3181 4.02118 11.6503 4 11.9993 4C12.3488 4 12.6815 4.02124 12.9981 4.06134C13.0074 3.9102 12.9823 3.7583 12.9239 3.61732C12.8482 3.43459 12.72 3.27841 12.5556 3.16853C12.3911 3.05865 12.1978 3 12 3C11.8022 3 11.6089 3.05865 11.4444 3.16853C11.28 3.27841 11.1518 3.43459 11.0761 3.61732C11.0177 3.75824 10.9926 3.91008 11.0019 4.06116ZM10.1278 20C10.2098 20.1229 10.3039 20.2377 10.4088 20.3426C10.618 20.5518 10.8663 20.7177 11.1395 20.8309C11.4128 20.9441 11.7057 21.0023 12.0014 21.0023C12.2972 21.0023 12.5901 20.9441 12.8633 20.8309C13.1366 20.7177 13.3849 20.5518 13.594 20.3426C13.699 20.2377 13.7931 20.1229 13.875 20H10.1278ZM6.99558 11.0859L6.99569 11.0845L6.99609 11.0804C6.99672 11.0741 6.99791 11.0624 6.99981 11.0458C7.0036 11.0125 7.01019 10.9594 7.02061 10.8894C7.04148 10.7491 7.07747 10.5426 7.13657 10.2923C7.25576 9.7875 7.46376 9.12669 7.81606 8.47628C8.50349 7.20718 9.71003 6 11.9993 6C14.2885 6 15.495 7.20718 16.1825 8.47628C16.5348 9.12669 16.7428 9.7875 16.862 10.2923C16.9211 10.5426 16.9571 10.7491 16.9779 10.8894C16.9884 10.9594 16.9949 11.0125 16.9987 11.0458C17 11.0571 17.001 11.0661 17.0017 11.0728C17.002 11.0759 17.0022 11.0784 17.0024 11.0804L17.0029 11.0845L17.003 11.0859L17.0049 11.1091L17.0085 11.1355L17.0115 11.1575L17.0201 11.2196C17.0276 11.2733 17.0386 11.351 17.0525 11.4477C17.0803 11.641 17.1199 11.9109 17.1675 12.2178C17.2619 12.8262 17.3905 13.5998 17.5216 14.2101C17.7808 15.4165 18.3366 16.9316 18.7605 18H5.23815C5.66204 16.9316 6.21777 15.4165 6.47696 14.2101C6.60807 13.5998 6.73665 12.8262 6.83101 12.2178C6.87861 11.9109 6.91827 11.641 6.94606 11.4477C6.95996 11.351 6.97091 11.2733 6.97841 11.2196L6.98703 11.1575L6.99012 11.135L6.99365 11.1091L6.99558 11.0859Z" fill="currentColor"/>
</svg>
