<svg width="24" height="24" viewBox="0 0 24 24" fill="none" xmlns="http://www.w3.org/2000/svg">
<path fill-rule="evenodd" clip-rule="evenodd" d="M9.18207 1.37034C9.7552 1.21677 10.361 1.23661 10.9228 1.42733C11.4847 1.61805 11.9774 1.9711 12.3386 2.44184C12.6998 2.91257 12.9133 3.47984 12.9521 4.07191C12.9643 4.25826 12.9591 4.44442 12.9369 4.62809C13.799 4.75628 14.6378 5.04553 15.4072 5.48977C16.8321 6.3124 17.9155 7.60674 18.4781 9.13875L18.4746 9.14003C18.4828 9.16225 18.4902 9.1849 18.4968 9.20797C18.4988 9.2142 18.5048 9.23238 18.5159 9.26244C18.5382 9.3227 18.5811 9.43156 18.6558 9.59603C18.8054 9.92552 19.0799 10.4728 19.5645 11.2929C20.1134 12.222 20.9944 13.3229 21.7211 14.17C22.6724 15.2789 22.1933 17.0782 20.718 17.4735L17.005 18.4684C17.0104 18.6881 16.9987 18.9084 16.9699 19.1272C16.897 19.6809 16.7158 20.2147 16.4366 20.6984C16.1574 21.182 15.7856 21.6058 15.3426 21.9458C14.8996 22.2857 14.394 22.5351 13.8546 22.6796C13.3152 22.8241 12.7526 22.861 12.199 22.7881C11.6453 22.7152 11.1114 22.534 10.6278 22.2548C10.1442 21.9756 9.72036 21.6039 9.38042 21.1608C9.24602 20.9857 9.12579 20.8008 9.02059 20.6078L7.23696 21.0857C5.76127 21.4811 4.44663 20.1617 4.71659 18.7255C4.92279 17.6285 5.13567 16.2349 5.14652 15.1562C5.15609 14.2047 5.11864 13.5953 5.08224 13.2371C5.06407 13.0583 5.04632 12.9436 5.03523 12.8814C5.0297 12.8504 5.02588 12.8327 5.02457 12.8268C5.02385 12.8239 5.02392 12.8239 5.02457 12.8268L5.02627 12.8333L5.02754 12.8381L5.02829 12.8409L5.0287 12.8423C5.01283 12.7848 5.00254 12.7277 4.99711 12.6702C4.74072 11.0863 5.03559 9.45397 5.84505 8.05195C6.2902 7.28092 6.87349 6.60985 7.55782 6.06718C7.44734 5.91975 7.35016 5.76178 7.26791 5.59499C7.00548 5.06283 6.90675 4.46481 6.9842 3.87654C7.06164 3.28827 7.31179 2.73618 7.70301 2.29008C8.09423 1.84398 8.60895 1.52391 9.18207 1.37034ZM9.32811 5.04437C9.57757 4.94551 9.83372 4.86061 10.0955 4.79047C10.359 4.71986 10.6251 4.66505 10.8923 4.62588C10.9438 4.49168 10.9659 4.34736 10.9564 4.20272C10.9435 4.00536 10.8723 3.81627 10.7519 3.65936C10.6315 3.50245 10.4673 3.38476 10.28 3.32119C10.0927 3.25762 9.89075 3.251 9.69971 3.30219C9.50867 3.35338 9.3371 3.46007 9.20669 3.60877C9.07628 3.75747 8.9929 3.9415 8.96709 4.13759C8.94127 4.33368 8.97418 4.53302 9.06166 4.71041C9.12565 4.84018 9.21675 4.95394 9.32811 5.04437ZM6.97981 12.406C6.98707 12.4395 6.99533 12.4807 7.00421 12.5305C7.02499 12.6471 7.04932 12.8117 7.07199 13.0349C7.11728 13.4806 7.15659 14.1656 7.14642 15.1763C7.1337 16.4402 6.89214 17.9779 6.68217 19.0949C6.68011 19.1059 6.68126 19.1117 6.68307 19.117C6.68568 19.1246 6.69149 19.1347 6.70096 19.1437C6.70817 19.1506 6.714 19.1535 6.7165 19.1546L6.71932 19.1539L20.2004 15.5416L20.2032 15.5408C20.2048 15.5387 20.2084 15.5332 20.2112 15.5237C20.2149 15.5112 20.2149 15.4996 20.2133 15.4917C20.2122 15.4862 20.2104 15.4807 20.2031 15.4722C19.4631 14.6096 18.4855 13.3985 17.8426 12.3103C17.3289 11.441 17.0195 10.8297 16.8348 10.423C16.7423 10.2194 16.6805 10.0657 16.6398 9.95549C16.6194 9.90032 16.6042 9.85579 16.5931 9.8211C16.5875 9.80375 16.5829 9.78882 16.5792 9.77622L16.5742 9.75903L16.5727 9.75377C16.1635 8.69204 15.4018 7.79602 14.4072 7.22182C13.2588 6.55878 11.894 6.3791 10.6131 6.72232C9.33223 7.06553 8.24014 7.90353 7.5771 9.05195C6.98953 10.0696 6.78068 11.2574 6.97981 12.406ZM16.5658 2.57093C16.7034 2.03608 17.2486 1.71409 17.7835 1.85175C19.5419 2.30434 20.924 3.68647 21.3766 5.44491C21.5143 5.97976 21.1923 6.52495 20.6574 6.66261C20.1226 6.80027 19.5774 6.47828 19.4398 5.94343C19.1688 4.89066 18.3377 4.05959 17.2849 3.78863C16.7501 3.65096 16.4281 3.10578 16.5658 2.57093ZM3.91174 5.96147C4.29838 6.35583 4.29212 6.98896 3.89776 7.37561C3.12152 8.13666 2.81732 9.27192 3.10905 10.3191C3.25725 10.8512 2.94611 11.4026 2.41408 11.5508C1.88205 11.699 1.33061 11.3879 1.18241 10.8558C0.695139 9.10668 1.20103 7.21867 2.49759 5.94749C2.89196 5.56084 3.52509 5.5671 3.91174 5.96147ZM14.9622 19.0158C14.914 19.2555 14.8271 19.4861 14.7045 19.6984C14.5567 19.9545 14.3598 20.179 14.1251 20.3591C13.8904 20.5391 13.6226 20.6712 13.3369 20.7478C13.0512 20.8243 12.7533 20.8438 12.46 20.8052C12.1668 20.7666 11.884 20.6706 11.6278 20.5228C11.4155 20.4002 11.225 20.244 11.0634 20.0605L14.9622 19.0158Z" fill="currentColor"/>
</svg>
