<svg width="24" height="24" viewBox="0 0 24 24" fill="none" xmlns="http://www.w3.org/2000/svg">
<path fill-rule="evenodd" clip-rule="evenodd" d="M9.18206 1.37035C9.75519 1.21678 10.361 1.23661 10.9228 1.42734C11.4847 1.61806 11.9774 1.97111 12.3386 2.44184C12.6998 2.91258 12.9133 3.47984 12.9521 4.07192C12.9643 4.25826 12.959 4.44443 12.9368 4.62809C13.799 4.75629 14.6378 5.04554 15.4072 5.48978C16.832 6.31241 17.9155 7.60674 18.4781 9.13876L18.4746 9.14004C18.4827 9.16225 18.4901 9.18491 18.4968 9.20798C18.4988 9.21421 18.5048 9.23238 18.5159 9.26245C18.5381 9.3227 18.5811 9.43157 18.6558 9.59604C18.8054 9.92553 19.0799 10.4728 19.5644 11.293C20.1134 12.222 20.9944 13.3229 21.721 14.17C22.6724 15.2789 22.1933 17.0782 20.718 17.4735L17.005 18.4684C17.0104 18.6881 16.9987 18.9084 16.9699 19.1272C16.897 19.6809 16.7158 20.2148 16.4366 20.6984C16.1574 21.182 15.7856 21.6058 15.3426 21.9458C14.8996 22.2857 14.3939 22.5351 13.8546 22.6796C13.3152 22.8241 12.7526 22.861 12.1989 22.7881C11.6453 22.7152 11.1114 22.534 10.6278 22.2548C10.1442 21.9756 9.72035 21.6039 9.38041 21.1608C9.24601 20.9857 9.12577 20.8008 9.02058 20.6078L7.23695 21.0857C5.76126 21.4812 4.44661 20.1617 4.71658 18.7255C4.92278 17.6285 5.13566 16.2349 5.14651 15.1562C5.15608 14.2047 5.11863 13.5953 5.08223 13.2371C5.06406 13.0583 5.04631 12.9436 5.03522 12.8814C5.02969 12.8504 5.02587 12.8327 5.02456 12.8268C5.02384 12.8239 5.0239 12.8239 5.02456 12.8268L5.02626 12.8333L5.02753 12.8381L5.02828 12.8409L5.02868 12.8423C5.01281 12.7848 5.00253 12.7277 4.9971 12.6703C4.74071 11.0863 5.03557 9.45398 5.84503 8.05196C6.29019 7.28093 6.87348 6.60985 7.55781 6.06719C7.44733 5.91976 7.35015 5.76178 7.2679 5.59499C7.00547 5.06284 6.90674 4.46482 6.98418 3.87655C7.06163 3.28828 7.31178 2.73619 7.703 2.29009C8.09422 1.84399 8.60894 1.52392 9.18206 1.37035ZM9.3281 5.04438C9.57756 4.94552 9.83371 4.86062 10.0955 4.79048C10.359 4.71986 10.6251 4.66506 10.8923 4.62589C10.9437 4.49169 10.9659 4.34737 10.9564 4.20272C10.9434 4.00537 10.8723 3.81628 10.7519 3.65937C10.6315 3.50246 10.4672 3.38477 10.28 3.3212C10.0927 3.25762 9.89074 3.25101 9.6997 3.3022C9.50866 3.35339 9.33709 3.46008 9.20668 3.60878C9.07627 3.75748 8.99289 3.94151 8.96707 4.1376C8.94126 4.33369 8.97417 4.53303 9.06165 4.71042C9.12564 4.84019 9.21674 4.95394 9.3281 5.04438ZM6.9798 12.406C6.98706 12.4395 6.99532 12.4807 7.0042 12.5305C7.02498 12.6471 7.0493 12.8117 7.07198 13.0349C7.11727 13.4806 7.15658 14.1656 7.14641 15.1763C7.13369 16.4402 6.89213 17.9779 6.68216 19.0949C6.68009 19.1059 6.68125 19.1117 6.68306 19.117C6.68567 19.1246 6.69148 19.1347 6.70094 19.1437C6.70816 19.1506 6.71398 19.1535 6.71649 19.1546L6.71931 19.1539L20.2004 15.5417L20.2031 15.5408C20.2048 15.5387 20.2083 15.5332 20.2112 15.5237C20.2148 15.5112 20.2148 15.4996 20.2133 15.4917C20.2122 15.4862 20.2103 15.4807 20.2031 15.4722C19.4631 14.6097 18.4855 13.3985 17.8425 12.3103C17.3289 11.441 17.0195 10.8297 16.8348 10.423C16.7423 10.2194 16.6805 10.0657 16.6398 9.9555C16.6194 9.90033 16.6042 9.8558 16.5931 9.82111C16.5875 9.80375 16.5829 9.78882 16.5792 9.77622L16.5742 9.75904L16.5727 9.75378C16.1635 8.69205 15.4018 7.79603 14.4072 7.22183C13.2588 6.55879 11.894 6.37911 10.6131 6.72233C9.33222 7.06554 8.24013 7.90353 7.57709 9.05196C6.98952 10.0697 6.78067 11.2575 6.9798 12.406ZM14.9622 19.0158C14.914 19.2555 14.8271 19.4861 14.7045 19.6984C14.5566 19.9545 14.3597 20.179 14.1251 20.3591C13.8904 20.5391 13.6226 20.6712 13.3369 20.7478C13.0512 20.8243 12.7532 20.8438 12.46 20.8052C12.1668 20.7666 11.884 20.6706 11.6278 20.5228C11.4155 20.4002 11.225 20.244 11.0634 20.0605L14.9622 19.0158Z" fill="currentColor"/>
</svg>
