<svg width="24" height="24" viewBox="0 0 24 24" fill="none" xmlns="http://www.w3.org/2000/svg">
<path fill-rule="evenodd" clip-rule="evenodd" d="M10.3324 1.50559C10.8257 1.17595 11.4058 1 11.9991 1C12.5924 1 13.1725 1.17595 13.6658 1.50559C14.1592 1.83524 14.5437 2.30377 14.7707 2.85195C14.9978 3.40013 15.0572 4.00333 14.9415 4.58527L14.9368 4.60809C15.3227 4.78676 15.6733 4.99812 15.9913 5.23301C16.3435 5.49304 16.1352 6 15.6975 6H13.9993C13.7099 6 13.4302 6.04096 13.1655 6.11739C12.8116 6.04157 12.4241 6 11.9993 6C9.71003 6 8.50349 7.20718 7.81606 8.47628C7.46376 9.12669 7.25576 9.7875 7.13657 10.2923C7.07747 10.5426 7.04148 10.7491 7.02061 10.8894C7.01019 10.9594 7.0036 11.0125 6.99981 11.0458C6.99791 11.0624 6.99672 11.0741 6.99609 11.0804L6.99575 11.0839L6.99562 11.0855L6.99365 11.1091L6.99012 11.135L6.98988 11.1367L6.98929 11.1411L6.98703 11.1575L6.97841 11.2196C6.97091 11.2733 6.95996 11.351 6.94606 11.4477C6.91827 11.641 6.87861 11.9109 6.83101 12.2178C6.73665 12.8262 6.60807 13.5998 6.47696 14.2101C6.21777 15.4165 5.66204 16.9316 5.23815 18H18.7605C18.3366 16.9316 17.7808 15.4165 17.5216 14.2101C17.4212 13.743 17.2475 12.6964 17.1715 12.2309C17.1517 12.1094 17.2456 12 17.3687 12H18.7299C18.9762 12 19.1855 12.1794 19.2254 12.4224C19.3028 12.8939 19.3907 13.3885 19.477 13.7899C19.755 15.0843 20.4625 16.8972 20.8828 17.9114C21.2902 18.8941 20.5757 20 19.491 20H16.0659C16.0266 20.1276 15.9813 20.2535 15.93 20.3773C15.7163 20.8932 15.4031 21.362 15.0083 21.7569C14.6134 22.1517 14.1446 22.4649 13.6287 22.6786C13.1128 22.8923 12.5599 23.0023 12.0014 23.0023C11.443 23.0023 10.8901 22.8923 10.3742 22.6786C9.85824 22.4649 9.38947 22.1517 8.99461 21.7569C8.59974 21.362 8.28652 20.8932 8.07282 20.3773C8.02155 20.2535 7.97625 20.1276 7.937 20H4.50776C3.42301 20 2.7086 18.8942 3.11587 17.9114C3.53613 16.8973 4.24349 15.0843 4.52158 13.7899C4.63996 13.2389 4.76138 12.5126 4.85464 11.9113C4.90086 11.6133 4.93942 11.3509 4.9664 11.1632C4.97989 11.0694 4.99046 10.9943 4.99763 10.943L5.00564 10.8853C5.00724 10.8689 5.00954 10.8468 5.01265 10.8195C5.01887 10.7649 5.02839 10.6891 5.04239 10.595C5.07034 10.4072 5.11638 10.1449 5.19009 9.83271C5.33653 9.2125 5.59728 8.37331 6.05748 7.52372C6.6582 6.41469 7.61029 5.28025 9.0614 4.60824L9.05674 4.58527C8.94098 4.00333 9.00039 3.40013 9.22746 2.85195C9.45452 2.30377 9.83904 1.83524 10.3324 1.50559ZM10.1278 20H13.875C13.7931 20.1229 13.699 20.2377 13.594 20.3426C13.3849 20.5518 13.1366 20.7177 12.8633 20.8309C12.5901 20.9441 12.2972 21.0023 12.0014 21.0023C11.7057 21.0023 11.4128 20.9441 11.1395 20.8309C10.8663 20.7177 10.618 20.5518 10.4088 20.3426C10.3039 20.2377 10.2098 20.1229 10.1278 20ZM12.923 3.61732C12.9814 3.75826 13.0065 3.91012 12.9972 4.06122C12.6809 4.0212 12.3484 4 11.9993 4C11.65 4 11.3174 4.02122 11.001 4.06127C10.9917 3.91015 11.0168 3.75828 11.0752 3.61732C11.1509 3.43459 11.2791 3.27841 11.4435 3.16853C11.608 3.05865 11.8013 3 11.9991 3C12.1969 3 12.3902 3.05865 12.5547 3.16853C12.7191 3.27841 12.8473 3.43459 12.923 3.61732ZM14 8C13.4477 8 13 8.44772 13 9C13 9.55229 13.4477 10 14 10H20C20.5523 10 21 9.55229 21 9C21 8.44772 20.5523 8 20 8H14Z" fill="currentColor"/>
</svg>
