<svg width="24" height="24" viewBox="0 0 24 24" fill="none" xmlns="http://www.w3.org/2000/svg">
<path fill-rule="evenodd" clip-rule="evenodd" d="M9.18099 1.37023C8.60786 1.5238 8.09315 1.84387 7.70193 2.28997C7.31071 2.73607 7.06056 3.28816 6.98311 3.87643C6.90567 4.46469 7.0044 5.06272 7.26683 5.59487C7.34903 5.76156 7.44614 5.91944 7.55654 6.0668C6.87206 6.60951 6.28865 7.28068 5.84343 8.05183C5.02706 9.46582 4.73411 11.114 5.00217 12.7107L5.00547 12.7439C5.00973 12.7874 5.01586 12.8511 5.02322 12.9309C5.03795 13.0908 5.05754 13.3144 5.07688 13.5687C5.11617 14.0851 5.15214 14.6992 5.14879 15.1628C5.1412 16.2115 4.9246 17.6101 4.71397 18.7179C4.44061 20.1556 5.75622 21.4759 7.23214 21.0807L9.01504 20.6033C9.12084 20.7979 9.24194 20.9844 9.37742 21.161C9.71737 21.604 10.1412 21.9757 10.6248 22.2549C11.1085 22.5341 11.6423 22.7154 12.196 22.7883C12.7496 22.8611 13.3122 22.8243 13.8516 22.6797C14.391 22.5352 14.8966 22.2859 15.3396 21.9459C15.7827 21.606 16.1544 21.1821 16.4336 20.6985C16.7128 20.2149 16.894 19.681 16.9669 19.1274C16.9959 18.9072 17.0075 18.6856 17.0019 18.4646L20.7163 17.4699C22.19 17.0753 22.6717 15.2779 21.719 14.1685C20.983 13.3113 20.0941 12.2024 19.5613 11.2941C19.327 10.8948 19.0514 10.3462 18.8273 9.88072C18.717 9.65145 18.6222 9.44858 18.555 9.3032C18.5214 9.23058 18.4949 9.1725 18.4769 9.13287L18.4633 9.10311C17.8971 7.58661 16.8194 6.30591 15.4056 5.48965C14.6363 5.04551 13.7977 4.75629 12.9358 4.62805C12.958 4.44436 12.9632 4.25817 12.951 4.0718C12.9122 3.47972 12.6987 2.91245 12.3375 2.44172C11.9763 1.97099 11.4836 1.61794 10.9218 1.42722C10.3599 1.23649 9.75412 1.21666 9.18099 1.37023ZM10.8913 4.62568C10.9427 4.4915 10.9648 4.34721 10.9553 4.2026C10.9424 4.00524 10.8712 3.81615 10.7508 3.65924C10.6304 3.50233 10.4662 3.38465 10.2789 3.32108C10.0916 3.2575 9.88967 3.25089 9.69863 3.30208C9.50759 3.35327 9.33601 3.45996 9.20561 3.60866C9.0752 3.75736 8.99182 3.94139 8.966 4.13748C8.94019 4.33357 8.9731 4.53291 9.06057 4.71029C9.12454 4.84 9.21557 4.9537 9.32685 5.04412C9.5762 4.94532 9.83222 4.86046 10.0939 4.79035C10.3576 4.71969 10.6238 4.66486 10.8913 4.62568ZM11.0605 20.0606C11.222 20.2441 11.4126 20.4003 11.6248 20.5229C11.881 20.6708 12.1638 20.7668 12.457 20.8054C12.7503 20.844 13.0482 20.8244 13.3339 20.7479C13.6196 20.6713 13.8875 20.5393 14.1221 20.3592C14.3568 20.1792 14.5537 19.9546 14.7015 19.6985C14.8241 19.4862 14.911 19.2556 14.9592 19.0159L11.0605 20.0606Z" fill="currentColor"/>
</svg>
