<svg width="24" height="24" viewBox="0 0 24 24" fill="none" xmlns="http://www.w3.org/2000/svg">
<path fill-rule="evenodd" clip-rule="evenodd" d="M16.6459 2.18512C17.9664 1.58355 19.5 2.53737 19.5 4.01342V5.61246C20.3198 5.79933 21.0779 6.21392 21.682 6.81798C22.5259 7.66189 23 8.80648 23 9.99996C23 11.1934 22.5259 12.338 21.682 13.1819C21.0779 13.786 20.3198 14.2006 19.5 14.3875V15.9902C19.5 17.4676 17.964 18.4211 16.6433 17.8176C15.3926 17.2461 13.5849 16.4499 12.1633 15.9416C11.8199 15.8188 11.413 15.6911 11 15.5697V19.6917C11 21.5188 9.51883 23 7.69171 23C6.24838 23 4.97162 22.0642 4.53699 20.6879L2.18106 13.2275C1.44425 12.3565 1 11.2301 1 9.99996C1 7.23853 3.23858 4.99996 6 4.99996L8.87939 4.99996C8.93804 4.98548 9.01763 4.9657 9.1142 4.94135C9.33394 4.88596 9.64079 4.80716 9.98854 4.71371C10.6914 4.52484 11.534 4.28338 12.1633 4.05835C13.5861 3.54956 15.3951 2.7549 16.6459 2.18512ZM19.5 12.2912C19.7837 12.1674 20.0446 11.9908 20.2678 11.7677C20.7366 11.2989 21 10.663 21 9.99996C21 9.33692 20.7366 8.70103 20.2678 8.23219C20.0447 8.00907 19.7837 7.83248 19.5 7.70867V12.2912Z" fill="currentColor"/>
</svg>
