<svg width="24" height="24" viewBox="0 0 24 24" fill="none" xmlns="http://www.w3.org/2000/svg">
<path fill-rule="evenodd" clip-rule="evenodd" d="M16.6459 2.18514C17.9664 1.58356 19.5 2.53739 19.5 4.01343V5.61247C20.3198 5.79935 21.0779 6.21393 21.682 6.81799C22.5259 7.66191 23 8.8065 23 9.99997C23 11.1934 22.5259 12.338 21.682 13.182C21.0779 13.786 20.3198 14.2006 19.5 14.3875V15.9902C19.5 17.4676 17.964 18.4211 16.6433 17.8176C15.3926 17.2461 13.5849 16.45 12.1633 15.9416C11.8199 15.8188 11.413 15.6911 11 15.5698V19.6917C11 21.5188 9.51883 23 7.69171 23C6.24838 23 4.97162 22.0643 4.53699 20.6879L2.18106 13.2275C1.44425 12.3565 1 11.2301 1 9.99997C1 7.23855 3.23858 4.99997 6 4.99997L8.87939 4.99997C8.93804 4.9855 9.01763 4.96571 9.1142 4.94137C9.33394 4.88597 9.64079 4.80717 9.98854 4.71373C10.6914 4.52485 11.534 4.28339 12.1633 4.05836C13.5861 3.54957 15.3951 2.75492 16.6459 2.18514ZM9 6.99997L6 6.99997C4.34315 6.99997 3 8.34312 3 9.99997C3 11.6568 4.34315 13 6 13H9V6.99997ZM8.87939 15H6C5.58338 15 5.17866 14.949 4.79174 14.853L6.44415 20.0857C6.61603 20.6299 7.12093 21 7.69171 21C8.41426 21 9 20.4142 9 19.6917V15.0299C8.95343 15.0183 8.91298 15.0083 8.87939 15ZM11 13.4895V6.51041C11.6083 6.34065 12.2829 6.13961 12.8367 5.94158C14.3442 5.4025 16.2181 4.57773 17.475 4.00519C17.4775 4.00404 17.4792 4.00346 17.4801 4.00317L17.4817 4.00277C17.4832 4.0029 17.4886 4.00384 17.4946 4.00762C17.4972 4.00926 17.4989 4.01076 17.5 4.01183C17.5 4.0123 17.5 4.01283 17.5 4.01343V15.9902C17.5 15.9908 17.5 15.9913 17.5 15.9918C17.4989 15.9929 17.4971 15.9944 17.4945 15.9961C17.4885 15.9999 17.4836 16.0009 17.482 16.001L17.4797 16.0006C17.4788 16.0003 17.4771 15.9997 17.4746 15.9985C16.2177 15.4242 14.3442 14.5975 12.8367 14.0584C12.2829 13.8603 11.6083 13.6593 11 13.4895ZM19.5 12.2913C19.7837 12.1674 20.0446 11.9909 20.2678 11.7677C20.7366 11.2989 21 10.663 21 9.99997C21 9.33693 20.7366 8.70105 20.2678 8.2322C20.0447 8.00909 19.7837 7.8325 19.5 7.70868V12.2913Z" fill="currentColor"/>
</svg>
