<svg width="24" height="24" viewBox="0 0 24 24" fill="none" xmlns="http://www.w3.org/2000/svg">
<path fill-rule="evenodd" clip-rule="evenodd" d="M16 6C16 4.89543 16.8954 4 18 4C19.1046 4 20 4.89543 20 6C20 7.10457 19.1046 8 18 8C16.8954 8 16 7.10457 16 6ZM18 2C15.7909 2 14 3.79086 14 6C14 8.20914 15.7909 10 18 10C20.2091 10 22 8.20914 22 6C22 3.79086 20.2091 2 18 2ZM4 7C4 5.89543 4.89543 5 6 5H11C11.5523 5 12 4.55228 12 4C12 3.44772 11.5523 3 11 3H6C3.79086 3 2 4.79086 2 7V16C2 18.2091 3.79086 20 6 20H10.4174C10.6076 20 10.7939 20.0543 10.9544 20.1565L14.9259 22.685C16.2573 23.5326 18 22.5762 18 20.9979V20C20.2091 20 22 18.2091 22 16V12C22 11.4477 21.5523 11 21 11C20.4477 11 20 11.4477 20 12V16C20 17.1046 19.1046 18 18 18H17C16.4477 18 16 18.4477 16 19L16 20.9979L12.0285 18.4694C11.5471 18.1628 10.9881 18 10.4174 18H6C4.89543 18 4 17.1046 4 16V7Z" fill="currentColor"/>
</svg>
