<svg width="24" height="24" viewBox="0 0 24 24" fill="none" xmlns="http://www.w3.org/2000/svg">
<path fill-rule="evenodd" clip-rule="evenodd" d="M16 6C16 4.89543 16.8954 4 18 4C19.1046 4 20 4.89543 20 6C20 7.10457 19.1046 8 18 8C16.8954 8 16 7.10457 16 6ZM18 2C15.7909 2 14 3.79086 14 6C14 8.20914 15.7909 10 18 10C20.2091 10 22 8.20914 22 6C22 3.79086 20.2091 2 18 2ZM6 20H10.4174C10.6076 20 10.7939 20.0543 10.9544 20.1565L14.9259 22.685C16.2573 23.5326 18 22.5762 18 20.9979V20C20.2091 20 22 18.2091 22 16V14V10.4722C20.9385 11.4223 19.5367 12 18 12C14.6863 12 12 9.31371 12 6C12 4.90714 12.2922 3.88252 12.8027 3H11H6C3.79086 3 2 4.79086 2 7V16C2 17.933 3.37113 19.5457 5.19386 19.9187C5.45425 19.972 5.72386 20 6 20Z" fill="currentColor"/>
</svg>
