<svg width="24" height="24" viewBox="0 0 24 24" fill="none" xmlns="http://www.w3.org/2000/svg">
<path fill-rule="evenodd" clip-rule="evenodd" d="M16 6C16 4.89543 16.8954 4 18 4C19.1046 4 20 4.89543 20 6C20 7.10457 19.1046 8 18 8C16.8954 8 16 7.10457 16 6ZM18 2C15.7909 2 14 3.79086 14 6C14 8.20914 15.7909 10 18 10C20.2091 10 22 8.20914 22 6C22 3.79086 20.2091 2 18 2ZM18 12C19.5367 12 20.9385 11.4223 22 10.4722V18C22 20.2091 20.2091 22 18 22H6C3.79086 22 2 20.2091 2 18V7C2 4.79086 3.79086 3 6 3H12.8027C12.2922 3.88252 12 4.90714 12 6C12 9.31371 14.6863 12 18 12Z" fill="currentColor"/>
</svg>
