<svg width="24" height="24" viewBox="0 0 24 24" fill="none" xmlns="http://www.w3.org/2000/svg">
<path fill-rule="evenodd" clip-rule="evenodd" d="M16 6C16 4.89543 16.8954 4 18 4C19.1046 4 20 4.89543 20 6C20 7.10457 19.1046 8 18 8C16.8954 8 16 7.10457 16 6ZM18 2C15.7909 2 14 3.79086 14 6C14 8.20914 15.7909 10 18 10C20.2091 10 22 8.20914 22 6C22 3.79086 20.2091 2 18 2ZM22 10.4722C20.9385 11.4223 19.5367 12 18 12C14.6863 12 12 9.31371 12 6C12 4.90714 12.2922 3.88252 12.8027 3H6C3.79086 3 2 4.79086 2 7V18C2 20.2091 3.79086 22 6 22H18C20.2091 22 22 20.2091 22 18V10.4722ZM7 12C6.44772 12 6 12.4477 6 13C6 13.5523 6.44772 14 7 14H17C17.5523 14 18 13.5523 18 13C18 12.4477 17.5523 12 17 12H7ZM7 16C6.44772 16 6 16.4477 6 17C6 17.5523 6.44772 18 7 18H13C13.5523 18 14 17.5523 14 17C14 16.4477 13.5523 16 13 16H7Z" fill="currentColor"/>
</svg>
