<svg width="24" height="24" viewBox="0 0 24 24" fill="none" xmlns="http://www.w3.org/2000/svg">
<path fill-rule="evenodd" clip-rule="evenodd" d="M16 6C16 4.89543 16.8954 4 18 4C19.1046 4 20 4.89543 20 6C20 7.10457 19.1046 8 18 8C16.8954 8 16 7.10457 16 6ZM18 2C15.7909 2 14 3.79086 14 6C14 8.20914 15.7909 10 18 10C20.2091 10 22 8.20914 22 6C22 3.79086 20.2091 2 18 2ZM4 7C4 5.89543 4.89543 5 6 5H11C11.5523 5 12 4.55228 12 4C12 3.44772 11.5523 3 11 3H6C3.79086 3 2 4.79086 2 7V18C2 20.2091 3.79086 22 6 22H18C20.2091 22 22 20.2091 22 18V12C22 11.4477 21.5523 11 21 11C20.4477 11 20 11.4477 20 12V18C20 19.1046 19.1046 20 18 20H6C4.89543 20 4 19.1046 4 18V7Z" fill="currentColor"/>
</svg>
