<svg width="24" height="24" viewBox="0 0 24 24" fill="none" xmlns="http://www.w3.org/2000/svg">
<path fill-rule="evenodd" clip-rule="evenodd" d="M12.5049 13.815C12.4586 14.0392 12.2612 14.2 12.0322 14.2H6.66046V7.90032C6.73563 7.7802 6.79741 7.64985 6.84338 7.511L8.03319 3.9176C8.09189 3.74031 8.22743 3.64242 8.35109 3.61741C8.41111 3.60527 8.45923 3.612 8.49349 3.62545C8.52344 3.6372 8.56424 3.66195 8.60638 3.72688C8.70337 3.87631 8.76912 3.9973 8.80622 4.08577C8.85965 4.2132 8.89141 4.41844 8.87677 4.70436C8.86258 4.9815 8.8079 5.2795 8.73864 5.55589C8.51887 6.43276 9.133 7.46251 10.1815 7.46251H12.437C13.1492 7.46251 13.6819 8.11642 13.5378 8.81391L12.5049 13.815ZM5.06046 8.74521V14.2H4.08172C3.81514 14.2 3.59902 13.9839 3.59902 13.7173V9.22791C3.59902 8.96132 3.81514 8.74521 4.08172 8.74521H5.06046ZM12.0322 15.8C13.0201 15.8 13.8721 15.1061 14.0719 14.1386L14.7593 10.81H17.3398V17C17.3398 17.0333 17.3418 17.066 17.3457 17.0982C17.2673 17.2215 17.203 17.3558 17.1555 17.4991L15.9657 21.0925C15.907 21.2698 15.7715 21.3676 15.6478 21.3927C15.5878 21.4048 15.5397 21.3981 15.5054 21.3846C15.4755 21.3729 15.4347 21.3481 15.3925 21.2832C15.2955 21.1338 15.2298 21.0128 15.1927 20.9243C15.1393 20.7969 15.1075 20.5916 15.1221 20.3057C15.1363 20.0286 15.191 19.7306 15.2603 19.4542C15.48 18.5773 14.8659 17.5476 13.8174 17.5476H11.5648C10.852 17.5476 10.3193 16.8927 10.4642 16.1949L10.5463 15.8H12.0322ZM18.9398 16.2649H19.9172C20.1838 16.2649 20.3999 16.0487 20.3999 15.7822V11.2927C20.3999 11.0261 20.1838 10.81 19.9172 10.81H18.9398V16.2649ZM8.91211 15.8H4.08172C2.93148 15.8 1.99902 14.8676 1.99902 13.7173V9.22791C1.99902 8.07766 2.93148 7.14521 4.08172 7.14521H5.13462C5.22085 7.14521 5.29737 7.08994 5.32448 7.00807L6.51429 3.41468C6.75815 2.67818 7.36241 2.18497 8.03393 2.04916C8.72287 1.90983 9.49125 2.15139 9.94844 2.85575C10.0729 3.04747 10.1937 3.25714 10.2818 3.46711C10.4651 3.90441 10.4955 4.37959 10.4747 4.78618C10.4551 5.16823 10.3872 5.54287 10.3108 5.86251H12.437C14.163 5.86251 15.4538 7.44722 15.1047 9.13753L15.0898 9.21002H19.9172C21.0674 9.21002 21.9999 10.1425 21.9999 11.2927V15.7822C21.9999 16.9324 21.0674 17.8649 19.9172 17.8649H18.8643C18.7781 17.8649 18.7015 17.9201 18.6744 18.002L17.4846 21.5954C17.2408 22.3319 16.6365 22.8251 15.965 22.9609C15.276 23.1002 14.5077 22.8587 14.0505 22.1543C13.926 21.9626 13.8052 21.7529 13.7171 21.543C13.5338 21.1057 13.5034 20.6305 13.5242 20.2239C13.5438 19.8418 13.6117 19.4672 13.6881 19.1476H11.5648C9.83749 19.1476 8.54633 17.5606 8.8977 15.8694L8.91211 15.8Z" fill="currentColor"/>
</svg>
