<svg width="24" height="24" viewBox="0 0 24 24" fill="none" xmlns="http://www.w3.org/2000/svg">
<path fill-rule="evenodd" clip-rule="evenodd" d="M18.3495 20.2024C18.2537 20.6671 17.8445 21.0005 17.3701 21.0005L9.00006 21.0005L9.00007 10.3383C9.06311 10.2116 9.11773 10.0793 9.1631 9.94211L10.9134 4.6474C11.0335 4.2842 11.3175 4.07029 11.5951 4.01421C11.8508 3.96256 12.0847 4.0392 12.2489 4.29303C12.4025 4.53045 12.5122 4.73106 12.5773 4.88662C12.6807 5.1335 12.7299 5.4956 12.7061 5.96036C12.6829 6.41412 12.594 6.89577 12.4838 7.33614C12.1752 8.56916 13.0423 10.0005 14.4937 10.0005L17.9986 10.0005C19.2656 10.0005 20.2133 11.1635 19.9574 12.4044L18.3495 20.2024ZM7.00007 11.9214C6.77876 11.9733 6.54913 12.0005 6.3147 12.0005L4.99976 12.0005C4.44747 12.0005 3.99976 12.4482 3.99976 13.0005L3.99976 20.0005C3.99976 20.5528 4.44747 21.0005 4.99976 21.0005H7.00006L7.00007 11.9214ZM17.3701 23.0005C18.7934 23.0005 20.0208 22.0003 20.3083 20.6063L21.9162 12.8083C22.4279 10.3266 20.5325 8.00049 17.9986 8.00049H14.4937C14.4926 8.00049 14.4919 8.0005 14.4913 8.00044C14.4911 8.00042 14.4915 8.00048 14.4913 8.00044C14.4907 8.00027 14.4894 7.99982 14.4881 7.99907C14.4831 7.99631 14.4699 7.9873 14.4552 7.96672C14.422 7.92045 14.4134 7.86409 14.424 7.82173C14.553 7.30608 14.6714 6.68887 14.7035 6.0626C14.735 5.44732 14.6875 4.74821 14.4222 4.11435C14.294 3.80798 14.116 3.49715 13.9282 3.20677C13.2766 2.19946 12.1839 1.85488 11.1991 2.05381C10.2362 2.24831 9.36586 2.95677 9.0145 4.01965L7.26417 9.31436C7.12878 9.72391 6.74605 10.0005 6.3147 10.0005L4.99976 10.0005C3.3429 10.0005 1.99976 11.3436 1.99976 13.0005V20.0005C1.99976 21.6573 3.3429 23.0005 4.99976 23.0005L7.00006 23.0005H9.00006H17.3701Z" fill="currentColor"/>
</svg>
