<svg width="24" height="24" viewBox="0 0 24 24" fill="none" xmlns="http://www.w3.org/2000/svg">
<path fill-rule="evenodd" clip-rule="evenodd" d="M5.65059 4.79805C5.7464 4.33338 6.15554 4 6.62999 4H15V14.6622C14.937 14.7889 14.8823 14.9212 14.837 15.0584L13.0866 20.3531C12.9666 20.7163 12.6826 20.9302 12.4049 20.9863C12.1493 21.0379 11.9154 20.9613 11.7512 20.7075C11.5976 20.47 11.4879 20.2694 11.4227 20.1139C11.3194 19.867 11.2702 19.5049 11.294 19.0401C11.3172 18.5864 11.406 18.1047 11.5163 17.6643C11.8249 16.4313 10.9577 15 9.5064 15H6.00143C4.73448 15 3.78678 13.8369 4.04264 12.5961L5.65059 4.79805ZM17 13.0791C17.2213 13.0272 17.4509 13 17.6854 13H19.0003C19.5526 13 20.0003 12.5523 20.0003 12V5C20.0003 4.44771 19.5526 4 19.0003 4H17V13.0791ZM17 2H19.0003C20.6572 2 22.0003 3.34315 22.0003 5V12C22.0003 13.6569 20.6572 15 19.0003 15H17.6854C17.254 15 16.8713 15.2766 16.7359 15.6861L14.9856 20.9808C14.6342 22.0437 13.7638 22.7522 12.8009 22.9467C11.8161 23.1456 10.7235 22.801 10.0719 21.7937C9.88405 21.5033 9.70611 21.1925 9.57787 20.8861C9.31253 20.2523 9.26507 19.5532 9.29657 18.9379C9.32863 18.3116 9.44704 17.6944 9.5761 17.1788C9.5867 17.1364 9.57802 17.08 9.5449 17.0338C9.53017 17.0132 9.51702 17.0042 9.51201 17.0014C9.51063 17.0007 9.50999 17.0003 9.50929 17.0001C9.50868 17 9.50803 17 9.50679 17H6.00143C3.46752 17 1.57212 14.6739 2.08385 12.1922L3.6918 4.39415C3.97924 3.00014 5.20665 2 6.62999 2H15H17Z" fill="currentColor"/>
</svg>
