<svg width="160" height="41" viewBox="0 0 160 41" fill="none" xmlns="http://www.w3.org/2000/svg">
<path d="M70.4102 37.9817C70.7679 37.9817 71.1062 37.9234 71.4251 37.8068C71.744 37.6901 72.0201 37.5151 72.2534 37.2818C72.4945 37.0485 72.685 36.7568 72.825 36.4069C72.965 36.0491 73.035 35.6292 73.035 35.147C73.035 34.6648 72.965 34.2448 72.825 33.8871C72.6928 33.5215 72.5061 33.2221 72.265 32.9888C72.0317 32.7477 71.7556 32.5688 71.4368 32.4522C71.1179 32.3355 70.7796 32.2772 70.4219 32.2772H68.9403V37.9817H70.4102ZM67.5404 39.265V30.994H70.4685C71.0285 30.994 71.5534 31.0873 72.0434 31.2739C72.5334 31.4528 72.9572 31.7211 73.315 32.0789C73.6805 32.4289 73.9682 32.8644 74.1782 33.3854C74.3882 33.8987 74.4932 34.4859 74.4932 35.147C74.4932 35.808 74.3882 36.3952 74.1782 36.9085C73.9682 37.4218 73.6805 37.8534 73.315 38.2034C72.9494 38.5534 72.5217 38.8178 72.0317 38.9967C71.5418 39.1755 71.0168 39.265 70.4569 39.265H67.5404ZM75.9593 39.265V30.994H81.0689V32.3005H77.3592V34.4937H80.719V35.7653H77.3592V37.9584H81.0689V39.265H75.9593ZM86.9255 33.3271C86.9022 33.2027 86.8555 33.0666 86.7855 32.9188C86.7233 32.7633 86.6261 32.6233 86.4939 32.4988C86.3694 32.3744 86.21 32.2694 86.0156 32.1839C85.8211 32.0983 85.5839 32.0555 85.304 32.0555C85.094 32.0555 84.8996 32.0905 84.7207 32.1605C84.5496 32.2228 84.4018 32.3083 84.2774 32.4172C84.1529 32.5261 84.0557 32.6544 83.9857 32.8022C83.9157 32.9421 83.8807 33.0899 83.8807 33.2455C83.8807 33.5099 83.9585 33.7354 84.1141 33.9221C84.2774 34.1087 84.5224 34.237 84.849 34.307L86.0389 34.552C86.77 34.6998 87.326 34.9875 87.7071 35.4153C88.0882 35.843 88.2787 36.3485 88.2787 36.9318C88.2787 37.2507 88.2126 37.5618 88.0804 37.8651C87.956 38.1684 87.7693 38.4367 87.5205 38.67C87.2716 38.9033 86.9644 39.09 86.5989 39.23C86.2411 39.37 85.825 39.44 85.3506 39.44C84.8218 39.44 84.3629 39.3661 83.9741 39.2183C83.593 39.0628 83.2702 38.8645 83.0058 38.6234C82.7492 38.3745 82.5509 38.0984 82.4109 37.7951C82.2709 37.4918 82.1853 37.1924 82.1542 36.8968L83.4608 36.5235C83.4841 36.7413 83.5386 36.9513 83.6241 37.1535C83.7096 37.3479 83.8302 37.5229 83.9857 37.6784C84.1491 37.8262 84.3435 37.9467 84.569 38.0401C84.7946 38.1334 85.0551 38.1801 85.3506 38.1801C85.8484 38.1801 86.2217 38.0712 86.4705 37.8534C86.7272 37.6357 86.8555 37.3635 86.8555 37.0368C86.8555 36.7646 86.7583 36.5313 86.5639 36.3369C86.3772 36.1347 86.105 35.9947 85.7473 35.9169L84.5807 35.6719C83.9507 35.5397 83.4413 35.2753 83.0525 34.8787C82.6714 34.482 82.4809 33.9726 82.4809 33.3504C82.4809 33.0005 82.5547 32.6738 82.7025 32.3705C82.8503 32.0594 83.0525 31.7911 83.3091 31.5656C83.5658 31.3323 83.8613 31.1495 84.1957 31.0173C84.5379 30.8851 84.9034 30.819 85.2923 30.819C85.7823 30.819 86.1983 30.8851 86.5405 31.0173C86.8827 31.1495 87.1666 31.3206 87.3921 31.5306C87.6254 31.7328 87.8043 31.9583 87.9288 32.2072C88.0532 32.4561 88.1387 32.6972 88.1854 32.9305L86.9255 33.3271ZM89.7327 39.265V30.994H91.1559V39.265H89.7327ZM99.3451 39.265L99.2402 38.2151C99.1468 38.3706 99.0224 38.5223 98.8668 38.67C98.7191 38.81 98.5402 38.9383 98.3302 39.055C98.1202 39.1717 97.8792 39.265 97.6069 39.335C97.3347 39.405 97.0353 39.44 96.7087 39.44C96.1721 39.44 95.6549 39.3427 95.1571 39.1483C94.6672 38.9539 94.2356 38.6739 93.8622 38.3084C93.4889 37.9351 93.1895 37.484 92.964 36.9552C92.7462 36.4185 92.6373 35.808 92.6373 35.1236C92.6373 34.447 92.754 33.8404 92.9873 33.3038C93.2206 32.7672 93.5278 32.3161 93.9089 31.9506C94.2978 31.585 94.7411 31.3051 95.2388 31.1106C95.7443 30.9162 96.2654 30.819 96.802 30.819C97.2998 30.819 97.7547 30.889 98.1669 31.029C98.5791 31.1612 98.9407 31.3439 99.2518 31.5773C99.5707 31.8028 99.8351 32.0672 100.045 32.3705C100.263 32.6738 100.426 32.9966 100.535 33.3388L99.2168 33.8404C99.1468 33.6071 99.0418 33.3854 98.9018 33.1755C98.7696 32.9655 98.6024 32.7827 98.4002 32.6272C98.198 32.4716 97.9608 32.3472 97.6886 32.2539C97.4242 32.1605 97.1287 32.1139 96.802 32.1139C96.4676 32.1139 96.1371 32.1761 95.8104 32.3005C95.4838 32.4172 95.1883 32.5999 94.9238 32.8488C94.6672 33.0977 94.4572 33.4127 94.2939 33.7937C94.1383 34.167 94.0606 34.6103 94.0606 35.1236C94.0606 35.6292 94.1344 36.0725 94.2822 36.4535C94.4378 36.8268 94.64 37.1418 94.8888 37.3985C95.1455 37.6473 95.4371 37.8379 95.7638 37.9701C96.0904 38.0945 96.4326 38.1567 96.7903 38.1567C97.2103 38.1567 97.5642 38.0945 97.8519 37.9701C98.1475 37.8379 98.3886 37.6784 98.5752 37.4918C98.7619 37.3051 98.9018 37.1068 98.9952 36.8968C99.0885 36.6791 99.1429 36.4808 99.1585 36.3019H96.4287V35.077H100.477V39.265H99.3451ZM107.656 39.265L103.573 33.0005V39.265H102.173V30.994H103.958L107.714 36.8618V30.994H109.114V39.265H107.656ZM118.163 33.3271C118.14 33.2027 118.093 33.0666 118.023 32.9188C117.961 32.7633 117.864 32.6233 117.732 32.4988C117.607 32.3744 117.448 32.2694 117.253 32.1839C117.059 32.0983 116.822 32.0555 116.542 32.0555C116.332 32.0555 116.137 32.0905 115.958 32.1605C115.787 32.2228 115.64 32.3083 115.515 32.4172C115.391 32.5261 115.293 32.6544 115.223 32.8022C115.154 32.9421 115.119 33.0899 115.119 33.2455C115.119 33.5099 115.196 33.7354 115.352 33.9221C115.515 34.1087 115.76 34.237 116.087 34.307L117.277 34.552C118.008 34.6998 118.564 34.9875 118.945 35.4153C119.326 35.843 119.516 36.3485 119.516 36.9318C119.516 37.2507 119.45 37.5618 119.318 37.8651C119.194 38.1684 119.007 38.4367 118.758 38.67C118.509 38.9033 118.202 39.09 117.837 39.23C117.479 39.37 117.063 39.44 116.588 39.44C116.06 39.44 115.601 39.3661 115.212 39.2183C114.831 39.0628 114.508 38.8645 114.244 38.6234C113.987 38.3745 113.789 38.0984 113.649 37.7951C113.509 37.4918 113.423 37.1924 113.392 36.8968L114.699 36.5235C114.722 36.7413 114.776 36.9513 114.862 37.1535C114.947 37.3479 115.068 37.5229 115.223 37.6784C115.387 37.8262 115.581 37.9467 115.807 38.0401C116.032 38.1334 116.293 38.1801 116.588 38.1801C117.086 38.1801 117.459 38.0712 117.708 37.8534C117.965 37.6357 118.093 37.3635 118.093 37.0368C118.093 36.7646 117.996 36.5313 117.802 36.3369C117.615 36.1347 117.343 35.9947 116.985 35.9169L115.818 35.6719C115.188 35.5397 114.679 35.2753 114.29 34.8787C113.909 34.482 113.719 33.9726 113.719 33.3504C113.719 33.0005 113.792 32.6738 113.94 32.3705C114.088 32.0594 114.29 31.7911 114.547 31.5656C114.804 31.3323 115.099 31.1495 115.433 31.0173C115.776 30.8851 116.141 30.819 116.53 30.819C117.02 30.819 117.436 30.8851 117.778 31.0173C118.12 31.1495 118.404 31.3206 118.63 31.5306C118.863 31.7328 119.042 31.9583 119.167 32.2072C119.291 32.4561 119.376 32.6972 119.423 32.9305L118.163 33.3271ZM119.925 30.994H121.581L123.564 34.4587L125.559 30.994H127.134L124.218 35.7653V39.265H122.818V35.7653L119.925 30.994ZM132.244 33.3271C132.221 33.2027 132.174 33.0666 132.104 32.9188C132.042 32.7633 131.945 32.6233 131.813 32.4988C131.688 32.3744 131.529 32.2694 131.334 32.1839C131.14 32.0983 130.903 32.0555 130.623 32.0555C130.413 32.0555 130.218 32.0905 130.039 32.1605C129.868 32.2228 129.72 32.3083 129.596 32.4172C129.472 32.5261 129.374 32.6544 129.304 32.8022C129.234 32.9421 129.199 33.0899 129.199 33.2455C129.199 33.5099 129.277 33.7354 129.433 33.9221C129.596 34.1087 129.841 34.237 130.168 34.307L131.358 34.552C132.089 34.6998 132.645 34.9875 133.026 35.4153C133.407 35.843 133.597 36.3485 133.597 36.9318C133.597 37.2507 133.531 37.5618 133.399 37.8651C133.275 38.1684 133.088 38.4367 132.839 38.67C132.59 38.9033 132.283 39.09 131.918 39.23C131.56 39.37 131.144 39.44 130.669 39.44C130.14 39.44 129.682 39.3661 129.293 39.2183C128.912 39.0628 128.589 38.8645 128.324 38.6234C128.068 38.3745 127.87 38.0984 127.73 37.7951C127.59 37.4918 127.504 37.1924 127.473 36.8968L128.779 36.5235C128.803 36.7413 128.857 36.9513 128.943 37.1535C129.028 37.3479 129.149 37.5229 129.304 37.6784C129.468 37.8262 129.662 37.9467 129.888 38.0401C130.113 38.1334 130.374 38.1801 130.669 38.1801C131.167 38.1801 131.54 38.0712 131.789 37.8534C132.046 37.6357 132.174 37.3635 132.174 37.0368C132.174 36.7646 132.077 36.5313 131.883 36.3369C131.696 36.1347 131.424 35.9947 131.066 35.9169L129.899 35.6719C129.269 35.5397 128.76 35.2753 128.371 34.8787C127.99 34.482 127.8 33.9726 127.8 33.3504C127.8 33.0005 127.873 32.6738 128.021 32.3705C128.169 32.0594 128.371 31.7911 128.628 31.5656C128.884 31.3323 129.18 31.1495 129.514 31.0173C129.857 30.8851 130.222 30.819 130.611 30.819C131.101 30.819 131.517 30.8851 131.859 31.0173C132.201 31.1495 132.485 31.3206 132.711 31.5306C132.944 31.7328 133.123 31.9583 133.247 32.2072C133.372 32.4561 133.457 32.6972 133.504 32.9305L132.244 33.3271ZM138.26 32.3122V39.265H136.86V32.3122H134.177V30.994H140.955V32.3122H138.26ZM142.103 39.265V30.994H147.213V32.3005H143.503V34.4937H146.863V35.7653H143.503V37.9584H147.213V39.265H142.103ZM156.604 39.265V33.1755L154.026 39.265H152.813L150.258 33.1988V39.265H148.893V30.994H150.76L153.443 37.3051L156.091 30.994H157.992V39.265H156.604Z" fill="#0099FF"/>
<path d="M0.643555 30.0693C0.643591 29.6755 1.17909 29.3958 1.5293 29.7354L9.16504 37.1377C9.44793 37.412 9.29172 37.9491 8.79199 37.9492H2.31738C1.37632 37.9492 0.643813 37.211 0.643555 36.3467V30.0693Z" stroke="#0A1551" stroke-width="1.28637"/>
<path d="M27.1068 23.8509C28.7726 22.196 31.4752 22.196 33.141 23.8509C34.8041 25.5035 34.8042 28.1809 33.141 29.8333L26.224 36.7054C24.5583 38.3602 21.8555 38.3602 20.1898 36.7054C18.5264 35.0528 18.5264 32.3746 20.1898 30.722L27.1068 23.8509Z" stroke="#FFB629" stroke-width="1.28637"/>
<path d="M13.5511 1.88477C15.2169 0.229879 17.9196 0.22988 19.5853 1.88477C21.1964 3.48573 21.2464 6.04806 19.7357 7.70898L19.5853 7.86719L7.9447 19.4395C6.27896 21.0943 3.57626 21.0943 1.91052 19.4395C0.299437 17.8386 0.248863 15.2762 1.75916 13.6152L1.91052 13.457L13.5502 1.88379L13.5511 1.88477Z" stroke="#0099FF" stroke-width="1.28637"/>
<path d="M27.1635 6.07943C28.8292 4.42454 31.5319 4.42454 33.1976 6.07943C34.8606 7.732 34.8608 10.4094 33.1976 12.0619L17.4691 27.6878C15.8034 29.3427 13.1007 29.3427 11.4349 27.6878C9.77152 26.0353 9.77152 23.357 11.4349 21.7044L27.1635 6.07943Z" stroke="#FF6100" stroke-width="1.28637"/>
<path fill-rule="evenodd" clip-rule="evenodd" d="M101.536 6.06322L101.813 6.14229V2.28581L101.686 2.22795C101.491 2.13936 101.177 2.05917 100.815 2.00079C100.449 1.94164 100.016 1.90234 99.5752 1.90234C97.8576 1.90234 95.9265 2.47073 94.9266 3.49468C93.9273 4.51808 93.3762 5.97675 93.3762 7.72193V8.53671H90.8658V12.9637H93.3762V26.4219H95.8954H98.4147V12.9637H101.813V8.53671H98.4147V7.78316C98.4147 6.99895 98.689 6.54751 99.0396 6.28454C99.4013 6.01331 99.8764 5.9185 100.31 5.9185C100.962 5.9185 101.34 6.0071 101.536 6.06322ZM46.6786 18.2298L41.8073 18.2298L41.8103 18.4232C41.8485 20.8783 42.7107 22.8988 44.1544 24.3145C45.6322 25.7636 47.7396 26.5987 50.2528 26.5987C55.2836 26.5987 58.8071 22.7472 58.8071 18.1416V3.75521H53.5403V17.9943C53.5403 19.0221 53.2399 19.9289 52.663 20.5827C52.0828 21.2402 51.243 21.6185 50.2161 21.6185C49.3744 21.6185 48.5668 21.3702 47.9427 20.8369C47.3155 20.3009 46.8964 19.4964 46.8019 18.4296C46.7968 18.3719 46.7711 18.3203 46.7339 18.2839L46.6786 18.2298ZM111.039 21.8914C110.053 21.8914 109.114 21.532 108.422 20.8363C107.732 20.1429 107.265 19.0935 107.265 17.6747C107.265 16.239 107.732 15.1903 108.421 14.5016C109.112 13.8107 110.051 13.4581 111.039 13.4581C112.027 13.4581 112.966 13.8107 113.657 14.5016C114.347 15.1903 114.813 16.239 114.813 17.6747C114.813 19.1105 114.347 20.1592 113.657 20.8479C112.966 21.5388 112.027 21.8914 111.039 21.8914ZM111.039 8.87434C106.032 8.87434 102.239 12.5587 102.239 17.6747C102.239 22.7575 106.031 26.4752 111.039 26.4752C116.048 26.4752 119.84 22.7575 119.84 17.6747C119.84 12.5587 116.047 8.87434 111.039 8.87434ZM69.3921 22.0138C68.4061 22.0138 67.4669 21.6544 66.7746 20.9588C66.0844 20.2653 65.6183 19.2159 65.6183 17.7972C65.6183 16.3614 66.0849 15.3127 66.774 14.624C67.4653 13.9331 68.4042 13.5805 69.3921 13.5805C70.3801 13.5805 71.319 13.9331 72.0103 14.624C72.6994 15.3127 73.166 16.3614 73.166 17.7972C73.166 19.233 72.6994 20.2816 72.0103 20.9703C71.319 21.6613 70.3801 22.0138 69.3921 22.0138ZM69.3921 8.99675C64.3845 8.99675 60.5917 12.6812 60.5917 17.7972C60.5917 22.8799 64.3836 26.5976 69.3921 26.5976C74.4007 26.5976 78.1925 22.8799 78.1925 17.7972C78.1925 12.6812 74.3998 8.99675 69.3921 8.99675ZM138.516 26.42H133.52V9.4202H138.32V10.787C139.427 9.61723 141.182 9.01562 142.699 9.01562C144.78 9.01562 146.54 9.84485 147.504 11.413C148.099 10.6195 148.781 10.0449 149.552 9.65757C150.458 9.20249 151.467 9.01562 152.565 9.01562C154.115 9.01562 155.653 9.4862 156.808 10.5457C157.968 11.6103 158.706 13.2378 158.706 15.4798V26.42H153.84V16.3661C153.84 15.5441 153.639 14.8655 153.244 14.3976C152.856 13.9386 152.244 13.639 151.324 13.639C150.483 13.639 149.83 13.962 149.383 14.4684C148.933 14.9793 148.677 15.6952 148.677 16.4974V26.42H143.713V16.3661C143.713 15.5468 143.505 14.8678 143.105 14.3986C142.711 13.9377 142.098 13.639 141.196 13.639C140.335 13.639 139.674 13.9568 139.225 14.4579C138.773 14.9633 138.516 15.6777 138.516 16.4974V26.42ZM131.643 9.43669V14.5285L131.253 14.4499C130.787 14.356 130.385 14.325 130.014 14.325C128.955 14.325 128.013 14.5843 127.338 15.2142C126.666 15.84 126.204 16.8818 126.204 18.5628V26.422H121.221V9.42216H126.073V11.0629C127.274 9.62013 129.137 9.33984 130.307 9.33984C130.682 9.33984 131.021 9.37406 131.344 9.40655L131.643 9.43669ZM89.3184 22.3642L89.0583 22.4436C88.8738 22.4999 88.5186 22.5889 87.906 22.5889C87.4986 22.5889 87.0521 22.4937 86.7122 22.2214C86.3827 21.9574 86.1249 21.5042 86.1249 20.7169V12.9649H89.3184V8.55854L86.1249 8.55854V3.77734H81.3998L81.3998 8.55854L79.0406 8.55855L79.0406 12.9649H81.3998V20.7784C81.3998 22.5304 81.9177 23.9948 82.8568 25.0223C83.7964 26.0502 85.6014 26.6209 87.2155 26.6209C87.6298 26.6209 88.0363 26.5814 88.3809 26.522C88.721 26.4634 89.0157 26.3829 89.1988 26.294L89.3184 26.2359V22.3642Z" fill="#0A1551"/>
</svg>
