<svg width="148" height="28" viewBox="0 0 148 28" fill="none" xmlns="http://www.w3.org/2000/svg">
<path d="M19.2944 3.93418C20.5996 2.62855 22.7158 2.62855 24.021 3.93418C25.3262 5.23982 25.3262 7.35668 24.021 8.66232L12.2045 20.4826C10.8993 21.7883 8.78315 21.7883 7.47793 20.4826C6.17272 19.177 6.17272 17.0601 7.47793 15.7545L19.2944 3.93418Z" fill="#FF6100"/>
<path d="M9.25045 0.979228C10.5557 -0.326409 12.6718 -0.326409 13.977 0.979228C15.2823 2.28487 15.2823 4.40172 13.977 5.70736L5.7055 13.9816C4.40029 15.2872 2.28412 15.2872 0.97891 13.9816C-0.326303 12.676 -0.326303 10.5591 0.97891 9.25346L9.25045 0.979228Z" fill="#0099FF"/>
<path d="M18.7036 17.5276C20.0088 16.2219 22.1249 16.2219 23.4301 17.5276C24.7354 18.8332 24.7354 20.9501 23.4301 22.2557L18.7036 26.9838C17.3983 28.2895 15.2822 28.2895 13.977 26.9838C12.6717 25.6782 12.6717 23.5613 13.977 22.2557L18.7036 17.5276Z" fill="#FFB629"/>
<path d="M1.6711 28H6.33832C7.08271 28 7.45551 27.0997 6.92914 26.5732L1.42638 21.0686C0.900008 20.5421 0 20.915 0 21.6596V26.3284C0 27.2516 0.748178 28 1.6711 28Z" fill="#0A1551"/>
<path d="M91.2506 6.01921L91.5071 6.0956V2.37041L91.3892 2.31452C91.2085 2.22895 90.9178 2.15148 90.5823 2.09509C90.2423 2.03796 89.8414 2 89.4327 2C87.8404 2 86.0502 2.54903 85.1233 3.53812C84.1969 4.52669 83.686 5.93569 83.686 7.62146V8.40849H81.3587V12.6848H83.686V25.6848H88.3569V12.6848H91.5071V8.40849H88.3569V7.68061C88.3569 6.92309 88.6111 6.48702 88.9362 6.23301C89.2715 5.971 89.712 5.87943 90.1139 5.87943C90.7181 5.87943 91.0685 5.96501 91.2506 6.01921Z" fill="#0A1551"/>
<path d="M37.8467 17.6275L33 17.6275L33.003 17.8136C33.041 20.1773 33.8989 22.1227 35.3353 23.4856C36.8057 24.8808 38.9024 25.6848 41.4029 25.6848C46.4083 25.6848 49.914 21.9766 49.914 17.5426V3.69177H44.6738V17.4007C44.6738 18.3903 44.3749 19.2633 43.801 19.8927C43.2237 20.5258 42.3881 20.89 41.3664 20.89C40.529 20.89 39.7255 20.651 39.1045 20.1375C38.4804 19.6215 38.0634 18.8469 37.9694 17.8198C37.9643 17.7643 37.9388 17.7146 37.9018 17.6796L37.8467 17.6275Z" fill="#0A1551"/>
<path d="M128.34 25.6847H123.475V9.16023H128.149V10.4888C129.226 9.35176 130.936 8.76697 132.413 8.76697C134.439 8.76697 136.153 9.573 137.092 11.0973C137.671 10.326 138.336 9.76747 139.086 9.39097C139.968 8.94861 140.951 8.76697 142.02 8.76697C143.529 8.76697 145.027 9.22438 146.152 10.2542C147.281 11.2891 148 12.8711 148 15.0504V25.6847H143.262V15.9119C143.262 15.1129 143.066 14.4533 142.681 13.9984C142.303 13.5523 141.707 13.261 140.811 13.261C139.993 13.261 139.357 13.575 138.922 14.0673C138.483 14.5639 138.234 15.2598 138.234 16.0395V25.6847H133.4V15.9119C133.4 15.1155 133.198 14.4555 132.808 13.9995C132.425 13.5515 131.828 13.261 130.95 13.261C130.111 13.261 129.468 13.57 129.031 14.0571C128.59 14.5483 128.34 15.2428 128.34 16.0395V25.6847Z" fill="#0A1551"/>
<path fill-rule="evenodd" clip-rule="evenodd" d="M100.934 8.76709C96.1218 8.76709 92.477 12.3085 92.477 17.226C92.477 22.1114 96.121 25.6848 100.934 25.6848C105.747 25.6848 109.391 22.1114 109.391 17.226C109.391 12.3085 105.746 8.76709 100.934 8.76709ZM100.934 21.2789C99.9864 21.2789 99.0839 20.9335 98.4186 20.2648C97.7554 19.5983 97.3074 18.5896 97.3074 17.226C97.3074 15.8459 97.7558 14.8379 98.418 14.176C99.0824 13.5118 99.9846 13.173 100.934 13.173C101.883 13.173 102.786 13.5118 103.45 14.176C104.112 14.8379 104.561 15.8459 104.561 17.226C104.561 18.606 104.112 19.614 103.45 20.276C102.786 20.9401 101.883 21.2789 100.934 21.2789Z" fill="#0A1551"/>
<path fill-rule="evenodd" clip-rule="evenodd" d="M60.2417 8.7671C55.4294 8.7671 51.7847 12.3085 51.7847 17.226C51.7847 22.1114 55.4286 25.6848 60.2417 25.6848C65.0548 25.6848 68.6987 22.1114 68.6987 17.226C68.6987 12.3085 65.054 8.7671 60.2417 8.7671ZM60.2417 21.279C59.2941 21.279 58.3916 20.9335 57.7263 20.2649C57.063 19.5983 56.6151 18.5896 56.6151 17.226C56.6151 15.8459 57.0635 14.8379 57.7257 14.176C58.3901 13.5118 59.2923 13.173 60.2417 13.173C61.1911 13.173 62.0934 13.5118 62.7577 14.176C63.4199 14.8379 63.8683 15.8459 63.8683 17.226C63.8683 18.606 63.4199 19.614 62.7577 20.276C62.0934 20.9401 61.1911 21.279 60.2417 21.279Z" fill="#0A1551"/>
<path d="M121.601 8.863V13.9058L121.222 13.8279C120.768 13.735 120.377 13.7042 120.016 13.7042C118.984 13.7042 118.067 13.9611 117.409 14.5849C116.756 15.2047 116.305 16.2365 116.305 17.9013V25.6848H111.453V8.84861H116.178V10.4736C117.347 9.04468 119.162 8.76709 120.301 8.76709C120.666 8.76709 120.996 8.80098 121.31 8.83315L121.601 8.863Z" fill="#0A1551"/>
<path d="M79.9561 21.5867L79.6993 21.6631C79.517 21.7173 79.1663 21.803 78.5615 21.803C78.1592 21.803 77.7183 21.7113 77.3827 21.4492C77.0573 21.195 76.8028 20.7587 76.8028 20.0007V12.5373L79.9561 12.5373V8.29497H76.8028V3.69177H72.1372V8.29497L69.8077 8.29497L69.8077 12.5373H72.1372V20.0598C72.1372 21.7467 72.6485 23.1565 73.5758 24.1457C74.5036 25.1354 76.2859 25.6848 77.8797 25.6848C78.2887 25.6848 78.6901 25.6468 79.0303 25.5897C79.3662 25.5332 79.6571 25.4557 79.838 25.3701L79.9561 25.3142V21.5867Z" fill="#0A1551"/>
</svg>
