<svg width="25" height="28" viewBox="0 0 25 28" fill="none" xmlns="http://www.w3.org/2000/svg">
<path d="M19.2944 3.93431C20.5996 2.62867 22.7158 2.62867 24.021 3.93431C25.3262 5.23994 25.3262 7.3568 24.021 8.66244L12.2045 20.4828C10.8993 21.7884 8.78315 21.7884 7.47793 20.4828C6.17272 19.1771 6.17272 17.0603 7.47793 15.7546L19.2944 3.93431Z" fill="#FF6100"/>
<path d="M9.25045 0.979228C10.5557 -0.326409 12.6718 -0.326409 13.977 0.979228C15.2823 2.28487 15.2823 4.40172 13.977 5.70736L5.7055 13.9816C4.40029 15.2872 2.28412 15.2872 0.97891 13.9816C-0.326303 12.676 -0.326303 10.5591 0.97891 9.25346L9.25045 0.979228Z" fill="#0099FF"/>
<path d="M18.7036 17.5276C20.0088 16.2219 22.1249 16.2219 23.4301 17.5276C24.7354 18.8332 24.7354 20.9501 23.4301 22.2557L18.7036 26.9838C17.3983 28.2895 15.2822 28.2895 13.977 26.9838C12.6717 25.6782 12.6717 23.5613 13.977 22.2557L18.7036 17.5276Z" fill="#FFB629"/>
<path d="M1.6711 28.0001H6.33832C7.08271 28.0001 7.45551 27.0998 6.92914 26.5733L1.42638 21.0687C0.900008 20.5422 0 20.9151 0 21.6598V26.3285C0 27.2517 0.748178 28.0001 1.6711 28.0001Z" fill="#0A1551"/>
</svg>
