<svg width="425" height="54" viewBox="0 0 425 54" fill="none" xmlns="http://www.w3.org/2000/svg">
<path d="M56.7666 23.0628C57.4085 23.0628 58.0173 23.1818 58.5928 23.4197C59.1683 23.6521 59.6774 24.0174 60.1201 24.5154C60.5684 25.0079 60.9198 25.6416 61.1743 26.4163C61.4289 27.1855 61.5562 28.1124 61.5562 29.1971V29.2137C61.5562 30.5584 61.3625 31.7094 60.9751 32.6668C60.5877 33.6241 60.0316 34.3601 59.3066 34.8748C58.5872 35.3839 57.7267 35.6385 56.7251 35.6385C55.9891 35.6385 55.325 35.5056 54.7329 35.24C54.1463 34.9689 53.6593 34.5981 53.272 34.1277C52.8901 33.6518 52.6328 33.1095 52.5 32.5008L52.4834 32.4095H54.5835L54.6167 32.4925C54.7218 32.7692 54.8713 33.0126 55.0649 33.2229C55.2642 33.4332 55.5021 33.5965 55.7788 33.7127C56.061 33.8234 56.3765 33.8787 56.7251 33.8787C57.356 33.8787 57.8706 33.6933 58.269 33.3225C58.673 32.9462 58.9746 32.4454 59.1738 31.8201C59.3786 31.1892 59.4948 30.492 59.5225 29.7283C59.528 29.6453 59.5308 29.5651 59.5308 29.4876C59.5308 29.4046 59.5308 29.3243 59.5308 29.2469L59.1572 27.2464C59.1572 26.7926 59.0521 26.3803 58.8418 26.0096C58.6315 25.6388 58.3465 25.3455 57.9868 25.1297C57.6326 24.9138 57.2314 24.8059 56.7832 24.8059C56.3516 24.8059 55.9559 24.9111 55.5962 25.1214C55.2365 25.3317 54.9487 25.6194 54.7329 25.9846C54.5171 26.3444 54.4092 26.7483 54.4092 27.1966V27.2132C54.4092 27.678 54.5116 28.0903 54.7163 28.45C54.9211 28.8041 55.2005 29.0836 55.5547 29.2884C55.9089 29.4931 56.3128 29.5955 56.7666 29.5955C57.2204 29.5955 57.6271 29.4959 57.9868 29.2967C58.3465 29.0974 58.6315 28.8207 58.8418 28.4666C59.0521 28.1124 59.1572 27.7112 59.1572 27.263V27.2464H59.6553V29.4544H59.3647C59.2209 29.7698 59.0078 30.0631 58.7256 30.3343C58.4434 30.6054 58.0947 30.824 57.6797 30.99C57.2702 31.156 56.7887 31.239 56.2354 31.239C55.4717 31.239 54.7965 31.0675 54.21 30.7244C53.6234 30.3813 53.1613 29.9109 52.8237 29.3133C52.4917 28.7156 52.3257 28.0405 52.3257 27.2879V27.2713C52.3257 26.4578 52.5138 25.7356 52.8901 25.1048C53.272 24.4684 53.7977 23.9703 54.4673 23.6106C55.1424 23.2454 55.9089 23.0628 56.7666 23.0628ZM65.3247 33.7293C64.9484 33.7293 64.633 33.6048 64.3784 33.3557C64.1294 33.1012 64.0049 32.7913 64.0049 32.4261C64.0049 32.0553 64.1294 31.7454 64.3784 31.4964C64.633 31.2418 64.9484 31.1145 65.3247 31.1145C65.7065 31.1145 66.022 31.2418 66.271 31.4964C66.52 31.7454 66.6445 32.0553 66.6445 32.4261C66.6445 32.7913 66.52 33.1012 66.271 33.3557C66.022 33.6048 65.7065 33.7293 65.3247 33.7293ZM65.3247 27.5701C64.9484 27.5701 64.633 27.4456 64.3784 27.1966C64.1294 26.942 64.0049 26.6321 64.0049 26.2669C64.0049 25.8961 64.1294 25.5862 64.3784 25.3372C64.633 25.0826 64.9484 24.9554 65.3247 24.9554C65.7065 24.9554 66.022 25.0826 66.271 25.3372C66.52 25.5862 66.6445 25.8961 66.6445 26.2669C66.6445 26.6321 66.52 26.942 66.271 27.1966C66.022 27.4456 65.7065 27.5701 65.3247 27.5701ZM74.9038 35.3396V33.0403H69.0435V31.2888C69.3589 30.7521 69.6743 30.2125 69.9897 29.6702C70.3107 29.1279 70.6344 28.5883 70.9609 28.0515C71.293 27.5092 71.6222 26.9752 71.9487 26.4495C72.2808 25.9182 72.61 25.3953 72.9365 24.8806C73.2686 24.3605 73.6006 23.8541 73.9326 23.3616H76.9458V31.2722H78.5645V33.0403H76.9458V35.3396H74.9038ZM71.0356 31.3221H74.937V25.0716H74.8125C74.569 25.4479 74.3172 25.8352 74.0571 26.2337C73.8026 26.6321 73.5452 27.0388 73.2852 27.4539C73.0251 27.8689 72.7677 28.2867 72.5132 28.7073C72.2586 29.1223 72.0068 29.5402 71.7578 29.9607C71.5088 30.3758 71.2681 30.788 71.0356 31.1975V31.3221ZM83.52 35.3396V25.47H83.3706L80.3906 27.5701V25.5613L83.52 23.3616H85.6533V35.3396H83.52Z" fill="black"/>
<g clip-path="url(#clip0_1323_24996)">
<rect x="154" y="11" width="112" height="32" rx="16" fill="black"/>
</g>
<rect opacity="0.35" x="365.5" y="23.5" width="24" height="12" rx="3.8" fill="black" stroke="black"/>
<path opacity="0.4" d="M391 27.7811V31.8566C391.805 31.5114 392.328 30.7085 392.328 29.8189C392.328 28.9293 391.805 28.1263 391 27.7811" fill="black"/>
<rect x="367" y="25" width="21" height="9" rx="2.5" fill="black"/>
<path fill-rule="evenodd" clip-rule="evenodd" d="M349.271 26.104C351.758 26.1041 354.15 27.0262 355.952 28.6797C356.088 28.8074 356.305 28.8058 356.439 28.6761L357.736 27.4126C357.804 27.3469 357.841 27.2578 357.841 27.1651C357.84 27.0724 357.802 26.9838 357.733 26.9188C353.002 22.5441 345.538 22.5441 340.807 26.9188C340.739 26.9837 340.7 27.0724 340.699 27.165C340.699 27.2577 340.736 27.3468 340.804 27.4126L342.102 28.6761C342.235 28.8059 342.452 28.8076 342.588 28.6797C344.391 27.0261 346.783 26.104 349.271 26.104ZM349.267 30.3243C350.624 30.3242 351.933 30.836 352.939 31.7601C353.076 31.8913 353.29 31.8884 353.423 31.7537L354.71 30.4344C354.778 30.3652 354.815 30.2713 354.814 30.1738C354.813 30.0762 354.774 29.9831 354.705 29.9153C351.641 27.0245 346.896 27.0245 343.832 29.9153C343.763 29.9831 343.724 30.0762 343.723 30.1738C343.722 30.2714 343.76 30.3653 343.827 30.4344L345.114 31.7537C345.247 31.8884 345.461 31.8913 345.597 31.7601C346.603 30.8366 347.911 30.3249 349.267 30.3243ZM351.792 33.1179C351.794 33.2232 351.756 33.3248 351.689 33.3986L349.512 35.8533C349.449 35.9255 349.362 35.9661 349.271 35.9661C349.18 35.9661 349.093 35.9255 349.029 35.8533L346.852 33.3986C346.785 33.3247 346.748 33.2231 346.75 33.1178C346.752 33.0124 346.793 32.9127 346.863 32.842C348.253 31.5282 350.289 31.5282 351.679 32.842C351.749 32.9127 351.79 33.0125 351.792 33.1179Z" fill="black"/>
<path fill-rule="evenodd" clip-rule="evenodd" d="M333.2 24.6821C333.2 24.049 332.722 23.5358 332.133 23.5358H331.067C330.478 23.5358 330 24.049 330 24.6821V34.616C330 35.2491 330.478 35.7622 331.067 35.7622H332.133C332.722 35.7622 333.2 35.2491 333.2 34.616V24.6821ZM325.766 25.9811H326.833C327.422 25.9811 327.899 26.5066 327.899 27.1548V34.5885C327.899 35.2367 327.422 35.7622 326.833 35.7622H325.766C325.177 35.7622 324.699 35.2367 324.699 34.5885V27.1548C324.699 26.5066 325.177 25.9811 325.766 25.9811ZM321.434 28.6302H320.367C319.778 28.6302 319.301 29.1623 319.301 29.8188V34.5736C319.301 35.23 319.778 35.7622 320.367 35.7622H321.434C322.023 35.7622 322.501 35.23 322.501 34.5736V29.8188C322.501 29.1623 322.023 28.6302 321.434 28.6302ZM316.133 31.0755H315.067C314.478 31.0755 314 31.6 314 32.2471V34.5905C314 35.2377 314.478 35.7622 315.067 35.7622H316.133C316.722 35.7622 317.2 35.2377 317.2 34.5905V32.2471C317.2 31.6 316.722 31.0755 316.133 31.0755Z" fill="black"/>
<defs>
<clipPath id="clip0_1323_24996">
<rect x="154" y="11" width="112" height="32" rx="16" fill="white"/>
</clipPath>
</defs>
</svg>
