<svg width="24" height="24" viewBox="0 0 24 24" fill="none" xmlns="http://www.w3.org/2000/svg">
<path fill-rule="evenodd" clip-rule="evenodd" d="M1 5C1 3.34315 2.34315 2 4 2H20C21.6569 2 23 3.34315 23 5V7.5C23 7.77614 22.7761 8 22.5 8H1.5C1.22386 8 1 7.77614 1 7.5V5ZM4 6C4.55228 6 5 5.55228 5 5C5 4.44772 4.55228 4 4 4C3.44772 4 3 4.44772 3 5C3 5.55228 3.44772 6 4 6ZM8 5C8 5.55228 7.55228 6 7 6C6.44772 6 6 5.55228 6 5C6 4.44772 6.44772 4 7 4C7.55228 4 8 4.44772 8 5ZM11 5C11 5.55228 10.5523 6 10 6C9.44772 6 9 5.55228 9 5C9 4.44772 9.44772 4 10 4C10.5523 4 11 4.44772 11 5ZM1.5 9C1.22386 9 1 9.22386 1 9.5V19C1 20.6569 2.34315 22 4 22H20C21.6569 22 23 20.6569 23 19V9.5C23 9.22386 22.7761 9 22.5 9H1.5Z" fill="currentColor"/>
</svg>
