<svg width="24" height="24" viewBox="0 0 24 24" fill="none" xmlns="http://www.w3.org/2000/svg">
<path fill-rule="evenodd" clip-rule="evenodd" d="M3 6.92963V5.07037C3 4.40166 3.33638 3.78029 3.94607 3.50561C5.26068 2.91335 7.94533 2 12 2C16.0547 2 18.7393 2.91336 20.0539 3.50561C20.6636 3.78029 21 4.40166 21 5.07037V6.92963C21 7.59834 20.6636 8.21971 20.0539 8.49439C18.7393 9.08665 16.0547 10 12 10C7.94532 10 5.26068 9.08665 3.94607 8.49439C3.33638 8.21971 3 7.59834 3 6.92963ZM20.9988 9C20.9298 9.04543 17.9302 10.9992 12 10.9992C6.06977 10.9992 3.07018 9.04544 3.00122 9C3.00041 9.02312 3 9.04631 3 9.06956V12.9288C3 13.5975 3.33638 14.2189 3.94607 14.4936C5.26068 15.0858 7.94532 15.9992 12 15.9992C16.0547 15.9992 18.7393 15.0858 20.0539 14.4936C20.6636 14.2189 21 13.5975 21 12.9288V9.06956C21 9.04631 20.9996 9.02312 20.9988 9ZM12 16.9992C17.9302 16.9992 20.9298 15.0454 20.9988 15C20.9996 15.0231 21 15.0463 21 15.0696V18.9288C21 19.5975 20.6636 20.2189 20.0539 20.4936C18.7393 21.0858 16.0547 21.9992 12 21.9992C7.94532 21.9992 5.26068 21.0858 3.94607 20.4936C3.33638 20.2189 3 19.5975 3 18.9288V15.0696C3 15.0463 3.00041 15.0231 3.00122 15C3.07018 15.0454 6.06977 16.9992 12 16.9992Z" fill="currentColor"/>
</svg>
