<svg width="24" height="24" viewBox="0 0 24 24" fill="none" xmlns="http://www.w3.org/2000/svg">
<path fill-rule="evenodd" clip-rule="evenodd" d="M1 6C1 3.79086 2.79086 2 5 2H19C21.2091 2 23 3.79086 23 6V14V15C23 17.2091 21.2091 19 19 19H5C2.79086 19 1 17.2091 1 15V14V6ZM3 15C3 16.1046 3.89543 17 5 17H19C20.1046 17 21 16.1046 21 15H3ZM21 13H3V6C3 4.89543 3.89543 4 5 4H19C20.1046 4 21 4.89543 21 6V13ZM7 21C7 20.4477 7.44772 20 8 20H16C16.5523 20 17 20.4477 17 21C17 21.5523 16.5523 22 16 22H8C7.44772 22 7 21.5523 7 21Z" fill="currentColor"/>
</svg>
