<svg width="24" height="24" viewBox="0 0 24 24" fill="none" xmlns="http://www.w3.org/2000/svg">
<path fill-rule="evenodd" clip-rule="evenodd" d="M16.707 2.05798C14.6566 1.08718 12.356 0.774137 10.1207 1.16173C7.88537 1.54933 5.82455 2.61861 4.2206 4.22307C2.61665 5.82753 1.54802 7.88869 1.16114 10.1241C0.774251 12.3596 1.08803 14.66 2.05948 16.7102C3.03093 18.7604 4.61253 20.46 6.5876 21.5763C8.56266 22.6926 10.8346 23.1709 13.0921 22.9457C13.6416 22.8908 14.0427 22.4009 13.9878 21.8513C13.933 21.3018 13.4431 20.9007 12.8935 20.9555C11.9111 21.0536 10.9253 20.9887 9.97449 20.7691L9.9731 20.7614C9.96601 20.7218 9.95551 20.6628 9.94208 20.586C9.91522 20.4325 9.8767 20.2084 9.83038 19.9281C9.73772 19.3671 9.61412 18.5826 9.49058 17.6892C9.45399 17.4246 9.41756 17.1515 9.38203 16.8727C10.2906 16.95 11.1904 17 12 17C12.5523 17 13 16.5523 13 16C13 15.4477 12.5523 15 12 15C11.1409 15 10.1542 14.938 9.15559 14.8444C9.06203 13.8459 9.00001 12.8591 9.00001 12C9.00001 11.1409 9.06203 10.1542 9.15559 9.15559C10.1542 9.06203 11.1409 9.00001 12 9.00001C12.8591 9.00001 13.8459 9.06203 14.8444 9.15559C14.938 10.1542 15 11.1409 15 12C15 12.5523 15.4477 13 16 13C16.5523 13 17 12.5523 17 12C17 11.1904 16.95 10.2906 16.8727 9.38203C17.1514 9.41756 17.4246 9.45399 17.6892 9.49058C18.5826 9.61412 19.3671 9.73772 19.9281 9.83039C20.2084 9.8767 20.4325 9.91523 20.586 9.94208C20.6628 9.95551 20.7218 9.96601 20.7614 9.9731L20.7691 9.97449C20.9885 10.9244 21.0534 11.9091 20.9558 12.8907C20.9012 13.4402 21.3024 13.9301 21.852 13.9847C22.4015 14.0394 22.8914 13.6382 22.946 13.0886C23.1705 10.831 22.6915 8.55927 21.5746 6.58456C20.4577 4.60985 18.7575 3.02879 16.707 2.05798ZM19.9651 7.80991C19.4235 7.72233 18.7331 7.6159 17.9631 7.50943C17.5503 7.45235 17.1121 7.39489 16.6598 7.34019C16.6051 6.88791 16.5477 6.44974 16.4906 6.0369C16.3841 5.26694 16.2777 4.5765 16.1901 4.03489C17.7162 4.8377 18.9822 6.0636 19.8338 7.56919C19.8788 7.64885 19.9226 7.7291 19.9651 7.80991ZM14.0255 3.2309C12.8625 2.96227 11.6512 2.9262 10.4624 3.13233C10.2986 3.16074 10.1359 3.19362 9.97449 3.2309L9.9731 3.23859C9.96601 3.27819 9.95551 3.33726 9.94208 3.414C9.91523 3.56752 9.8767 3.79163 9.83039 4.07196C9.73772 4.63288 9.61412 5.41745 9.49058 6.31085C9.45399 6.57545 9.41756 6.84857 9.38203 7.12736C10.2906 7.04999 11.1904 7.00001 12 7.00001C12.8096 7.00001 13.7094 7.04999 14.618 7.12736C14.5825 6.84857 14.546 6.57545 14.5094 6.31085C14.3859 5.41745 14.2623 4.63288 14.1696 4.07196C14.1233 3.79163 14.0848 3.56752 14.0579 3.414C14.0445 3.33726 14.034 3.27818 14.0269 3.23859L14.0255 3.2309ZM7.80991 4.03489C7.72233 4.5765 7.6159 5.26694 7.50943 6.0369C7.45235 6.44974 7.39489 6.88792 7.34019 7.34019C6.88791 7.39489 6.44974 7.45235 6.0369 7.50943C5.26694 7.6159 4.5765 7.72233 4.03489 7.80991C4.4536 7.01397 4.99169 6.28061 5.63504 5.63706C6.27907 4.99282 7.01313 4.45404 7.80991 4.03489ZM3.2309 9.97449L3.23859 9.9731C3.27819 9.96601 3.33726 9.95551 3.41401 9.94208C3.56752 9.91523 3.79163 9.8767 4.07196 9.83039C4.63288 9.73772 5.41745 9.61412 6.31085 9.49058C6.57545 9.45399 6.84857 9.41756 7.12736 9.38203C7.04999 10.2906 7.00001 11.1904 7.00001 12C7.00001 12.8096 7.04999 13.7094 7.12736 14.618C6.84857 14.5825 6.57545 14.546 6.31085 14.5094C5.41745 14.3859 4.63288 14.2623 4.07196 14.1696C3.79163 14.1233 3.56752 14.0848 3.41401 14.0579C3.33726 14.0445 3.27819 14.034 3.23859 14.0269L3.2309 14.0255C2.96248 12.8634 2.92625 11.6531 3.13184 10.4652C3.16036 10.3004 3.19341 10.1368 3.2309 9.97449ZM4.03489 16.1901C4.5765 16.2777 5.26694 16.3841 6.0369 16.4906C6.44974 16.5477 6.88791 16.6051 7.34019 16.6598C7.39489 17.1121 7.45235 17.5503 7.50943 17.9631C7.6159 18.7331 7.72233 19.4235 7.80991 19.9651C7.72994 19.9231 7.65052 19.8797 7.57167 19.8352C6.06499 18.9836 4.83816 17.7171 4.03489 16.1901ZM14.773 14.0342C14.563 13.9642 14.3315 14.0189 14.175 14.1754C14.0185 14.3319 13.9638 14.5634 14.0338 14.7734L16.6452 22.6075C16.7211 22.8353 16.9286 22.9934 17.1684 23.0063C17.4081 23.0191 17.6313 22.884 17.7311 22.6656L19.188 19.477C19.2464 19.3492 19.3488 19.2468 19.4766 19.1884L22.6652 17.7315C22.8836 17.6317 23.0187 17.4085 23.0059 17.1688C22.993 16.929 22.8349 16.7215 22.6071 16.6456L14.773 14.0342Z" fill="currentColor"/>
</svg>
