<svg width="24" height="24" viewBox="0 0 24 24" fill="none" xmlns="http://www.w3.org/2000/svg">
<path fill-rule="evenodd" clip-rule="evenodd" d="M4.92893 4.92893C6.8043 3.05357 9.34784 2 12 2C14.6522 2 17.1957 3.05357 19.0711 4.92893C20.9464 6.8043 22 9.34784 22 12V15V15.382V19C22 20.6569 20.6569 22 19 22C17.3431 22 16 20.6569 16 19V15C16 13.3431 17.3431 12 19 12C19.3506 12 19.6872 12.0602 20 12.1707V12C20 9.87827 19.1571 7.84344 17.6569 6.34315C16.1566 4.84286 14.1217 4 12 4C9.87827 4 7.84344 4.84285 6.34315 6.34315C4.84286 7.84344 4 9.87827 4 12V12.1707C4.31278 12.0602 4.64936 12 5 12C6.65685 12 8 13.3431 8 15V19C8 20.6569 6.65685 22 5 22C3.34315 22 2 20.6569 2 19V15.382V15V12C2 9.34783 3.05357 6.8043 4.92893 4.92893Z" fill="currentColor"/>
</svg>
