<svg width="24" height="24" viewBox="0 0 24 24" fill="none" xmlns="http://www.w3.org/2000/svg">
<path fill-rule="evenodd" clip-rule="evenodd" d="M5 2C3.34315 2 2 3.34315 2 5V19C2 20.6569 3.34315 22 5 22H19C20.6569 22 22 20.6569 22 19V5C22 3.34315 20.6569 2 19 2H5ZM13.1828 9.7222V11.9206C13.1828 11.9677 13.2131 11.998 13.2736 12.0114C13.5022 12.0383 13.6837 12.0517 13.8181 12.0517C14.3022 12.0517 14.6753 11.9408 14.9375 11.7189C15.2065 11.4904 15.3409 11.1744 15.3409 10.771C15.3409 9.97095 14.8333 9.57093 13.8181 9.57093C13.6501 9.57093 13.4652 9.58774 13.2635 9.62135C13.2097 9.6348 13.1828 9.66842 13.1828 9.7222ZM12.0735 15.7326C11.9189 15.7326 11.7844 15.6755 11.6701 15.5612C11.5558 15.4469 11.4987 15.3124 11.4987 15.1578V8.99611C11.4987 8.83476 11.5525 8.69021 11.66 8.56247C11.7676 8.43473 11.9021 8.36414 12.0634 8.3507C12.6349 8.29691 13.1862 8.27002 13.7173 8.27002C15.8687 8.27002 16.9444 9.07006 16.9444 10.6702C16.9444 11.5374 16.6923 12.1963 16.188 12.6467C15.6905 13.0905 14.9577 13.3123 13.9896 13.3123C13.7341 13.3123 13.4954 13.3022 13.2736 13.2821C13.2131 13.2821 13.1828 13.309 13.1828 13.3627V15.1578C13.1828 15.3124 13.1257 15.4469 13.0114 15.5612C12.8971 15.6755 12.7626 15.7326 12.608 15.7326H12.0735ZM7.20265 9.86338L6.41606 12.7577C6.41606 12.7778 6.42278 12.798 6.43622 12.8182C6.44967 12.8316 6.46648 12.8383 6.48665 12.8383H7.93883C7.959 12.8383 7.97581 12.8316 7.98925 12.8182C8.00942 12.798 8.01614 12.7778 8.00942 12.7577L7.22282 9.86338C7.22282 9.85666 7.21946 9.8533 7.21274 9.8533C7.20602 9.8533 7.20265 9.85666 7.20265 9.86338ZM4.40922 15.7326C4.26804 15.7326 4.15711 15.6755 4.07643 15.5612C3.99575 15.4469 3.97895 15.3225 4.02601 15.188L6.14377 8.91543C6.20428 8.75408 6.30176 8.62298 6.43622 8.52213C6.57741 8.42129 6.73204 8.37087 6.90012 8.37087H7.5657C7.7405 8.37087 7.89513 8.42129 8.02959 8.52213C8.17077 8.62298 8.26826 8.75408 8.32204 8.91543L10.4499 15.188C10.497 15.3225 10.4768 15.4469 10.3894 15.5612C10.3087 15.6755 10.1978 15.7326 10.0566 15.7326H9.38093C9.21957 15.7326 9.0683 15.6822 8.92712 15.5813C8.79266 15.4738 8.7019 15.3393 8.65483 15.178L8.40272 14.2199C8.396 14.1661 8.35902 14.1393 8.29179 14.1393H6.13369C6.07318 14.1393 6.0362 14.1661 6.02276 14.2199L5.77064 15.178C5.7303 15.3393 5.63954 15.4738 5.49836 15.5813C5.3639 15.6822 5.21263 15.7326 5.04455 15.7326H4.40922ZM18.2856 15.5612C18.3999 15.6755 18.5344 15.7326 18.689 15.7326H19.4353C19.5899 15.7326 19.721 15.6755 19.8286 15.5612C19.9429 15.4469 20 15.3124 20 15.1578V8.94569C20 8.79106 19.9429 8.6566 19.8286 8.5423C19.721 8.42801 19.5899 8.37087 19.4353 8.37087H18.689C18.5344 8.37087 18.3999 8.42801 18.2856 8.5423C18.1781 8.6566 18.1243 8.79106 18.1243 8.94569V15.1578C18.1243 15.3124 18.1781 15.4469 18.2856 15.5612Z" fill="currentColor"/>
</svg>
