<svg width="24" height="24" viewBox="0 0 24 24" fill="none" xmlns="http://www.w3.org/2000/svg">
<path fill-rule="evenodd" clip-rule="evenodd" d="M5 3C3.34315 3 2 4.34315 2 6V15.2676C1.4022 15.6134 1 16.2597 1 17V19C1 20.1046 1.89543 21 3 21H21C22.1046 21 23 20.1046 23 19V17C23 16.2597 22.5978 15.6134 22 15.2676V6C22 4.34315 20.6569 3 19 3H5ZM21 17H20H15.4142L15 17.4142C14.6249 17.7893 14.1162 18 13.5858 18H10.4142C9.88378 18 9.37507 17.7893 9 17.4142L8.58579 17H4H3V19H21V17ZM4 15H8.58579C9.11622 15 9.62493 15.2107 10 15.5858L10.4142 16H13.5858L14 15.5858C14.3751 15.2107 14.8838 15 15.4142 15H20V6C20 5.44772 19.5523 5 19 5H5C4.44772 5 4 5.44772 4 6V15Z" fill="currentColor"/>
</svg>
