<svg width="24" height="24" viewBox="0 0 24 24" fill="none" xmlns="http://www.w3.org/2000/svg">
<path fill-rule="evenodd" clip-rule="evenodd" d="M19 3H5C3.34315 3 2 4.34315 2 6V15C2 15.088 2.00379 15.1751 2.01121 15.2611C2.30283 15.0949 2.64033 15 3 15H8.58579C9.11622 15 9.62493 15.2107 10 15.5858L10.4142 16H13.5858L14 15.5858C14.3751 15.2107 14.8838 15 15.4142 15H21C21.3597 15 21.6972 15.0949 21.9888 15.2611C21.9962 15.1751 22 15.088 22 15V6C22 4.34315 20.6569 3 19 3ZM2 17C1.44772 17 1 17.4477 1 18V20C1 20.5523 1.44772 21 2 21H22C22.5523 21 23 20.5523 23 20V18C23 17.4477 22.5523 17 22 17H15.4142C15.149 17 14.8946 17.1054 14.7071 17.2929L14.2929 17.7071C14.1054 17.8946 13.851 18 13.5858 18H10.4142C10.149 18 9.89464 17.8946 9.70711 17.7071L9.29289 17.2929C9.10536 17.1054 8.851 17 8.58579 17H2Z" fill="currentColor"/>
</svg>
