<svg width="24" height="24" viewBox="0 0 24 24" fill="none" xmlns="http://www.w3.org/2000/svg">
<path fill-rule="evenodd" clip-rule="evenodd" d="M8 22C8 21.4477 8.44772 21 9 21H15C15.5523 21 16 21.4477 16 22C16 22.5523 15.5523 23 15 23H9C8.44772 23 8 22.5523 8 22ZM10.7071 9.29289C10.3166 8.90237 9.68342 8.90237 9.29289 9.29289C8.90237 9.68342 8.90237 10.3166 9.29289 10.7071L11 12.4142V16C11 16.5523 11.4477 17 12 17C12.5523 17 13 16.5523 13 16V12.4142L14.7071 10.7071C15.0976 10.3166 15.0976 9.68342 14.7071 9.29289C14.3166 8.90237 13.6834 8.90237 13.2929 9.29289L12 10.5858L10.7071 9.29289ZM12 1C7.58172 1 4 4.58172 4 9C4 11.9349 5.58103 14.4995 7.93307 15.8904C7.96466 15.9091 7.9842 15.9311 7.99367 15.9465C7.99792 15.9534 7.99949 15.9577 8 15.9596V18C8 19.104 8.89445 20 9.99958 20H10.004H10.0084H10.0128H10.0172H10.0216H10.026H10.0304H10.0348H10.0392H10.0437H10.0481H10.0525H10.057H10.0614H10.0659H10.0703H10.0748H10.0793H10.0837H10.0882H10.0927H10.0971H10.1016H10.1061H10.1106H10.1151H10.1196H10.1241H10.1286H10.1331H10.1376H10.1421H10.1466H10.1511H10.1557H10.1602H10.1647H10.1692H10.1738H10.1783H10.1829H10.1874H10.1919H10.1965H10.201H10.2056H10.2102H10.2147H10.2193H10.2238H10.2284H10.233H10.2376H10.2421H10.2467H10.2513H10.2559H10.2605H10.265H10.2696H10.2742H10.2788H10.2834H10.288H10.2926H10.2972H10.3018H10.3064H10.311H10.3157H10.3203H10.3249H10.3295H10.3341H10.3387H10.3434H10.348H10.3526H10.3572H10.3619H10.3665H10.3711H10.3758H10.3804H10.385H10.3897H10.3943H10.3989H10.4036H10.4082H10.4129H10.4175H10.4222H10.4268H10.4315H10.4361H10.4408H10.4454H10.4501H10.4547H10.4594H10.464H10.4687H10.4733H10.478H10.4826H10.4873H10.4919H10.4966H10.5013H10.5059H10.5106H10.5152H10.5199H10.5246H10.5292H10.5339H10.5385H10.5432H10.5478H10.5525H10.5572H10.5618H10.5665H10.5711H10.5758H10.5805H10.5851H10.5898H10.5944H10.5991H10.6038H10.6084H10.6131H10.6177H10.6224H10.627H10.6317H10.6363H10.641H10.6457H10.6503H10.655H10.6596H10.6643H10.6689H10.6735H10.6782H10.6828H10.6875H10.6921H10.6968H10.7014H10.706H10.7107H10.7153H10.72H10.7246H10.7292H10.7339H10.7385H10.7431H10.7477H10.7524H10.757H10.7616H10.7662H10.7709H10.7755H10.7801H10.7847H10.7893H10.7939H10.7985H10.8031H10.8077H10.8123H10.8169H10.8215H10.8261H10.8307H10.8353H10.8399H10.8445H10.8491H10.8536H10.8582H10.8628H10.8674H10.8719H10.8765H10.8811H10.8856H10.8902H10.8948H10.8993H10.9039H10.9084H10.913H10.9175H10.922H10.9266H10.9311H10.9356H10.9402H10.9447H10.9492H10.9537H10.9582H10.9628H10.9673H10.9718H10.9763H10.9808H10.9853H10.9898H10.9942H10.9987H11.0032H11.0077H11.0122H11.0166H11.0211H11.0255H11.03H11.0345H11.0389H11.0434H11.0478H11.0522H11.0567H11.0611H11.0655H11.0699H11.0744H11.0788H11.0832H11.0876H11.092H11.0964H11.1008H11.1051H11.1095H11.1139H11.1183H11.1226H11.127H11.1314H11.1357H11.1401H11.1444H11.1487H11.1531H11.1574H11.1617H11.1661H11.1704H11.1747H11.179H11.1833H11.1876H11.1919H11.1961H11.2004H11.2047H11.209H11.2132H11.2175H11.2217H11.226H11.2302H11.2344H11.2387H11.2429H11.2471H11.2513H11.2555H11.2597H11.2639H11.2681H11.2723H11.2764H11.2806H11.2848H11.2889H11.2931H11.2972H11.3014H11.3055H11.3096H11.3137H11.3178H11.322H11.3261H11.3301H11.3342H11.3383H11.3424H11.3465H11.3505H11.3546H11.3586H11.3627H11.3667H11.3707H11.3747H11.3787H11.3827H11.3867H11.3907H11.3947H11.3987H11.4027H11.4066H11.4106H11.4145H11.4185H11.4224H11.4263H11.4302H11.4342H11.4381H11.442H11.4458H11.4497H11.4536H11.4575H11.4613H11.4652H11.469H11.4728H11.4767H11.4805H11.4843H11.4881H11.4919H11.4957H11.4995H11.5032H11.507H11.5108H11.5145H11.5182H11.522H11.5257H11.5294H11.5331H11.5368H11.5405H11.5442H11.5478H11.5515H11.5551H11.5588H11.5624H11.566H11.5697H11.5733H11.5769H11.5805H11.584H11.5876H11.5912H11.5947H11.5983H11.6018H11.6053H11.6089H11.6124H11.6159H11.6193H11.6228H11.6263H11.6298H11.6332H11.6367H11.6401H11.6435H11.6469H11.6503H11.6537H11.6571H11.6605H11.6638H11.6672H11.6705H11.6739H11.6772H11.6805H11.6838H11.6871H11.6904H11.6937H11.6969H11.7002H11.7034H11.7067H11.7099H11.7131H11.7163H11.7195H11.7227H11.7259H11.729H11.7322H11.7353H11.7384H11.7416H11.7447H11.7478H11.7508H11.7539H11.757H11.76H11.7631H11.7661H11.7691H11.7721H11.7751H11.7781H11.7811H11.7841H11.787H11.7899H11.7929H11.7958H11.7987H11.8016H11.8045H11.8074H11.8102H11.8131H11.8159H11.8187H11.8215H11.8243H11.8271H11.8299H11.8327H11.8354H11.8382H11.8409H11.8436H11.8463H11.849H11.8517H11.8544H11.857H11.8597H11.8623H11.8649H11.8675H11.8701H11.8727H11.8753H11.8779H11.8804H11.8829H11.8855H11.888H11.8905H11.8929H11.8954H11.8979H11.9003H11.9027H11.9052H11.9076H11.91H11.9123H11.9147H11.9171H11.9194H11.9217H11.924H11.9263H11.9286H11.9309H11.9332H11.9354H11.9376H11.9399H11.9421H11.9443H11.9464H11.9486H11.9508H11.9529H11.955H11.9571H11.9592H11.9613H11.9634H11.9654H11.9675H11.9695H11.9715H11.9735H11.9755H11.9775H11.9794H11.9814H11.9833H11.9852H11.9871H11.989H11.9909H11.9927H11.9946H11.9964H11.9982H12H12.0019H12.0038H12.0058H12.0077H12.0097H12.0117H12.0137H12.0157H12.0177H12.0197H12.0218H12.0238H12.0259H12.028H12.0301H12.0322H12.0343H12.0365H12.0386H12.0408H12.043H12.0452H12.0474H12.0496H12.0518H12.0541H12.0564H12.0586H12.0609H12.0632H12.0655H12.0679H12.0702H12.0725H12.0749H12.0773H12.0797H12.0821H12.0845H12.0869H12.0893H12.0918H12.0943H12.0967H12.0992H12.1017H12.1042H12.1068H12.1093H12.1119H12.1144H12.117H12.1196H12.1222H12.1248H12.1274H12.1301H12.1327H12.1354H12.138H12.1407H12.1434H12.1461H12.1488H12.1516H12.1543H12.157H12.1598H12.1626H12.1654H12.1682H12.171H12.1738H12.1766H12.1795H12.1823H12.1852H12.1881H12.191H12.1939H12.1968H12.1997H12.2026H12.2056H12.2085H12.2115H12.2145H12.2175H12.2205H12.2235H12.2265H12.2295H12.2326H12.2356H12.2387H12.2417H12.2448H12.2479H12.251H12.2541H12.2573H12.2604H12.2635H12.2667H12.2699H12.273H12.2762H12.2794H12.2826H12.2858H12.2891H12.2923H12.2956H12.2988H12.3021H12.3054H12.3086H12.3119H12.3152H12.3186H12.3219H12.3252H12.3286H12.3319H12.3353H12.3386H12.342H12.3454H12.3488H12.3522H12.3556H12.3591H12.3625H12.366H12.3694H12.3729H12.3764H12.3798H12.3833H12.3868H12.3903H12.3939H12.3974H12.4009H12.4045H12.408H12.4116H12.4152H12.4187H12.4223H12.4259H12.4295H12.4331H12.4368H12.4404H12.444H12.4477H12.4513H12.455H12.4587H12.4624H12.4661H12.4698H12.4735H12.4772H12.4809H12.4846H12.4884H12.4921H12.4959H12.4996H12.5034H12.5072H12.511H12.5147H12.5185H12.5224H12.5262H12.53H12.5338H12.5377H12.5415H12.5454H12.5492H12.5531H12.557H12.5608H12.5647H12.5686H12.5725H12.5764H12.5804H12.5843H12.5882H12.5922H12.5961H12.6001H12.604H12.608H12.612H12.6159H12.6199H12.6239H12.6279H12.6319H12.6359H12.64H12.644H12.648H12.6521H12.6561H12.6602H12.6642H12.6683H12.6723H12.6764H12.6805H12.6846H12.6887H12.6928H12.6969H12.701H12.7051H12.7093H12.7134H12.7175H12.7217H12.7258H12.73H12.7341H12.7383H12.7425H12.7467H12.7508H12.755H12.7592H12.7634H12.7676H12.7718H12.7761H12.7803H12.7845H12.7887H12.793H12.7972H12.8015H12.8057H12.81H12.8142H12.8185H12.8228H12.8271H12.8313H12.8356H12.8399H12.8442H12.8485H12.8528H12.8571H12.8615H12.8658H12.8701H12.8744H12.8788H12.8831H12.8875H12.8918H12.8962H12.9005H12.9049H12.9092H12.9136H12.918H12.9224H12.9267H12.9311H12.9355H12.9399H12.9443H12.9487H12.9531H12.9575H12.9619H12.9663H12.9708H12.9752H12.9796H12.9841H12.9885H12.9929H12.9974H13.0018H13.0063H13.0107H13.0152H13.0196H13.0241H13.0286H13.033H13.0375H13.042H13.0465H13.0509H13.0554H13.0599H13.0644H13.0689H13.0734H13.0779H13.0824H13.0869H13.0914H13.0959H13.1004H13.105H13.1095H13.114H13.1185H13.1231H13.1276H13.1321H13.1366H13.1412H13.1457H13.1503H13.1548H13.1594H13.1639H13.1685H13.173H13.1776H13.1821H13.1867H13.1912H13.1958H13.2004H13.2049H13.2095H13.2141H13.2186H13.2232H13.2278H13.2324H13.2369H13.2415H13.2461H13.2507H13.2553H13.2599H13.2644H13.269H13.2736H13.2782H13.2828H13.2874H13.292H13.2966H13.3012H13.3058H13.3104H13.315H13.3196H13.3242H13.3288H13.3334H13.338H13.3426H13.3472H13.3518H13.3564H13.361H13.3657H13.3703H13.3749H13.3795H13.3841H13.3887H13.3933H13.3979H13.4026H13.4072H13.4118H13.4164H13.421H13.4256H13.4302H13.4349H13.4395H13.4441H13.4487H13.4533H13.4579H13.4625H13.4672H13.4718H13.4764H13.481H13.4856H13.4902H13.4948H13.4994H13.5041H13.5087H13.5133H13.5179H13.5225H13.5271H13.5317H13.5363H13.5409H13.5455H13.5501H13.5547H13.5594H13.564H13.5686H13.5732H13.5778H13.5824H13.587H13.5915H13.5961H13.6007H13.6053H13.6099H13.6145H13.6191H13.6237H13.6283H13.6329H13.6374H13.642H13.6466H13.6512H13.6558H13.6603H13.6649H13.6695H13.674H13.6786H13.6832H13.6877H13.6923H13.6969H13.7014H13.706H13.7105H13.7151H13.7196H13.7242H13.7287H13.7333H13.7378H13.7423H13.7469H13.7514H13.756H13.7605H13.765H13.7695H13.7741H13.7786H13.7831H13.7876H13.7921H13.7966H13.8011H13.8056H13.8101H13.8146H13.8191H13.8236H13.8281H13.8326H13.8371H13.8415H13.846H13.8505H13.855H13.8594H13.8639H13.8683H13.8728H13.8772H13.8817H13.8861H13.8906H13.895H13.8995H13.9039H13.9083H13.9127H13.9172H13.9216H13.926H13.9304H13.9348H13.9392H13.9436H13.948H13.9524H13.9568H13.9611H13.9655H13.9699H13.9743H13.9786H13.983H13.9873H13.9917H13.996H14.0004C15.1054 20 16 19.1041 16 18L16 15.9596C16.0005 15.9577 16.0021 15.9534 16.0063 15.9465C16.0158 15.9311 16.0353 15.9091 16.0669 15.8904C18.419 14.4995 20 11.9349 20 9C20 4.58172 16.4183 1 12 1Z" fill="currentColor"/>
</svg>
