<svg width="24" height="24" viewBox="0 0 24 24" fill="none" xmlns="http://www.w3.org/2000/svg">
<path d="M3.29298 3.29297C3.6591 2.92697 4.23814 2.90429 4.63088 3.22461L4.70705 3.29297L20.7071 19.293L20.7755 19.3691C21.0957 19.7619 21.0731 20.3409 20.7071 20.707C20.3411 21.0731 19.762 21.0956 19.3692 20.7754L19.2931 20.707L16.1915 17.6055C15.7258 17.9533 15.2182 18.2434 14.6788 18.4668C14.1395 18.6902 13.5752 18.8436 13.0001 18.9268V21H15.0001C15.5523 21.0001 16.0001 21.4478 16.0001 22C16.0001 22.5522 15.5523 22.9999 15.0001 23H9.00004C8.44775 23 8.00004 22.5523 8.00004 22C8.00004 21.4477 8.44775 21 9.00004 21H11.0001V18.9268C10.4249 18.8436 9.86064 18.6902 9.32133 18.4668C8.47213 18.115 7.69981 17.6001 7.04984 16.9502C6.39986 16.3002 5.88501 15.5279 5.53323 14.6787C5.22536 13.9355 5.04823 13.1456 5.00881 12.3438L5.00002 12C5.00002 11.4477 5.44774 11 6.00003 11C6.5176 11.0001 6.94382 11.3934 6.99515 11.8975L7.00003 12C7.00003 12.6565 7.12967 13.3065 7.38089 13.9131C7.63217 14.5197 8.00061 15.0709 8.46488 15.5352C8.92915 15.9994 9.48038 16.3679 10.087 16.6191C10.6935 16.8703 11.3436 17 12.0001 17C12.6565 17 13.3067 16.8703 13.9132 16.6191C14.2087 16.4967 14.4904 16.3455 14.7559 16.1699L14.0303 15.4443C13.435 15.7961 12.7417 16 12.0001 16C9.79091 16 8.00004 14.2091 8.00004 12V9.41406L3.29298 4.70703L3.22462 4.63086C2.90427 4.23809 2.92686 3.65908 3.29298 3.29297ZM18.0001 11C18.5523 11.0001 19.0001 11.4478 19.0001 12C19.0001 12.8026 18.8612 13.5982 18.5919 14.3525L16.9483 12.709C16.982 12.4746 17.0001 12.2378 17.0001 12C17.0001 11.4477 17.4478 11 18.0001 11ZM12.0001 1C14.2091 1.00013 16.0001 2.79094 16.0001 5V11.7607L8.15043 3.91113C8.62467 2.23126 10.1684 1 12.0001 1Z" fill="currentColor"/>
</svg>
