<svg width="24" height="24" viewBox="0 0 24 24" fill="none" xmlns="http://www.w3.org/2000/svg">
<path fill-rule="evenodd" clip-rule="evenodd" d="M8 5C8 2.79086 9.79086 1 12 1C14.2091 1 16 2.79086 16 5V12C16 14.2091 14.2091 16 12 16C9.79086 16 8 14.2091 8 12V5ZM13 18.9282C13.5753 18.8452 14.1393 18.6906 14.6788 18.4672C15.5281 18.1154 16.2997 17.5998 16.9497 16.9497C17.5998 16.2997 18.1154 15.5281 18.4672 14.6788C18.8189 13.8295 19 12.9193 19 12C19 11.4477 18.5523 11 18 11C17.4477 11 17 11.4477 17 12C17 12.6566 16.8707 13.3068 16.6194 13.9134C16.3681 14.52 15.9998 15.0712 15.5355 15.5355C15.0712 15.9998 14.52 16.3681 13.9134 16.6194C13.3068 16.8707 12.6566 17 12 17C11.3434 17 10.6932 16.8707 10.0866 16.6194C9.47995 16.3681 8.92876 15.9998 8.46447 15.5355C8.00017 15.0712 7.63188 14.52 7.3806 13.9134C7.12933 13.3068 7 12.6566 7 12C7 11.4477 6.55228 11 6 11C5.44772 11 5 11.4477 5 12C5 12.9193 5.18106 13.8295 5.53284 14.6788C5.88463 15.5281 6.40024 16.2997 7.05025 16.9497C7.70026 17.5998 8.47194 18.1154 9.32122 18.4672C9.86065 18.6906 10.4247 18.8452 11 18.9282V21H9C8.44772 21 8 21.4477 8 22C8 22.5523 8.44772 23 9 23H12H15C15.5523 23 16 22.5523 16 22C16 21.4477 15.5523 21 15 21H13V18.9282Z" fill="currentColor"/>
</svg>
