<svg width="24" height="24" viewBox="0 0 24 24" fill="none" xmlns="http://www.w3.org/2000/svg">
<path fill-rule="evenodd" clip-rule="evenodd" d="M17 1H7C5.34315 1 4 2.34315 4 4V20C4 21.6569 5.34315 23 7 23H17C18.6569 23 20 21.6569 20 20V19H15H14.9996C14.9996 19.5523 14.5519 20 13.9996 20H10C9.44772 20 9 19.5523 9 19C9 18.4477 9.44772 18 10 18H12.7639C12.2889 17.4692 12 16.7684 12 16V12C12 11.1087 12.3886 10.3083 13.0057 9.75879C13.1316 7.10939 15.3194 5 18 5C18.7111 5 19.3875 5.14845 20 5.41604V4C20 2.34315 18.6569 1 17 1ZM15 3H9V4C9 4.55228 9.44772 5 10 5H14C14.5523 5 15 4.55228 15 4V3ZM18 9C17.4477 9 17 9.44772 17 10V11H19V10C19 9.44772 18.5523 9 18 9ZM15 10V11C14.4477 11 14 11.4477 14 12V16C14 16.5523 14.4477 17 15 17H21C21.5523 17 22 16.5523 22 16V12C22 11.4477 21.5523 11 21 11V10C21 8.34315 19.6569 7 18 7C16.3431 7 15 8.34315 15 10Z" fill="currentColor"/>
</svg>
