<svg width="24" height="24" viewBox="0 0 24 24" fill="none" xmlns="http://www.w3.org/2000/svg">
<path fill-rule="evenodd" clip-rule="evenodd" d="M17 1H7C5.34315 1 4 2.34315 4 4V20C4 21.6569 5.34315 23 7 23H17C18.6569 23 20 21.6569 20 20V17.0098L19.7399 17.27C19.3342 17.6756 18.841 17.9828 18.298 18.1678L16.5032 18.7795C15.989 18.9548 15.4792 19.0008 14.9979 18.9417C14.999 18.961 14.9996 18.9804 14.9996 19C14.9996 19.5523 14.5519 20 13.9996 20H10C9.44772 20 9 19.5523 9 19C9 18.4477 9.44772 18 10 18H13.0969L12.7341 17.6371C12.0883 16.7993 11.8236 15.659 12.2199 14.4962L12.8316 12.7014C13.0167 12.1585 13.3238 11.6652 13.7294 11.2596L17.8922 7.09685C18.4857 6.50331 19.2287 6.15033 20 6.03791V4C20 2.34315 18.6569 1 17 1ZM15 3H9V4C9 4.55228 9.44772 5 10 5H14C14.5523 5 15 4.55228 15 4V3ZM14.7251 13.3466C14.8114 13.0932 14.9548 12.863 15.144 12.6737L19.3068 8.51098C19.9902 7.82756 21.0982 7.82756 21.7816 8.51098L22.4888 9.21809C23.1722 9.9015 23.1722 11.0095 22.4888 11.693L18.326 15.8557C18.1367 16.045 17.9065 16.1883 17.6532 16.2747L15.8584 16.8864C14.7778 17.2547 13.745 16.2219 14.1133 15.1413L14.7251 13.3466ZM16.2047 13.7344C16.1777 13.7614 16.1572 13.7943 16.1449 13.8305L15.6152 15.3846L17.1692 14.8549C17.2054 14.8425 17.2383 14.8221 17.2654 14.795L19.4845 12.5759L18.4238 11.5152L16.2047 13.7344ZM21.4281 10.6323L20.5452 11.5152L19.4845 10.4546L20.3674 9.57164C20.4651 9.47401 20.6234 9.47401 20.721 9.57164L21.4281 10.2787C21.5257 10.3764 21.5257 10.5347 21.4281 10.6323Z" fill="currentColor"/>
</svg>
