<svg width="24" height="24" viewBox="0 0 24 24" fill="none" xmlns="http://www.w3.org/2000/svg">
<path fill-rule="evenodd" clip-rule="evenodd" d="M17 1H7C5.34315 1 4 2.34315 4 4V20C4 21.6569 5.34315 23 7 23H17C18.6569 23 20 21.6569 20 20V4C20 2.34315 18.6569 1 17 1ZM9 19C9 18.4477 9.44772 18 10 18H13.9996C14.5519 18 14.9996 18.4477 14.9996 19C14.9996 19.5523 14.5519 20 13.9996 20H10C9.44772 20 9 19.5523 9 19ZM15 3H9V4C9 4.55228 9.44772 5 10 5H14C14.5523 5 15 4.55228 15 4V3Z" fill="currentColor"/>
</svg>
