<svg width="24" height="24" viewBox="0 0 24 24" fill="none" xmlns="http://www.w3.org/2000/svg">
<path fill-rule="evenodd" clip-rule="evenodd" d="M7 1H17C18.6569 1 20 2.34315 20 4V6.3108C19.5929 5.78678 19.0408 5.39361 18.4122 5.18021C17.7771 4.96462 17.0923 4.9422 16.4445 5.11579C15.7967 5.28938 15.2148 5.65118 14.7726 6.15543C14.3304 6.65968 14.0477 7.28374 13.9601 7.94869C13.9256 8.21059 13.922 8.4742 13.9485 8.7343C13.8545 8.86681 13.7664 9.00414 13.6845 9.14597C13.086 10.1826 12.863 11.3871 13.0416 12.559L13.0447 12.5917L13.0448 12.593C13.0509 12.659 13.059 12.7512 13.0669 12.8555C13.0844 13.085 13.0955 13.3009 13.0945 13.4284C13.0924 13.7213 13.023 14.2186 12.9281 14.7175C12.5651 16.6266 14.1836 18.495 16.2242 18.1921C16.3546 18.2907 16.4912 18.3814 16.6334 18.4634C17.0851 18.7242 17.5838 18.8935 18.1009 18.9616C18.618 19.0297 19.1435 18.9952 19.6473 18.8602C19.7667 18.8282 19.8844 18.7907 20 18.7479V20C20 21.6569 18.6569 23 17 23H7C5.34315 23 4 21.6569 4 20V4C4 2.34315 5.34315 1 7 1ZM10 18C9.44772 18 9 18.4477 9 19C9 19.5523 9.44772 20 10 20H13.9996C14.5519 20 14.9996 19.5523 14.9996 19C14.9996 18.4477 14.5519 18 13.9996 18H10ZM9 3H15V4C15 4.55228 14.5523 5 14 5H10C9.44772 5 9 4.55228 9 4V3ZM16.277 7.47415C16.4584 7.2673 16.6971 7.11889 16.9628 7.04768C17.2286 6.97647 17.5095 6.98567 17.77 7.0741C18.0305 7.16254 18.259 7.32625 18.4264 7.54452C18.5939 7.76279 18.6929 8.02583 18.7109 8.30037C18.7166 8.38678 18.7142 8.4731 18.7039 8.55827C19.104 8.6176 19.4934 8.75177 19.8506 8.95797C20.5061 9.33642 21.0057 9.9302 21.2683 10.6333L21.2745 10.6471L21.3107 10.7261C21.3419 10.7935 21.3859 10.8875 21.437 10.9938C21.5409 11.2097 21.6687 11.464 21.7773 11.6491C22.0243 12.0702 22.4365 12.5844 22.7777 12.9818C23.2194 13.4961 22.9961 14.3295 22.3128 14.5124L20.5914 14.9734C20.594 15.076 20.5887 15.1788 20.5752 15.2811C20.5414 15.5378 20.4574 15.7853 20.3279 16.0096C20.1984 16.2338 20.0261 16.4304 19.8206 16.588C19.6152 16.7456 19.3807 16.8613 19.1306 16.9283C18.8805 16.9953 18.6196 17.0124 18.3629 16.9786C18.1062 16.9448 17.8586 16.8608 17.6344 16.7313C17.4102 16.6018 17.2136 16.4295 17.056 16.224C16.9931 16.1421 16.9369 16.0555 16.8878 15.9651L16.0611 16.1865C15.3768 16.3698 14.7668 15.7576 14.8936 15.091C14.9912 14.5775 15.0916 13.929 15.0952 13.4428C15.0967 13.2278 15.08 12.9431 15.0618 12.7037C15.0529 12.5858 15.0438 12.4821 15.0369 12.408C15.0335 12.371 15.0307 12.3414 15.0287 12.3213L15.0272 12.3059C14.9029 11.5656 15.0387 10.8015 15.4172 10.1459C15.6234 9.78878 15.8935 9.47792 16.2103 9.22646C16.1588 9.15784 16.1135 9.08428 16.0752 9.0066C15.9535 8.75985 15.9078 8.48255 15.9437 8.20978C15.9796 7.937 16.0956 7.681 16.277 7.47415Z" fill="currentColor"/>
</svg>
