<svg width="24" height="24" viewBox="0 0 24 24" fill="none" xmlns="http://www.w3.org/2000/svg">
<path fill-rule="evenodd" clip-rule="evenodd" d="M7 1C5.34315 1 4 2.34315 4 4V20C4 21.6569 5.34315 23 7 23H17C17.1036 23 17.2059 22.9948 17.3067 22.9845C18.8195 22.8309 20 21.5533 20 20V4C20 2.34315 18.6569 1 17 1H7ZM9 3V4C9 4.55228 9.44772 5 10 5H14C14.5523 5 15 4.55228 15 4V3H9ZM9 19C9 18.4477 9.44772 18 10 18H13.9996C14.5519 18 14.9996 18.4477 14.9996 19C14.9996 19.5523 14.5519 20 13.9996 20H10C9.44772 20 9 19.5523 9 19ZM8 9C8 8.44772 8.44772 8 9 8H12H15C15.5523 8 16 8.44772 16 9V9.00001V9.00002V9.00004V9.00006V9.00009V9.00012V9.00016V9.00021V9.00025V9.00031V9.00037V9.00043V9.0005V9.00057V9.00065V9.00074V9.00083V9.00092V9.00102V9.00113V9.00124V9.00136V9.00148V9.00161V9.00174V9.00188V9.00202V9.00217V9.00232V9.00248V9.00265V9.00282V9.003V9.00318V9.00337V9.00356V9.00376V9.00396V9.00417V9.00439V9.00461V9.00484V9.00507V9.00531V9.00555V9.0058V9.00606V9.00632V9.00658V9.00686V9.00713V9.00742V9.00771V9.00801V9.00831V9.00861V9.00893V9.00925V9.00957V9.0099V9.01024V9.01058V9.01093V9.01129V9.01165V9.01202V9.01239V9.01277V9.01315V9.01355V9.01394V9.01435V9.01476V9.01517V9.0156V9.01602V9.01646V9.0169V9.01735V9.0178V9.01826V9.01872V9.0192V9.01967V9.02016V9.02065V9.02115V9.02165V9.02216V9.02268V9.0232V9.02373V9.02426V9.02481V9.02535V9.02591V9.02647V9.02704V9.02761V9.02819V9.02878V9.02938V9.02998V9.03059V9.0312V9.03182V9.03245V9.03308V9.03372V9.03437V9.03502V9.03568V9.03635V9.03703V9.03771V9.03839V9.03909V9.03979V9.0405V9.04121V9.04194V9.04267V9.0434V9.04414V9.0449V9.04565V9.04642V9.04719V9.04796V9.04875V9.04954V9.05034V9.05114V9.05196V9.05278V9.0536V9.05444V9.05528V9.05613V9.05698V9.05785V9.05871V9.05959V9.06048V9.06137V9.06227V9.06317V9.06409V9.06501V9.06594V9.06687V9.06781V9.06876V9.06972V9.07068V9.07166V9.07264V9.07362V9.07462V9.07562V9.07663V9.07765V9.07867V9.0797V9.08074V9.08179V9.08284V9.08391V9.08498V9.08605V9.08714V9.08823V9.08933V9.09044V9.09155V9.09268V9.09381V9.09495V9.0961V9.09725V9.09841V9.09958V9.10076V9.10194V9.10314V9.10434V9.10555V9.10677V9.10799V9.10922V9.11047V9.11171V9.11297V9.11424V9.11551V9.11679V9.11808V9.11938V9.12068V9.12199V9.12332V9.12464V9.12598V9.12733V9.12868V9.13004V9.13141V9.13279V9.13418V9.13557V9.13698V9.13839V9.13981V9.14123V9.14267V9.14412V9.14557V9.14703V9.1485V9.14998V9.15146V9.15296V9.15446V9.15597V9.15749V9.15902V9.16056V9.1621V9.16366V9.16522V9.16679V9.16837V9.16996V9.17156V9.17316V9.17478V9.1764V9.17803V9.17967V9.18132V9.18298V9.18464V9.18632V9.188V9.1897V9.1914V9.19311V9.19483V9.19655V9.19829V9.20004V9.20179V9.20355V9.20533V9.20711V9.2089V9.2107V9.2125V9.21432V9.21615V9.21798V9.21983V9.22168V9.22354V9.22541V9.22729V9.22918V9.23108V9.23299V9.2349V9.23683V9.23877V9.24071V9.24266V9.24463V9.2466V9.24858V9.25057V9.25257V9.25458V9.2566V9.25863V9.26066V9.26271V9.26477V9.26683V9.26891V9.27099V9.27308V9.27519V9.2773V9.27942V9.28155V9.28369V9.28584V9.288V9.29017V9.29235V9.29454V9.29674V9.29895V9.30117V9.30339V9.30563V9.30788V9.31013V9.3124V9.31468V9.31696V9.31926V9.32156V9.32388V9.3262V9.32854V9.33088V9.33324V9.3356V9.33798V9.34036V9.34275V9.34516V9.34757V9.35V9.35243V9.35487V9.35733V9.35979V9.36226V9.36475V9.36724V9.36975V9.37226V9.37479V9.37732V9.37986V9.38242V9.38498V9.38756V9.39015V9.39274V9.39535V9.39796V9.40059V9.40323V9.40587V9.40853V9.4112V9.41388V9.41656V9.41926V9.42197V9.42469V9.42742V9.43016V9.43291V9.43567V9.43845V9.44123V9.44402V9.44682V9.44964V9.45246V9.4553V9.45814V9.461V9.46387V9.46674V9.46963V9.47253V9.47544V9.47836V9.48129V9.48423V9.48719V9.49015V9.49312V9.49611V9.4991V9.50211V9.50513V9.50816V9.5112V9.51425V9.51731V9.52038V9.52346V9.52655V9.52966V9.53277V9.5359V9.53904V9.54219V9.54535V9.54852V9.5517V9.55489V9.5581V9.56131V9.56454V9.56777V9.57102V9.57428V9.57755V9.58084V9.58413V9.58743V9.59075V9.59408V9.59741V9.60076V9.60413V9.6075V9.61088V9.61428V9.61768V9.6211V9.62453V9.62797V9.63142V9.63488V9.63836V9.64185V9.64534V9.64885V9.65237V9.65591V9.65945V9.66301V9.66657V9.67015V9.67374V9.67735V9.68096V9.68459V9.68822V9.69187V9.69553V9.6992V9.70289V9.70658V9.71029V9.71401V9.71774V9.72149V9.72524V9.72901V9.73279V9.73658V9.74038V9.74419V9.74802V9.75186V9.75571V9.75957V9.76344V9.76733V9.77123V9.77514V9.77906V9.78299V9.78694V9.7909V9.79487V9.79885V9.80285V9.80685V9.81087V9.8149V9.81895V9.823V9.82707V9.83115V9.83524V9.83935V9.84346V9.84759V9.85174V9.85589V9.86006V9.86424V9.86843V9.87263V9.87685V9.88107V9.88532V9.88957V9.89384V9.89811V9.9024V9.90671V9.91102V9.91535V9.91969V9.92405V9.92841V9.93279V9.93718V9.94159V9.946V9.95043V9.95488V9.95933V9.9638V9.96828V9.97277V9.97728V9.9818V9.98633V9.99087V9.99543V10C16 10.5523 15.5523 11 15 11C14.4477 11 14 10.5523 14 10H13V14H14C14.5523 14 15 14.4477 15 15C15 15.5523 14.5523 16 14 16H12H10C9.44772 16 9 15.5523 9 15C9 14.4477 9.44772 14 10 14H11V10H10C10 10.5523 9.55228 11 9 11C8.44772 11 8 10.5523 8 10V9Z" fill="currentColor"/>
</svg>
