<svg width="24" height="24" viewBox="0 0 24 24" fill="none" xmlns="http://www.w3.org/2000/svg">
<path fill-rule="evenodd" clip-rule="evenodd" d="M4 4C4 2.34315 5.34315 1 7 1H17C18.6569 1 20 2.34315 20 4V20C20 21.6569 18.6569 23 17 23H7C5.34315 23 4 21.6569 4 20V4ZM7 3C6.44772 3 6 3.44772 6 4V20C6 20.5523 6.44772 21 7 21H17C17.5523 21 18 20.5523 18 20V4C18 3.44772 17.5523 3 17 3H16V4C16 5.10457 15.1046 6 14 6H10C8.89543 6 8 5.10457 8 4V3H7ZM10 3H14V4H10V3ZM10 18C9.44772 18 9 18.4477 9 19C9 19.5523 9.44772 20 10 20H13.9996C14.5519 20 14.9996 19.5523 14.9996 19C14.9996 18.4477 14.5519 18 13.9996 18H10Z" fill="currentColor"/>
</svg>
