<svg width="24" height="24" viewBox="0 0 24 24" fill="none" xmlns="http://www.w3.org/2000/svg">
<path fill-rule="evenodd" clip-rule="evenodd" d="M7 1C5.34315 1 4 2.34315 4 4V20C4 21.6569 5.34315 23 7 23H17C18.6569 23 20 21.6569 20 20V4C20 2.34315 18.6569 1 17 1H7ZM6 4C6 3.44772 6.44772 3 7 3H8V4C8 5.10457 8.89543 6 10 6H14C15.1046 6 16 5.10457 16 4V3H17C17.5523 3 18 3.44772 18 4V20C18 20.5523 17.5523 21 17 21H7C6.44772 21 6 20.5523 6 20V4ZM14 3H10V4H14V3ZM9 19C9 18.4477 9.44772 18 10 18H13.9996C14.5519 18 14.9996 18.4477 14.9996 19C14.9996 19.5523 14.5519 20 13.9996 20H10C9.44772 20 9 19.5523 9 19ZM11 14V10H10C10 10.5523 9.55228 11 9 11C8.44772 11 8 10.5523 8 10V9C8 8.44772 8.44772 8 9 8H12H15C15.5523 8 16 8.44772 16 9V10C16 10.5523 15.5523 11 15 11C14.4477 11 14 10.5523 14 10H13V14H14C14.5523 14 15 14.4477 15 15C15 15.5523 14.5523 16 14 16H12H10C9.44772 16 9 15.5523 9 15C9 14.4477 9.44772 14 10 14H11Z" fill="currentColor"/>
</svg>
