<svg width="24" height="24" viewBox="0 0 24 24" fill="none" xmlns="http://www.w3.org/2000/svg">
<path fill-rule="evenodd" clip-rule="evenodd" d="M7 1C5.34315 1 4 2.34315 4 4V20C4 21.6569 5.34315 23 7 23H17C18.6569 23 20 21.6569 20 20V19C20 18.4477 19.5523 18 19 18C18.4477 18 18 18.4477 18 19V20C18 20.5523 17.5523 21 17 21H7C6.44772 21 6 20.5523 6 20V4C6 3.44772 6.44772 3 7 3H8V4C8 5.10457 8.89543 6 10 6H14C15.1046 6 16 5.10457 16 4V3H17C17.5523 3 18 3.44772 18 4V5C18 5.55228 18.4477 6 19 6C19.5523 6 20 5.55228 20 5V4C20 2.34315 18.6569 1 17 1H7ZM14 3H10V4H14V3ZM9 19C9 18.4477 9.44772 18 10 18H13.9996C14.5519 18 14.9996 18.4477 14.9996 19C14.9996 19.5523 14.5519 20 13.9996 20H10C9.44772 20 9 19.5523 9 19ZM16.3771 7.47424C16.5556 7.26739 16.7905 7.11897 17.052 7.04777C17.3136 6.97656 17.59 6.98575 17.8464 7.07419C18.1028 7.16263 18.3276 7.32633 18.4924 7.54461C18.6572 7.76288 18.7547 8.02591 18.7724 8.30045C18.7779 8.3868 18.7756 8.47306 18.7654 8.55816C19.1596 8.61742 19.5431 8.75165 19.8948 8.958C20.5399 9.33645 21.0316 9.93022 21.29 10.6333L21.2961 10.6471L21.3318 10.7261C21.3624 10.7935 21.4057 10.8876 21.4561 10.9939C21.5583 11.2097 21.6841 11.464 21.7909 11.6491C22.0341 12.0702 22.4396 12.5844 22.7755 12.9818C23.2101 13.4962 22.9904 14.3295 22.3179 14.5125L20.6241 14.9734C20.6267 15.076 20.6214 15.1788 20.6081 15.2811C20.5749 15.5378 20.4922 15.7854 20.3648 16.0096C20.2374 16.2338 20.0677 16.4304 19.8656 16.588C19.6634 16.7457 19.4327 16.8613 19.1865 16.9283C18.9404 16.9953 18.6837 17.0124 18.431 16.9786C18.1784 16.9448 17.9347 16.8608 17.7141 16.7313C17.4934 16.6018 17.2999 16.4295 17.1448 16.2241C17.0829 16.1421 17.0276 16.0555 16.9793 15.9651L16.1655 16.1865C15.4921 16.3698 14.8918 15.7576 15.0165 15.0911C15.1126 14.5775 15.2115 13.929 15.2149 13.4428C15.2165 13.2279 15.2 12.9432 15.1821 12.7037C15.1733 12.5858 15.1644 12.4821 15.1576 12.408L15.1495 12.3213L15.148 12.3059C15.0257 11.5657 15.1594 10.8015 15.5319 10.1459C15.7346 9.78903 16.0002 9.47834 16.3118 9.22696C16.261 9.15822 16.2163 9.08452 16.1785 9.00669C16.0588 8.75993 16.0137 8.48264 16.0491 8.20986C16.0844 7.93709 16.1986 7.68109 16.3771 7.47424Z" fill="currentColor"/>
</svg>
