<svg width="24" height="24" viewBox="0 0 24 24" fill="none" xmlns="http://www.w3.org/2000/svg">
<path fill-rule="evenodd" clip-rule="evenodd" d="M7 1C5.34315 1 4 2.34315 4 4V20C4 21.6569 5.34315 23 7 23H17C18.6569 23 20 21.6569 20 20V19C20 18.4477 19.5523 18 19 18C18.4477 18 18 18.4477 18 19V20C18 20.5523 17.5523 21 17 21H7C6.44772 21 6 20.5523 6 20V4C6 3.44772 6.44772 3 7 3H8V4C8 5.10457 8.89543 6 10 6H14C15.1046 6 16 5.10457 16 4V3H17C17.5523 3 18 3.44772 18 4V5C18 5.55228 18.4477 6 19 6C19.5523 6 20 5.55228 20 5V4C20 2.34315 18.6569 1 17 1H7ZM14 3H10V4H14V3ZM9 19C9 18.4477 9.44772 18 10 18H13.9996C14.5519 18 14.9996 18.4477 14.9996 19C14.9996 19.5523 14.5519 20 13.9996 20H10C9.44772 20 9 19.5523 9 19ZM18 9C17.4477 9 17 9.44772 17 10V11H19V10C19 9.44772 18.5523 9 18 9ZM15 10V11C14.4477 11 14 11.4477 14 12V16C14 16.5523 14.4477 17 15 17H21C21.5523 17 22 16.5523 22 16V12C22 11.4477 21.5523 11 21 11V10C21 8.34315 19.6569 7 18 7C16.3431 7 15 8.34315 15 10Z" fill="currentColor"/>
</svg>
