<svg width="24" height="24" viewBox="0 0 24 24" fill="none" xmlns="http://www.w3.org/2000/svg">
<path fill-rule="evenodd" clip-rule="evenodd" d="M12 1C7.58172 1 4 4.58172 4 9V15C4 19.4183 7.58172 23 12 23C16.4183 23 20 19.4183 20 15V9C20 4.58172 16.4183 1 12 1ZM6 9C6 5.68629 8.68629 3 12 3C15.3137 3 18 5.68629 18 9V15C18 18.3137 15.3137 21 12 21C8.68629 21 6 18.3137 6 15V9ZM13 6C13 5.44772 12.5523 5 12 5C11.4477 5 11 5.44772 11 6V9C11 9.55228 11.4477 10 12 10C12.5523 10 13 9.55228 13 9V6Z" fill="currentColor"/>
</svg>
