<svg width="24" height="24" viewBox="0 0 24 24" fill="none" xmlns="http://www.w3.org/2000/svg">
<path fill-rule="evenodd" clip-rule="evenodd" d="M6 2.5C6 1.67157 6.67157 1 7.5 1C8.32843 1 9 1.67157 9 2.5V5.5C9 5.77614 8.77614 6 8.5 6H6.5C6.22386 6 6 5.77614 6 5.5V2.5ZM15 2.5C15 1.67157 15.6716 1 16.5 1C17.3284 1 18 1.67157 18 2.5V5.5C18 5.77614 17.7761 6 17.5 6H15.5C15.2239 6 15 5.77614 15 5.5V2.5ZM3 9C3 8.44772 3.44772 8 4 8H20C20.5523 8 21 8.44772 21 9V10C21 10.5523 20.5523 11 20 11H19V13C19 13.9193 18.8189 14.8295 18.4672 15.6788C18.1154 16.5281 17.5998 17.2997 16.9497 17.9497C16.2997 18.5998 15.5281 19.1154 14.6788 19.4672C14.1393 19.6906 13.5753 19.8452 13 19.9282V22C13 22.5523 12.5523 23 12 23C11.4477 23 11 22.5523 11 22V19.9282C10.4247 19.8452 9.86065 19.6906 9.32122 19.4672C8.47194 19.1154 7.70026 18.5998 7.05025 17.9497C6.40024 17.2997 5.88463 16.5281 5.53284 15.6788C5.18106 14.8295 5 13.9193 5 13V11H4C3.44772 11 3 10.5523 3 10V9Z" fill="currentColor"/>
</svg>
