<svg width="24" height="24" viewBox="0 0 24 24" fill="none" xmlns="http://www.w3.org/2000/svg">
<path fill-rule="evenodd" clip-rule="evenodd" d="M13 3C13 2.44772 12.5523 2 12 2C11.4477 2 11 2.44772 11 3V11C11 11.5523 11.4477 12 12 12C12.5523 12 13 11.5523 13 11V3ZM17.8224 3.86992C17.3734 3.54836 16.7488 3.65168 16.4272 4.10069C16.1056 4.54971 16.2089 5.17439 16.658 5.49595C18.0353 6.48233 19.0639 7.88049 19.5957 9.48897C20.1274 11.0975 20.1349 12.8332 19.6169 14.4462C19.0989 16.0592 18.0822 17.466 16.7133 18.4642C15.3445 19.4623 13.6941 20.0001 12 20.0001C10.3059 20.0001 8.65553 19.4623 7.28667 18.4642C5.91782 17.466 4.90115 16.0592 4.38315 14.4462C3.86515 12.8332 3.87256 11.0975 4.40431 9.48898C4.93607 7.8805 5.96471 6.48234 7.34204 5.49595C7.79105 5.17439 7.89437 4.54971 7.5728 4.1007C7.25124 3.65168 6.62656 3.54836 6.17755 3.86993C4.45589 5.10291 3.17008 6.8506 2.50539 8.86121C1.8407 10.8718 1.83144 13.0415 2.47894 15.0577C3.12644 17.0739 4.39727 18.8325 6.10834 20.0802C7.81941 21.3278 9.88238 22.0001 12 22.0001C14.1176 22.0001 16.1806 21.3278 17.8917 20.0802C19.6027 18.8325 20.8736 17.0739 21.5211 15.0577C22.1686 13.0415 22.1593 10.8718 21.4946 8.8612C20.8299 6.8506 19.5441 5.1029 17.8224 3.86992Z" fill="currentColor"/>
</svg>
