<svg width="24" height="24" viewBox="0 0 24 24" fill="none" xmlns="http://www.w3.org/2000/svg">
<path fill-rule="evenodd" clip-rule="evenodd" d="M4 3C2.34315 3 1 4.34315 1 6V8C1 8.55228 1.44772 9 2 9C2.55228 9 3 8.55228 3 8V6C3 5.44772 3.44772 5 4 5H20C20.5523 5 21 5.44772 21 6V18C21 18.5523 20.5523 19 20 19H14C13.4477 19 13 19.4477 13 20C13 20.5523 13.4477 21 14 21H20C21.6569 21 23 19.6569 23 18V6C23 4.34315 21.6569 3 20 3H4ZM2 21C2.55228 21 3 20.5523 3 20C3 19.4477 2.55228 19 2 19C1.44772 19 1 19.4477 1 20C1 20.5523 1.44772 21 2 21ZM1 16C1 15.4477 1.44772 15 2 15C2.65661 15 3.30679 15.1293 3.91342 15.3806C4.52005 15.6319 5.07124 16.0002 5.53553 16.4645C5.99983 16.9288 6.36812 17.48 6.6194 18.0866C6.87067 18.6932 7 19.3434 7 20C7 20.5523 6.55228 21 6 21C5.44772 21 5 20.5523 5 20C5 19.606 4.9224 19.2159 4.77164 18.8519C4.62087 18.488 4.3999 18.1573 4.12132 17.8787C3.84274 17.6001 3.51203 17.3791 3.14805 17.2284C2.78407 17.0776 2.39397 17 2 17C1.44772 17 1 16.5523 1 16ZM2 11C1.44772 11 1 11.4477 1 12C1 12.5523 1.44772 13 2 13C2.91925 13 3.8295 13.1811 4.67878 13.5328C5.52806 13.8846 6.29974 14.4002 6.94975 15.0503C7.59976 15.7003 8.11537 16.4719 8.46716 17.3212C8.81894 18.1705 9 19.0807 9 20C9 20.5523 9.44772 21 10 21C10.5523 21 11 20.5523 11 20C11 18.8181 10.7672 17.6478 10.3149 16.5558C9.86262 15.4639 9.19969 14.4718 8.36396 13.636C7.52823 12.8003 6.53608 12.1374 5.44415 11.6851C4.35222 11.2328 3.1819 11 2 11Z" fill="currentColor"/>
</svg>
