<svg width="24" height="24" viewBox="0 0 24 24" fill="none" xmlns="http://www.w3.org/2000/svg">
<path fill-rule="evenodd" clip-rule="evenodd" d="M3 4C3 2.34315 4.34315 1 6 1H18C19.6569 1 21 2.34315 21 4V5C21 5.55228 20.5523 6 20 6C19.4477 6 19 5.55228 19 5V4C19 3.44772 18.5523 3 18 3H6C5.44772 3 5 3.44772 5 4V20C5 20.5523 5.44772 21 6 21H18C18.5523 21 19 20.5523 19 20V19C19 18.4477 19.4477 18 20 18C20.5523 18 21 18.4477 21 19V20C21 21.6569 19.6569 23 18 23H6C4.34315 23 3 21.6569 3 20V4ZM17 10C17 9.44772 17.4477 9 18 9C18.5523 9 19 9.44772 19 10V11H17V10ZM15 11V10C15 8.34315 16.3431 7 18 7C19.6569 7 21 8.34315 21 10V11C21.5523 11 22 11.4477 22 12V16C22 16.5523 21.5523 17 21 17H15C14.4477 17 14 16.5523 14 16V12C14 11.4477 14.4477 11 15 11ZM12 6C12.5523 6 13 5.55228 13 5C13 4.44772 12.5523 4 12 4C11.4477 4 11 4.44772 11 5C11 5.55228 11.4477 6 12 6Z" fill="currentColor"/>
</svg>
