<svg width="24" height="24" viewBox="0 0 24 24" fill="none" xmlns="http://www.w3.org/2000/svg">
<path fill-rule="evenodd" clip-rule="evenodd" d="M6 1C4.34315 1 3 2.34315 3 4V20C3 21.6569 4.34315 23 6 23H18C19.6569 23 21 21.6569 21 20V19H15C13.3431 19 12 17.6569 12 16V12C12 11.1087 12.3886 10.3083 13.0057 9.75879C13.1316 7.10939 15.3194 5 18 5C19.1256 5 20.1643 5.37194 21 5.99963V4C21 2.34315 19.6569 1 18 1H6ZM14 16C14 16.5523 14.4477 17 15 17H21C21.5523 17 22 16.5523 22 16V12C22 11.4477 21.5523 11 21 11V10C21 8.34315 19.6569 7 18 7C16.3431 7 15 8.34315 15 10V11C14.4477 11 14 11.4477 14 12V16ZM12 6C12.5523 6 13 5.55228 13 5C13 4.44772 12.5523 4 12 4C11.4477 4 11 4.44772 11 5C11 5.55228 11.4477 6 12 6ZM18 9C17.4477 9 17 9.44772 17 10V11H19V10C19 9.44772 18.5523 9 18 9Z" fill="currentColor"/>
</svg>
