<svg width="24" height="24" viewBox="0 0 24 24" fill="none" xmlns="http://www.w3.org/2000/svg">
<path fill-rule="evenodd" clip-rule="evenodd" d="M6 1C4.34315 1 3 2.34315 3 4V20C3 21.6569 4.34315 23 6 23H18C19.6569 23 21 21.6569 21 20V16.9339C20.9638 16.9289 20.9273 16.9251 20.8907 16.9224C20.6181 16.9022 20.3445 16.9462 20.0919 17.0509C19.8394 17.1555 19.6149 17.3178 19.4363 17.5249C19.2578 17.7319 19.1303 17.9779 19.064 18.2431C18.931 18.7743 18.5854 19 18.1916 19H17.8084C17.4146 19 17.0681 18.7743 16.936 18.2431C16.8697 17.9779 16.7422 17.7319 16.5637 17.5249C16.3851 17.3178 16.1606 17.1555 15.9081 17.0509C15.6555 16.9462 15.3819 16.9022 15.1093 16.9224C14.8367 16.9425 14.5726 17.0263 14.3381 17.1669C13.8709 17.4478 13.4657 17.3638 13.1866 17.0846L12.9154 16.8134C12.6362 16.5351 12.5514 16.1309 12.8331 15.6619C12.9737 15.4274 13.0575 15.1633 13.0776 14.8907C13.0978 14.6181 13.0538 14.3445 12.9491 14.0919C12.8445 13.8394 12.6822 13.6149 12.4751 13.4363C12.2681 13.2578 12.0221 13.1303 11.7569 13.064C11.2257 12.931 11 12.5854 11 12.1916V11.8084C11 11.4137 11.2275 11.0681 11.7569 10.936C12.0221 10.8697 12.2681 10.7422 12.4751 10.5637C12.6822 10.3851 12.8445 10.1606 12.9491 9.90805C13.0538 9.6555 13.0978 9.38194 13.0776 9.10931C13.0575 8.83668 12.9737 8.57256 12.8331 8.33813C12.5514 7.86912 12.6362 7.464 12.9145 7.18575L13.1858 6.9145C13.464 6.63625 13.8691 6.55137 14.3381 6.83313C14.5726 6.97374 14.8367 7.05747 15.1093 7.07762C15.3819 7.09776 15.6555 7.05376 15.9081 6.94913C16.1606 6.8445 16.3851 6.68215 16.5637 6.47511C16.7422 6.26807 16.8697 6.02208 16.936 5.75688C17.069 5.22575 17.4146 5 17.8084 5H18.1916C18.5854 5 18.9319 5.22575 19.064 5.75688C19.1303 6.02208 19.2578 6.26807 19.4363 6.47511C19.6149 6.68215 19.8394 6.8445 20.0919 6.94913C20.3445 7.05376 20.6181 7.09776 20.8907 7.07762C20.9273 7.07491 20.9638 7.07106 21 7.06608V4C21 2.34315 19.6569 1 18 1H6ZM12 6C12.5523 6 13 5.55228 13 5C13 4.44772 12.5523 4 12 4C11.4477 4 11 4.44772 11 5C11 5.55228 11.4477 6 12 6ZM21.9464 10.974C22.0942 11.1015 22.2699 11.1926 22.4594 11.24C22.8375 11.3344 23 11.5813 23 11.8631V12.1369C23 12.4181 22.8388 12.6656 22.4594 12.76C22.2699 12.8074 22.0942 12.8985 21.9464 13.026C21.7985 13.1535 21.6825 13.3138 21.6078 13.4942C21.533 13.6746 21.5016 13.87 21.516 14.0648C21.5304 14.2595 21.5902 14.4482 21.6906 14.6156C21.8913 14.9506 21.8306 15.2394 21.6319 15.4381L21.4381 15.6319C21.2388 15.8313 20.95 15.8913 20.6156 15.6906C20.4482 15.5902 20.2595 15.5304 20.0648 15.516C19.87 15.5016 19.6746 15.533 19.4942 15.6078C19.3138 15.6825 19.1535 15.7985 19.026 15.9463C18.8985 16.0942 18.8074 16.2699 18.76 16.4594C18.665 16.8388 18.4181 17 18.1369 17H17.8631C17.5819 17 17.3344 16.8388 17.24 16.4594C17.1926 16.2699 17.1015 16.0942 16.974 15.9463C16.8465 15.7985 16.6862 15.6825 16.5058 15.6078C16.3254 15.533 16.13 15.5016 15.9352 15.516C15.7405 15.5304 15.5518 15.5902 15.3844 15.6906C15.0506 15.8913 14.7613 15.8313 14.5619 15.6319L14.3681 15.4381C14.1687 15.2394 14.1081 14.9506 14.3094 14.6156C14.4098 14.4482 14.4696 14.2595 14.484 14.0648C14.4984 13.87 14.467 13.6746 14.3922 13.4942C14.3175 13.3138 14.2015 13.1535 14.0537 13.026C13.9058 12.8985 13.7301 12.8074 13.5406 12.76C13.1613 12.665 13 12.4181 13 12.1369V11.8631C13 11.5813 13.1625 11.3344 13.5406 11.24C13.7301 11.1926 13.9058 11.1015 14.0537 10.974C14.2015 10.8465 14.3175 10.6862 14.3922 10.5058C14.467 10.3254 14.4984 10.13 14.484 9.93522C14.4696 9.74049 14.4098 9.55183 14.3094 9.38437C14.1081 9.04938 14.1687 8.76 14.3675 8.56125L14.5612 8.3675C14.76 8.16875 15.0494 8.10813 15.3844 8.30937C15.5518 8.40981 15.7405 8.46962 15.9352 8.48401C16.13 8.4984 16.3254 8.46697 16.5058 8.39223C16.6862 8.3175 16.8465 8.20154 16.974 8.05365C17.1015 7.90576 17.1926 7.73006 17.24 7.54063C17.335 7.16125 17.5819 7 17.8631 7H18.1369C18.4181 7 18.6656 7.16125 18.76 7.54063C18.8074 7.73006 18.8985 7.90576 19.026 8.05365C19.1535 8.20154 19.3138 8.3175 19.4942 8.39223C19.6746 8.46697 19.87 8.4984 20.0648 8.48401C20.2595 8.46962 20.4482 8.40981 20.6156 8.30937C20.9506 8.10875 21.2394 8.16937 21.4381 8.36812L21.6319 8.56188C21.8312 8.76062 21.8919 9.04938 21.6906 9.38437C21.5902 9.55183 21.5304 9.74049 21.516 9.93522C21.5016 10.13 21.533 10.3254 21.6078 10.5058C21.6825 10.6862 21.7985 10.8465 21.9464 10.974ZM16.6742 13.3258C17.0258 13.6775 17.5027 13.875 18 13.875C18.4973 13.875 18.9742 13.6775 19.3258 13.3258C19.6775 12.9742 19.875 12.4973 19.875 12C19.875 11.5027 19.6775 11.0258 19.3258 10.6742C18.9742 10.3225 18.4973 10.125 18 10.125C17.5027 10.125 17.0258 10.3225 16.6742 10.6742C16.3225 11.0258 16.125 11.5027 16.125 12C16.125 12.4973 16.3225 12.9742 16.6742 13.3258Z" fill="currentColor"/>
</svg>
