<svg width="24" height="24" viewBox="0 0 24 24" fill="none" xmlns="http://www.w3.org/2000/svg">
<path fill-rule="evenodd" clip-rule="evenodd" d="M3 4C3 2.34315 4.34315 1 6 1H18C19.6569 1 21 2.34315 21 4V5C21 5.55228 20.5523 6 20 6C19.4477 6 19 5.55228 19 5V4C19 3.44772 18.5523 3 18 3H6C5.44772 3 5 3.44772 5 4V20C5 20.5523 5.44772 21 6 21H18C18.5523 21 19 20.5523 19 20V19C19 18.4477 19.4477 18 20 18C20.5523 18 21 18.4477 21 19V20C21 21.6569 19.6569 23 18 23H6C4.34315 23 3 21.6569 3 20V4ZM15.144 12.6737C14.9548 12.863 14.8114 13.0932 14.7251 13.3466L14.1133 15.1413C13.745 16.2219 14.7778 17.2547 15.8584 16.8864L17.6532 16.2747C17.9065 16.1883 18.1367 16.045 18.326 15.8557L22.4888 11.693C23.1722 11.0095 23.1722 9.9015 22.4888 9.21809L21.7816 8.51098C21.0982 7.82756 19.9902 7.82756 19.3068 8.51098L15.144 12.6737ZM16.1449 13.8305C16.1572 13.7943 16.1777 13.7614 16.2047 13.7344L18.4238 11.5152L19.4845 12.5759L17.2654 14.795C17.2383 14.8221 17.2054 14.8425 17.1692 14.8549L15.6152 15.3846L16.1449 13.8305ZM20.5452 11.5152L21.4281 10.6323C21.5257 10.5347 21.5257 10.3764 21.4281 10.2787L20.721 9.57164C20.6234 9.47401 20.4651 9.47401 20.3674 9.57164L19.4845 10.4546L20.5452 11.5152ZM12 6C12.5523 6 13 5.55228 13 5C13 4.44772 12.5523 4 12 4C11.4477 4 11 4.44772 11 5C11 5.55228 11.4477 6 12 6Z" fill="currentColor"/>
</svg>
