<svg width="24" height="24" viewBox="0 0 24 24" fill="none" xmlns="http://www.w3.org/2000/svg">
<path fill-rule="evenodd" clip-rule="evenodd" d="M3 4C3 2.34315 4.34315 1 6 1H18C19.6569 1 21 2.34315 21 4V5C21 5.55228 20.5523 6 20 6C19.4477 6 19 5.55228 19 5V4C19 3.44772 18.5523 3 18 3H6C5.44772 3 5 3.44772 5 4V20C5 20.5523 5.44772 21 6 21H18C18.5523 21 19 20.5523 19 20V19C19 18.4477 19.4477 18 20 18C20.5523 18 21 18.4477 21 19V20C21 21.6569 19.6569 23 18 23H6C4.34315 23 3 21.6569 3 20V4ZM22.4594 11.24C22.2699 11.1926 22.0942 11.1015 21.9464 10.974C21.7985 10.8465 21.6825 10.6862 21.6078 10.5058C21.533 10.3254 21.5016 10.13 21.516 9.93522C21.5304 9.74049 21.5902 9.55183 21.6906 9.38437C21.8919 9.04938 21.8312 8.76062 21.6319 8.56188L21.4381 8.36812C21.2394 8.16938 20.9506 8.10875 20.6156 8.30937C20.4482 8.40981 20.2595 8.46962 20.0648 8.48401C19.87 8.4984 19.6746 8.46697 19.4942 8.39223C19.3138 8.3175 19.1535 8.20154 19.026 8.05365C18.8985 7.90576 18.8074 7.73006 18.76 7.54063C18.6656 7.16125 18.4181 7 18.1369 7H17.8631C17.5819 7 17.335 7.16125 17.24 7.54063C17.1926 7.73006 17.1015 7.90576 16.974 8.05365C16.8465 8.20154 16.6862 8.3175 16.5058 8.39223C16.3254 8.46697 16.13 8.4984 15.9352 8.48401C15.7405 8.46962 15.5518 8.40981 15.3844 8.30937C15.0494 8.10812 14.76 8.16875 14.5612 8.3675L14.3675 8.56125C14.1687 8.76 14.1081 9.04938 14.3094 9.38437C14.4098 9.55183 14.4696 9.74049 14.484 9.93522C14.4984 10.13 14.467 10.3254 14.3922 10.5058C14.3175 10.6862 14.2015 10.8465 14.0537 10.974C13.9058 11.1015 13.7301 11.1926 13.5406 11.24C13.1625 11.3344 13 11.5813 13 11.8631V12.1369C13 12.4181 13.1613 12.665 13.5406 12.76C13.7301 12.8074 13.9058 12.8985 14.0537 13.026C14.2015 13.1535 14.3175 13.3138 14.3922 13.4942C14.467 13.6746 14.4984 13.87 14.484 14.0648C14.4696 14.2595 14.4098 14.4482 14.3094 14.6156C14.1081 14.9506 14.1687 15.2394 14.3681 15.4381L14.5619 15.6319C14.7613 15.8313 15.0506 15.8913 15.3844 15.6906C15.5518 15.5902 15.7405 15.5304 15.9352 15.516C16.13 15.5016 16.3254 15.533 16.5058 15.6078C16.6862 15.6825 16.8465 15.7985 16.974 15.9463C17.1015 16.0942 17.1926 16.2699 17.24 16.4594C17.3344 16.8388 17.5819 17 17.8631 17H18.1369C18.4181 17 18.665 16.8388 18.76 16.4594C18.8074 16.2699 18.8985 16.0942 19.026 15.9463C19.1535 15.7985 19.3138 15.6825 19.4942 15.6078C19.6746 15.533 19.87 15.5016 20.0648 15.516C20.2595 15.5304 20.4482 15.5902 20.6156 15.6906C20.95 15.8913 21.2388 15.8313 21.4381 15.6319L21.6319 15.4381C21.8306 15.2394 21.8913 14.9506 21.6906 14.6156C21.5902 14.4482 21.5304 14.2595 21.516 14.0648C21.5016 13.87 21.533 13.6746 21.6078 13.4942C21.6825 13.3138 21.7985 13.1535 21.9464 13.026C22.0942 12.8985 22.2699 12.8074 22.4594 12.76C22.8388 12.6656 23 12.4181 23 12.1369V11.8631C23 11.5813 22.8375 11.3344 22.4594 11.24ZM18 13.875C17.5027 13.875 17.0258 13.6775 16.6742 13.3258C16.3225 12.9742 16.125 12.4973 16.125 12C16.125 11.5027 16.3225 11.0258 16.6742 10.6742C17.0258 10.3225 17.5027 10.125 18 10.125C18.4973 10.125 18.9742 10.3225 19.3258 10.6742C19.6775 11.0258 19.875 11.5027 19.875 12C19.875 12.4973 19.6775 12.9742 19.3258 13.3258C18.9742 13.6775 18.4973 13.875 18 13.875ZM12 6C12.5523 6 13 5.55228 13 5C13 4.44772 12.5523 4 12 4C11.4477 4 11 4.44772 11 5C11 5.55228 11.4477 6 12 6Z" fill="currentColor"/>
</svg>
