<svg width="24" height="24" viewBox="0 0 24 24" fill="none" xmlns="http://www.w3.org/2000/svg">
<path fill-rule="evenodd" clip-rule="evenodd" d="M6 1C4.34315 1 3 2.34315 3 4V20C3 21.6569 4.34315 23 6 23H18C19.6569 23 21 21.6569 21 20V16.0098L19.7399 17.27C19.3342 17.6756 18.841 17.9828 18.298 18.1678L16.5032 18.7795C15.3404 19.1759 14.2001 18.9112 13.3623 18.2654L12.7341 17.6371C12.0883 16.7993 11.8236 15.659 12.2199 14.4962L12.8316 12.7014C13.0167 12.1585 13.3238 11.6652 13.7294 11.2596L17.8922 7.09685C18.7406 6.24837 19.8946 5.89148 21 6.02618V4C21 2.34315 19.6569 1 18 1H6ZM12 6C12.5523 6 13 5.55228 13 5C13 4.44772 12.5523 4 12 4C11.4477 4 11 4.44772 11 5C11 5.55228 11.4477 6 12 6ZM14.7251 13.3466C14.8114 13.0932 14.9548 12.863 15.144 12.6737L19.3068 8.51098C19.9902 7.82756 21.0982 7.82756 21.7816 8.51098L22.4888 9.21809C23.1722 9.9015 23.1722 11.0095 22.4888 11.693L18.326 15.8557C18.1367 16.045 17.9065 16.1883 17.6532 16.2747L15.8584 16.8864C14.7778 17.2547 13.745 16.2219 14.1133 15.1413L14.7251 13.3466ZM16.2047 13.7344C16.1777 13.7614 16.1572 13.7943 16.1449 13.8305L15.6152 15.3846L17.1692 14.8549C17.2054 14.8425 17.2383 14.8221 17.2654 14.795L19.4845 12.5759L18.4238 11.5152L16.2047 13.7344ZM21.4281 10.6323L20.5452 11.5152L19.4845 10.4546L20.3674 9.57164C20.4651 9.47401 20.6234 9.47401 20.721 9.57164L21.4281 10.2787C21.5257 10.3764 21.5257 10.5347 21.4281 10.6323Z" fill="currentColor"/>
</svg>
