<svg width="24" height="24" viewBox="0 0 24 24" fill="none" xmlns="http://www.w3.org/2000/svg">
<path fill-rule="evenodd" clip-rule="evenodd" d="M14.455 2.64408C13.6827 2.20884 12.8086 1.98677 11.9221 2.00061C11.0357 2.01445 10.169 2.26372 9.41061 2.72286C8.65227 3.18201 8.02963 3.83452 7.6065 4.61354C7.18338 5.39255 6.97498 6.27006 7.00267 7.15614C7.03035 8.04222 7.29312 8.90501 7.76405 9.65609C8.06043 10.1288 8.43256 10.5465 8.86351 10.8937L6.8601 15.0048C5.8208 15.0766 5 15.9425 5 17C5 18.1046 5.89543 19 7 19C8.10457 19 9 18.1046 9 17C9 16.5855 8.87389 16.2004 8.65793 15.881L11.0451 10.9824C11.2822 10.4959 11.0892 9.90912 10.6097 9.65827C10.1384 9.41173 9.74108 9.0443 9.45852 8.59365C9.17596 8.143 9.0183 7.62533 9.00169 7.09368C8.98508 6.56204 9.11012 6.03553 9.36399 5.56812C9.61787 5.10071 9.99145 4.7092 10.4465 4.43372C10.9015 4.15823 11.4215 4.00867 11.9534 4.00037C12.4852 3.99206 13.0097 4.12531 13.4731 4.38645C13.9365 4.64759 14.3221 5.02724 14.5905 5.4865C14.8588 5.94575 15.0002 6.46809 15.0002 7C15.0002 7.55228 15.4479 8 16.0002 8C16.5525 8 17.0002 7.55228 17.0002 7C17.0002 6.11349 16.7645 5.24292 16.3173 4.47749C15.87 3.71207 15.2273 3.07932 14.455 2.64408ZM13.6689 8.10251C13.8782 7.78643 14 7.40744 14 7C14 5.89543 13.1046 5 12 5C10.8954 5 10 5.89543 10 7C10 8.06422 10.8312 8.93431 11.8798 8.99645L14.3149 13.8703C14.4335 14.1077 14.6416 14.2882 14.8934 14.3721C15.1452 14.456 15.4199 14.4363 15.6572 14.3175C16.1328 14.0793 16.6632 13.9719 17.194 14.0062C17.7248 14.0405 18.237 14.2154 18.678 14.5128C19.1189 14.8102 19.4729 15.2195 19.7036 15.6988C19.9343 16.1781 20.0335 16.7101 19.9909 17.2403C19.9483 17.7705 19.7655 18.2798 19.4612 18.7161C19.1569 19.1524 18.7421 19.4999 18.2593 19.7231C17.7765 19.9463 17.243 20.0371 16.7135 19.9862C16.184 19.9353 15.6776 19.7446 15.2461 19.4335C14.7981 19.1106 14.1731 19.2119 13.8502 19.6599C13.5272 20.1079 13.6286 20.7329 14.0766 21.0559C14.7957 21.5743 15.6397 21.8922 16.5222 21.977C17.4046 22.0619 18.2938 21.9105 19.0985 21.5385C19.9032 21.1666 20.5945 20.5873 21.1016 19.8602C21.6088 19.133 21.9134 18.2841 21.9844 17.4005C22.0555 16.5168 21.8902 15.6301 21.5057 14.8313C21.1212 14.0325 20.5312 13.3503 19.7963 12.8546C19.0613 12.3589 18.2077 12.0676 17.323 12.0104C16.7752 11.975 16.2277 12.0302 15.7019 12.1716L13.6689 8.10251ZM19 17C19 18.1046 18.1046 19 17 19C16.2616 19 15.6166 18.5998 15.2702 18.0045H11.8981C11.7886 18.5384 11.592 19.0531 11.3142 19.5274C10.8661 20.2923 10.2227 20.9243 9.44992 21.3587C8.67712 21.7931 7.80271 22.0142 6.91632 21.9994C6.02993 21.9845 5.16341 21.7343 4.40558 21.2743C3.64774 20.8143 3.02584 20.1611 2.60359 19.3816C2.18134 18.6021 1.97393 17.7243 2.00262 16.8382C2.03131 15.9522 2.29506 15.0897 2.76685 14.3391C3.23864 13.5886 3.9015 12.977 4.6875 12.567C5.17717 12.3115 5.78119 12.5014 6.03662 12.9911C6.29205 13.4807 6.10217 14.0848 5.6125 14.3402C5.1409 14.5862 4.74318 14.9532 4.46011 15.4035C4.17704 15.8538 4.01878 16.3713 4.00157 16.903C3.98436 17.4346 4.1088 17.9613 4.36215 18.429C4.6155 18.8967 4.98865 19.2886 5.44335 19.5646C5.89805 19.8406 6.41796 19.9907 6.94979 19.9996C7.48163 20.0085 8.00627 19.8759 8.46995 19.6152C8.93364 19.3546 9.31969 18.9754 9.58855 18.5164C9.85741 18.0575 9.99941 17.5353 10 17.0034C10.0006 16.4515 10.4481 16.0045 11 16.0045H15.265C15.6101 15.4042 16.2579 15 17 15C18.1046 15 19 15.8954 19 17Z" fill="currentColor"/>
</svg>
