<svg width="24" height="24" viewBox="0 0 24 24" fill="none" xmlns="http://www.w3.org/2000/svg">
<path fill-rule="evenodd" clip-rule="evenodd" d="M4.70711 3.29289C4.31658 2.90237 3.68342 2.90237 3.29289 3.29289C2.90237 3.68342 2.90237 4.31658 3.29289 4.70711L5.2952 6.70941C4.2085 7.30214 3.20362 8.03725 2.30777 8.89657C1.9092 9.27888 1.89602 9.9119 2.27833 10.3105C2.66064 10.709 3.29367 10.7222 3.69224 10.3399C4.60303 9.46627 5.64529 8.74241 6.7801 8.19432L9.07465 10.4889C8.90013 10.5489 8.72727 10.6143 8.55634 10.6851C7.63833 11.0653 6.79085 11.5945 6.04755 12.25C5.63333 12.6153 5.59368 13.2472 5.95899 13.6614C6.32429 14.0757 6.95621 14.1153 7.37042 13.75C7.94854 13.2401 8.6077 12.8286 9.3217 12.5328C9.76891 12.3476 10.233 12.2097 10.7064 12.1207L19.2929 20.7071C19.6834 21.0976 20.3166 21.0976 20.7071 20.7071C21.0976 20.3166 21.0976 19.6834 20.7071 19.2929L4.70711 3.29289ZM12.9652 10.0519L16.7609 13.8475C17.1685 14.1036 17.7132 14.0342 18.042 13.6614C18.4073 13.2472 18.3676 12.6153 17.9534 12.25C17.2101 11.5945 16.3626 11.0653 15.4446 10.6851C14.651 10.3564 13.816 10.1436 12.9652 10.0519ZM8.38729 5.4739L10.0695 7.15614C10.706 7.05246 11.3512 7 11.999 7C13.5749 7 15.1353 7.31039 16.5912 7.91344C17.9709 8.48493 19.2311 9.30864 20.3076 10.3416C20.7061 10.724 21.3391 10.711 21.7215 10.3125C22.1039 9.91399 22.0909 9.28096 21.6924 8.89857C20.4365 7.69342 18.9662 6.73242 17.3566 6.06569C15.658 5.36212 13.8375 5 11.999 5C10.777 5 9.5629 5.15999 8.38729 5.4739ZM12 19C13.1046 19 14 18.1046 14 17C14 15.8954 13.1046 15 12 15C10.8954 15 10 15.8954 10 17C10 18.1046 10.8954 19 12 19Z" fill="currentColor"/>
</svg>
