<svg width="24" height="24" viewBox="0 0 24 24" fill="none" xmlns="http://www.w3.org/2000/svg">
<path fill-rule="evenodd" clip-rule="evenodd" d="M12 19C13.1046 19 14 18.1046 14 17C14 15.8954 13.1046 15 12 15C10.8954 15 10 15.8954 10 17C10 18.1046 10.8954 19 12 19ZM8.55634 10.6851C9.64827 10.2328 10.8186 9.99999 12.0005 9.99999C13.1824 9.99999 14.3527 10.2328 15.4446 10.6851C16.3626 11.0653 17.2101 11.5945 17.9534 12.25C18.3676 12.6153 18.4073 13.2472 18.042 13.6614C17.6767 14.0756 17.0448 14.1153 16.6306 13.75C16.0524 13.2401 15.3933 12.8286 14.6793 12.5328C13.83 12.181 12.9197 12 12.0005 12C11.0812 12 10.171 12.181 9.3217 12.5328C8.6077 12.8286 7.94854 13.2401 7.37042 13.75C6.95621 14.1153 6.32429 14.0756 5.95899 13.6614C5.59368 13.2472 5.63333 12.6153 6.04755 12.25C6.79085 11.5945 7.63833 11.0653 8.55634 10.6851ZM6.64146 6.06567C8.34002 5.36211 10.1605 4.99999 11.999 4.99999C13.8375 4.99999 15.658 5.36211 17.3566 6.06567C18.9662 6.73241 20.4365 7.69341 21.6924 8.89855C22.0909 9.28095 22.1039 9.91398 21.7215 10.3125C21.3391 10.711 20.7061 10.724 20.3076 10.3416C19.2311 9.30863 17.9709 8.48492 16.5912 7.91343C15.1353 7.31038 13.5749 6.99999 11.999 6.99999C10.4232 6.99999 8.86274 7.31038 7.40683 7.91343C6.0279 8.4846 4.76831 9.30772 3.69224 10.3399C3.29367 10.7222 2.66064 10.709 2.27833 10.3105C1.89602 9.91189 1.9092 9.27886 2.30777 8.89655C3.56319 7.69234 5.03271 6.73204 6.64146 6.06567Z" fill="currentColor"/>
</svg>
