<svg width="24" height="24" viewBox="0 0 24 24" fill="none" xmlns="http://www.w3.org/2000/svg">
<path fill-rule="evenodd" clip-rule="evenodd" d="M10.5 13.5C10.5 14.3284 11.1716 15 12 15C12.8284 15 13.5 14.3284 13.5 13.5V5.5C13.5 4.67157 12.8284 4 12 4C11.1716 4 10.5 4.67157 10.5 5.5V13.5ZM10 18C10 16.8954 10.8954 16 12 16C13.1046 16 14 16.8954 14 18C14 19.1046 13.1046 20 12 20C10.8954 20 10 19.1046 10 18ZM9.5 13.4618V11.3543C9.18018 11.4468 8.86513 11.5572 8.55634 11.6851C7.63833 12.0653 6.79085 12.5945 6.04755 13.25C5.63333 13.6153 5.59368 14.2472 5.95899 14.6614C6.32429 15.0757 6.95621 15.1153 7.37042 14.75C7.94854 14.2402 8.6077 13.8286 9.3217 13.5329C9.38085 13.5084 9.44028 13.4847 9.5 13.4618ZM14.5 13.4615V11.3541C14.8202 11.4466 15.1355 11.5571 15.4446 11.6851C16.3626 12.0653 17.2101 12.5945 17.9534 13.25C18.3676 13.6153 18.4073 14.2472 18.042 14.6614C17.6767 15.0757 17.0448 15.1153 16.6306 14.75C16.0524 14.2402 15.3933 13.8286 14.6793 13.5329C14.6198 13.5082 14.56 13.4844 14.5 13.4615ZM14.5 6.2252V8.26352C15.2137 8.41561 15.9138 8.63285 16.5912 8.91345C17.9709 9.48494 19.2311 10.3087 20.3076 11.3416C20.7061 11.724 21.3391 11.711 21.7215 11.3125C22.1039 10.914 22.0909 10.281 21.6924 9.89857C20.4365 8.69343 18.9662 7.73243 17.3566 7.06569C16.4348 6.68386 15.477 6.4026 14.5 6.2252ZM9.5 6.22485V8.26311C8.7856 8.41522 8.08488 8.63259 7.40683 8.91345C6.0279 9.48462 4.76831 10.3077 3.69224 11.3399C3.29367 11.7222 2.66064 11.709 2.27833 11.3105C1.89602 10.9119 1.9092 10.2789 2.30777 9.89657C3.56319 8.69236 5.03271 7.73206 6.64146 7.06569C7.56389 6.68361 8.52229 6.40223 9.5 6.22485Z" fill="currentColor"/>
</svg>
