<svg width="24" height="24" viewBox="0 0 24 24" fill="none" xmlns="http://www.w3.org/2000/svg">
<path d="M18.9663 15.0524V15.051H20.6419C21.1162 15.051 21.5 14.6732 21.5 14.2073C21.5 13.7414 21.1162 13.3636 20.6419 13.3636H18.9661C18.9061 12.7735 18.7859 12.2087 18.6146 11.6692L18.6135 11.6666L20.816 10.5541C21.2057 10.3572 21.3825 9.90246 21.225 9.50038L20.3125 7.17084C20.1416 6.73539 19.643 6.52117 19.203 6.6869C18.7606 6.85413 18.5402 7.34268 18.7103 7.77738L19.3463 9.39956L17.9169 10.1215C17.428 9.2712 16.7854 8.53845 16.0315 7.94891C16.0295 7.94722 16.0269 7.94585 16.0248 7.94416C16.117 7.60036 16.1817 7.246 16.1817 6.87389C16.1817 6.30487 16.0633 5.76229 15.8538 5.26578C15.9607 4.90116 16.3678 3.92727 17.7306 3.67329C18.1956 3.58684 18.5016 3.14512 18.4135 2.68747C18.3256 2.22981 17.8847 1.92945 17.4105 2.01563C15.9993 2.27849 15.1829 3.02993 14.7173 3.7264C13.0943 2.31551 10.7644 2.29565 9.11615 3.68494C8.646 3.00025 7.83565 2.27314 6.45232 2.01548C5.98233 1.92659 5.53724 2.2297 5.44931 2.68732C5.36138 3.14495 5.66719 3.58654 6.13221 3.67315C7.38952 3.9074 7.83087 4.75 7.97652 5.16681C7.73889 5.69023 7.60084 6.26587 7.60084 6.8739C7.60084 7.24418 7.66481 7.59686 7.756 7.93913C7.75164 7.94249 7.74682 7.9454 7.74246 7.94892C7.04837 8.48829 6.43957 9.16228 5.96787 9.93741L4.47634 9.18418L5.11238 7.56184C5.28248 7.12729 5.06212 6.63877 4.61968 6.47136C4.17897 6.30504 3.68109 6.52017 3.51022 6.95546L2.59764 9.285C2.44015 9.68712 2.61694 10.1418 3.00664 10.3387L5.23505 11.4642C5.06464 11.9346 4.93656 12.4297 4.86824 12.9418H3.3585C2.88417 12.9418 2.50039 13.3196 2.50039 13.7855C2.50039 14.2514 2.88416 14.6292 3.3585 14.6292H4.77346V14.6306C4.81641 15.3645 4.94512 16.0817 5.15957 16.7482L5.16097 16.752L2.96634 17.8604C2.57666 18.0573 2.39986 18.5121 2.55734 18.9141L3.46992 21.2437C3.63908 21.6749 4.1321 21.8967 4.57938 21.7276C5.02181 21.5604 5.2422 21.0718 5.07209 20.6371L4.4362 19.0151L5.85411 18.2992L5.85473 18.3004C6.97025 20.224 8.85799 21.5738 11.0375 21.8522V14.5039C11.0375 14.0399 11.4151 13.6603 11.8956 13.6603C12.3677 13.6603 12.7537 14.0399 12.7537 14.5039V21.8522C14.8618 21.5742 16.6872 20.3028 17.8118 18.4759L19.3062 19.2306L18.6701 20.8528C18.5 21.2873 18.7204 21.7758 19.1628 21.9433C19.6105 22.1125 20.1034 21.8892 20.2723 21.4593L21.1848 19.1298C21.3423 18.7277 21.1656 18.2729 20.7759 18.076L18.5433 16.9484C18.544 16.9462 18.545 16.9444 18.5457 16.9422C18.7516 16.3432 18.8975 15.7103 18.9663 15.0524Z" fill="currentColor"/>
</svg>
