<svg width="24" height="24" viewBox="0 0 24 24" fill="none" xmlns="http://www.w3.org/2000/svg">
<path fill-rule="evenodd" clip-rule="evenodd" d="M2 6C2 3.79086 3.79086 2 6 2H18C20.2091 2 22 3.79086 22 6V18C22 20.2091 20.2091 22 18 22H6C3.79086 22 2 20.2091 2 18V6ZM6 4C4.89543 4 4 4.89543 4 6V18C4 19.1046 4.89543 20 6 20H18C19.1046 20 20 19.1046 20 18V6C20 4.89543 19.1046 4 18 4H6ZM7.99309 14.4926C8.38361 14.1021 9.01678 14.1021 9.4073 14.4926C10.8168 15.9021 13.0836 15.9021 14.4931 14.4926C14.8836 14.1021 15.5168 14.1021 15.9073 14.4926C16.2978 14.8831 16.2978 15.5163 15.9073 15.9068C13.7168 18.0973 10.1836 18.0973 7.99309 15.9068C7.60256 15.5163 7.60256 14.8831 7.99309 14.4926ZM13.5 8C13.5 7.44772 13.0523 7 12.5 7C11.9477 7 11.5 7.44772 11.5 8V11C11.5 11.2761 11.2761 11.5 11 11.5C10.4477 11.5 10 11.9477 10 12.5C10 13.0523 10.4477 13.5 11 13.5C12.3807 13.5 13.5 12.3807 13.5 11V8ZM7.5 7C8.05228 7 8.5 7.44772 8.5 8V10C8.5 10.5523 8.05228 11 7.5 11C6.94772 11 6.5 10.5523 6.5 10V8C6.5 7.44772 6.94772 7 7.5 7ZM17.5 8C17.5 7.44772 17.0523 7 16.5 7C15.9477 7 15.5 7.44772 15.5 8V10C15.5 10.5523 15.9477 11 16.5 11C17.0523 11 17.5 10.5523 17.5 10V8Z" fill="currentColor"/>
</svg>
