<svg width="24" height="24" viewBox="0 0 24 24" fill="none" xmlns="http://www.w3.org/2000/svg">
<path fill-rule="evenodd" clip-rule="evenodd" d="M7.49926 3.20465C8.82406 2.4383 10.3624 2 12 2C14.3042 2 16.5176 2.38932 18.297 3.45674C20.1174 4.54871 21.3964 6.29979 21.8725 8.81395C22.2041 10.5648 21.8395 12.4682 21.3685 14.1245C21.1295 14.965 20.8525 15.7754 20.6011 16.5017C20.579 16.5657 20.5571 16.6288 20.5355 16.6912C20.3072 17.3499 20.1099 17.9191 19.9714 18.4057C19.8202 18.9369 19.2671 19.2449 18.7359 19.0938C18.2047 18.9426 17.8966 18.3894 18.0478 17.8582C18.2028 17.3139 18.4193 16.6894 18.6421 16.0469C18.6651 15.9806 18.6881 15.9141 18.7112 15.8475C18.9623 15.1219 19.2226 14.3585 19.4447 13.5775C19.8959 11.991 20.149 10.4616 19.9074 9.18605C19.5323 7.20496 18.5755 5.95603 17.2682 5.17182C15.92 4.36305 14.1141 4 12 4C10.7233 4 9.5293 4.34086 8.50071 4.93586C8.02265 5.21241 7.41092 5.04904 7.13438 4.57098C6.85783 4.09292 7.0212 3.48119 7.49926 3.20465ZM5.57097 6.13439C6.04903 6.41094 6.21239 7.02267 5.93585 7.50073C5.34084 8.52931 4.99998 9.72333 4.99998 11C4.99998 12.7193 4.60483 14.3491 3.89946 15.8011C3.65813 16.2979 3.05978 16.5049 2.56302 16.2636C2.06625 16.0223 1.85918 15.4239 2.10051 14.9272C2.67645 13.7416 2.99998 12.41 2.99998 11C2.99998 9.36237 3.43828 7.82407 4.20464 6.49927C4.48118 6.02121 5.09291 5.85785 5.57097 6.13439ZM6.99989 11C6.99989 8.23858 9.23847 6 11.9999 6C14.7613 6 16.9999 8.23858 16.9999 11C16.9999 12.0625 16.9276 13.1092 16.7874 14.1353C16.7127 14.6825 16.2085 15.0655 15.6613 14.9908C15.1141 14.9161 14.7311 14.4119 14.8058 13.8647C14.9337 12.9279 14.9999 11.9716 14.9999 11C14.9999 9.34315 13.6567 8 11.9999 8C10.343 8 8.99989 9.34315 8.99989 11C8.99989 13.9356 8.15963 16.6658 6.70774 18.9738C6.69371 18.9961 6.68002 19.0185 6.66666 19.041C6.38465 19.5159 5.77109 19.6722 5.29623 19.3902C4.82138 19.1081 4.66505 18.4946 4.94707 18.0197C4.96913 17.9826 4.99172 17.9456 5.01483 17.9089C6.27193 15.9105 6.99989 13.5479 6.99989 11ZM11.9999 10C12.5521 10 12.9999 10.4477 12.9999 11C12.9999 14.7111 11.9349 18.1765 10.0935 21.1037C9.79943 21.5712 9.18207 21.7117 8.71459 21.4177C8.2471 21.1236 8.10653 20.5062 8.4006 20.0387C10.0472 17.4211 10.9999 14.3233 10.9999 11C10.9999 10.4477 11.4476 10 11.9999 10ZM15.443 16.0378C15.9744 16.1882 16.2833 16.7409 16.1329 17.2723C16.1105 17.3516 16.0882 17.4309 16.0659 17.5102C15.7151 18.7584 15.3644 20.0061 14.332 21.5547C14.0257 22.0142 13.4048 22.1384 12.9453 21.8321C12.4858 21.5257 12.3616 20.9048 12.6679 20.4453C13.5219 19.1644 13.7986 18.1823 14.1485 16.9402C14.1682 16.8702 14.1882 16.7994 14.2085 16.7277C14.3589 16.1963 14.9116 15.8874 15.443 16.0378Z" fill="currentColor"/>
</svg>
