<svg width="24" height="24" viewBox="0 0 24 24" fill="none" xmlns="http://www.w3.org/2000/svg">
<path d="M10.6123 14.0143C10.5807 14.1717 10.7069 14.4077 10.9907 14.5808C11.1283 14.6593 11.2597 14.7438 11.3888 14.8268C11.467 14.8771 11.5443 14.9268 11.6216 14.9743L11.5901 12.8813C10.6373 13.2414 10.6227 13.707 10.615 13.9522C10.6143 13.9748 10.6136 13.9956 10.6123 14.0143Z" fill="currentColor"/>
<path d="M13.2617 14.0143C13.2932 14.1717 13.1513 14.4077 12.8832 14.5808C12.7649 14.6498 12.6527 14.7248 12.5428 14.7983C12.477 14.8423 12.412 14.8858 12.347 14.9271L12.3786 12.9285C13.2324 13.2606 13.2496 13.712 13.2588 13.9543C13.2597 13.9761 13.2604 13.9962 13.2617 14.0143Z" fill="currentColor"/>
<path fill-rule="evenodd" clip-rule="evenodd" d="M13.3573 1.18872L20.9685 3.36452C21.6518 3.54402 22.1436 4.11232 22.0775 4.77253V7.34431C22.0775 10.3779 21.2614 13.3472 19.7361 15.9575C18.232 18.5937 16.0404 20.8872 13.2705 22.6249C12.8777 22.9064 12.393 23 11.9882 23C11.5634 23 11.0891 22.8817 10.712 22.6285C5.19979 19.1351 1.91675 13.4289 1.91675 7.34431V4.75028C1.91675 4.12596 2.37207 3.55215 3.03915 3.36574L10.6549 1.1886C11.5297 0.937107 12.4823 0.937119 13.3573 1.18872ZM13.5456 6.16166C14.0029 5.34335 14.3341 5.24892 14.7915 5.62661C14.8574 5.68102 14.9518 5.77301 15.0718 5.88997C15.7848 6.58492 17.4031 8.16222 19.3334 7.98711C19.3334 7.98711 18.8919 8.9943 17.6775 8.77396C17.6775 8.77396 17.0309 9.45063 15.9901 8.97855C15.9901 8.97855 15.4538 9.46639 14.5865 9.02576C14.5865 9.02576 13.9399 9.5136 13.2617 9.08872C13.2617 9.08872 12.8833 9.37197 12.4416 9.29325L12.4101 11.7954C12.4259 11.7797 12.4416 11.7797 12.4574 11.7797C12.4574 11.7797 13.2144 11.6223 14.0029 11.402C14.7599 11.1974 15.5958 10.8827 15.7219 10.7096C15.7219 10.7008 15.712 10.6969 15.7005 10.6924C15.6915 10.6889 15.6815 10.685 15.6746 10.6781C15.6115 10.6467 15.5011 10.6152 15.3592 10.5837C15.0754 10.5365 14.6968 10.505 14.3184 10.4893C13.636 10.4754 13.4578 10.4983 13.4146 10.5039C13.4119 10.5042 13.4079 10.5047 13.4079 10.5047L13.4037 10.505C13.4037 10.4983 13.3844 10.4966 13.3527 10.4938C13.2358 10.4835 12.951 10.4583 12.8517 10.1116V10.0801C12.8812 9.78596 13.0897 9.75298 13.2714 9.72424C13.2841 9.72223 13.2967 9.72024 13.309 9.71819L13.3415 9.71494C13.4578 9.7033 13.4973 9.69934 13.5369 9.69862C13.5573 9.69825 13.5776 9.69873 13.6084 9.69947C13.6574 9.70063 13.733 9.70243 13.8768 9.70243C13.994 9.71307 14.1527 9.71697 14.3367 9.72149C15.2419 9.74373 16.7608 9.78105 16.9836 10.7096V10.7883C16.889 11.764 14.8545 12.1888 13.3879 12.4879C13.8768 12.8183 14.1449 13.2747 14.2553 13.8412C14.3026 14.4549 13.8295 15.0372 12.694 15.6824C13.5456 16.2804 14.1133 16.8469 14.066 17.5393C13.9872 18.0902 13.4983 18.8455 12.5205 19.3176C12.5205 19.3176 13.1986 18.279 13.2459 17.7124C13.2775 17.3977 13.104 16.9256 12.347 16.3591L12.3155 18.3892C12.3155 18.5622 12.1736 18.7039 12.0001 18.7039C11.8266 18.7039 11.6847 18.5622 11.6847 18.3892L11.6531 16.3119C10.8173 16.9099 10.628 17.3977 10.6754 17.7282C10.7227 18.2947 11.4008 19.3333 11.4008 19.3333C10.4388 18.8612 9.9341 18.1216 9.85528 17.5551C9.80798 16.8784 10.3757 16.3119 11.2273 15.6982C10.1076 15.0529 9.61872 14.4707 9.66602 13.857C9.76062 13.2904 10.0288 12.8498 10.5334 12.5036C9.05099 12.2046 7.03234 11.7797 6.93771 10.804V10.7253C7.1647 9.76603 8.73691 9.74301 9.63492 9.72987C9.79757 9.72749 9.93814 9.72543 10.0445 9.71819C10.158 9.71383 10.228 9.70947 10.2765 9.70644C10.3235 9.70352 10.3505 9.70184 10.3774 9.70262C10.4135 9.70366 10.4494 9.70915 10.5338 9.722C10.5562 9.72542 10.5822 9.72938 10.6123 9.73389C10.6337 9.73923 10.6558 9.74418 10.6781 9.74918C10.8525 9.7883 11.0416 9.83073 11.0696 10.0959C11.0854 10.1116 11.0696 10.1273 11.0696 10.1273C10.9827 10.4742 10.6905 10.4993 10.5701 10.5096C10.5376 10.5123 10.5176 10.514 10.5176 10.5207C10.5019 10.505 10.3599 10.4735 9.60293 10.505C9.22447 10.5207 8.84594 10.5365 8.56207 10.5995C8.4359 10.6152 8.30978 10.6624 8.24669 10.6939C8.23881 10.7017 8.23094 10.7056 8.22306 10.7096C8.21515 10.7135 8.20724 10.7174 8.19933 10.7253C8.32551 10.8984 9.16138 11.2132 9.91837 11.4178C10.7069 11.638 11.4639 11.7954 11.4639 11.7954C11.4876 11.8033 11.5113 11.8073 11.535 11.8112C11.5586 11.8151 11.5822 11.819 11.6058 11.8269L11.5743 9.29325C11.1485 9.37197 10.7542 9.08872 10.7542 9.08872C10.0761 9.5136 9.42946 9.02576 9.42946 9.02576C8.56207 9.46639 8.01012 8.97855 8.01012 8.97855C6.96926 9.45063 6.32266 8.77396 6.32266 8.77396C5.10832 8.9943 4.66675 7.98711 4.66675 7.98711C6.56259 8.16031 8.16456 6.61919 8.89855 5.91307C9.03157 5.7851 9.13609 5.68456 9.20868 5.62661C9.66602 5.24892 9.99719 5.32761 10.4545 6.16166C10.7542 6.71242 11.2431 6.77538 11.5428 6.75963V6.64951C11.1958 6.47638 10.9434 6.13019 10.9434 5.72103C10.9434 5.13877 11.4166 4.66667 12.0001 4.66667C12.5836 4.66667 13.0567 5.13877 13.0567 5.72103C13.0567 6.13019 12.8044 6.47638 12.4574 6.64951V6.75963C12.7571 6.77538 13.2459 6.71242 13.5456 6.16166Z" fill="currentColor"/>
</svg>
