<svg width="24" height="24" viewBox="0 0 24 24" fill="none" xmlns="http://www.w3.org/2000/svg">
<path fill-rule="evenodd" clip-rule="evenodd" d="M15.0002 2C11.1342 2 8.00019 5.13401 8.00019 9C8.00019 9.31836 8.02151 9.63227 8.06292 9.94028C8.09317 10.1653 8.11193 10.3061 8.12184 10.4087C8.1236 10.427 8.12485 10.442 8.12574 10.4541L8.11684 10.464C8.06813 10.5175 7.99814 10.5878 7.87222 10.7138L2.76171 15.8243L2.72556 15.8603C2.59092 15.9942 2.42136 16.1629 2.29491 16.3692C2.18525 16.5482 2.10444 16.7432 2.05545 16.9473C1.99895 17.1827 1.99959 17.4218 2.0001 17.6117L2.00019 17.6627L2.00019 19.4319C2.00016 19.6843 2.00013 19.9301 2.01714 20.1382C2.03581 20.3668 2.07988 20.6366 2.21818 20.908C2.40993 21.2843 2.71589 21.5903 3.09221 21.782C3.36363 21.9203 3.63337 21.9644 3.86196 21.9831C4.07008 22.0001 4.31582 22 4.56816 22L6.33745 22L6.38849 22.0001C6.5784 22.0006 6.81754 22.0012 7.05287 21.9447C7.25694 21.8957 7.45203 21.8149 7.63097 21.7053C7.83733 21.5788 8.00597 21.4093 8.1399 21.2746L8.17593 21.2385L13.2864 16.128C13.4124 16.0021 13.4827 15.9321 13.5362 15.8833L13.5461 15.8745C13.5582 15.8753 13.5732 15.8766 13.5915 15.8784C13.6941 15.8883 13.8349 15.907 14.0599 15.9373C14.3679 15.9787 14.6818 16 15.0002 16C18.8662 16 22.0002 12.866 22.0002 9C22.0002 5.13401 18.8662 2 15.0002 2ZM10.0002 9C10.0002 6.23858 12.2388 4 15.0002 4C17.7616 4 20.0002 6.23858 20.0002 9C20.0002 11.7614 17.7616 14 15.0002 14C14.7712 14 14.5463 13.9847 14.3264 13.9551L14.3086 13.9527C14.1068 13.9256 13.9282 13.9016 13.7837 13.8876C13.6447 13.8742 13.4564 13.8607 13.263 13.8884C12.9983 13.9262 12.8038 13.9919 12.5704 14.1224C12.3219 14.2613 12.1039 14.4807 11.9246 14.6611L11.8722 14.7138L6.76171 19.8243C6.66908 19.9169 6.62268 19.963 6.58757 19.995L6.58491 19.9974L6.58132 19.9976C6.53383 19.9998 6.46845 20 6.33745 20H4.60019C4.30366 20 4.14141 19.9992 4.02483 19.9897L4.01164 19.9885L4.01049 19.9754C4.00097 19.8588 4.00019 19.6965 4.00019 19.4V17.6627C4.00019 17.5317 4.00043 17.4664 4.0026 17.4189L4.00277 17.4153L4.00519 17.4126C4.03723 17.3775 4.0833 17.3311 4.17593 17.2385L9.28643 12.128L9.33904 12.0756C9.51945 11.8963 9.73887 11.6783 9.87778 11.4298C10.0082 11.1964 10.074 11.0019 10.1118 10.7372C10.1395 10.5438 10.126 10.3555 10.1126 10.2165C10.0986 10.072 10.0746 9.89344 10.0475 9.6916L10.0451 9.67379C10.0155 9.45388 10.0002 9.22899 10.0002 9ZM15 11C16.1046 11 17 10.1046 17 9C17 7.89543 16.1046 7 15 7C13.8954 7 13 7.89543 13 9C13 10.1046 13.8954 11 15 11Z" fill="currentColor"/>
</svg>
