<svg width="24" height="24" viewBox="0 0 24 24" fill="none" xmlns="http://www.w3.org/2000/svg">
<path fill-rule="evenodd" clip-rule="evenodd" d="M5 4C3.34315 4 2 5.34315 2 7V17C2 18.6569 3.34315 20 5 20H19C20.6569 20 22 18.6569 22 17V7C22 5.34315 20.6569 4 19 4H5ZM8 8C8.55228 8 9 8.44772 9 9V15C9 15.5523 8.55228 16 8 16C7.44772 16 7 15.5523 7 15V9C7 8.44772 7.44772 8 8 8ZM12 8H14C15.6569 8 17 9.34315 17 11C17 12.6569 15.6569 14 14 14H13V15C13 15.5523 12.5523 16 12 16C11.4477 16 11 15.5523 11 15V9C11 8.44772 11.4477 8 12 8ZM13 12V10H14C14.5523 10 15 10.4477 15 11C15 11.5523 14.5523 12 14 12H13Z" fill="currentColor"/>
</svg>
