<svg width="24" height="24" viewBox="0 0 24 24" fill="none" xmlns="http://www.w3.org/2000/svg">
<path fill-rule="evenodd" clip-rule="evenodd" d="M4 10C4 9.44772 4.44772 9 5 9H6.85714H17.1429H19C19.5523 9 20 9.44772 20 10V10.5C20 11.0523 20.4477 11.5 21 11.5C21.5523 11.5 22 11.0523 22 10.5V10C22 8.34315 20.6569 7 19 7H17.1429H6.85714H5C3.34315 7 2 8.34315 2 10V15C2 16.6569 3.34315 18 5 18H12C12.5523 18 13 17.5523 13 17C13 16.4477 12.5523 16 12 16H5C4.44772 16 4 15.5523 4 15V10ZM7.5 14C8.32843 14 9 13.3284 9 12.5C9 11.6716 8.32843 11 7.5 11C6.67157 11 6 11.6716 6 12.5C6 13.3284 6.67157 14 7.5 14ZM13.5 12.5C13.5 13.3284 12.8284 14 12 14C11.1716 14 10.5 13.3284 10.5 12.5C10.5 11.6716 11.1716 11 12 11C12.8284 11 13.5 11.6716 13.5 12.5ZM18 14C17.4477 14 17 14.4477 17 15V16H19V15C19 14.4477 18.5523 14 18 14ZM15 15V16C14.4477 16 14 16.4477 14 17V21C14 21.5523 14.4477 22 15 22H21C21.5523 22 22 21.5523 22 21V17C22 16.4477 21.5523 16 21 16V15C21 13.3431 19.6569 12 18 12C16.3431 12 15 13.3431 15 15Z" fill="currentColor"/>
</svg>
