<svg width="24" height="24" viewBox="0 0 24 24" fill="none" xmlns="http://www.w3.org/2000/svg">
<path fill-rule="evenodd" clip-rule="evenodd" d="M4 10C4 9.44771 4.44772 9 5 9H6.85714H17.1429H19C19.5523 9 20 9.44772 20 10V15C20 15.5523 19.5523 16 19 16H5C4.44772 16 4 15.5523 4 15V10ZM5 7C3.34315 7 2 8.34315 2 10V15C2 16.6569 3.34315 18 5 18H19C20.6569 18 22 16.6569 22 15V10C22 8.34315 20.6569 7 19 7H17.1429H6.85714H5ZM7.5 14C8.32843 14 9 13.3284 9 12.5C9 11.6716 8.32843 11 7.5 11C6.67157 11 6 11.6716 6 12.5C6 13.3284 6.67157 14 7.5 14ZM13.5 12.5C13.5 13.3284 12.8284 14 12 14C11.1716 14 10.5 13.3284 10.5 12.5C10.5 11.6716 11.1716 11 12 11C12.8284 11 13.5 11.6716 13.5 12.5ZM16.5 14C17.3284 14 18 13.3284 18 12.5C18 11.6716 17.3284 11 16.5 11C15.6716 11 15 11.6716 15 12.5C15 13.3284 15.6716 14 16.5 14Z" fill="currentColor"/>
</svg>
