<svg width="24" height="24" viewBox="0 0 24 24" fill="none" xmlns="http://www.w3.org/2000/svg">
<path fill-rule="evenodd" clip-rule="evenodd" d="M6 2C3.79086 2 2 3.79086 2 6V8C2 8.55228 2.44772 9 3 9C3.55228 9 4 8.55228 4 8V6C4 4.89543 4.89543 4 6 4H8C8.55228 4 9 3.55228 9 3C9 2.44772 8.55228 2 8 2H6ZM16 2C15.4477 2 15 2.44772 15 3C15 3.55228 15.4477 4 16 4H18C19.1046 4 20 4.89543 20 6V8C20 8.55228 20.4477 9 21 9C21.5523 9 22 8.55228 22 8V6C22 3.79086 20.2091 2 18 2H16ZM4 16C4 15.4477 3.55228 15 3 15C2.44772 15 2 15.4477 2 16V18C2 20.2091 3.79086 22 6 22H8C8.55228 22 9 21.5523 9 21C9 20.4477 8.55228 20 8 20H6C4.89543 20 4 19.1046 4 18V16ZM22 16C22 15.4477 21.5523 15 21 15C20.4477 15 20 15.4477 20 16V18C20 19.1046 19.1046 20 18 20H16C15.4477 20 15 20.4477 15 21C15 21.5523 15.4477 22 16 22H18C20.2091 22 22 20.2091 22 18V16ZM3 11C2.44772 11 2 11.4477 2 12C2 12.5523 2.44772 13 3 13H6V16C6 17.1046 6.89543 18 8 18H16C17.1046 18 18 17.1046 18 16V13H21C21.5523 13 22 12.5523 22 12C22 11.4477 21.5523 11 21 11H3ZM17.5 10H6.5C6.22386 10 6 9.77614 6 9.5V8C6 6.89543 6.89543 6 8 6H16C17.1046 6 18 6.89543 18 8V9.5C18 9.77614 17.7761 10 17.5 10Z" fill="currentColor"/>
</svg>
