<svg width="24" height="24" viewBox="0 0 24 24" fill="none" xmlns="http://www.w3.org/2000/svg">
<path fill-rule="evenodd" clip-rule="evenodd" d="M8.05259 4.36215C8.94323 4.00086 9.84897 3.64969 10.6026 3.39038C10.9802 3.26047 11.3075 3.15784 11.5689 3.08883C11.6995 3.05437 11.8049 3.03064 11.8862 3.016C11.9586 3.00296 11.9935 3.00054 12 3.0001L12.001 3.0001C12.0076 3.00056 12.0446 3.00314 12.1217 3.01728C12.2073 3.03298 12.3181 3.05834 12.4549 3.09493C12.7288 3.16821 13.0712 3.27682 13.4648 3.41345C14.2505 3.68619 15.1915 4.05357 16.1048 4.42597C17.0156 4.79741 17.888 5.16942 18.5335 5.44891C18.7067 5.52392 18.8635 5.5922 19 5.65193V12C19 12.8424 18.7715 13.7089 18.3654 14.5758C18.1311 15.0759 18.3467 15.6713 18.8468 15.9056C19.3469 16.1398 19.9423 15.9243 20.1766 15.4242C20.6742 14.3617 21 13.2042 21 12V5.00005C21 4.60559 20.7677 4.24773 20.4075 4.08681L20.3301 4.05235C20.2798 4.03004 20.2063 3.99745 20.1124 3.95605C19.9246 3.87327 19.6553 3.7552 19.3282 3.61359C18.6747 3.33058 17.7883 2.95259 16.86 2.57403C15.934 2.19643 14.9554 1.81381 14.1207 1.52405C13.7041 1.37943 13.3111 1.25366 12.9717 1.16288C12.6593 1.0793 12.3034 1 12.0004 1C11.7047 1 11.3603 1.07539 11.0585 1.15505C10.7312 1.24145 10.353 1.36121 9.95194 1.49919C9.14845 1.77565 8.20453 2.14222 7.30079 2.50883C6.78901 2.71643 6.54243 3.29961 6.75003 3.81139C6.95764 4.32317 7.54081 4.56975 8.05259 4.36215ZM3.00335 4.41756L2.29289 3.70711C1.90237 3.31658 1.90237 2.68342 2.29289 2.29289C2.68342 1.90237 3.31658 1.90237 3.70711 2.29289L21.7071 20.2929C22.0976 20.6834 22.0976 21.3166 21.7071 21.7071C21.3166 22.0976 20.6834 22.0976 20.2929 21.7071L17.6428 19.057C16.5885 20.1914 15.4485 21.1398 14.4914 21.811C14.0095 22.149 13.5607 22.426 13.1809 22.6235C12.9918 22.7218 12.8058 22.8077 12.6318 22.8714C12.4816 22.9265 12.2499 23 12.0004 23C11.7696 23 11.5576 22.9374 11.4181 22.889C11.2592 22.8338 11.0918 22.76 10.9242 22.6765C10.5875 22.509 10.1937 22.275 9.77075 21.9906C8.92297 21.4207 7.90513 20.6131 6.92168 19.6391C5.0015 17.7374 3 14.9895 3 12V4.5C3 4.47224 3.00113 4.44475 3.00335 4.41756ZM5 6.41421V12C5 14.1534 6.49892 16.4055 8.32905 18.2181C9.22076 19.1012 10.1406 19.8293 10.8866 20.3308C11.2605 20.5822 11.5776 20.7678 11.8152 20.886C11.8901 20.9233 11.9517 20.9511 12.0004 20.9713C12.0656 20.9443 12.1516 20.9045 12.2585 20.8489C12.5402 20.7025 12.9123 20.4757 13.343 20.1736C14.2034 19.5701 15.2448 18.7034 16.2009 17.6706C16.2098 17.6609 16.2189 17.6515 16.2281 17.6423L5 6.41421Z" fill="currentColor"/>
</svg>
