<svg width="24" height="24" viewBox="0 0 24 24" fill="none" xmlns="http://www.w3.org/2000/svg">
<path fill-rule="evenodd" clip-rule="evenodd" d="M3 12V5.00005C3 4.60557 3.23235 4.2477 3.59252 4.08679L3.66996 4.05233C3.72022 4.03002 3.79379 3.99743 3.88772 3.95603C4.07554 3.87325 4.34487 3.75518 4.67194 3.61357C5.32559 3.33057 6.21207 2.95258 7.1405 2.57402C8.06657 2.19642 9.04522 1.8138 9.88004 1.52404C10.2967 1.37942 10.6897 1.25366 11.0291 1.16287C11.3415 1.0793 11.6975 1 12.0004 1C12.3034 1 12.6593 1.0793 12.9717 1.16288C13.3111 1.25366 13.7041 1.37943 14.1207 1.52405C14.9554 1.81381 15.934 2.19643 16.86 2.57403C17.7883 2.95259 18.6747 3.33058 19.3282 3.61359C19.6553 3.7552 19.9246 3.87327 20.1124 3.95605C20.2063 3.99745 20.2798 4.03004 20.3301 4.05235L20.408 4.087C20.7681 4.24793 21 4.60635 21 5.00082V12C21 14.9894 18.9988 17.7373 17.0788 19.639C16.0954 20.6131 15.0777 21.4207 14.23 21.9906C13.8071 22.2749 13.4133 22.509 13.0767 22.6765C12.909 22.76 12.7417 22.8338 12.5827 22.889C12.4432 22.9374 12.2313 23 12.0004 23C11.7696 23 11.5576 22.9374 11.4181 22.889C11.2592 22.8338 11.0918 22.76 10.9242 22.6765C10.5875 22.509 10.1937 22.275 9.77075 21.9906C8.92297 21.4207 7.90513 20.6131 6.92168 19.6391C5.0015 17.7374 3 14.9895 3 12ZM5 12V5.65197C5.13657 5.59223 5.29332 5.52395 5.46658 5.44893C6.11212 5.16943 6.98467 4.79742 7.89563 4.42598C8.80896 4.05358 9.75005 3.6862 10.5358 3.41346C10.9295 3.27683 11.272 3.16822 11.5459 3.09494C11.6827 3.05835 11.7935 3.03299 11.8791 3.01729C11.9562 3.00314 11.9932 3.00056 11.9999 3.0001H12.001C12.0076 3.00056 12.0446 3.00314 12.1217 3.01728C12.2073 3.03298 12.3181 3.05834 12.4549 3.09493C12.7288 3.16821 13.0712 3.27682 13.4648 3.41345C14.2505 3.68619 15.1915 4.05357 16.1048 4.42597C17.0156 4.79741 17.888 5.16942 18.5335 5.44891C18.7067 5.52392 18.8635 5.5922 19 5.65193V12C19 14.1535 17.5012 16.4056 15.6713 18.2181C14.7797 19.1012 13.86 19.8293 13.1141 20.3308C12.7402 20.5822 12.4231 20.7678 12.1856 20.886C12.1107 20.9233 12.0491 20.9511 12.0004 20.9713C11.9517 20.9511 11.8901 20.9233 11.8152 20.886C11.5776 20.7678 11.2605 20.5822 10.8866 20.3308C10.1406 19.8293 9.22076 19.1012 8.32905 18.2181C6.49892 16.4055 5 14.1534 5 12ZM13.7071 8.70711C14.0976 8.31658 14.0976 7.68342 13.7071 7.29289C13.3166 6.90237 12.6834 6.90237 12.2929 7.29289L9.29291 10.2929C9.06561 10.5202 8.96144 10.8429 9.01292 11.1602C9.06441 11.4775 9.26529 11.7507 9.5528 11.8944L12.3118 13.274L10.2929 15.2929C9.90238 15.6834 9.90238 16.3166 10.2929 16.7071C10.6834 17.0976 11.3166 17.0976 11.7071 16.7071L14.7071 13.7071C14.9344 13.4798 15.0386 13.1571 14.9871 12.8398C14.9356 12.5225 14.7347 12.2493 14.4472 12.1056L11.6882 10.726L13.7071 8.70711Z" fill="currentColor"/>
</svg>
