<svg width="24" height="24" viewBox="0 0 24 24" fill="none" xmlns="http://www.w3.org/2000/svg">
<path fill-rule="evenodd" clip-rule="evenodd" d="M20.408 4.087C20.7681 4.24793 21 4.60553 21 5V12C21 13.2042 20.6742 14.3617 20.1766 15.4242C20.0384 15.7192 19.7652 15.9284 19.4444 15.9848C19.1236 16.0413 18.7954 15.938 18.5648 15.708L6.9705 4.1435C6.73295 3.90656 6.63005 3.56629 6.6965 3.23743C6.76295 2.90857 6.98989 2.63494 7.30079 2.50883C8.20453 2.14222 9.14845 1.77565 9.95194 1.49919C10.353 1.36121 10.7312 1.24145 11.0585 1.15505C11.3603 1.07539 11.7047 1 12.0004 1C12.3034 1 12.6593 1.0793 12.9717 1.16288C13.3111 1.25366 13.7041 1.37943 14.1207 1.52405C14.9554 1.81381 15.934 2.19643 16.86 2.57403C17.7883 2.95259 18.6747 3.33058 19.3282 3.61359C19.6553 3.7552 19.9246 3.87327 20.1124 3.95605C20.2063 3.99745 20.2798 4.03004 20.3301 4.05235L20.408 4.087ZM3.00335 4.41756C3.00113 4.44475 3 4.47224 3 4.5V12C3 14.9894 5.0015 17.7374 6.92168 19.6391C7.90513 20.6131 8.92297 21.4207 9.77075 21.9906C10.1937 22.275 10.5875 22.509 10.9242 22.6765C11.0918 22.76 11.2592 22.8338 11.4181 22.889C11.5576 22.9374 11.7696 23 12.0004 23C12.2499 23 12.4816 22.9265 12.6318 22.8714C12.8058 22.8077 12.9918 22.7218 13.1809 22.6235C13.5607 22.426 14.0095 22.149 14.4914 21.811C15.4485 21.1398 16.5885 20.1914 17.6428 19.057L20.2929 21.7071C20.6834 22.0976 21.3166 22.0976 21.7071 21.7071C22.0976 21.3166 22.0976 20.6834 21.7071 20.2929L3.70711 2.29289C3.31658 1.90237 2.68342 1.90237 2.29289 2.29289C1.90237 2.68342 1.90237 3.31658 2.29289 3.70711L3.00335 4.41756Z" fill="currentColor"/>
</svg>
