<svg width="24" height="24" viewBox="0 0 24 24" fill="none" xmlns="http://www.w3.org/2000/svg">
<path fill-rule="evenodd" clip-rule="evenodd" d="M4 5L3 5.00005V12C3 14.9895 5.0015 17.7374 6.92168 19.6391C7.90513 20.6131 8.92297 21.4207 9.77075 21.9906C10.1937 22.275 10.5875 22.509 10.9242 22.6765C11.0918 22.76 11.2592 22.8338 11.4181 22.889C11.5576 22.9374 11.7696 23 12.0004 23C12.2313 23 12.4432 22.9374 12.5827 22.889C12.7417 22.8338 12.909 22.76 13.0767 22.6765C13.4133 22.509 13.8071 22.2749 14.23 21.9906C15.0777 21.4207 16.0954 20.6131 17.0788 19.639C18.9988 17.7373 21 14.9894 21 12V5.00082C21 4.60635 20.7681 4.24793 20.408 4.087L20 5C20.408 4.087 20.408 4.08704 20.408 4.087L20.3301 4.05235C20.2798 4.03004 20.2063 3.99745 20.1124 3.95605C19.9246 3.87327 19.6553 3.7552 19.3282 3.61359C18.6747 3.33058 17.7883 2.95259 16.86 2.57403C15.934 2.19643 14.9554 1.81381 14.1207 1.52405C13.7041 1.37943 13.3111 1.25366 12.9717 1.16288C12.6593 1.0793 12.3034 1 12.0004 1C11.6975 1 11.3415 1.0793 11.0291 1.16287C10.6897 1.25366 10.2967 1.37942 9.88004 1.52404C9.04522 1.8138 8.06657 2.19642 7.1405 2.57402C6.21207 2.95258 5.32559 3.33057 4.67194 3.61357C4.34487 3.75518 4.07554 3.87325 3.88772 3.95603C3.79379 3.99743 3.72022 4.03002 3.66996 4.05233L3.59252 4.08679C3.59243 4.08683 3.59208 4.08698 4 5ZM5 5.65197V12C5 14.1534 6.49892 16.4055 8.32905 18.2181C9.22076 19.1012 10.1406 19.8293 10.8866 20.3308C11.2605 20.5822 11.5776 20.7678 11.8152 20.886C11.8901 20.9233 11.9517 20.9511 12.0004 20.9713C12.0491 20.9511 12.1107 20.9233 12.1856 20.886C12.4231 20.7678 12.7402 20.5822 13.1141 20.3308C13.86 19.8293 14.7797 19.1012 15.6713 18.2181C17.5012 16.4056 19 14.1535 19 12V5.65193C18.8635 5.5922 18.7067 5.52392 18.5335 5.44891C17.888 5.16942 17.0156 4.79741 16.1048 4.42597C15.1915 4.05357 14.2505 3.68619 13.4648 3.41345C13.0712 3.27682 12.7288 3.16821 12.4549 3.09493C12.3181 3.05834 12.2073 3.03298 12.1217 3.01728C12.0446 3.00314 12.0076 3.00056 12.001 3.0001C11.9997 3.00001 12.0001 3.0001 12.001 3.0001C12.0018 3.0001 12.0011 3.00001 11.9999 3.0001C11.9932 3.00056 11.9562 3.00314 11.8791 3.01729C11.7935 3.03299 11.6827 3.05835 11.5459 3.09494C11.272 3.16822 10.9295 3.27683 10.5358 3.41346C9.75005 3.6862 8.80896 4.05358 7.89563 4.42598C6.98467 4.79742 6.11212 5.16943 5.46658 5.44893C5.29332 5.52395 5.13657 5.59223 5 5.65197ZM4 5L3.59252 4.08679C3.23235 4.2477 3 4.60557 3 5.00005L4 5Z" fill="currentColor"/>
</svg>
