<svg width="24" height="24" viewBox="0 0 24 24" fill="none" xmlns="http://www.w3.org/2000/svg">
<path d="M3 5.00005C3 4.60557 3.23205 4.24784 3.59222 4.08692L3.66996 4.05233C3.72022 4.03002 3.79379 3.99743 3.88772 3.95603C4.07554 3.87325 4.34487 3.75518 4.67194 3.61357C5.32559 3.33057 6.21207 2.95258 7.1405 2.57402C8.06657 2.19642 9.04522 1.8138 9.88004 1.52404C10.2967 1.37942 10.6897 1.25366 11.0291 1.16287C11.3415 1.0793 11.6975 1 12.0004 1C12.3034 1 12.6593 1.0793 12.9717 1.16288C13.3111 1.25366 13.7041 1.37943 14.1207 1.52405C14.9554 1.81381 15.934 2.19643 16.86 2.57403C17.7883 2.95259 18.6747 3.33058 19.3282 3.61359C19.6553 3.7552 19.9246 3.87327 20.1124 3.95605C20.2063 3.99745 20.2798 4.03004 20.3301 4.05235L20.4075 4.08681C20.7677 4.24773 21 4.60559 21 5.00005V10.9996C20.6923 10.7685 20.357 10.572 20 10.416C19.9776 10.4063 19.9551 10.3966 19.9325 10.3872C19.6352 10.2624 19.3233 10.1656 19 10.1C18.6769 10.0344 18.3425 10 18 10C15.3194 10 13.1316 12.1094 13.0057 14.7588C12.3886 15.3083 12 16.1087 12 17V21C12 21.3407 12.0568 21.6682 12.1615 21.9735C12.2733 22.2996 12.4397 22.6003 12.6498 22.8648C12.6273 22.8732 12.6049 22.8813 12.5827 22.889C12.4432 22.9374 12.2313 23 12.0004 23C11.7696 23 11.5576 22.9374 11.4181 22.889C11.2592 22.8338 11.0918 22.76 10.9242 22.6765C10.5875 22.509 10.1937 22.275 9.77075 21.9906C8.92297 21.4207 7.90513 20.6131 6.92168 19.6391C5.0015 17.7374 3 14.9895 3 12V5.00005Z" fill="currentColor"/>
<path fill-rule="evenodd" clip-rule="evenodd" d="M15 16V15C15 13.3431 16.3431 12 18 12C19.6569 12 21 13.3431 21 15V16C21.5523 16 22 16.4477 22 17V21C22 21.5523 21.5523 22 21 22H15C14.4477 22 14 21.5523 14 21V17C14 16.4477 14.4477 16 15 16ZM17 15C17 14.4477 17.4477 14 18 14C18.5523 14 19 14.4477 19 15V16H17V15Z" fill="currentColor"/>
</svg>
