<svg width="24" height="24" viewBox="0 0 24 24" fill="none" xmlns="http://www.w3.org/2000/svg">
<path fill-rule="evenodd" clip-rule="evenodd" d="M21 5C21 4.60553 20.7681 4.24793 20.408 4.087L20.3301 4.05235C20.2798 4.03004 20.2063 3.99745 20.1124 3.95605C19.9246 3.87327 19.6553 3.7552 19.3282 3.61359C18.6747 3.33058 17.7883 2.95259 16.86 2.57403C15.934 2.19643 14.9554 1.81381 14.1207 1.52405C13.7041 1.37943 13.3111 1.25366 12.9717 1.16288C12.6593 1.0793 12.3034 1 12.0004 1C11.6975 1 11.3415 1.0793 11.0291 1.16287C10.6897 1.25366 10.2967 1.37942 9.88004 1.52404C9.04522 1.8138 8.06657 2.19642 7.1405 2.57402C6.21207 2.95258 5.32559 3.33057 4.67194 3.61357C4.34487 3.75518 4.07554 3.87325 3.88772 3.95603C3.79379 3.99743 3.72022 4.03002 3.66996 4.05233L3.59208 4.08698C3.23191 4.2479 3 4.60552 3 5V12C3 14.9894 5.0015 17.7374 6.92168 19.6391C7.90513 20.6131 8.92297 21.4207 9.77075 21.9906C10.1937 22.275 10.5875 22.509 10.9242 22.6765C11.0918 22.76 11.2592 22.8338 11.4181 22.889C11.5576 22.9374 11.7696 23 12.0004 23C12.2313 23 12.4432 22.9374 12.5827 22.889C12.7417 22.8338 12.909 22.76 13.0767 22.6765C13.4133 22.509 13.8071 22.2749 14.23 21.9906C15.0777 21.4207 16.0954 20.6131 17.0788 19.639C18.9988 17.7373 21 14.9894 21 12V5Z" fill="currentColor"/>
</svg>
