<svg width="24" height="24" viewBox="0 0 24 24" fill="none" xmlns="http://www.w3.org/2000/svg">
<path fill-rule="evenodd" clip-rule="evenodd" d="M5 5.65197V12C5 14.1534 6.49892 16.4055 8.32905 18.2181C9.22076 19.1012 10.1406 19.8293 10.8866 20.3308C11.2605 20.5822 11.5776 20.7678 11.8152 20.886C11.8899 20.9232 11.9514 20.951 12 20.9711V21C12 21.7048 12.243 22.3528 12.6498 22.8648C12.6273 22.8732 12.6049 22.8813 12.5827 22.889C12.4432 22.9374 12.2313 23 12.0004 23C11.7696 23 11.5576 22.9374 11.4181 22.889C11.2592 22.8338 11.0918 22.76 10.9242 22.6765C10.5875 22.509 10.1937 22.275 9.77075 21.9906C8.92297 21.4207 7.90513 20.6131 6.92168 19.6391C5.0015 17.7374 3 14.9894 3 12V5C3 4.60552 3.23235 4.2477 3.59252 4.08679C3.95268 3.92587 3.66996 4.05233 3.66996 4.05233C3.72022 4.03002 3.79379 3.99743 3.88772 3.95603C4.07554 3.87325 4.34487 3.75518 4.67194 3.61357C5.32559 3.33057 6.21207 2.95258 7.1405 2.57402C8.06657 2.19642 9.04522 1.8138 9.88004 1.52404C10.2967 1.37942 10.6897 1.25366 11.0291 1.16287C11.3415 1.0793 11.6975 1 12.0004 1C12.3034 1 12.6593 1.0793 12.9717 1.16288C13.3111 1.25366 13.7041 1.37943 14.1207 1.52405C14.9554 1.81381 15.934 2.19643 16.86 2.57403C17.7883 2.95259 18.6747 3.33058 19.3282 3.61359C19.6553 3.7552 19.9246 3.87327 20.1124 3.95605C20.2063 3.99745 20.2798 4.03004 20.3301 4.05235L20.408 4.087C20.7681 4.24793 21 4.60553 21 5V10.9996C20.4186 10.5629 19.7389 10.25 19 10.1V5.65193C18.8635 5.5922 18.7067 5.52392 18.5335 5.44891C17.888 5.16942 17.0156 4.79741 16.1048 4.42597C15.1915 4.05357 14.2505 3.68619 13.4648 3.41345C13.0712 3.27682 12.7288 3.16821 12.4549 3.09493C12.3181 3.05834 12.2073 3.03298 12.1217 3.01728C12.0446 3.00314 12.0076 3.00056 12.001 3.0001H11.9999C11.9932 3.00056 11.9562 3.00314 11.8791 3.01729C11.7935 3.03299 11.6827 3.05835 11.5459 3.09494C11.272 3.16822 10.9295 3.27683 10.5358 3.41346C9.75005 3.6862 8.80896 4.05358 7.89563 4.42598C6.98467 4.79742 6.11212 5.16943 5.46658 5.44893C5.29332 5.52395 5.13657 5.59223 5 5.65197ZM11.8903 21.0108L11.8914 21.0104L11.8963 21.0093L11.8929 21.0102L11.8903 21.0108Z" fill="currentColor"/>
<path fill-rule="evenodd" clip-rule="evenodd" d="M15 15V16C14.4477 16 14 16.4477 14 17V21C14 21.5523 14.4477 22 15 22H21C21.5523 22 22 21.5523 22 21V17C22 16.4477 21.5523 16 21 16V15C21 13.3431 19.6569 12 18 12C16.3431 12 15 13.3431 15 15ZM18 14C17.4477 14 17 14.4477 17 15V16H19V15C19 14.4477 18.5523 14 18 14Z" fill="currentColor"/>
</svg>
