<svg width="24" height="24" viewBox="0 0 24 24" fill="none" xmlns="http://www.w3.org/2000/svg">
<path fill-rule="evenodd" clip-rule="evenodd" d="M9.5 7.5C9.5 6.11929 10.6193 5 12 5H12.5C13.3459 5 14.0692 5.52517 14.3615 6.26725C14.5133 6.65263 14.8358 7 15.25 7C16.4926 7 17.5446 5.94337 17.0033 4.82481C16.1943 3.15301 14.4818 2 12.5 2H12C8.96243 2 6.5 4.46243 6.5 7.5V10H6C4.89543 10 4 10.8954 4 12V20C4 21.1046 4.89543 22 6 22H18C19.1046 22 20 21.1046 20 20V12C20 10.8954 19.1046 10 18 10H9.5V7.5Z" fill="currentColor"/>
</svg>
