<svg width="24" height="24" viewBox="0 0 24 24" fill="none" xmlns="http://www.w3.org/2000/svg">
<path fill-rule="evenodd" clip-rule="evenodd" d="M2 3C2 2.44772 2.44772 2 3 2H21C21.5523 2 22 2.44772 22 3C22 3.55228 21.5523 4 21 4H3C2.44772 4 2 3.55228 2 3ZM11.3753 6.21913C11.7406 5.92696 12.2595 5.92696 12.6247 6.21913L15.1247 8.21913C15.556 8.56414 15.6259 9.19343 15.2809 9.62469C14.9359 10.056 14.3066 10.1259 13.8753 9.78087L13 9.0806V14.9194L13.8753 14.2192C14.3066 13.8742 14.9359 13.9441 15.2809 14.3753C15.6259 14.8066 15.556 15.4359 15.1247 15.7809L12.6247 17.7809C12.2595 18.0731 11.7406 18.0731 11.3753 17.7809L8.87534 15.7809C8.44408 15.4359 8.37416 14.8066 8.71917 14.3753C9.06418 13.9441 9.69347 13.8742 10.1247 14.2192L11 14.9194V9.08065L10.1247 9.78087C9.69347 10.1259 9.06418 10.056 8.71917 9.62469C8.37416 9.19343 8.44408 8.56414 8.87534 8.21913L11.3753 6.21913ZM3 20C2.44772 20 2 20.4477 2 21C2 21.5523 2.44772 22 3 22H21C21.5523 22 22 21.5523 22 21C22 20.4477 21.5523 20 21 20H3Z" fill="currentColor"/>
</svg>
