<svg width="24" height="24" viewBox="0 0 24 24" fill="none" xmlns="http://www.w3.org/2000/svg">
<path fill-rule="evenodd" clip-rule="evenodd" d="M12.0155 15.0001C12.1449 15.0021 12.2684 15.0286 12.3815 15.0753C12.4999 15.1241 12.6109 15.1967 12.7071 15.2929L15.7071 18.2929C16.0976 18.6834 16.0976 19.3166 15.7071 19.7071C15.3166 20.0976 14.6834 20.0976 14.2929 19.7071L13 18.4142L13 22C13 22.5523 12.5523 23 12 23C11.4477 23 11 22.5523 11 22L11 18.4142L9.70711 19.7071C9.31658 20.0976 8.68342 20.0976 8.29289 19.7071C7.90237 19.3166 7.90237 18.6834 8.29289 18.2929L11.2929 15.2929C11.4842 15.1016 11.7338 15.004 11.9845 15.0001C11.9948 15 12.0052 15 12.0155 15.0001ZM8.2929 4.29289C8.68342 3.90237 9.31658 3.90237 9.70711 4.29289L11 5.58579L11 2C11 1.44771 11.4477 0.999999 12 0.999999C12.5523 0.999999 13 1.44771 13 2L13 5.58579L14.2929 4.29289C14.6834 3.90237 15.3166 3.90237 15.7071 4.2929C16.0976 4.68342 16.0976 5.31659 15.7071 5.70711L12.7071 8.70711C12.5158 8.89844 12.2662 8.99603 12.0155 8.99988C12.0052 9.00004 11.9948 9.00004 11.9845 8.99988C11.8551 8.99792 11.7316 8.97137 11.6186 8.92468C11.5001 8.87587 11.3891 8.80335 11.2929 8.70711L8.29289 5.70711C7.90237 5.31658 7.90237 4.68342 8.2929 4.29289ZM21 13C21.5523 13 22 12.5523 22 12C22 11.4477 21.5523 11 21 11L3 11C2.44771 11 2 11.4477 2 12C2 12.5523 2.44771 13 3 13L21 13Z" fill="currentColor"/>
</svg>
