<svg width="24" height="24" viewBox="0 0 24 24" fill="none" xmlns="http://www.w3.org/2000/svg">
<path fill-rule="evenodd" clip-rule="evenodd" d="M19.7071 14.2929L18.4142 13L22 13C22.5523 13 23 12.5523 23 12C23 11.4477 22.5523 11 22 11L18.4142 11L19.7071 9.70711C20.0976 9.31658 20.0976 8.68342 19.7071 8.29289C19.3166 7.90237 18.6834 7.90237 18.2929 8.29289L15.2929 11.2929C14.9024 11.6834 14.9024 12.3166 15.2929 12.7071L18.2929 15.7071C18.6834 16.0976 19.3166 16.0976 19.7071 15.7071C20.0976 15.3166 20.0976 14.6834 19.7071 14.2929ZM4.29289 15.7071C3.90237 15.3166 3.90237 14.6834 4.29289 14.2929L5.58579 13L2 13C1.44772 13 1 12.5523 1 12C1 11.4477 1.44772 11 2 11L5.58579 11L4.29289 9.70711C3.90237 9.31658 3.90237 8.68342 4.2929 8.29289C4.68342 7.90237 5.31659 7.90237 5.70711 8.29289L8.70711 11.2929C9.09763 11.6834 9.09763 12.3166 8.70711 12.7071L5.70711 15.7071C5.31658 16.0976 4.68342 16.0976 4.29289 15.7071ZM13 3C13 2.44772 12.5523 2 12 2C11.4477 2 11 2.44772 11 3L11 20C11 20.5523 11.4477 21 12 21C12.5523 21 13 20.5523 13 20L13 3Z" fill="currentColor"/>
</svg>
