<svg width="24" height="24" viewBox="0 0 24 24" fill="none" xmlns="http://www.w3.org/2000/svg">
<path fill-rule="evenodd" clip-rule="evenodd" d="M18.2929 15.7071C17.9024 15.3166 17.9024 14.6834 18.2929 14.2929L19.5858 13L16 13C15.4477 13 15 12.5523 15 12C15 11.4477 15.4477 11 16 11L19.5858 11L18.2929 9.70711C17.9024 9.31658 17.9024 8.68342 18.2929 8.29289C18.6834 7.90237 19.3166 7.90237 19.7071 8.29289L22.7071 11.2929C23.0976 11.6834 23.0976 12.3166 22.7071 12.7071L19.7071 15.7071C19.3166 16.0976 18.6834 16.0976 18.2929 15.7071ZM5.70711 8.29289C6.09763 8.68342 6.09763 9.31658 5.70711 9.70711L4.41421 11L8 11C8.55228 11 9 11.4477 9 12C9 12.5523 8.55228 13 8 13L4.41421 13L5.7071 14.2929C6.09763 14.6834 6.09763 15.3166 5.7071 15.7071C5.31658 16.0976 4.68341 16.0976 4.29289 15.7071L1.29289 12.7071C0.902366 12.3166 0.902366 11.6834 1.29289 11.2929L4.29289 8.29289C4.68342 7.90237 5.31658 7.90237 5.70711 8.29289ZM13 4C13 3.44772 12.5523 3 12 3C11.4477 3 11 3.44772 11 4L11 20C11 20.5523 11.4477 21 12 21C12.5523 21 13 20.5523 13 20L13 4Z" fill="currentColor"/>
</svg>
