<svg width="24" height="24" viewBox="0 0 24 24" fill="none" xmlns="http://www.w3.org/2000/svg">
<path fill-rule="evenodd" clip-rule="evenodd" d="M4 3C4 2.44772 3.55229 2 3 2C2.44772 2 2 2.44772 2 3V21C2 21.5523 2.44772 22 3 22C3.55228 22 4 21.5523 4 21L4 3ZM21 2C21.5523 2 22 2.44772 22 3V21C22 21.5523 21.5523 22 21 22C20.4477 22 20 21.5523 20 21V3C20 2.44772 20.4477 2 21 2ZM9.62466 8.71917C10.0559 9.06418 10.1258 9.69347 9.78083 10.1247L9.08062 11H14.9193L14.2191 10.1247C13.8741 9.69347 13.944 9.06418 14.3753 8.71917C14.8066 8.37416 15.4359 8.44408 15.7809 8.87534L17.7809 11.3753C18.073 11.7406 18.073 12.2595 17.7809 12.6247L15.7809 15.1247C15.4359 15.556 14.8066 15.6259 14.3753 15.2809C13.944 14.9359 13.8741 14.3066 14.2191 13.8753L14.9194 13H9.08056L9.78083 13.8753C10.1258 14.3066 10.0559 14.9359 9.62466 15.2809C9.1934 15.6259 8.5641 15.556 8.2191 15.1247L6.2191 12.6247C5.92692 12.2595 5.92692 11.7406 6.2191 11.3753L8.2191 8.87534C8.56411 8.44408 9.1934 8.37416 9.62466 8.71917Z" fill="currentColor"/>
</svg>
