<svg width="24" height="24" viewBox="0 0 24 24" fill="none" xmlns="http://www.w3.org/2000/svg">
<path d="M12 2C12.5523 2 13 2.44772 13 3V11H21C21.5523 11 22 11.4477 22 12C22 12.5523 21.5523 13 21 13L13 13L13 16.5V21C13 21.5523 12.5523 22 12 22L11.9935 22C11.4442 21.9965 11 21.5501 11 21V13L7.5 13L7.49829 13L3 13C2.44772 13 2 12.5523 2 12C2 11.9849 2.00033 11.9699 2.001 11.9549C2.00299 11.9101 2.00793 11.866 2.01563 11.8229C2.09921 11.3551 2.50813 11 3 11H11V3C11 2.44772 11.4477 2 12 2Z" fill="currentColor"/>
<path d="M4 3C4 3.55228 3.55228 4 3 4C2.44772 4 2 3.55228 2 3C2 2.44772 2.44772 2 3 2C3.55228 2 4 2.44772 4 3Z" fill="currentColor"/>
<path d="M8.5 3C8.5 3.55228 8.05228 4 7.5 4C6.94772 4 6.5 3.55228 6.5 3C6.5 2.44772 6.94772 2 7.5 2C8.05228 2 8.5 2.44772 8.5 3Z" fill="currentColor"/>
<path d="M17.5 3C17.5 3.55228 17.0523 4 16.5 4C15.9477 4 15.5 3.55228 15.5 3C15.5 2.44772 15.9477 2 16.5 2C17.0523 2 17.5 2.44772 17.5 3Z" fill="currentColor"/>
<path d="M21 4C21.5523 4 22 3.55228 22 3C22 2.44772 21.5523 2 21 2C20.4477 2 20 2.44772 20 3C20 3.55228 20.4477 4 21 4Z" fill="currentColor"/>
<path d="M4 21C4 21.5523 3.55228 22 3 22C2.44772 22 2 21.5523 2 21C2 20.4477 2.44772 20 3 20C3.55228 20 4 20.4477 4 21Z" fill="currentColor"/>
<path d="M7.5 22C8.05228 22 8.5 21.5523 8.5 21C8.5 20.4477 8.05228 20 7.5 20C6.94772 20 6.5 20.4477 6.5 21C6.5 21.5523 6.94772 22 7.5 22Z" fill="currentColor"/>
<path d="M16.5 22C17.0523 22 17.5 21.5523 17.5 21C17.5 20.4477 17.0523 20 16.5 20C15.9477 20 15.5 20.4477 15.5 21C15.5 21.5523 15.9477 22 16.5 22Z" fill="currentColor"/>
<path d="M22 21C22 21.5523 21.5523 22 21 22C20.4477 22 20 21.5523 20 21C20 20.4477 20.4477 20 21 20C21.5523 20 22 20.4477 22 21Z" fill="currentColor"/>
<path d="M2 7.5C2 8.05228 2.44772 8.5 3 8.5C3.55228 8.5 4 8.05228 4 7.5C4 6.94772 3.55228 6.5 3 6.5C2.44772 6.5 2 6.94772 2 7.5Z" fill="currentColor"/>
<path d="M2 16.5C2 17.0523 2.44772 17.5 3 17.5C3.55228 17.5 4 17.0523 4 16.5C4 15.9477 3.55228 15.5 3 15.5C2.44772 15.5 2 15.9477 2 16.5Z" fill="currentColor"/>
<path d="M21 8.5C20.4477 8.5 20 8.05228 20 7.5C20 6.94772 20.4477 6.5 21 6.5C21.5523 6.5 22 6.94772 22 7.5C22 8.05228 21.5523 8.5 21 8.5Z" fill="currentColor"/>
<path d="M21 17.5C20.4477 17.5 20 17.0523 20 16.5C20 15.9477 20.4477 15.5 21 15.5C21.5523 15.5 22 15.9477 22 16.5C22 17.0523 21.5523 17.5 21 17.5Z" fill="currentColor"/>
</svg>
