<svg width="24" height="24" viewBox="0 0 24 24" fill="none" xmlns="http://www.w3.org/2000/svg">
<path fill-rule="evenodd" clip-rule="evenodd" d="M2 3C2 2.44772 2.44772 2 3 2C3.03452 2 3.06863 2.00175 3.10224 2.00516C3.6065 2.05637 4 2.48223 4 3L4 7.4994C4 7.4996 4 7.4998 4 7.5C4 7.5002 4 7.5004 4 7.5006V11.9991C4 11.9994 4 11.9997 4 12C4 12.0003 4 12.0006 4 12.0009V16.499C4 16.4993 4 16.4997 4 16.5C4 16.5003 4 16.5007 4 16.501L4 20.9988C4 20.9992 4 20.9996 4 21C4 21.5523 3.55229 22 3 22C2.96548 22 2.93137 21.9983 2.89776 21.9948C2.3935 21.9436 2 21.5178 2 21V16.5V12V7.5V3ZM8.5 3C8.5 3.55228 8.05229 4 7.5 4C6.94772 4 6.5 3.55228 6.5 3C6.5 2.44772 6.94772 2 7.5 2C8.05229 2 8.5 2.44772 8.5 3ZM12 4C12.5523 4 13 3.55228 13 3C13 2.44772 12.5523 2 12 2C11.4477 2 11 2.44772 11 3C11 3.55228 11.4477 4 12 4ZM17.5 3C17.5 3.55228 17.0523 4 16.5 4C15.9477 4 15.5 3.55228 15.5 3C15.5 2.44772 15.9477 2 16.5 2C17.0523 2 17.5 2.44772 17.5 3ZM21 4C21.5523 4 22 3.55228 22 3C22 2.44772 21.5523 2 21 2C20.4477 2 20 2.44772 20 3C20 3.55228 20.4477 4 21 4ZM7.5 22C8.05229 22 8.5 21.5523 8.5 21C8.5 20.4477 8.05229 20 7.5 20C6.94772 20 6.5 20.4477 6.5 21C6.5 21.5523 6.94772 22 7.5 22ZM13 21C13 21.5523 12.5523 22 12 22C11.4477 22 11 21.5523 11 21C11 20.4477 11.4477 20 12 20C12.5523 20 13 20.4477 13 21ZM16.5 22C17.0523 22 17.5 21.5523 17.5 21C17.5 20.4477 17.0523 20 16.5 20C15.9477 20 15.5 20.4477 15.5 21C15.5 21.5523 15.9477 22 16.5 22ZM22 21C22 21.5523 21.5523 22 21 22C20.4477 22 20 21.5523 20 21C20 20.4477 20.4477 20 21 20C21.5523 20 22 20.4477 22 21ZM8.5 12C8.5 12.5523 8.05229 13 7.5 13C6.94772 13 6.5 12.5523 6.5 12C6.5 11.4477 6.94772 11 7.5 11C8.05229 11 8.5 11.4477 8.5 12ZM12 13C12.5523 13 13 12.5523 13 12C13 11.4477 12.5523 11 12 11C11.4477 11 11 11.4477 11 12C11 12.5523 11.4477 13 12 13ZM17.5 12C17.5 12.5523 17.0523 13 16.5 13C15.9477 13 15.5 12.5523 15.5 12C15.5 11.4477 15.9477 11 16.5 11C17.0523 11 17.5 11.4477 17.5 12ZM21 13C21.5523 13 22 12.5523 22 12C22 11.4477 21.5523 11 21 11C20.4477 11 20 11.4477 20 12C20 12.5523 20.4477 13 21 13ZM12 8.5C11.4477 8.5 11 8.05228 11 7.5C11 6.94772 11.4477 6.5 12 6.5C12.5523 6.5 13 6.94772 13 7.5C13 8.05228 12.5523 8.5 12 8.5ZM12 17.5C11.4477 17.5 11 17.0523 11 16.5C11 15.9477 11.4477 15.5 12 15.5C12.5523 15.5 13 15.9477 13 16.5C13 17.0523 12.5523 17.5 12 17.5ZM21 8.5C20.4477 8.5 20 8.05228 20 7.5C20 6.94772 20.4477 6.5 21 6.5C21.5523 6.5 22 6.94772 22 7.5C22 8.05228 21.5523 8.5 21 8.5ZM21 17.5C20.4477 17.5 20 17.0523 20 16.5C20 15.9477 20.4477 15.5 21 15.5C21.5523 15.5 22 15.9477 22 16.5C22 17.0523 21.5523 17.5 21 17.5Z" fill="currentColor"/>
</svg>
