<svg width="24" height="24" viewBox="0 0 24 24" fill="none" xmlns="http://www.w3.org/2000/svg">
<path fill-rule="evenodd" clip-rule="evenodd" d="M7.5 2H12H16.5H19C20.6569 2 22 3.34315 22 5V7.5V12V16.5V19C22 20.6569 20.6569 22 19 22H16.5H12H7.5H5C3.34315 22 2 20.6569 2 19V16.5V12V7.5V5C2 3.34315 3.34315 2 5 2H7.5ZM4 7.5V5C4 4.44772 4.44772 4 5 4H7.5H12H16.5H19C19.5523 4 20 4.44772 20 5V7.5V12V16.5V19C20 19.5523 19.5523 20 19 20H16.5H12H7.5H5C4.44772 20 4 19.5523 4 19V16.5V12V7.5ZM8.5 12C8.5 12.5523 8.05228 13 7.5 13C6.94772 13 6.5 12.5523 6.5 12C6.5 11.4477 6.94772 11 7.5 11C8.05228 11 8.5 11.4477 8.5 12ZM12 13C12.5523 13 13 12.5523 13 12C13 11.4477 12.5523 11 12 11C11.4477 11 11 11.4477 11 12C11 12.5523 11.4477 13 12 13ZM17.5 12C17.5 12.5523 17.0523 13 16.5 13C15.9477 13 15.5 12.5523 15.5 12C15.5 11.4477 15.9477 11 16.5 11C17.0523 11 17.5 11.4477 17.5 12ZM12 8.5C11.4477 8.5 11 8.05228 11 7.5C11 6.94772 11.4477 6.5 12 6.5C12.5523 6.5 13 6.94772 13 7.5C13 8.05228 12.5523 8.5 12 8.5ZM12 17.5C11.4477 17.5 11 17.0523 11 16.5C11 15.9477 11.4477 15.5 12 15.5C12.5523 15.5 13 15.9477 13 16.5C13 17.0523 12.5523 17.5 12 17.5Z" fill="currentColor"/>
</svg>
