<svg width="24" height="24" viewBox="0 0 24 24" fill="none" xmlns="http://www.w3.org/2000/svg">
<path fill-rule="evenodd" clip-rule="evenodd" d="M8 2C6.34315 2 5 3.34315 5 5V6.34141C2.66962 7.16508 1 9.38756 1 12C1 14.6124 2.66962 16.8349 5 17.6586V19C5 20.6569 6.34315 22 8 22H16C17.6569 22 19 20.6569 19 19V5C19 3.34315 17.6569 2 16 2H8ZM7 18V19C7 19.5523 7.44772 20 8 20H16C16.5523 20 17 19.5523 17 19V5C17 4.44772 16.5523 4 16 4H8C7.44772 4 7 4.44772 7 5V6C10.3137 6 13 8.68629 13 12C13 15.3137 10.3137 18 7 18ZM8 10C8 9.44772 7.55228 9 7 9C6.44772 9 6 9.44772 6 10V11H5C4.44772 11 4 11.4477 4 12C4 12.5523 4.44772 13 5 13H6V14C6 14.5523 6.44772 15 7 15C7.55229 15 8 14.5523 8 14V13H9C9.55228 13 10 12.5523 10 12C10 11.4477 9.55228 11 9 11H8V10Z" fill="currentColor"/>
</svg>
