<svg width="24" height="24" viewBox="0 0 24 24" fill="none" xmlns="http://www.w3.org/2000/svg">
<path fill-rule="evenodd" clip-rule="evenodd" d="M8 2C6.34315 2 5 3.34315 5 5V19C5 20.6569 6.34315 22 8 22H16C17.6569 22 19 20.6569 19 19V17.6586C21.3304 16.8349 23 14.6124 23 12C23 9.38756 21.3304 7.16508 19 6.34141V5C19 3.34315 17.6569 2 16 2H8ZM17 6V5C17 4.44772 16.5523 4 16 4H8C7.44772 4 7 4.44772 7 5V19C7 19.5523 7.44772 20 8 20H16C16.5523 20 17 19.5523 17 19V18C13.6863 18 11 15.3137 11 12C11 8.68629 13.6863 6 17 6ZM18 10C18 9.44772 17.5523 9 17 9C16.4477 9 16 9.44772 16 10V11H15C14.4477 11 14 11.4477 14 12C14 12.5523 14.4477 13 15 13H16V14C16 14.5523 16.4477 15 17 15C17.5523 15 18 14.5523 18 14V13H19C19.5523 13 20 12.5523 20 12C20 11.4477 19.5523 11 19 11H18V10Z" fill="currentColor"/>
</svg>
