<svg width="24" height="24" viewBox="0 0 24 24" fill="none" xmlns="http://www.w3.org/2000/svg">
<path fill-rule="evenodd" clip-rule="evenodd" d="M5 5C3.34315 5 2 6.34315 2 8V16C2 17.6569 3.34315 19 5 19H6.80269C7.84012 20.7934 9.77915 22 12 22C14.2208 22 16.1599 20.7934 17.1973 19H19C20.6569 19 22 17.6569 22 16V8C22 6.34315 20.6569 5 19 5H5ZM17.917 17H19C19.5523 17 20 16.5523 20 16V8C20 7.44772 19.5523 7 19 7H5C4.44772 7 4 7.44772 4 8V16C4 16.5523 4.44772 17 5 17H6.08296C6.0284 16.6748 6 16.3407 6 16C6 12.6863 8.68629 10 12 10C15.3137 10 18 12.6863 18 16C18 16.3407 17.9716 16.6748 17.917 17ZM13 14C13 13.4477 12.5523 13 12 13C11.4477 13 11 13.4477 11 14V15H10C9.44772 15 9 15.4477 9 16C9 16.5523 9.44772 17 10 17H11V18C11 18.5523 11.4477 19 12 19C12.5523 19 13 18.5523 13 18V17H14C14.5523 17 15 16.5523 15 16C15 15.4477 14.5523 15 14 15H13V14Z" fill="currentColor"/>
</svg>
