<svg width="24" height="24" viewBox="0 0 24 24" fill="none" xmlns="http://www.w3.org/2000/svg">
<path fill-rule="evenodd" clip-rule="evenodd" d="M18 8C18 11.3137 15.3137 14 12 14C8.68629 14 6 11.3137 6 8C6 7.65929 6.0284 7.32521 6.08296 7H5C4.44772 7 4 7.44772 4 8V16C4 16.5523 4.44772 17 5 17H19C19.5523 17 20 16.5523 20 16V8C20 7.44772 19.5523 7 19 7H17.917C17.9716 7.32521 18 7.65929 18 8ZM17.1973 5C16.1599 3.2066 14.2208 2 12 2C9.77915 2 7.84012 3.2066 6.80269 5H5C3.34315 5 2 6.34315 2 8V16C2 17.6569 3.34315 19 5 19H19C20.6569 19 22 17.6569 22 16V8C22 6.34315 20.6569 5 19 5H17.1973ZM13 6C13 5.44772 12.5523 5 12 5C11.4477 5 11 5.44772 11 6V7H10C9.44772 7 9 7.44772 9 8C9 8.55228 9.44772 9 10 9H11V10C11 10.5523 11.4477 11 12 11C12.5523 11 13 10.5523 13 10V9H14C14.5523 9 15 8.55228 15 8C15 7.44772 14.5523 7 14 7H13V6Z" fill="currentColor"/>
</svg>
