<svg width="24" height="24" viewBox="0 0 24 24" fill="none" xmlns="http://www.w3.org/2000/svg">
<path fill-rule="evenodd" clip-rule="evenodd" d="M1 5C1 3.89543 1.89543 3 3 3H5C6.10457 3 7 3.89543 7 5V19C7 20.1046 6.10457 21 5 21H3C1.89543 21 1 20.1046 1 19V5ZM9 5C9 3.89543 9.89543 3 11 3H13C14.1046 3 15 3.89543 15 5V19C15 20.1046 14.1046 21 13 21H11C9.89543 21 9 20.1046 9 19V5ZM19 3C17.8954 3 17 3.89543 17 5V19C17 20.1046 17.8954 21 19 21H21C22.1046 21 23 20.1046 23 19V5C23 3.89543 22.1046 3 21 3H19Z" fill="currentColor"/>
</svg>
