<svg width="24" height="24" viewBox="0 0 24 24" fill="none" xmlns="http://www.w3.org/2000/svg">
<path fill-rule="evenodd" clip-rule="evenodd" d="M2.4 3C1.6268 3 1 3.6268 1 4.4V19.6C1 20.3732 1.6268 21 2.4 21H3.6C4.3732 21 5 20.3732 5 19.6V4.4C5 3.6268 4.3732 3 3.6 3H2.4ZM8.4 3C7.6268 3 7 3.6268 7 4.4V19.6C7 20.3732 7.6268 21 8.4 21H9.6C10.3732 21 11 20.3732 11 19.6V4.4C11 3.6268 10.3732 3 9.6 3H8.4ZM13 4.4C13 3.6268 13.6268 3 14.4 3H15.6C16.3732 3 17 3.6268 17 4.4V19.6C17 20.3732 16.3732 21 15.6 21H14.4C13.6268 21 13 20.3732 13 19.6V4.4ZM20.4 3C19.6268 3 19 3.6268 19 4.4V19.6C19 20.3732 19.6268 21 20.4 21H21.6C22.3732 21 23 20.3732 23 19.6V4.4C23 3.6268 22.3732 3 21.6 3H20.4Z" fill="currentColor"/>
</svg>
