<svg width="24" height="24" viewBox="0 0 24 24" fill="none" xmlns="http://www.w3.org/2000/svg">
<path fill-rule="evenodd" clip-rule="evenodd" d="M2 8C2 8.55228 2.44772 9 3 9H5C7.20914 9 9 7.20914 9 5V3C9 2.44772 8.55228 2 8 2C7.44772 2 7 2.44772 7 3V5C7 6.10457 6.10457 7 5 7H3C2.44772 7 2 7.44772 2 8ZM3 15C2.44772 15 2 15.4477 2 16C2 16.5523 2.44772 17 3 17H5C6.10457 17 7 17.8954 7 19V21C7 21.5523 7.44772 22 8 22C8.55228 22 9 21.5523 9 21V19C9 16.7909 7.20914 15 5 15H3ZM21 15C21.5523 15 22 15.4477 22 16C22 16.5523 21.5523 17 21 17H19C17.8954 17 17 17.8954 17 19V21C17 21.5523 16.5523 22 16 22C15.4477 22 15 21.5523 15 21V19C15 16.7909 16.7909 15 19 15H21ZM21 9C21.5523 9 22 8.55228 22 8C22 7.44772 21.5523 7 21 7H19C17.8954 7 17 6.10457 17 5V3C17 2.44772 16.5523 2 16 2C15.4477 2 15 2.44772 15 3V5C15 7.20914 16.7909 9 19 9H21Z" fill="currentColor"/>
</svg>
