<svg width="24" height="24" viewBox="0 0 24 24" fill="none" xmlns="http://www.w3.org/2000/svg">
<path fill-rule="evenodd" clip-rule="evenodd" d="M5 3C5 2.44772 4.55228 2 4 2C3.44772 2 3 2.44772 3 3V21C3 21.5523 3.44772 22 4 22C4.55228 22 5 21.5523 5 21V3ZM22 3C22 2.44772 21.5523 2 21 2C20.4477 2 20 2.44772 20 3V21C20 21.5523 20.4477 22 21 22C21.5523 22 22 21.5523 22 21V3ZM11 4C9.34315 4 8 5.34315 8 7V17C8 18.6569 9.34315 20 11 20H13C14.6569 20 16 18.6569 16 17V7C16 5.34315 14.6569 4 13 4H11Z" fill="currentColor"/>
</svg>
