<svg width="24" height="24" viewBox="0 0 24 24" fill="none" xmlns="http://www.w3.org/2000/svg">
<path fill-rule="evenodd" clip-rule="evenodd" d="M21.5 4.50024C22.0523 4.50024 22.5 4.05253 22.5 3.50024C22.5 2.94796 22.0523 2.50024 21.5 2.50024H3.5C2.94772 2.50024 2.5 2.94796 2.5 3.50024C2.5 4.05253 2.94772 4.50024 3.5 4.50024H21.5ZM21.5 21.4998C22.0523 21.4998 22.5 21.052 22.5 20.4998C22.5 19.9475 22.0523 19.4998 21.5 19.4998H3.5C2.94772 19.4998 2.5 19.9475 2.5 20.4998C2.5 21.052 2.94772 21.4998 3.5 21.4998H21.5ZM20.5 10.5002C20.5 8.84339 19.1569 7.50024 17.5 7.50024H7.5C5.84315 7.50024 4.5 8.84339 4.5 10.5002V12.5002C4.5 14.1571 5.84315 15.5002 7.5 15.5002H17.5C19.1569 15.5002 20.5 14.1571 20.5 12.5002V10.5002Z" fill="currentColor"/>
</svg>
