<svg width="24" height="24" viewBox="0 0 24 24" fill="none" xmlns="http://www.w3.org/2000/svg">
<path fill-rule="evenodd" clip-rule="evenodd" d="M4 5C2.89543 5 2 5.89543 2 7V9C2 10.1046 2.89543 11 4 11H6C7.10457 11 8 10.1046 8 9V7C8 5.89543 7.10457 5 6 5H4ZM11 5C9.89543 5 9 5.89543 9 7V9C9 10.1046 9.89543 11 11 11H13C14.1046 11 15 10.1046 15 9V7C15 5.89543 14.1046 5 13 5H11ZM18 11C16.8954 11 16 10.1046 16 9V7C16 5.89543 16.8954 5 18 5H20C21.1046 5 22 5.89543 22 7V9C22 10.1046 21.1046 11 20 11H18ZM4 12C2.89543 12 2 12.8954 2 14V16C2 17.1046 2.89543 18 4 18H6C7.10457 18 8 17.1046 8 16V14C8 12.8954 7.10457 12 6 12H4ZM11 12C9.89543 12 9 12.8954 9 14V16C9 17.1046 9.89543 18 11 18H13C14.1046 18 15 17.1046 15 16V14C15 12.8954 14.1046 12 13 12H11ZM18 18C16.8954 18 16 17.1046 16 16V14C16 12.8954 16.8954 12 18 12H20C21.1046 12 22 12.8954 22 14V16C22 17.1046 21.1046 18 20 18H18Z" fill="currentColor"/>
</svg>
