<svg width="24" height="24" viewBox="0 0 24 24" fill="none" xmlns="http://www.w3.org/2000/svg">
<path fill-rule="evenodd" clip-rule="evenodd" d="M4 2C2.89543 2 2 2.89543 2 4V6C2 6.55228 2.44772 7 3 7H10C10.5523 7 11 6.55228 11 6V4C11 2.89543 10.1046 2 9 2H4ZM3 9C2.44772 9 2 9.44771 2 10V16C2 17.1046 2.89543 18 4 18H9C10.1046 18 11 17.1046 11 16V10C11 9.44772 10.5523 9 10 9H3ZM13 10C13 9.44772 13.4477 9 14 9H21C21.5523 9 22 9.44772 22 10V20C22 21.1046 21.1046 22 20 22H15C13.8954 22 13 21.1046 13 20V10ZM15 2C13.8954 2 13 2.89543 13 4V6C13 6.55228 13.4477 7 14 7H21C21.5523 7 22 6.55228 22 6V4C22 2.89543 21.1046 2 20 2H15Z" fill="currentColor"/>
</svg>
