<svg width="24" height="24" viewBox="0 0 24 24" fill="none" xmlns="http://www.w3.org/2000/svg">
<path fill-rule="evenodd" clip-rule="evenodd" d="M10.3677 3.48598C11.3605 2.84224 12.639 2.84224 13.6319 3.48597L21.0898 8.32142C22.3057 9.10978 22.3057 10.8893 21.0898 11.6777L13.6319 16.5134C12.6391 17.1572 11.3605 17.1572 10.3676 16.5134L2.90992 11.6777C1.69406 10.8893 1.6941 9.10979 2.90998 8.32144L10.3677 3.48598ZM21.5729 15.3596C22.0256 15.0432 22.1361 14.4198 21.8198 13.9671C21.5034 13.5144 20.88 13.4038 20.4273 13.7202L20.3446 13.778L20.3403 13.781L13.7313 18.4517C12.6935 19.1852 11.3062 19.1852 10.2684 18.4517L3.6597 13.781L3.57368 13.7208C3.12129 13.404 2.49774 13.5139 2.18095 13.9663C1.86416 14.4187 1.97409 15.0423 2.42649 15.3591L2.50716 15.4155L9.11413 20.085C10.8438 21.3074 13.156 21.3074 14.8856 20.085L21.4902 15.4174L21.4945 15.4143L21.5729 15.3596Z" fill="currentColor"/>
</svg>
