<svg width="24" height="24" viewBox="0 0 24 24" fill="none" xmlns="http://www.w3.org/2000/svg">
<path fill-rule="evenodd" clip-rule="evenodd" d="M13.6319 1.48597C12.639 0.842237 11.3605 0.842243 10.3677 1.48598L2.90998 6.32144C1.6941 7.10979 1.69406 8.88925 2.90992 9.67765L10.3676 14.5134C11.3605 15.1572 12.6391 15.1572 13.6319 14.5134L21.0898 9.67767C22.3057 8.88927 22.3057 7.10978 21.0898 6.32142L13.6319 1.48597ZM21.8198 11.9671C22.1361 12.4198 22.0256 13.0432 21.5729 13.3596L21.4945 13.4143L21.4902 13.4174L14.8856 18.085C13.156 19.3074 10.8438 19.3074 9.11413 18.085L2.50716 13.4155L2.42649 13.3591C1.97409 13.0423 1.86416 12.4187 2.18095 11.9663C2.49774 11.5139 3.12129 11.404 3.57368 11.7208L3.6597 11.781L10.2684 16.4517C11.3062 17.1852 12.6935 17.1852 13.7313 16.4517L20.3403 11.781L20.3446 11.778L20.4273 11.7202C20.88 11.4038 21.5034 11.5144 21.8198 11.9671ZM21.5729 17.3596C22.0256 17.0432 22.1361 16.4198 21.8198 15.9671C21.5034 15.5144 20.88 15.4038 20.4273 15.7202L20.3446 15.778L20.3403 15.781L13.7313 20.4517C12.6935 21.1852 11.3062 21.1852 10.2684 20.4517L3.6597 15.781L3.57368 15.7208C3.12129 15.404 2.49774 15.5139 2.18095 15.9663C1.86416 16.4187 1.97409 17.0423 2.42649 17.3591L2.50716 17.4156L9.11413 22.085C10.8438 23.3074 13.156 23.3074 14.8856 22.085L21.4902 17.4174L21.4945 17.4143L21.5729 17.3596Z" fill="currentColor"/>
</svg>
