<svg width="24" height="24" viewBox="0 0 24 24" fill="none" xmlns="http://www.w3.org/2000/svg">
<path fill-rule="evenodd" clip-rule="evenodd" d="M2 2C1.44772 2 1 2.44772 1 3V15C1 15.5523 1.44772 16 2 16H6C6.55228 16 7 15.5523 7 15V3C7 2.44772 6.55228 2 6 2H2ZM2 18C1.44772 18 1 18.4477 1 19V21C1 21.5523 1.44772 22 2 22H6C6.55228 22 7 21.5523 7 21V19C7 18.4477 6.55228 18 6 18H2ZM9 9C9 8.44772 9.44772 8 10 8H14C14.5523 8 15 8.44772 15 9V21C15 21.5523 14.5523 22 14 22H10C9.44772 22 9 21.5523 9 21V9ZM10 2C9.44772 2 9 2.44772 9 3V5C9 5.55228 9.44772 6 10 6H14C14.5523 6 15 5.55228 15 5V3C15 2.44772 14.5523 2 14 2H10ZM17 16C17 15.4477 17.4477 15 18 15H22C22.5523 15 23 15.4477 23 16V21C23 21.5523 22.5523 22 22 22H18C17.4477 22 17 21.5523 17 21V16ZM18 2C17.4477 2 17 2.44772 17 3V12C17 12.5523 17.4477 13 18 13H22C22.5523 13 23 12.5523 23 12V3C23 2.44772 22.5523 2 22 2H18Z" fill="currentColor"/>
</svg>
