<svg width="24" height="24" viewBox="0 0 24 24" fill="none" xmlns="http://www.w3.org/2000/svg">
<path fill-rule="evenodd" clip-rule="evenodd" d="M2 4C1.44772 4 1 3.55228 1 3C1 2.44772 1.44772 2 2 2H22C22.5523 2 23 2.44772 23 3C23 3.55228 22.5523 4 22 4H2ZM3 19C3 20.6569 4.34315 22 6 22H8C9.65685 22 11 20.6569 11 19V8C11 6.34315 9.65685 5 8 5H6C4.34315 5 3 6.34315 3 8V19ZM13 15C13 16.6569 14.3431 18 16 18H18C19.6569 18 21 16.6569 21 15V8C21 6.34315 19.6569 5 18 5H16C14.3431 5 13 6.34315 13 8V15Z" fill="currentColor"/>
</svg>
