<svg width="24" height="24" viewBox="0 0 24 24" fill="none" xmlns="http://www.w3.org/2000/svg">
<path fill-rule="evenodd" clip-rule="evenodd" d="M3 5C3 3.34315 4.34315 2 6 2H8C9.65685 2 11 3.34315 11 5V11H13V7C13 5.34315 14.3431 4 16 4H18C19.6569 4 21 5.34315 21 7V11H22C22.5523 11 23 11.4477 23 12C23 12.5523 22.5523 13 22 13H21V17C21 18.6569 19.6569 20 18 20H16C14.3431 20 13 18.6569 13 17V13H11V19C11 20.6569 9.65685 22 8 22H6C4.34315 22 3 20.6569 3 19V13H2C1.44772 13 1 12.5523 1 12C1 11.4477 1.44772 11 2 11H3V5Z" fill="currentColor"/>
</svg>
