<svg width="24" height="24" viewBox="0 0 24 24" fill="none" xmlns="http://www.w3.org/2000/svg">
<path fill-rule="evenodd" clip-rule="evenodd" d="M13 2C13 1.44772 12.5523 1 12 1C11.4477 1 11 1.44772 11 2V3L7 3C5.34315 3 4 4.34315 4 6V8C4 9.65685 5.34315 11 7 11H11V13H5C3.34315 13 2 14.3431 2 16V18C2 19.6569 3.34315 21 5 21H11V22C11 22.5523 11.4477 23 12 23C12.5523 23 13 22.5523 13 22V21H19C20.6569 21 22 19.6569 22 18V16C22 14.3431 20.6569 13 19 13H13V11H17C18.6569 11 20 9.65685 20 8V6C20 4.34315 18.6569 3 17 3L13 3V2Z" fill="currentColor"/>
</svg>
