<svg width="24" height="24" viewBox="0 0 24 24" fill="none" xmlns="http://www.w3.org/2000/svg">
<path fill-rule="evenodd" clip-rule="evenodd" d="M3 5C3 3.34315 4.34315 2 6 2H8C9.65685 2 11 3.34315 11 5V16C11 17.6569 9.65685 19 8 19H6C4.34315 19 3 17.6569 3 16V5ZM13 9C13 7.34315 14.3431 6 16 6H18C19.6569 6 21 7.34315 21 9V16C21 17.6569 19.6569 19 18 19H16C14.3431 19 13 17.6569 13 16V9ZM2 20C1.44772 20 1 20.4477 1 21C1 21.5523 1.44772 22 2 22H22C22.5523 22 23 21.5523 23 21C23 20.4477 22.5523 20 22 20H2Z" fill="currentColor"/>
</svg>
