<svg width="24" height="24" viewBox="0 0 24 24" fill="none" xmlns="http://www.w3.org/2000/svg">
<path fill-rule="evenodd" clip-rule="evenodd" d="M20 2C20 1.44772 20.4477 1 21 1C21.5523 1 22 1.44772 22 2V22C22 22.5523 21.5523 23 21 23C20.4477 23 20 22.5523 20 22V2ZM16 11C17.6569 11 19 9.65685 19 8V6C19 4.34315 17.6569 3 16 3L9 3C7.34315 3 6 4.34315 6 6V8C6 9.65685 7.34315 11 9 11H16ZM16 21C17.6569 21 19 19.6569 19 18V16C19 14.3431 17.6569 13 16 13H5C3.34315 13 2 14.3431 2 16V18C2 19.6569 3.34315 21 5 21H16Z" fill="currentColor"/>
</svg>
