<svg width="24" height="24" viewBox="0 0 24 24" fill="none" xmlns="http://www.w3.org/2000/svg">
<path fill-rule="evenodd" clip-rule="evenodd" d="M4 2C4 1.44772 3.55228 1 3 1C2.44772 1 2 1.44772 2 2V22C2 22.5523 2.44772 23 3 23C3.55228 23 4 22.5523 4 22V2ZM8 11C6.34315 11 5 9.65685 5 8V6C5 4.34315 6.34315 3 8 3L15 3C16.6569 3 18 4.34315 18 6V8C18 9.65685 16.6569 11 15 11H8ZM8 21C6.34315 21 5 19.6569 5 18V16C5 14.3431 6.34315 13 8 13H19C20.6569 13 22 14.3431 22 16V18C22 19.6569 20.6569 21 19 21H8Z" fill="currentColor"/>
</svg>
