<svg width="24" height="24" viewBox="0 0 24 24" fill="none" xmlns="http://www.w3.org/2000/svg">
<path fill-rule="evenodd" clip-rule="evenodd" d="M1 7C1 4.79086 2.79086 3 5 3H10H14H19C21.2091 3 23 4.79086 23 7V17C23 19.2091 21.2091 21 19 21H14H10H5C2.79086 21 1 19.2091 1 17V7ZM15 19H19C20.1046 19 21 18.1046 21 17V7C21 5.89543 20.1046 5 19 5H15V19ZM13 5V19H11V5H13ZM5 5H9V19H5C3.89543 19 3 18.1046 3 17V7C3 5.89543 3.89543 5 5 5ZM7.70711 9.29289C8.09763 9.68342 8.09763 10.3166 7.70711 10.7071L6.41421 12L7.70711 13.2929C8.09763 13.6834 8.09763 14.3166 7.70711 14.7071C7.31658 15.0976 6.68342 15.0976 6.29289 14.7071L4.29289 12.7071C3.90237 12.3166 3.90237 11.6834 4.29289 11.2929L6.29289 9.29289C6.68342 8.90237 7.31658 8.90237 7.70711 9.29289ZM17.7071 9.29289C17.3166 8.90237 16.6834 8.90237 16.2929 9.29289C15.9024 9.68342 15.9024 10.3166 16.2929 10.7071L17.5858 12L16.2929 13.2929C15.9024 13.6834 15.9024 14.3166 16.2929 14.7071C16.6834 15.0976 17.3166 15.0976 17.7071 14.7071L19.7071 12.7071C20.0976 12.3166 20.0976 11.6834 19.7071 11.2929L17.7071 9.29289Z" fill="currentColor"/>
</svg>
