<svg width="24" height="24" viewBox="0 0 24 24" fill="none" xmlns="http://www.w3.org/2000/svg">
<path fill-rule="evenodd" clip-rule="evenodd" d="M1 7C1 4.79086 2.79086 3 5 3H19C21.2091 3 23 4.79086 23 7V17C23 19.2091 21.2091 21 19 21H5C2.79086 21 1 19.2091 1 17V7ZM5 5C3.89543 5 3 5.89543 3 7V17C3 18.1046 3.89543 19 5 19H19C20.1046 19 21 18.1046 21 17V7C21 5.89543 20.1046 5 19 5H5ZM4.25634 11.0274L4.07135 10.5068C3.99207 10.2877 3.97886 10.0639 4.03171 9.83562C4.08457 9.60731 4.19027 9.41553 4.34884 9.26027L6.11945 7.53425C6.49824 7.17808 6.92988 7 7.41438 7H8.26004C8.47146 7 8.64764 7.07763 8.78858 7.23288C8.92953 7.38813 9 7.57078 9 7.78082V16.2192C9 16.4292 8.92953 16.6119 8.78858 16.7671C8.64764 16.9224 8.47146 17 8.26004 17H7.41438C7.21177 17 7.03559 16.9224 6.88584 16.7671C6.74489 16.6119 6.67442 16.4292 6.67442 16.2192V9.69863H6.66121H6.64799L5.06237 11.2192C4.93904 11.347 4.78929 11.3927 4.61311 11.3562C4.43693 11.3105 4.31801 11.2009 4.25634 11.0274ZM15.0714 10.5068L15.2563 11.0274C15.318 11.2009 15.4369 11.3105 15.6131 11.3562C15.7893 11.3927 15.939 11.347 16.0624 11.2192L17.648 9.69863H17.6612H17.6744V16.2192C17.6744 16.4292 17.7449 16.6119 17.8858 16.7671C18.0356 16.9224 18.2118 17 18.4144 17H19.26C19.4715 17 19.6476 16.9224 19.7886 16.7671C19.9295 16.6119 20 16.4292 20 16.2192V7.78082C20 7.57078 19.9295 7.38813 19.7886 7.23288C19.6476 7.07763 19.4715 7 19.26 7H18.4144C17.9299 7 17.4982 7.17808 17.1194 7.53425L15.3488 9.26027C15.1903 9.41553 15.0846 9.60731 15.0317 9.83562C14.9789 10.0639 14.9921 10.2877 15.0714 10.5068ZM13 10C13 10.5523 12.5523 11 12 11C11.4477 11 11 10.5523 11 10C11 9.44771 11.4477 9 12 9C12.5523 9 13 9.44771 13 10ZM12 15C12.5523 15 13 14.5523 13 14C13 13.4477 12.5523 13 12 13C11.4477 13 11 13.4477 11 14C11 14.5523 11.4477 15 12 15Z" fill="currentColor"/>
</svg>
