<svg width="24" height="24" viewBox="0 0 24 24" fill="none" xmlns="http://www.w3.org/2000/svg">
<path fill-rule="evenodd" clip-rule="evenodd" d="M5 3C2.79086 3 1 4.79086 1 7V17C1 19.2091 2.79086 21 5 21H19C21.2091 21 23 19.2091 23 17V7C23 4.79086 21.2091 3 19 3H5ZM3 7C3 5.89543 3.89543 5 5 5H19C20.1046 5 21 5.89543 21 7V17C21 18.1046 20.1046 19 19 19H5C3.89543 19 3 18.1046 3 17V7ZM7.70711 10.7071C8.09763 10.3166 8.09763 9.68342 7.70711 9.29289C7.31658 8.90237 6.68342 8.90237 6.29289 9.29289L4.29289 11.2929C3.90237 11.6834 3.90237 12.3166 4.29289 12.7071L6.29289 14.7071C6.68342 15.0976 7.31658 15.0976 7.70711 14.7071C8.09763 14.3166 8.09763 13.6834 7.70711 13.2929L7.41421 13H16.5858L16.2929 13.2929C15.9024 13.6834 15.9024 14.3166 16.2929 14.7071C16.6834 15.0976 17.3166 15.0976 17.7071 14.7071L19.7071 12.7071C20.0976 12.3166 20.0976 11.6834 19.7071 11.2929L17.7071 9.29289C17.3166 8.90237 16.6834 8.90237 16.2929 9.29289C15.9024 9.68342 15.9024 10.3166 16.2929 10.7071L16.5858 11H7.41421L7.70711 10.7071Z" fill="currentColor"/>
</svg>
