<svg width="24" height="24" viewBox="0 0 24 24" fill="none" xmlns="http://www.w3.org/2000/svg">
<path fill-rule="evenodd" clip-rule="evenodd" d="M5 3C2.79086 3 1 4.79086 1 7V17C1 19.2091 2.79086 21 5 21H19C21.2091 21 23 19.2091 23 17V7C23 4.79086 21.2091 3 19 3H5ZM3 7C3 5.89543 3.89543 5 5 5H19C20.1046 5 21 5.89543 21 7V17C21 18.1046 20.1046 19 19 19H5C3.89543 19 3 18.1046 3 17V7ZM12.7071 6.29289C12.3166 5.90237 11.6834 5.90237 11.2929 6.29289L9.29289 8.29289C8.90237 8.68342 8.90237 9.31658 9.29289 9.70711C9.68342 10.0976 10.3166 10.0976 10.7071 9.70711L11 9.41421V11H7.41421L7.70711 10.7071C8.09763 10.3166 8.09763 9.68342 7.70711 9.29289C7.31658 8.90237 6.68342 8.90237 6.29289 9.29289L4.29289 11.2929C3.90237 11.6834 3.90237 12.3166 4.29289 12.7071L6.29289 14.7071C6.68342 15.0976 7.31658 15.0976 7.70711 14.7071C8.09763 14.3166 8.09763 13.6834 7.70711 13.2929L7.41421 13H11V14.5858L10.7071 14.2929C10.3166 13.9024 9.68342 13.9024 9.29289 14.2929C8.90237 14.6834 8.90237 15.3166 9.29289 15.7071L11.2929 17.7071C11.6834 18.0976 12.3166 18.0976 12.7071 17.7071L14.7071 15.7071C15.0976 15.3166 15.0976 14.6834 14.7071 14.2929C14.3166 13.9024 13.6834 13.9024 13.2929 14.2929L13 14.5858V13H16.5858L16.2929 13.2929C15.9024 13.6834 15.9024 14.3166 16.2929 14.7071C16.6834 15.0976 17.3166 15.0976 17.7071 14.7071L19.7071 12.7071C20.0976 12.3166 20.0976 11.6834 19.7071 11.2929L17.7071 9.29289C17.3166 8.90237 16.6834 8.90237 16.2929 9.29289C15.9024 9.68342 15.9024 10.3166 16.2929 10.7071L16.5858 11H13V9.41421L13.2929 9.70711C13.6834 10.0976 14.3166 10.0976 14.7071 9.70711C15.0976 9.31658 15.0976 8.68342 14.7071 8.29289L12.7071 6.29289Z" fill="currentColor"/>
</svg>
