<svg width="24" height="24" viewBox="0 0 24 24" fill="none" xmlns="http://www.w3.org/2000/svg">
<path fill-rule="evenodd" clip-rule="evenodd" d="M1 7C1 4.79086 2.79086 3 5 3H19C21.2091 3 23 4.79086 23 7V17C23 19.2091 21.2091 21 19 21H5C2.79086 21 1 19.2091 1 17V7ZM5 5C3.89543 5 3 5.89543 3 7V17C3 18.1046 3.89543 19 5 19H19C20.1046 19 21 18.1046 21 17V7C21 5.89543 20.1046 5 19 5H5ZM4 8C4 6.89543 4.89543 6 6 6H8C8.55228 6 9 6.44772 9 7C9 7.55228 8.55228 8 8 8H6V10C6 10.5523 5.55228 11 5 11C4.44772 11 4 10.5523 4 10V8ZM6 14C6 13.4477 5.55228 13 5 13C4.44772 13 4 13.4477 4 14V16C4 17.1046 4.89543 18 6 18H8C8.55228 18 9 17.5523 9 17C9 16.4477 8.55228 16 8 16H6V14ZM19 13C19.5523 13 20 13.4477 20 14V16C20 17.1046 19.1046 18 18 18H16C15.4477 18 15 17.5523 15 17C15 16.4477 15.4477 16 16 16H18V14C18 13.4477 18.4477 13 19 13ZM16 6C15.4477 6 15 6.44772 15 7C15 7.55228 15.4477 8 16 8H18V10C18 10.5523 18.4477 11 19 11C19.5523 11 20 10.5523 20 10V8C20 6.89543 19.1046 6 18 6H16Z" fill="currentColor"/>
</svg>
