<svg width="24" height="24" viewBox="0 0 24 24" fill="none" xmlns="http://www.w3.org/2000/svg">
<path fill-rule="evenodd" clip-rule="evenodd" d="M4.4 1C3.6268 1 3 1.6268 3 2.4V3.6C3 4.3732 3.6268 5 4.4 5H19.6C20.3732 5 21 4.3732 21 3.6V2.4C21 1.6268 20.3732 1 19.6 1H4.4ZM4.4 7C3.6268 7 3 7.6268 3 8.4V9.6C3 10.3732 3.6268 11 4.4 11H19.6C20.3732 11 21 10.3732 21 9.6V8.4C21 7.6268 20.3732 7 19.6 7H4.4ZM3 14.4C3 13.6268 3.6268 13 4.4 13H19.6C20.3732 13 21 13.6268 21 14.4V15.6C21 16.3732 20.3732 17 19.6 17H4.4C3.6268 17 3 16.3732 3 15.6V14.4ZM4.4 19C3.6268 19 3 19.6268 3 20.4V21.6C3 22.3732 3.6268 23 4.4 23H19.6C20.3732 23 21 22.3732 21 21.6V20.4C21 19.6268 20.3732 19 19.6 19H4.4Z" fill="currentColor"/>
</svg>
