<svg width="24" height="24" viewBox="0 0 24 24" fill="none" xmlns="http://www.w3.org/2000/svg">
<path fill-rule="evenodd" clip-rule="evenodd" d="M3 3C3 1.89543 3.89543 1 5 1H19C20.1046 1 21 1.89543 21 3V5C21 6.10457 20.1046 7 19 7H5C3.89543 7 3 6.10457 3 5V3ZM3 11C3 9.89543 3.89543 9 5 9H19C20.1046 9 21 9.89543 21 11V13C21 14.1046 20.1046 15 19 15H5C3.89543 15 3 14.1046 3 13V11ZM5 17C3.89543 17 3 17.8954 3 19V21C3 22.1046 3.89543 23 5 23H19C20.1046 23 21 22.1046 21 21V19C21 17.8954 20.1046 17 19 17H5Z" fill="currentColor"/>
</svg>
