<svg width="24" height="24" viewBox="0 0 24 24" fill="none" xmlns="http://www.w3.org/2000/svg">
<path fill-rule="evenodd" clip-rule="evenodd" d="M4 3C2.34315 3 1 4.34315 1 6V18C1 19.6569 2.34315 21 4 21H20C21.6569 21 23 19.6569 23 18V6C23 4.34315 21.6569 3 20 3H4ZM3 6C3 5.44772 3.44772 5 4 5H13V19H4C3.44772 19 3 18.5523 3 18V6ZM21 12C21 12.5523 20.5523 13 20 13H16C15.4477 13 15 12.5523 15 12C15 11.4477 15.4477 11 16 11H20C20.5523 11 21 11.4477 21 12ZM21 16C21 15.4477 20.5523 15 20 15H16C15.4477 15 15 15.4477 15 16C15 16.5523 15.4477 17 16 17H20C20.5523 17 21 16.5523 21 16ZM21 8C21 7.44772 20.5523 7 20 7H16C15.4477 7 15 7.44772 15 8C15 8.55228 15.4477 9 16 9H20C20.5523 9 21 8.55228 21 8Z" fill="currentColor"/>
</svg>
