<svg width="24" height="24" viewBox="0 0 24 24" fill="none" xmlns="http://www.w3.org/2000/svg">
<path fill-rule="evenodd" clip-rule="evenodd" d="M4 3C2.34315 3 1 4.34315 1 6V18C1 19.6569 2.34315 21 4 21H20C21.6569 21 23 19.6569 23 18V6C23 4.34315 21.6569 3 20 3H4ZM11 19H20C20.5523 19 21 18.5523 21 18V6C21 5.44772 20.5523 5 20 5H11V19ZM3 8C3 8.55228 3.44772 9 4 9H8C8.55228 9 9 8.55228 9 8C9 7.44772 8.55228 7 8 7H4C3.44772 7 3 7.44772 3 8ZM3 12C3 12.5523 3.44772 13 4 13H8C8.55228 13 9 12.5523 9 12C9 11.4477 8.55228 11 8 11H4C3.44772 11 3 11.4477 3 12ZM4 15C3.44772 15 3 15.4477 3 16C3 16.5523 3.44772 17 4 17H8C8.55228 17 9 16.5523 9 16C9 15.4477 8.55228 15 8 15H4Z" fill="currentColor"/>
</svg>
