<svg width="24" height="24" viewBox="0 0 24 24" fill="none" xmlns="http://www.w3.org/2000/svg">
<path fill-rule="evenodd" clip-rule="evenodd" d="M4 3C2.34315 3 1 4.34315 1 6V18C1 19.6569 2.34315 21 4 21H20C21.6569 21 23 19.6569 23 18V6C23 4.34315 21.6569 3 20 3H4ZM3 6C3 5.44772 3.44772 5 4 5H13V19H4C3.44772 19 3 18.5523 3 18V6ZM18.1913 9.53807C18.3782 9.61547 18.5 9.79778 18.5 10V14C18.5 14.2022 18.3782 14.3846 18.1913 14.462C18.0045 14.5393 17.7894 14.4966 17.6464 14.3536L15.6464 12.3536C15.4512 12.1583 15.4512 11.8417 15.6464 11.6465L17.6464 9.64646C17.7894 9.50346 18.0045 9.46068 18.1913 9.53807Z" fill="currentColor"/>
</svg>
