<svg width="24" height="24" viewBox="0 0 24 24" fill="none" xmlns="http://www.w3.org/2000/svg">
<path fill-rule="evenodd" clip-rule="evenodd" d="M4 3C2.34315 3 1 4.34315 1 6V18C1 19.6569 2.34315 21 4 21H20C21.6569 21 23 19.6569 23 18V6C23 4.34315 21.6569 3 20 3H4ZM3 6C3 5.44772 3.44772 5 4 5H13V19H4C3.44772 19 3 18.5523 3 18V6ZM16.8087 9.53807C16.9955 9.46068 17.2106 9.50346 17.3536 9.64646L19.3536 11.6465C19.5488 11.8417 19.5488 12.1583 19.3536 12.3536L17.3536 14.3536C17.2106 14.4966 16.9955 14.5393 16.8087 14.462C16.6218 14.3846 16.5 14.2022 16.5 14V10C16.5 9.79778 16.6218 9.61547 16.8087 9.53807Z" fill="currentColor"/>
</svg>
