<svg width="24" height="24" viewBox="0 0 24 24" fill="none" xmlns="http://www.w3.org/2000/svg">
<path fill-rule="evenodd" clip-rule="evenodd" d="M3 2C2.44772 2 2 2.44772 2 3C2 3.55228 2.44772 4 3 4H21C21.5523 4 22 3.55228 22 3C22 2.44772 21.5523 2 21 2H3ZM6.12473 6.21913C5.75951 5.92696 5.24056 5.92696 4.87534 6.21913L2.37534 8.21913C1.94408 8.56414 1.87416 9.19343 2.21917 9.62469C2.56418 10.056 3.19347 10.1259 3.62473 9.78087L4.5 9.08065V14.9194L3.62473 14.2192C3.19347 13.8742 2.56418 13.9441 2.21917 14.3753C1.87416 14.8066 1.94408 15.4359 2.37534 15.7809L4.87534 17.7809C5.24056 18.0731 5.75951 18.0731 6.12473 17.7809L8.62473 15.7809C9.05599 15.4359 9.12592 14.8066 8.78091 14.3753C8.4359 13.9441 7.8066 13.8742 7.37534 14.2192L6.5 14.9194V9.0806L7.37534 9.78087C7.8066 10.1259 8.4359 10.056 8.78091 9.62469C9.12592 9.19343 9.05599 8.56414 8.62473 8.21913L6.12473 6.21913ZM2 21C2 20.4477 2.44772 20 3 20H21C21.5523 20 22 20.4477 22 21C22 21.5523 21.5523 22 21 22H3C2.44772 22 2 21.5523 2 21ZM12 6C10.8954 6 10 6.89543 10 8V16C10 17.1046 10.8954 18 12 18H20C21.1046 18 22 17.1046 22 16V8C22 6.89543 21.1046 6 20 6H12Z" fill="currentColor"/>
</svg>
