<svg width="24" height="24" viewBox="0 0 24 24" fill="none" xmlns="http://www.w3.org/2000/svg">
<path fill-rule="evenodd" clip-rule="evenodd" d="M21.7071 3.70686C22.0976 4.09739 22.0976 4.73055 21.7071 5.12108C21.3166 5.5116 20.6834 5.5116 20.2929 5.12108L18.8787 3.70686C18.4882 3.31634 18.4882 2.68317 18.8787 2.29265C19.2692 1.90212 19.9024 1.90212 20.2929 2.29265L21.7071 3.70686ZM2.29304 5.12111C1.90252 4.73058 1.90252 4.09742 2.29304 3.70689L3.70726 2.29268C4.09778 1.90215 4.73095 1.90215 5.12147 2.29268C5.512 2.6832 5.512 3.31637 5.12147 3.70689L3.70726 5.12111C3.31673 5.51163 2.68357 5.51163 2.29304 5.12111ZM15 15.9999C15 16.5522 15.4477 16.9999 16 16.9999H18.5858L15.2929 20.2928C15.0069 20.5788 14.9214 21.0089 15.0761 21.3826C15.2309 21.7563 15.5956 21.9999 16 21.9999H21C21.5523 21.9999 22 21.5522 22 20.9999C22 20.4477 21.5523 19.9999 21 19.9999H18.4142L21.7071 16.707C21.9931 16.421 22.0787 15.9909 21.9239 15.6173C21.7691 15.2436 21.4045 14.9999 21 14.9999H16C15.4477 14.9999 15 15.4477 15 15.9999ZM20 12.9999H16C15.5369 12.9999 15.0982 13.1049 14.7066 13.2923C14.5257 13.1117 14.2759 12.9999 14 12.9999H13V8.99994C13 8.44765 12.5523 7.99994 12 7.99994C11.4477 7.99994 11 8.44765 11 8.99994V13.9999C11 14.5522 11.4477 14.9999 12 14.9999H13.1707C13.0602 15.3127 13 15.6493 13 15.9999C13 17.0218 13.5109 17.9244 14.2912 18.4661L13.8787 18.8786C13.3201 19.4372 13.0164 20.179 13.0006 20.938C12.9942 21.2432 13.0344 21.5511 13.1232 21.8511C13.1308 21.8766 13.1387 21.9021 13.147 21.9275C13.1711 22.0016 13.1982 22.0752 13.2284 22.148C13.3367 22.4095 13.4793 22.6498 13.6496 22.8645C13.113 22.9536 12.5619 22.9999 12 22.9999C6.47715 22.9999 2 18.5228 2 12.9999C2 7.47709 6.47715 2.99994 12 2.99994C17.5228 2.99994 22 7.47709 22 12.9999C22 13.057 21.9995 13.114 21.9986 13.1709C21.6834 13.0596 21.3466 12.9999 21 12.9999H20Z" fill="currentColor"/>
</svg>
