<svg width="24" height="24" viewBox="0 0 24 24" fill="none" xmlns="http://www.w3.org/2000/svg">
<path fill-rule="evenodd" clip-rule="evenodd" d="M20.2929 5.12132C20.6834 5.51184 21.3166 5.51184 21.7071 5.12132C22.0976 4.7308 22.0976 4.09763 21.7071 3.70711L20.2929 2.29289C19.9024 1.90237 19.2692 1.90237 18.8787 2.29289C18.4882 2.68342 18.4882 3.31658 18.8787 3.70711L20.2929 5.12132ZM2.29304 5.12135C1.90252 4.73082 1.90252 4.09766 2.29304 3.70714L3.70726 2.29292C4.09778 1.9024 4.73095 1.9024 5.12147 2.29292C5.512 2.68345 5.512 3.31661 5.12147 3.70714L4.62138 4.20723L5.63603 5.22187L5.63604 5.22186L11 10.5858V9.00006C11 8.44777 11.4477 8.00006 12 8.00006C12.5523 8.00006 13 8.44777 13 9.00006V12.5001C13 12.5278 12.9989 12.5553 12.9967 12.5825C12.9967 12.5825 12.9967 12.5825 12.9967 12.5825L13.4176 13.0034C13.4176 13.0034 13.4176 13.0034 13.4176 13.0034C13.4448 13.0012 13.4722 13.0001 13.5 13.0001H15C15.5523 13.0001 16 13.4478 16 14.0001C16 14.4289 15.7301 14.7946 15.3509 14.9368L19.7782 19.364L20.7071 20.293C21.0976 20.6835 21.0976 21.3166 20.7071 21.7072C20.3166 22.0977 19.6834 22.0977 19.2929 21.7072L18.3285 20.7428C17.5735 21.3598 16.731 21.8643 15.8268 22.2388C14.6136 22.7414 13.3132 23 12 23C10.6868 23 9.38642 22.7414 8.17316 22.2388C6.95991 21.7363 5.85752 20.9997 4.92893 20.0711C4.00035 19.1425 3.26375 18.0401 2.7612 16.8269C2.25866 15.6136 2 14.3133 2 13C2 11.6868 2.25866 10.3865 2.76121 9.1732C3.13571 8.26906 3.6402 7.42649 4.25726 6.67153L2.99997 5.41424C2.74411 5.4142 2.48826 5.31657 2.29304 5.12135ZM13.2828 3.08257C11.7744 2.88761 10.2508 3.04029 8.8253 3.51768C8.3016 3.69306 8.01923 4.25977 8.19461 4.78347C8.36999 5.30717 8.9367 5.58954 9.4604 5.41416C10.6009 5.03223 11.8198 4.91011 13.0264 5.06607C14.777 5.29235 16.4037 6.09127 17.6529 7.33837C18.9021 8.58547 19.7038 10.2107 19.9331 11.961C20.0912 13.1678 19.971 14.3873 19.5907 15.5288C19.4162 16.0527 19.6994 16.619 20.2234 16.7936C20.7474 16.9681 21.3137 16.6849 21.4882 16.1609C21.9636 14.7341 22.1138 13.2097 21.9162 11.7012C21.6296 9.51339 20.6274 7.48182 19.0659 5.92295C17.5043 4.36407 15.4711 3.36542 13.2828 3.08257Z" fill="currentColor"/>
</svg>
