<svg width="24" height="24" viewBox="0 0 24 24" fill="none" xmlns="http://www.w3.org/2000/svg">
<path fill-rule="evenodd" clip-rule="evenodd" d="M2.29304 3.70686C1.90252 4.09739 1.90252 4.73055 2.29304 5.12108C2.68357 5.5116 3.31673 5.5116 3.70726 5.12108L5.12147 3.70686C5.512 3.31634 5.512 2.68317 5.12147 2.29265C4.73095 1.90212 4.09778 1.90212 3.70726 2.29265L2.29304 3.70686ZM4 12.9999C4 8.58163 7.58172 4.99991 12 4.99991C16.4183 4.99991 20 8.58163 20 12.9999C20 17.4182 16.4183 20.9999 12 20.9999C7.58172 20.9999 4 17.4182 4 12.9999ZM12 2.99991C6.47715 2.99991 2 7.47706 2 12.9999C2 18.5228 6.47715 22.9999 12 22.9999C17.5228 22.9999 22 18.5228 22 12.9999C22 7.47706 17.5228 2.99991 12 2.99991ZM21.7071 5.12117C21.3166 5.51169 20.6834 5.51169 20.2929 5.12117L18.8787 3.70696C18.4882 3.31643 18.4882 2.68327 18.8787 2.29274C19.2692 1.90222 19.9024 1.90222 20.2929 2.29274L21.7071 3.70696C22.0976 4.09748 22.0976 4.73064 21.7071 5.12117ZM13 8.99991C13 8.44762 12.5523 7.99991 12 7.99991C11.4477 7.99991 11 8.44762 11 8.99991V13.9999C11 14.5522 11.4477 14.9999 12 14.9999H15C15.5523 14.9999 16 14.5522 16 13.9999C16 13.4476 15.5523 12.9999 15 12.9999H13V8.99991Z" fill="currentColor"/>
</svg>
