<svg width="24" height="24" viewBox="0 0 24 24" fill="none" xmlns="http://www.w3.org/2000/svg">
<path fill-rule="evenodd" clip-rule="evenodd" d="M20.2929 5.12132L18.8787 3.70711C18.4882 3.31658 18.4882 2.68342 18.8787 2.29289C19.2692 1.90237 19.9024 1.90237 20.2929 2.29289L21.7071 3.70711C22.0976 4.09763 22.0976 4.7308 21.7071 5.12132C21.3166 5.51184 20.6834 5.51184 20.2929 5.12132ZM2.29304 3.70714C1.90252 4.09766 1.90252 4.73082 2.29304 5.12135C2.68357 5.51187 3.31673 5.51187 3.70726 5.12135L5.12147 3.70714C5.512 3.31661 5.512 2.68345 5.12147 2.29292C4.73095 1.9024 4.09778 1.9024 3.70726 2.29292L2.29304 3.70714ZM13 10.0001C13 9.44777 12.5523 9.00006 12 9.00006C11.4477 9.00006 11 9.44777 11 10.0001V12.0001H9C8.44772 12.0001 8 12.4478 8 13.0001C8 13.5523 8.44772 14.0001 9 14.0001H11V16.0001C11 16.5523 11.4477 17.0001 12 17.0001C12.5523 17.0001 13 16.5523 13 16.0001V14.0001H15C15.5523 14.0001 16 13.5523 16 13.0001C16 12.4478 15.5523 12.0001 15 12.0001H13V10.0001ZM12 3.00006C6.47715 3.00006 2 7.47721 2 13.0001C2 18.5229 6.47715 23.0001 12 23.0001C17.5228 23.0001 22 18.5229 22 13.0001C22 7.47721 17.5228 3.00006 12 3.00006Z" fill="currentColor"/>
</svg>
