<svg width="24" height="24" viewBox="0 0 24 24" fill="none" xmlns="http://www.w3.org/2000/svg">
<path fill-rule="evenodd" clip-rule="evenodd" d="M20.2929 5.12132C20.6834 5.51184 21.3166 5.51184 21.7071 5.12132C22.0976 4.7308 22.0976 4.09763 21.7071 3.70711L20.2929 2.29289C19.9024 1.90237 19.2692 1.90237 18.8787 2.29289C18.4882 2.68342 18.4882 3.31658 18.8787 3.70711L20.2929 5.12132ZM2.29304 5.12135C1.90252 4.73082 1.90252 4.09766 2.29304 3.70714L3.70726 2.29292C4.09778 1.9024 4.73095 1.9024 5.12147 2.29292C5.512 2.68345 5.512 3.31661 5.12147 3.70714L3.70726 5.12135C3.31673 5.51187 2.68357 5.51187 2.29304 5.12135ZM10.0491 3.19221C11.9889 2.80636 13.9996 3.00439 15.8268 3.76127C17.6541 4.51814 19.2159 5.79987 20.3147 7.44436C21.4135 9.08885 22 11.0223 22 13.0001C22 13.5523 21.5523 14.0001 21 14.0001C20.4477 14.0001 20 13.5523 20 13.0001C20 11.4178 19.5308 9.87109 18.6518 8.5555C17.7727 7.23991 16.5233 6.21453 15.0615 5.60903C13.5997 5.00353 11.9911 4.8451 10.4393 5.15378C8.88743 5.46246 7.46197 6.22439 6.34315 7.34321C5.22433 8.46203 4.4624 9.88749 4.15372 11.4393C3.84504 12.9912 4.00347 14.5997 4.60897 16.0615C5.21447 17.5233 6.23985 18.7728 7.55544 19.6518C8.87104 20.5309 10.4178 21.0001 12 21.0001C12.5523 21.0001 13 21.4478 13 22.0001C13 22.5523 12.5523 23.0001 12 23.0001C10.0222 23.0001 8.08879 22.4136 6.4443 21.3148C4.79981 20.2159 3.51809 18.6542 2.76121 16.8269C2.00433 14.9996 1.8063 12.989 2.19215 11.0492C2.578 9.10935 3.53041 7.32752 4.92894 5.92899C6.32746 4.53047 8.10929 3.57806 10.0491 3.19221ZM16 17.0001C15.4477 17.0001 15 16.5523 15 16.0001C15 15.4478 15.4477 15.0001 16 15.0001H21C21.4045 15.0001 21.7691 15.2437 21.9239 15.6174C22.0787 15.991 21.9931 16.4212 21.7071 16.7072L18.4142 20.0001H21C21.5523 20.0001 22 20.4478 22 21.0001C22 21.5523 21.5523 22.0001 21 22.0001H16C15.5956 22.0001 15.2309 21.7564 15.0761 21.3827C14.9214 21.0091 15.0069 20.5789 15.2929 20.293L18.5858 17.0001H16ZM13 9.00006C13 8.44777 12.5523 8.00006 12 8.00006C11.4477 8.00006 11 8.44777 11 9.00006V14.0001C11 14.5523 11.4477 15.0001 12 15.0001H14C14.5523 15.0001 15 14.5523 15 14.0001C15 13.4478 14.5523 13.0001 14 13.0001H13V9.00006Z" fill="currentColor"/>
</svg>
