<svg width="24" height="24" viewBox="0 0 24 24" fill="none" xmlns="http://www.w3.org/2000/svg">
<path d="M21.7071 5.12132C22.0976 4.7308 22.0976 4.09763 21.7071 3.70711L20.2929 2.29289C19.9024 1.90237 19.2692 1.90237 18.8787 2.29289C18.4882 2.68342 18.4882 3.31658 18.8787 3.70711L20.2929 5.12132C20.6834 5.51184 21.3166 5.51184 21.7071 5.12132Z" fill="currentColor"/>
<path d="M2.29304 3.70714C1.90252 4.09766 1.90252 4.73082 2.29304 5.12135C2.68357 5.51187 3.31673 5.51187 3.70726 5.12135L5.12147 3.70714C5.512 3.31661 5.512 2.68345 5.12147 2.29292C4.73095 1.9024 4.09778 1.9024 3.70726 2.29292L2.29304 3.70714Z" fill="currentColor"/>
<path fill-rule="evenodd" clip-rule="evenodd" d="M12 3.00006C6.47715 3.00006 2 7.47721 2 13.0001C2 18.5229 6.47715 23.0001 12 23.0001C17.5228 23.0001 22 18.5229 22 13.0001C22 7.47721 17.5228 3.00006 12 3.00006ZM15.9571 11.7072C16.3476 11.3166 16.3476 10.6835 15.9571 10.293C15.5666 9.90243 14.9334 9.90243 14.5429 10.293L10.75 14.0858L9.45711 12.793C9.06658 12.4024 8.43342 12.4024 8.04289 12.793C7.65237 13.1835 7.65237 13.8166 8.04289 14.2072L10.0429 16.2072C10.4334 16.5977 11.0666 16.5977 11.4571 16.2072L15.9571 11.7072Z" fill="currentColor"/>
</svg>
