<svg width="24" height="24" viewBox="0 0 24 24" fill="none" xmlns="http://www.w3.org/2000/svg">
<path fill-rule="evenodd" clip-rule="evenodd" d="M20.2929 4.12132L18.8787 2.70711C18.4882 2.31658 18.4882 1.68342 18.8787 1.29289C19.2692 0.902369 19.9024 0.902369 20.2929 1.29289L21.7071 2.70711C22.0976 3.09763 22.0976 3.7308 21.7071 4.12132C21.3166 4.51184 20.6834 4.51184 20.2929 4.12132ZM2.29304 2.70714C1.90252 3.09766 1.90252 3.73082 2.29304 4.12135C2.68357 4.51187 3.31673 4.51187 3.70726 4.12135L5.12147 2.70714C5.512 2.31661 5.512 1.68345 5.12147 1.29292C4.73095 0.902398 4.09778 0.902398 3.70726 1.29292L2.29304 2.70714ZM8 12.0001C8 11.4478 8.44772 11.0001 9 11.0001H15C15.5523 11.0001 16 11.4478 16 12.0001C16 12.5523 15.5523 13.0001 15 13.0001H9C8.44772 13.0001 8 12.5523 8 12.0001ZM12 2.00006C6.47715 2.00006 2 6.47721 2 12.0001C2 17.5229 6.47715 22.0001 12 22.0001C17.5228 22.0001 22 17.5229 22 12.0001C22 6.47721 17.5228 2.00006 12 2.00006Z" fill="currentColor"/>
</svg>
