<svg width="24" height="24" viewBox="0 0 24 24" fill="none" xmlns="http://www.w3.org/2000/svg">
<path fill-rule="evenodd" clip-rule="evenodd" d="M2.29304 3.70686C1.90252 4.09739 1.90252 4.73055 2.29304 5.12108C2.48823 5.31626 2.74403 5.41389 2.99985 5.41397L19.2929 21.707C19.6834 22.0975 20.3166 22.0975 20.7071 21.707C21.0976 21.3165 21.0976 20.6833 20.7071 20.2928L15.3509 14.9366C15.7301 14.7945 16 14.4287 16 13.9999C16 13.4476 15.5523 12.9999 15 12.9999H13.5C13.4722 12.9999 13.4447 13.001 13.4176 13.0033L12.9967 12.5823C12.9989 12.5552 13 12.5277 13 12.4999V8.99991C13 8.44762 12.5523 7.99991 12 7.99991C11.4477 7.99991 11 8.44762 11 8.99991V10.5857L4.62132 4.20701L5.12147 3.70686C5.512 3.31634 5.512 2.68317 5.12147 2.29265C4.73095 1.90212 4.09778 1.90212 3.70726 2.29265L2.29304 3.70686ZM21.7071 5.12117C21.3166 5.51169 20.6834 5.51169 20.2929 5.12117L18.8787 3.70696C18.4882 3.31643 18.4882 2.68327 18.8787 2.29274C19.2692 1.90222 19.9024 1.90222 20.2929 2.29274L21.7071 3.70696C22.0976 4.09748 22.0976 4.73064 21.7071 5.12117ZM2 12.9999C2 10.6832 2.80385 8.4495 4.25708 6.67154L5.68022 8.09468C4.59691 9.49035 4 11.2143 4 12.9999C4 15.1216 4.84285 17.1564 6.34315 18.6567C7.84344 20.157 9.87827 20.9999 12 20.9999C13.7855 20.9999 15.5095 20.403 16.9052 19.3196L18.3283 20.7428C16.5504 22.196 14.3166 22.9999 12 22.9999C9.34784 22.9999 6.8043 21.9463 4.92893 20.0709C3.05357 18.1956 2 15.652 2 12.9999ZM13.2808 3.08242C11.7725 2.88746 10.2489 3.04014 8.82335 3.51753C8.29965 3.6929 8.01728 4.25962 8.19265 4.78332C8.36803 5.30702 8.93475 5.58939 9.45845 5.41401C10.5989 5.03208 11.8178 4.90996 13.0245 5.06592C14.7751 5.2922 16.4017 6.09112 17.6509 7.33822C18.9002 8.58532 19.7019 10.2106 19.9312 11.9608C20.0893 13.1676 19.9691 14.3871 19.5888 15.5286C19.4142 16.0526 19.6975 16.6189 20.2215 16.7934C20.7454 16.968 21.3117 16.6847 21.4863 16.1608C21.9616 14.734 22.1118 13.2096 21.9142 11.701C21.6276 9.51324 20.6255 7.48167 19.0639 5.9228C17.5024 4.36392 15.4691 3.36527 13.2808 3.08242Z" fill="currentColor"/>
</svg>
