<svg width="24" height="24" viewBox="0 0 24 24" fill="none" xmlns="http://www.w3.org/2000/svg">
<path fill-rule="evenodd" clip-rule="evenodd" d="M2.29304 5.12108C1.90252 4.73055 1.90252 4.09739 2.29304 3.70686L3.70726 2.29265C4.09778 1.90212 4.73095 1.90212 5.12147 2.29265C5.512 2.68317 5.512 3.31634 5.12147 3.70686L3.70726 5.12108C3.31673 5.5116 2.68357 5.5116 2.29304 5.12108ZM4 12.9999C4 8.58163 7.58172 4.99991 12 4.99991C16.4183 4.99991 20 8.58163 20 12.9999C20 17.4182 16.4183 20.9999 12 20.9999C7.58172 20.9999 4 17.4182 4 12.9999ZM12 2.99991C6.47715 2.99991 2 7.47706 2 12.9999C2 18.5228 6.47715 22.9999 12 22.9999C17.5228 22.9999 22 18.5228 22 12.9999C22 7.47706 17.5228 2.99991 12 2.99991ZM9 11.9999C8.44772 11.9999 8 12.4476 8 12.9999C8 13.5522 8.44772 13.9999 9 13.9999H15C15.5523 13.9999 16 13.5522 16 12.9999C16 12.4476 15.5523 11.9999 15 11.9999H9ZM20.2929 5.12117C20.6834 5.51169 21.3166 5.51169 21.7071 5.12117C22.0976 4.73064 22.0976 4.09748 21.7071 3.70696L20.2929 2.29274C19.9024 1.90222 19.2692 1.90222 18.8787 2.29274C18.4882 2.68327 18.4882 3.31643 18.8787 3.70696L20.2929 5.12117Z" fill="currentColor"/>
</svg>
