<svg width="24" height="24" viewBox="0 0 24 24" fill="none" xmlns="http://www.w3.org/2000/svg">
<path fill-rule="evenodd" clip-rule="evenodd" d="M15 5V6C15 6.55228 15.4477 7 16 7C16.5523 7 17 6.55228 17 6V5H19C19.5523 5 20 5.44772 20 6V9H15.71H13.3047L14.9279 10.6232C14.9747 10.6819 15.0281 10.7353 15.0868 10.7821L22 17.6953V10V6C22 4.34315 20.6569 3 19 3H17V2C17 1.44772 16.5523 1 16 1C15.4477 1 15 1.44772 15 2V3H7.30469L9.30469 5H15ZM2 10V6C2 5.27705 2.25572 4.61383 2.68165 4.09586L1.29289 2.70711C0.902369 2.31658 0.902369 1.68342 1.29289 1.29289C1.68342 0.902369 2.31658 0.902369 2.70711 1.29289L22.7071 21.2929C23.0976 21.6834 23.0976 22.3166 22.7071 22.7071C22.3166 23.0976 21.6834 23.0976 21.2929 22.7071L20.9041 22.3184C20.3862 22.7443 19.7229 23 19 23H5C3.34315 23 2 21.6569 2 20V10ZM17.0995 18.5137L15.632 17.0462C15.582 17.4764 15.4964 17.8067 15.3749 18.0371C15.1758 18.4282 14.8629 18.6238 14.4362 18.6238C14.0095 18.6238 13.6931 18.4282 13.4869 18.0371C13.2878 17.646 13.1882 16.9669 13.1882 15.9998C13.1882 15.4794 13.217 15.0425 13.2747 14.6889L11.8692 13.2834C11.5183 13.9146 11.3429 14.82 11.3429 15.9998C11.3429 17.4149 11.5953 18.4353 12.1002 19.0611C12.6122 19.6869 13.3909 19.9998 14.4362 19.9998C15.4815 19.9998 16.2567 19.6869 16.7615 19.0611C16.8904 18.9036 17.003 18.7211 17.0995 18.5137ZM7.58579 9L4.11665 5.53086C4.04219 5.67077 4 5.83046 4 6V9H7.58579ZM6.53221 14.8371L6.68154 15.2424C6.73132 15.3776 6.82732 15.4629 6.96954 15.4984C7.11176 15.5269 7.23265 15.4913 7.33221 15.3918L8.61221 14.2078H8.62288H8.63354V19.2851C8.63354 19.4487 8.69043 19.5909 8.80421 19.7118C8.9251 19.8327 9.06732 19.8931 9.23088 19.8931H9.91354C10.0842 19.8931 10.2264 19.8327 10.3402 19.7118C10.454 19.5909 10.5109 19.4487 10.5109 19.2851V12.7144C10.5109 12.5509 10.454 12.4087 10.3402 12.2878C10.2264 12.1669 10.0842 12.1064 9.91354 12.1064H9.23088C8.83977 12.1064 8.49132 12.2451 8.18554 12.5224L6.75621 13.8664C6.62821 13.9873 6.54288 14.1367 6.50021 14.3144C6.45754 14.4922 6.46821 14.6664 6.53221 14.8371Z" fill="currentColor"/>
</svg>
