<svg width="24" height="24" viewBox="0 0 24 24" fill="none" xmlns="http://www.w3.org/2000/svg">
<path fill-rule="evenodd" clip-rule="evenodd" d="M9 2C9 1.44772 8.55228 1 8 1C7.44772 1 7 1.44772 7 2V3H5C3.34315 3 2 4.34315 2 6V10V20C2 21.6569 3.34315 23 5 23H12.5C13.0523 23 13.5 22.5523 13.5 22C13.5 21.4477 13.0523 21 12.5 21H5C4.44772 21 4 20.5523 4 20V11H20V12.5C20 13.0523 20.4477 13.5 21 13.5C21.5523 13.5 22 13.0523 22 12.5V10V6C22 4.34315 20.6569 3 19 3H17V2C17 1.44772 16.5523 1 16 1C15.4477 1 15 1.44772 15 2V3H9V2ZM7 5V6C7 6.55228 7.44772 7 8 7C8.55228 7 9 6.55228 9 6V5H15V6C15 6.55228 15.4477 7 16 7C16.5523 7 17 6.55228 17 6V5H19C19.5523 5 20 5.44772 20 6V9H4V6C4 5.44772 4.44772 5 5 5H7ZM21.7071 15.7929C22.0976 16.1834 22.0976 16.8166 21.7071 17.2071L20.1642 18.75L21.7071 20.2929C22.0976 20.6834 22.0976 21.3166 21.7071 21.7071C21.3166 22.0976 20.6834 22.0976 20.2929 21.7071L18.75 20.1642L17.2071 21.7071C16.8166 22.0976 16.1834 22.0976 15.7929 21.7071C15.4024 21.3166 15.4024 20.6834 15.7929 20.2929L17.3358 18.75L15.7929 17.2071C15.4024 16.8166 15.4024 16.1834 15.7929 15.7929C16.1834 15.4024 16.8166 15.4024 17.2071 15.7929L18.75 17.3358L20.2929 15.7929C20.6834 15.4024 21.3166 15.4024 21.7071 15.7929Z" fill="currentColor"/>
</svg>
