<svg width="24" height="24" viewBox="0 0 24 24" fill="none" xmlns="http://www.w3.org/2000/svg">
<path fill-rule="evenodd" clip-rule="evenodd" d="M8 1C8.55229 1 9 1.44772 9 2V3H15V2C15 1.44772 15.4477 1 16 1C16.5523 1 17 1.44772 17 2V3H19C20.6569 3 22 4.34315 22 6V10V20C22 21.6569 20.6569 23 19 23H5C3.34315 23 2 21.6569 2 20V10V6C2 4.34315 3.34315 3 5 3H7V2C7 1.44772 7.44772 1 8 1ZM20 6V9H4V6C4 5.44772 4.44772 5 5 5H7V6C7 6.55228 7.44772 7 8 7C8.55229 7 9 6.55228 9 6V5H15V6C15 6.55228 15.4477 7 16 7C16.5523 7 17 6.55228 17 6V5H19C19.5523 5 20 5.44772 20 6ZM20 11H4V20C4 20.5523 4.44772 21 5 21H19C19.5523 21 20 20.5523 20 20V11ZM15.9571 12.7929C16.3476 13.1834 16.3476 13.8166 15.9571 14.2071L11.4571 18.7071C11.0666 19.0976 10.4334 19.0976 10.0429 18.7071L8.04289 16.7071C7.65237 16.3166 7.65237 15.6834 8.04289 15.2929C8.43342 14.9024 9.06658 14.9024 9.45711 15.2929L10.75 16.5858L14.5429 12.7929C14.9334 12.4024 15.5666 12.4024 15.9571 12.7929Z" fill="currentColor"/>
</svg>
