<svg width="24" height="24" viewBox="0 0 24 24" fill="none" xmlns="http://www.w3.org/2000/svg">
<path fill-rule="evenodd" clip-rule="evenodd" d="M9 2C9 1.44772 8.55228 1 8 1C7.44772 1 7 1.44772 7 2V3H5C3.34315 3 2 4.34315 2 6V10V20C2 21.6569 3.34315 23 5 23H15.6303C15.2653 22.7198 14.8002 22.3277 14.3276 21.8315C13.3556 20.8109 12 18.975 12 16.5C12 14.1103 13.8492 12 16.5 12C17.0635 12 17.5655 12.1068 18 12.2639C18.4345 12.1068 18.9365 12 19.5 12C20.4532 12 21.3028 12.2729 22 12.7335V10V6C22 4.34315 20.6569 3 19 3H17V2C17 1.44772 16.5523 1 16 1C15.4477 1 15 1.44772 15 2V3H9V2ZM7 5V6C7 6.55228 7.44772 7 8 7C8.55228 7 9 6.55228 9 6V5H15V6C15 6.55228 15.4477 7 16 7C16.5523 7 17 6.55228 17 6V5H19C19.5523 5 20 5.44772 20 6V9H4V6C4 5.44772 4.44772 5 5 5H7ZM17.4 22H17.3999L17.9289 21.1185C17.4854 21.8574 17.4845 21.8569 17.4843 21.8567L17.4827 21.8558L17.4788 21.8535L17.4678 21.8467L17.4333 21.8252C17.4049 21.8073 17.3658 21.7823 17.3178 21.7503C17.2217 21.6865 17.0888 21.5947 16.9312 21.4766C16.6178 21.2414 16.1983 20.8957 15.7759 20.4522C14.9519 19.587 14 18.225 14 16.5C14 15.1512 15.0164 14 16.5 14C17.1312 14 17.6416 14.2504 18 14.5046C18.3583 14.2504 18.8688 14 19.5 14C20.9836 14 22 15.1511 22 16.5C22 18.225 21.0481 19.587 20.2241 20.4522C19.8017 20.8957 19.3822 21.2414 19.0687 21.4766C18.9112 21.5947 18.7783 21.6865 18.6822 21.7503C18.6342 21.7823 18.5951 21.8073 18.5667 21.8252L18.5322 21.8467L18.5212 21.8535L18.5173 21.8558L18.5145 21.8575L18.6001 22H18.6L18.5145 21.8575L18.0062 21.0104C18.2587 21.4312 18.3857 21.643 18.4496 21.7496C18.5143 21.8576 18.5143 21.8576 18.5145 21.8575C18.1978 22.0475 17.8022 22.0475 17.4855 21.8575L17.4 22Z" fill="currentColor"/>
</svg>
