<svg width="24" height="24" viewBox="0 0 24 24" fill="none" xmlns="http://www.w3.org/2000/svg">
<path fill-rule="evenodd" clip-rule="evenodd" d="M8 1C8.55229 1 9 1.44772 9 2V3H15V2C15 1.44772 15.4477 1 16 1C16.5523 1 17 1.44772 17 2V3H19C20.6569 3 22 4.34315 22 6V10V20C22 21.6569 20.6569 23 19 23H5C3.34315 23 2 21.6569 2 20V10V6C2 4.34315 3.34315 3 5 3H7V2C7 1.44772 7.44772 1 8 1ZM20 6V9H4V6C4 5.44772 4.44772 5 5 5H7V6C7 6.55228 7.44772 7 8 7C8.55229 7 9 6.55228 9 6V5H15V6C15 6.55228 15.4477 7 16 7C16.5523 7 17 6.55228 17 6V5H19C19.5523 5 20 5.44772 20 6ZM13 13C13 12.4477 12.5523 12 12 12C11.4477 12 11 12.4477 11 13V15H9C8.44772 15 8 15.4477 8 16C8 16.5523 8.44772 17 9 17H11V19C11 19.5523 11.4477 20 12 20C12.5523 20 13 19.5523 13 19V17H15C15.5523 17 16 16.5523 16 16C16 15.4477 15.5523 15 15 15H13V13Z" fill="currentColor"/>
</svg>
