<svg width="24" height="24" viewBox="0 0 24 24" fill="none" xmlns="http://www.w3.org/2000/svg">
<path fill-rule="evenodd" clip-rule="evenodd" d="M8 1C8.55229 1 9 1.44772 9 2V3H15V2C15 1.44772 15.4477 1 16 1C16.5523 1 17 1.44772 17 2V3H19C20.6569 3 22 4.34315 22 6V10V20C22 21.6569 20.6569 23 19 23H5C3.34315 23 2 21.6569 2 20V10V6C2 4.34315 3.34315 3 5 3H7V2C7 1.44772 7.44772 1 8 1ZM20 6V9H4V6C4 5.44772 4.44772 5 5 5H7V6C7 6.55228 7.44772 7 8 7C8.55229 7 9 6.55228 9 6V5H15V6C15 6.55228 15.4477 7 16 7C16.5523 7 17 6.55228 17 6V5H19C19.5523 5 20 5.44772 20 6ZM20 11H4V20C4 20.5523 4.44772 21 5 21H19C19.5523 21 20 20.5523 20 20V11ZM14.4362 13.376C14.8629 13.376 15.1758 13.5716 15.3749 13.9627C15.5811 14.3538 15.6842 15.0329 15.6842 16C15.6842 16.9671 15.5811 17.6462 15.3749 18.0373C15.1758 18.4284 14.8629 18.624 14.4362 18.624C14.0095 18.624 13.6931 18.4284 13.4869 18.0373C13.2878 17.6462 13.1882 16.9671 13.1882 16C13.1882 15.0329 13.2878 14.3538 13.4869 13.9627C13.6931 13.5716 14.0095 13.376 14.4362 13.376ZM14.4362 20C15.4815 20 16.2567 19.6871 16.7615 19.0613C17.2735 18.4356 17.5295 17.4151 17.5295 16C17.5295 14.5849 17.2735 13.5644 16.7615 12.9387C16.2567 12.3129 15.4815 12 14.4362 12C13.3909 12 12.6122 12.3129 12.1002 12.9387C11.5953 13.5644 11.3429 14.5849 11.3429 16C11.3429 17.4151 11.5953 18.4356 12.1002 19.0613C12.6122 19.6871 13.3909 20 14.4362 20ZM6.53221 14.8373L6.68154 15.2427C6.73132 15.3778 6.82732 15.4631 6.96954 15.4987C7.11176 15.5271 7.23265 15.4916 7.33221 15.392L8.61221 14.208H8.62288H8.63354V19.2853C8.63354 19.4489 8.69043 19.5911 8.80421 19.712C8.9251 19.8329 9.06732 19.8933 9.23088 19.8933H9.91354C10.0842 19.8933 10.2264 19.8329 10.3402 19.712C10.454 19.5911 10.5109 19.4489 10.5109 19.2853V12.7147C10.5109 12.5511 10.454 12.4089 10.3402 12.288C10.2264 12.1671 10.0842 12.1067 9.91354 12.1067H9.23088C8.83976 12.1067 8.49132 12.2453 8.18554 12.5227L6.75621 13.8667C6.62821 13.9876 6.54288 14.1369 6.50021 14.3147C6.45754 14.4924 6.46821 14.6667 6.53221 14.8373Z" fill="currentColor"/>
</svg>
