<svg width="24" height="24" viewBox="0 0 24 24" fill="none" xmlns="http://www.w3.org/2000/svg">
<path fill-rule="evenodd" clip-rule="evenodd" d="M9 2C9 1.44772 8.55228 1 8 1C7.44772 1 7 1.44772 7 2V3H5C3.34315 3 2 4.34315 2 6V10V20C2 21.6569 3.34315 23 5 23H13C13.5523 23 14 22.5523 14 22C14 21.4477 13.5523 21 13 21H5C4.44772 21 4 20.5523 4 20V11H20C20 11.5523 20.4477 12 21 12C21.5523 12 22 11.5523 22 11V10V6C22 4.34315 20.6569 3 19 3H17V2C17 1.44772 16.5523 1 16 1C15.4477 1 15 1.44772 15 2V3H9V2ZM7 5V6C7 6.55228 7.44772 7 8 7C8.55228 7 9 6.55228 9 6V5H15V6C15 6.55228 15.4477 7 16 7C16.5523 7 17 6.55228 17 6V5H19C19.5523 5 20 5.44772 20 6V9H4V6C4 5.44772 4.44772 5 5 5H7Z" fill="currentColor"/>
<path d="M17.4855 21.8575L17.4333 21.8252C17.4049 21.8073 17.3658 21.7823 17.3178 21.7503C17.2217 21.6865 17.0888 21.5947 16.9312 21.4766C16.6178 21.2414 16.1983 20.8957 15.7759 20.4522C14.9519 19.587 14 18.225 14 16.5C14 15.1512 15.0164 14 16.5 14C17.1312 14 17.6416 14.2504 18 14.5046C18.3583 14.2504 18.8688 14 19.5 14C20.9836 14 22 15.1511 22 16.5C22 18.225 21.0481 19.587 20.2241 20.4522C19.8017 20.8957 19.3822 21.2414 19.0687 21.4766C18.9112 21.5947 18.7783 21.6865 18.6822 21.7503L18.5145 21.8575C18.1978 22.0475 17.8022 22.0475 17.4855 21.8575Z" fill="currentColor"/>
</svg>
