<svg width="24" height="24" viewBox="0 0 24 24" fill="none" xmlns="http://www.w3.org/2000/svg">
<path fill-rule="evenodd" clip-rule="evenodd" d="M8 1C8.55228 1 9 1.44772 9 2V3H15V2C15 1.44772 15.4477 1 16 1C16.5523 1 17 1.44772 17 2V3H19C20.6569 3 22 4.34315 22 6V10V13.6708C20.9447 13.2987 19.7228 13.5346 18.8787 14.3787L16.4966 16.7608C15.3186 15.7085 13.5095 15.7478 12.3787 16.8787C11.2071 18.0503 11.2071 19.9497 12.3787 21.1213L14.2574 23H5C3.34315 23 2 21.6569 2 20V10V6C2 4.34315 3.34315 3 5 3H7V2C7 1.44772 7.44772 1 8 1ZM7 6V5H5C4.44772 5 4 5.44772 4 6V9H20V6C20 5.44772 19.5523 5 19 5H17V6C17 6.55228 16.5523 7 16 7C15.4477 7 15 6.55228 15 6V5H9V6C9 6.55228 8.55228 7 8 7C7.44772 7 7 6.55228 7 6ZM6 13C6 12.4477 6.44772 12 7 12H10C10.5523 12 11 12.4477 11 13V15C11 15.5523 10.5523 16 10 16H7C6.44772 16 6 15.5523 6 15V13ZM21.7071 17.2071C22.0976 16.8166 22.0976 16.1834 21.7071 15.7929C21.3166 15.4024 20.6834 15.4024 20.2929 15.7929L16.5 19.5858L15.2071 18.2929C14.8166 17.9024 14.1834 17.9024 13.7929 18.2929C13.4024 18.6834 13.4024 19.3166 13.7929 19.7071L15.7929 21.7071C16.1834 22.0976 16.8166 22.0976 17.2071 21.7071L21.7071 17.2071Z" fill="currentColor"/>
</svg>
