<svg width="24" height="24" viewBox="0 0 24 24" fill="none" xmlns="http://www.w3.org/2000/svg">
<path fill-rule="evenodd" clip-rule="evenodd" d="M8 1C8.55228 1 9 1.44772 9 2V3H15V2C15 1.44772 15.4477 1 16 1C16.5523 1 17 1.44772 17 2V3H19C20.6569 3 22 4.34315 22 6V10V20C22 21.6569 20.6569 23 19 23H5C3.34315 23 2 21.6569 2 20V10V6C2 4.34315 3.34315 3 5 3H7V2C7 1.44772 7.44772 1 8 1ZM20 6V9H4V6C4 5.44772 4.44772 5 5 5H7V6C7 6.55228 7.44772 7 8 7C8.55228 7 9 6.55228 9 6V5H15V6C15 6.55228 15.4477 7 16 7C16.5523 7 17 6.55228 17 6V5H19C19.5523 5 20 5.44772 20 6ZM20 11H4V20C4 20.5523 4.44772 21 5 21H19C19.5523 21 20 20.5523 20 20V11ZM12 17C11.4477 17 11 16.5523 11 16V13.5C11 12.9477 11.4477 12.5 12 12.5C12.5523 12.5 13 12.9477 13 13.5V16C13 16.5523 12.5523 17 12 17ZM11 19C11 18.4477 11.4477 18 12 18C12.5523 18 13 18.4477 13 19C13 19.5523 12.5523 20 12 20C11.4477 20 11 19.5523 11 19Z" fill="currentColor"/>
</svg>
