<svg width="24" height="24" viewBox="0 0 24 24" fill="none" xmlns="http://www.w3.org/2000/svg">
<path fill-rule="evenodd" clip-rule="evenodd" d="M8 1C8.55229 1 9 1.44772 9 2V3H15V2C15 1.44772 15.4477 1 16 1C16.5523 1 17 1.44772 17 2V3H19C20.6569 3 22 4.34315 22 6V10V20C22 21.6569 20.6569 23 19 23H5C3.34315 23 2 21.6569 2 20V10V6C2 4.34315 3.34315 3 5 3H7V2C7 1.44772 7.44772 1 8 1ZM20 6V9H4V6C4 5.44772 4.44772 5 5 5H7V6C7 6.55228 7.44772 7 8 7C8.55229 7 9 6.55228 9 6V5H15V6C15 6.55228 15.4477 7 16 7C16.5523 7 17 6.55228 17 6V5H19C19.5523 5 20 5.44772 20 6ZM14.9571 13.9571C15.3476 13.5666 15.3476 12.9334 14.9571 12.5429C14.5666 12.1524 13.9334 12.1524 13.5429 12.5429L12 14.0858L10.4571 12.5429C10.0666 12.1524 9.43342 12.1524 9.04289 12.5429C8.65237 12.9334 8.65237 13.5666 9.04289 13.9571L10.5858 15.5L9.04289 17.0429C8.65237 17.4334 8.65237 18.0666 9.04289 18.4571C9.43342 18.8476 10.0666 18.8476 10.4571 18.4571L12 16.9142L13.5429 18.4571C13.9334 18.8476 14.5666 18.8476 14.9571 18.4571C15.3476 18.0666 15.3476 17.4334 14.9571 17.0429L13.4142 15.5L14.9571 13.9571Z" fill="currentColor"/>
</svg>
