<svg width="24" height="24" viewBox="0 0 24 24" fill="none" xmlns="http://www.w3.org/2000/svg">
<path fill-rule="evenodd" clip-rule="evenodd" d="M8 1C8.55228 1 9 1.44772 9 2V3H15V2C15 1.44772 15.4477 1 16 1C16.5523 1 17 1.44772 17 2V3H19C20.6569 3 22 4.34315 22 6V10V11C22 11.5523 21.5523 12 21 12C20.4477 12 20 11.5523 20 11H4V20C4 20.5523 4.44772 21 5 21H10.5C11.0523 21 11.5 21.4477 11.5 22C11.5 22.5523 11.0523 23 10.5 23H5C3.34315 23 2 21.6569 2 20V10V6C2 4.34315 3.34315 3 5 3H7V2C7 1.44772 7.44772 1 8 1ZM7 5H5C4.44772 5 4 5.44772 4 6V9H20V6C20 5.44772 19.5523 5 19 5H17V6C17 6.55228 16.5523 7 16 7C15.4477 7 15 6.55228 15 6V5H9V6C9 6.55228 8.55228 7 8 7C7.44772 7 7 6.55228 7 6V5ZM14.3418 17.7578C14.1453 17.9543 13.9984 18.1947 13.9133 18.4592L13.354 20.1975C13.0109 21.2636 14.018 22.2707 15.0841 21.9276L16.8224 21.3683C17.0869 21.2832 17.3273 21.1363 17.5237 20.9398L21.4691 16.9944C22.1525 16.311 22.1525 15.203 21.4691 14.5196L20.762 13.8125C20.0786 13.129 18.9706 13.1291 18.2871 13.8125L14.3418 17.7578ZM15.3412 18.9187C15.3534 18.8809 15.3744 18.8466 15.4024 18.8185L17.7563 16.4646L18.8169 17.5253L16.4631 19.8792C16.435 19.9072 16.4007 19.9282 16.3629 19.9404L14.8565 20.4251L15.3412 18.9187ZM19.8776 16.4646L20.4085 15.9338C20.5061 15.8362 20.5061 15.6779 20.4085 15.5802L19.7014 14.8731C19.6037 14.7755 19.4454 14.7755 19.3478 14.8731L18.8169 15.404L19.8776 16.4646Z" fill="currentColor"/>
</svg>
