<svg width="24" height="24" viewBox="0 0 24 24" fill="none" xmlns="http://www.w3.org/2000/svg">
<path fill-rule="evenodd" clip-rule="evenodd" d="M1.29289 1.29289C1.68342 0.902369 2.31658 0.902369 2.70711 1.29289L10.4142 9H20V6C20 5.44772 19.5523 5 19 5H17V6C17 6.55228 16.5523 7 16 7C15.4477 7 15 6.55228 15 6V5H12H9C8.44772 5 8 4.55228 8 4C8 3.44772 8.44772 3 9 3H12H15V2C15 1.44772 15.4477 1 16 1C16.5523 1 17 1.44772 17 2V3H19C20.6569 3 22 4.34315 22 6V10V16.5C22 17.0523 21.5523 17.5 21 17.5C20.4477 17.5 20 17.0523 20 16.5V11H12.4142L22.7071 21.2929C23.0976 21.6834 23.0976 22.3166 22.7071 22.7071C22.3166 23.0976 21.6834 23.0976 21.2929 22.7071L21.1919 22.6062C20.8591 22.8536 20.4466 23 20 23H5C3.34315 23 2 21.6569 2 20V10V4.75C2 4.3725 2.11953 4.02291 2.32281 3.73702L1.29289 2.70711C0.902369 2.31658 0.902369 1.68342 1.29289 1.29289ZM4 5.41421L7.58579 9H4V5.41421ZM4 11H9.58579L11.8693 13.2835C11.5184 13.9147 11.3429 14.8202 11.3429 16C11.3429 17.4151 11.5953 18.4356 12.1002 19.0614C12.6122 19.6871 13.3909 20 14.4362 20C15.4815 20 16.2567 19.6871 16.7615 19.0614C16.8904 18.9038 17.0031 18.7213 17.0995 18.5137L19.5858 21H5C4.44772 21 4 20.5523 4 20V11ZM15.632 17.0462L13.2747 14.6889C13.217 15.0426 13.1882 15.4796 13.1882 16C13.1882 16.9671 13.2878 17.6462 13.4869 18.0374C13.6931 18.4285 14.0095 18.624 14.4362 18.624C14.8629 18.624 15.1758 18.4285 15.3749 18.0374C15.4964 17.8069 15.5821 17.4766 15.632 17.0462ZM6.68154 15.2427L6.53221 14.8374C6.46821 14.6667 6.45754 14.4925 6.50021 14.3147C6.54288 14.1369 6.62821 13.9876 6.75621 13.8667L8.18554 12.5227C8.49132 12.2454 8.83976 12.1067 9.23088 12.1067H9.91354C10.0842 12.1067 10.2264 12.1671 10.3402 12.288C10.454 12.4089 10.5109 12.5511 10.5109 12.7147V19.2854C10.5109 19.4489 10.454 19.5911 10.3402 19.712C10.2264 19.8329 10.0842 19.8934 9.91354 19.8934H9.23088C9.06732 19.8934 8.9251 19.8329 8.80421 19.712C8.69043 19.5911 8.63354 19.4489 8.63354 19.2854V14.208H8.62288H8.61221L7.33221 15.392C7.23265 15.4916 7.11176 15.5271 6.96954 15.4987C6.82732 15.4631 6.73132 15.3778 6.68154 15.2427Z" fill="currentColor"/>
</svg>
