<svg width="24" height="24" viewBox="0 0 24 24" fill="none" xmlns="http://www.w3.org/2000/svg">
<path fill-rule="evenodd" clip-rule="evenodd" d="M9 2C9 1.44772 8.55228 1 8 1C7.44772 1 7 1.44772 7 2V3H5C3.34315 3 2 4.34315 2 6V10V20C2 21.6569 3.34315 23 5 23H12C12.5523 23 13 22.5523 13 22C13 21.4477 12.5523 21 12 21H5C4.44772 21 4 20.5523 4 20V11H20V13C20 13.5523 20.4477 14 21 14C21.5523 14 22 13.5523 22 13V10V6C22 4.34315 20.6569 3 19 3H17V2C17 1.44772 16.5523 1 16 1C15.4477 1 15 1.44772 15 2V3H9V2ZM7 5V6C7 6.55228 7.44772 7 8 7C8.55228 7 9 6.55228 9 6V5H15V6C15 6.55228 15.4477 7 16 7C16.5523 7 17 6.55228 17 6V5H19C19.5523 5 20 5.44772 20 6V9H4V6C4 5.44772 4.44772 5 5 5H7ZM14 19C14 18.4477 14.4477 18 15 18H17V16C17 15.4477 17.4477 15 18 15C18.5523 15 19 15.4477 19 16V18H21C21.5523 18 22 18.4477 22 19C22 19.5523 21.5523 20 21 20H19V22C19 22.5523 18.5523 23 18 23C17.4477 23 17 22.5523 17 22V20H15C14.4477 20 14 19.5523 14 19Z" fill="currentColor"/>
</svg>
