<svg width="24" height="24" viewBox="0 0 24 24" fill="none" xmlns="http://www.w3.org/2000/svg">
<path fill-rule="evenodd" clip-rule="evenodd" d="M8 1C8.55228 1 9 1.44772 9 2V3H15V2C15 1.44772 15.4477 1 16 1C16.5523 1 17 1.44772 17 2V3H19C20.6569 3 22 4.34315 22 6V10V13.2639C21.4692 12.7889 20.7684 12.5 20 12.5C18.3431 12.5 17 13.8431 17 15.5V18C17 18.5464 17.1461 19.0587 17.4013 19.5C17.1461 19.9413 17 20.4536 17 21C17 21.7684 17.2889 22.4692 17.7639 23H5C3.34315 23 2 21.6569 2 20V10V6C2 4.34315 3.34315 3 5 3H7V2C7 1.44772 7.44772 1 8 1ZM7 6V5H5C4.44772 5 4 5.44772 4 6V9H20V6C20 5.44772 19.5523 5 19 5H17V6C17 6.55228 16.5523 7 16 7C15.4477 7 15 6.55228 15 6V5H9V6C9 6.55228 8.55228 7 8 7C7.44772 7 7 6.55228 7 6ZM19 21C19 20.9435 19.0047 20.8881 19.0137 20.8341C19.0927 20.3608 19.5042 20 20 20C20.4958 20 20.9073 20.3608 20.9863 20.8341C20.9953 20.8881 21 20.9435 21 21C21 21.5523 20.5523 22 20 22C19.4477 22 19 21.5523 19 21ZM20 19C19.4477 19 19 18.5523 19 18V15.5C19 14.9477 19.4477 14.5 20 14.5C20.5523 14.5 21 14.9477 21 15.5V18C21 18.5523 20.5523 19 20 19Z" fill="currentColor"/>
</svg>
