<svg width="24" height="24" viewBox="0 0 24 24" fill="none" xmlns="http://www.w3.org/2000/svg">
<path fill-rule="evenodd" clip-rule="evenodd" d="M8 1C8.55228 1 9 1.44772 9 2V3H15V2C15 1.44772 15.4477 1 16 1C16.5523 1 17 1.44772 17 2V3H19C20.6569 3 22 4.34315 22 6V10V20C22 21.6569 20.6569 23 19 23H5C3.34315 23 2 21.6569 2 20V10V6C2 4.34315 3.34315 3 5 3H7V2C7 1.44772 7.44772 1 8 1ZM20 6V9H4V6C4 5.44772 4.44772 5 5 5H7V6C7 6.55228 7.44772 7 8 7C8.55228 7 9 6.55228 9 6V5H15V6C15 6.55228 15.4477 7 16 7C16.5523 7 17 6.55228 17 6V5H19C19.5523 5 20 5.44772 20 6ZM20 11H4V20C4 20.5523 4.44772 21 5 21H19C19.5523 21 20 20.5523 20 20V11ZM11.4333 19.8252L11.4855 19.8575C11.8022 20.0475 12.1978 20.0475 12.5145 19.8575L12.5173 19.8558L12.5212 19.8535L12.5322 19.8467L12.5667 19.8252C12.5951 19.8073 12.6342 19.7823 12.6822 19.7503C12.7783 19.6865 12.9112 19.5947 13.0687 19.4766C13.3822 19.2414 13.8017 18.8957 14.2241 18.4522C15.0481 17.587 16 16.225 16 14.5C16 13.1511 14.9836 12 13.5 12C12.8688 12 12.3583 12.2504 12 12.5046C11.6416 12.2504 11.1312 12 10.5 12C9.01638 12 8 13.1512 8 14.5C8 16.225 8.95187 17.587 9.77586 18.4522C10.1983 18.8957 10.6178 19.2414 10.9312 19.4766C11.0888 19.5947 11.2217 19.6865 11.3178 19.7503C11.3658 19.7823 11.4049 19.8073 11.4333 19.8252Z" fill="currentColor"/>
</svg>
