<svg width="24" height="24" viewBox="0 0 24 24" fill="none" xmlns="http://www.w3.org/2000/svg">
<path fill-rule="evenodd" clip-rule="evenodd" d="M9.85401 1.21137C11.9878 0.786929 14.1995 1.00477 16.2095 1.83733C18.2195 2.66989 19.9375 4.07979 21.1462 5.88873C22.3549 7.69767 23 9.82441 23 12C23 12.5523 22.5523 13 22 13C21.4477 13 21 12.5523 21 12C21 10.22 20.4722 8.47992 19.4832 6.99987C18.4943 5.51983 17.0887 4.36628 15.4442 3.68509C13.7996 3.0039 11.99 2.82567 10.2442 3.17294C8.49836 3.5202 6.89472 4.37737 5.63604 5.63604C4.37737 6.89472 3.5202 8.49836 3.17294 10.2442C2.82567 11.99 3.0039 13.7996 3.68509 15.4442C4.36628 17.0887 5.51983 18.4943 6.99987 19.4832C8.47992 20.4722 10.22 21 12 21C12.5523 21 13 21.4477 13 22C13 22.5523 12.5523 23 12 23C9.82441 23 7.69767 22.3549 5.88873 21.1462C4.07979 19.9375 2.66989 18.2195 1.83733 16.2095C1.00477 14.1995 0.786929 11.9878 1.21137 9.85401C1.6358 7.72022 2.68345 5.76021 4.22183 4.22183C5.76021 2.68345 7.72022 1.6358 9.85401 1.21137ZM21.7071 15.7929C22.0976 16.1834 22.0976 16.8166 21.7071 17.2071L17.2071 21.7071C16.8166 22.0976 16.1834 22.0976 15.7929 21.7071L13.7929 19.7071C13.4024 19.3166 13.4024 18.6834 13.7929 18.2929C14.1834 17.9024 14.8166 17.9024 15.2071 18.2929L16.5 19.5858L20.2929 15.7929C20.6834 15.4024 21.3166 15.4024 21.7071 15.7929ZM13 7C13 6.44772 12.5523 6 12 6C11.4477 6 11 6.44772 11 7V13C11 13.5523 11.4477 14 12 14H16C16.5523 14 17 13.5523 17 13C17 12.4477 16.5523 12 16 12H13V7Z" fill="currentColor"/>
</svg>
