<svg width="24" height="24" viewBox="0 0 24 24" fill="none" xmlns="http://www.w3.org/2000/svg">
<path fill-rule="evenodd" clip-rule="evenodd" d="M8.15104 1.69559C10.6116 0.776362 13.3199 0.767953 15.7861 1.67189C18.2523 2.57582 20.3137 4.33242 21.5974 6.62402C22.8811 8.91563 23.3025 11.5909 22.7852 14.1662C22.268 16.7414 20.8463 19.0465 18.7772 20.6647C16.7082 22.2829 14.1284 23.1073 11.5044 22.9888C8.88044 22.8703 6.38546 21.8168 4.47068 20.0187C2.55591 18.2207 1.34774 15.7968 1.06467 13.1854C1.00516 12.6364 1.40201 12.143 1.95108 12.0835C2.50015 12.024 2.99351 12.4208 3.05303 12.9699C3.28463 15.1065 4.27312 17.0896 5.83976 18.5608C7.4064 20.0319 9.44775 20.8939 11.5946 20.9908C13.7416 21.0878 15.8523 20.4133 17.5451 19.0893C19.238 17.7654 20.4012 15.8793 20.8244 13.7723C21.2476 11.6653 20.9029 9.47642 19.8526 7.60147C18.8022 5.72653 17.1157 4.28931 15.0978 3.54973C13.08 2.81014 10.8642 2.81702 8.85096 3.56912C7.19245 4.18872 5.76169 5.28039 4.7283 6.69775L5.83504 6.51322C6.3798 6.42239 6.89505 6.79038 6.98588 7.33514C7.07671 7.87991 6.70872 8.39516 6.16396 8.48599L3.16459 8.98608C2.67926 9.067 2.20718 8.78285 2.0515 8.31609L1.05091 5.3161C0.876171 4.79219 1.15923 4.22582 1.68314 4.05108C2.20705 3.87634 2.77342 4.1594 2.94817 4.68331L3.19133 5.41236C4.44781 3.73212 6.16595 2.43719 8.15104 1.69559ZM12 6C12.5523 6 13 6.44772 13 7V12H16C16.5523 12 17 12.4477 17 13C17 13.5523 16.5523 14 16 14H12C11.4477 14 11 13.5523 11 13V7C11 6.44772 11.4477 6 12 6Z" fill="currentColor"/>
</svg>
