<svg width="24" height="24" viewBox="0 0 24 24" fill="none" xmlns="http://www.w3.org/2000/svg">
<path fill-rule="evenodd" clip-rule="evenodd" d="M14.8419 3.46048C13.2743 2.93879 11.5934 2.85866 9.98327 3.22887C8.37315 3.59908 6.89601 4.40535 5.71369 5.55932C4.53138 6.7133 3.68952 8.17046 3.28036 9.77112C2.87121 11.3718 2.91054 13.0542 3.39406 14.634C3.87758 16.2138 4.78662 17.63 6.02158 18.7274C7.25654 19.8249 8.76975 20.5613 10.3954 20.8558C10.9388 20.9543 11.2996 21.4746 11.2011 22.0181C11.1026 22.5615 10.5823 22.9222 10.0388 22.8238C8.05192 22.4638 6.20243 21.5638 4.69304 20.2224C3.18365 18.8811 2.0726 17.1502 1.48163 15.2193C0.890664 13.2885 0.842586 11.2322 1.34266 9.27581C1.84274 7.31945 2.87168 5.53848 4.31673 4.12806C5.76179 2.71765 7.56719 1.73221 9.53511 1.27973C11.503 0.827245 13.5575 0.925185 15.4735 1.56281C17.3894 2.20044 19.0929 3.35315 20.3972 4.89463C21.7016 6.43611 22.5564 8.30688 22.8681 10.3019C22.9534 10.8476 22.5802 11.3591 22.0345 11.4443C21.4888 11.5296 20.9774 11.1563 20.8921 10.6107C20.6371 8.97836 19.9377 7.44773 18.8705 6.18651C17.8033 4.9253 16.4095 3.98218 14.8419 3.46048ZM13 7C13 6.44772 12.5523 6 12 6C11.4477 6 11 6.44772 11 7V13C11 13.1892 11.0525 13.3661 11.1438 13.517C11.6343 12.736 12.2648 12.0517 13 11.4995V7ZM17.5 23C20.5376 23 23 20.5376 23 17.5C23 14.4624 20.5376 12 17.5 12C14.4624 12 12 14.4624 12 17.5C12 20.5376 14.4624 23 17.5 23ZM16.5 17.5C16.5 18.0523 16.9477 18.5 17.5 18.5C18.0523 18.5 18.5 18.0523 18.5 17.5V15C18.5 14.4477 18.0523 14 17.5 14C16.9477 14 16.5 14.4477 16.5 15V17.5ZM16.5 20.5C16.5 19.9477 16.9477 19.5 17.5 19.5C18.0523 19.5 18.5 19.9477 18.5 20.5C18.5 21.0523 18.0523 21.5 17.5 21.5C16.9477 21.5 16.5 21.0523 16.5 20.5Z" fill="currentColor"/>
</svg>
