<svg width="24" height="24" viewBox="0 0 24 24" fill="none" xmlns="http://www.w3.org/2000/svg">
<path fill-rule="evenodd" clip-rule="evenodd" d="M15.9663 3.92089C14.2604 3.0835 12.3332 2.80758 10.4608 3.13269C8.58847 3.45779 6.86707 4.36722 5.54329 5.73067C4.2195 7.09413 3.36128 8.84162 3.09158 10.7227C3.0132 11.2694 2.50648 11.6491 1.95978 11.5707C1.41309 11.4923 1.03344 10.9856 1.11182 10.4389C1.44145 8.13975 2.4904 6.00393 4.10835 4.33749C5.72631 2.67105 7.83024 1.55952 10.1187 1.16217C12.4071 0.764822 14.7626 1.10205 16.8476 2.12553C18.4164 2.8956 19.7715 4.02443 20.8086 5.41087L21.0511 4.6838C21.2259 4.15988 21.7922 3.87683 22.3162 4.05157C22.8401 4.22631 23.1231 4.79268 22.9484 5.31659L21.9478 8.31658C21.7921 8.78334 21.32 9.06749 20.8347 8.98657L17.8353 8.48648C17.2906 8.39565 16.9226 7.88039 17.0134 7.33563C17.1042 6.79087 17.6195 6.42288 18.1643 6.51371L19.2734 6.69864C18.4166 5.52321 17.2835 4.56748 15.9663 3.92089ZM12 6C12.5523 6 13 6.44772 13 7V12H16C16.5523 12 17 12.4477 17 13C17 13.5523 16.5523 14 16 14H12C11.4477 14 11 13.5523 11 13V7C11 6.44772 11.4477 6 12 6ZM1.01376 18.8357C0.922967 19.3804 1.29099 19.8957 1.83576 19.9865C2.38053 20.0772 2.89576 19.7092 2.98655 19.1645L3.10244 18.4691C4.15226 19.9129 5.54275 21.0861 7.15977 21.8783C9.24383 22.8993 11.5974 23.235 13.8838 22.8374C16.1702 22.4398 18.2723 21.3292 19.8893 19.6646C21.5064 18 22.5555 15.8665 22.8866 13.5696C22.9654 13.0229 22.5862 12.5159 22.0395 12.4371C21.4929 12.3583 20.9859 12.7376 20.9071 13.2842C20.6361 15.1635 19.7778 16.9091 18.4548 18.271C17.1317 19.633 15.4119 20.5416 13.5412 20.867C11.6705 21.1923 9.7448 20.9176 8.03966 20.0823C6.75556 19.4532 5.64608 18.5304 4.79656 17.3966L5.33556 17.4864C5.88033 17.5772 6.39556 17.2092 6.48635 16.6644C6.57715 16.1197 6.20913 15.6044 5.66436 15.5136L2.66455 15.0137C2.40294 14.9701 2.13473 15.0322 1.91891 15.1863C1.7031 15.3405 1.55736 15.5741 1.51376 15.8357L1.01376 18.8357Z" fill="currentColor"/>
</svg>
