<svg width="24" height="24" viewBox="0 0 24 24" fill="none" xmlns="http://www.w3.org/2000/svg">
<path fill-rule="evenodd" clip-rule="evenodd" d="M16.2095 1.83733C14.1995 1.00477 11.9878 0.786929 9.85401 1.21137C7.72022 1.6358 5.76021 2.68345 4.22183 4.22183C2.68345 5.76021 1.6358 7.72022 1.21137 9.85401C0.786929 11.9878 1.00477 14.1995 1.83733 16.2095C2.66989 18.2195 4.07979 19.9375 5.88873 21.1462C7.69767 22.3549 9.82441 23 12 23C12.0313 23 12.0626 22.9999 12.0939 22.9996C12.6462 22.9949 13.0901 22.5434 13.0853 21.9911C13.0806 21.4388 12.6291 20.995 12.0768 20.9997C12.0512 20.9999 12.0256 21 12 21H11.9968C10.2179 20.9994 8.47902 20.4716 6.99987 19.4832C5.51983 18.4943 4.36628 17.0887 3.68509 15.4442C3.0039 13.7996 2.82567 11.99 3.17294 10.2442C3.5202 8.49836 4.37737 6.89472 5.63604 5.63604C6.89472 4.37737 8.49836 3.5202 10.2442 3.17294C11.99 2.82567 13.7996 3.0039 15.4442 3.68509C17.0887 4.36628 18.4943 5.51983 19.4832 6.99987C20.4722 8.47992 21 10.22 21 12C21 12.0256 20.9999 12.0512 20.9997 12.0768C20.995 12.6291 21.4388 13.0806 21.9911 13.0853C22.5434 13.0901 22.9949 12.6462 22.9996 12.0939C22.9999 12.0626 23 12.0313 23 12C23 9.82441 22.3549 7.69767 21.1462 5.88873C19.9375 4.07979 18.2195 2.66989 16.2095 1.83733ZM12 6C12.5523 6 13 6.44772 13 7V12H16C16.5523 12 17 12.4477 17 13C17 13.5523 16.5523 14 16 14H12C11.4477 14 11 13.5523 11 13V7C11 6.44772 11.4477 6 12 6ZM21.6459 14.8207C22.1579 15.0277 22.4052 15.6106 22.1982 16.1226C22.1865 16.1516 22.1747 16.1806 22.1627 16.2095C22.1507 16.2384 22.1386 16.2673 22.1264 16.2961C21.9107 16.8046 21.3237 17.0418 20.8152 16.8262C20.3068 16.6105 20.0695 16.0234 20.2852 15.515C20.2952 15.4914 20.3051 15.4678 20.3149 15.4442C20.3205 15.4306 20.3261 15.417 20.3317 15.4034C20.3358 15.3933 20.3399 15.3832 20.344 15.373C20.551 14.861 21.1339 14.6137 21.6459 14.8207ZM19.8322 18.2973C20.2261 18.6845 20.2315 19.3176 19.8443 19.7115C19.8224 19.7338 19.8003 19.756 19.7782 19.7782C19.756 19.8003 19.7338 19.8224 19.7115 19.8443C19.3176 20.2315 18.6845 20.2261 18.2973 19.8322C17.9101 19.4384 17.9156 18.8052 18.3094 18.4181C18.3277 18.4001 18.3458 18.3821 18.364 18.364C18.3821 18.3458 18.4001 18.3277 18.4181 18.3094C18.8052 17.9156 19.4384 17.9101 19.8322 18.2973ZM16.8262 20.8152C17.0418 21.3237 16.8046 21.9107 16.2961 22.1264C16.2673 22.1386 16.2384 22.1507 16.2095 22.1627C16.1806 22.1747 16.1516 22.1865 16.1226 22.1982C15.6106 22.4052 15.0277 22.1579 14.8207 21.6459C14.6137 21.1339 14.861 20.551 15.373 20.344C15.3968 20.3344 15.4205 20.3247 15.4441 20.3149C15.4678 20.3051 15.4914 20.2952 15.515 20.2852C16.0234 20.0695 16.6105 20.3068 16.8262 20.8152Z" fill="currentColor"/>
</svg>
