<svg width="24" height="24" viewBox="0 0 24 24" fill="none" xmlns="http://www.w3.org/2000/svg">
<path fill-rule="evenodd" clip-rule="evenodd" d="M1 12C1 5.92487 5.92487 1 12 1C18.0751 1 23 5.92487 23 12C23 12.7936 22.916 13.5676 22.7563 14.3136C22.2965 13.2468 21.2354 12.5 20 12.5C18.3431 12.5 17 13.8431 17 15.5V18C17 18.5464 17.1461 19.0587 17.4013 19.5C17.1461 19.9413 17 20.4536 17 21C17 21.2595 17.033 21.5113 17.0949 21.7515C15.5717 22.549 13.8385 23 12 23C5.92487 23 1 18.0751 1 12ZM13 7C13 6.44772 12.5523 6 12 6C11.4477 6 11 6.44772 11 7V13C11 13.5523 11.4477 14 12 14H16C16.5523 14 17 13.5523 17 13C17 12.4477 16.5523 12 16 12H13V7ZM20 19C19.4477 19 19 18.5523 19 18V15.5C19 14.9477 19.4477 14.5 20 14.5C20.5523 14.5 21 14.9477 21 15.5V18C21 18.5523 20.5523 19 20 19ZM19 21C19 20.4477 19.4477 20 20 20C20.5523 20 21 20.4477 21 21C21 21.5523 20.5523 22 20 22C19.4477 22 19 21.5523 19 21Z" fill="currentColor"/>
</svg>
