<svg width="24" height="24" viewBox="0 0 24 24" fill="none" xmlns="http://www.w3.org/2000/svg">
<path fill-rule="evenodd" clip-rule="evenodd" d="M7.88685 1.79795C10.1217 0.896944 12.5905 0.754671 14.914 1.39299C17.2375 2.03131 19.2871 3.41491 20.748 5.33119C22.2088 7.24747 23 9.59041 23 12C23 12.5523 22.5523 13 22 13C21.4477 13 21 12.5523 21 12C21 10.0285 20.3527 8.11156 19.1574 6.5437C17.9622 4.97584 16.2852 3.8438 14.3842 3.32154C12.4831 2.79928 10.4632 2.91568 8.6347 3.65287C6.80623 4.39005 5.27039 5.70723 4.26318 7.40202C3.25598 9.09681 2.83312 11.0754 3.05959 13.0339C3.28607 14.9923 4.14933 16.8222 5.51676 18.2424C6.88418 19.6626 8.68009 20.5945 10.6286 20.8949C12.577 21.1953 14.5702 20.8476 16.3019 19.9053C16.787 19.6413 17.3943 19.8206 17.6583 20.3057C17.9223 20.7908 17.743 21.398 17.2579 21.662C15.1414 22.8138 12.7052 23.2387 10.3238 22.8715C7.94233 22.5044 5.74732 21.3654 4.07603 19.6296C2.40474 17.8938 1.34963 15.6573 1.07283 13.2636C0.796034 10.87 1.31286 8.45165 2.54389 6.38025C3.77492 4.30884 5.65205 2.69895 7.88685 1.79795ZM12 6C12.5523 6 13 6.44772 13 7V12H16C16.5523 12 17 12.4477 17 13C17 13.5523 16.5523 14 16 14H12C11.4477 14 11 13.5523 11 13V7C11 6.44772 11.4477 6 12 6ZM20 19C19.4477 19 19 18.5523 19 18V15.5C19 14.9477 19.4477 14.5 20 14.5C20.5523 14.5 21 14.9477 21 15.5V18C21 18.5523 20.5523 19 20 19ZM19 21C19 20.4477 19.4477 20 20 20C20.5523 20 21 20.4477 21 21C21 21.5523 20.5523 22 20 22C19.4477 22 19 21.5523 19 21Z" fill="currentColor"/>
</svg>
