<svg width="24" height="24" viewBox="0 0 24 24" fill="none" xmlns="http://www.w3.org/2000/svg">
<path d="M12 1C5.92487 1 1 5.92487 1 12C1 18.0751 5.92487 23 12 23C12.1317 23 12.2629 22.9977 12.3935 22.9931C10.9211 21.6237 10 19.6694 10 17.5C10 16.0366 10.4191 14.6711 11.1439 13.517C11.0526 13.3661 11 13.1892 11 13V7C11 6.44772 11.4477 6 12 6C12.5523 6 13 6.44772 13 7V11.4995C14.2535 10.5579 15.8116 10 17.5 10C19.6694 10 21.6237 10.9211 22.9931 12.3935C22.9977 12.2629 23 12.1317 23 12C23 5.92487 18.0751 1 12 1Z" fill="currentColor"/>
<path fill-rule="evenodd" clip-rule="evenodd" d="M17.5 23C20.5376 23 23 20.5376 23 17.5C23 14.4624 20.5376 12 17.5 12C14.4624 12 12 14.4624 12 17.5C12 20.5376 14.4624 23 17.5 23ZM16.5 17.5C16.5 18.0523 16.9477 18.5 17.5 18.5C18.0523 18.5 18.5 18.0523 18.5 17.5V15C18.5 14.4477 18.0523 14 17.5 14C16.9477 14 16.5 14.4477 16.5 15V17.5ZM16.5 20.5C16.5 19.9477 16.9477 19.5 17.5 19.5C18.0523 19.5 18.5 19.9477 18.5 20.5C18.5 21.0523 18.0523 21.5 17.5 21.5C16.9477 21.5 16.5 21.0523 16.5 20.5Z" fill="currentColor"/>
</svg>
