<svg width="24" height="24" viewBox="0 0 24 24" fill="none" xmlns="http://www.w3.org/2000/svg">
<path fill-rule="evenodd" clip-rule="evenodd" d="M15.8496 1.69559C13.389 0.776362 10.6807 0.767953 8.21451 1.67189C5.74829 2.57582 3.68692 4.33242 2.40321 6.62402C1.11949 8.91563 0.698161 11.5909 1.21542 14.1662C1.73268 16.7414 3.15437 19.0465 5.2234 20.6647C7.29243 22.2829 9.8722 23.1073 12.4962 22.9888C15.1202 22.8703 17.6152 21.8168 19.53 20.0187C21.4447 18.2207 22.6529 15.7968 22.936 13.1854C22.9955 12.6364 22.5986 12.143 22.0496 12.0835C21.5005 12.024 21.0071 12.4208 20.9476 12.9699C20.716 15.1065 19.7275 17.0896 18.1609 18.5608C16.5942 20.0319 14.5529 20.8939 12.406 20.9908C10.2591 21.0878 8.14836 20.4133 6.45551 19.0893C4.76267 17.7654 3.59947 15.8793 3.17626 13.7723C2.75304 11.6653 3.09777 9.47642 4.14808 7.60147C5.1984 5.72653 6.88497 4.28931 8.90279 3.54973C10.9206 2.81014 13.1365 2.81702 15.1497 3.56912C16.8085 4.18884 18.2395 5.2808 19.2729 6.69856L18.1643 6.51371C17.6195 6.42288 17.1042 6.79087 17.0134 7.33563C16.9226 7.88039 17.2906 8.39565 17.8353 8.48648L20.8347 8.98657C21.32 9.06749 21.7921 8.78334 21.9478 8.31658L22.9484 5.31659C23.1231 4.79268 22.8401 4.22631 22.3161 4.05157C21.7922 3.87683 21.2259 4.15988 21.0511 4.6838L20.8085 5.41127C19.5521 3.73156 17.8343 2.43703 15.8496 1.69559ZM12 6C12.5523 6 13 6.44772 13 7V12H16C16.5523 12 17 12.4477 17 13C17 13.5523 16.5523 14 16 14H12C11.4477 14 11 13.5523 11 13V7C11 6.44772 11.4477 6 12 6Z" fill="currentColor"/>
</svg>
