<svg width="24" height="24" viewBox="0 0 24 24" fill="none" xmlns="http://www.w3.org/2000/svg">
<path fill-rule="evenodd" clip-rule="evenodd" d="M1 12C1 5.92487 5.92487 1 12 1C18.0751 1 23 5.92487 23 12C23 12.718 22.9312 13.4198 22.7999 14.0994C21.6247 13.216 19.9483 13.3091 18.8787 14.3787L16.4966 16.7608C15.3186 15.7085 13.5095 15.7478 12.3787 16.8787C11.2071 18.0503 11.2071 19.9497 12.3787 21.1213L14.064 22.8067C13.3955 22.9336 12.7055 23 12 23C5.92487 23 1 18.0751 1 12ZM12 6C12.5523 6 13 6.44772 13 7V12H16C16.5523 12 17 12.4477 17 13C17 13.5523 16.5523 14 16 14H12C11.4477 14 11 13.5523 11 13V7C11 6.44772 11.4477 6 12 6ZM21.7071 17.2071C22.0976 16.8166 22.0976 16.1834 21.7071 15.7929C21.3166 15.4024 20.6834 15.4024 20.2929 15.7929L16.5 19.5858L15.2071 18.2929C14.8166 17.9024 14.1834 17.9024 13.7929 18.2929C13.4024 18.6834 13.4024 19.3166 13.7929 19.7071L15.7929 21.7071C16.1834 22.0976 16.8166 22.0976 17.2071 21.7071L21.7071 17.2071Z" fill="currentColor"/>
</svg>
