<svg width="24" height="24" viewBox="0 0 24 24" fill="none" xmlns="http://www.w3.org/2000/svg">
<g clip-path="url(#clip0_4393_3597)">
<path fill-rule="evenodd" clip-rule="evenodd" d="M10.1207 1.16173C12.356 0.774137 14.6566 1.08718 16.707 2.05798C18.7575 3.02879 20.4577 4.60985 21.5746 6.58456C22.512 8.24183 23 10.1083 23 12C23 12.5523 22.5523 13 22 13C21.4477 13 21 12.5523 21 12C21 11.3165 20.9221 10.637 20.7691 9.97449L20.7614 9.9731C20.7218 9.96601 20.6628 9.95551 20.586 9.94208C20.4325 9.91523 20.2084 9.8767 19.9281 9.83039C19.3671 9.73772 18.5826 9.61412 17.6892 9.49058C17.4362 9.45561 17.1755 9.42078 16.9095 9.38674C16.9655 10.1096 17 10.8274 17 11.5C17 12.0523 16.5523 12.5 16 12.5C15.4477 12.5 15 12.0523 15 11.5C15 10.7688 14.955 9.96789 14.8839 9.15931C13.8719 9.06368 12.8704 9.00001 12 9.00001C11.1409 9.00001 10.1542 9.06203 9.15559 9.15559C9.06203 10.1542 9.00001 11.1409 9.00001 12C9.00001 12.8591 9.06203 13.8459 9.15559 14.8444C9.96203 14.92 10.7619 14.9751 11.494 14.9934C12.0461 15.0072 12.4825 15.466 12.4686 16.0181C12.4548 16.5703 11.996 17.0066 11.4439 16.9928C10.7881 16.9763 10.0881 16.9328 9.38203 16.8727C9.41756 17.1514 9.45399 17.4246 9.49058 17.6892C9.61412 18.5826 9.73772 19.3671 9.83039 19.9281C9.8767 20.2084 9.91523 20.4325 9.94208 20.586C9.95551 20.6628 9.96601 20.7218 9.97311 20.7614L9.97449 20.7691C10.637 20.9221 11.3165 21 12 21C12.5523 21 13 21.4477 13 22C13 22.5523 12.5523 23 12 23C10.1095 23 8.24415 22.5126 6.5876 21.5763C4.61253 20.46 3.03093 18.7604 2.05948 16.7102C1.08803 14.66 0.774251 12.3596 1.16114 10.1241C1.54802 7.88869 2.61665 5.82753 4.2206 4.22307C5.82455 2.61861 7.88537 1.54933 10.1207 1.16173ZM17.9631 7.50943C18.7331 7.6159 19.4235 7.72233 19.9651 7.80991C19.9226 7.7291 19.8788 7.64885 19.8338 7.56919C18.9859 6.07007 17.7271 4.84824 16.2098 4.04526C16.2931 4.52439 16.3911 5.11709 16.4892 5.77694C16.5618 6.26582 16.635 6.79523 16.7024 7.34535C17.1396 7.3985 17.5632 7.45414 17.9631 7.50943ZM10.4624 3.13233C11.6515 2.92615 12.8631 2.96229 14.0264 3.23109L14.0301 3.2497C14.0371 3.28539 14.0475 3.33883 14.0609 3.40848C14.0876 3.54778 14.1259 3.75179 14.1721 4.00807C14.2644 4.5209 14.3877 5.24154 14.5109 6.07081C14.5612 6.40997 14.6113 6.76548 14.6592 7.13089C13.7366 7.05151 12.8218 7.00001 12 7.00001C11.1904 7.00001 10.2906 7.04999 9.38203 7.12736C9.41756 6.84857 9.454 6.57545 9.49058 6.31085C9.61412 5.41745 9.73772 4.63288 9.83039 4.07196C9.8767 3.79163 9.91523 3.56752 9.94208 3.414C9.95551 3.33726 9.96601 3.27819 9.97311 3.23859L9.97449 3.2309C10.1359 3.19362 10.2986 3.16074 10.4624 3.13233ZM7.50943 6.0369C7.6159 5.26694 7.72233 4.5765 7.80991 4.03489C7.01313 4.45404 6.27907 4.99282 5.63504 5.63706C4.99169 6.28061 4.4536 7.01397 4.03489 7.80991C4.5765 7.72233 5.26694 7.6159 6.0369 7.50943C6.44974 7.45235 6.88791 7.39489 7.34019 7.34019C7.39489 6.88792 7.45235 6.44974 7.50943 6.0369ZM3.23859 9.9731L3.2309 9.97449C3.19341 10.1368 3.16036 10.3004 3.13184 10.4652C2.92625 11.6531 2.96248 12.8634 3.2309 14.0255L3.23292 14.0259C3.26877 14.0323 3.32232 14.0419 3.39202 14.0541C3.53144 14.0785 3.73537 14.1137 3.99144 14.1563C4.50379 14.2415 5.22371 14.356 6.05235 14.4733C6.39573 14.5219 6.75632 14.5707 7.12736 14.618C7.04999 13.7094 7.00001 12.8096 7.00001 12C7.00001 11.1904 7.04999 10.2906 7.12736 9.38203C6.84857 9.41756 6.57545 9.45399 6.31085 9.49058C5.41745 9.61412 4.63288 9.73772 4.07196 9.83039C3.79163 9.8767 3.56752 9.91523 3.41401 9.94208C3.33726 9.95551 3.27819 9.96601 3.23859 9.9731ZM5.77214 16.4535C5.10875 16.3597 4.51372 16.2675 4.03489 16.1901C4.83816 17.7171 6.06499 18.9836 7.57167 19.8352C7.65052 19.8797 7.72994 19.9231 7.80991 19.9651C7.72233 19.4235 7.6159 18.7331 7.50943 17.9631C7.45235 17.5503 7.39489 17.1121 7.34018 16.6598C6.79073 16.5934 6.2614 16.5228 5.77214 16.4535ZM18 15C16.3431 15 15 16.3432 15 18C15 19.6569 16.3431 21 18 21C19.6569 21 21 19.6569 21 18C21 16.3432 19.6569 15 18 15ZM13 18C13 15.2386 15.2386 13 18 13C20.7614 13 23 15.2386 23 18C23 20.7614 20.7614 23 18 23C15.2386 23 13 20.7614 13 18ZM18 15.5C18.5523 15.5 19 15.9477 19 16.5V17H19.5C20.0523 17 20.5 17.4477 20.5 18C20.5 18.5523 20.0523 19 19.5 19H18C17.4477 19 17 18.5523 17 18V16.5C17 15.9477 17.4477 15.5 18 15.5Z" fill="black"/>
</g>
<defs>
<clipPath id="clip0_4393_3597">
<rect width="24" height="24" fill="white"/>
</clipPath>
</defs>
</svg>
