<svg width="24" height="24" viewBox="0 0 24 24" fill="none" xmlns="http://www.w3.org/2000/svg">
<path fill-rule="evenodd" clip-rule="evenodd" d="M5.83744 1C4.82265 1 4 1.82265 4 2.83744C4 5.7679 5.16412 8.57833 7.23626 10.6505L8.45545 11.8697C8.51952 11.9337 8.55448 11.9688 8.57945 11.9951L8.58412 12L8.57945 12.0049C8.55448 12.0312 8.51952 12.0663 8.45545 12.1303L7.23627 13.3495C5.16412 15.4217 4 18.2321 4 21.1626C4 22.1773 4.82265 23 5.83744 23H18.1626C19.1773 23 20 22.1774 20 21.1626C20 18.2321 18.8359 15.4217 16.7637 13.3495L15.5445 12.1303C15.4805 12.0663 15.4455 12.0312 15.4206 12.0049L15.4159 12L15.4206 11.9951C15.4455 11.9688 15.4805 11.9337 15.5445 11.8697L16.7637 10.6505C18.8359 8.57833 20 5.7679 20 2.83744C20 1.82265 19.1773 1 18.1626 1H5.83744ZM8.65048 9.23626C6.99176 7.57754 6.04347 5.34119 6.00146 3H17.9985C17.9565 5.34119 17.0082 7.57754 15.3495 9.23626L14.1303 10.4555L14.1039 10.4819L14.1039 10.4819C14.0119 10.5735 13.8996 10.6854 13.8108 10.8046C13.282 11.5138 13.282 12.4862 13.8108 13.1954C13.8996 13.3146 14.0119 13.4265 14.1039 13.5181L14.1039 13.5181L14.1303 13.5445L15.3495 14.7637C17.0082 16.4225 17.9565 18.6588 17.9985 21H6.00146C6.04347 18.6588 6.99176 16.4225 8.65048 14.7637L9.86966 13.5445L9.89613 13.5181L9.89615 13.5181C9.98813 13.4264 10.1003 13.3146 10.1892 13.1954C10.718 12.4862 10.718 11.5138 10.1892 10.8046C10.1003 10.6854 9.98812 10.5735 9.89614 10.4819L9.86966 10.4555L8.65048 9.23626ZM16.4021 20C16.7141 20 16.9438 19.7207 16.8615 19.4198C16.4747 18.0064 15.1935 14.5 11.9997 14.5C8.80586 14.5 7.52464 18.0064 7.13792 19.4198C7.05559 19.7207 7.28594 20 7.59789 20H10.9997H16.4021Z" fill="currentColor"/>
</svg>
