<svg width="24" height="24" viewBox="0 0 24 24" fill="none" xmlns="http://www.w3.org/2000/svg">
<path fill-rule="evenodd" clip-rule="evenodd" d="M5.83744 1C4.82265 1 4 1.82265 4 2.83744C4 5.7679 5.16412 8.57833 7.23626 10.6505L8.45545 11.8697C8.51952 11.9337 8.55448 11.9688 8.57945 11.9951L8.58412 12L8.57945 12.0049C8.55448 12.0312 8.51952 12.0663 8.45545 12.1303L9.16256 12.8374L8.45545 12.1303L7.23627 13.3495C5.16412 15.4217 4 18.2321 4 21.1626C4 22.1773 4.82265 23 5.83744 23H18.1626C19.1773 23 20 22.1774 20 21.1626C20 18.2321 18.8359 15.4217 16.7637 13.3495L15.5445 12.1303C15.4805 12.0663 15.4455 12.0312 15.4206 12.0049L15.4159 12L15.4206 11.9951C15.4455 11.9688 15.4805 11.9337 15.5445 11.8697L16.7637 10.6505C18.8359 8.57833 20 5.7679 20 2.83744C20 1.82265 19.1773 1 18.1626 1H5.83744ZM8.65048 9.23626C6.99176 7.57754 6.04347 5.34119 6.00146 3H17.9985C17.9565 5.34119 17.0082 7.57754 15.3495 9.23626L14.1303 10.4555L14.1039 10.4819L14.1039 10.4819C14.0119 10.5735 13.8996 10.6854 13.8108 10.8046C13.282 11.5138 13.282 12.4862 13.8108 13.1954C13.8996 13.3146 14.0119 13.4265 14.1039 13.5181L14.1039 13.5181L14.1303 13.5445L15.3495 14.7637C17.0082 16.4225 17.9565 18.6588 17.9985 21H6.00146C6.04347 18.6588 6.99176 16.4225 8.65048 14.7637L9.86966 13.5445L9.89613 13.5181L9.89614 13.5181C9.98813 13.4265 10.1003 13.3146 10.1892 13.1954L9.41382 12.6173L10.1892 13.1954C10.718 12.4862 10.718 11.5138 10.1892 10.8046L9.41382 11.3827L10.1892 10.8046C10.1003 10.6854 9.98812 10.5735 9.89614 10.4819L9.86966 10.4555L8.65048 9.23626ZM16.3067 20C16.648 20 16.871 19.6718 16.6935 19.3803C16.1586 18.5019 14.8303 17 12.0001 17C9.16992 17 7.8416 18.5019 7.30673 19.3803C7.12924 19.6718 7.3516 20 7.69288 20H11.0001H16.3067ZM8.5 7.00195C8.22917 6.58166 8.22923 6.58162 8.2293 6.58157L8.5 7.00195ZM8.2293 6.58157C8.10222 6.66347 8.01888 6.79855 8.00283 6.94888C7.98678 7.09921 8.03961 7.24873 8.14655 7.35561L11.6465 10.8537C11.7444 10.9515 11.8784 11.0043 12.0167 10.9997C12.155 10.9951 12.2852 10.9334 12.3763 10.8293L15.8763 6.82932C16.0396 6.64262 16.0414 6.36438 15.8804 6.17562C15.7195 5.98693 15.445 5.94446 15.2349 6.07612L15.2325 6.07759L15.2158 6.08755C15.1998 6.0969 15.1746 6.11133 15.1412 6.12933C15.0742 6.16545 14.9757 6.21528 14.8545 6.26709C14.6079 6.37251 14.2881 6.47721 13.96 6.50356C13.7009 6.52436 13.4768 6.46525 13.2321 6.35143C13.0846 6.28281 12.9296 6.1943 12.7549 6.09143L12.7029 6.0607C12.2749 5.80782 11.7144 5.47669 10.9838 5.50034C10.3697 5.52023 9.6603 5.81622 9.15594 6.06451C8.89246 6.19422 8.66262 6.3224 8.49864 6.41811C8.41644 6.46608 8.35028 6.5062 8.30412 6.53466C8.28103 6.54891 8.26291 6.56025 8.25026 6.56824L8.23544 6.57764L8.23121 6.58035L8.2293 6.58157ZM13 15.25C13 15.8023 12.5523 16.25 12 16.25C11.4477 16.25 11 15.8023 11 15.25C11 14.6977 11.4477 14.25 12 14.25C12.5523 14.25 13 14.6977 13 15.25ZM12 13.75C12.5523 13.75 13 13.3023 13 12.75C13 12.1977 12.5523 11.75 12 11.75C11.4477 11.75 11 12.1977 11 12.75C11 13.3023 11.4477 13.75 12 13.75Z" fill="currentColor"/>
</svg>
