<svg width="24" height="24" viewBox="0 0 24 24" fill="none" xmlns="http://www.w3.org/2000/svg">
<path fill-rule="evenodd" clip-rule="evenodd" d="M5.83744 1C4.82265 1 4 1.82265 4 2.83744C4 5.7679 5.16412 8.57833 7.23626 10.6505L8.45545 11.8697C8.51952 11.9337 8.55448 11.9688 8.57945 11.9951L8.58412 12L8.57945 12.0049C8.55448 12.0312 8.51952 12.0663 8.45545 12.1303L9.16256 12.8374L8.45545 12.1303L7.23627 13.3495C5.16412 15.4217 4 18.2321 4 21.1626C4 22.1773 4.82265 23 5.83744 23H18.1626C19.1773 23 20 22.1774 20 21.1626C20 18.2321 18.8359 15.4217 16.7637 13.3495L15.5445 12.1303C15.4805 12.0663 15.4455 12.0312 15.4206 12.0049L15.4159 12L15.4206 11.9951C15.4455 11.9688 15.4805 11.9337 15.5445 11.8697L16.7637 10.6505C18.8359 8.57833 20 5.7679 20 2.83744C20 1.82265 19.1773 1 18.1626 1H5.83744ZM8.30412 6.53454C8.2819 6.54825 8.24487 6.57162 8.23084 6.58048L8.2293 6.58145C8.10222 6.66334 8.01888 6.79843 8.00283 6.94876C7.98678 7.09909 8.03961 7.24861 8.14655 7.35548L11.6465 10.8535C11.7444 10.9513 11.8784 11.0042 12.0167 10.9996C12.155 10.995 12.2852 10.9333 12.3763 10.8291L15.8763 6.82919C16.0396 6.6425 16.0414 6.36426 15.8804 6.1755C15.7195 5.98681 15.445 5.94433 15.2349 6.07599L15.2325 6.07747L15.2158 6.08743C15.1998 6.09678 15.1746 6.11121 15.1412 6.12921C15.0742 6.16533 14.9757 6.21516 14.8545 6.26696C14.6079 6.37238 14.2881 6.47709 13.96 6.50344C13.5447 6.53678 13.2193 6.36482 12.7549 6.09131L12.7029 6.06058C12.2749 5.80769 11.7144 5.47657 10.9838 5.50022C10.3697 5.5201 9.6603 5.81609 9.15594 6.06439C8.89246 6.1941 8.66262 6.32228 8.49864 6.41799C8.41644 6.46596 8.35028 6.50607 8.30412 6.53454ZM13 12.75C13 13.3023 12.5523 13.75 12 13.75C11.4477 13.75 11 13.3023 11 12.75C11 12.1977 11.4477 11.75 12 11.75C12.5523 11.75 13 12.1977 13 12.75ZM12 16.25C12.5523 16.25 13 15.8023 13 15.25C13 14.6977 12.5523 14.25 12 14.25C11.4477 14.25 11 14.6977 11 15.25C11 15.8023 11.4477 16.25 12 16.25ZM16.3067 20C16.648 20 16.871 19.6718 16.6935 19.3803C16.1586 18.5019 14.8303 17 12.0001 17C9.16992 17 7.8416 18.5019 7.30673 19.3803C7.12924 19.6718 7.3516 20 7.69288 20H11.0001H16.3067Z" fill="currentColor"/>
</svg>
