<svg width="24" height="24" viewBox="0 0 24 24" fill="none" xmlns="http://www.w3.org/2000/svg">
<path fill-rule="evenodd" clip-rule="evenodd" d="M5.83744 1C4.82265 1 4 1.82265 4 2.83744C4 5.7679 5.16412 8.57833 7.23626 10.6505L8.45545 11.8697C8.51952 11.9337 8.55448 11.9688 8.57945 11.9951L8.58412 12L8.57945 12.0049C8.55448 12.0312 8.51952 12.0663 8.45545 12.1303L9.16256 12.8374L8.45545 12.1303L7.23627 13.3495C5.16412 15.4217 4 18.2321 4 21.1626C4 22.1773 4.82265 23 5.83744 23H18.1626C19.1773 23 20 22.1774 20 21.1626C20 18.2321 18.8359 15.4217 16.7637 13.3495L15.5445 12.1303C15.4805 12.0663 15.4455 12.0312 15.4206 12.0049L15.4159 12L15.4206 11.9951C15.4455 11.9688 15.4805 11.9337 15.5445 11.8697L16.7637 10.6505C18.8359 8.57833 20 5.7679 20 2.83744C20 1.82265 19.1773 1 18.1626 1H5.83744ZM7.13823 4.58017C7.05591 4.27928 7.28562 4 7.59757 4L13 4L16.4018 4C16.7137 4 16.9441 4.27928 16.8618 4.58017C16.4751 5.99357 15.1938 9.5 12 9.5C8.80618 9.5 7.52495 5.99357 7.13823 4.58017Z" fill="currentColor"/>
</svg>
