<svg width="24" height="24" viewBox="0 0 24 24" fill="none" xmlns="http://www.w3.org/2000/svg">
<path fill-rule="evenodd" clip-rule="evenodd" d="M10 2C9.44772 2 9 2.44772 9 3C9 3.55228 9.44772 4 10 4H14C14.5523 4 15 3.55228 15 3C15 2.44772 14.5523 2 14 2H10ZM20.7071 7.12114C21.0976 6.73062 21.0976 6.09745 20.7071 5.70693L19.2929 4.29271C18.9024 3.90219 18.2692 3.90219 17.8787 4.29271C17.4882 4.68324 17.4882 5.3164 17.8787 5.70693L19.2929 7.12114C19.6834 7.51166 20.3166 7.51166 20.7071 7.12114ZM13 10C13 9.44772 12.5523 9 12 9C11.4477 9 11 9.44772 11 10V15C11 15.5523 11.4477 16 12 16C12.5523 16 13 15.5523 13 15V10ZM12 5C7.02944 5 3 9.02944 3 14C3 18.9706 7.02944 23 12 23C16.9706 23 21 18.9706 21 14C21 9.02944 16.9706 5 12 5Z" fill="currentColor"/>
</svg>
