<svg width="24" height="24" viewBox="0 0 24 24" fill="none" xmlns="http://www.w3.org/2000/svg">
<path fill-rule="evenodd" clip-rule="evenodd" d="M9 3C9 2.44772 9.44772 2 10 2H14C14.5523 2 15 2.44772 15 3C15 3.55228 14.5523 4 14 4H10C9.44772 4 9 3.55228 9 3ZM19.2929 7.12126C19.6834 7.51179 20.3166 7.51179 20.7071 7.12126C21.0976 6.73074 21.0976 6.09757 20.7071 5.70705L19.2929 4.29284C18.9024 3.90231 18.2692 3.90231 17.8787 4.29284C17.4882 4.68336 17.4882 5.31652 17.8787 5.70705L19.2929 7.12126ZM5 14C5 10.134 8.13401 7 12 7C15.866 7 19 10.134 19 14C19 17.866 15.866 21 12 21C8.13401 21 5 17.866 5 14ZM12 5C7.02944 5 3 9.02944 3 14C3 18.9706 7.02944 23 12 23C16.9706 23 21 18.9706 21 14C21 9.02944 16.9706 5 12 5ZM13 10C13 9.44772 12.5523 9 12 9C11.4477 9 11 9.44772 11 10V15C11 15.5523 11.4477 16 12 16C12.5523 16 13 15.5523 13 15V10Z" fill="currentColor"/>
</svg>
