<svg width="24" height="24" viewBox="0 0 24 24" fill="none" xmlns="http://www.w3.org/2000/svg">
<path fill-rule="evenodd" clip-rule="evenodd" d="M9 1C9.55228 1 10 1.44772 10 2V3.5C10 4.05228 9.55228 4.5 9 4.5C8.44772 4.5 8 4.05228 8 3.5V2C8 1.44772 8.44772 1 9 1ZM3.29289 3.29289C3.68342 2.90237 4.31658 2.90237 4.70711 3.29289L5.76777 4.35355C6.15829 4.74408 6.15829 5.37724 5.76777 5.76777C5.37724 6.15829 4.74408 6.15829 4.35355 5.76777L3.29289 4.70711C2.90237 4.31658 2.90237 3.68342 3.29289 3.29289ZM14.7678 3.29289C15.1583 3.68342 15.1583 4.31658 14.7678 4.70711L13.7071 5.76777C13.3166 6.15829 12.6834 6.15829 12.2929 5.76777C11.9024 5.37724 11.9024 4.74408 12.2929 4.35355L13.3536 3.29289C13.7441 2.90237 14.3772 2.90237 14.7678 3.29289ZM1 9C1 8.44772 1.44772 8 2 8H3.5C4.05228 8 4.5 8.44772 4.5 9C4.5 9.55228 4.05228 10 3.5 10H2C1.44772 10 1 9.55228 1 9ZM5.76777 12.2929C6.15829 12.6834 6.15829 13.3166 5.76777 13.7071L4.70711 14.7678C4.31658 15.1583 3.68342 15.1583 3.29289 14.7678C2.90237 14.3772 2.90237 13.7441 3.29289 13.3536L4.35355 12.2929C4.74408 11.9024 5.37724 11.9024 5.76777 12.2929ZM8.9086 7.64196C8.54926 7.52218 8.15309 7.6157 7.88526 7.88354C7.61743 8.15137 7.52391 8.54754 7.64369 8.90687L12.1126 22.3136C12.2425 22.7034 12.5976 22.974 13.0079 22.996C13.4182 23.0179 13.8001 22.7867 13.9708 22.413L16.4641 16.9563C16.564 16.7377 16.7394 16.5623 16.9581 16.4624L22.4147 13.9691C22.7884 13.7984 23.0196 13.4164 22.9977 13.0062C22.9757 12.5959 22.7051 12.2408 22.3153 12.1109L8.9086 7.64196Z" fill="currentColor"/>
</svg>
