<svg width="24" height="24" viewBox="0 0 24 24" fill="none" xmlns="http://www.w3.org/2000/svg">
<path fill-rule="evenodd" clip-rule="evenodd" d="M4.29292 4.29292C4.56075 4.02509 4.95692 3.93157 5.31625 4.05134L20.3163 9.05134C20.6968 9.17819 20.9647 9.52013 20.9968 9.91996C21.0289 10.3198 20.819 10.7001 20.4636 10.8861L15.1044 13.6901L19.7072 18.2929C20.0977 18.6835 20.0977 19.3166 19.7072 19.7071C19.3167 20.0977 18.6835 20.0977 18.293 19.7071L13.6902 15.1043L10.8861 20.4636C10.7001 20.819 10.3198 21.0289 9.91996 20.9968C9.52013 20.9647 9.17819 20.6968 9.05134 20.3163L4.05134 5.31626C3.93157 4.95692 4.02509 4.56075 4.29292 4.29292Z" fill="currentColor"/>
</svg>
