<svg width="24" height="24" viewBox="0 0 24 24" fill="none" xmlns="http://www.w3.org/2000/svg">
<path fill-rule="evenodd" clip-rule="evenodd" d="M2 5C2 3.34315 3.34315 2 5 2H19C20.6569 2 22 3.34315 22 5V9.5C22 10.0523 21.5523 10.5 21 10.5C20.4477 10.5 20 10.0523 20 9.5V5C20 4.44772 19.5523 4 19 4H5C4.44772 4 4 4.44772 4 5V19C4 19.5523 4.44772 20 5 20H9.5C10.0523 20 10.5 20.4477 10.5 21C10.5 21.5523 10.0523 22 9.5 22H5C3.34315 22 2 20.6569 2 19V5ZM10.7218 9.63348C10.4123 9.53031 10.071 9.61086 9.84033 9.84155C9.60964 10.0722 9.52909 10.4135 9.63225 10.723L13.4814 22.2706C13.5934 22.6063 13.8992 22.8394 14.2526 22.8583C14.6059 22.8772 14.9349 22.678 15.082 22.3561L17.2295 17.6562C17.3156 17.4678 17.4666 17.3168 17.655 17.2307L22.3549 15.0832C22.6768 14.9361 22.8759 14.6072 22.857 14.2538C22.8382 13.9004 22.605 13.5946 22.2693 13.4827L10.7218 9.63348Z" fill="currentColor"/>
</svg>
