<svg width="24" height="24" viewBox="0 0 24 24" fill="none" xmlns="http://www.w3.org/2000/svg">
<path fill-rule="evenodd" clip-rule="evenodd" d="M11.5681 4H12.4319C12.6843 3.99997 12.9301 3.99994 13.1382 4.01695C13.3668 4.03563 13.6366 4.07969 13.908 4.21799C14.2843 4.40974 14.5903 4.7157 14.782 5.09202C14.9203 5.36345 14.9644 5.63318 14.9831 5.86178C14.9867 5.90624 14.9895 5.95241 14.9918 6.00001L19.2676 6.00001C19.6134 5.4022 20.2597 5.00001 21 5.00001C22.1046 5.00001 23 5.89544 23 7.00001C23 8.10457 22.1046 9.00001 21 9.00001C20.2597 9.00001 19.6134 8.59781 19.2676 8.00001H17.6571C19.4539 9.45367 20.6798 11.585 20.9458 14.0059C21.0126 14.0084 21.0771 14.012 21.1382 14.0169C21.3668 14.0356 21.6366 14.0797 21.908 14.218C22.2843 14.4097 22.5903 14.7157 22.782 15.092C22.9203 15.3634 22.9644 15.6332 22.9831 15.8618C23.0001 16.0699 23 16.3157 23 16.5681V17.4319C23 17.6843 23.0001 17.9301 22.9831 18.1382C22.9644 18.3668 22.9203 18.6366 22.782 18.908C22.5903 19.2843 22.2843 19.5903 21.908 19.782C21.6366 19.9203 21.3668 19.9644 21.1382 19.9831C20.9301 20.0001 20.6843 20 20.4319 20H19.5681C19.3157 20 19.0699 20.0001 18.8618 19.9831C18.6332 19.9644 18.3634 19.9203 18.092 19.782C17.7157 19.5903 17.4097 19.2843 17.218 18.908C17.0797 18.6366 17.0356 18.3668 17.017 18.1382C16.9999 17.9301 17 17.6843 17 17.4319V16.5681C17 16.3157 16.9999 16.0699 17.017 15.8618C17.0356 15.6332 17.0797 15.3634 17.218 15.092C17.4097 14.7157 17.7157 14.4097 18.092 14.218C18.3634 14.0797 18.6332 14.0356 18.8618 14.0169C18.8844 14.0151 18.9074 14.0135 18.9308 14.012C18.5912 11.6083 17.0305 9.59593 14.8957 8.62474C14.8674 8.71781 14.8305 8.8128 14.782 8.90799C14.5903 9.28431 14.2843 9.59027 13.908 9.78202C13.6366 9.92032 13.3668 9.96438 13.1382 9.98306C12.9301 10.0001 12.6843 10 12.4319 10H11.5681C11.3157 10 11.0699 10.0001 10.8618 9.98306C10.6332 9.96438 10.3634 9.92032 10.092 9.78202C9.7157 9.59027 9.40974 9.28431 9.21799 8.90799C9.16949 8.8128 9.13258 8.71781 9.10429 8.62474C6.96956 9.59593 5.40882 11.6083 5.0692 14.012C5.09263 14.0135 5.11565 14.0151 5.13824 14.0169C5.36683 14.0356 5.63656 14.0797 5.90799 14.218C6.28431 14.4097 6.59027 14.7157 6.78202 15.092C6.92032 15.3634 6.96438 15.6332 6.98306 15.8618C7.00007 16.0699 7.00004 16.3157 7.00001 16.5681V17.4319C7.00004 17.6843 7.00007 17.9301 6.98306 18.1382C6.96438 18.3668 6.92032 18.6366 6.78202 18.908C6.59027 19.2843 6.28431 19.5903 5.90799 19.782C5.63656 19.9203 5.36683 19.9644 5.13824 19.9831C4.93007 20.0001 4.68428 20 4.43189 20H3.56812C3.31574 20 3.06994 20.0001 2.86178 19.9831C2.63318 19.9644 2.36345 19.9203 2.09202 19.782C1.7157 19.5903 1.40974 19.2843 1.21799 18.908C1.07969 18.6366 1.03563 18.3668 1.01695 18.1382C0.999943 17.9301 0.999973 17.6843 1 17.4319V16.5681C0.999973 16.3157 0.999943 16.0699 1.01695 15.8618C1.03563 15.6332 1.07969 15.3634 1.21799 15.092C1.40974 14.7157 1.7157 14.4097 2.09202 14.218C2.36345 14.0797 2.63318 14.0356 2.86178 14.0169C2.92295 14.012 2.98737 14.0084 3.05426 14.0059C3.32018 11.585 4.54614 9.45367 6.34288 8.00001H4.73244C4.38663 8.59781 3.74029 9.00001 3.00001 9.00001C1.89544 9.00001 1.00001 8.10457 1.00001 7.00001C1.00001 5.89544 1.89544 5.00001 3.00001 5.00001C3.74029 5.00001 4.38663 5.4022 4.73244 6.00001L9.00822 6.00001C9.01046 5.95241 9.01332 5.90624 9.01695 5.86178C9.03563 5.63318 9.07969 5.36345 9.21799 5.09202C9.40974 4.7157 9.7157 4.40974 10.092 4.21799C10.3634 4.07969 10.6332 4.03563 10.8618 4.01695C11.0699 3.99994 11.3157 3.99997 11.5681 4ZM11 7.23076V6.60001C11 6.30348 11.0008 6.14122 11.0103 6.02464C11.0107 6.02 11.0111 6.0156 11.0115 6.01145C11.0156 6.01107 11.02 6.01069 11.0246 6.01031C11.1412 6.00078 11.3035 6.00001 11.6 6.00001H12.4C12.6965 6.00001 12.8588 6.00078 12.9754 6.01031C12.98 6.01069 12.9844 6.01107 12.9886 6.01145C12.9889 6.0156 12.9893 6.02 12.9897 6.02464C12.9992 6.14122 13 6.30348 13 6.60001V7.23076C12.9997 7.2454 12.9997 7.26 13 7.27456V7.40001C13 7.69653 12.9992 7.85879 12.9897 7.97537C12.9893 7.98001 12.9889 7.98441 12.9886 7.98856C12.9844 7.98894 12.98 7.98932 12.9754 7.9897C12.8588 7.99923 12.6965 8.00001 12.4 8.00001H11.6C11.3035 8.00001 11.1412 7.99923 11.0246 7.9897C11.02 7.98932 11.0156 7.98894 11.0115 7.98856C11.0111 7.98441 11.0107 7.98001 11.0103 7.97537C11.0008 7.85879 11 7.69653 11 7.40001V7.27456C11.0003 7.26 11.0003 7.2454 11 7.23076ZM3.01145 16.0115C3.01107 16.0156 3.01069 16.02 3.01031 16.0246C3.00078 16.1412 3.00001 16.3035 3.00001 16.6V17.4C3.00001 17.6965 3.00078 17.8588 3.01031 17.9754C3.01069 17.98 3.01107 17.9844 3.01145 17.9886C3.0156 17.9889 3.02 17.9893 3.02464 17.9897C3.14122 17.9992 3.30348 18 3.60001 18H4.40001C4.69653 18 4.85879 17.9992 4.97537 17.9897C4.98001 17.9893 4.98441 17.9889 4.98856 17.9886C4.98894 17.9844 4.98932 17.98 4.9897 17.9754C4.99923 17.8588 5.00001 17.6965 5.00001 17.4V16.6C5.00001 16.3035 4.99923 16.1412 4.9897 16.0246C4.98932 16.02 4.98894 16.0156 4.98856 16.0115C4.98441 16.0111 4.98001 16.0107 4.97537 16.0103C4.85879 16.0008 4.69653 16 4.40001 16H3.60001C3.30348 16 3.14122 16.0008 3.02464 16.0103C3.02 16.0107 3.0156 16.0111 3.01145 16.0115ZM19.0115 16.0115C19.0111 16.0156 19.0107 16.02 19.0103 16.0246C19.0008 16.1412 19 16.3035 19 16.6V17.4C19 17.6965 19.0008 17.8588 19.0103 17.9754C19.0107 17.98 19.0111 17.9844 19.0115 17.9885C19.0156 17.9889 19.02 17.9893 19.0246 17.9897C19.1412 17.9992 19.3035 18 19.6 18H20.4C20.6965 18 20.8588 17.9992 20.9754 17.9897C20.98 17.9893 20.9844 17.9889 20.9886 17.9885C20.9889 17.9844 20.9893 17.98 20.9897 17.9754C20.9992 17.8588 21 17.6965 21 17.4V16.6C21 16.3035 20.9992 16.1412 20.9897 16.0246C20.9893 16.02 20.9889 16.0156 20.9885 16.0115C20.9844 16.0111 20.98 16.0107 20.9754 16.0103C20.8588 16.0008 20.6965 16 20.4 16H19.6C19.3035 16 19.1412 16.0008 19.0246 16.0103C19.02 16.0107 19.0156 16.0111 19.0115 16.0115Z" fill="currentColor"/>
</svg>
