<svg width="24" height="24" viewBox="0 0 24 24" fill="none" xmlns="http://www.w3.org/2000/svg">
<path fill-rule="evenodd" clip-rule="evenodd" d="M5 2C3.34315 2 2 3.34315 2 5V19C2 20.6569 3.34315 22 5 22H19C20.6569 22 22 20.6569 22 19V5C22 3.34315 20.6569 2 19 2H5ZM7.5 5.05C6.97533 5.05 6.55 5.47533 6.55 6V18C6.55 18.5247 6.97533 18.95 7.5 18.95H13L13.0019 18.95L13.0041 18.95L13.0095 18.95L13.0242 18.9498C13.0357 18.9496 13.0505 18.9493 13.0685 18.9488C13.1045 18.9477 13.1532 18.9456 13.2129 18.9416C13.3319 18.9338 13.4963 18.9185 13.6913 18.8885C14.0766 18.8292 14.6061 18.7089 15.1481 18.4587C15.692 18.2077 16.2757 17.8129 16.7233 17.1932C17.1779 16.5637 17.45 15.7596 17.45 14.7692C17.45 12.9823 16.4827 11.8877 15.4658 11.2501C15.5749 11.1482 15.6794 11.0351 15.7773 10.9098C16.2073 10.359 16.45 9.6446 16.45 8.76931C16.45 7.89438 16.2092 7.17678 15.8014 6.61216C15.4007 6.05737 14.8795 5.70586 14.3981 5.48368C13.9187 5.26236 13.4517 5.15643 13.1133 5.10435C12.9417 5.07794 12.7968 5.06443 12.6915 5.05748C12.6386 5.05399 12.5953 5.05212 12.563 5.05113C12.5468 5.05063 12.5333 5.05035 12.5228 5.05019L12.5092 5.05004L12.5041 5.05001L12.5019 5.05L12.5001 5.05H7.5ZM12.9509 10.3H12.4901H12.4726H8.45V6.95H12.4953L12.5044 6.95023C12.5161 6.95059 12.5372 6.95143 12.5664 6.95335C12.6251 6.95723 12.7146 6.96536 12.8243 6.98224C13.0483 7.01673 13.3313 7.08391 13.6019 7.20877C13.8705 7.33277 14.0993 7.50052 14.2611 7.72458C14.4158 7.93882 14.55 8.25967 14.55 8.76931C14.55 9.2786 14.4155 9.56656 14.2797 9.74054C14.1356 9.92505 13.9272 10.0606 13.6668 10.1552C13.4236 10.2435 13.1665 10.2842 12.9509 10.3ZM8.45 17.05V12.2H12.4398C12.4606 12.2021 12.4922 12.2056 12.5332 12.2109C12.6231 12.2225 12.7565 12.2427 12.9186 12.276C13.247 12.3436 13.6713 12.4608 14.0843 12.6566C14.9027 13.0444 15.55 13.6585 15.55 14.7692C15.55 15.3943 15.3846 15.8017 15.183 16.0808C14.9743 16.3698 14.683 16.5808 14.3519 16.7336C14.0189 16.8873 13.6734 16.9689 13.4024 17.0106C13.2693 17.031 13.1603 17.041 13.0879 17.0457C13.0519 17.0481 13.0254 17.0492 13.0101 17.0497L12.9962 17.05H8.45Z" fill="currentColor"/>
</svg>
