<svg width="24" height="24" viewBox="0 0 24 24" fill="none" xmlns="http://www.w3.org/2000/svg">
<path fill-rule="evenodd" clip-rule="evenodd" d="M5 3.5C5 2.67157 5.67157 2 6.5 2H13.1667C13.1667 2 13.2565 2.00205 13.2793 2.00308C13.3249 2.00514 13.3854 2.00863 13.4587 2.01452C13.6048 2.02626 13.8045 2.04779 14.0406 2.08752C14.5055 2.16576 15.1489 2.32074 15.8113 2.63602C16.4765 2.95262 17.2025 3.45138 17.762 4.23416C18.3325 5.03235 18.6667 6.03845 18.6667 7.25C18.6667 8.46355 18.3299 9.47086 17.7559 10.2692C17.6021 10.483 17.436 10.6756 17.262 10.849C18.6572 11.7417 20 13.2716 20 15.75C20 18.5862 18.4042 20.2121 16.8959 21.0512C16.1647 21.458 15.4485 21.689 14.9244 21.8193C14.6593 21.8852 14.4352 21.9273 14.2719 21.9536C14.19 21.9667 14.1228 21.976 14.0726 21.9823C14.0475 21.9854 13.9749 21.9933 13.9749 21.9933C13.9749 21.9933 13.8806 22 13.8333 22H6.5C5.67157 22 5 21.3284 5 20.5V3.5ZM13.7407 19C13.7562 18.9978 13.7747 18.995 13.7958 18.9916C13.8877 18.9768 14.0282 18.9508 14.2006 18.9079C14.5515 18.8207 15.0019 18.6719 15.4374 18.4296C16.2625 17.9706 17 17.2215 17 15.75C17 14.3881 16.2186 13.6189 15.1674 13.1095C14.6369 12.8523 14.089 12.6948 13.6626 12.6024C13.4526 12.557 13.2804 12.529 13.1653 12.5129C13.124 12.5072 13.0904 12.5029 13.0654 12.5H8V19H13.7407ZM8 9.5H13.1201C13.1333 9.4994 13.16 9.49799 13.1965 9.49507C13.27 9.4892 13.3839 9.47731 13.5242 9.45384C13.8121 9.40567 14.1722 9.31509 14.5133 9.15371C14.8518 8.99353 15.1283 8.78468 15.3201 8.51793C15.5005 8.26704 15.6667 7.88255 15.6667 7.25C15.6667 6.61545 15.5008 6.22975 15.3214 5.97868C15.1309 5.71219 14.8568 5.5042 14.522 5.34483C14.1844 5.18414 13.8279 5.09391 13.5427 5.04592C13.4038 5.02254 13.291 5.01071 13.2184 5.00487C13.1823 5.00197 13.1568 5.00061 13.1438 5.00002L8 5V9.5ZM13.014 12.4944L13.0158 12.4946L13.014 12.4944Z" fill="currentColor"/>
</svg>
