<svg width="24" height="24" viewBox="0 0 24 24" fill="none" xmlns="http://www.w3.org/2000/svg">
<path fill-rule="evenodd" clip-rule="evenodd" d="M21.7071 3.70711C22.0976 3.31658 22.0976 2.68342 21.7071 2.29289C21.3166 1.90237 20.6834 1.90237 20.2929 2.29289L16 6.5858L15.4334 6.01919C14.0918 4.67765 11.9808 4.49281 10.4265 5.58079C10.1844 5.75032 10.0296 6.01831 10.0038 6.3128C9.97803 6.60729 10.0839 6.8981 10.2929 7.10713L16.8929 13.7071C17.1019 13.9162 17.3927 14.022 17.6872 13.9962C17.9817 13.9704 18.2497 13.8157 18.4192 13.5735C19.5072 12.0192 19.3224 9.90819 17.9808 8.56665L17.4142 8.00001L21.7071 3.70711ZM7.42654 7.68079C7.82407 7.40253 8.36399 7.4498 8.70711 7.79292L16.2071 15.2929C16.5502 15.636 16.5975 16.176 16.3192 16.5735L12.8192 21.5735C12.6497 21.8157 12.3817 21.9704 12.0872 21.9962C11.7927 22.022 11.5019 21.9162 11.2929 21.7071L6.7929 17.2071C6.52507 16.9393 6.43154 16.5431 6.55132 16.1838L7.29237 13.9606C7.34449 13.8043 7.19574 13.6555 7.03939 13.7077L4.81623 14.4487C4.4569 14.5685 4.06073 14.475 3.7929 14.2071L2.2929 12.7071C2.08386 12.4981 1.97803 12.2073 2.00382 11.9128C2.0296 11.6183 2.18436 11.3503 2.42654 11.1808L7.42654 7.68079Z" fill="currentColor"/>
</svg>
