<svg width="24" height="24" viewBox="0 0 24 24" fill="none" xmlns="http://www.w3.org/2000/svg">
<path fill-rule="evenodd" clip-rule="evenodd" d="M7.60001 1.00001L7.56811 1C7.31573 0.999973 7.06993 0.999943 6.86178 1.01695C6.63318 1.03563 6.36345 1.07969 6.09202 1.21799C5.7157 1.40974 5.40974 1.7157 5.21799 2.09202C5.07969 2.36345 5.03563 2.63318 5.01695 2.86178C4.99994 3.06993 4.99997 3.31572 5 3.56809L5.00001 3.60001L5 10.2413C4.99999 11.0463 4.99998 11.7106 5.0442 12.2518C5.09012 12.8139 5.18869 13.3306 5.43598 13.816C5.81947 14.5686 6.4314 15.1805 7.18404 15.564C7.5971 15.7745 8.03287 15.8772 8.50001 15.9315V19.5C8.50001 21.433 10.067 23 12 23C13.933 23 15.5 21.433 15.5 19.5V15.9315C15.9671 15.8772 16.4029 15.7745 16.816 15.564C17.5686 15.1805 18.1805 14.5686 18.564 13.816C18.8113 13.3306 18.9099 12.8139 18.9558 12.2518C19 11.7106 19 11.0463 19 10.2413L19 3.56812C19 3.31574 19.0001 3.06994 18.9831 2.86178C18.9644 2.63318 18.9203 2.36345 18.782 2.09203C18.5903 1.7157 18.2843 1.40974 17.908 1.21799C17.6366 1.07969 17.3668 1.03563 17.1382 1.01695C16.9301 0.999943 16.6843 0.999973 16.4319 1L7.60001 1.00001ZM10.5 19.5V16L10.7587 16H13.2413L13.5 16V19.5C13.5 20.3284 12.8284 21 12 21C11.1716 21 10.5 20.3284 10.5 19.5ZM7.03756 12.089C7.01357 11.7954 7.0049 11.4455 7.00177 11H16.9982C16.9951 11.4455 16.9864 11.7954 16.9625 12.089C16.9266 12.5274 16.8617 12.7516 16.782 12.908C16.5903 13.2843 16.2843 13.5903 15.908 13.782C15.7516 13.8617 15.5274 13.9266 15.089 13.9625C14.6389 13.9992 14.0566 14 13.2 14H10.8C9.94343 14 9.36113 13.9992 8.91104 13.9625C8.47263 13.9266 8.24842 13.8617 8.09202 13.782C7.7157 13.5903 7.40974 13.2843 7.21799 12.908C7.1383 12.7516 7.07338 12.5274 7.03756 12.089Z" fill="currentColor"/>
</svg>
