<svg width="24" height="24" viewBox="0 0 24 24" fill="none" xmlns="http://www.w3.org/2000/svg">
<path fill-rule="evenodd" clip-rule="evenodd" d="M12 22C11.4477 22 11 21.5523 11 21V18.75C11 18.1977 11.4477 17.75 12 17.75C12.5523 17.75 13 18.1977 13 18.75V21C13 21.5523 12.5523 22 12 22ZM12 15.25C11.4477 15.25 11 14.8023 11 14.25V9.75C11 9.19772 11.4477 8.75 12 8.75C12.5523 8.75 13 9.19771 13 9.75V14.25C13 14.8023 12.5523 15.25 12 15.25ZM12 6.25C11.4477 6.25 11 5.80228 11 5.25V3C11 2.44772 11.4477 2 12 2C12.5523 2 13 2.44772 13 3V5.25C13 5.80228 12.5523 6.25 12 6.25ZM3.57346 8.18077C3.26799 7.96694 2.86892 7.94083 2.53819 8.11302C2.20746 8.28522 2 8.62713 2 9V16C2 16.3729 2.20746 16.7148 2.53819 16.887C2.86892 17.0592 3.26799 17.0331 3.57346 16.8192L8.57346 13.3192C8.84079 13.1321 9 12.8263 9 12.5C9 12.1737 8.84079 11.8679 8.57346 11.6808L3.57346 8.18077ZM20.4265 16.8192C20.732 17.0331 21.1311 17.0592 21.4618 16.887C21.7925 16.7148 22 16.3729 22 16V9C22 8.62712 21.7925 8.28522 21.4618 8.11302C21.1311 7.94082 20.732 7.96694 20.4265 8.18077L15.4265 11.6808C15.1592 11.8679 15 12.1737 15 12.5C15 12.8263 15.1592 13.1321 15.4265 13.3192L20.4265 16.8192Z" fill="currentColor"/>
</svg>
