<svg width="24" height="24" viewBox="0 0 24 24" fill="none" xmlns="http://www.w3.org/2000/svg">
<path fill-rule="evenodd" clip-rule="evenodd" d="M12 23C11.8072 23 11.6155 22.995 11.425 22.9852C11.4171 22.9848 11.4093 22.9843 11.4015 22.9837C9.88291 22.901 8.40874 22.5049 7.06753 21.8321C7.04631 21.8231 7.02525 21.8132 7.00439 21.8026C6.66127 21.6274 6.32862 21.4348 6.00763 21.2259C5.99376 21.2169 5.98019 21.2076 5.96692 21.198C5.34284 20.7887 4.75755 20.3139 4.22183 19.7782C3.6861 19.2425 3.21134 18.6572 2.80202 18.0331C2.79243 18.0198 2.78313 18.0062 2.7741 17.9924C2.56522 17.6714 2.3726 17.3387 2.19741 16.9956C2.18676 16.9747 2.17692 16.9537 2.16786 16.9325C1.49506 15.5913 1.09897 14.1171 1.01628 12.5985C1.0157 12.5907 1.0152 12.5829 1.01479 12.575C1.00497 12.3845 1 12.1928 1 12C1 11.8072 1.00497 11.6155 1.01479 11.425C1.0152 11.4171 1.0157 11.4093 1.01628 11.4015C1.09897 9.88291 1.49506 8.40874 2.16786 7.06753C2.17692 7.04631 2.18676 7.02525 2.19741 7.00439C2.3726 6.66127 2.56522 6.32862 2.7741 6.00763C2.78312 5.99376 2.79243 5.9802 2.80201 5.96693C3.21134 5.34285 3.6861 4.75755 4.22183 4.22183C4.75755 3.6861 5.34285 3.21134 5.96693 2.80201C5.9802 2.79243 5.99376 2.78312 6.00763 2.7741C6.32862 2.56522 6.66126 2.3726 7.00439 2.19741C7.02525 2.18676 7.04631 2.17692 7.06752 2.16786C8.40874 1.49506 9.88291 1.09897 11.4015 1.01628C11.4093 1.0157 11.4171 1.0152 11.425 1.01479C11.6155 1.00497 11.8072 1 12 1C12.1928 1 12.3845 1.00497 12.575 1.01479C13.1265 1.04324 13.5506 1.51342 13.5222 2.06497C13.4937 2.61652 13.0235 3.04058 12.472 3.01214C12.3158 3.00408 12.1584 3 12 3V12V21C12.1584 21 12.3158 20.9959 12.472 20.9879C13.0235 20.9594 13.4937 21.3835 13.5222 21.935C13.5506 22.4866 13.1265 22.9568 12.575 22.9852C12.3845 22.995 12.1928 23 12 23ZM16.9956 2.19741C16.5037 1.94628 15.9014 2.14145 15.6503 2.63334C15.3991 3.12522 15.5943 3.72756 16.0862 3.97869C16.3667 4.12192 16.6388 4.27948 16.9015 4.45043C17.3644 4.75166 17.9839 4.62059 18.2851 4.15768C18.5863 3.69478 18.4553 3.07533 17.9924 2.7741C17.6714 2.56522 17.3387 2.3726 16.9956 2.19741ZM21.2259 6.00763C20.9247 5.54472 20.3052 5.41365 19.8423 5.71488C19.3794 6.0161 19.2483 6.63555 19.5496 7.09846C19.7205 7.36116 19.8781 7.63327 20.0213 7.91382C20.2724 8.4057 20.8748 8.60087 21.3667 8.34974C21.8585 8.09861 22.0537 7.49628 21.8026 7.00439C21.6274 6.66126 21.4348 6.32862 21.2259 6.00763ZM22.9852 11.425C22.9568 10.8735 22.4866 10.4494 21.935 10.4778C21.3835 10.5063 20.9594 10.9765 20.9879 11.528C20.9959 11.6842 21 11.8416 21 12C21 12.1584 20.9959 12.3158 20.9879 12.472C20.9594 13.0235 21.3835 13.4937 21.935 13.5222C22.4866 13.5506 22.9568 13.1265 22.9852 12.575C22.995 12.3845 23 12.1928 23 12C23 11.8072 22.995 11.6155 22.9852 11.425ZM21.8026 16.9956C22.0537 16.5037 21.8585 15.9014 21.3667 15.6503C20.8748 15.3991 20.2724 15.5943 20.0213 16.0862C19.8781 16.3667 19.7205 16.6388 19.5496 16.9015C19.2483 17.3644 19.3794 17.9839 19.8423 18.2851C20.3052 18.5863 20.9247 18.4553 21.2259 17.9924C21.4348 17.6714 21.6274 17.3387 21.8026 16.9956ZM17.9924 21.2259C18.4553 20.9247 18.5863 20.3052 18.2851 19.8423C17.9839 19.3794 17.3644 19.2483 16.9015 19.5496C16.6388 19.7205 16.3667 19.8781 16.0862 20.0213C15.5943 20.2724 15.3991 20.8748 15.6503 21.3667C15.9014 21.8585 16.5037 22.0537 16.9956 21.8026C17.3387 21.6274 17.6714 21.4348 17.9924 21.2259Z" fill="currentColor"/>
</svg>
