<svg width="24" height="24" viewBox="0 0 24 24" fill="none" xmlns="http://www.w3.org/2000/svg">
<path fill-rule="evenodd" clip-rule="evenodd" d="M3.22437 2.02527C3.15224 2.00873 3.07714 2 3 2C2.44772 2 2 2.44772 2 3C2 3.07714 2.00873 3.15224 2.02527 3.22437C2.00868 3.31372 2 3.40585 2 3.5V7.5V12V16.5V20.5C2 20.5942 2.00868 20.6863 2.02527 20.7756C2.00873 20.8478 2 20.9229 2 21C2 21.5523 2.44772 22 3 22C3.07714 22 3.15224 21.9913 3.22437 21.9747C3.31372 21.9913 3.40585 22 3.5 22H7.5H12H12.5C13.3284 22 14 21.3284 14 20.5C14 19.6716 13.3284 19 12.5 19H5V5H12.5C13.3284 5 14 4.32843 14 3.5C14 2.67157 13.3284 2 12.5 2H12H7.5H3.5C3.40585 2 3.31372 2.00868 3.22437 2.02527ZM17.5 3.5C17.5 4.05228 17.0523 4.5 16.5 4.5C15.9477 4.5 15.5 4.05228 15.5 3.5C15.5 2.94772 15.9477 2.5 16.5 2.5C17.0523 2.5 17.5 2.94772 17.5 3.5ZM21 4.5C21.5523 4.5 22 4.05228 22 3.5C22 2.94772 21.5523 2.5 21 2.5C20.4477 2.5 20 2.94772 20 3.5C20 4.05228 20.4477 4.5 21 4.5ZM16.5 21.5C17.0523 21.5 17.5 21.0523 17.5 20.5C17.5 19.9477 17.0523 19.5 16.5 19.5C15.9477 19.5 15.5 19.9477 15.5 20.5C15.5 21.0523 15.9477 21.5 16.5 21.5ZM22 20.5C22 21.0523 21.5523 21.5 21 21.5C20.4477 21.5 20 21.0523 20 20.5C20 19.9477 20.4477 19.5 21 19.5C21.5523 19.5 22 19.9477 22 20.5ZM22 12C22 12.5523 21.5523 13 21 13C20.4477 13 20 12.5523 20 12C20 11.4477 20.4477 11 21 11C21.5523 11 22 11.4477 22 12ZM21 8.5C20.4477 8.5 20 8.05228 20 7.5C20 6.94772 20.4477 6.5 21 6.5C21.5523 6.5 22 6.94772 22 7.5C22 8.05228 21.5523 8.5 21 8.5ZM21 17.5C20.4477 17.5 20 17.0523 20 16.5C20 15.9477 20.4477 15.5 21 15.5C21.5523 15.5 22 15.9477 22 16.5C22 17.0523 21.5523 17.5 21 17.5Z" fill="currentColor"/>
</svg>
