<svg width="24" height="24" viewBox="0 0 24 24" fill="none" xmlns="http://www.w3.org/2000/svg">
<path fill-rule="evenodd" clip-rule="evenodd" d="M7 2C7 1.44772 6.55228 1 6 1C5.44772 1 5 1.44772 5 2V5H2C1.44772 5 1 5.44772 1 6C1 6.55228 1.44772 7 2 7H5V16C5 17.6569 6.34315 19 8 19H17V22C17 22.5523 17.4477 23 18 23C18.5523 23 19 22.5523 19 22V19H22C22.5523 19 23 18.5523 23 18C23 17.4477 22.5523 17 22 17H19V8C19 6.34315 17.6569 5 16 5H7V2ZM7 7V16C7 16.5523 7.44772 17 8 17H17V8C17 7.44772 16.5523 7 16 7H7Z" fill="currentColor"/>
</svg>
