<svg width="24" height="24" viewBox="0 0 24 24" fill="none" xmlns="http://www.w3.org/2000/svg">
<path fill-rule="evenodd" clip-rule="evenodd" d="M2 4C2 2.89543 2.89543 2 4 2H6C7.10457 2 8 2.89543 8 4V4.41813L16.0468 5.56768C16.2444 4.67093 17.0439 4 18 4H20C21.1046 4 22 4.89543 22 6V8C22 9.10457 21.1046 10 20 10V14C21.1046 14 22 14.8954 22 16V18C22 19.1046 21.1046 20 20 20H18C17.0437 20 16.2441 19.3288 16.0467 18.4318L8 19.5813V20C8 21.1046 7.10457 22 6 22H4C2.89543 22 2 21.1046 2 20V18C2 16.8954 2.89543 16 4 16V8C2.89543 8 2 7.10457 2 6V4ZM6 8V16C6.95613 16 7.75556 16.6709 7.95315 17.5677L16 16.4181V16C16 14.8954 16.8954 14 18 14V10C16.8954 10 16 9.10457 16 8V7.58129L7.95328 6.43176C7.75589 7.32879 6.95633 8 6 8Z" fill="currentColor"/>
</svg>
