<svg width="24" height="24" viewBox="0 0 24 24" fill="none" xmlns="http://www.w3.org/2000/svg">
<path fill-rule="evenodd" clip-rule="evenodd" d="M12 1C11.5 1 11.3024 1.2832 11.3024 1.2832L11.2828 1.30247L11.2286 1.35558C11.1815 1.40192 11.1127 1.4698 11.025 1.55696C10.8496 1.73126 10.5985 1.98282 10.2937 2.2936C9.68475 2.91466 8.85913 3.77472 7.99468 4.72897C7.13179 5.6815 6.22155 6.73738 5.44728 7.74881C4.68726 8.74163 4.00468 9.75967 3.65458 10.6246C3.23213 11.6682 3 12.8081 3 13.9998C3 18.9703 7.02944 22.9998 12 22.9998C16.9706 22.9998 21 18.9703 21 13.9998C21 12.8081 20.7679 11.6682 20.3454 10.6246C19.9953 9.75967 19.3127 8.74163 18.5527 7.74881C17.7785 6.73738 16.8682 5.6815 16.0053 4.72897C15.1409 3.77472 14.3153 2.91466 13.7063 2.2936C13.4015 1.98282 13.1504 1.73126 12.975 1.55696C12.8873 1.4698 12.8185 1.40192 12.7714 1.35558L12.7172 1.30247L12.703 1.28856L12.6976 1.28334C12.6976 1.28334 12.5 1 12 1Z" fill="currentColor"/>
</svg>
