<svg width="24" height="24" viewBox="0 0 24 24" fill="none" xmlns="http://www.w3.org/2000/svg">
<path fill-rule="evenodd" clip-rule="evenodd" d="M12.8417 2.97577C14.0009 1.71008 15.9837 1.67307 17.1893 2.89463L21.1369 6.89448C22.2888 8.0616 22.2901 9.93736 21.1399 11.1061L12.3869 20H21C21.5523 20 22 20.4477 22 21C22 21.5523 21.5523 22 21 22H8.5L8.48077 21.9998H7.861C7.0365 21.9998 6.24834 21.6605 5.68171 21.0615L2.82266 18.0394C1.74125 16.8963 1.72681 15.112 2.78959 13.9515L12.8417 2.97577ZM15.7658 4.29951C15.3639 3.89233 14.703 3.90466 14.3166 4.32656L11.9312 6.93118L17.2288 12.2288L19.7144 9.70324C20.0978 9.31366 20.0974 8.6884 19.7134 8.29936L15.7658 4.29951Z" fill="currentColor"/>
</svg>
