<svg width="24" height="24" viewBox="0 0 24 24" fill="none" xmlns="http://www.w3.org/2000/svg">
<path fill-rule="evenodd" clip-rule="evenodd" d="M16.8784 2.87624C18.05 1.70467 19.9495 1.70466 21.1211 2.87624C22.2926 4.04781 22.2926 5.94731 21.1211 7.11888L15.7926 12.4473L17.2069 13.8616C17.5975 14.2522 17.5975 14.8853 17.2069 15.2759C16.8164 15.6664 16.1833 15.6664 15.7927 15.2759L14.3784 13.8615L7.98118 20.2588C7.58627 20.6537 7.01414 20.7633 6.52081 20.5878L5.75563 21.3529C4.89648 22.2121 3.50352 22.2121 2.64437 21.3529C1.78521 20.4938 1.78521 19.1008 2.64436 18.2417L3.40954 17.4765C3.23397 16.9832 3.34363 16.411 3.73854 16.0161L10.1358 9.6189L8.72166 8.20479C8.33114 7.81426 8.33114 7.1811 8.72166 6.79057C9.11218 6.40005 9.74535 6.40005 10.1359 6.79057L11.55 8.20468L16.8784 2.87624ZM11.55 11.0331L5.48175 17.1013C5.65732 17.5947 5.54765 18.1668 5.15275 18.5617L4.05858 19.6559C3.98047 19.734 3.98047 19.8606 4.05858 19.9387C4.13668 20.0168 4.26332 20.0168 4.34142 19.9387L5.43559 18.8446C5.8305 18.4496 6.40263 18.34 6.89596 18.5156L12.9642 12.4473L11.55 11.0331ZM14.3784 11.0331L12.9642 9.61889L12.9653 9.6178L14.3795 11.032L14.3784 11.0331Z" fill="currentColor"/>
</svg>
