<svg width="24" height="24" viewBox="0 0 24 24" fill="none" xmlns="http://www.w3.org/2000/svg">
<path fill-rule="evenodd" clip-rule="evenodd" d="M4.67136 3.008C5.78505 2.2654 7.11507 1.91653 8.44987 2.01689C9.61419 2.10444 10.7238 2.52941 11.6454 3.23439C12.9004 2.68054 14.2284 2.30728 15.5898 2.12639C16.1372 2.05365 16.64 2.4385 16.7128 2.98597C16.7855 3.53344 16.4007 4.03623 15.8532 4.10897C14.904 4.23509 13.9736 4.4697 13.0801 4.80742C13.4954 5.46831 13.7806 6.20838 13.914 6.98804C14.0078 7.5362 14.0244 8.09085 13.9661 8.63652L14.1325 8.56997C16.0266 7.81232 18.1875 8.60149 19.1475 10.4015L21.8824 15.5294C22.1054 15.9476 22.0042 16.4648 21.6402 16.7682L15.6402 21.7682C15.4079 21.9618 15.1004 22.0399 14.8039 21.9806L9.19896 20.8596C7.60287 20.5404 6.64774 18.8945 7.16246 17.3503C7.51422 16.2951 8.47316 15.5678 9.57325 15.5045L8.49672 13.9794C7.19676 14.0874 5.89597 13.7688 4.79213 13.0705C3.66094 12.3548 2.80155 11.2814 2.35065 10.0211C1.89976 8.76078 1.88325 7.38586 2.30377 6.11507C2.72429 4.84428 3.55768 3.75059 4.67136 3.008ZM7.01201 11.8761L5.6024 9.87912C4.78091 8.71534 5.00783 7.11311 6.12019 6.22323C7.23918 5.32804 8.86323 5.46594 9.81526 6.53698L11.9012 8.88363C12.0163 8.37532 12.0318 7.84595 11.9427 7.32536C11.7922 6.44577 11.3519 5.64177 10.6918 5.04125C10.0317 4.44072 9.18977 4.07817 8.29991 4.01127C7.41005 3.94436 6.52337 4.17693 5.78091 4.672C5.03845 5.16706 4.48286 5.89619 4.20251 6.74338C3.92217 7.59058 3.93317 8.50719 4.23377 9.34741C4.53437 10.1876 5.1073 10.9032 5.86142 11.3803C6.21899 11.6065 6.60756 11.773 7.01201 11.8761ZM19 4.00001C19.5523 4.00001 20 3.55229 20 3.00001C20 2.44772 19.5523 2.00001 19 2.00001C18.4477 2.00001 18 2.44772 18 3.00001C18 3.55229 18.4477 4.00001 19 4.00001ZM7.36958 7.78497C7.65753 7.55461 8.07545 7.59009 8.32045 7.86571L11.2526 11.1644C11.5326 11.4794 11.9801 11.585 12.3714 11.4285L14.8753 10.4269C15.8223 10.0481 16.9028 10.4427 17.3828 11.3427L19.7348 15.7527L14.7272 19.9256L9.5912 18.8984C9.17474 18.8152 8.92553 18.3857 9.05983 17.9828C9.15593 17.6945 9.42575 17.5 9.72967 17.5H11.5C11.8736 17.5 12.216 17.2918 12.3879 16.9601C12.5598 16.6284 12.5324 16.2285 12.317 15.9233L7.23633 8.72575C7.02493 8.42628 7.08333 8.01397 7.36958 7.78497Z" fill="currentColor"/>
</svg>
