<svg width="24" height="24" viewBox="0 0 24 24" fill="none" xmlns="http://www.w3.org/2000/svg">
<path fill-rule="evenodd" clip-rule="evenodd" d="M11 3C9.89543 3 9 3.89543 9 5V7C9 8.10457 9.89543 9 11 9V11H8C5.79086 11 4 12.7909 4 15C2.89543 15 2 15.8954 2 17V19C2 20.1046 2.89543 21 4 21H6C7.10457 21 8 20.1046 8 19V17C8 15.8954 7.10457 15 6 15C6 13.8954 6.89543 13 8 13H16C17.1046 13 18 13.8954 18 15C16.8954 15 16 15.8954 16 17V19C16 20.1046 16.8954 21 18 21H20C21.1046 21 22 20.1046 22 19V17C22 15.8954 21.1046 15 20 15C20 12.7909 18.2091 11 16 11H13V9C14.1046 9 15 8.10457 15 7V5C15 3.89543 14.1046 3 13 3H11ZM11 5H13V7H11V5ZM18 17H20V19H18V17ZM6 17H4V19H6V17Z" fill="currentColor"/>
</svg>
