<svg width="24" height="24" viewBox="0 0 24 24" fill="none" xmlns="http://www.w3.org/2000/svg">
<path fill-rule="evenodd" clip-rule="evenodd" d="M5 15C3.89543 15 3 14.1046 3 13V11C3 9.89543 3.89543 9 5 9H7C8.10457 9 9 9.89543 9 11H11V8C11 5.79086 12.7909 4 15 4C15 2.89543 15.8954 2 17 2H19C20.1046 2 21 2.89543 21 4V6C21 7.10457 20.1046 8 19 8H17C15.8954 8 15 7.10457 15 6C13.8954 6 13 6.89543 13 8V16C13 17.1046 13.8954 18 15 18C15 16.8954 15.8954 16 17 16H19C20.1046 16 21 16.8954 21 18V20C21 21.1046 20.1046 22 19 22H17C15.8954 22 15 21.1046 15 20C12.7909 20 11 18.2091 11 16V13H9C9 14.1046 8.10457 15 7 15H5ZM5 11V13H7V11H5ZM17 4V6H19V4H17Z" fill="currentColor"/>
</svg>
