<svg width="24" height="24" viewBox="0 0 24 24" fill="none" xmlns="http://www.w3.org/2000/svg">
<path fill-rule="evenodd" clip-rule="evenodd" d="M3 13C3 14.1046 3.89543 15 5 15H7C8.10457 15 9 14.1046 9 13H11V16C11 18.2091 12.7909 20 15 20C15 21.1046 15.8954 22 17 22H19C20.1046 22 21 21.1046 21 20V18C21 16.8954 20.1046 16 19 16H17C15.8954 16 15 16.8954 15 18C13.8954 18 13 17.1046 13 16V8C13 6.89543 13.8954 6 15 6C15 7.10457 15.8954 8 17 8H19C20.1046 8 21 7.10457 21 6V4C21 2.89543 20.1046 2 19 2L17 2C15.8954 2 15 2.89543 15 4C12.7909 4 11 5.79086 11 8V11H9C9 9.89543 8.10457 9 7 9H5C3.89543 9 3 9.89543 3 11L3 13ZM5 13V11H7V13H5ZM17 6V4H19V6H17ZM17 18V20H19V18H17Z" fill="currentColor"/>
</svg>
