<svg width="24" height="24" viewBox="0 0 24 24" fill="none" xmlns="http://www.w3.org/2000/svg">
<path fill-rule="evenodd" clip-rule="evenodd" d="M9 5C9 3.89543 9.89543 3 11 3H13C14.1046 3 15 3.89543 15 5V7C15 8.10457 14.1046 9 13 9V11H16C18.2091 11 20 12.7909 20 15C21.1046 15 22 15.8954 22 17V19C22 20.1046 21.1046 21 20 21H18C16.8954 21 16 20.1046 16 19V17C16 15.8954 16.8954 15 18 15C18 13.8954 17.1046 13 16 13H8C6.89543 13 6 13.8954 6 15C7.10457 15 8 15.8954 8 17V19C8 20.1046 7.10457 21 6 21H4C2.89543 21 2 20.1046 2 19V17C2 15.8954 2.89543 15 4 15C4 12.7909 5.79086 11 8 11H11V9C9.89543 9 9 8.10457 9 7V5ZM13 5H11V7H13V5ZM4 17H6V19H4V17Z" fill="currentColor"/>
</svg>
