<svg width="24" height="24" viewBox="0 0 24 24" fill="none" xmlns="http://www.w3.org/2000/svg">
<path fill-rule="evenodd" clip-rule="evenodd" d="M11 4C9.89543 4 9 4.89543 9 6V8C9 8.64554 9.30584 9.21964 9.78052 9.58532L4.63006 14H4C2.89543 14 2 14.8954 2 16V18C2 19.1046 2.89543 20 4 20H6C7.10457 20 8 19.1046 8 18V16C8 15.3545 7.69416 14.7803 7.21947 14.4147L11.9999 10.3171L16.7804 14.4147C16.3058 14.7804 16 15.3545 16 16V18C16 19.1046 16.8954 20 18 20H20C21.1046 20 22 19.1046 22 18V16C22 14.8954 21.1046 14 20 14H19.3698L14.2194 9.5854C14.6941 9.21972 15 8.64558 15 8V6C15 4.89543 14.1046 4 13 4H11ZM11 6H13V8H11V6ZM18 16H20V18H18V16ZM4 16H6V18H4V16Z" fill="currentColor"/>
</svg>
