<svg width="24" height="24" viewBox="0 0 24 24" fill="none" xmlns="http://www.w3.org/2000/svg">
<path fill-rule="evenodd" clip-rule="evenodd" d="M3 3.5C3 2.67157 3.67157 2 4.5 2H8.5C9.32843 2 10 2.67157 10 3.5C10 4.32843 9.32843 5 8.5 5H8V10.5L16 10.5V5H15.5C14.6716 5 14 4.32843 14 3.5C14 2.67157 14.6716 2 15.5 2H19.5C20.3284 2 21 2.67157 21 3.5C21 4.32843 20.3284 5 19.5 5H19V19H19.5C20.3284 19 21 19.6716 21 20.5C21 21.3284 20.3284 22 19.5 22H15.5C14.6716 22 14 21.3284 14 20.5C14 19.6716 14.6716 19 15.5 19H16V13.5L8 13.5V19H8.5C9.32843 19 10 19.6716 10 20.5C10 21.3284 9.32843 22 8.5 22H4.5C3.67157 22 3 21.3284 3 20.5C3 19.6716 3.67157 19 4.5 19H5V5H4.5C3.67157 5 3 4.32843 3 3.5Z" fill="currentColor"/>
</svg>
