<svg width="24" height="24" viewBox="0 0 24 24" fill="none" xmlns="http://www.w3.org/2000/svg">
<path fill-rule="evenodd" clip-rule="evenodd" d="M5 2C3.34315 2 2 3.34315 2 5V19C2 20.6569 3.34315 22 5 22H19C20.6569 22 22 20.6569 22 19V5C22 3.34315 20.6569 2 19 2H5ZM8 6C8.55228 6 9 6.44772 9 7V11H15V7C15 6.44772 15.4477 6 16 6C16.5523 6 17 6.44772 17 7V12V17C17 17.5523 16.5523 18 16 18C15.4477 18 15 17.5523 15 17V13H9V17C9 17.5523 8.55228 18 8 18C7.44772 18 7 17.5523 7 17V12V7C7 6.44772 7.44772 6 8 6Z" fill="currentColor"/>
</svg>
