<svg width="24" height="24" viewBox="0 0 24 24" fill="none" xmlns="http://www.w3.org/2000/svg">
<path fill-rule="evenodd" clip-rule="evenodd" d="M5 2C3.34315 2 2 3.34315 2 5V10H22V5C22 3.34315 20.6569 2 19 2H5ZM4 6C4 5.44772 4.44772 5 5 5H8C8.55228 5 9 5.44772 9 6C9 6.55228 8.55228 7 8 7H5C4.44772 7 4 6.55228 4 6ZM11 6C11 5.44772 11.4477 5 12 5H19C19.5523 5 20 5.44772 20 6C20 6.55228 19.5523 7 19 7H12C11.4477 7 11 6.55228 11 6ZM3 18.5C3.55228 18.5 4 18.9477 4 19.5V20H4.5C5.05228 20 5.5 20.4477 5.5 21C5.5 21.5523 5.05228 22 4.5 22H4C2.89543 22 2 21.1046 2 20V19.5C2 18.9477 2.44772 18.5 3 18.5ZM21 18.5C21.5523 18.5 22 18.9477 22 19.5V20C22 21.1046 21.1046 22 20 22H19.5C18.9477 22 18.5 21.5523 18.5 21C18.5 20.4477 18.9477 20 19.5 20H20V19.5C20 18.9477 20.4477 18.5 21 18.5ZM8 22C8.55229 22 9 21.5523 9 21C9 20.4477 8.55229 20 8 20C7.44772 20 7 20.4477 7 21C7 21.5523 7.44772 22 8 22ZM4 16C4 16.5523 3.55228 17 3 17C2.44772 17 2 16.5523 2 16C2 15.4477 2.44772 15 3 15C3.55228 15 4 15.4477 4 16ZM3 13C3.55228 13 4 12.5523 4 12C4 11.4477 3.55228 11 3 11C2.44772 11 2 11.4477 2 12C2 12.5523 2.44772 13 3 13ZM22 16C22 16.5523 21.5523 17 21 17C20.4477 17 20 16.5523 20 16C20 15.4477 20.4477 15 21 15C21.5523 15 22 15.4477 22 16ZM21 13C21.5523 13 22 12.5523 22 12C22 11.4477 21.5523 11 21 11C20.4477 11 20 11.4477 20 12C20 12.5523 20.4477 13 21 13ZM13 21C13 21.5523 12.5523 22 12 22C11.4477 22 11 21.5523 11 21C11 20.4477 11.4477 20 12 20C12.5523 20 13 20.4477 13 21ZM16 22C16.5523 22 17 21.5523 17 21C17 20.4477 16.5523 20 16 20C15.4477 20 15 20.4477 15 21C15 21.5523 15.4477 22 16 22Z" fill="currentColor"/>
</svg>
