<svg width="24" height="24" viewBox="0 0 24 24" fill="none" xmlns="http://www.w3.org/2000/svg">
<path d="M4 3C3.44772 3 3 3.44772 3 4C3 4.55228 3.44772 5 4 5H20C20.5523 5 21 4.55228 21 4C21 3.44772 20.5523 3 20 3H4Z" fill="currentColor"/>
<path d="M13 8.5C12.4477 8.5 12 8.94772 12 9.5C12 10.0523 12.4477 10.5 13 10.5H20C20.5523 10.5 21 10.0523 21 9.5C21 8.94772 20.5523 8.5 20 8.5H13Z" fill="currentColor"/>
<path d="M12 14.5C12 13.9477 12.4477 13.5 13 13.5H20C20.5523 13.5 21 13.9477 21 14.5C21 15.0523 20.5523 15.5 20 15.5H13C12.4477 15.5 12 15.0523 12 14.5Z" fill="currentColor"/>
<path d="M4 19C3.44772 19 3 19.4477 3 20C3 20.5523 3.44772 21 4 21H20C20.5523 21 21 20.5523 21 20C21 19.4477 20.5523 19 20 19H4Z" fill="currentColor"/>
<path d="M8.42654 16.3192C8.73201 16.5331 9.13108 16.5592 9.46181 16.387C9.79254 16.2148 10 15.8729 10 15.5L10 8.5C10 8.12712 9.79254 7.78522 9.46181 7.61302C9.13108 7.44082 8.73201 7.46694 8.42654 7.68077L3.42654 11.1808C3.15921 11.3679 3 11.6737 3 12C3 12.3263 3.15921 12.6321 3.42654 12.8192L8.42654 16.3192Z" fill="currentColor"/>
</svg>
