<svg width="24" height="24" viewBox="0 0 24 24" fill="none" xmlns="http://www.w3.org/2000/svg">
<path d="M4 3C3.44772 3 3 3.44772 3 4C3 4.55228 3.44772 5 4 5H20C20.5523 5 21 4.55228 21 4C21 3.44772 20.5523 3 20 3H4Z" fill="currentColor"/>
<path d="M13 8.5C12.4477 8.5 12 8.94772 12 9.5C12 10.0523 12.4477 10.5 13 10.5H20C20.5523 10.5 21 10.0523 21 9.5C21 8.94772 20.5523 8.5 20 8.5H13Z" fill="currentColor"/>
<path d="M12 14.5C12 13.9477 12.4477 13.5 13 13.5H20C20.5523 13.5 21 13.9477 21 14.5C21 15.0523 20.5523 15.5 20 15.5H13C12.4477 15.5 12 15.0523 12 14.5Z" fill="currentColor"/>
<path d="M4 19C3.44772 19 3 19.4477 3 20C3 20.5523 3.44772 21 4 21H20C20.5523 21 21 20.5523 21 20C21 19.4477 20.5523 19 20 19H4Z" fill="currentColor"/>
<path d="M4.57346 7.68077C4.26799 7.46694 3.86892 7.44083 3.53819 7.61302C3.20746 7.78522 3 8.12713 3 8.5V15.5C3 15.8729 3.20746 16.2148 3.53819 16.387C3.86892 16.5592 4.26799 16.5331 4.57346 16.3192L9.57346 12.8192C9.84079 12.6321 10 12.3263 10 12C10 11.6737 9.84079 11.3679 9.57346 11.1808L4.57346 7.68077Z" fill="currentColor"/>
</svg>
