<svg width="24" height="24" viewBox="0 0 24 24" fill="none" xmlns="http://www.w3.org/2000/svg">
<path fill-rule="evenodd" clip-rule="evenodd" d="M8.5 4.5C8.5 3.67157 9.17157 3 10 3H13.75H18C18.8284 3 19.5 3.67157 19.5 4.5C19.5 5.32843 18.8284 6 18 6H15.0462L12.0462 17.9999H14C14.8284 17.9999 15.5 18.6714 15.5 19.4999C15.5 20.3283 14.8284 20.9999 14 20.9999H10H6C5.17157 20.9999 4.5 20.3283 4.5 19.4999C4.5 18.6714 5.17157 17.9999 6 17.9999H8.95386L11.9538 6H10C9.17157 6 8.5 5.32843 8.5 4.5Z" fill="currentColor"/>
</svg>
