<svg width="24" height="24" viewBox="0 0 24 24" fill="none" xmlns="http://www.w3.org/2000/svg">
<path fill-rule="evenodd" clip-rule="evenodd" d="M5 2C3.34315 2 2 3.34315 2 5V19C2 20.6569 3.34315 22 5 22H19C20.6569 22 22 20.6569 22 19V5C22 3.34315 20.6569 2 19 2H5ZM16 5.99988H13.0075H12.9904H10C9.44772 5.99988 9 6.44759 9 6.99988C9 7.55216 9.44772 7.99988 10 7.99988H11.7802L10.1802 15.9999H8C7.44772 15.9999 7 16.4476 7 16.9999C7 17.5522 7.44772 17.9999 8 17.9999H10.9747C10.9924 18.0003 11.0099 18.0003 11.0274 17.9999H14C14.5523 17.9999 15 17.5522 15 16.9999C15 16.4476 14.5523 15.9999 14 15.9999H12.2198L13.8198 7.99988H16C16.5523 7.99988 17 7.55216 17 6.99988C17 6.44759 16.5523 5.99988 16 5.99988Z" fill="currentColor"/>
</svg>
