<svg width="24" height="24" viewBox="0 0 24 24" fill="none" xmlns="http://www.w3.org/2000/svg">
<path fill-rule="evenodd" clip-rule="evenodd" d="M8.29289 7.20711C8.68342 7.59763 9.31658 7.59763 9.70711 7.20711C10.0976 6.81658 10.0976 6.18342 9.70711 5.79289L7.20711 3.29289C6.81658 2.90237 6.18342 2.90237 5.79289 3.29289L3.29289 5.79289C2.90237 6.18342 2.90237 6.81658 3.29289 7.2071C3.68342 7.59763 4.31658 7.59763 4.70711 7.20711L5.5 6.41421V17.5858L4.70711 16.7929C4.31658 16.4024 3.68342 16.4024 3.29289 16.7929C2.90237 17.1834 2.90237 17.8166 3.29289 18.2071L5.79289 20.7071C6.18342 21.0976 6.81658 21.0976 7.20711 20.7071L9.70711 18.2071C10.0976 17.8166 10.0976 17.1834 9.70711 16.7929C9.31658 16.4024 8.68342 16.4024 8.29289 16.7929L7.5 17.5858V6.41421L8.29289 7.20711ZM12 6C12 5.44772 12.4477 5 13 5H20C20.5523 5 21 5.44772 21 6C21 6.55229 20.5523 7 20 7H13C12.4477 7 12 6.55229 12 6ZM12 10C12 9.44772 12.4477 9 13 9H20C20.5523 9 21 9.44772 21 10C21 10.5523 20.5523 11 20 11H13C12.4477 11 12 10.5523 12 10ZM13 13C12.4477 13 12 13.4477 12 14C12 14.5523 12.4477 15 13 15H20C20.5523 15 21 14.5523 21 14C21 13.4477 20.5523 13 20 13H13ZM12 18C12 17.4477 12.4477 17 13 17H20C20.5523 17 21 17.4477 21 18C21 18.5523 20.5523 19 20 19H13C12.4477 19 12 18.5523 12 18Z" fill="currentColor"/>
</svg>
