<svg width="24" height="24" viewBox="0 0 24 24" fill="none" xmlns="http://www.w3.org/2000/svg">
<path fill-rule="evenodd" clip-rule="evenodd" d="M3.03164 5.35205L3.11367 5.57797C3.14102 5.65327 3.19375 5.70084 3.27188 5.72065C3.35 5.73651 3.41641 5.71669 3.47109 5.6612L4.17422 5.00128H4.18008H4.18594V7.8312C4.18594 7.92236 4.21719 8.00163 4.27969 8.06901C4.34609 8.13639 4.42422 8.17008 4.51406 8.17008H4.88906C4.98281 8.17008 5.06094 8.13639 5.12344 8.06901C5.18594 8.00163 5.21719 7.92236 5.21719 7.8312V4.16895C5.21719 4.0778 5.18594 3.99853 5.12344 3.93115C5.06094 3.86377 4.98281 3.83008 4.88906 3.83008H4.51406C4.29922 3.83008 4.10781 3.90737 3.93984 4.06194L3.15469 4.81104C3.08438 4.87842 3.0375 4.96165 3.01406 5.06074C2.99063 5.15982 2.99648 5.25693 3.03164 5.35205ZM9 5C8.44772 5 8 5.44772 8 6C8 6.55228 8.44772 7 9 7H20C20.5523 7 21 6.55228 21 6C21 5.44772 20.5523 5 20 5H9ZM9 11C8.44772 11 8 11.4477 8 12C8 12.5523 8.44772 13 9 13H20C20.5523 13 21 12.5523 21 12C21 11.4477 20.5523 11 20 11H9ZM8 18C8 17.4477 8.44772 17 9 17H20C20.5523 17 21 17.4477 21 18C21 18.5523 20.5523 19 20 19H9C8.44772 19 8 18.5523 8 18ZM3.09961 16.5332C3.16602 16.5996 3.24414 16.6328 3.33398 16.6328H4.65234C4.65625 16.6328 4.6582 16.6348 4.6582 16.6387V16.6445L3.82617 17.3652C3.6582 17.5098 3.57422 17.6914 3.57422 17.9102V17.9219C3.57422 18.0117 3.60742 18.0898 3.67383 18.1562C3.74023 18.2188 3.81836 18.25 3.9082 18.25C4.30273 18.2539 4.57227 18.2949 4.7168 18.373C4.86133 18.4512 4.93359 18.5859 4.93359 18.7773C4.93359 18.9648 4.87109 19.1113 4.74609 19.2168C4.62109 19.3223 4.44531 19.375 4.21875 19.375C3.99219 19.375 3.74805 19.3203 3.48633 19.2109C3.4082 19.1797 3.32813 19.1816 3.24609 19.2168C3.16797 19.248 3.11523 19.3047 3.08789 19.3867L3.04688 19.5156C3.01563 19.6094 3.01758 19.7012 3.05273 19.791C3.0918 19.8809 3.15625 19.9434 3.24609 19.9785C3.57031 20.1035 3.92188 20.166 4.30078 20.166C4.82031 20.166 5.21875 20.0449 5.49609 19.8027C5.77344 19.5605 5.91211 19.2129 5.91211 18.7598C5.91211 18.4004 5.80859 18.1152 5.60156 17.9043C5.39844 17.6934 5.12695 17.5879 4.78711 17.5879H4.7168C4.71289 17.5879 4.71094 17.5859 4.71094 17.582V17.5762L5.5957 16.8438C5.76758 16.7031 5.85352 16.5215 5.85352 16.2988V16.1641C5.85352 16.0742 5.82031 15.9961 5.75391 15.9297C5.6875 15.8633 5.60938 15.8301 5.51953 15.8301H3.33398C3.24414 15.8301 3.16602 15.8633 3.09961 15.9297C3.0332 15.9961 3 16.0742 3 16.1641V16.2988C3 16.3887 3.0332 16.4668 3.09961 16.5332ZM5.92969 11.1016C5.92969 11.332 5.88477 11.5469 5.79492 11.7461C5.70898 11.9453 5.55078 12.1719 5.32031 12.4258C5.09375 12.6758 4.76563 12.9824 4.33594 13.3457C4.33203 13.3496 4.33008 13.3535 4.33008 13.3574C4.33008 13.3613 4.33203 13.3633 4.33594 13.3633H5.61914C5.70898 13.3633 5.78516 13.3965 5.84766 13.4629C5.91406 13.5293 5.94727 13.6074 5.94727 13.6973V13.832C5.94727 13.9219 5.91406 14 5.84766 14.0664C5.78516 14.1328 5.70898 14.166 5.61914 14.166H3.35156C3.25781 14.166 3.17773 14.1328 3.11133 14.0664C3.04883 14 3.01758 13.9219 3.01758 13.832V13.6973C3.01758 13.4785 3.10547 13.3008 3.28125 13.1641C3.73047 12.8086 4.07422 12.5137 4.3125 12.2793C4.55078 12.041 4.70898 11.8457 4.78711 11.6934C4.86523 11.5371 4.9043 11.3711 4.9043 11.1953C4.9043 10.8359 4.70508 10.6562 4.30664 10.6562C4.08008 10.6562 3.79883 10.7422 3.46289 10.9141C3.38867 10.9531 3.31055 10.957 3.22852 10.9258C3.15039 10.8945 3.09961 10.8398 3.07617 10.7617L3.02344 10.5977C2.99219 10.5 2.99219 10.4062 3.02344 10.3164C3.05859 10.2227 3.11914 10.1562 3.20508 10.1172C3.60352 9.92578 4.01953 9.83008 4.45313 9.83008C4.92578 9.83008 5.28906 9.94336 5.54297 10.1699C5.80078 10.3926 5.92969 10.7031 5.92969 11.1016Z" fill="currentColor"/>
</svg>
