<svg width="24" height="24" viewBox="0 0 24 24" fill="none" xmlns="http://www.w3.org/2000/svg">
<path fill-rule="evenodd" clip-rule="evenodd" d="M4 5C3.44772 5 3 5.44772 3 6C3 6.55228 3.44772 7 4 7H15C15.5523 7 16 6.55228 16 6C16 5.44772 15.5523 5 15 5H4ZM4 11C3.44772 11 3 11.4477 3 12C3 12.5523 3.44772 13 4 13H15C15.5523 13 16 12.5523 16 12C16 11.4477 15.5523 11 15 11H4ZM3 18C3 17.4477 3.44772 17 4 17H15C15.5523 17 16 17.4477 16 18C16 18.5523 15.5523 19 15 19H4C3.44772 19 3 18.5523 3 18ZM18.1305 8.77333C18.253 8.92444 18.4106 9 18.6031 9H18.9576C19.1851 9 19.3908 8.93333 19.5746 8.8C19.7584 8.67556 19.8897 8.50667 19.9684 8.29333L20.9661 5.70667C21.0274 5.53778 21.0055 5.37778 20.9005 5.22667C20.8042 5.07556 20.6686 5 20.4935 5H19.4433C19.2245 5 19.0276 5.07111 18.8525 5.21333C18.6863 5.34667 18.5812 5.52 18.5375 5.73333L18.0124 8.26667C17.9773 8.46222 18.0167 8.63111 18.1305 8.77333ZM18.6031 15C18.4106 15 18.253 14.9244 18.1305 14.7733C18.0167 14.6311 17.9773 14.4622 18.0124 14.2667L18.5375 11.7333C18.5812 11.52 18.6863 11.3467 18.8525 11.2133C19.0276 11.0711 19.2245 11 19.4433 11H20.4935C20.6686 11 20.8042 11.0756 20.9005 11.2267C21.0055 11.3778 21.0274 11.5378 20.9661 11.7067L19.9684 14.2933C19.8897 14.5067 19.7584 14.6756 19.5746 14.8C19.3908 14.9333 19.1851 15 18.9576 15H18.6031ZM18.1305 20.7733C18.253 20.9244 18.4106 21 18.6031 21H18.9576C19.1851 21 19.3908 20.9333 19.5746 20.8C19.7584 20.6756 19.8897 20.5067 19.9684 20.2933L20.9661 17.7067C21.0274 17.5378 21.0055 17.3778 20.9005 17.2267C20.8042 17.0756 20.6686 17 20.4935 17H19.4433C19.2245 17 19.0276 17.0711 18.8525 17.2133C18.6863 17.3467 18.5812 17.52 18.5375 17.7333L18.0124 20.2667C17.9773 20.4622 18.0167 20.6311 18.1305 20.7733Z" fill="currentColor"/>
</svg>
