<svg width="24" height="24" viewBox="0 0 24 24" fill="none" xmlns="http://www.w3.org/2000/svg">
<path fill-rule="evenodd" clip-rule="evenodd" d="M5 8C6.10457 8 7 7.10457 7 6C7 4.89543 6.10457 4 5 4C3.89543 4 3 4.89543 3 6C3 7.10457 3.89543 8 5 8ZM9 6C9 5.44772 9.44771 5 10 5H20C20.5523 5 21 5.44772 21 6C21 6.55228 20.5523 7 20 7H10C9.44771 7 9 6.55228 9 6ZM9 12C9 11.4477 9.44771 11 10 11H20C20.5523 11 21 11.4477 21 12C21 12.5523 20.5523 13 20 13H10C9.44771 13 9 12.5523 9 12ZM10 17C9.44771 17 9 17.4477 9 18C9 18.5523 9.44771 19 10 19H20C20.5523 19 21 18.5523 21 18C21 17.4477 20.5523 17 20 17H10ZM5 14C3.89543 14 3 13.1046 3 12C3 10.8954 3.89543 10 5 10C6.10457 10 7 10.8954 7 12C7 13.1046 6.10457 14 5 14ZM3 18C3 19.1046 3.89543 20 5 20C6.10457 20 7 19.1046 7 18C7 16.8954 6.10457 16 5 16C3.89543 16 3 16.8954 3 18Z" fill="currentColor"/>
</svg>
