<svg width="24" height="24" viewBox="0 0 24 24" fill="none" xmlns="http://www.w3.org/2000/svg">
<path fill-rule="evenodd" clip-rule="evenodd" d="M7.70719 5.70702C8.09767 5.31645 8.09759 4.68328 7.70702 4.29281C7.31645 3.90233 6.68328 3.90241 6.29281 4.29298L4.99991 5.58619L4.70711 5.29338C4.31658 4.90286 3.68342 4.90286 3.29289 5.29338C2.90237 5.68391 2.90237 6.31707 3.29289 6.7076L4.29289 7.7076C4.48044 7.89515 4.73482 8.0005 5.00006 8.00049C5.2653 8.00047 5.51966 7.89508 5.70719 7.70751L7.70719 5.70702ZM11 5C10.4477 5 10 5.44772 10 6C10 6.55228 10.4477 7 11 7H20C20.5523 7 21 6.55228 21 6C21 5.44772 20.5523 5 20 5H11ZM11 11C10.4477 11 10 11.4477 10 12C10 12.5523 10.4477 13 11 13H20C20.5523 13 21 12.5523 21 12C21 11.4477 20.5523 11 20 11H11ZM10 18C10 17.4477 10.4477 17 11 17H20C20.5523 17 21 17.4477 21 18C21 18.5523 20.5523 19 20 19H11C10.4477 19 10 18.5523 10 18ZM7.70702 10.2928C8.09759 10.6833 8.09767 11.3164 7.70719 11.707L5.70719 13.7075C5.51966 13.8951 5.2653 14.0005 5.00006 14.0005C4.73482 14.0005 4.48044 13.8951 4.29289 13.7076L3.29289 12.7076C2.90237 12.3171 2.90237 11.6839 3.29289 11.2934C3.68342 10.9029 4.31658 10.9029 4.70711 11.2934L4.99991 11.5862L6.29281 10.293C6.68328 9.90241 7.31645 9.90233 7.70702 10.2928ZM7.70719 17.707C8.09767 17.3164 8.09759 16.6833 7.70702 16.2928C7.31645 15.9023 6.68328 15.9024 6.29281 16.293L4.99991 17.5862L4.70711 17.2934C4.31658 16.9029 3.68342 16.9029 3.29289 17.2934C2.90237 17.6839 2.90237 18.3171 3.29289 18.7076L4.29289 19.7076C4.48044 19.8951 4.73482 20.0005 5.00006 20.0005C5.2653 20.0005 5.51966 19.8951 5.70719 19.7075L7.70719 17.707Z" fill="currentColor"/>
</svg>
