<svg width="24" height="24" viewBox="0 0 24 24" fill="none" xmlns="http://www.w3.org/2000/svg">
<path fill-rule="evenodd" clip-rule="evenodd" d="M5.4579 3.79914C5.37816 3.61739 5.19848 3.5 5.00002 3.5C4.80155 3.5 4.62187 3.61739 4.54214 3.79914L4.21127 4.55336L3.43816 4.64974C3.24738 4.67352 3.08713 4.80459 3.02598 4.98687C2.96483 5.16915 3.01361 5.37034 3.15145 5.50437L3.73882 6.07551L3.58166 6.90716C3.54523 7.09992 3.6249 7.29619 3.78538 7.40902C3.94587 7.52186 4.15751 7.53041 4.32658 7.43091L5.00002 7.03455L5.67345 7.43091C5.84252 7.53041 6.05416 7.52186 6.21465 7.40902C6.37513 7.29619 6.4548 7.09992 6.41837 6.90716L6.26121 6.07551L6.84858 5.50437C6.98642 5.37034 7.0352 5.16915 6.97405 4.98687C6.9129 4.80459 6.75265 4.67352 6.56187 4.64974L5.78876 4.55336L5.4579 3.79914ZM9 6C9 5.44772 9.44772 5 10 5H20C20.5523 5 21 5.44772 21 6C21 6.55228 20.5523 7 20 7H10C9.44772 7 9 6.55228 9 6ZM9 12C9 11.4477 9.44772 11 10 11H20C20.5523 11 21 11.4477 21 12C21 12.5523 20.5523 13 20 13H10C9.44772 13 9 12.5523 9 12ZM10 17C9.44772 17 9 17.4477 9 18C9 18.5523 9.44772 19 10 19H20C20.5523 19 21 18.5523 21 18C21 17.4477 20.5523 17 20 17H10ZM5.4579 9.79914C5.37816 9.61739 5.19848 9.5 5.00002 9.5C4.80155 9.5 4.62187 9.61739 4.54214 9.79914L4.21127 10.5534L3.43816 10.6497C3.24738 10.6735 3.08713 10.8046 3.02598 10.9869C2.96483 11.1691 3.01361 11.3703 3.15145 11.5044L3.73882 12.0755L3.58166 12.9072C3.54523 13.0999 3.6249 13.2962 3.78538 13.409C3.94587 13.5219 4.15751 13.5304 4.32658 13.4309L5.00002 13.0345L5.67345 13.4309C5.84252 13.5304 6.05416 13.5219 6.21465 13.409C6.37513 13.2962 6.4548 13.0999 6.41837 12.9072L6.26121 12.0755L6.84858 11.5044C6.98642 11.3703 7.0352 11.1691 6.97405 10.9869C6.9129 10.8046 6.75265 10.6735 6.56187 10.6497L5.78876 10.5534L5.4579 9.79914ZM5.4579 15.7991C5.37816 15.6174 5.19848 15.5 5.00002 15.5C4.80155 15.5 4.62187 15.6174 4.54214 15.7991L4.21127 16.5534L3.43816 16.6497C3.24738 16.6735 3.08713 16.8046 3.02598 16.9869C2.96483 17.1691 3.01361 17.3703 3.15145 17.5044L3.73882 18.0755L3.58166 18.9072C3.54523 19.0999 3.6249 19.2962 3.78538 19.409C3.94587 19.5219 4.15751 19.5304 4.32658 19.4309L5.00002 19.0345L5.67345 19.4309C5.84252 19.5304 6.05416 19.5219 6.21465 19.409C6.37513 19.2962 6.4548 19.0999 6.41837 18.9072L6.26121 18.0755L6.84858 17.5044C6.98642 17.3703 7.0352 17.1691 6.97405 16.9869C6.9129 16.8046 6.75265 16.6735 6.56187 16.6497L5.78876 16.5534L5.4579 15.7991Z" fill="currentColor"/>
</svg>
