<svg width="24" height="24" viewBox="0 0 24 24" fill="none" xmlns="http://www.w3.org/2000/svg">
<path fill-rule="evenodd" clip-rule="evenodd" d="M1 5C1 3.89543 1.89543 3 3 3H21C22.1046 3 23 3.89543 23 5V9C23 10.1046 22.1046 11 21 11H3C1.89543 11 1 10.1046 1 9V5ZM5.40312 5.47259C5.8058 5.47259 6.11756 5.60259 6.33839 5.86258C6.56354 6.12257 6.67612 6.50172 6.67612 7.00004C6.67612 7.49836 6.56354 7.87751 6.33839 8.1375C6.11756 8.39749 5.8058 8.52749 5.40312 8.52749C5.00043 8.52749 4.68651 8.39749 4.46136 8.1375C4.24053 7.87751 4.13011 7.49836 4.13011 7.00004C4.13011 6.50172 4.24053 6.12257 4.46136 5.86258C4.68651 5.60259 5.00043 5.47259 5.40312 5.47259ZM5.40312 9.43746C6.13488 9.43746 6.71725 9.21863 7.15025 8.78098C7.58757 8.34333 7.80623 7.74968 7.80623 7.00004C7.80623 6.2504 7.58757 5.65675 7.15025 5.2191C6.71725 4.78145 6.13488 4.56262 5.40312 4.56262C4.67136 4.56262 4.08682 4.78145 3.64949 5.2191C3.2165 5.65675 3 6.2504 3 7.00004C3 7.74968 3.2165 8.34333 3.64949 8.78098C4.08682 9.21863 4.67136 9.43746 5.40312 9.43746ZM9.58584 5.49859V6.91554C9.58584 6.94587 9.60533 6.96537 9.6443 6.97404C9.79151 6.99137 9.90842 7.00004 9.99502 7.00004C10.3068 7.00004 10.5471 6.92854 10.716 6.78555C10.8892 6.63822 10.9758 6.43456 10.9758 6.17457C10.9758 5.65892 10.6488 5.40109 9.99502 5.40109C9.88677 5.40109 9.7677 5.41193 9.6378 5.43359C9.60316 5.44226 9.58584 5.46392 9.58584 5.49859ZM8.8714 9.37246C8.77181 9.37246 8.68521 9.33563 8.6116 9.26196C8.53799 9.1883 8.50119 9.10163 8.50119 9.00197V5.03061C8.50119 4.92661 8.53583 4.83345 8.60511 4.75112C8.67439 4.66879 8.76099 4.62329 8.86491 4.61462C9.23295 4.57995 9.58801 4.56262 9.93007 4.56262C11.3157 4.56262 12.0084 5.07827 12.0084 6.10957C12.0084 6.66855 11.8461 7.0932 11.5213 7.38353C11.2009 7.66952 10.7289 7.81251 10.1054 7.81251C9.9409 7.81251 9.78718 7.80601 9.6443 7.79301C9.60533 7.79301 9.58584 7.81034 9.58584 7.84501V9.00197C9.58584 9.10163 9.54904 9.1883 9.47543 9.26196C9.40182 9.33563 9.31522 9.37246 9.21563 9.37246H8.8714ZM12.619 5.43359C12.6926 5.50726 12.7792 5.54409 12.8788 5.54409H13.7751C13.8097 5.54409 13.827 5.56142 13.827 5.59609V9.00197C13.827 9.10163 13.8638 9.1883 13.9374 9.26196C14.011 9.33563 14.0976 9.37246 14.1972 9.37246H14.5869C14.6865 9.37246 14.7731 9.33563 14.8467 9.26196C14.9203 9.1883 14.9571 9.10163 14.9571 9.00197V5.59609C14.9571 5.56142 14.9745 5.54409 15.0091 5.54409H15.9054C16.005 5.54409 16.0916 5.50726 16.1652 5.43359C16.2388 5.35993 16.2756 5.27326 16.2756 5.1736V4.99811C16.2756 4.89844 16.2388 4.81178 16.1652 4.73812C16.0916 4.66445 16.005 4.62762 15.9054 4.62762H12.8788C12.7792 4.62762 12.6926 4.66445 12.619 4.73812C12.5454 4.81178 12.5086 4.89844 12.5086 4.99811V5.1736C12.5086 5.27326 12.5454 5.35993 12.619 5.43359ZM18.5774 6.29156L18.6683 6.53855C18.6986 6.62089 18.7571 6.67288 18.8437 6.69455C18.9303 6.71188 19.0039 6.69022 19.0645 6.62955L19.8439 5.90808H19.8504H19.8569V9.00197C19.8569 9.10163 19.8915 9.1883 19.9608 9.26196C20.0344 9.33563 20.121 9.37246 20.2206 9.37246H20.6363C20.7402 9.37246 20.8268 9.33563 20.8961 9.26196C20.9654 9.1883 21 9.10163 21 9.00197V4.99811C21 4.89844 20.9654 4.81178 20.8961 4.73812C20.8268 4.66445 20.7402 4.62762 20.6363 4.62762H20.2206C19.9825 4.62762 19.7703 4.71212 19.5841 4.88111L18.7138 5.70008C18.6359 5.77375 18.5839 5.86474 18.5579 5.97307C18.5319 6.0814 18.5384 6.18757 18.5774 6.29156ZM1 15C1 13.8954 1.89543 13 3 13H21C22.1046 13 23 13.8954 23 15V19C23 20.1046 22.1046 21 21 21H3C1.89543 21 1 20.1046 1 19V15ZM5.30256 15.5368C5.6884 15.5368 5.98711 15.6614 6.1987 15.9104C6.41443 16.1594 6.5223 16.5226 6.5223 17C6.5223 17.4773 6.41443 17.8405 6.1987 18.0896C5.98711 18.3386 5.6884 18.4631 5.30256 18.4631C4.91673 18.4631 4.61594 18.3386 4.40021 18.0896C4.18862 17.8405 4.08283 17.4773 4.08283 17C4.08283 16.5226 4.18862 16.1594 4.40021 15.9104C4.61594 15.6614 4.91673 15.5368 5.30256 15.5368ZM5.30256 19.3348C6.0037 19.3348 6.56171 19.1252 6.97659 18.706C7.39561 18.2867 7.60513 17.7181 7.60513 17C7.60513 16.2819 7.39561 15.7132 6.97659 15.294C6.56171 14.8748 6.0037 14.6652 5.30256 14.6652C4.60142 14.6652 4.04134 14.8748 3.62231 15.294C3.20744 15.7132 3 16.2819 3 17C3 17.7181 3.20744 18.2867 3.62231 18.706C4.04134 19.1252 4.60142 19.3348 5.30256 19.3348ZM9.31027 15.5617V16.919C9.31027 16.9481 9.32894 16.9668 9.36628 16.9751C9.50733 16.9917 9.61935 17 9.70233 17C10.001 17 10.2313 16.9315 10.3931 16.7945C10.559 16.6534 10.642 16.4583 10.642 16.2093C10.642 15.7153 10.3288 15.4683 9.70233 15.4683C9.59861 15.4683 9.48452 15.4787 9.36005 15.4995C9.32686 15.5078 9.31027 15.5285 9.31027 15.5617ZM8.62572 19.2725C8.5303 19.2725 8.44733 19.2373 8.3768 19.1667C8.30627 19.0961 8.271 19.0131 8.271 18.9176V15.1134C8.271 15.0138 8.30419 14.9246 8.37057 14.8457C8.43695 14.7669 8.51993 14.7233 8.6195 14.715C8.97214 14.6818 9.31234 14.6652 9.64009 14.6652C10.9677 14.6652 11.6315 15.1591 11.6315 16.147C11.6315 16.6824 11.4759 17.0892 11.1648 17.3673C10.8578 17.6413 10.4055 17.7783 9.80812 17.7783C9.65047 17.7783 9.50319 17.772 9.36628 17.7596C9.32894 17.7596 9.31027 17.7762 9.31027 17.8094V18.9176C9.31027 19.0131 9.275 19.0961 9.20447 19.1667C9.13395 19.2373 9.05097 19.2725 8.95555 19.2725H8.62572ZM20.8382 16.7011C20.9336 16.4894 20.9813 16.2611 20.9813 16.0162C20.9813 15.5929 20.8444 15.2629 20.5706 15.0263C20.3009 14.7855 19.9151 14.6652 19.4131 14.6652C18.9526 14.6652 18.5107 14.7669 18.0876 14.9702C17.9963 15.0118 17.932 15.0823 17.8947 15.1819C17.8615 15.2774 17.8615 15.377 17.8947 15.4808L17.9507 15.6551C17.9756 15.7381 18.0295 15.7963 18.1125 15.8295C18.1996 15.8627 18.2826 15.8585 18.3614 15.817C18.7182 15.6344 19.0169 15.5431 19.2575 15.5431C19.6807 15.5431 19.8923 15.734 19.8923 16.1159C19.8923 16.3026 19.8508 16.4791 19.7678 16.6451C19.6848 16.807 19.5168 17.0145 19.2637 17.2677C19.0107 17.5168 18.6456 17.8301 18.1685 18.2079C17.9818 18.3531 17.8884 18.542 17.8884 18.7744V18.9176C17.8884 19.0131 17.9216 19.0961 17.988 19.1667C18.0585 19.2373 18.1436 19.2725 18.2431 19.2725H20.6515C20.7469 19.2725 20.8278 19.2373 20.8942 19.1667C20.9647 19.0961 21 19.0131 21 18.9176V18.7744C21 18.679 20.9647 18.596 20.8942 18.5254C20.8278 18.4548 20.7469 18.4195 20.6515 18.4195H19.2886C19.2845 18.4195 19.2824 18.4175 19.2824 18.4133C19.2824 18.4092 19.2845 18.405 19.2886 18.4009C19.745 18.0148 20.0935 17.689 20.3341 17.4234C20.5789 17.1536 20.7469 16.9128 20.8382 16.7011ZM12.2165 15.4995C12.287 15.57 12.37 15.6053 12.4654 15.6053H13.3242C13.3574 15.6053 13.374 15.6219 13.374 15.6551V18.9176C13.374 19.0131 13.4092 19.0961 13.4798 19.1667C13.5503 19.2373 13.6333 19.2725 13.7287 19.2725H14.1021C14.1975 19.2725 14.2805 19.2373 14.351 19.1667C14.4215 19.0961 14.4568 19.0131 14.4568 18.9176V15.6551C14.4568 15.6219 14.4734 15.6053 14.5066 15.6053H15.3654C15.4608 15.6053 15.5438 15.57 15.6143 15.4995C15.6848 15.4289 15.7201 15.3459 15.7201 15.2504V15.0823C15.7201 14.9868 15.6848 14.9038 15.6143 14.8333C15.5438 14.7627 15.4608 14.7274 15.3654 14.7274H12.4654C12.37 14.7274 12.287 14.7627 12.2165 14.8333C12.1459 14.9038 12.1107 14.9868 12.1107 15.0823V15.2504C12.1107 15.3459 12.1459 15.4289 12.2165 15.4995Z" fill="currentColor"/>
</svg>
