<svg width="24" height="24" viewBox="0 0 24 24" fill="none" xmlns="http://www.w3.org/2000/svg">
<path fill-rule="evenodd" clip-rule="evenodd" d="M13.2975 16.961C12.4356 17.945 11.0816 18.2247 9.94179 17.7767C10.1652 19.1557 9.74524 20.6187 8.68195 21.682C7.7418 22.6222 6.44876 22.9057 5.30424 22.9969C4.52805 23.0587 3.66673 23.0363 2.91529 23.0167L2.91511 23.0167C2.58299 23.0081 2.27235 23 2 23C1.65165 23 1.32839 22.8187 1.14673 22.5215C0.965076 22.2243 0.951191 21.8539 1.11009 21.5439C1.46675 20.848 1.43381 20.0271 1.38921 18.9154L1.38519 18.8149L1.38417 18.7894C1.34471 17.8002 1.28682 16.3492 2.31799 15.318C3.40141 14.2346 4.89983 13.8191 6.30155 14.0716C5.90941 12.9542 6.2012 11.6552 7.15566 10.8191L17.3914 1.85275C18.5799 0.811632 20.3722 0.870809 21.4895 1.98806L22.1286 2.62716C23.2458 3.74441 23.305 5.53673 22.2639 6.72525L13.2975 16.961ZM10.3338 15.6913C10.7427 16.1002 11.4121 16.0781 11.7931 15.6431L12.4098 14.9392L9.17761 11.7067L8.47351 12.3235C8.03855 12.7045 8.01644 13.3739 8.42532 13.7828L10.3338 15.6913Z" fill="currentColor"/>
</svg>
