<svg width="24" height="24" viewBox="0 0 24 24" fill="none" xmlns="http://www.w3.org/2000/svg">
<path fill-rule="evenodd" clip-rule="evenodd" d="M7.26574 16.6743C6.28974 15.6948 4.70733 15.6948 3.73134 16.6743C3.4047 17.0021 3.33683 17.5241 3.38285 18.684C3.38586 18.7599 3.38938 18.8386 3.39301 18.9198C3.41948 19.5118 3.45192 20.2372 3.33696 20.982C3.94932 20.9979 4.54353 21.0072 5.14416 20.9592C6.14504 20.8792 6.8392 20.6495 7.26574 20.2214C8.24174 19.2419 8.24174 17.6538 7.26574 16.6743ZM2.31757 15.2555C3.40062 14.1686 4.8985 13.7517 6.29974 14.0049C5.90754 12.8838 6.1992 11.5804 7.15345 10.7415L17.3859 1.74581C18.5741 0.701284 20.3658 0.760654 21.4827 1.88156L22.1216 2.52274C23.2385 3.64365 23.2976 5.44183 22.2569 6.63423L13.2934 16.9034C12.4317 17.8906 11.0783 18.1712 9.9389 17.7219C10.1623 19.1055 9.74252 20.5734 8.6795 21.6403C7.73965 22.5835 6.44702 22.868 5.30286 22.9594C4.52693 23.0214 3.66589 22.999 2.91469 22.9794C2.58262 22.9707 2.27199 22.9626 1.99968 22.9626C1.65144 22.9626 1.32829 22.7807 1.14669 22.4825C0.965087 22.1843 0.951207 21.8127 1.11005 21.5017C1.4666 20.8036 1.43367 19.9799 1.38909 18.8646L1.38405 18.7382C1.3446 17.7457 1.28672 16.29 2.31757 15.2555ZM10.3306 15.6296C10.7393 16.0398 11.4085 16.0177 11.7894 15.5813L12.4059 14.875L9.17476 11.632L8.47088 12.2508C8.03606 12.6331 8.01396 13.3047 8.42271 13.7149L10.3306 15.6296ZM10.682 10.307L13.7262 13.3624L20.7529 5.31208C21.0999 4.91461 21.0801 4.31522 20.7078 3.94158L20.0689 3.3004C19.6966 2.92676 19.0994 2.90697 18.7033 3.25515L10.682 10.307Z" fill="currentColor"/>
</svg>
