<svg width="24" height="24" viewBox="0 0 24 24" fill="none" xmlns="http://www.w3.org/2000/svg">
<path fill-rule="evenodd" clip-rule="evenodd" d="M7.29241 1.29289C7.68293 0.902369 8.31609 0.902369 8.70662 1.29289L10.3917 2.97796L10.4139 2.99985L16.9997 9.58564C17.7807 10.3667 17.7807 11.633 16.9997 12.4141L11.121 18.2927C9.94944 19.4643 8.04995 19.4643 6.87838 18.2927L1.7068 13.1212C0.53523 11.9496 0.535233 10.0501 1.70681 8.87853L7.58532 3.00002L7.29241 2.70711C6.90188 2.31658 6.90188 1.68342 7.29241 1.29289ZM8.99953 4.41423L3.41376 10H14.5856L9.71838 5.13274L9.70256 5.11726L8.99953 4.41423ZM20.6972 12.2836C20.3089 11.9055 19.6901 11.9055 19.3019 12.2836L19.2957 12.2896L19.2809 12.3041L19.2271 12.3573C19.1812 12.4029 19.1162 12.4681 19.0374 12.5483C18.8805 12.7084 18.6669 12.9308 18.4423 13.1788C18.2193 13.425 17.9767 13.7058 17.7658 13.9814C17.5691 14.2383 17.3455 14.5596 17.218 14.8748C17.0768 15.2236 16.9995 15.604 16.9995 16C16.9995 17.6569 18.3427 19 19.9995 19C21.6564 19 22.9995 17.6569 22.9995 16C22.9995 15.604 22.9223 15.2236 22.7811 14.8748C22.6535 14.5596 22.4299 14.2383 22.2332 13.9814C22.0223 13.7058 21.7797 13.425 21.5567 13.1788C21.3321 12.9308 21.1185 12.7084 20.9616 12.5483C20.8829 12.4681 20.8178 12.4029 20.772 12.3573L20.7182 12.3041L20.7033 12.2896L20.6972 12.2836ZM0.999512 22C0.999512 21.4477 1.44723 21 1.99951 21H13.9995C14.5518 21 14.9995 21.4477 14.9995 22C14.9995 22.5523 14.5518 23 13.9995 23H1.99951C1.44723 23 0.999512 22.5523 0.999512 22Z" fill="currentColor"/>
</svg>
