<svg width="24" height="24" viewBox="0 0 24 24" fill="none" xmlns="http://www.w3.org/2000/svg">
<path fill-rule="evenodd" clip-rule="evenodd" d="M5.5 2C3.84315 2 2.5 3.34315 2.5 5V7C2.5 8.65685 3.84315 10 5.5 10H15C16.6569 10 18 8.65685 18 7H19.0789C19.3115 7 19.5 7.18851 19.5 7.42105V11C19.5 11.5523 19.0523 12 18.5 12H13.5C12.6041 12 11.7999 12.3927 11.2502 13.0155C10.2635 13.1384 9.5 13.98 9.5 15V20C9.5 21.1046 10.3954 22 11.5 22C12.6046 22 13.5 21.1046 13.5 20V15C13.5 14.6486 13.4094 14.3184 13.2502 14.0314C13.3301 14.0109 13.4138 14 13.5 14H18.5C20.1569 14 21.5 12.6569 21.5 11V7.42105C21.5 6.08394 20.4161 5 19.0789 5H18C18 3.34315 16.6569 2 15 2H5.5Z" fill="currentColor"/>
</svg>
