<svg width="24" height="24" viewBox="0 0 24 24" fill="none" xmlns="http://www.w3.org/2000/svg">
<path fill-rule="evenodd" clip-rule="evenodd" d="M2.87673 10.6895C1.70515 11.8611 1.70515 13.7606 2.87673 14.9322L4.29094 16.3464C5.46251 17.518 7.36201 17.518 8.53358 16.3464L15.2511 9.62888C16.4226 8.45734 16.4227 6.5579 15.2512 5.38632L16.0142 4.62332C16.1786 4.45889 16.4452 4.45889 16.6096 4.62332L19.1403 7.15402C19.5309 7.54454 19.5309 8.17771 19.1403 8.56823L15.6048 12.1038C14.9321 12.7765 14.6456 13.6893 14.7455 14.5664C14.1199 15.3516 14.1705 16.4984 14.8972 17.2251L18.5857 20.9136C19.3667 21.6947 20.6331 21.6947 21.4141 20.9136C22.1952 20.1326 22.1952 18.8662 21.4141 18.0852L17.7256 14.3967C17.4581 14.1292 17.1337 13.9533 16.7914 13.869C16.8401 13.7411 16.9159 13.6211 17.019 13.518L20.5545 9.98245C21.7261 8.81088 21.7261 6.91138 20.5545 5.73981L18.0238 3.20911C17.0784 2.26363 15.5454 2.26363 14.6 3.20911L13.837 3.97211C12.6654 2.80054 10.7658 2.80046 9.59424 3.97203L2.87673 10.6895Z" fill="currentColor"/>
</svg>
