<svg width="24" height="24" viewBox="0 0 24 24" fill="none" xmlns="http://www.w3.org/2000/svg">
<path fill-rule="evenodd" clip-rule="evenodd" d="M12 1C5.92487 1 1 5.92487 1 12C1 18.0751 5.92487 23 12 23C13.1666 23 14.0853 22.7039 14.7396 22.0496C15.3635 21.4257 15.5988 20.6157 15.7337 19.9435C15.7921 19.6525 15.8382 19.3486 15.8806 19.0689L15.9025 18.9249C15.953 18.5948 16.0026 18.2938 16.0703 18.0088C16.2055 17.44 16.3945 17.0197 16.7071 16.7071C17.0197 16.3945 17.44 16.2055 18.0088 16.0703C18.2938 16.0026 18.5948 15.953 18.9249 15.9025L19.0689 15.8806C19.3486 15.8382 19.6525 15.7921 19.9435 15.7337C20.6157 15.5988 21.4257 15.3635 22.0496 14.7396C22.7039 14.0853 23 13.1666 23 12C23 5.9492 18.0766 1 12 1ZM12 8C12 9.10457 11.1046 10 10 10C8.89543 10 8 9.10457 8 8C8 6.89543 8.89543 6 10 6C11.1046 6 12 6.89543 12 8ZM7 15C8.10457 15 9 14.1046 9 13C9 11.8954 8.10457 11 7 11C5.89543 11 5 11.8954 5 13C5 14.1046 5.89543 15 7 15ZM18 9C18 10.1046 17.1046 11 16 11C14.8954 11 14 10.1046 14 9C14 7.89543 14.8954 7 16 7C17.1046 7 18 7.89543 18 9Z" fill="currentColor"/>
</svg>
