<svg width="24" height="24" viewBox="0 0 24 24" fill="none" xmlns="http://www.w3.org/2000/svg">
<path fill-rule="evenodd" clip-rule="evenodd" d="M4 5C3.44772 5 3 5.44772 3 6C3 6.55228 3.44772 7 4 7H20C20.5523 7 21 6.55228 21 6C21 5.44772 20.5523 5 20 5H4ZM4 17C3.44772 17 3 17.4477 3 18C3 18.5523 3.44772 19 4 19H10C10.5523 19 11 18.5523 11 18C11 17.4477 10.5523 17 10 17H4ZM3 12C3 11.4477 3.44772 11 4.00001 11H17C18.369 11 19.608 11.2837 20.5302 11.9623C21.4963 12.6733 22 13.7347 22 15C22 16.2653 21.4963 17.3267 20.5302 18.0377C19.608 18.7163 18.369 19 17 19H16.4142L17.2071 19.7929C17.5976 20.1834 17.5976 20.8166 17.2071 21.2071C16.8166 21.5976 16.1834 21.5976 15.7929 21.2071L13.2929 18.7071C12.9024 18.3166 12.9024 17.6834 13.2929 17.2929L15.7929 14.7929C16.1834 14.4024 16.8166 14.4024 17.2071 14.7929C17.5976 15.1834 17.5976 15.8166 17.2071 16.2071L16.4142 17H17C18.131 17 18.892 16.76 19.3448 16.4268C19.7537 16.1259 20 15.6873 20 15C20 14.3127 19.7537 13.8741 19.3448 13.5732C18.892 13.2399 18.131 13 17 13H3.99999C3.44771 13 3 12.5523 3 12Z" fill="currentColor"/>
</svg>
