<svg width="24" height="24" viewBox="0 0 24 24" fill="none" xmlns="http://www.w3.org/2000/svg">
<path fill-rule="evenodd" clip-rule="evenodd" d="M5 2C3.34315 2 2 3.34315 2 5V19C2 20.6569 3.34315 22 5 22H19C20.6569 22 22 20.6569 22 19V5C22 3.34315 20.6569 2 19 2H5ZM16 20C15.4477 20 15 19.5523 15 19L15 17.0055L15 17V15H14V19C14 19.5523 13.5523 20 13 20C12.4477 20 12 19.5523 12 19V14.9629C11.8637 14.9429 11.6809 14.912 11.4662 14.8659C11.0102 14.768 10.3883 14.5964 9.7547 14.3C8.49669 13.7114 7.00001 12.5175 7.00001 10.3077C7.00001 9.28322 7.28837 8.45105 7.76871 7.80109C8.2405 7.16269 8.85393 6.7582 9.42218 6.50189C9.98908 6.24619 10.5426 6.1233 10.9451 6.06279C11.1489 6.03215 11.3206 6.01653 11.4448 6.00852C11.5071 6.00451 11.5579 6.00238 11.5954 6.00125C11.6142 6.00069 11.6297 6.00037 11.6416 6.0002L11.6569 6.00003L11.6625 6L11.6647 5.99999H11.6658H13H16C16.5523 5.99999 17 6.44771 17 6.99999L17 19C17 19.5523 16.5523 20 16 20ZM12 7.99999H11.6705L11.6556 8.00035C11.6393 8.00084 11.6114 8.00194 11.5734 8.00438C11.4972 8.0093 11.3824 8.01952 11.2424 8.04056C10.9574 8.08341 10.5943 8.16726 10.2445 8.32502C9.89609 8.48217 9.59285 8.69788 9.37714 8.98976C9.16997 9.27009 9.00001 9.6783 9.00001 10.3077C9.00001 11.4056 9.68179 12.0578 10.6023 12.4885C11.0579 12.7016 11.5252 12.833 11.8862 12.9105C11.9257 12.919 11.9637 12.9268 12 12.9339V7.99999ZM14 13V7.99999H15V13H14Z" fill="currentColor"/>
</svg>
