<svg width="24" height="24" viewBox="0 0 24 24" fill="none" xmlns="http://www.w3.org/2000/svg">
<path fill-rule="evenodd" clip-rule="evenodd" d="M19.0425 12.074L17.4947 5.87419C17.3192 5.17103 16.7769 4.61786 16.0774 4.42827L3.48868 1.01639C3.0931 0.909175 2.8114 1.39549 3.1012 1.6853L10.0284 8.61254C10.9256 8.26101 11.9848 8.44769 12.7097 9.17257C13.686 10.1489 13.686 11.7318 12.7097 12.7081C11.7334 13.6844 10.1505 13.6844 9.17418 12.7081C8.44927 11.9832 8.2626 10.9239 8.61419 10.0267L1.68701 3.09954C1.3972 2.80973 0.91088 3.09144 1.0181 3.48702L4.43006 16.0756C4.61966 16.7751 5.17288 17.3173 5.87608 17.4928L12.0763 19.0404C12.7576 19.2104 13.4783 19.0107 13.9748 18.5141L18.5163 13.9727C19.0129 13.4761 19.2126 12.7554 19.0425 12.074ZM19.6665 14.4376C20.2499 13.8542 21.1959 13.8542 21.7793 14.4376L22.5626 15.2209C23.146 15.8043 23.146 16.7502 22.5626 17.3336L17.3338 22.5624C16.7503 23.1459 15.8044 23.1459 15.221 22.5624L14.4377 21.7792C13.8543 21.1957 13.8543 20.2498 14.4377 19.6664L19.6665 14.4376Z" fill="currentColor"/>
</svg>
