<svg width="24" height="24" viewBox="0 0 24 24" fill="none" xmlns="http://www.w3.org/2000/svg">
<path fill-rule="evenodd" clip-rule="evenodd" d="M2.00049 6C2.00049 5.44772 2.44832 5 3.00075 5L5.00127 5L5.00127 3C5.00127 2.44772 5.4491 2 6.00153 2C6.55396 2 7.00179 2.44772 7.00179 3L7.00179 5L9.00231 5C9.55474 5 10.0026 5.44772 10.0026 6C10.0026 6.55228 9.55474 7 9.00231 7L7.00179 7L7.00179 9C7.00179 9.55228 6.55396 10 6.00153 10C5.4491 10 5.00127 9.55228 5.00127 9L5.00127 7L3.00075 7C2.44832 7 2.00049 6.55228 2.00049 6ZM9.28964 9.95322L13.8741 8.80899C14.3809 8.68251 14.9168 8.83103 15.2862 9.20026L18.6638 12.577C19.0331 12.9462 19.1817 13.482 19.0552 13.9886L17.9109 18.5721C17.7768 19.109 17.3557 19.5271 16.8177 19.6573L7.17587 21.9909C6.88375 22.0616 6.68299 21.704 6.89551 21.4915L12.0056 16.3829C12.7275 16.8612 13.7099 16.7824 14.346 16.1464C15.0721 15.4205 15.0721 14.2436 14.346 13.5176C13.6199 12.7917 12.4426 12.7917 11.7165 13.5176C11.0805 14.1535 11.0016 15.1353 11.4797 15.857L6.3696 20.9658C6.15707 21.1783 5.79938 20.9775 5.8701 20.6855L8.20422 11.0461C8.33445 10.5083 8.75262 10.0873 9.28964 9.95322ZM15.6323 6.77442C15.1984 7.20821 15.1984 7.91153 15.6323 8.34533L19.5212 12.2331C19.9551 12.6669 20.6586 12.6669 21.0925 12.2331L21.6751 11.6507C22.109 11.2169 22.109 10.5136 21.6751 10.0798L17.7862 6.19201C17.3523 5.75822 16.6488 5.75822 16.2149 6.19202L15.6323 6.77442Z" fill="currentColor"/>
</svg>
