<svg width="24" height="24" viewBox="0 0 24 24" fill="none" xmlns="http://www.w3.org/2000/svg">
<path fill-rule="evenodd" clip-rule="evenodd" d="M6 2C6 1.44772 5.55228 1 5 1C4.44772 1 4 1.44772 4 2V4H2C1.44772 4 1 4.44772 1 5C1 5.55228 1.44772 6 2 6H4V8C4 8.55228 4.44771 9 5 9C5.55228 9 6 8.55228 6 8V6H8C8.55228 6 9 5.55228 9 5C9 4.44772 8.55228 4 8 4H6V2ZM3.06712 21.7126C2.96105 22.0651 3.0573 22.4475 3.31766 22.7078C3.57802 22.9681 3.96037 23.0643 4.31293 22.9582L16.3608 19.3321C16.9345 19.1595 17.4005 18.7387 17.6308 18.1856L19.9325 12.6562C20.3218 12.5871 20.6946 12.4021 20.9954 12.1013L22.4097 10.6871C23.1907 9.90606 23.1907 8.63973 22.4097 7.85868L18.167 3.61604C17.386 2.83499 16.1196 2.83499 15.3386 3.61604L13.9244 5.03025C13.6237 5.3309 13.4388 5.70345 13.3696 6.09256L7.83894 8.3932C7.28553 8.6234 6.86454 9.08967 6.69187 9.66364L3.06712 21.7126ZM15.3386 6.44446L19.5812 10.6871L20.9954 9.27289L16.7528 5.03025L15.3386 6.44446ZM14.0439 7.9782L8.60708 10.2398L6.12668 18.4848L9.09562 15.5159C8.56289 14.4008 8.75835 13.0247 9.682 12.101C10.8536 10.9295 12.7531 10.9295 13.9246 12.101C15.0962 13.2726 15.0962 15.1721 13.9246 16.3437C13.001 17.2673 11.625 17.4628 10.5099 16.9301L7.54231 19.8976L15.7844 17.417L18.047 11.9813L14.0439 7.9782ZM12.5104 14.9295C12.1199 15.32 11.4867 15.32 11.0962 14.9295C10.7057 14.5389 10.7057 13.9058 11.0962 13.5152C11.4867 13.1247 12.1199 13.1247 12.5104 13.5152C12.901 13.9058 12.901 14.5389 12.5104 14.9295Z" fill="currentColor"/>
</svg>
