<svg width="24" height="24" viewBox="0 0 24 24" fill="none" xmlns="http://www.w3.org/2000/svg">
<path fill-rule="evenodd" clip-rule="evenodd" d="M13.8761 4.94223L9.29287 6.08646C8.75599 6.22049 8.33794 6.64154 8.20774 7.17936L5.87425 16.8187C5.80355 17.1108 6.16115 17.3115 6.37361 17.099L11.4824 11.9903C11.0044 11.2686 11.0833 10.2867 11.7191 9.65088C12.445 8.92496 13.622 8.92496 14.3479 9.65088C15.0738 10.3768 15.0738 11.5537 14.3479 12.2797C13.7119 12.9156 12.7298 12.9944 12.008 12.5161L6.89939 17.6248C6.68692 17.8372 6.88763 18.1948 7.17967 18.1241L16.8189 15.7906C17.3567 15.6604 17.7778 15.2423 17.9118 14.7054L19.0558 10.1219C19.1823 9.61525 19.0337 9.07944 18.6645 8.71023L15.2878 5.3335C14.9186 4.96426 14.3827 4.81575 13.8761 4.94223ZM15.6335 4.47866C15.1997 4.04486 15.1997 3.34154 15.6335 2.90775L16.2159 2.32535C16.6497 1.89155 17.353 1.89155 17.7868 2.32535L21.6746 6.21314C22.1084 6.64694 22.1084 7.35026 21.6746 7.78405L21.0922 8.36646C20.6584 8.80025 19.9551 8.80025 19.5213 8.36646L15.6335 4.47866Z" fill="currentColor"/>
<path fill-rule="evenodd" clip-rule="evenodd" d="M4.7543 15.59C5.02583 15.78 5.09249 16.1544 4.90255 16.426C4.71913 16.6882 4.36397 16.7589 4.09529 16.5923L4.09049 16.5911C4.08701 16.5901 4.07125 16.5858 4.03411 16.6064C4.00167 16.6244 3.98476 16.6381 3.97686 16.6457C3.97623 16.6533 3.97598 16.6669 3.97824 16.6884C3.99355 16.8337 4.08191 17.0452 4.25237 17.3937C4.26613 17.4218 4.28039 17.4508 4.29504 17.4806C4.4383 17.7716 4.61826 18.1373 4.7166 18.5035C4.74601 18.613 4.76998 18.729 4.78406 18.8493C5.02376 18.89 5.26411 18.9772 5.47558 19.1361C5.85453 19.4208 5.94426 19.8387 5.97805 20.0835L5.97861 20.0824C5.98838 20.0623 5.99859 20.0412 6.00924 20.0192C6.10136 19.8286 6.22628 19.5702 6.38505 19.353C6.56834 19.1023 6.85931 18.8171 7.30526 18.7483C7.83971 18.6658 8.24783 18.8797 8.53474 19.1793C8.77958 19.435 8.95646 19.7751 9.0875 20.027C9.09153 20.0348 9.09552 20.0424 9.09946 20.05C9.2523 20.3436 9.35985 20.5447 9.48204 20.6809C9.5793 20.7893 9.63779 20.8051 9.7125 20.8008C9.82142 20.7946 9.97206 20.7427 10.1614 20.6175C10.3465 20.4949 10.5321 20.3264 10.7028 20.1442C10.8716 19.964 11.0141 19.7831 11.1148 19.6464C11.1648 19.5785 11.2036 19.5226 11.2293 19.4847C11.2422 19.4657 11.2517 19.4514 11.2576 19.4423L11.2638 19.4327L11.2645 19.4317C11.4419 19.152 11.8126 19.0688 12.0924 19.2462C12.3723 19.4236 12.4554 19.7943 12.278 20.0742L12.2772 20.0754L12.2761 20.0771L12.2728 20.0823L12.2617 20.0994C12.2524 20.1136 12.2393 20.1334 12.2226 20.158C12.1893 20.2072 12.1415 20.2759 12.0812 20.3578C11.9613 20.5206 11.7885 20.7405 11.5785 20.9647C11.3703 21.1869 11.1133 21.4265 10.8236 21.6182C10.5379 21.8072 10.1812 21.9759 9.7814 21.9989C9.24706 22.0296 8.85798 21.7823 8.58879 21.4822C8.35688 21.2237 8.18491 20.8926 8.05538 20.6432C8.04848 20.6299 8.0417 20.6169 8.03504 20.6041C7.88267 20.3114 7.77904 20.1252 7.66802 20.0093C7.59155 19.9294 7.5567 19.9237 7.48823 19.9343C7.48364 19.935 7.47498 19.9364 7.45596 19.9503C7.43321 19.967 7.39866 19.9998 7.35379 20.0612C7.26302 20.1853 7.18628 20.3431 7.08372 20.5539C7.07509 20.5716 7.06628 20.5897 7.05726 20.6082C7.05516 20.6125 7.05303 20.6169 7.05088 20.6213C6.95775 20.8125 6.81178 21.1121 6.59518 21.3145C6.46856 21.4328 6.28893 21.5475 6.05369 21.5776C5.81837 21.6077 5.60382 21.5433 5.42523 21.4446C4.90462 21.1567 4.83731 20.6275 4.80799 20.3969C4.80679 20.3875 4.80565 20.3786 4.80456 20.3702C4.78569 20.2263 4.77669 20.1636 4.75989 20.1132C4.75647 20.103 4.75374 20.0968 4.75212 20.0935C4.71335 20.0655 4.63543 20.033 4.50742 20.023C4.47294 20.0824 4.43757 20.1453 4.39897 20.214C4.36009 20.2832 4.31794 20.3582 4.27012 20.4413C4.15985 20.6329 4.02703 20.8529 3.88067 21.0388C3.75295 21.2011 3.53201 21.4488 3.21725 21.5398C3.03485 21.5925 2.83053 21.5896 2.6324 21.5035C2.44635 21.4226 2.3106 21.2881 2.21246 21.1543C2.06387 20.9518 1.98809 20.7146 2.00152 20.4654C2.01441 20.2264 2.10656 20.0203 2.21746 19.8574C2.43255 19.5414 2.77553 19.3005 3.11319 19.1369C3.26221 19.0647 3.42202 19.0017 3.58737 18.9514C3.5808 18.9098 3.57104 18.8645 3.55767 18.8147C3.4914 18.5679 3.3638 18.3075 3.20885 17.9913C3.19751 17.9681 3.18602 17.9447 3.17439 17.9209C3.02618 17.6179 2.8265 17.2096 2.78485 16.8141C2.76207 16.5979 2.78115 16.3512 2.90093 16.1107C3.0218 15.868 3.21747 15.6873 3.45178 15.5572C3.78462 15.3725 4.10384 15.3666 4.34256 15.4178C4.45773 15.4426 4.55156 15.4798 4.61936 15.5124C4.65357 15.5289 4.68216 15.5448 4.70464 15.5582C4.71592 15.5649 4.72576 15.571 4.73411 15.5765L4.74556 15.584L4.75046 15.5874L4.7527 15.5889L4.7543 15.59ZM3.97806 16.6379L3.97764 16.6396L3.97806 16.6379Z" fill="currentColor"/>
</svg>
