<svg width="24" height="24" viewBox="0 0 24 24" fill="none" xmlns="http://www.w3.org/2000/svg">
<path fill-rule="evenodd" clip-rule="evenodd" d="M3.22917 2.0247C2.89117 1.94396 2.53548 2.04449 2.28975 2.29022C2.04402 2.53594 1.94348 2.89162 2.0242 3.22963L5.28618 16.8878C5.46473 17.6354 6.05589 18.2145 6.80698 18.3776L12.3479 19.5811C12.224 20.2127 12.4067 20.8926 12.8961 21.382L14.3103 22.7962C15.0914 23.5772 16.3577 23.5772 17.1388 22.7962L22.7956 17.1393C23.5767 16.3583 23.5767 15.0919 22.7956 14.3109L21.3814 12.8967C20.892 12.4073 20.2122 12.2246 19.5805 12.3484L18.3768 6.8077C18.2137 6.05667 17.6346 5.46557 16.887 5.28702L3.22917 2.0247ZM14.6474 19.6306L14.6641 19.6143L19.6139 14.6646L19.6301 14.6479L19.9672 14.3109L21.3814 15.7251L15.7245 21.382L14.3103 19.9677L14.6474 19.6306ZM17.8136 13.636L16.4224 7.23229L6.20565 4.79192L10.8958 9.48211C12.011 8.94926 13.3872 9.14468 14.3109 10.0684C15.4825 11.24 15.4825 13.1395 14.3109 14.311C13.1393 15.4826 11.2399 15.4826 10.0683 14.311C9.14472 13.3875 8.94921 12.0115 9.48176 10.8965L4.7913 6.206L7.23147 16.4232L13.6355 17.8141L17.8136 13.636ZM11.4825 12.8968C11.092 12.5063 11.092 11.8731 11.4825 11.4826C11.873 11.0921 12.5062 11.0921 12.8967 11.4826C13.2872 11.8731 13.2872 12.5063 12.8967 12.8968C12.5062 13.2873 11.873 13.2873 11.4825 12.8968Z" fill="currentColor"/>
</svg>
