<svg width="24" height="24" viewBox="0 0 24 24" fill="none" xmlns="http://www.w3.org/2000/svg">
<path d="M1.31549 17.7706C1.71817 17.3928 2.35165 17.413 2.72956 17.8155L2.73054 17.8165C2.73194 17.818 2.73391 17.8216 2.73737 17.8253C2.74454 17.8328 2.75709 17.8445 2.77253 17.8605C2.80358 17.8926 2.85062 17.9415 2.91218 18.003C3.03588 18.1267 3.21749 18.3032 3.44245 18.5099C3.89552 18.9262 4.51337 19.453 5.18953 19.9152C5.87754 20.3854 6.56457 20.7465 7.16122 20.8937C7.74166 21.0367 8.10079 20.9511 8.35458 20.7364C8.59695 20.5312 8.64259 20.3723 8.75692 19.9513C8.88846 19.4669 9.09223 18.7609 9.92881 18.1788C10.7929 17.5777 11.7601 17.6608 12.5401 17.9366C13.3096 18.2089 14.04 18.7116 14.6388 19.2042C15.2485 19.7058 15.7821 20.2478 16.1593 20.6583C16.3491 20.8649 16.5026 21.0418 16.6095 21.1681C16.6627 21.231 16.7052 21.2817 16.7345 21.3175C16.7491 21.3353 16.7605 21.3503 16.7687 21.3605C16.7726 21.3653 16.7761 21.3692 16.7784 21.3722L16.7814 21.3761L16.7833 21.378L16.8429 21.462C17.116 21.8887 17.0275 22.4614 16.6222 22.7833C16.2166 23.1052 15.6379 23.0617 15.2843 22.6984L15.2169 22.6222L15.211 22.6154C15.2059 22.6089 15.1979 22.5979 15.1866 22.5841C15.1639 22.5563 15.1287 22.514 15.0831 22.4601C14.9912 22.3514 14.8553 22.1954 14.6866 22.0118C14.3465 21.6417 13.8821 21.1709 13.3683 20.7482C12.8432 20.3163 12.3231 19.9816 11.8731 19.8224C11.4339 19.667 11.2113 19.7241 11.0714 19.8214C10.8331 19.9872 10.7862 20.1088 10.6866 20.4757C10.5698 20.9059 10.4026 21.6233 9.6456 22.2638C8.73293 23.0357 7.63315 23.0693 6.6827 22.8351C5.74839 22.6047 4.83065 22.0919 4.06062 21.5655C3.27879 21.0311 2.58362 20.437 2.08893 19.9825C1.84032 19.7541 1.6386 19.5576 1.49811 19.4171C1.42785 19.3468 1.37243 19.2898 1.33405 19.2501C1.31513 19.2305 1.27057 19.1847 1.27057 19.1847C0.892966 18.782 0.913032 18.1485 1.31549 17.7706ZM17.757 1.58599C18.538 0.804961 19.804 0.805031 20.5851 1.58599L22.4152 3.41607C23.1959 4.19716 23.1961 5.46324 22.4152 6.24421L13.0528 15.6065C12.8216 15.8375 12.5373 16.0099 12.2247 16.1056L9.58798 16.9122C8.05618 17.3802 6.62304 15.9461 7.0909 14.4142L7.89755 11.7774C7.99315 11.4649 8.16367 11.1796 8.39462 10.9483L17.757 1.58599ZM9.80966 12.3624L9.00302 14.9991L11.6388 14.1925L18.7062 7.12409L16.8761 5.29401L9.80966 12.3624ZM18.2902 3.87994L20.1202 5.71003L21.0011 4.83014L19.171 3.00006L18.2902 3.87994Z" fill="currentColor"/>
</svg>
