<svg width="24" height="24" viewBox="0 0 24 24" fill="none" xmlns="http://www.w3.org/2000/svg">
<path fill-rule="evenodd" clip-rule="evenodd" d="M15.8864 2.58579C16.6675 1.80474 17.9338 1.80474 18.7149 2.58579L21.4136 5.28454C22.1947 6.06559 22.1947 7.33192 21.4136 8.11297L9.30861 20.218C9.0772 20.4494 8.79254 20.6205 8.47961 20.7162L4.59197 21.9058C3.05956 22.3747 1.62558 20.9411 2.09417 19.4086L3.28313 15.5201C3.37887 15.207 3.55 14.9222 3.78151 14.6907L15.8864 2.58579ZM17.3006 4L14.806 6.4946L17.5048 9.19336L19.9994 6.69875L17.3006 4ZM5.19572 16.1049L13.3918 7.90882L16.0906 10.6076L7.89439 18.8037L4.00676 19.9934L5.19572 16.1049ZM13 20C12.4477 20 12 20.4477 12 21C12 21.5523 12.4477 22 13 22H21C21.5523 22 22 21.5523 22 21C22 20.4477 21.5523 20 21 20H13Z" fill="currentColor"/>
</svg>
