<svg width="24" height="24" viewBox="0 0 24 24" fill="none" xmlns="http://www.w3.org/2000/svg">
<path fill-rule="evenodd" clip-rule="evenodd" d="M3.34202 2.0606C2.97688 1.92783 2.56789 2.01856 2.29317 2.29329C2.01844 2.56802 1.9277 2.97701 2.06048 3.34214L7.71733 18.8985C7.76727 19.0358 7.8467 19.1605 7.95002 19.2639L10.0713 21.3852C10.4619 21.7757 11.095 21.7757 11.4856 21.3852C11.8761 20.9946 11.8761 20.3615 11.4856 19.971L9.5211 18.0065L9.06032 16.7393L16.7392 9.06044L18.0064 9.52123L19.9708 11.4857C20.3614 11.8762 20.9945 11.8762 21.385 11.4857C21.7756 11.0952 21.7756 10.462 21.385 10.0715L19.2637 7.95014C19.1604 7.84682 19.0357 7.76739 18.8984 7.71746L3.34202 2.0606ZM14.665 8.30619L8.30607 14.6652L6.79757 10.5168L10.4249 6.88948C10.4551 6.85927 10.483 6.82761 10.5085 6.79473L14.665 8.30619Z" fill="currentColor"/>
</svg>
