<svg width="24" height="24" viewBox="0 0 24 24" fill="none" xmlns="http://www.w3.org/2000/svg">
<path fill-rule="evenodd" clip-rule="evenodd" d="M18.7146 2.58579C17.9336 1.80474 16.6672 1.80474 15.8862 2.58579L3.78126 14.6907C3.54976 14.9222 3.37862 15.207 3.28289 15.5201L2.09392 19.4086C1.62533 20.9411 3.05931 22.3747 4.59173 21.9058L8.47936 20.7162C8.7923 20.6205 9.07696 20.4494 9.30836 20.218L21.4134 8.11297C22.1944 7.33192 22.1944 6.06559 21.4134 5.28454L18.7146 2.58579ZM15.8058 5.4946L17.3004 4L19.9991 6.69875L18.5045 8.19336L15.8058 5.4946ZM14.3916 6.90882L5.19548 16.1049L4.00651 19.9934L7.89415 18.8037L17.0903 9.60757L14.3916 6.90882Z" fill="currentColor"/>
</svg>
