<svg width="24" height="24" viewBox="0 0 24 24" fill="none" xmlns="http://www.w3.org/2000/svg">
<path d="M1.31529 17.7706C1.71796 17.3928 2.35144 17.413 2.72935 17.8155L2.73033 17.8165C2.73173 17.818 2.7337 17.8216 2.73716 17.8253C2.74433 17.8328 2.75688 17.8445 2.77232 17.8605C2.80337 17.8926 2.85041 17.9415 2.91197 18.003C3.03567 18.1267 3.21728 18.3032 3.44224 18.5099C3.89531 18.9262 4.51316 19.453 5.18932 19.9152C5.87733 20.3854 6.56436 20.7465 7.16101 20.8937C7.74146 21.0367 8.10058 20.9511 8.35437 20.7364C8.59674 20.5312 8.64239 20.3723 8.75672 19.9513C8.88825 19.4669 9.09202 18.7609 9.92859 18.1788C10.7927 17.5777 11.7599 17.6608 12.5399 17.9366C13.3094 18.2089 14.0398 18.7116 14.6386 19.2042C15.2483 19.7058 15.7818 20.2478 16.1591 20.6583C16.3489 20.8649 16.5024 21.0418 16.6093 21.1681C16.6625 21.231 16.705 21.2817 16.7343 21.3175C16.7488 21.3353 16.7603 21.3503 16.7685 21.3605C16.7723 21.3653 16.7758 21.3692 16.7782 21.3722L16.7812 21.3761L16.7831 21.378L16.8427 21.462C17.1158 21.8887 17.0272 22.4614 16.622 22.7833C16.2164 23.1052 15.6377 23.0617 15.2841 22.6984L15.2167 22.6222L15.2108 22.6154C15.2057 22.6089 15.1977 22.5979 15.1864 22.5841C15.1637 22.5563 15.1285 22.514 15.0829 22.4601C14.991 22.3514 14.855 22.1954 14.6864 22.0118C14.3463 21.6417 13.8819 21.1709 13.3681 20.7482C12.843 20.3163 12.3228 19.9816 11.8729 19.8224C11.4337 19.667 11.2111 19.7241 11.0712 19.8214C10.8329 19.9872 10.786 20.1088 10.6864 20.4757C10.5696 20.9059 10.4024 21.6233 9.64539 22.2638C8.73272 23.0357 7.63294 23.0693 6.68249 22.8351C5.74818 22.6047 4.83044 22.0919 4.06041 21.5655C3.27858 21.0311 2.58341 20.437 2.08873 19.9825C1.84011 19.7541 1.63839 19.5576 1.4979 19.4171C1.42764 19.3468 1.37222 19.2898 1.33384 19.2501C1.31492 19.2305 1.28083 19.1957 1.2703 19.1847C1.26508 19.1792 1.27334 19.1879 1.2703 19.1847C1.26749 19.1877 1.27314 19.1817 1.2703 19.1847C0.892691 18.782 0.912822 18.1485 1.31529 17.7706ZM17.7567 1.58599C18.5377 0.804961 19.8038 0.805031 20.5849 1.58599L22.415 3.41607C23.1958 4.19716 23.1959 5.46322 22.415 6.24421L13.0526 15.6065C12.8213 15.8376 12.5371 16.0099 12.2245 16.1056L9.58777 16.9122C8.05581 17.3804 6.62257 15.9463 7.09069 14.4142L7.89734 11.7774C7.99297 11.4648 8.16337 11.1796 8.39441 10.9483L17.7567 1.58599ZM18.2899 3.87994L20.12 5.71003L21.0009 4.83014L19.1708 3.00006L18.2899 3.87994Z" fill="currentColor"/>
</svg>
