<svg width="24" height="24" viewBox="0 0 24 24" fill="none" xmlns="http://www.w3.org/2000/svg">
<path fill-rule="evenodd" clip-rule="evenodd" d="M7 4C7 3.44772 7.44772 3 8 3H16C16.5523 3 17 3.44772 17 4V6H7V4ZM5 6V4C5 2.34315 6.34315 1 8 1H16C17.6569 1 19 2.34315 19 4V6C21.2091 6 23 7.79086 23 10V15C23 17.2091 21.2091 19 19 19V20C19 21.6569 17.6569 23 16 23H8C6.34315 23 5 21.6569 5 20V19C2.79086 19 1 17.2091 1 15V10C1 7.79086 2.79086 6 5 6ZM18 8H6H5C3.89543 8 3 8.89543 3 10V15C3 16.1046 3.89543 17 5 17V16C5 14.3431 6.34315 13 8 13H16C17.6569 13 19 14.3431 19 16V17C20.1046 17 21 16.1046 21 15V10C21 8.89543 20.1046 8 19 8H18ZM15 10C14.4477 10 14 10.4477 14 11C14 11.5523 14.4477 12 15 12H18C18.5523 12 19 11.5523 19 11C19 10.4477 18.5523 10 18 10H15ZM8 15C7.44772 15 7 15.4477 7 16V20C7 20.5523 7.44772 21 8 21H16C16.5523 21 17 20.5523 17 20V16C17 15.4477 16.5523 15 16 15H8Z" fill="currentColor"/>
</svg>
