<svg width="24" height="24" viewBox="0 0 24 24" fill="none" xmlns="http://www.w3.org/2000/svg">
<path fill-rule="evenodd" clip-rule="evenodd" d="M8 3C7.44772 3 7 3.44772 7 4V6H17V4C17 3.44772 16.5523 3 16 3H8ZM5 4V6C2.79086 6 1 7.79086 1 10V15C1 17.2091 2.79086 19 5 19V20C5 21.6569 6.34315 23 8 23H14.2638C13.7546 22.4317 13.5 21.7158 13.5 21H8C7.44772 21 7 20.5523 7 20V16C7 15.4477 7.44772 15 8 15H13H13.9011C14.0294 14.7779 14.1887 14.5687 14.3787 14.3787C15.4655 13.2919 17.1787 13.2132 18.3562 14.1428C17.8068 13.4468 16.9556 13 16 13H13H8C6.34315 13 5 14.3431 5 16V17C3.89543 17 3 16.1046 3 15V10C3 8.89543 3.89543 8 5 8H6H18H19C20.1046 8 21 8.89543 21 10V13.5C21.7158 13.5 22.4317 13.7546 23 14.2638V10C23 7.79086 21.2091 6 19 6V4C19 2.34315 17.6569 1 16 1H8C6.34315 1 5 2.34315 5 4ZM14 11C14 10.4477 14.4477 10 15 10H18C18.5523 10 19 10.4477 19 11C19 11.5523 18.5523 12 18 12H15C14.4477 12 14 11.5523 14 11ZM21.7071 15.7929C22.0976 16.1834 22.0976 16.8166 21.7071 17.2071L20.1642 18.75L21.7071 20.2929C22.0976 20.6834 22.0976 21.3166 21.7071 21.7071C21.3166 22.0976 20.6834 22.0976 20.2929 21.7071L18.75 20.1642L17.2071 21.7071C16.8166 22.0976 16.1834 22.0976 15.7929 21.7071C15.4024 21.3166 15.4024 20.6834 15.7929 20.2929L17.3358 18.75L15.7929 17.2071C15.4024 16.8166 15.4024 16.1834 15.7929 15.7929C16.1834 15.4024 16.8166 15.4024 17.2071 15.7929L18.75 17.3358L20.2929 15.7929C20.6834 15.4024 21.3166 15.4024 21.7071 15.7929Z" fill="currentColor"/>
</svg>
