<svg width="24" height="24" viewBox="0 0 24 24" fill="none" xmlns="http://www.w3.org/2000/svg">
<path fill-rule="evenodd" clip-rule="evenodd" d="M8 3C7.44772 3 7 3.44772 7 4V6H17V4C17 3.44772 16.5523 3 16 3H8ZM5 4V6H4C2.34315 6 1 7.34315 1 9V16.25C1 17.7688 2.23122 19 3.75 19H4C4.35555 19 4.69377 18.9258 5 18.792V20C5 21.6569 6.34315 23 8 23H14.2638C13.7546 22.4317 13.5 21.7158 13.5 21H8C7.44772 21 7 20.5523 7 20V16C7 15.4477 7.44772 15 8 15H13.9011C14.0294 14.7779 14.1887 14.5687 14.3787 14.3787C15.5503 13.2071 17.4497 13.2071 18.6213 14.3787L18.75 14.5074L18.8787 14.3787C20.0106 13.2467 21.8221 13.2084 23 14.2638V9C23 7.34315 21.6569 6 20 6H19V4C19 2.34315 17.6569 1 16 1H8C6.34315 1 5 2.34315 5 4ZM14 11C14 10.4477 14.4477 10 15 10H18C18.5523 10 19 10.4477 19 11C19 11.5523 18.5523 12 18 12H15C14.4477 12 14 11.5523 14 11ZM21.7071 15.7929C22.0976 16.1834 22.0976 16.8166 21.7071 17.2071L20.1642 18.75L21.7071 20.2929C22.0976 20.6834 22.0976 21.3166 21.7071 21.7071C21.3166 22.0976 20.6834 22.0976 20.2929 21.7071L18.75 20.1642L17.2071 21.7071C16.8166 22.0976 16.1834 22.0976 15.7929 21.7071C15.4024 21.3166 15.4024 20.6834 15.7929 20.2929L17.3358 18.75L15.7929 17.2071C15.4024 16.8166 15.4024 16.1834 15.7929 15.7929C16.1834 15.4024 16.8166 15.4024 17.2071 15.7929L18.75 17.3358L20.2929 15.7929C20.6834 15.4024 21.3166 15.4024 21.7071 15.7929Z" fill="currentColor"/>
</svg>
