<svg width="24" height="24" viewBox="0 0 24 24" fill="none" xmlns="http://www.w3.org/2000/svg">
<path fill-rule="evenodd" clip-rule="evenodd" d="M2 5C2 3.34315 3.34315 2 5 2H6.5C7.05228 2 7.5 2.44772 7.5 3C7.5 3.55228 7.05228 4 6.5 4H5C4.44772 4 4 4.44772 4 5V6.5C4 7.05228 3.55228 7.5 3 7.5C2.44772 7.5 2 7.05228 2 6.5V5ZM9.5 3C9.5 2.44772 9.94772 2 10.5 2H13.5C14.0523 2 14.5 2.44772 14.5 3C14.5 3.55228 14.0523 4 13.5 4H10.5C9.94772 4 9.5 3.55228 9.5 3ZM16.5 3C16.5 2.44772 16.9477 2 17.5 2H19C20.6569 2 22 3.34315 22 5V6.5C22 7.05228 21.5523 7.5 21 7.5C20.4477 7.5 20 7.05228 20 6.5V5C20 4.44772 19.5523 4 19 4H17.5C16.9477 4 16.5 3.55228 16.5 3ZM3 9.5C3.55228 9.5 4 9.94772 4 10.5V11.1707C4.31278 11.0602 4.64936 11 5 11H10C11.6569 11 13 12.3431 13 14V19C13 19.3506 12.9398 19.6872 12.8293 20H13.5C14.0523 20 14.5 20.4477 14.5 21C14.5 21.5523 14.0523 22 13.5 22H10.5C10.4377 22 10.3767 21.9943 10.3175 21.9834C10.2132 21.9944 10.1073 22 10 22H6.5H5C3.34315 22 2 20.6569 2 19V17.5V14C2 13.8927 2.00563 13.7868 2.01661 13.6825C2.0057 13.6233 2 13.5623 2 13.5V10.5C2 9.94772 2.44772 9.5 3 9.5ZM21 9.5C21.5523 9.5 22 9.94772 22 10.5V13.25C22 13.8023 21.5523 14.25 21 14.25C20.4477 14.25 20 13.8023 20 13.25V10.5C20 9.94772 20.4477 9.5 21 9.5ZM21 16.5C21.5523 16.5 22 16.9477 22 17.5V19C22 20.6569 20.6569 22 19 22H17.5C16.9477 22 16.5 21.5523 16.5 21C16.5 20.4477 16.9477 20 17.5 20H19C19.5523 20 20 19.5523 20 19V17.5C20 16.9477 20.4477 16.5 21 16.5Z" fill="currentColor"/>
</svg>
