<svg width="24" height="24" viewBox="0 0 24 24" fill="none" xmlns="http://www.w3.org/2000/svg">
<path fill-rule="evenodd" clip-rule="evenodd" d="M5 2C3.34315 2 2 3.34315 2 5V8C2 8.55228 2.44772 9 3 9C3.55228 9 4 8.55228 4 8V5C4 4.44772 4.44772 4 5 4H19C19.5523 4 20 4.44772 20 5V19C20 19.5523 19.5523 20 19 20H16C15.4477 20 15 20.4477 15 21C15 21.5523 15.4477 22 16 22H19C20.6569 22 22 20.6569 22 19V5C22 3.34315 20.6569 2 19 2H5ZM2 14C2 12.3431 3.34315 11 5 11H10C10.4631 11 10.9018 11.105 11.2934 11.2924L14.5858 8H12C11.4477 8 11 7.55228 11 7C11 6.44772 11.4477 6 12 6H17C17.1356 6 17.2649 6.02699 17.3828 6.07588C17.4999 6.12432 17.6096 6.19595 17.705 6.29078C17.7064 6.29219 17.7078 6.2936 17.7092 6.29502C17.9023 6.48924 17.9992 6.74301 18 6.997C18 6.998 18 6.999 18 7V12C18 12.5523 17.5523 13 17 13C16.4477 13 16 12.5523 16 12V9.41421L12.7076 12.7066C12.895 13.0982 13 13.5369 13 14V19C13 20.6569 11.6569 22 10 22H5C3.34315 22 2 20.6569 2 19V14Z" fill="currentColor"/>
</svg>
