<svg width="24" height="24" viewBox="0 0 24 24" fill="none" xmlns="http://www.w3.org/2000/svg">
<path fill-rule="evenodd" clip-rule="evenodd" d="M21.8137 18.5814C21.4927 19.0308 20.8682 19.1349 20.4187 18.8139L12.5998 13.2289L8.60543 16.082C8.62234 16.107 8.63885 16.1325 8.65494 16.1586C8.90241 16.5603 9 17.0209 9 17.5C9 19.433 7.433 21 5.5 21C3.567 21 2 19.433 2 17.5C2 17.0209 2.0976 16.5603 2.34506 16.1586C2.59648 15.7505 2.95165 15.4859 3.32384 15.3194C4.00068 15.0166 4.83943 15 5.5 15C5.83854 15 6.22387 15.0044 6.61023 15.0494L10.8794 12L6.61023 8.95062C6.22387 8.99564 5.83854 9 5.5 9C4.83943 9 4.00067 8.98339 3.32384 8.68057C2.95165 8.51405 2.59648 8.24948 2.34506 7.84138C2.0976 7.43969 2 6.97906 2 6.5C2 4.567 3.567 3 5.5 3C7.433 3 9 4.567 9 6.5C9 6.97906 8.90241 7.43969 8.65494 7.84138C8.63885 7.86749 8.62234 7.89302 8.60543 7.91796L12.5998 10.7711L20.4187 5.18614C20.8682 4.86514 21.4927 4.96923 21.8137 5.41864C22.1347 5.86805 22.0306 6.4926 21.5812 6.81361L14.3203 12L21.5812 17.1864C22.0306 17.5074 22.1347 18.1319 21.8137 18.5814ZM7 6.5C7 5.67157 6.32843 5 5.5 5C4.67157 5 4 5.67157 4 6.5C4 6.7113 4.04232 6.78334 4.04786 6.79234L4.04813 6.79281C4.05055 6.79707 4.06393 6.82064 4.14063 6.85496C4.36861 6.95696 4.77986 7 5.5 7C6.22014 7 6.63139 6.95696 6.85937 6.85496C6.93608 6.82064 6.94945 6.79707 6.95187 6.79281L6.95214 6.79234C6.95769 6.78334 7 6.7113 7 6.5ZM5.5 19C6.32843 19 7 18.3284 7 17.5C7 17.2887 6.95769 17.2167 6.95214 17.2077L6.95187 17.2072C6.94945 17.2029 6.93608 17.1794 6.85937 17.145C6.63139 17.043 6.22014 17 5.5 17C4.77986 17 4.36861 17.043 4.14063 17.145C4.06393 17.1794 4.05055 17.2029 4.04813 17.2072L4.04786 17.2077C4.04232 17.2167 4 17.2887 4 17.5C4 18.3284 4.67157 19 5.5 19ZM17.0001 13C17.5523 13 18.0001 12.5523 18.0001 12C18.0001 11.4477 17.5523 11 17.0001 11C16.4478 11 16.0001 11.4477 16.0001 12C16.0001 12.5523 16.4478 13 17.0001 13ZM21.0001 13C21.5523 13 22.0001 12.5523 22.0001 12C22.0001 11.4477 21.5523 11 21.0001 11C20.4478 11 20.0001 11.4477 20.0001 12C20.0001 12.5523 20.4478 13 21.0001 13Z" fill="currentColor"/>
</svg>
