<svg width="24" height="24" viewBox="0 0 24 24" fill="none" xmlns="http://www.w3.org/2000/svg">
<path fill-rule="evenodd" clip-rule="evenodd" d="M18.5814 2.18634C19.0308 2.50735 19.1349 3.1319 18.8139 3.58132L13.2289 11.4002L16.082 15.3946C16.107 15.3777 16.1325 15.3612 16.1586 15.3451C16.5603 15.0977 17.0209 15.0001 17.5 15.0001C19.433 15.0001 21 16.5671 21 18.5001C21 20.4331 19.433 22.0001 17.5 22.0001C17.0209 22.0001 16.5603 21.9025 16.1586 21.655C15.7505 21.4036 15.4859 21.0484 15.3194 20.6762C15.0166 19.9994 15 19.1606 15 18.5001C15 18.1615 15.0044 17.7762 15.0494 17.3898L12 13.1207L8.95062 17.3898C8.99564 17.7762 9 18.1615 9 18.5001C9 19.1606 8.98339 19.9994 8.68057 20.6762C8.51405 21.0484 8.24948 21.4036 7.84138 21.655C7.43969 21.9025 6.97906 22.0001 6.5 22.0001C4.567 22.0001 3 20.4331 3 18.5001C3 16.5671 4.567 15.0001 6.5 15.0001C6.97906 15.0001 7.43969 15.0977 7.84138 15.3451C7.86749 15.3612 7.89302 15.3777 7.91796 15.3946L10.7711 11.4002L5.18614 3.58132C4.86514 3.1319 4.96923 2.50735 5.41864 2.18634C5.86805 1.86534 6.4926 1.96943 6.81361 2.41884L12 9.67978L17.1864 2.41884C17.5074 1.96943 18.1319 1.86534 18.5814 2.18634ZM6.5 17.0001C5.67157 17.0001 5 17.6716 5 18.5001C5 19.3285 5.67157 20.0001 6.5 20.0001C6.7113 20.0001 6.78334 19.9577 6.79234 19.9522C6.79661 19.9498 6.82064 19.9361 6.85496 19.8594C6.95696 19.6315 7 19.2202 7 18.5001C7 17.7799 6.95696 17.3687 6.85496 17.1407C6.82064 17.064 6.79707 17.0506 6.79281 17.0482C6.78381 17.0426 6.7113 17.0001 6.5 17.0001ZM17.5 17.0001C18.3284 17.0001 19 17.6716 19 18.5001C19 19.3285 18.3284 20.0001 17.5 20.0001C17.2887 20.0001 17.2167 19.9577 17.2077 19.9522C17.2034 19.9498 17.1794 19.9361 17.145 19.8594C17.043 19.6315 17 19.2202 17 18.5001C17 17.7799 17.043 17.3687 17.145 17.1407C17.1794 17.064 17.2029 17.0506 17.2072 17.0482C17.2162 17.0426 17.2887 17.0001 17.5 17.0001Z" fill="currentColor"/>
</svg>
