<svg width="24" height="24" viewBox="0 0 24 24" fill="none" xmlns="http://www.w3.org/2000/svg">
<path fill-rule="evenodd" clip-rule="evenodd" d="M16 4C16 2.89543 16.8954 2 18 2H20C21.1046 2 22 2.89543 22 4V6C22 7.10457 21.1046 8 20 8H19.8063C19.7776 8.10909 19.7449 8.22617 19.7078 8.34973C19.5034 9.03109 19.1555 9.94435 18.5821 10.8046C18.0072 11.6669 17.1758 12.5191 15.9964 12.9909C14.8021 13.4686 13.367 13.5096 11.6838 12.9486C10.367 12.5096 9.42712 12.5936 8.7464 12.8659C8.0508 13.1441 7.5072 13.6669 7.08206 14.3046C6.70573 14.8691 6.44571 15.4896 6.27254 16.0184C7.24818 16.1514 8 16.9879 8 18V20C8 21.1046 7.10457 22 6 22H4C2.89543 22 2 21.1046 2 20V18C2 16.8954 2.89543 16 4 16H4.19365C4.22238 15.8908 4.25508 15.7737 4.29218 15.65C4.49659 14.9687 4.84446 14.0554 5.41795 13.1952C5.99281 12.3329 6.82421 11.4807 8.00361 11.0089C9.19789 10.5312 10.633 10.4901 12.3162 11.0512C13.633 11.4901 14.5729 11.4062 15.2536 11.1339C15.9492 10.8557 16.4928 10.3329 16.918 9.69518C17.2942 9.13077 17.5542 8.51035 17.7274 7.98158C16.7518 7.84861 16 7.0121 16 6V4ZM19.0208 6C19.0061 5.99967 18.9913 5.99968 18.9767 6H18V4H20V6H19.0208ZM4.9966 18H4V20H6V18H5.00592C5.00282 18 4.99971 18 4.9966 18Z" fill="currentColor"/>
</svg>
