<svg width="24" height="24" viewBox="0 0 24 24" fill="none" xmlns="http://www.w3.org/2000/svg">
<path fill-rule="evenodd" clip-rule="evenodd" d="M5 2C3.34315 2 2 3.34315 2 5V19C2 20.6569 3.34315 22 5 22H19C20.6569 22 22 20.6569 22 19V5C22 3.34315 20.6569 2 19 2H5ZM16 9C16 9.55228 15.5523 10 15 10C14.4477 10 14 9.55228 14 9C14 7.89543 13.1046 7 12 7C10.8954 7 10 7.89543 10 9V11L18 11C18.5523 11 19 11.4477 19 12C19 12.5523 18.5523 13 18 13L9 13H6C5.44772 13 5 12.5523 5 12C5 11.4477 5.44772 11 6 11H8V9C8 6.79086 9.79086 5 12 5C14.2091 5 16 6.79086 16 9ZM16 15C16 14.4477 15.5523 14 15 14C14.4477 14 14 14.4477 14 15C14 16.1046 13.1046 17 12 17C10.8954 17 10 16.1046 10 15C10 14.4477 9.55228 14 9 14C8.44772 14 8 14.4477 8 15C8 17.2091 9.79086 19 12 19C14.2091 19 16 17.2091 16 15Z" fill="currentColor"/>
</svg>
