<svg width="24" height="24" viewBox="0 0 24 24" fill="none" xmlns="http://www.w3.org/2000/svg">
<path fill-rule="evenodd" clip-rule="evenodd" d="M13.7071 4.29289C14.0976 4.68342 14.0976 5.31658 13.7071 5.70711L9.41421 10L13.7071 14.2929C14.0976 14.6834 14.0976 15.3166 13.7071 15.7071C13.3166 16.0976 12.6834 16.0976 12.2929 15.7071L8 11.4142L3.70711 15.7071C3.31658 16.0976 2.68342 16.0976 2.29289 15.7071C1.90237 15.3166 1.90237 14.6834 2.29289 14.2929L6.58579 10L2.29289 5.70711C1.90237 5.31658 1.90237 4.68342 2.29289 4.29289C2.68342 3.90237 3.31658 3.90237 3.70711 4.29289L8 8.58579L12.2929 4.29289C12.6834 3.90237 13.3166 3.90237 13.7071 4.29289ZM21.6899 14.4189C21.8728 13.9595 21.9642 13.464 21.9642 12.9324C21.9642 12.0135 21.7018 11.2973 21.1769 10.7838C20.66 10.2613 19.9205 10 18.9583 10C18.0755 10 17.2286 10.2207 16.4175 10.6622C16.2425 10.7523 16.1193 10.9054 16.0477 11.1216C15.9841 11.3288 15.9841 11.545 16.0477 11.7703L16.1551 12.1486C16.2028 12.3288 16.3062 12.455 16.4652 12.527C16.6322 12.5991 16.7913 12.5901 16.9423 12.5C17.6262 12.1036 18.1988 11.9054 18.66 11.9054C19.4712 11.9054 19.8767 12.3198 19.8767 13.1486C19.8767 13.5541 19.7972 13.9369 19.6382 14.2973C19.4791 14.6486 19.1571 15.0991 18.672 15.6486C18.1869 16.1892 17.4871 16.8694 16.5726 17.6892C16.2147 18.0045 16.0358 18.4144 16.0358 18.9189V19.2297C16.0358 19.4369 16.0994 19.6171 16.2266 19.7703C16.3618 19.9234 16.5249 20 16.7157 20H21.332C21.5149 20 21.67 19.9234 21.7972 19.7703C21.9324 19.6171 22 19.4369 22 19.2297V18.9189C22 18.7117 21.9324 18.5315 21.7972 18.3784C21.67 18.2252 21.5149 18.1486 21.332 18.1486H18.7197C18.7117 18.1486 18.7078 18.1441 18.7078 18.1351C18.7078 18.1261 18.7117 18.1171 18.7197 18.1081C19.5944 17.2703 20.2624 16.5631 20.7237 15.9865C21.1928 15.4009 21.5149 14.8784 21.6899 14.4189Z" fill="currentColor"/>
</svg>
