<svg width="24" height="24" viewBox="0 0 24 24" fill="none" xmlns="http://www.w3.org/2000/svg">
<path d="M19 4C20.6569 4 22 5.34315 22 7V17C22 18.6569 20.6569 20 19 20H5C3.34315 20 2 18.6569 2 17V7C2 5.34315 3.34315 4 5 4H19ZM5 6C4.44772 6 4 6.44772 4 7V17C4 17.5523 4.44772 18 5 18H19C19.5523 18 20 17.5523 20 17V7C20 6.44772 19.5523 6 19 6H5ZM13 15C13.5523 15 14 15.4477 14 16C14 16.5523 13.5523 17 13 17H6C5.44772 17 5 16.5523 5 16C5 15.4477 5.44772 15 6 15H13ZM18 15C18.5523 15 19 15.4477 19 16C19 16.5523 18.5523 17 18 17H17C16.4477 17 16 16.5523 16 16C16 15.4477 16.4477 15 17 15H18ZM7 11C7.55228 11 8 11.4477 8 12C8 12.5523 7.55228 13 7 13H6C5.44772 13 5 12.5523 5 12C5 11.4477 5.44772 11 6 11H7ZM18 11C18.5523 11 19 11.4477 19 12C19 12.5523 18.5523 13 18 13H11C10.4477 13 10 12.5523 10 12C10 11.4477 10.4477 11 11 11H18Z" fill="currentColor"/>
</svg>
