<svg width="24" height="24" viewBox="0 0 24 24" fill="none" xmlns="http://www.w3.org/2000/svg">
<path fill-rule="evenodd" clip-rule="evenodd" d="M5 4C3.34315 4 2 5.34315 2 7V17C2 18.6569 3.34315 20 5 20H19C20.6569 20 22 18.6569 22 17V7C22 5.34315 20.6569 4 19 4H5ZM6 11C5.44772 11 5 11.4477 5 12C5 12.5523 5.44772 13 6 13H7C7.55228 13 8 12.5523 8 12C8 11.4477 7.55228 11 7 11H6ZM17 15C16.4477 15 16 15.4477 16 16C16 16.5523 16.4477 17 17 17H18C18.5523 17 19 16.5523 19 16C19 15.4477 18.5523 15 18 15H17ZM10 12C10 11.4477 10.4477 11 11 11H18C18.5523 11 19 11.4477 19 12C19 12.5523 18.5523 13 18 13H11C10.4477 13 10 12.5523 10 12ZM6 15C5.44772 15 5 15.4477 5 16C5 16.5523 5.44772 17 6 17H13C13.5523 17 14 16.5523 14 16C14 15.4477 13.5523 15 13 15H6Z" fill="currentColor"/>
</svg>
