<svg width="24" height="24" viewBox="0 0 24 24" fill="none" xmlns="http://www.w3.org/2000/svg">
<path d="M2.20397 2.20405C2.61569 1.79243 3.268 1.767 3.70983 2.1269L3.79577 2.20405L21.7958 20.2041L21.873 20.2901C22.2332 20.7319 22.2076 21.3841 21.7958 21.7959C21.384 22.2077 20.7318 22.2333 20.29 21.8731L20.204 21.7959L18.4081 20H4.99987C3.3431 19.9999 1.99986 18.6568 1.99986 17V6.99997C1.99991 6.06758 2.42623 5.23558 3.09362 4.68551L2.20397 3.79586L2.12682 3.70992C1.7669 3.26806 1.79226 2.61576 2.20397 2.20405ZM18.9999 3.99996C20.6567 3.99996 21.9999 5.34318 21.9999 6.99997V17C21.9999 17.2344 21.9697 17.4618 21.9189 17.6807L17.2382 13H17.9999C18.5522 13 18.9999 12.5523 18.9999 12C18.9998 11.4478 18.5522 11 17.9999 11H15.2382L8.23817 3.99996H18.9999ZM5.99988 15C5.44773 15.0001 4.99995 15.4478 4.99987 16C4.99987 16.5522 5.44768 16.9999 5.99988 17H12.9999C13.5522 17 13.9999 16.5523 13.9999 16C13.9998 15.4478 13.5521 15 12.9999 15H5.99988ZM10.0624 11.6543C10.0224 11.762 9.99991 11.8783 9.99989 12C9.99989 12.5522 10.4477 12.9999 10.9999 13H11.4081L10.0624 11.6543ZM5.99988 11C5.44773 11.0001 4.99995 11.4478 4.99987 12C4.99987 12.5522 5.44768 12.9999 5.99988 13H6.99988C7.55217 13 7.99988 12.5523 7.99988 12C7.99981 11.4478 7.55212 11 6.99988 11H5.99988Z" fill="currentColor"/>
</svg>
