<svg width="24" height="24" viewBox="0 0 24 24" fill="none" xmlns="http://www.w3.org/2000/svg">
<path fill-rule="evenodd" clip-rule="evenodd" d="M8 5.5C8 4.67157 8.67157 4 9.5 4H20.5C21.3284 4 22 4.67157 22 5.5C22 6.32843 21.3284 7 20.5 7H16.5V18.5C16.5 19.3284 15.8284 20 15 20C14.1716 20 13.5 19.3284 13.5 18.5V7H9.5C8.67157 7 8 6.32843 8 5.5ZM3.5 9C2.67157 9 2 9.67157 2 10.5C2 11.3284 2.67157 12 3.5 12H5.5V18.5C5.5 19.3284 6.17157 20 7 20C7.82843 20 8.5 19.3284 8.5 18.5V12H10.5C11.3284 12 12 11.3284 12 10.5C12 9.67157 11.3284 9 10.5 9H3.5Z" fill="currentColor"/>
</svg>
