<svg width="24" height="24" viewBox="0 0 24 24" fill="none" xmlns="http://www.w3.org/2000/svg">
<path fill-rule="evenodd" clip-rule="evenodd" d="M12.0004 2C12.5869 2 13.1196 2.34184 13.364 2.87502L18.864 14.875C19.2091 15.6281 18.8784 16.5184 18.1253 16.8636C17.3723 17.2088 16.4819 16.8781 16.1368 16.125L14.7045 13H9.29624L7.86396 16.125C7.51879 16.8781 6.62848 17.2088 5.87538 16.8636C5.12229 16.5184 4.7916 15.6281 5.13677 14.875L10.6368 2.87502C10.8811 2.34184 11.4139 2 12.0004 2ZM10.6712 10H13.3295L12.0004 7.1001L10.6712 10ZM2 20.5C2 19.6716 2.67157 19 3.5 19H20.5C21.3284 19 22 19.6716 22 20.5C22 21.3284 21.3284 22 20.5 22H3.5C2.67157 22 2 21.3284 2 20.5Z" fill="currentColor"/>
</svg>
