<svg width="24" height="24" viewBox="0 0 24 24" fill="none" xmlns="http://www.w3.org/2000/svg">
<path fill-rule="evenodd" clip-rule="evenodd" d="M5 5.00012V5.50012C5 6.32855 4.32843 7.00012 3.5 7.00012C2.67157 7.00012 2 6.32855 2 5.50012V4.50012C2 3.11941 3.11929 2.00012 4.5 2.00012H19.5C20.8807 2.00012 22 3.11941 22 4.50012V5.50012C22 6.32855 21.3284 7.00012 20.5 7.00012C19.6716 7.00012 19 6.32855 19 5.50012V5.00012H13.5V19H15C15.8284 19 16.5 19.6716 16.5 20.5C16.5 21.3284 15.8284 22 15 22H9C8.17157 22 7.5 21.3284 7.5 20.5C7.5 19.6716 8.17157 19 9 19H10.5V5.00012H5Z" fill="currentColor"/>
</svg>
