<svg width="24" height="24" viewBox="0 0 24 24" fill="none" xmlns="http://www.w3.org/2000/svg">
<path fill-rule="evenodd" clip-rule="evenodd" d="M8 3.5C8 2.67157 7.32843 2 6.5 2C5.67157 2 5 2.67157 5 3.5V10C5 13.866 8.13401 17 12 17C15.866 17 19 13.866 19 10V3.5C19 2.67157 18.3284 2 17.5 2C16.6716 2 16 2.67157 16 3.5V10C16 12.2091 14.2091 14 12 14C9.79086 14 8 12.2091 8 10V3.5ZM5.5 19C4.67157 19 4 19.6716 4 20.5C4 21.3284 4.67157 22 5.5 22H18.5C19.3284 22 20 21.3284 20 20.5C20 19.6716 19.3284 19 18.5 19H5.5Z" fill="currentColor"/>
</svg>
