<svg width="24" height="24" viewBox="0 0 24 24" fill="none" xmlns="http://www.w3.org/2000/svg">
<path fill-rule="evenodd" clip-rule="evenodd" d="M5 2C3.34315 2 2 3.34315 2 5V19C2 20.6569 3.34315 22 5 22H19C20.6569 22 22 20.6569 22 19V5C22 3.34315 20.6569 2 19 2H5ZM8 17C7.44772 17 7 17.4477 7 18C7 18.5523 7.44772 19 8 19H16C16.5523 19 17 18.5523 17 18C17 17.4477 16.5523 17 16 17H8ZM8 5C8.55228 5 9 5.44772 9 6V10C9 11.6569 10.3431 13 12 13C13.6569 13 15 11.6569 15 10V6C15 5.44772 15.4477 5 16 5C16.5523 5 17 5.44772 17 6V10C17 12.7614 14.7614 15 12 15C9.23858 15 7 12.7614 7 10V6C7 5.44772 7.44772 5 8 5Z" fill="currentColor"/>
</svg>
