<svg width="24" height="24" viewBox="0 0 24 24" fill="none" xmlns="http://www.w3.org/2000/svg">
<path fill-rule="evenodd" clip-rule="evenodd" d="M9 1C9.55228 1 10 1.44772 10 2V3C10 3.55228 9.55228 4 9 4C8.44772 4 8 3.55228 8 3V2C8 1.44772 8.44772 1 9 1ZM3.29289 3.29289C3.68342 2.90237 4.31658 2.90237 4.70711 3.29289L6.20711 4.79289C6.59763 5.18342 6.59763 5.81658 6.20711 6.20711C5.81658 6.59763 5.18342 6.59763 4.79289 6.20711L3.29289 4.70711C2.90237 4.31658 2.90237 3.68342 3.29289 3.29289ZM14.7678 3.29289C15.1583 3.68342 15.1583 4.31658 14.7678 4.70711L13.7071 5.76777C13.3166 6.15829 12.6834 6.15829 12.2929 5.76777C11.9024 5.37724 11.9024 4.74408 12.2929 4.35355L13.3536 3.29289C13.7441 2.90237 14.3772 2.90237 14.7678 3.29289ZM1 9C1 8.44772 1.44772 8 2 8H3C3.55228 8 4 8.44772 4 9C4 9.55228 3.55228 10 3 10H2C1.44772 10 1 9.55228 1 9ZM5.76777 12.2929C6.15829 12.6834 6.15829 13.3166 5.76777 13.7071L4.70711 14.7678C4.31658 15.1583 3.68342 15.1583 3.29289 14.7678C2.90237 14.3772 2.90237 13.7441 3.29289 13.3536L4.35355 12.2929C4.74408 11.9024 5.37724 11.9024 5.76777 12.2929ZM8.08588 6.49985C8.86693 5.7188 10.1333 5.7188 10.9143 6.49985L22.5001 18.0856C23.2811 18.8667 23.2811 20.133 22.5001 20.9141L20.9143 22.4998C20.1333 23.2809 18.8669 23.2809 18.0859 22.4998L6.50009 10.9141C5.71905 10.133 5.71904 8.86668 6.50009 8.08564L8.08588 6.49985ZM9.50009 7.91406L7.91431 9.49985L9.70723 11.2928L11.293 9.70698L9.50009 7.91406ZM8 15C8.55228 15 9 15.4477 9 16V16.5C9 17.0523 8.55228 17.5 8 17.5C7.44772 17.5 7 17.0523 7 16.5V16C7 15.4477 7.44772 15 8 15ZM16 7C15.4477 7 15 7.44772 15 8C15 8.55228 15.4477 9 16 9H16.5C17.0523 9 17.5 8.55228 17.5 8C17.5 7.44772 17.0523 7 16.5 7H16Z" fill="currentColor"/>
</svg>
