<svg preserveAspectRatio="none" width="100%" height="100%" overflow="visible" style="display: block;" viewBox="0 0 16 12" fill="none" xmlns="http://www.w3.org/2000/svg">
<g id="contents">
<path id="background" fill-rule="evenodd" clip-rule="evenodd" d="M0 0V12H16V0H0Z" fill="var(--fill-0, #FFB400)"/>
<mask id="mask0_0_4" style="mask-type:luminance" maskUnits="userSpaceOnUse" x="0" y="0" width="16" height="12">
<path id="background_2" fill-rule="evenodd" clip-rule="evenodd" d="M0 0V12H16V0H0Z" fill="var(--fill-0, white)"/>
</mask>
<g mask="url(#mask0_0_4)">
<path id="top" fill-rule="evenodd" clip-rule="evenodd" d="M0 0V3H16V0H0Z" fill="var(--fill-0, #C51918)"/>
<path id="bottom" fill-rule="evenodd" clip-rule="evenodd" d="M0 9V12H16V9H0Z" fill="var(--fill-0, #C51918)"/>
<g id="mark">
<g id="pillars">
<rect id="Rectangle 76" x="2.504" y="5.136" width="0.56" height="2.912" fill="var(--fill-0, #F1F9FF)"/>
<path id="Combined Shape" d="M3.28781 4.91227H3.11984V5.13591H2.44797V4.91227H2.28V4.632H3.28781V4.91227Z" fill="var(--fill-0, #C88A02)"/>
<path id="Combined Shape_2" fill-rule="evenodd" clip-rule="evenodd" d="M3.12 8.216H3.288V8.496H2.28V8.216H2.448V7.992H3.12V8.216Z" fill="var(--fill-0, #C88A02)"/>
<path id="Oval 56" fill-rule="evenodd" clip-rule="evenodd" d="M2.784 4.688C2.90587 4.688 2.91825 4.64211 2.99015 4.57358C3.04598 4.52036 3.176 4.45435 3.176 4.38C3.176 4.2099 3.0005 4.072 2.784 4.072C2.5675 4.072 2.392 4.2099 2.392 4.38C2.392 4.46283 2.48154 4.51822 2.54924 4.57358C2.62057 4.63189 2.67293 4.688 2.784 4.688Z" fill="var(--fill-0, #AD1619)"/>
<g id="water">
<path id="Rectangle 76_2" fill-rule="evenodd" clip-rule="evenodd" d="M2.28 8.496H3.288V8.944C3.288 8.944 3.162 8.888 3.036 8.888C2.91 8.888 2.784 8.944 2.784 8.944C2.784 8.944 2.658 8.888 2.532 8.888C2.406 8.888 2.28 8.944 2.28 8.944V8.496Z" fill="var(--fill-0, #005BBF)"/>
<mask id="mask1_0_4" style="mask-type:luminance" maskUnits="userSpaceOnUse" x="2" y="8" width="2" height="1">
<path id="Rectangle 76_3" fill-rule="evenodd" clip-rule="evenodd" d="M2.28 8.496H3.288V8.944C3.288 8.944 3.162 8.888 3.036 8.888C2.91 8.888 2.784 8.944 2.784 8.944C2.784 8.944 2.658 8.888 2.532 8.888C2.406 8.888 2.28 8.944 2.28 8.944V8.496Z" fill="var(--fill-0, white)"/>
</mask>
<g mask="url(#mask1_0_4)">
</g>
</g>
<rect id="Rectangle 76_4" x="7.992" y="5.136" width="0.56" height="2.912" fill="var(--fill-0, #F1F9FF)"/>
<path id="Combined Shape_3" d="M8.77581 4.91227H8.60784V5.13591H7.93597V4.91227H7.768V4.632H8.77581V4.91227Z" fill="var(--fill-0, #C88A02)"/>
<path id="Combined Shape_4" fill-rule="evenodd" clip-rule="evenodd" d="M8.608 8.216H8.776V8.496H7.768V8.216H7.936V7.992H8.608V8.216Z" fill="var(--fill-0, #C88A02)"/>
<path id="Oval 56_2" fill-rule="evenodd" clip-rule="evenodd" d="M8.272 4.688C8.39387 4.688 8.40625 4.64211 8.47815 4.57358C8.53398 4.52036 8.664 4.45435 8.664 4.38C8.664 4.2099 8.4885 4.072 8.272 4.072C8.0555 4.072 7.88 4.2099 7.88 4.38C7.88 4.46283 7.96954 4.51822 8.03724 4.57358C8.10857 4.63189 8.16093 4.688 8.272 4.688Z" fill="var(--fill-0, #AD1619)"/>
<g id="water_2">
<path id="Rectangle 76_5" fill-rule="evenodd" clip-rule="evenodd" d="M7.768 8.496H8.776V8.944C8.776 8.944 8.65 8.888 8.524 8.888C8.398 8.888 8.272 8.944 8.272 8.944C8.272 8.944 8.146 8.888 8.02 8.888C7.894 8.888 7.768 8.944 7.768 8.944V8.496Z" fill="var(--fill-0, #005BBF)"/>
<mask id="mask2_0_4" style="mask-type:luminance" maskUnits="userSpaceOnUse" x="7" y="8" width="2" height="1">
<path id="Rectangle 76_6" fill-rule="evenodd" clip-rule="evenodd" d="M7.768 8.496H8.776V8.944C8.776 8.944 8.65 8.888 8.524 8.888C8.398 8.888 8.272 8.944 8.272 8.944C8.272 8.944 8.146 8.888 8.02 8.888C7.894 8.888 7.768 8.944 7.768 8.944V8.496Z" fill="var(--fill-0, white)"/>
</mask>
<g mask="url(#mask2_0_4)">
</g>
</g>
<path id="ribbons" d="M2.19395 5.93557C2.56906 5.6773 3.57361 5.65434 4.01426 5.88186L3.80821 6.28029C3.59199 6.16869 3.1007 6.14689 2.75645 6.20412C2.80877 6.21326 2.86745 6.22309 2.93321 6.23342C2.97391 6.23981 3.11636 6.26263 3.1295 6.26467C3.26693 6.28604 3.36077 6.31309 3.43028 6.36037C3.57201 6.45687 3.59365 6.63044 3.49278 6.75881C3.45002 6.81302 3.39377 6.85428 3.30918 6.90334C3.28206 6.91907 3.25268 6.93516 3.21348 6.95607C3.20476 6.96072 3.13657 6.99624 3.1168 7.00686C3.0362 7.05014 2.98344 7.08165 2.94395 7.11037C2.88209 7.15536 2.81869 7.19205 2.74668 7.22658C2.70946 7.24443 2.605 7.28962 2.59727 7.29299C2.59508 7.29398 2.59247 7.29501 2.59043 7.29592C2.62931 7.34854 2.65098 7.41373 2.65098 7.4883C2.65086 7.60644 2.59461 7.71758 2.49375 7.83986L2.15 7.55666L2.1168 7.54592L2.09922 7.40334C2.06541 7.13861 2.17858 6.99177 2.41172 6.88576C2.41899 6.88249 2.52223 6.83671 2.55235 6.82229C2.60152 6.79871 2.64243 6.77557 2.68028 6.74807C2.71763 6.72091 2.7579 6.69506 2.80625 6.66701C2.51773 6.62066 2.3614 6.58671 2.2418 6.53518C1.95583 6.41179 1.91894 6.12496 2.19395 5.93557ZM6.99082 5.88186C7.43157 5.65456 8.435 5.67749 8.81016 5.93557C9.08524 6.12501 9.04848 6.41185 8.76231 6.53518C8.64271 6.58671 8.48638 6.62066 8.19785 6.66701C8.24618 6.69505 8.2865 6.72092 8.32383 6.74807C8.36171 6.77561 8.40254 6.79868 8.45176 6.82229C8.48181 6.83669 8.58742 6.88306 8.59336 6.88576C8.8262 6.99176 8.93965 7.13877 8.90586 7.40334L8.88731 7.54592L8.8541 7.55666L8.51035 7.83986C8.40954 7.71762 8.35325 7.60641 8.35313 7.4883C8.35313 7.41373 8.37479 7.34854 8.41367 7.29592C8.41175 7.29506 8.40988 7.29392 8.40782 7.29299C8.40784 7.29301 8.29743 7.24526 8.2584 7.22658C8.18632 7.19202 8.12207 7.1554 8.06016 7.11037C8.02066 7.08166 7.96791 7.05014 7.88731 7.00686C7.86741 6.99617 7.79865 6.96036 7.79063 6.95607C7.75142 6.93515 7.72206 6.91908 7.69492 6.90334C7.61041 6.85431 7.55504 6.813 7.51231 6.75881C7.41114 6.63043 7.43203 6.45697 7.57383 6.36037C7.64335 6.31304 7.73712 6.28605 7.87461 6.26467C7.88617 6.26287 8.02959 6.2399 8.0709 6.23342C8.13655 6.22311 8.1954 6.21325 8.24766 6.20412C7.9034 6.14694 7.41204 6.1687 7.1959 6.28029L6.99082 5.88186Z" fill="var(--fill-0, #AD1619)"/>
<path id="Path 329" d="M2.96168 6.2L3.12697 6.23419V6.48056C2.95092 6.62103 2.504 6.85778 2.504 6.85778V6.2H2.96168Z" fill="var(--fill-0, #F1F9FF)"/>
<path id="Path 329_2" d="M8.15729 6.2L7.992 6.23419V6.48056C8.16805 6.62103 8.61497 6.85778 8.61497 6.85778V6.2H8.15729Z" fill="var(--fill-0, #F1F9FF)"/>
</g>
<g id="crown">
<path id="Combined Shape_5" d="M5.56487 3.05306C5.87453 3.02308 6.18055 3.0775 6.48284 3.21126C6.79807 3.21126 7.10007 3.31411 7.38811 3.52083V3.60286L6.82366 4.17024C6.71074 4.48329 6.50877 4.49993 6.35198 4.55208C6.29828 4.56929 5.56292 4.58919 5.56292 4.58919C5.56277 4.58887 5.56239 4.58824 5.56194 4.58724C4.44959 4.71504 4.29045 4.17024 4.29045 4.17024L3.726 3.60286V3.52083C3.73264 3.51609 4.1621 3.21126 4.63127 3.21126C4.64166 3.2068 5.10486 3.00829 5.56487 3.05306Z" fill="var(--fill-0, #AD1619)"/>
<path id="Combined Shape_6" d="M7.40049 3.69945L6.88682 4.18285C6.81192 4.32079 6.77354 4.41162 6.77354 4.44945C6.7735 4.50716 6.62327 4.54121 6.33018 4.5764C6.10074 4.60394 5.83004 4.62049 5.6085 4.62328V4.6262C5.59899 4.6262 5.58894 4.62432 5.5792 4.62425C5.56999 4.62431 5.56087 4.6262 5.55186 4.6262V4.62328C5.33018 4.62051 5.05883 4.60397 4.8292 4.5764C4.53633 4.54122 4.38588 4.50714 4.38584 4.44945C4.38584 4.44098 4.38376 4.42997 4.37998 4.41624C4.35638 4.3838 4.33921 4.33666 4.32627 4.29027C4.31099 4.25872 4.29488 4.22216 4.27354 4.18285L3.75987 3.69945L3.79795 3.65843L4.31162 4.14085C4.41035 4.11434 4.93811 3.98043 5.52745 3.97386V3.97288H5.57237V3.97386C6.22208 3.98122 6.79666 4.14371 6.80381 4.14574C6.8031 4.1516 6.79205 4.21485 6.77354 4.28343C6.79147 4.2453 6.81213 4.20088 6.83897 4.1516L6.84483 4.14476L7.36143 3.65843L7.40049 3.69945ZM5.54893 4.33031C5.40167 4.33968 4.59551 4.39329 4.47276 4.45042C4.47073 4.45137 4.46791 4.45064 4.46592 4.4514C4.48408 4.45815 4.50879 4.46671 4.54014 4.47386C4.61213 4.49028 4.71464 4.50616 4.83604 4.52074C5.0734 4.54924 5.35583 4.56713 5.58018 4.56859C5.80435 4.56711 6.0862 4.54919 6.32334 4.52074C6.44486 4.50615 6.54819 4.49029 6.62022 4.47386C6.65671 4.46553 6.68484 4.45718 6.70323 4.44945C6.70978 4.44669 6.7146 4.44377 6.71787 4.44163C6.71857 4.43166 6.72143 4.42041 6.72471 4.40745C6.69917 4.44693 6.66775 4.46992 6.62608 4.45042C6.50226 4.39317 5.69278 4.33945 5.54893 4.33031Z" fill="var(--fill-0, #C88A02)"/>
<path id="Oval 55" fill-rule="evenodd" clip-rule="evenodd" d="M5.55612 2.67354C5.6489 2.67354 5.72412 2.59832 5.72412 2.50554C5.72412 2.41275 5.6489 2.33754 5.55612 2.33754C5.46333 2.33754 5.38812 2.41275 5.38812 2.50554C5.38812 2.59832 5.46333 2.67354 5.55612 2.67354Z" fill="var(--fill-0, #005BBF)"/>
<path id="Combined Shape_7" d="M5.61034 2.11154H5.68651V2.22873H5.61034V2.46213H5.68651V2.57834H5.416V2.46213H5.49315V2.22873H5.416V2.11154H5.49315V2.0383H5.61034V2.11154Z" fill="var(--fill-0, #C88A02)"/>
<rect id="Rectangle 77" x="5.472" y="2.672" width="0.224" height="0.728" fill="var(--fill-0, #C88A02)"/>
<path id="Path 2" d="M3.85387 3.64843L3.54626 3.63687C3.6914 2.79807 4.40618 2.38709 5.54839 2.38709C6.69208 2.38709 7.40434 2.79985 7.53856 3.64176L7.12252 3.6854C7.05721 3.2757 6.37098 2.90493 5.5544 2.90493C4.73635 2.90493 3.9253 3.23561 3.85387 3.64843Z" fill="var(--fill-0, #C88A02)"/>
</g>
<g id="shield">
<path id="Rectangle 78" opacity="0.3" fill-rule="evenodd" clip-rule="evenodd" d="M3.736 4.632H7.376V7.90242C7.376 7.90242 7.10561 9 5.556 9C4.00639 9 3.736 7.87348 3.736 7.87348V4.632Z" fill="var(--fill-0, #E1E5E8)"/>
<mask id="mask3_0_4" style="mask-type:luminance" maskUnits="userSpaceOnUse" x="3" y="4" width="5" height="5">
<path id="Rectangle 78_2" fill-rule="evenodd" clip-rule="evenodd" d="M3.736 4.632H7.376V7.90242C7.376 7.90242 7.10561 9 5.556 9C4.00639 9 3.736 7.87348 3.736 7.87348V4.632Z" fill="var(--fill-0, white)"/>
</mask>
<g mask="url(#mask3_0_4)">
<rect id="Rectangle 79" x="3.736" y="6.648" width="1.848" height="2.184" fill="var(--fill-0, #FFC034)"/>
<rect id="Rectangle 79_2" x="3.736" y="4.576" width="1.848" height="2.128" fill="var(--fill-0, #AD1619)"/>
<rect id="Rectangle 79_3" x="5.528" y="6.592" width="1.848" height="2.128" fill="var(--fill-0, #AD1619)"/>
<rect id="Rectangle 79_4" x="5.528" y="4.632" width="1.96" height="2.072" fill="var(--fill-0, #F1F9FF)"/>
<path id="Path 330" fill-rule="evenodd" clip-rule="evenodd" d="M6.74136 8.72135C6.74136 8.72135 5.55526 8.8146 5.55526 8.04962C5.55526 8.04962 5.54395 8.72135 4.30545 8.72135V9.32526H6.74136V8.72135Z" fill="var(--fill-0, #F1F9FF)"/>
<path id="Oval 57" fill-rule="evenodd" clip-rule="evenodd" d="M5.556 7.096C5.78796 7.096 5.976 6.89542 5.976 6.648C5.976 6.40058 5.78796 6.2 5.556 6.2C5.32404 6.2 5.136 6.40058 5.136 6.648C5.136 6.89542 5.32404 7.096 5.556 7.096Z" fill="var(--fill-0, #005BBF)" stroke="var(--stroke-0, #AD1619)" stroke-width="0.583333"/>
</g>
</g>
<path id="Oval 75" fill-rule="evenodd" clip-rule="evenodd" d="M4.5 6C4.77614 6 5 5.77614 5 5.5C5 5.22386 4.77614 5 4.5 5C4.22386 5 4 5.22386 4 5.5C4 5.77614 4.22386 6 4.5 6Z" fill="var(--fill-0, #C88A02)"/>
<path id="Oval 75_2" fill-rule="evenodd" clip-rule="evenodd" d="M6.5 6C6.77614 6 7 5.77614 7 5.5C7 5.22386 6.77614 5 6.5 5C6.22386 5 6 5.22386 6 5.5C6 5.77614 6.22386 6 6.5 6Z" fill="var(--fill-0, #C37C9C)"/>
<path id="Oval 75_3" fill-rule="evenodd" clip-rule="evenodd" d="M6.5 8C6.77614 8 7 7.77614 7 7.5C7 7.22386 6.77614 7 6.5 7C6.22386 7 6 7.22386 6 7.5C6 7.77614 6.22386 8 6.5 8Z" fill="var(--fill-0, #FFC034)"/>
<path id="Oval 75_4" d="M4.5 8C4.77614 8 5 7.77614 5 7.5C5 7.22386 4.77614 7 4.5 7C4.22386 7 4 7.22386 4 7.5C4 7.77614 4.22386 8 4.5 8Z" fill="var(--fill-0, #AD1619)"/>
</g>
</g>
</g>
</svg>
