<svg preserveAspectRatio="none" width="100%" height="100%" overflow="visible" style="display: block;" viewBox="0 0 16 12" fill="none" xmlns="http://www.w3.org/2000/svg">
<g id="flag">
<mask id="mask0_0_4" style="mask-type:luminance" maskUnits="userSpaceOnUse" x="0" y="0" width="16" height="12">
<rect id="mask" width="16" height="12" fill="var(--fill-0, white)"/>
</mask>
<g mask="url(#mask0_0_4)">
<path id="middle" fill-rule="evenodd" clip-rule="evenodd" d="M0 0H16V12H0V0Z" fill="var(--fill-0, #E31D1C)"/>
<path id="Combined Shape" d="M16 11V12H0V11H16ZM16 10H0V9H16V10ZM16 8H0V7H16V8ZM16 6H0V5H16V6ZM16 4H0V3H16V4ZM16 2H0V1H16V2Z" fill="var(--fill-0, #F7FCFF)"/>
<rect id="Rectangle 82" width="9" height="7" fill="var(--fill-0, #2E42A5)"/>
<path id="Combined Shape_2" d="M7.81075 1.10062H8.33517L7.92306 1.51663L8.08224 2.17386L7.56954 1.80472L7.14572 2.10062H7.33517L6.92306 2.51663L7.06466 3.10062H7.36349L7.56954 2.56448L7.81075 3.10062H8.33517L7.92306 3.51663L8.08224 4.17386L7.56954 3.80472L7.14572 4.10062H7.33517L6.92306 4.51663L7.06466 5.10062H7.36349L7.56954 4.56448L7.81075 5.10062H8.33517L7.92306 5.51663L8.08224 6.17386L7.56954 5.80472L7.04025 6.17386L7.21896 5.51663L6.74825 5.10062H6.98068L6.56954 4.80472L6.14572 5.10062H6.33517L5.92306 5.51663L6.08224 6.17386L5.56954 5.80472L5.04025 6.17386L5.21896 5.51663L4.74825 5.10062H4.98068L4.56954 4.80472L4.14572 5.10062H4.33517L3.92306 5.51663L4.08224 6.17386L3.56954 5.80472L3.04025 6.17386L3.21896 5.51663L2.74825 5.10062H2.98068L2.56954 4.80472L2.14572 5.10062H2.33517L1.92306 5.51663L2.08224 6.17386L1.56954 5.80472L1.04025 6.17386L1.21896 5.51663L0.748254 5.10062H1.36349L1.56954 4.56448L1.81075 5.10062H2.05978L2.21896 4.51663L1.74825 4.10062H1.98068L1.56954 3.80472L1.04025 4.17386L1.21896 3.51663L0.748254 3.10062H1.36349L1.56954 2.56448L1.81075 3.10062H2.05978L2.21896 2.51663L1.74825 2.10062H1.98068L1.56954 1.80472L1.04025 2.17386L1.21896 1.51663L0.748254 1.10062H1.36349L1.56954 0.564484L1.81075 1.10062H2.33517L1.92306 1.51663L2.06466 2.10062H2.36349L2.56954 1.56448L2.81075 2.10062H3.05978L3.21896 1.51663L2.74825 1.10062H3.36349L3.56954 0.564484L3.81075 1.10062H4.33517L3.92306 1.51663L4.06466 2.10062H4.36349L4.56954 1.56448L4.81075 2.10062H5.05978L5.21896 1.51663L4.74825 1.10062H5.36349L5.56954 0.564484L5.81075 1.10062H6.33517L5.92306 1.51663L6.06466 2.10062H6.36349L6.56954 1.56448L6.81075 2.10062H7.05978L7.21896 1.51663L6.74825 1.10062H7.36349L7.56954 0.564484L7.81075 1.10062ZM5.14572 4.10062H5.33517L4.92306 4.51663L5.06466 5.10062H5.36349L5.56954 4.56448L5.81075 5.10062H6.05978L6.21896 4.51663L5.74825 4.10062H5.98068L5.56954 3.80472L5.14572 4.10062ZM3.14572 4.10062H3.33517L2.92306 4.51663L3.06466 5.10062H3.36349L3.56954 4.56448L3.81075 5.10062H4.05978L4.21896 4.51663L3.74825 4.10062H3.98068L3.56954 3.80472L3.14572 4.10062ZM6.14572 3.10062H6.33517L5.92306 3.51663L6.06466 4.10062H6.36349L6.56954 3.56448L6.81075 4.10062H7.05978L7.21896 3.51663L6.74825 3.10062H6.98068L6.56954 2.80472L6.14572 3.10062ZM2.14572 3.10062H2.33517L1.92306 3.51663L2.06466 4.10062H2.36349L2.56954 3.56448L2.81075 4.10062H3.05978L3.21896 3.51663L2.74825 3.10062H2.98068L2.56954 2.80472L2.14572 3.10062ZM4.14572 3.10062H4.33517L3.92306 3.51663L4.06466 4.10062H4.36349L4.56954 3.56448L4.81075 4.10062H5.05978L5.21896 3.51663L4.74825 3.10062H4.98068L4.56954 2.80472L4.14572 3.10062ZM3.14572 2.10062H3.33517L2.92306 2.51663L3.06466 3.10062H3.36349L3.56954 2.56448L3.81075 3.10062H4.05978L4.21896 2.51663L3.74825 2.10062H3.98068L3.56954 1.80472L3.14572 2.10062ZM5.14572 2.10062H5.33517L4.92306 2.51663L5.06466 3.10062H5.36349L5.56954 2.56448L5.81075 3.10062H6.05978L6.21896 2.51663L5.74825 2.10062H5.98068L5.56954 1.80472L5.14572 2.10062Z" fill="var(--fill-0, #F7FCFF)"/>
</g>
</g>
</svg>
