<svg width="24" height="24" viewBox="0 0 20 16.731" fill="none" xmlns="http://www.w3.org/2000/svg">
<path d="M19.3164 5.11047C19.6443 4.98055 19.9998 5.22169 20 5.57433V12.9923C20 13.0924 19.9703 13.1907 19.9141 13.2735C19.8578 13.3563 19.7776 13.4203 19.6846 13.4571L11.3408 16.6954C11.0129 16.8253 10.6572 16.5832 10.6572 16.2306V8.81359C10.6572 8.71351 10.6869 8.61513 10.7432 8.53234C10.7994 8.44954 10.8796 8.38566 10.9727 8.34875L19.3164 5.11047ZM0.503906 5.10754C0.58297 5.10065 0.665475 5.1108 0.741211 5.14074L8.66797 8.28136C8.74337 8.31135 8.80548 8.35606 8.85449 8.40929C8.88724 8.44483 8.91385 8.48438 8.93457 8.52648C9.00698 8.67372 9.00523 8.85157 8.9248 8.99523C8.90183 9.03624 8.87281 9.07463 8.83691 9.10851C8.80095 9.14249 8.75815 9.17166 8.70898 9.19543L6.23242 10.3917L5.98145 10.5128L0.753906 13.0177C0.422731 13.1772 0 12.9354 0 12.5675V5.60558C1.02548e-06 5.47241 0.0685881 5.3571 0.160156 5.27062C0.197587 5.23341 0.239918 5.20139 0.286133 5.1759C0.348601 5.13838 0.424738 5.11439 0.503906 5.10754ZM8.93066 0.211053C9.61083 -0.0703964 10.3755 -0.0703058 11.0557 0.211053L18.5127 3.29699C18.927 3.46873 18.9225 4.05722 18.5059 4.22277L11.0176 7.1925C10.3597 7.45336 9.62659 7.4534 8.96875 7.1925L1.48145 4.22277C1.0642 4.05731 1.0601 3.46869 1.47461 3.29699L8.93066 0.211053Z" fill="currentColor"/>
</svg>
