<svg width="24" height="24" viewBox="0 0 18.7336 22.0002" fill="none" xmlns="http://www.w3.org/2000/svg">
<path id="Vector-color" fill-rule="evenodd" clip-rule="evenodd" d="M12.5379 1.48248L12.2976 1.84221C14.1051 2.68378 15.3275 4.2782 15.3275 6.10278H3.40576C3.40576 4.27776 4.62815 2.68334 6.4356 1.84177L6.19534 1.48204L5.95859 1.12713L5.428 0.330802C5.36299 0.232853 5.38934 0.100644 5.48685 0.0356368C5.58524 -0.0293699 5.71745 -0.00301571 5.78246 0.0949336L6.35215 0.949245L6.59153 1.3081L6.83311 1.67179C7.60265 1.37355 8.46047 1.2062 9.36574 1.2062C10.2719 1.2062 11.1297 1.37355 11.8992 1.67179L12.1421 1.3081L12.3815 0.949245L12.9503 0.0953728C13.0158 -0.00301574 13.1475 -0.0293699 13.2464 0.036076C13.3434 0.101522 13.3698 0.233292 13.3048 0.331242L12.7738 1.12757L12.5379 1.48248ZM6.17294 3.76122C6.17294 4.11393 6.45844 4.39987 6.81203 4.39987C7.16473 4.39987 7.45023 4.11393 7.45023 3.76122C7.45023 3.40852 7.16473 3.12302 6.81203 3.12302C6.45844 3.12302 6.17294 3.40852 6.17294 3.76122ZM11.2826 3.76122C11.2826 4.11393 11.5681 4.39987 11.9208 4.39987C12.2743 4.39987 12.5598 4.11393 12.5598 3.76122C12.5598 3.40852 12.2743 3.12302 11.9208 3.12302C11.5681 3.12302 11.2826 3.40852 11.2826 3.76122ZM3.40576 6.95508H3.49756H15.2357H15.3275V8.01715V8.88376V16.3226C15.3275 17.0663 14.7226 17.6711 13.979 17.6711H13.0061C13.0386 17.7835 13.0566 17.903 13.0566 18.0255V18.0967V18.5223V20.7229C13.0566 21.4279 12.4843 22.0002 11.7793 22.0002C11.0744 22.0002 10.502 21.4279 10.502 20.7229V18.5223V18.0967V18.0255C10.502 17.9026 10.52 17.7835 10.5525 17.6711H8.18068C8.21231 17.7835 8.23119 17.903 8.23119 18.0255V18.0967V18.5223V20.7229C8.23119 21.4279 7.65931 22.0002 6.9539 22.0002C6.24849 22.0002 5.67616 21.4279 5.67616 20.7229V18.5223V18.0967V18.0255C5.67616 17.9026 5.69461 17.7835 5.72712 17.6711H4.75377C4.01015 17.6711 3.40576 17.0663 3.40576 16.3226V8.88376V8.01715V6.95508ZM1.27729 6.95508C0.571883 6.95508 0 7.52652 0 8.23281V13.6964C0 14.4014 0.571883 14.9737 1.27729 14.9737C1.98227 14.9737 2.55459 14.4014 2.55459 13.6964V8.23237C2.55459 7.52652 1.9827 6.95508 1.27729 6.95508ZM16.1799 8.23281C16.1799 7.52652 16.7514 6.95508 17.4572 6.95508C18.1622 6.95508 18.7336 7.52652 18.7336 8.23237V13.6964C18.7336 14.4014 18.1622 14.9737 17.4572 14.9737C16.7514 14.9737 16.1799 14.4014 16.1799 13.6964V8.23281Z" fill="#A5C836"/>
</svg>
