<svg width="24" height="24" viewBox="0 0 22 22" fill="none" xmlns="http://www.w3.org/2000/svg">
<path d="M11 0C17.0751 0 22 4.92487 22 11C22 17.0751 17.0751 22 11 22C4.92487 22 0 17.0751 0 11C0 4.92487 4.92487 0 11 0ZM18 6.26855C18 4.12781 16.123 4.80049 14.9648 5.66992C13.3599 6.87507 11.6339 9.31796 11 10.6289C10.3661 9.31793 8.64007 6.87504 7.03516 5.66992C5.87705 4.80044 4 4.12784 4 6.26855C4.00018 6.69781 4.24494 9.85857 4.38867 10.373C4.88837 12.1587 6.70933 12.6144 8.3291 12.3389C5.49794 12.8208 4.77752 14.4175 6.33301 16.0137C9.28687 19.0447 10.5789 15.2535 10.9102 14.2812C10.9708 14.1031 10.9996 14.02 11 14.0908C11.0004 14.02 11.0292 14.1031 11.0898 14.2812C11.4211 15.2535 12.7131 19.0447 15.667 16.0137C17.2225 14.4175 16.502 12.8208 13.6709 12.3389C15.2907 12.6144 17.1116 12.1587 17.6113 10.373C17.7551 9.85848 17.9998 6.69774 18 6.26855Z" fill="currentColor"/>
</svg>
