<svg width="24" height="24" viewBox="0 0 20 17.6098" fill="none" xmlns="http://www.w3.org/2000/svg">
<path d="M4.33525 1.18535C6.6282 2.90679 9.0944 6.39718 10 8.27017C10.9056 6.39722 13.3718 2.90679 15.6648 1.18531C17.3192 -0.0567274 20 -1.01782 20 2.04039C20 2.65116 19.6498 7.17112 19.4444 7.905C18.7305 10.4562 16.1291 11.1069 13.815 10.713C17.8599 11.4014 18.8889 13.6817 16.6667 15.962C12.4462 20.2927 10.6007 14.8754 10.1279 13.4873C10.0412 13.2328 10.0006 13.1138 10 13.215C9.9994 13.1138 9.95884 13.2328 9.87215 13.4873C9.39926 14.8754 7.55377 20.2927 3.33335 15.962C1.11113 13.6817 2.14004 11.4014 6.18497 10.713C3.87088 11.1068 1.26947 10.4561 0.555563 7.90496C0.350176 7.17109 0 2.65109 0 2.04035C0 -1.01782 2.68081 -0.0567627 4.33525 1.18535Z" fill="currentColor"/>
</svg>
