<svg width="24" height="24" viewBox="0 0 22 22" fill="none" xmlns="http://www.w3.org/2000/svg">
<path d="M11 0C17.0751 0 22 4.92487 22 11C22 17.0751 17.0751 22 11 22C4.92487 22 0 17.0751 0 11C0 4.92487 4.92487 0 11 0ZM10.2002 13.9004H12.5996V14.7002H10.2002V16.0996H14.2002V9.09961H10.2002V13.9004ZM15 13.9004H17.4004V14.7002H15V16.0996H19V9.09961H15V13.9004ZM5.40039 9.09961H3V13.9004H7V7H5.40039V9.09961ZM7.7002 13.9004H9.2998V9H7.7002V13.9004ZM5.40039 12.7002H4.59961V10.5H5.40039V12.7002ZM12.5996 12.5H11.7998V10.2998H12.5996V12.5ZM17.4004 12.5H16.5996V10.2998H17.4004V12.5ZM7.7002 8.2998H9.2998V7H7.7002V8.2998Z" fill="currentColor"/>
</svg>
