<svg width="24" height="24" viewBox="0 0 20 20" fill="none" xmlns="http://www.w3.org/2000/svg">
<path id="Vector-color" d="M17.9004 0C19.0599 0.000211264 19.9998 0.940121 20 2.09961V17.9004C19.9998 19.0599 19.0599 19.9998 17.9004 20H2.09961C0.940121 19.9998 0.000211022 19.0599 0 17.9004V2.09961C0.000211264 0.940121 0.940121 0.000211022 2.09961 0H17.9004ZM9.2002 12.9004H11.5996V13.7002H9.2002V15.0996H13.2002V8.09961H9.2002V12.9004ZM14 12.9004H16.4004V13.7002H14V15.0996H18V8.09961H14V12.9004ZM4.40039 8.09961H2V12.9004H6V6H4.40039V8.09961ZM6.7002 12.9004H8.2998V8H6.7002V12.9004ZM4.40039 11.7002H3.59961V9.5H4.40039V11.7002ZM11.5996 11.5H10.7998V9.2998H11.5996V11.5ZM16.4004 11.5H15.5996V9.2998H16.4004V11.5ZM6.7002 7.2998H8.2998V6H6.7002V7.2998Z" fill="#1E62DF"/>
</svg>
