<svg width="24" height="24" viewBox="0 0 22 22" fill="none" xmlns="http://www.w3.org/2000/svg">
<path id="Vector-color" fill-rule="evenodd" clip-rule="evenodd" d="M12.2698 22C17.7468 21.3684 22 16.7007 22 11.0364C22 4.94115 17.0751 0 11 0C4.92487 0 0 4.94115 0 11.0364C0 16.3797 3.78477 20.8361 8.81136 21.8543V21.7484V13.9889H6V10.7792H7.40568H8.81136V8.33286C8.81136 5.55026 10.4625 4.01322 12.9914 4.01322C14.2025 4.01322 15.4689 4.22992 15.4689 4.22992V6.96103H14.0731C12.6986 6.96103 12.2698 7.81708 12.2698 8.69506V10.7792H15.3391L14.8482 13.9889H12.2698V21.7484V22Z" fill="#1877F2"/>
</svg>
