<svg width="24" height="24" viewBox="0 0 20 20" fill="none" xmlns="http://www.w3.org/2000/svg">
<path fill-rule="evenodd" clip-rule="evenodd" d="M2.1 0C0.940202 0 0 0.940202 0 2.1V17.9C0 19.0598 0.940202 20 2.1 20H17.9C19.0598 20 20 19.0598 20 17.9V2.1C20 0.940202 19.0598 0 17.9 0H2.1ZM6.18018 13.0769C4.46598 13.0769 3.07692 11.6993 3.07692 10.0007C3.07692 8.30075 4.46598 6.92303 6.18018 6.92303C7.89363 6.92303 9.28268 8.30075 9.28268 10.0007C9.28268 11.6993 7.89367 13.0769 6.18018 13.0769ZM13.8198 13.0769C12.1064 13.0769 10.7173 11.6992 10.7173 10.0007C10.7173 8.30075 12.1064 6.92303 13.8198 6.92303C15.5341 6.92303 16.9231 8.30075 16.9231 10.0007C16.9231 11.6993 15.534 13.0769 13.8198 13.0769Z" fill="currentColor"/>
</svg>
