<svg width="24" height="24" viewBox="0 0 22 22" fill="none" xmlns="http://www.w3.org/2000/svg">
<path fill-rule="evenodd" clip-rule="evenodd" d="M11 0C4.92487 0 0 4.92487 0 11C0 17.0751 4.92487 22 11 22C17.0751 22 22 17.0751 22 11C22 4.92487 17.0751 0 11 0ZM6.79819 14.3846C4.91258 14.3846 3.38462 12.8692 3.38462 11.0008C3.38462 9.13082 4.91258 7.61534 6.79819 7.61534C8.68299 7.61534 10.2109 9.13082 10.2109 11.0008C10.2109 12.8692 8.68304 14.3846 6.79819 14.3846ZM15.2018 14.3846C13.317 14.3846 11.7891 12.8691 11.7891 11.0008C11.7891 9.13082 13.317 7.61534 15.2018 7.61534C17.0875 7.61534 18.6154 9.13082 18.6154 11.0008C18.6154 12.8692 17.0874 14.3846 15.2018 14.3846Z" fill="currentColor"/>
</svg>
