<svg width="24" height="24" viewBox="0 0 20 20" fill="none" xmlns="http://www.w3.org/2000/svg">
<path d="M17.9004 0C19.0599 0.000211264 19.9998 0.940121 20 2.09961V17.9004C19.9998 19.0599 19.0599 19.9998 17.9004 20H2.09961C0.940121 19.9998 0.000211022 19.0599 0 17.9004V2.09961C0.000211264 0.940121 0.940121 0.000211022 2.09961 0H17.9004ZM13.1973 10.7031C11.1436 10.7031 9.80469 12.3002 9.80469 14.3477C9.80485 16.4227 11.2177 17.9472 13.1973 17.9453C13.8936 17.9453 14.5178 17.7524 15.04 17.4131C15.3252 17.706 15.6085 18.0006 15.875 18.2842L16.4619 17.7061C16.2045 17.4223 15.9399 17.1456 15.6641 16.8711C16.2325 16.2388 16.5624 15.3581 16.5625 14.3477C16.5625 12.3096 15.2416 10.7032 13.1973 10.7031ZM6.24023 10.7031C4.80155 10.7032 3.90332 11.3824 3.90332 12.4746C3.90351 13.4295 4.59279 14.1085 6.19629 14.5684C7.51644 14.9522 8.05761 15.3658 8.05762 15.9629C8.05744 16.6433 7.36104 17.12 6.36133 17.1201C5.32625 17.1201 4.70199 16.6155 4.53711 15.6328L3.71094 15.7979C3.94064 17.1941 4.88134 17.9472 6.40332 17.9473C7.92549 17.9473 8.90702 17.1682 8.90723 15.9648C8.90722 15.0005 8.26602 14.3218 6.54199 13.7988C5.23108 13.3946 4.76465 13.0176 4.76465 12.4668C4.76465 11.8697 5.32377 11.5206 6.22168 11.5205C7.18464 11.5205 7.73454 11.9327 7.91797 12.7598L8.77051 12.5762C8.48721 11.3466 7.64221 10.7031 6.24023 10.7031ZM13.1953 11.5283C14.7082 11.5283 15.6806 12.7412 15.6807 14.3379C15.6807 15.1187 15.4413 15.7807 15.0469 16.2666C14.7636 15.9996 14.4692 15.7343 14.1768 15.4766L13.5986 16.0557C13.8744 16.2949 14.1399 16.5508 14.416 16.8086C14.0584 17.02 13.647 17.1289 13.1953 17.1289C11.7547 17.1289 10.7012 15.9717 10.7012 14.3379C10.7012 12.7394 11.6824 11.5283 13.1953 11.5283ZM3.85449 2.17578V9.08203H4.67871V5.94238H8.16211V5.125H4.67871V2.99414H8.60352V2.17578H3.85449Z" fill="currentColor"/>
</svg>
