<svg width="24" height="24" viewBox="0 0 22 16.5043" fill="none" xmlns="http://www.w3.org/2000/svg">
<g id="Vector-color">
<path d="M1.5 16.5043H5.00001V8.00427L0 4.25427V15.0043C0 15.8343 0.672502 16.5043 1.5 16.5043Z" fill="#4285F4"/>
<path d="M17 16.5043H20.5C21.3301 16.5043 22 15.8318 22 15.0043V4.25427L17 8.00427" fill="#34A853"/>
<path d="M17 1.50426V8.00427L22 4.25427V2.25427C22 0.399256 19.8826 -0.658246 18.4 0.454256" fill="#FBBC04"/>
<path d="M5.00001 8.00427V1.50426L11 6.00426L17 1.50426V8.00427L11 12.5043" fill="#EA4335"/>
<path d="M0 2.25427V4.25427L5.00001 8.00427V1.50426L3.60001 0.454256C2.11501 -0.658246 0 0.399256 0 2.25427Z" fill="#C5221F"/>
</g>
</svg>
