<svg width="24" height="24" viewBox="0 0 22 16.5051" fill="none" xmlns="http://www.w3.org/2000/svg">
<path d="M22 2.25457V15.0045C22 15.8332 21.329 16.5042 20.5003 16.5042H16.9996V8.00482L11 12.5057L5.00042 8.00482V16.5051H1.49967C1.30265 16.5051 1.10757 16.4662 0.925558 16.3908C0.74355 16.3154 0.578187 16.2049 0.438918 16.0655C0.299649 15.9261 0.189204 15.7607 0.113892 15.5787C0.038581 15.3966 -0.000120145 15.2015 2.80181e-07 15.0045V2.25457C2.80181e-07 0.400153 2.11658 -0.658597 3.59975 0.454237L5.00042 1.50565L11 6.00465L16.9996 1.50382L18.4003 0.454237C19.8825 -0.65768 22 0.400153 22 2.25457Z" fill="currentColor"/>
</svg>
