<svg width="24" height="24" viewBox="0 0 21.56 21.9996" fill="none" xmlns="http://www.w3.org/2000/svg">
<g id="Vector-color">
<path d="M21.56 11.25C21.56 10.47 21.49 9.72 21.36 9H11V13.26H16.92C16.66 14.63 15.88 15.79 14.71 16.57V19.34H18.28C20.36 17.42 21.56 14.6 21.56 11.25Z" fill="#4285F4"/>
<path d="M11.0002 21.9996C13.9702 21.9996 16.46 21.02 18.28 19.34L14.71 16.57C13.73 17.23 12.4802 17.6296 11.0002 17.6296C8.14018 17.6296 5.71018 15.6996 4.84018 13.0996H1.18018V15.9396C2.99018 19.5296 6.70018 21.9996 11.0002 21.9996Z" fill="#34A853"/>
<path d="M4.84 13.0903C4.62 12.4303 4.49 11.7303 4.49 11.0003C4.49 10.2703 4.62 9.57031 4.84 8.91031V6.07031H1.18C0.43 7.55031 0 9.22031 0 11.0003C0 12.7803 0.43 14.4503 1.18 15.9303L4.03 13.7103L4.84 13.0903Z" fill="#FBBC05"/>
<path d="M11.0002 4.38C12.6202 4.38 14.0602 4.94 15.2102 6.02L18.3602 2.87C16.4502 1.09 13.9702 0 11.0002 0C6.70018 0 2.99 2.47031 1.18 6.07031L4.84 8.91031C5.71 6.31031 8.14018 4.38 11.0002 4.38Z" fill="#EA4335"/>
</g>
</svg>
