<svg width="24" height="24" viewBox="0 0 19.2857 20" fill="none" xmlns="http://www.w3.org/2000/svg">
<path fill-rule="evenodd" clip-rule="evenodd" d="M14.0102 14.4122C12.5163 14.4122 11.3053 13.2138 11.3053 11.7357C11.3053 10.2574 12.5163 9.05894 14.0102 9.05894C15.504 9.05894 16.715 10.2574 16.715 11.7357C16.715 13.2138 15.504 14.4122 14.0102 14.4122ZM14.8199 6.58251V4.20136C15.448 3.9078 15.8879 3.27906 15.8879 2.54938V2.49441C15.8879 1.48735 15.0553 0.663415 14.0377 0.663415H13.9824C12.9648 0.663415 12.1322 1.48735 12.1322 2.49441V2.54938C12.1322 3.27906 12.5721 3.90805 13.2002 4.20162V6.58251C12.2651 6.72557 11.4107 7.10723 10.706 7.66894L4.0996 2.58328C4.1432 2.41762 4.17383 2.24708 4.17409 2.06781C4.17512 0.927445 3.24236 0.00154237 2.08951 1.33794e-06C0.937179 -0.00128285 0.00129902 0.922051 1.35235e-06 2.06267C-0.00129632 3.20329 0.931469 4.12919 2.08432 4.13047C2.45986 4.13099 2.80764 4.02543 3.11233 3.85386L9.6108 8.85681C9.05826 9.68229 8.73436 10.6711 8.73436 11.7357C8.73436 12.8501 9.09018 13.8811 9.69126 14.7289L7.71517 16.6847C7.55893 16.6382 7.39698 16.6059 7.22517 16.6059C6.27813 16.6059 5.51017 17.3656 5.51017 18.3028C5.51017 19.2403 6.27813 20 7.22517 20C8.17247 20 8.94017 19.2403 8.94017 18.3028C8.94017 18.1333 8.90747 17.9728 8.86049 17.8182L10.8153 15.8837C11.7026 16.5537 12.8077 16.9565 14.0102 16.9565C16.924 16.9565 19.2857 14.619 19.2857 11.7357C19.2857 9.12547 17.348 6.96905 14.8199 6.58251Z" fill="currentColor"/>
</svg>
