<svg width="24" height="24" viewBox="0 0 20 20" fill="none" xmlns="http://www.w3.org/2000/svg">
<path d="M17.9004 0C19.0599 0.000211264 19.9998 0.940122 20 2.09961V17.9004C19.9998 19.0599 19.0599 19.9998 17.9004 20H2.09961C0.940121 19.9998 0.000211264 19.0599 0 17.9004V2.09961C0.000211006 0.940121 0.940121 0.000211264 2.09961 0H17.9004ZM10 3C8.09892 3 7.86092 3.00816 7.11426 3.04199C4.57223 3.15865 3.15977 4.56903 3.04297 7.11328C3.00855 7.86053 3 8.09892 3 10C3 11.9011 3.00816 12.1401 3.04199 12.8867C3.15878 15.4285 4.56915 16.8412 7.11328 16.958C7.86053 16.9918 8.09892 17 10 17C11.9011 17 12.1401 16.9918 12.8867 16.958C15.4262 16.8412 16.842 15.4308 16.957 12.8867C16.9914 12.1401 17 11.9011 17 10C17 8.09892 16.9918 7.86092 16.958 7.11426C16.8437 4.57442 15.4312 3.15964 12.8867 3.04297C12.1396 3.00856 11.9009 3 10 3ZM10 4.26172C11.869 4.26172 12.0906 4.2689 12.8291 4.30273C14.7261 4.38907 15.6119 5.28897 15.6982 7.17188C15.7321 7.90979 15.7393 8.13198 15.7393 10.001C15.7393 11.8702 15.7315 12.0913 15.6982 12.8291C15.6113 14.7104 14.7279 15.6119 12.8291 15.6982C12.0906 15.7321 11.8701 15.7393 10 15.7393C8.13137 15.7393 7.90944 15.7321 7.17188 15.6982C5.27021 15.6113 4.38809 14.707 4.30176 12.8281C4.26794 12.0906 4.26074 11.8692 4.26074 10C4.26074 8.1314 4.26853 7.91 4.30176 7.17188C4.38867 5.28946 5.27313 4.38809 7.17188 4.30176C7.91 4.26853 8.1314 4.26172 10 4.26172ZM10 6.40527C8.01492 6.40527 6.40527 8.01492 6.40527 10C6.40527 11.9851 8.01492 13.5947 10 13.5947C11.9851 13.5947 13.5947 11.9857 13.5947 10C13.5947 8.01492 11.9851 6.40527 10 6.40527ZM10 7.66699C11.2886 7.66699 12.333 8.71142 12.333 10C12.333 11.2892 11.2886 12.333 10 12.333C8.71142 12.333 7.66699 11.2892 7.66699 10C7.66699 8.71142 8.71142 7.66699 10 7.66699ZM13.7373 5.42383C13.273 5.42383 12.8965 5.79996 12.8965 6.26367C12.8965 6.72742 13.273 7.10352 13.7373 7.10352C14.2008 7.10326 14.5762 6.72726 14.5762 6.26367C14.5761 5.80011 14.2008 5.42408 13.7373 5.42383Z" fill="currentColor"/>
</svg>
