<svg width="24" height="24" viewBox="0 0 22 22" fill="none" xmlns="http://www.w3.org/2000/svg">
<path d="M11 0C17.0751 0 22 4.92487 22 11C22 17.0751 17.0751 22 11 22C4.92487 22 0 17.0751 0 11C0 4.92487 4.92487 0 11 0ZM11 4C9.09892 4 8.86092 4.00816 8.11426 4.04199C5.57223 4.15865 4.15977 5.56903 4.04297 8.11328C4.00855 8.86053 4 9.09892 4 11C4 12.9011 4.00816 13.1401 4.04199 13.8867C4.15878 16.4285 5.56915 17.8412 8.11328 17.958C8.86053 17.9918 9.09892 18 11 18C12.9011 18 13.1401 17.9918 13.8867 17.958C16.4262 17.8412 17.842 16.4308 17.957 13.8867C17.9914 13.1401 18 12.9011 18 11C18 9.09892 17.9918 8.86092 17.958 8.11426C17.8437 5.57442 16.4312 4.15964 13.8867 4.04297C13.1396 4.00856 12.9009 4 11 4ZM11 5.26172C12.869 5.26172 13.0906 5.2689 13.8291 5.30273C15.7261 5.38907 16.6119 6.28897 16.6982 8.17188C16.7321 8.90979 16.7393 9.13198 16.7393 11.001C16.7393 12.8702 16.7315 13.0913 16.6982 13.8291C16.6113 15.7104 15.7279 16.6119 13.8291 16.6982C13.0906 16.7321 12.8701 16.7393 11 16.7393C9.13137 16.7393 8.90944 16.7321 8.17188 16.6982C6.27021 16.6113 5.38809 15.707 5.30176 13.8281C5.26794 13.0906 5.26074 12.8692 5.26074 11C5.26074 9.1314 5.26853 8.91 5.30176 8.17188C5.38867 6.28946 6.27313 5.38809 8.17188 5.30176C8.91 5.26853 9.1314 5.26172 11 5.26172ZM11 7.40527C9.01492 7.40527 7.40527 9.01492 7.40527 11C7.40527 12.9851 9.01492 14.5947 11 14.5947C12.9851 14.5947 14.5947 12.9857 14.5947 11C14.5947 9.01492 12.9851 7.40527 11 7.40527ZM11 8.66699C12.2886 8.66699 13.333 9.71142 13.333 11C13.333 12.2892 12.2886 13.333 11 13.333C9.71142 13.333 8.66699 12.2892 8.66699 11C8.66699 9.71142 9.71142 8.66699 11 8.66699ZM14.7373 6.42383C14.273 6.42383 13.8965 6.79996 13.8965 7.26367C13.8965 7.72742 14.273 8.10352 14.7373 8.10352C15.2008 8.10326 15.5762 7.72726 15.5762 7.26367C15.5761 6.80011 15.2008 6.42408 14.7373 6.42383Z" fill="currentColor"/>
</svg>
