<svg width="24" height="24" viewBox="0 0 22 21.9601" fill="none" xmlns="http://www.w3.org/2000/svg">
<path d="M9.94336 0.000189011L11.9863 0.0128843L13.582 0.031439L14.8428 0.0597593C15.2136 0.0710341 15.5384 0.0849731 15.8271 0.102728C16.1159 0.120487 16.3686 0.141732 16.5947 0.168158C16.8208 0.194584 17.0209 0.226586 17.2041 0.263861C17.3872 0.301124 17.554 0.344367 17.7139 0.39472C17.8728 0.445207 18.0292 0.503278 18.1826 0.568548C18.3388 0.634355 18.4979 0.708556 18.6699 0.792181C18.7735 0.84246 18.876 0.895239 18.9766 0.951361C19.0755 1.00663 19.1731 1.06513 19.2686 1.12617C19.3627 1.18632 19.4546 1.24984 19.5449 1.31562C19.6343 1.38076 19.7224 1.44817 19.8076 1.51874C19.8924 1.58904 19.9749 1.66241 20.0547 1.73749C20.1343 1.81246 20.2114 1.89007 20.2861 1.96992C20.3611 2.05002 20.4341 2.1323 20.5039 2.21699C20.574 2.30208 20.6414 2.3894 20.7061 2.4787C20.7711 2.56835 20.8336 2.66056 20.8936 2.75507C20.9535 2.84956 21.0104 2.94674 21.0654 3.04609C21.1205 3.14546 21.1736 3.24752 21.2236 3.35175C21.2736 3.45577 21.3209 3.56229 21.3652 3.67109C21.4096 3.78001 21.4522 3.89136 21.4922 4.00507C21.5327 4.12026 21.5709 4.2366 21.6055 4.3537C21.6409 4.47393 21.6735 4.59518 21.7031 4.71699C21.7335 4.84219 21.7605 4.96845 21.7852 5.09492C21.8074 5.20928 21.8282 5.37833 21.8477 5.59296L21.9014 6.36542L21.9443 7.35663L21.9766 8.51093L22 11.0871L21.9893 12.3986L21.9629 13.6535L21.9268 14.7795L21.8828 15.6848C21.8666 15.9543 21.8488 16.1942 21.8271 16.4113C21.8054 16.6285 21.7806 16.8235 21.751 17.0021C21.7214 17.1808 21.6872 17.3439 21.6475 17.4982C21.6089 17.6481 21.5627 17.7962 21.5098 17.9416C21.456 18.0883 21.3962 18.2332 21.3311 18.3752C21.2639 18.5225 21.1887 18.6752 21.1045 18.84C21.0485 18.9496 20.9933 19.0486 20.9336 19.1437C20.8724 19.2412 20.8065 19.3356 20.7354 19.426C20.6606 19.5213 20.5748 19.6198 20.4736 19.7297C20.3725 19.8396 20.2553 19.9608 20.1162 20.0998C19.9582 20.2579 19.8304 20.3827 19.7178 20.4865C19.605 20.5904 19.5066 20.6738 19.4082 20.7463C19.3086 20.8192 19.2039 20.8852 19.0957 20.9445C18.9805 21.0084 18.8494 21.0741 18.6865 21.1525C18.5805 21.2036 18.4749 21.252 18.3691 21.2971C18.2639 21.342 18.1571 21.3843 18.0498 21.424C17.9432 21.4635 17.8359 21.5004 17.7275 21.5344C17.6192 21.5684 17.5094 21.6009 17.3984 21.6291C17.2865 21.6582 17.1738 21.6846 17.0605 21.7082C16.9457 21.7322 16.8285 21.7533 16.709 21.7726C16.5895 21.792 16.4662 21.8086 16.3418 21.8234C16.2175 21.8383 16.0887 21.8518 15.957 21.8625L15.3428 21.8937L14.4004 21.9201L11.9209 21.9553L9.30371 21.9601C8.49503 21.9564 7.79334 21.9467 7.33008 21.9299C7.0303 21.919 6.75128 21.9058 6.49023 21.8889C6.22911 21.8719 5.9856 21.8518 5.75781 21.8273C5.53012 21.8029 5.31657 21.7745 5.11719 21.7414C4.91794 21.7083 4.72962 21.6704 4.55176 21.6271C4.37384 21.5839 4.20553 21.5345 4.04395 21.4797C3.88227 21.4248 3.72714 21.3638 3.57617 21.2961C3.42533 21.2284 3.27831 21.1545 3.13281 21.0725C2.9872 20.9903 2.84239 20.9006 2.69629 20.8029C2.53888 20.6979 2.38664 20.5849 2.24023 20.465C2.09562 20.3465 1.95823 20.222 1.82812 20.091C1.69815 19.9602 1.57472 19.8225 1.45898 19.6789C1.34318 19.5354 1.23523 19.385 1.13379 19.2287C1.03236 19.0724 0.937936 18.9097 0.850586 18.7404C0.763191 18.571 0.682815 18.3946 0.609375 18.2121C0.534663 18.0257 0.467371 17.8359 0.40918 17.6437C0.34847 17.4432 0.295556 17.2401 0.250977 17.0353C0.22904 16.9348 0.20942 16.8185 0.19043 16.6857C0.169539 16.5359 0.151611 16.3852 0.137695 16.2346L0.0947266 15.676L0.0595703 15.0012L0.0146484 13.2746L0 10.9953L0.00488281 9.42792L0.0224609 8.13105L0.0537109 7.06757C0.0670978 6.7478 0.0837906 6.46052 0.103516 6.19941C0.120963 5.96197 0.143633 5.72475 0.172852 5.48847C0.199986 5.2728 0.231221 5.07704 0.266602 4.8957C0.301963 4.7145 0.342137 4.54706 0.386719 4.38691C0.430426 4.23017 0.479766 4.07507 0.535156 3.92206C0.609864 3.715 0.684443 3.52889 0.764648 3.35663C0.803808 3.2724 0.845604 3.1894 0.889648 3.10761C0.933025 3.0272 0.978489 2.94902 1.02637 2.87226C1.0747 2.7949 1.12564 2.71891 1.17871 2.64472C1.23245 2.56937 1.28967 2.49393 1.35059 2.41816C1.47252 2.26642 1.61047 2.11134 1.76855 1.9455C1.89424 1.81293 2.01535 1.694 2.13379 1.58613C2.24713 1.48244 2.3657 1.38377 2.48828 1.2912C2.60725 1.20182 2.72917 1.11989 2.85742 1.04218C2.98564 0.964502 3.12054 0.891028 3.2666 0.818548C3.45675 0.724248 3.64175 0.639632 3.83105 0.564642C3.92571 0.527147 4.02187 0.492299 4.12012 0.459173C4.22018 0.425541 4.32109 0.39447 4.42285 0.3664C4.52716 0.337644 4.63583 0.311131 4.74902 0.286322C4.8622 0.261518 4.98012 0.238126 5.10449 0.216986C5.23515 0.194983 5.36659 0.175937 5.49805 0.159369C5.6361 0.141834 5.78214 0.125744 5.93652 0.111517C6.24529 0.0830013 6.58925 0.0610396 6.97852 0.0441343L8.29395 0.00897807C8.78448 0.00207109 9.33146 -0.000797701 9.94336 0.000189011ZM8.0625 1.95624L6.95703 1.97773C6.65319 1.9864 6.422 1.99644 6.28809 2.008C6.0962 2.02463 5.91677 2.04441 5.74805 2.0666C5.57943 2.08877 5.42118 2.11363 5.27246 2.14277C5.13102 2.17016 4.99028 2.20348 4.85156 2.24238C4.71944 2.28043 4.59432 2.32247 4.47559 2.36933C4.35689 2.41617 4.2443 2.46894 4.13574 2.52656C4.02713 2.58421 3.92201 2.64651 3.82031 2.71699C3.71694 2.78813 3.61706 2.86517 3.52148 2.94648C3.42043 3.03254 3.32309 3.12287 3.22949 3.21699C3.14901 3.29754 3.07457 3.37594 3.00586 3.45331C2.93714 3.5307 2.87407 3.60744 2.81543 3.68476C2.75695 3.76188 2.70304 3.83921 2.65332 3.91913C2.60349 3.99927 2.55736 4.08217 2.51465 4.16816C2.47095 4.25652 2.43116 4.34676 2.39551 4.43867C2.35855 4.5335 2.32383 4.63356 2.29102 4.74042C2.25647 4.85371 2.22452 4.96817 2.19629 5.0832C2.16606 5.20516 2.13743 5.33578 2.1084 5.47577C2.0996 5.51831 2.09034 5.58918 2.08203 5.68476L2.05859 6.04316L2.0166 7.12812L1.96094 10.2053L1.9541 13.426L1.97266 14.6887C1.98182 15.0439 1.99371 15.3262 2.00879 15.507C2.02921 15.7522 2.05509 15.9828 2.08691 16.2004C2.11877 16.4182 2.15608 16.6232 2.2002 16.8156C2.2443 17.0079 2.29575 17.1882 2.35352 17.3576C2.38239 17.4422 2.41292 17.5243 2.44531 17.6037C2.47722 17.6818 2.51192 17.7593 2.54883 17.8351C2.58503 17.9094 2.62303 17.9814 2.66309 18.051C2.70285 18.1201 2.74539 18.188 2.79004 18.2541C2.83401 18.3192 2.88006 18.3829 2.92871 18.4445C2.9772 18.506 3.0282 18.5656 3.08105 18.6232C3.13398 18.6809 3.18917 18.7365 3.24609 18.7902C3.30351 18.8443 3.36281 18.8974 3.4248 18.9484C3.48683 18.9995 3.55149 19.048 3.61816 19.0969C3.68483 19.1457 3.7545 19.192 3.82617 19.2375C3.92103 19.2978 4.01459 19.3535 4.10938 19.4045C4.20431 19.4555 4.30074 19.5015 4.39941 19.5441C4.49801 19.5867 4.5991 19.6261 4.70508 19.6613C4.81501 19.6977 4.92656 19.7296 5.03906 19.757C5.16256 19.787 5.28786 19.8125 5.41309 19.8342C5.54509 19.8573 5.6853 19.8783 5.83594 19.8967C5.98676 19.9151 6.14819 19.9309 6.32129 19.9455L6.87891 19.9846L7.63477 20.008L8.79883 20.0207L11.7637 20.0158L14.5957 19.9797L15.5957 19.9514C15.8576 19.9412 16.0405 19.9308 16.1201 19.9191C16.3273 19.8893 16.5334 19.85 16.7373 19.8029C16.9328 19.7575 17.1189 19.7047 17.2949 19.6447C17.3813 19.6154 17.4671 19.5841 17.5518 19.55C17.6338 19.5169 17.715 19.4806 17.7949 19.4426C17.8735 19.4052 17.9504 19.3665 18.0244 19.3254C18.0984 19.2842 18.1697 19.2404 18.2393 19.1955C18.3088 19.1505 18.3764 19.1038 18.4414 19.0549C18.5064 19.006 18.5693 18.9554 18.6299 18.9025C18.6905 18.8497 18.7493 18.7952 18.8057 18.7385C18.862 18.6817 18.9157 18.6224 18.9678 18.5617C19.02 18.5008 19.0705 18.4378 19.1182 18.3732C19.166 18.3086 19.2113 18.2417 19.2549 18.173C19.299 18.1035 19.3416 18.0325 19.3809 17.9601C19.4206 17.8871 19.4575 17.8117 19.4932 17.7346C19.5333 17.6482 19.5722 17.561 19.6084 17.4728C19.6425 17.3895 19.674 17.3051 19.7031 17.2199C19.732 17.135 19.7581 17.0487 19.7812 16.9621C19.8054 16.8712 19.8264 16.779 19.8447 16.6867C19.8648 16.5856 19.8828 16.4841 19.8975 16.382C19.9131 16.274 19.9264 16.1588 19.9395 16.0344C19.9654 15.7855 19.9872 15.4994 20.0078 15.1594L20.0381 14.4328L20.0596 13.4338L20.0771 10.9816L20.0615 8.52753L20.041 7.52558C20.0328 7.23208 20.0228 6.98354 20.0117 6.79511C19.9978 6.5601 19.9814 6.33996 19.9609 6.13398C19.9405 5.92797 19.9159 5.7353 19.8877 5.55488C19.8615 5.38477 19.8289 5.2157 19.79 5.04804C19.7529 4.88996 19.7111 4.74195 19.6641 4.60273C19.617 4.46347 19.5642 4.33218 19.5059 4.2082C19.4488 4.08654 19.3841 3.96839 19.3125 3.85468C19.2417 3.74256 19.1648 3.63425 19.0811 3.53144C18.997 3.42803 18.9055 3.32809 18.8066 3.22968C18.713 3.13637 18.6165 3.04937 18.5176 2.96796C18.4186 2.88656 18.3167 2.81055 18.2109 2.74042C18.1048 2.67004 17.9948 2.60493 17.8818 2.54609C17.768 2.48684 17.65 2.4322 17.5264 2.383C17.4025 2.33374 17.2728 2.28994 17.1377 2.25019C17.0027 2.21047 16.8618 2.17473 16.7139 2.14374C16.5599 2.1118 16.4048 2.08518 16.249 2.06367C16.0867 2.04112 15.9165 2.02203 15.7383 2.00703C15.6014 1.9954 15.3675 1.98535 15.0615 1.97675L13.9502 1.95527L11.0039 1.93867V1.93769L8.0625 1.95624ZM11.0098 5.37519C11.2012 5.37518 11.3926 5.38504 11.583 5.40449L12.1396 5.49042L12.6787 5.6291L13.1943 5.81855L13.6865 6.05585L14.1504 6.33808L14.584 6.6623L14.9834 7.02558L15.3477 7.42597L15.6719 7.85859L15.9541 8.32148L16.1924 8.81269L16.3818 9.32929C16.4367 9.50498 16.4839 9.68332 16.5215 9.8664C16.5594 10.0503 16.5873 10.2363 16.6064 10.423C16.6258 10.6114 16.6357 10.803 16.6357 10.9963C16.6357 11.1894 16.6257 11.3803 16.6064 11.5685L16.5215 12.1252C16.4839 12.3077 16.4368 12.4875 16.3818 12.6633L16.1924 13.1789L15.9541 13.6701L15.6719 14.134L15.3477 14.5666L14.9834 14.966L14.584 15.3293L14.1504 15.6535L13.6865 15.9357L13.1943 16.174L12.6787 16.3635L12.1396 16.5021C11.9556 16.54 11.7699 16.569 11.583 16.5881C11.3946 16.6073 11.2032 16.6164 11.0098 16.6164C10.8184 16.6164 10.6269 16.6075 10.4365 16.5881C10.2495 16.569 10.0631 16.54 9.87891 16.5021L9.34082 16.3635L8.82422 16.174L8.33301 15.9357L7.86914 15.6535L7.43555 15.3293L7.03613 14.966L6.67188 14.5666L6.34766 14.134L6.06445 13.6701L5.82715 13.1789C5.75575 13.011 5.69262 12.8389 5.6377 12.6633C5.58273 12.4875 5.53568 12.3084 5.49805 12.1252C5.46018 11.9413 5.4322 11.7553 5.41309 11.5685C5.39387 11.3803 5.38379 11.1894 5.38379 10.9963C5.38379 10.803 5.3937 10.6114 5.41309 10.423C5.43247 10.2348 5.46044 10.0488 5.49805 9.8664C5.53566 9.68402 5.58278 9.50491 5.6377 9.32929C5.69267 9.15351 5.75575 8.98064 5.82715 8.81269L6.06445 8.32245L6.34766 7.85859L6.67188 7.42597L7.03613 7.02558L7.43555 6.6623L7.86914 6.33808L8.33301 6.05585L8.82422 5.81855L9.34082 5.6291C9.51667 5.57421 9.69622 5.52798 9.87891 5.49042C10.0617 5.45286 10.248 5.4238 10.4365 5.40449C10.625 5.38519 10.8164 5.37519 11.0098 5.37519ZM11.0098 7.31562C10.8833 7.3156 10.7567 7.32157 10.6309 7.33417C10.5073 7.34665 10.3849 7.36547 10.2646 7.38984L9.91016 7.48066C9.79533 7.51607 9.68208 7.55718 9.57129 7.6037L9.24902 7.758L8.94629 7.9416L8.66309 8.15253L8.40137 8.38984L8.16406 8.65058L7.95312 8.93378L7.76953 9.23652L7.61523 9.55878L7.49121 9.89765C7.4553 10.0139 7.42557 10.1319 7.40137 10.2512C7.37691 10.3713 7.35818 10.4941 7.3457 10.6184C7.3331 10.7439 7.32713 10.8701 7.32715 10.9963C7.32712 11.1226 7.33309 11.2495 7.3457 11.3752L7.40137 11.7414L7.49121 12.0959L7.61426 12.4338L7.76953 12.756L7.95312 13.0598L8.16406 13.343L8.40137 13.6037L8.66309 13.841L8.94629 14.0519L9.24902 14.2355L9.57129 14.3898L9.91016 14.5129C10.0258 14.5485 10.1443 14.5783 10.2646 14.6027L10.6309 14.6584C10.7567 14.671 10.8833 14.6779 11.0098 14.6779C11.136 14.6779 11.2621 14.671 11.3877 14.6584L11.7549 14.6027L12.1084 14.5129L12.4473 14.3898L12.7695 14.2355L13.0732 14.0519L13.3564 13.841L13.6172 13.6037L13.8545 13.343L14.0664 13.0598L14.25 12.756L14.4043 12.4338L14.5273 12.0959C14.5629 11.9803 14.5937 11.8616 14.6182 11.7414C14.6426 11.6215 14.6603 11.4993 14.6729 11.3752C14.6854 11.2509 14.6924 11.1241 14.6924 10.9963L14.6729 10.6184C14.6597 10.4941 14.6425 10.3714 14.6182 10.2512C14.5939 10.131 14.5631 10.0131 14.5273 9.89765C14.4915 9.78217 14.4507 9.66898 14.4043 9.55878L14.25 9.23652L14.0664 8.93378L13.8545 8.65058L13.6172 8.38984L13.3564 8.15253L13.0732 7.9416L12.7695 7.758L12.4473 7.6037L12.1084 7.47968L11.7549 7.38984L11.3877 7.33417C11.3257 7.32792 11.2631 7.32365 11.2002 7.3205L11.0098 7.31562ZM16.959 3.78046C17.0034 3.78364 17.0479 3.78848 17.0918 3.79609C17.1356 3.80371 17.1788 3.81439 17.2217 3.82636C17.2647 3.83839 17.308 3.85206 17.3496 3.86835C17.3911 3.88463 17.432 3.90269 17.4717 3.92304C17.5115 3.94344 17.5503 3.96613 17.5879 3.99042C17.6253 4.01459 17.6614 4.04075 17.6963 4.06855C17.7311 4.09636 17.765 4.12625 17.7969 4.15742C17.8289 4.18876 17.8599 4.22262 17.8887 4.25702C17.9173 4.29123 17.9446 4.32657 17.9697 4.36347C17.9949 4.40049 18.0177 4.43935 18.0391 4.4787C18.0605 4.51818 18.0803 4.55934 18.0977 4.60077C18.115 4.64201 18.1304 4.68399 18.1436 4.72675C18.1568 4.7697 18.1679 4.81355 18.1768 4.85761C18.1856 4.90154 18.1928 4.94582 18.1973 4.99042C18.2017 5.03507 18.2041 5.08032 18.2041 5.12519C18.2041 5.15703 18.2024 5.18913 18.2002 5.22089C18.197 5.2657 18.1922 5.31041 18.1846 5.35468C18.177 5.39898 18.1662 5.4432 18.1543 5.48652C18.1424 5.52968 18.1284 5.57269 18.1123 5.61445C18.0961 5.65622 18.0778 5.69755 18.0576 5.73749C18.0375 5.77734 18.0152 5.81607 17.9912 5.8537C17.9671 5.89154 17.9408 5.92883 17.9131 5.96406C17.8855 5.99905 17.8561 6.03258 17.8252 6.06464C17.7941 6.0969 17.7607 6.12747 17.7266 6.15644C17.6924 6.18539 17.657 6.2131 17.6201 6.23847C17.5833 6.26382 17.545 6.28725 17.5059 6.30878C17.4668 6.33027 17.4268 6.34991 17.3857 6.36738C17.3446 6.38489 17.3024 6.40096 17.2598 6.41425C17.2171 6.42752 17.1736 6.43853 17.1299 6.44745C17.0863 6.45634 17.0423 6.4625 16.998 6.46699C16.9537 6.47145 16.9088 6.47382 16.8643 6.47382C16.8326 6.47382 16.8001 6.47315 16.7686 6.47089C16.7242 6.46769 16.6796 6.46192 16.6357 6.45429C16.592 6.4467 16.5486 6.43691 16.5059 6.42499C16.4628 6.41297 16.4196 6.39831 16.3779 6.38202C16.3365 6.36576 16.2955 6.34767 16.2559 6.32734C16.2161 6.30696 16.1772 6.28422 16.1396 6.25995C16.1022 6.23576 16.0661 6.20965 16.0312 6.18183C15.9964 6.15397 15.9626 6.12418 15.9307 6.09296C15.8986 6.06164 15.8676 6.02871 15.8389 5.99433C15.8101 5.95995 15.783 5.924 15.7578 5.88691C15.7326 5.84981 15.7099 5.81112 15.6885 5.77167C15.6671 5.73225 15.6473 5.69195 15.6299 5.65058C15.6125 5.60916 15.5972 5.56659 15.584 5.52363C15.5708 5.48071 15.5596 5.4368 15.5508 5.39277C15.5419 5.34883 15.5347 5.30456 15.5303 5.25995C15.5258 5.2152 15.5244 5.17017 15.5244 5.12519C15.5244 5.09336 15.5251 5.06123 15.5273 5.02949C15.5305 4.98476 15.5354 4.93988 15.543 4.8957C15.5505 4.85154 15.5613 4.80802 15.5732 4.76484C15.5852 4.72158 15.5991 4.67875 15.6152 4.63691C15.6314 4.59506 15.6497 4.55388 15.6699 4.51386C15.6902 4.47382 15.7122 4.43448 15.7363 4.39667C15.7604 4.35886 15.7867 4.3225 15.8145 4.2873C15.8422 4.25212 15.8713 4.21795 15.9023 4.18574C15.9335 4.1535 15.9668 4.12289 16.001 4.09394C16.0351 4.06503 16.0706 4.03725 16.1074 4.01191C16.1442 3.98662 16.1826 3.96307 16.2217 3.9416C16.2607 3.9201 16.3008 3.90047 16.3418 3.883C16.3829 3.8655 16.4251 3.85039 16.4678 3.8371C16.5104 3.82382 16.5539 3.81283 16.5977 3.8039C16.6413 3.795 16.6852 3.78788 16.7295 3.78339C16.7738 3.77891 16.8188 3.77658 16.8633 3.77656C16.8949 3.77656 16.9274 3.77821 16.959 3.78046Z" fill="url(#paint0_radial_0_200)"/>
<defs>
<radialGradient id="paint0_radial_0_200" cx="0" cy="0" r="1" gradientTransform="matrix(17 -20 12.1431 10.3152 3.49975 20.9803)" gradientUnits="userSpaceOnUse">
<stop stop-color="#FFCA02"/>
<stop offset="0.492434" stop-color="#FF232C"/>
<stop offset="0.737116" stop-color="#FD03BD"/>
<stop offset="1" stop-color="#810BFC"/>
</radialGradient>
</defs>
</svg>
