<svg width="24" height="24" viewBox="0 0 22 22" fill="none" xmlns="http://www.w3.org/2000/svg">
<path d="M11 0C13.9873 0 14.3622 0.0130829 15.5352 0.0664062C16.7056 0.119735 17.5055 0.306126 18.2051 0.578125C18.9281 0.859372 19.5418 1.23529 20.1533 1.84668C20.7648 2.45823 21.1415 3.07143 21.4229 3.79492C21.6948 4.49452 21.8803 5.29395 21.9336 6.46484C21.9869 7.63801 22 8.01278 22 11C22 13.9871 21.9869 14.3623 21.9336 15.5352C21.8803 16.7057 21.6949 17.5064 21.4229 18.2061C21.1416 18.929 20.7648 19.5428 20.1533 20.1543C19.5419 20.7655 18.9284 21.1416 18.2051 21.4229C17.5055 21.6947 16.706 21.8812 15.5352 21.9346C14.3621 21.9879 13.9872 22 11 22C8.01276 22 7.63786 21.9879 6.46484 21.9346C5.29444 21.8812 4.49459 21.6948 3.79492 21.4229C3.07201 21.1416 2.45811 20.7656 1.84668 20.1543C1.23529 19.5428 0.858403 18.9294 0.577148 18.2061C0.305211 17.5064 0.119738 16.7062 0.0664062 15.5352C0.0130918 14.3623 0 13.987 0 11C6.95271e-07 8.01287 0.0130763 7.6381 0.0664062 6.46484C0.119736 5.29439 0.30516 4.49461 0.577148 3.79492C0.858062 3.07143 1.23522 2.45823 1.84668 1.84668C2.45819 1.23529 3.07148 0.859372 3.79492 0.578125C4.49454 0.306214 5.29391 0.119734 6.46484 0.0664062C7.63788 0.0130829 8.01274 0 11 0ZM11 1.98242C8.06281 1.98242 7.7146 1.99345 6.55469 2.0459C5.48246 2.09484 4.90023 2.27408 4.5127 2.4248C3.99909 2.62405 3.63201 2.86222 3.24707 3.24707C2.8623 3.63187 2.62444 3.99829 2.4248 4.51172C2.27406 4.89928 2.09484 5.48215 2.0459 6.55469C1.99292 7.71478 1.98242 8.06281 1.98242 11C1.98242 13.9371 1.99301 14.2854 2.0459 15.4453C2.09485 16.5175 2.274 17.0998 2.4248 17.4873C2.62397 18.0007 2.86248 18.3672 3.24707 18.752C3.63201 19.1368 3.99901 19.3754 4.5127 19.5752C4.90024 19.7259 5.48255 19.9052 6.55469 19.9541C7.71469 20.0071 8.06272 20.0176 11 20.0176C13.9373 20.0176 14.2854 20.007 15.4453 19.9541C16.5174 19.9052 17.0998 19.7259 17.4873 19.5752C18.0009 19.376 18.368 19.1368 18.7529 18.752C19.1376 18.3672 19.3756 18.0008 19.5752 17.4873C19.7259 17.0998 19.9051 16.5175 19.9541 15.4453C20.0071 14.2853 20.0176 13.9372 20.0176 11C20.0176 8.06272 20.007 7.71469 19.9541 6.55469C19.9052 5.48215 19.7259 4.89928 19.5752 4.51172C19.376 3.99838 19.1376 3.63188 18.7529 3.24707C18.368 2.86213 18.001 2.62449 17.4873 2.4248C17.0998 2.27408 16.5175 2.09483 15.4453 2.0459C14.2853 1.99292 13.9372 1.98242 11 1.98242ZM11 5.35156C14.1196 5.35156 16.6483 7.8804 16.6484 11C16.6484 14.1197 14.1197 16.6484 11 16.6484C7.88029 16.6484 5.35156 14.1197 5.35156 11C5.35169 7.8804 7.88037 5.35156 11 5.35156ZM11 7.33301C8.97519 7.33301 7.33319 8.9747 7.33301 11C7.33301 13.0254 8.97508 14.667 11 14.667C13.0249 14.667 14.667 13.0254 14.667 11C14.6668 8.9747 13.0248 7.33301 11 7.33301ZM16.8721 3.80859C17.6012 3.80877 18.1914 4.3998 18.1914 5.12891C18.1912 5.85787 17.601 6.44806 16.8721 6.44824C16.143 6.44824 15.5519 5.85798 15.5518 5.12891C15.5518 4.39969 16.1429 3.80859 16.8721 3.80859Z" fill="currentColor"/>
</svg>
