<svg width="24" height="24" viewBox="0 0 22 22" fill="none" xmlns="http://www.w3.org/2000/svg">
<g>
<path d="M11.0036 0C6.4112 0 5.06809 0.00473946 4.80702 0.0263999C3.86458 0.10476 3.27814 0.253191 2.63924 0.571363C2.14687 0.815931 1.75856 1.09941 1.37532 1.4968C0.67738 2.22151 0.254382 3.11309 0.101253 4.17291C0.0268095 4.68741 0.00514881 4.79234 0.000750194 7.42038C-0.000937743 8.2964 0.000750194 9.44929 0.000750194 10.9957C0.000750194 15.5856 0.00582229 16.9277 0.0278237 17.1884C0.103964 18.1057 0.247779 18.6828 0.55234 19.3141C1.13439 20.5225 2.24601 21.4296 3.55562 21.7681C4.00908 21.8849 4.50991 21.9492 5.15286 21.9797C5.42527 21.9915 8.20182 22 10.9801 22C13.7583 22 16.5366 21.9966 16.8022 21.9831C17.5467 21.948 17.979 21.89 18.457 21.7664C19.775 21.4263 20.8664 20.5326 21.4603 19.3073C21.7589 18.6913 21.9103 18.0921 21.9789 17.2227C21.9937 17.0332 22 14.011 22 10.9928C22 7.97415 21.9932 4.95752 21.9783 4.76797C21.909 3.88451 21.7575 3.29046 21.4493 2.66256C21.1963 2.14856 20.9154 1.76471 20.5077 1.37224C19.78 0.676979 18.89 0.253864 17.8294 0.100869C17.3156 0.0265663 17.2132 0.00456491 14.5838 0H11.0036Z" fill="url(#paint0_radial_0_240)"/>
<path d="M11.0036 0C6.4112 0 5.06809 0.00473946 4.80702 0.0263999C3.86458 0.10476 3.27814 0.253191 2.63924 0.571363C2.14687 0.815931 1.75856 1.09941 1.37532 1.4968C0.67738 2.22151 0.254382 3.11309 0.101253 4.17291C0.0268095 4.68741 0.00514881 4.79234 0.000750194 7.42038C-0.000937743 8.2964 0.000750194 9.44929 0.000750194 10.9957C0.000750194 15.5856 0.00582229 16.9277 0.0278237 17.1884C0.103964 18.1057 0.247779 18.6828 0.55234 19.3141C1.13439 20.5225 2.24601 21.4296 3.55562 21.7681C4.00908 21.8849 4.50991 21.9492 5.15286 21.9797C5.42527 21.9915 8.20182 22 10.9801 22C13.7583 22 16.5366 21.9966 16.8022 21.9831C17.5467 21.948 17.979 21.89 18.457 21.7664C19.775 21.4263 20.8664 20.5326 21.4603 19.3073C21.7589 18.6913 21.9103 18.0921 21.9789 17.2227C21.9937 17.0332 22 14.011 22 10.9928C22 7.97415 21.9932 4.95752 21.9783 4.76797C21.909 3.88451 21.7575 3.29046 21.4493 2.66256C21.1963 2.14856 20.9154 1.76471 20.5077 1.37224C19.78 0.676979 18.89 0.253864 17.8294 0.100869C17.3156 0.0265663 17.2132 0.00456491 14.5838 0H11.0036Z" fill="url(#paint1_radial_0_240)"/>
<path d="M11.0036 0C6.4112 0 5.06809 0.00473946 4.80702 0.0263999C3.86458 0.10476 3.27814 0.253191 2.63924 0.571363C2.14687 0.815931 1.75856 1.09941 1.37532 1.4968C0.67738 2.22151 0.254382 3.11309 0.101253 4.17291C0.0268095 4.68741 0.00514881 4.79234 0.000750194 7.42038C-0.000937743 8.2964 0.000750194 9.44929 0.000750194 10.9957C0.000750194 15.5856 0.00582229 16.9277 0.0278237 17.1884C0.103964 18.1057 0.247779 18.6828 0.55234 19.3141C1.13439 20.5225 2.24601 21.4296 3.55562 21.7681C4.00908 21.8849 4.50991 21.9492 5.15286 21.9797C5.42527 21.9915 8.20182 22 10.9801 22C13.7583 22 16.5366 21.9966 16.8022 21.9831C17.5467 21.948 17.979 21.89 18.457 21.7664C19.775 21.4263 20.8664 20.5326 21.4603 19.3073C21.7589 18.6913 21.9103 18.0921 21.9789 17.2227C21.9937 17.0332 22 14.011 22 10.9928C22 7.97415 21.9932 4.95752 21.9783 4.76797C21.909 3.88451 21.7575 3.29046 21.4493 2.66256C21.1963 2.14856 20.9154 1.76471 20.5077 1.37224C19.78 0.676979 18.89 0.253864 17.8294 0.100869C17.3156 0.0265663 17.2132 0.00456491 14.5838 0H11.0036Z" fill="url(#paint2_radial_0_240)"/>
<path d="M11.0036 0C6.4112 0 5.06809 0.00473946 4.80702 0.0263999C3.86458 0.10476 3.27814 0.253191 2.63924 0.571363C2.14687 0.815931 1.75856 1.09941 1.37532 1.4968C0.67738 2.22151 0.254382 3.11309 0.101253 4.17291C0.0268095 4.68741 0.00514881 4.79234 0.000750194 7.42038C-0.000937743 8.2964 0.000750194 9.44929 0.000750194 10.9957C0.000750194 15.5856 0.00582229 16.9277 0.0278237 17.1884C0.103964 18.1057 0.247779 18.6828 0.55234 19.3141C1.13439 20.5225 2.24601 21.4296 3.55562 21.7681C4.00908 21.8849 4.50991 21.9492 5.15286 21.9797C5.42527 21.9915 8.20182 22 10.9801 22C13.7583 22 16.5366 21.9966 16.8022 21.9831C17.5467 21.948 17.979 21.89 18.457 21.7664C19.775 21.4263 20.8664 20.5326 21.4603 19.3073C21.7589 18.6913 21.9103 18.0921 21.9789 17.2227C21.9937 17.0332 22 14.011 22 10.9928C22 7.97415 21.9932 4.95752 21.9783 4.76797C21.909 3.88451 21.7575 3.29046 21.4493 2.66256C21.1963 2.14856 20.9154 1.76471 20.5077 1.37224C19.78 0.676979 18.89 0.253864 17.8294 0.100869C17.3156 0.0265663 17.2132 0.00456491 14.5838 0H11.0036Z" fill="url(#paint3_radial_0_240)"/>
<path d="M11.0045 2.82484C8.783 2.82484 8.5042 2.83455 7.63169 2.87422C6.76089 2.91407 6.16649 3.05183 5.64639 3.25397C5.1084 3.46273 4.65204 3.742 4.19738 4.19649C3.74239 4.65082 3.46291 5.10683 3.2533 5.64425C3.05051 6.16414 2.91247 6.75826 2.87329 7.62808C2.83426 8.49994 2.82404 8.7787 2.82404 10.9985C2.82404 13.2184 2.83392 13.4961 2.87345 14.368C2.9135 15.2381 3.05137 15.8321 3.25347 16.3518C3.46257 16.8894 3.74204 17.3454 4.19687 17.7997C4.65136 18.2544 5.10772 18.5343 5.64537 18.7431C6.1658 18.9452 6.76038 19.083 7.63101 19.1229C8.50352 19.1625 8.78214 19.1722 11.0035 19.1722C13.2251 19.1722 13.5031 19.1625 14.3756 19.1228C15.2464 19.083 15.8415 18.9452 16.3619 18.7431C16.8997 18.5343 17.3554 18.2544 17.8099 17.7997C18.2649 17.3454 18.5444 16.8894 18.754 16.352C18.955 15.8321 19.0931 15.238 19.134 14.3681C19.1732 13.4963 19.1834 13.2184 19.1834 10.9985C19.1834 8.77869 19.1732 8.50011 19.134 7.62825C19.0931 6.75809 18.955 6.16414 18.754 5.64443C18.5444 5.10683 18.2649 4.65081 17.8099 4.19649C17.3549 3.74182 16.8999 3.46256 16.3614 3.25396C15.8399 3.05183 15.2452 2.91407 14.3744 2.87422C13.5019 2.83455 13.2241 2.82484 11.0019 2.82484H11.0045ZM10.2707 4.29781C10.4885 4.29747 10.7315 4.29781 11.0045 4.29781C13.1885 4.29781 13.4473 4.30565 14.3098 4.34481C15.1073 4.38125 15.5402 4.51441 15.8285 4.62629C16.2102 4.77443 16.4824 4.95154 16.7685 5.23761C17.0548 5.5237 17.232 5.79615 17.3806 6.17758C17.4926 6.46537 17.626 6.89789 17.6623 7.69483C17.7015 8.55647 17.71 8.81531 17.71 10.9967C17.71 13.178 17.7015 13.4369 17.6623 14.2985C17.6258 15.0954 17.4926 15.528 17.3806 15.8157C17.2324 16.1972 17.0548 16.4688 16.7685 16.7547C16.4822 17.0408 16.2104 17.2179 15.8285 17.366C15.5405 17.4784 15.1073 17.6112 14.3098 17.6477C13.4475 17.6868 13.1885 17.6953 11.0045 17.6953C8.82031 17.6953 8.56146 17.6868 7.69917 17.6477C6.90165 17.6109 6.46881 17.4777 6.1803 17.3658C5.79857 17.2177 5.52591 17.0406 5.23962 16.7545C4.95333 16.4684 4.77611 16.1967 4.6275 15.8151C4.51554 15.5273 4.38211 15.0947 4.34581 14.2978C4.30662 13.4362 4.29878 13.1773 4.29878 10.9946C4.29878 8.81191 4.30662 8.55443 4.34581 7.69279C4.38228 6.89585 4.51554 6.46333 4.6275 6.17521C4.77576 5.79377 4.95333 5.52131 5.23962 5.23523C5.52591 4.94915 5.79857 4.77206 6.1803 4.62357C6.46863 4.51117 6.90165 4.37836 7.69917 4.34174C8.45376 4.30768 8.74618 4.29747 10.2707 4.29576L10.2707 4.29781ZM15.3708 5.65498C14.8289 5.65498 14.3892 6.09381 14.3892 6.63548C14.3892 7.17699 14.8289 7.61633 15.3708 7.61633C15.9127 7.61633 16.3523 7.17699 16.3523 6.63548C16.3523 6.09398 15.9127 5.65498 15.3708 5.65498ZM11.0045 6.801C8.68466 6.801 6.80383 8.68044 6.80383 10.9985C6.80383 13.3166 8.68466 15.1952 11.0045 15.1952C13.3243 15.1952 15.2044 13.3166 15.2044 10.9985C15.2044 8.68044 13.3243 6.801 11.0045 6.801ZM11.0045 8.27397C12.5102 8.27397 13.7311 9.49373 13.7311 10.9985C13.7311 12.5032 12.5102 13.7231 11.0045 13.7231C9.49856 13.7231 8.27789 12.5032 8.27789 10.9985C8.27789 9.49373 9.49856 8.27397 11.0045 8.27397Z" fill="white"/>
</g>
<defs>
<radialGradient id="paint0_radial_0_240" cx="0" cy="0" r="1" gradientTransform="matrix(-13.529 3.8155 -2.74892 -9.74699 21.2896 10.3117)" gradientUnits="userSpaceOnUse">
<stop stop-color="#FF005F"/>
<stop offset="1" stop-color="#FC01D8"/>
</radialGradient>
<radialGradient id="paint1_radial_0_240" cx="0" cy="0" r="1" gradientUnits="userSpaceOnUse" gradientTransform="translate(5.84358 23.6944) rotate(-90) scale(17.5608 18.6317)">
<stop stop-color="#FFCC00"/>
<stop offset="0.1242" stop-color="#FFCC00"/>
<stop offset="0.5672" stop-color="#FE4A05"/>
<stop offset="0.6942" stop-color="#FF0F3F"/>
<stop offset="1" stop-color="#FE0657" stop-opacity="0"/>
</radialGradient>
<radialGradient id="paint2_radial_0_240" cx="0" cy="0" r="1" gradientTransform="matrix(3.645 -6.28045 8.17643 4.7454 11.5559 21.6897)" gradientUnits="userSpaceOnUse">
<stop stop-color="#FFCC00"/>
<stop offset="1" stop-color="#FFCC00" stop-opacity="0"/>
</radialGradient>
<radialGradient id="paint3_radial_0_240" cx="0" cy="0" r="1" gradientTransform="matrix(-13.3805 3.76772 -1.28333 -4.55881 2.98493 0.895834)" gradientUnits="userSpaceOnUse">
<stop stop-color="#780CFF"/>
<stop offset="1" stop-color="#820BFF" stop-opacity="0"/>
</radialGradient>
</defs>
</svg>
