<svg width="24" height="24" viewBox="0 0 22.0004 12.4945" fill="none" xmlns="http://www.w3.org/2000/svg">
<path fill-rule="evenodd" clip-rule="evenodd" d="M12.4093 6.24734C12.4093 9.69755 9.63135 12.4945 6.20476 12.4945C2.77817 12.4945 0 9.69755 0 6.24734C0 2.79714 2.77795 0 6.20476 0C9.63156 0 12.4093 2.79714 12.4093 6.24734ZM19.2165 6.24731C19.2165 9.49493 17.8275 12.1287 16.1141 12.1287C14.4007 12.1287 13.0117 9.49493 13.0117 6.24731C13.0117 2.99968 14.4005 0.365918 16.1139 0.365918C17.8273 0.365918 19.2163 2.99884 19.2163 6.24731H19.2165ZM20.9093 11.5161C21.5119 11.5161 22.0004 9.15634 22.0004 6.24726C22.0004 3.33735 21.5117 0.978467 20.9093 0.978467C20.3068 0.978467 19.8184 3.33756 19.8184 6.24726C19.8184 9.15697 20.3066 11.5161 20.9093 11.5161Z" fill="currentColor"/>
</svg>
