<svg width="24" height="24" viewBox="0 0 22 21.9989" fill="none" xmlns="http://www.w3.org/2000/svg">
<path d="M11.0244 0C4.81339 0 0 4.53927 0 10.6704C0 13.8773 1.31778 16.6486 3.46278 18.5629C3.83315 18.896 3.75685 19.089 3.81984 21.1457C3.8248 21.2898 3.86493 21.4305 3.93674 21.5554C4.00854 21.6804 4.10984 21.786 4.23179 21.8628C4.35375 21.9397 4.49265 21.9855 4.63639 21.9964C4.78013 22.0072 4.92435 21.9827 5.05645 21.925C7.40327 20.8916 7.43343 20.81 7.83129 20.9182C14.6304 22.7895 22 18.4383 22 10.6704C22 4.53927 17.2358 0 11.0244 0ZM17.6439 8.21141L14.406 13.3375C14.2837 13.5303 14.123 13.6957 13.9338 13.8234C13.7446 13.9511 13.5311 14.0384 13.3066 14.0798C13.0821 14.1211 12.8515 14.1156 12.6292 14.0637C12.4069 14.0118 12.1978 13.9145 12.0148 13.7779L9.43871 11.8498C9.32354 11.7635 9.18347 11.7168 9.03952 11.7168C8.89556 11.7168 8.75549 11.7635 8.64032 11.8498L5.16423 14.4863C4.70028 14.838 4.09262 14.2823 4.40532 13.7912L7.64323 8.66516C7.76545 8.47235 7.9262 8.30688 8.11538 8.17912C8.30457 8.05135 8.51811 7.96406 8.74262 7.9227C8.96712 7.88135 9.19776 7.88683 9.42005 7.9388C9.64234 7.99077 9.85149 8.08811 10.0344 8.22472L12.6096 10.1524C12.7248 10.2388 12.8649 10.2854 13.0088 10.2854C13.1528 10.2854 13.2929 10.2388 13.408 10.1524L16.8859 7.51859C17.349 7.16464 17.9566 7.71996 17.6439 8.21141V8.21141Z" fill="currentColor"/>
</svg>
