<svg width="24" height="24" viewBox="0 0 21.9999 13.0652" fill="none" xmlns="http://www.w3.org/2000/svg">
<path d="M19.3154 7.86399C20.798 7.86419 21.9999 9.02845 21.9999 10.4646C21.9998 11.9006 20.7979 13.065 19.3154 13.0652C17.8326 13.0652 16.63 11.9007 16.6298 10.4646C16.6298 9.02833 17.8325 7.86399 19.3154 7.86399ZM15.9433 0.000712279C16.9265 0.0233421 17.8185 0.578607 18.2675 1.447C18.7165 2.31559 18.6499 3.35893 18.0947 4.16477L13.2685 11.8142C12.7788 12.5906 11.921 13.0626 10.998 13.0632C10.023 13.0623 9.12511 12.5359 8.65324 11.6892C8.18158 10.8426 8.21016 9.80893 8.72746 8.98899L13.5536 1.33958C14.0426 0.492497 14.9599 -0.0218381 15.9433 0.000712279ZM7.61907 0.0300092C8.59354 0.0565223 9.47751 0.605944 9.92668 1.46458C10.3756 2.32304 10.3198 3.35578 9.78117 4.16185L4.95598 11.8113C4.46525 12.5895 3.60467 13.0616 2.67961 13.0603C1.70468 13.0594 0.806765 12.5339 0.334886 11.6872C-0.136981 10.8405 -0.108343 9.80612 0.409105 8.98606L5.23625 1.33665C5.7321 0.50381 6.6447 0.00360249 7.61907 0.0300092Z" fill="currentColor"/>
</svg>
