<svg width="24" height="24" viewBox="0 0 22 22" fill="none" xmlns="http://www.w3.org/2000/svg">
<path id="Vector-color" d="M6.91166 21.2115C6.78944 19.9593 6.86888 18.759 7.14999 17.6106L8.24999 12.8643C8.04827 12.2518 7.94011 11.6124 7.92916 10.9677C7.92916 9.42835 8.67165 8.32883 9.84499 8.32883C10.6517 8.32883 11.2475 8.89692 11.2475 9.97811C11.2475 10.3263 11.1772 10.7172 11.0366 11.1509L10.56 12.7269C10.4683 13.0323 10.4225 13.3133 10.4225 13.5699C10.4225 14.6694 11.2566 15.2833 12.3291 15.2833C14.245 15.2833 15.6016 13.3041 15.6016 10.7386C15.6016 7.87986 13.7316 6.04734 10.9725 6.04734C7.89249 6.04734 5.93999 8.05396 5.93999 10.8486C5.93999 11.9664 6.28833 13.0109 6.95749 13.7256C6.73749 14.1013 6.49916 14.1654 6.15083 14.1654C5.05083 14.1654 4.00583 12.6169 4.00583 10.5004C4.00583 6.83532 6.93916 3.93077 11.0458 3.93077C15.3541 3.93077 18.0675 6.94528 18.0675 10.647C18.0675 14.3487 15.4275 17.1983 12.5858 17.1983C12.045 17.2054 11.51 17.0866 11.0232 16.8512C10.5363 16.6158 10.111 16.2704 9.78082 15.8422L9.21249 18.1329C8.92788 19.3353 8.42452 20.4751 7.72749 21.4955C9.37444 22.0126 11.1201 22.1343 12.823 21.8508C14.5258 21.5672 16.1377 20.8864 17.528 19.8636C18.9183 18.8407 20.0478 17.5046 20.8247 15.9638C21.6017 14.4229 22.0044 12.7207 22 10.9952C22 8.07906 20.841 5.2824 18.7781 3.22041C16.7152 1.15842 13.9174 0 11 0C8.08261 0 5.28472 1.15842 3.22182 3.22041C1.15893 5.2824 3.52425e-06 8.07906 3.52425e-06 10.9952C-0.00175662 13.1936 0.655836 15.3421 1.88788 17.1632C3.11991 18.9843 4.86982 20.3944 6.91166 21.2115Z" fill="#E60023"/>
</svg>
