<svg width="24" height="24" viewBox="0 0 16.5823 20" fill="none" xmlns="http://www.w3.org/2000/svg">
<path d="M16.5823 7.27997C16.5823 11.6039 13.7905 14.5611 9.79853 14.5611C7.90082 14.5611 6.33673 13.7797 5.75122 12.8031L5.77885 13.8074V20H1.70383V3.98795C1.70383 3.76519 1.64841 3.70855 1.39655 3.70855H0V0.305799H3.40635C4.96917 0.305799 5.36078 1.64475 5.4716 2.23118C6.0862 1.19928 7.70439 4.06115e-07 9.9937 4.06115e-07C13.9303 -0.00125907 16.5823 2.92708 16.5823 7.27997ZM12.4229 7.3076C12.4229 4.99212 10.9156 3.40276 9.01658 3.40276C7.45376 3.40276 5.69449 4.43463 5.69449 7.3366C5.69449 9.23304 6.7549 11.2137 8.96113 11.2137C10.5806 11.2125 12.4229 10.041 12.4229 7.3076Z" fill="currentColor"/>
</svg>
