<svg width="24" height="24" viewBox="0 0 22 19.2428" fill="none" xmlns="http://www.w3.org/2000/svg">
<path d="M18.7907 6.40351C18.0552 6.40351 17.3777 6.65154 16.8366 7.06813C15.3635 6.15656 13.5039 5.58321 11.4692 5.50698C11.4692 5.50376 11.4692 5.50161 11.4692 5.49839C11.4692 4.1348 12.4828 3.00312 13.797 2.81737C14.0353 3.82772 14.9426 4.58038 16.026 4.58038C17.2908 4.58038 18.3162 3.555 18.3162 2.29019C18.3162 1.02538 17.2908 0 16.026 0C14.9201 0 13.9978 0.783797 13.783 1.82635C11.9309 2.02499 10.4846 3.5958 10.4846 5.49946C10.4846 5.50376 10.4846 5.50698 10.4846 5.51127C8.47038 5.5961 6.63114 6.16945 5.17091 7.07457C4.6287 6.65476 3.94797 6.40459 3.20927 6.40459C1.4366 6.40459 0 7.84119 0 9.61386C0 10.9001 0.755881 12.0082 1.84783 12.5204C1.95412 16.2461 6.01376 19.2428 11.0075 19.2428C16.0013 19.2428 20.0663 16.2429 20.1672 12.5139C21.2506 11.9985 22 10.8937 22 9.61493C22 7.84226 20.5634 6.40566 18.7907 6.40566V6.40351Z" fill="#FF4500"/>
</svg>
