<svg width="24" height="24" viewBox="0 0 20 20" fill="none" xmlns="http://www.w3.org/2000/svg">
<path d="M10 0C15.5227 0 20 4.47734 20 10C20 15.5227 15.5227 20 10 20H1.44824C0.913997 19.9998 0.646335 19.3537 1.02441 18.9756L2.92871 17.0713C1.11934 15.2619 0 12.7617 0 10C0 4.47734 4.47734 0 10 0ZM13.6562 2.66406C12.8516 2.66406 12.1807 3.23457 12.0244 3.99316C10.6768 4.1377 9.62402 5.28086 9.62402 6.66602V6.67383C8.1585 6.73554 6.82028 7.15301 5.75781 7.81152C5.36328 7.50605 4.86758 7.32422 4.33008 7.32422C3.04039 7.32432 1.99522 8.36949 1.99512 9.65918C1.99512 10.5951 2.54531 11.4018 3.33984 11.7744C3.41733 14.4853 6.37138 16.666 10.0049 16.666C13.6383 16.6659 16.5955 14.4827 16.6689 11.7695C17.4572 11.3945 18.0029 10.5906 18.0029 9.66016C18.0029 8.37038 16.9577 7.3253 15.668 7.3252C15.1329 7.3252 14.6398 7.50553 14.2461 7.80859C13.1743 7.14537 11.8211 6.72838 10.3408 6.67285V6.66602C10.341 5.67401 11.0781 4.85097 12.0342 4.71582L12.0723 4.84961C12.2906 5.51554 12.9172 5.99707 13.6562 5.99707C14.5765 5.99697 15.3223 5.25033 15.3223 4.33008C15.3221 3.41001 14.5763 2.66417 13.6562 2.66406ZM10.0049 12.9883C10.8165 12.9883 11.5931 13.0279 12.3125 13.1006C12.4349 13.1132 12.5132 13.2406 12.4658 13.3545C12.0635 14.3161 11.1133 14.992 10.0049 14.9922C8.89629 14.9922 7.94707 14.3162 7.54395 13.3545C7.49636 13.2406 7.57385 13.1133 7.69629 13.1006C8.41504 13.0279 9.19316 12.9883 10.0049 12.9883ZM6.91895 9.64453C7.57275 9.64453 8.07307 10.331 8.03418 11.1777C7.99512 12.0244 7.50703 12.3329 6.85254 12.333C6.1979 12.333 5.62509 11.9883 5.66406 11.1416C5.70312 10.2949 6.26521 9.64479 6.91895 9.64453ZM13.0908 9.64453C13.7453 9.64479 14.3074 10.2949 14.3457 11.1416C14.3847 11.9883 13.8111 12.333 13.1572 12.333C12.5035 12.3329 12.0146 12.0252 11.9756 11.1777C11.9367 10.331 12.4362 9.64453 13.0908 9.64453Z" fill="currentColor"/>
</svg>
