<svg width="24" height="24" viewBox="0 0 16 16.0008" fill="none" xmlns="http://www.w3.org/2000/svg">
<g id="Vector-color">
<path d="M10.6667 16.0007H7.33333C7.33492 15.0373 7.14609 14.0832 6.77769 13.1931C6.40929 12.3029 5.86859 11.4944 5.18666 10.814C4.50546 10.1331 3.69679 9.59307 2.80686 9.22474C1.91692 8.85642 0.963147 8.667 0 8.66732V5.33399C1.40104 5.33249 2.78859 5.60762 4.08306 6.1436C5.37752 6.67958 6.55343 7.46585 7.54333 8.45732C8.53524 9.44689 9.32181 10.6227 9.85782 11.9173C10.3938 13.2118 10.6687 14.5995 10.6667 16.0007Z" fill="url(#paint0_linear_0_211)"/>
<path d="M4.66672 13.6841C4.6623 14.3029 4.41223 14.8947 3.97152 15.3291C3.53081 15.7636 2.93556 16.0052 2.31673 16.0008C1.69789 15.9963 1.10615 15.7463 0.671692 15.3055C0.237233 14.8648 -0.00436067 14.2696 5.96048e-05 13.6508C0.0103452 13.0359 0.262954 12.4499 0.702959 12.0203C1.14296 11.5907 1.73478 11.3521 2.34973 11.3565C2.96468 11.3609 3.55303 11.6079 3.98686 12.0437C4.42068 12.4796 4.66522 13.0691 4.66672 13.6841Z" fill="url(#paint1_linear_0_211)"/>
<path d="M16 16H12.677C12.6796 14.3373 12.3544 12.6903 11.7198 11.1535C11.0853 9.61656 10.1539 8.21988 8.979 7.04334C7.80903 5.86663 6.41783 4.93303 4.8855 4.2963C3.35318 3.65957 1.71002 3.3323 0.0506666 3.33334H0V7.6233e-06H0.0506666C2.14675 -0.00204652 4.22248 0.411045 6.15807 1.21544C8.09365 2.01984 9.85077 3.19961 11.328 4.68667C12.8127 6.17233 13.9897 7.9364 14.7914 9.87776C15.5931 11.8191 16.0038 13.8996 16 16Z" fill="url(#paint2_linear_0_211)"/>
</g>
<defs>
<linearGradient id="paint0_linear_0_211" x1="1.125" y1="8.00041" x2="17.125" y2="8.00041" gradientUnits="userSpaceOnUse">
<stop stop-color="#F8B700"/>
<stop offset="0.51" stop-color="#F87900"/>
<stop offset="1" stop-color="#AE35DD"/>
</linearGradient>
<linearGradient id="paint1_linear_0_211" x1="0.0013472" y1="8.01921" x2="20.8171" y2="8.01921" gradientUnits="userSpaceOnUse">
<stop stop-color="#FE4F45"/>
<stop offset="0.52" stop-color="#F87900"/>
<stop offset="1" stop-color="#F8B700"/>
</linearGradient>
<linearGradient id="paint2_linear_0_211" x1="0" y1="8" x2="16" y2="8" gradientUnits="userSpaceOnUse">
<stop stop-color="#FE4F45"/>
<stop offset="0.52" stop-color="#F87900"/>
<stop offset="1" stop-color="#F8B700"/>
</linearGradient>
</defs>
</svg>
