<svg width="24" height="24" viewBox="0 0 22 15.2185" fill="none" xmlns="http://www.w3.org/2000/svg">
<g>
<path d="M14.1829 6.63977C14.2633 6.75866 14.3037 6.9282 14.3037 7.14388C14.3037 7.35931 14.2628 7.53005 14.1829 7.64989C14.1035 7.76902 13.9832 7.82704 13.8158 7.82704C13.6483 7.82704 13.529 7.76926 13.451 7.64989C13.3718 7.53005 13.3317 7.35931 13.3317 7.14388C13.3317 6.9282 13.3718 6.75866 13.4505 6.63977C13.529 6.52182 13.6483 6.46475 13.8158 6.46475C13.9832 6.46475 14.1035 6.52182 14.1829 6.63977Z" fill="currentColor"/>
<path d="M19.3425 6.937H18.433C18.4511 6.81716 18.484 6.71776 18.5355 6.63977C18.6142 6.52182 18.7331 6.45691 18.9005 6.45691C19.0678 6.45691 19.178 6.52182 19.2578 6.63977C19.3103 6.71776 19.3331 6.82144 19.3425 6.937Z" fill="currentColor"/>
<path d="M9.13016 6.937H8.22018C8.23871 6.81716 8.27143 6.71776 8.3234 6.63977C8.4016 6.52182 8.5207 6.45691 8.68817 6.45691C8.85539 6.45691 8.96607 6.52182 9.04547 6.63977C9.09768 6.71776 9.12054 6.82144 9.13016 6.937Z" fill="currentColor"/>
<path d="M5.83792 7.83584C5.57831 7.85153 5.4633 7.76213 5.46402 7.76236C5.41397 7.72265 5.407 7.71314 5.39087 7.6877C5.36513 7.64918 5.35238 7.59401 5.35238 7.52339C5.35238 7.41305 5.38967 7.33339 5.46618 7.27965C5.46546 7.27989 5.57614 7.18549 5.83576 7.18858C6.01886 7.1912 6.18199 7.21759 6.18199 7.21759V7.79066C6.18199 7.79066 6.0203 7.8249 5.83792 7.83584Z" fill="currentColor"/>
<path fill-rule="evenodd" clip-rule="evenodd" d="M11.945 0.476055C10.8526 0.476055 9.86446 0.929517 9.15514 1.65977C8.75655 1.14311 8.24252 0.72448 7.65319 0.436567C7.06385 0.148654 6.41517 -0.000755148 5.75776 2.86994e-06C3.39788 2.86994e-06 1.4848 1.88804 1.4848 4.21742C1.48409 4.79437 1.60367 5.36528 1.83609 5.89454C1.27587 6.21919 0.811533 6.68329 0.489375 7.24057C0.167217 7.79786 -0.0015113 8.42886 1.01996e-05 9.07068C1.01996e-05 11.0959 1.64408 12.7376 3.67217 12.7374C3.92581 12.7374 4.17878 12.7114 4.42696 12.6596C4.98396 14.1532 6.43579 15.2185 8.13882 15.2185C9.77423 15.2185 11.1777 14.2369 11.7802 12.8363C12.2381 13.0577 12.7527 13.1813 13.2967 13.1813C14.5963 13.1813 15.729 12.4737 16.3231 11.4267C16.6251 11.4868 16.9374 11.5185 17.2576 11.5185C19.8769 11.5185 22 9.40168 22 6.79005C22 4.17842 19.8769 2.06163 17.2576 2.06163C16.5965 2.06084 15.9427 2.1982 15.339 2.46468C14.6643 1.27645 13.3971 0.476055 11.945 0.476055ZM3.27593 7.64799L3.18691 7.8922C3.17559 7.92163 3.18631 7.9318 3.19293 7.93792C3.19433 7.93922 3.19553 7.94034 3.19629 7.94142C3.22722 7.96364 3.25843 7.98094 3.2899 7.99839C3.30053 8.00429 3.31119 8.0102 3.32189 8.01632C3.54613 8.13403 3.75811 8.16779 3.97971 8.16779C4.43085 8.16779 4.7114 7.93072 4.7114 7.54907V7.5417C4.7114 7.18858 4.39476 7.06018 4.09809 6.96744L4.05959 6.95555C3.83596 6.88354 3.64286 6.82137 3.64286 6.67615V6.6683C3.64286 6.5437 3.75546 6.45191 3.93062 6.45191C4.13042 6.45622 4.32653 6.50593 4.50375 6.5972C4.50375 6.5972 4.54778 6.62478 4.5639 6.58317L4.65534 6.33896C4.664 6.31566 4.64908 6.29806 4.63368 6.28855C4.46381 6.18678 4.22946 6.11711 3.98693 6.11711L3.94169 6.11758C3.52881 6.11758 3.24032 6.36417 3.24032 6.71752V6.72513C3.24032 7.09751 3.55864 7.21854 3.85628 7.30224L3.9044 7.31746C4.12119 7.38309 4.30886 7.44016 4.30886 7.59092V7.59805C4.30886 7.73668 4.18711 7.83941 3.99078 7.83941C3.91499 7.83941 3.67197 7.83774 3.40971 7.67391C3.3923 7.66382 3.37909 7.65535 3.36668 7.64738C3.35627 7.64071 3.34642 7.63439 3.33512 7.62778C3.32213 7.61993 3.29013 7.60614 3.27593 7.64799ZM9.88254 7.64799L9.79328 7.8922C9.78176 7.92165 9.79271 7.93181 9.79931 7.93793C9.80071 7.93923 9.80191 7.94034 9.80266 7.94142C9.83366 7.96355 9.86479 7.98081 9.89616 7.9982C9.90691 8.00416 9.91769 8.01013 9.9285 8.01632C10.1525 8.13403 10.3645 8.16779 10.5863 8.16779C11.0375 8.16779 11.3178 7.93072 11.3178 7.54907V7.5417C11.3178 7.18858 11.0014 7.06018 10.7047 6.96744L10.6662 6.95555C10.4422 6.8835 10.2495 6.82144 10.2495 6.67615V6.6683C10.2495 6.5437 10.3621 6.45191 10.5372 6.45191C10.7371 6.45618 10.9333 6.5059 11.1106 6.5972C11.1106 6.5972 11.1542 6.62478 11.1708 6.58317C11.1787 6.56034 11.2538 6.3606 11.2622 6.33896C11.2706 6.31566 11.2555 6.29806 11.2405 6.28855C11.0704 6.18678 10.8358 6.11711 10.5933 6.11711L10.5483 6.11758C10.1354 6.11758 9.84669 6.36417 9.84669 6.71752V6.72513C9.84669 7.09751 10.165 7.21854 10.4631 7.30224L10.5113 7.31746C10.728 7.38309 10.9155 7.44016 10.9155 7.59092V7.59805C10.9155 7.73668 10.7935 7.83941 10.5979 7.83941C10.5214 7.83941 10.2788 7.83774 10.0161 7.67391C9.99636 7.66239 9.98184 7.65317 9.96779 7.64424C9.9592 7.63879 9.9508 7.63346 9.94149 7.62778C9.93331 7.62278 9.89554 7.60804 9.88254 7.64799ZM14.7354 7.14388C14.7354 7.00144 14.7171 6.86662 14.68 6.74392C14.6435 6.62027 14.5857 6.51136 14.5092 6.42052C14.4322 6.32921 14.3345 6.25621 14.2195 6.20319C14.1043 6.14992 13.9688 6.12305 13.8158 6.12305C13.6627 6.12305 13.5273 6.14992 13.412 6.20319C13.3003 6.25349 13.2012 6.32773 13.1221 6.42052C13.0458 6.51136 12.9883 6.62027 12.9513 6.74392C12.9144 6.86662 12.8959 7.0012 12.8959 7.14388C12.8948 7.27913 12.9134 7.41384 12.9513 7.54384C12.9854 7.66203 13.0436 7.77208 13.1223 7.86723C13.2013 7.95964 13.3003 8.03328 13.412 8.08267C13.527 8.13498 13.6632 8.16114 13.8158 8.16114C13.9683 8.16114 14.104 8.13498 14.2195 8.08267C14.3312 8.03328 14.4302 7.95964 14.5092 7.86723C14.588 7.77207 14.6461 7.66191 14.68 7.5436C14.7171 7.4209 14.7354 7.28655 14.7354 7.14388ZM17.8662 8.02179L17.7738 7.76926C17.761 7.73312 17.7256 7.7462 17.7256 7.7462C17.6708 7.76736 17.6126 7.78638 17.5505 7.79613C17.4877 7.80588 17.4179 7.81064 17.344 7.81064C17.1617 7.81064 17.0168 7.75713 16.9131 7.65132C16.8092 7.54526 16.7505 7.37382 16.7512 7.14245C16.7519 6.93153 16.8036 6.77293 16.896 6.65189C16.9875 6.53181 17.1275 6.47046 17.314 6.47046C17.4692 6.47046 17.588 6.48806 17.7119 6.52658C17.7119 6.52658 17.7413 6.53942 17.7557 6.5009C17.7677 6.46802 17.7786 6.43855 17.7892 6.40957C17.8079 6.35891 17.8259 6.30978 17.8486 6.2467C17.8587 6.21793 17.8339 6.20604 17.825 6.20271C17.7762 6.18393 17.6604 6.15301 17.5736 6.1397C17.4923 6.12781 17.3975 6.12139 17.2909 6.12139C17.133 6.12139 16.9915 6.14802 16.8712 6.20105C16.7553 6.25083 16.6518 6.325 16.5678 6.41838C16.487 6.50922 16.4256 6.61813 16.3847 6.74178C16.3438 6.86424 16.3229 6.99954 16.3229 7.14245C16.3229 7.45134 16.4076 7.7003 16.5736 7.8834C16.7406 8.06697 16.9908 8.15995 17.3176 8.15995C17.5103 8.15995 17.7083 8.12095 17.851 8.06626C17.851 8.06626 17.8782 8.0527 17.8662 8.02179ZM19.7395 7.21155C19.7449 7.17348 19.7782 6.94076 19.701 6.67377C19.669 6.55464 19.5899 6.43384 19.5379 6.37867C19.4556 6.29117 19.3753 6.23006 19.2954 6.19629C19.1917 6.15206 19.067 6.12305 18.9306 6.12305C18.7713 6.12305 18.6265 6.14968 18.5095 6.20414C18.3962 6.25532 18.2958 6.33087 18.2158 6.42528C18.1385 6.51778 18.0805 6.62788 18.0432 6.75272C18.006 6.8766 17.9874 7.01214 17.9874 7.15482C17.9861 7.29102 18.0055 7.42665 18.0449 7.55715C18.0816 7.67626 18.1448 7.78572 18.23 7.87745C18.3191 7.97095 18.4288 8.04281 18.5507 8.08742C18.6789 8.13664 18.8346 8.16185 19.0134 8.16114C19.382 8.16018 19.5757 8.07886 19.6556 8.03535C19.6698 8.0275 19.6832 8.01395 19.6664 7.97519L19.5834 7.74429C19.5701 7.71005 19.5353 7.72242 19.5353 7.72242C19.527 7.72542 19.5185 7.72864 19.5096 7.73201C19.419 7.76624 19.2872 7.81604 19.0117 7.81539C18.8137 7.81515 18.6674 7.75737 18.5752 7.66725C18.4814 7.57522 18.435 7.43969 18.427 7.24827L19.702 7.24922C19.702 7.24922 19.7357 7.24874 19.7388 7.2164C19.7389 7.21559 19.7391 7.21396 19.7395 7.21155ZM9.52732 7.21171C9.53262 7.17413 9.56546 6.94113 9.48843 6.67377C9.45667 6.55464 9.37751 6.43384 9.32554 6.37867C9.24349 6.29117 9.16313 6.23006 9.08324 6.19629C8.96777 6.14768 8.84351 6.12276 8.718 6.12305C8.5592 6.12305 8.41435 6.14968 8.29694 6.20414C8.1837 6.25541 8.08343 6.33095 8.0034 6.42528C7.92407 6.5218 7.86531 6.63318 7.83064 6.75272C7.79359 6.8766 7.77482 7.01214 7.77482 7.15482C7.7735 7.29105 7.79305 7.4267 7.83281 7.55715C7.86937 7.67619 7.93243 7.78563 8.01735 7.87745C8.10658 7.9709 8.21642 8.04275 8.33832 8.08742C8.46633 8.13664 8.622 8.16185 8.80101 8.16114C9.16914 8.16018 9.36307 8.07886 9.44344 8.03535C9.45739 8.0275 9.47086 8.01395 9.45402 7.97519L9.37077 7.74429C9.35778 7.71005 9.32289 7.72242 9.32289 7.72242C9.31486 7.72536 9.30654 7.72851 9.29783 7.7318C9.20735 7.76604 9.0752 7.81604 8.79909 7.81539C8.60107 7.81515 8.45502 7.75737 8.36286 7.66725C8.26879 7.57522 8.22259 7.43969 8.21441 7.24827L9.48963 7.24922C9.48963 7.24922 9.52332 7.24874 9.52669 7.2164C9.52677 7.21561 9.52699 7.21403 9.52732 7.21171ZM6.18175 6.90133C6.07204 6.88564 5.97146 6.87684 5.97146 6.87684C5.91949 6.8728 5.8526 6.87113 5.77248 6.87113C5.66324 6.87113 5.55762 6.88469 5.45824 6.91084C5.36296 6.93548 5.27291 6.97679 5.19237 7.03283C5.11442 7.08776 5.05234 7.15791 5.0071 7.24066C4.96211 7.32388 4.93877 7.42161 4.93877 7.53123C4.93877 7.643 4.9585 7.73977 4.99772 7.81896C5.03558 7.89731 5.09265 7.96507 5.16374 8.01608C5.24175 8.0702 5.33008 8.10806 5.42336 8.12737C5.52345 8.14996 5.63702 8.16137 5.76093 8.16137C5.89073 8.16137 6.0203 8.15071 6.14831 8.12951C6.27367 8.10858 6.42717 8.07767 6.46976 8.06792C6.51187 8.05817 6.55879 8.04533 6.55879 8.04533C6.59079 8.03772 6.58814 8.00443 6.58814 8.00443L6.58742 6.85163C6.58742 6.5991 6.51909 6.41173 6.38483 6.29545C6.25081 6.17965 6.05375 6.12115 5.79919 6.12115C5.68455 6.12227 5.5702 6.13269 5.45728 6.1523C5.45728 6.1523 5.17914 6.2058 5.06437 6.29426C5.06437 6.29426 5.03911 6.30995 5.05306 6.34443L5.14329 6.58412C5.15436 6.61527 5.18515 6.60457 5.18515 6.60457C5.18515 6.60457 5.19454 6.60077 5.20585 6.59411C5.45127 6.46238 5.76165 6.46618 5.76165 6.46618C5.89928 6.46618 6.00563 6.494 6.07685 6.54774C6.14638 6.60077 6.18175 6.67995 6.18175 6.84807V6.90133ZM16.1602 6.49186C16.1826 6.43455 16.2445 6.26192 16.2565 6.22744C16.2583 6.22325 16.2592 6.21874 16.2592 6.21418C16.2593 6.20962 16.2584 6.20511 16.2566 6.2009C16.2548 6.19669 16.2522 6.19288 16.2489 6.18968C16.2457 6.18648 16.2418 6.18395 16.2375 6.18226C16.2156 6.17394 16.1071 6.15135 16.0236 6.14635C15.8631 6.13684 15.7743 6.163 15.6949 6.19867C15.6157 6.23386 15.5282 6.29093 15.4793 6.35561V6.202C15.4793 6.18083 15.4639 6.16395 15.4423 6.16395H15.1158C15.0944 6.16395 15.0787 6.18083 15.0787 6.202V8.08171C15.0788 8.08677 15.0798 8.09177 15.0819 8.09642C15.0839 8.10107 15.0868 8.10528 15.0905 8.10881C15.0941 8.11235 15.0985 8.11513 15.1032 8.11701C15.108 8.11889 15.1131 8.11982 15.1182 8.11976H15.4529C15.4579 8.11976 15.463 8.11877 15.4676 8.11684C15.4723 8.11492 15.4766 8.11209 15.4802 8.10853C15.4837 8.10498 15.4866 8.10075 15.4885 8.09611C15.4904 8.09147 15.4914 8.08649 15.4914 8.08148V7.14269C15.4914 7.01666 15.5058 6.89111 15.5337 6.81216C15.5611 6.73369 15.5989 6.67115 15.6456 6.62669C15.6896 6.58335 15.7436 6.55127 15.8029 6.53324C15.8621 6.51516 15.9278 6.50946 15.9738 6.50946C16.0407 6.50946 16.1138 6.5261 16.1138 6.5261C16.1386 6.52872 16.1521 6.51374 16.1602 6.49186ZM13.1353 5.40017C13.1449 5.37164 13.1206 5.35999 13.1117 5.35642C13.0708 5.34406 13.034 5.33573 12.9857 5.3267C12.9363 5.3179 12.8781 5.31362 12.8122 5.31362C12.5817 5.31362 12.4 5.37782 12.2723 5.50504C12.1452 5.63131 12.0593 5.82368 12.016 6.07668L12.0004 6.16181H11.7114C11.7114 6.16181 11.6756 6.16038 11.6681 6.19843L11.6209 6.46047C11.6171 6.48568 11.6286 6.50137 11.6623 6.50137H11.9438L11.658 8.07862C11.6359 8.20536 11.6101 8.30999 11.582 8.38917C11.5538 8.46741 11.5264 8.52567 11.4927 8.5687C11.4605 8.6096 11.4292 8.64028 11.3762 8.65716C11.3322 8.67191 11.2817 8.67856 11.2261 8.67856C11.1951 8.67856 11.1542 8.67333 11.1236 8.66739C11.0935 8.66144 11.0776 8.65526 11.055 8.64575C11.055 8.64575 11.0218 8.63338 11.0088 8.66572C10.9987 8.69259 10.9232 8.89685 10.9145 8.92182C10.9054 8.94703 10.9181 8.96676 10.9338 8.97223C10.9719 8.98579 11.0109 8.99707 11.0505 9.006C11.1214 9.02264 11.1816 9.02383 11.2374 9.02383C11.3546 9.02383 11.4619 9.00742 11.5502 8.97532C11.6411 8.94145 11.7221 8.88571 11.7858 8.81315C11.8603 8.73207 11.9068 8.64717 11.9518 8.5309C12.0017 8.39335 12.0392 8.25171 12.0639 8.10763L12.3509 6.50114H12.771C12.771 6.50114 12.8059 6.50256 12.8136 6.46452L12.8613 6.20247C12.8646 6.17751 12.8538 6.16181 12.8194 6.16181H12.4118C12.4122 6.16035 12.413 6.15541 12.4143 6.14758C12.4208 6.10707 12.4399 5.98927 12.4792 5.87765C12.4986 5.8268 12.5292 5.78083 12.5687 5.74307C12.5984 5.71308 12.6351 5.69071 12.6755 5.67791C12.7159 5.6646 12.7617 5.65818 12.8122 5.65818C12.8699 5.6584 12.9272 5.66722 12.9823 5.68433C13.0239 5.6967 13.0292 5.68481 13.0374 5.66483L13.1353 5.40017ZM7.37854 8.11976C7.40019 8.11976 7.41511 8.10288 7.41511 8.08148V5.39185C7.41511 5.37093 7.40019 5.35381 7.37854 5.35381H7.04024C7.01907 5.35381 7.00415 5.37093 7.00415 5.39161V8.08171C7.00415 8.10264 7.01883 8.11976 7.04048 8.11976H7.37854Z" fill="currentColor"/>
</g>
</svg>
