<svg width="24" height="24" viewBox="0 0 20 19.6983" fill="none" xmlns="http://www.w3.org/2000/svg">
<g>
<path d="M18.581 14.5846C15.4839 13.0853 14.9902 10.7705 14.9683 10.5988C14.9417 10.3908 14.9116 10.2273 15.141 10.0158C15.3623 9.81138 16.3439 9.20381 16.6162 9.01372C17.0664 8.69895 17.2647 8.38469 17.1185 7.99838C17.0163 7.73113 16.7675 7.63046 16.5053 7.63046C16.4227 7.63071 16.3402 7.63997 16.2596 7.65805C15.7649 7.76536 15.2846 8.0132 15.0066 8.08014C14.9732 8.08875 14.9389 8.09338 14.9044 8.09393C14.7562 8.09393 14.7 8.02802 14.7143 7.84968C14.7491 7.30905 14.8226 6.25385 14.7373 5.26814C14.6203 3.91196 14.1829 3.24001 13.6642 2.64572C13.4133 2.35752 12.2483 1.11938 9.99989 1.11938C7.75152 1.11938 6.58799 2.35752 6.33862 2.64215C5.81843 3.23643 5.38153 3.90839 5.26554 5.26456C5.1802 6.25027 5.25685 7.30496 5.28853 7.8461C5.29875 8.01575 5.24663 8.09036 5.09844 8.09036C5.06395 8.08976 5.02965 8.08513 4.99624 8.07656C4.71877 8.00962 4.23844 7.76179 3.7438 7.65448C3.66311 7.63639 3.5807 7.62714 3.49801 7.62689C3.23485 7.62689 2.98702 7.72908 2.88482 7.9948C2.73867 8.38111 2.93592 8.69537 3.38764 9.01014C3.66 9.20023 4.64161 9.80729 4.86287 10.0122C5.0918 10.2238 5.06216 10.3873 5.03559 10.5952C5.01362 10.7695 4.51949 13.0843 1.42287 14.581C1.24146 14.6689 0.932824 14.8549 1.47703 15.1553C2.33141 15.6275 2.90015 15.5769 3.34216 15.8615C3.71723 16.1032 3.49546 16.6245 3.76833 16.8125C4.10354 17.044 5.09435 16.7961 6.37439 17.2187C7.44748 17.5723 8.0995 18.5713 10.0024 18.5713C11.9054 18.5713 12.5763 17.5677 13.6305 17.2187C14.908 16.7961 15.9008 17.044 16.2366 16.8125C16.5089 16.6245 16.2877 16.1032 16.6627 15.8615C17.1047 15.5769 17.673 15.6275 18.5279 15.1553C19.071 14.8585 18.7624 14.6725 18.581 14.5846Z" fill="white"/>
<path d="M19.9285 14.4069C19.7895 14.0288 19.5248 13.8265 19.2233 13.6588C19.1666 13.6256 19.1145 13.5991 19.07 13.5786C18.9801 13.5321 18.8881 13.4872 18.7966 13.4396C17.8569 12.9414 17.1231 12.3129 16.6142 11.5679C16.4697 11.3581 16.3443 11.1358 16.2396 10.9036C16.1962 10.7794 16.1982 10.7089 16.2294 10.6445C16.2603 10.5949 16.3012 10.5523 16.3495 10.5193C16.511 10.4125 16.6776 10.3042 16.7905 10.2311C16.9918 10.1008 17.1512 9.99758 17.254 9.92451C17.6398 9.65471 17.9096 9.36804 18.0782 9.04765C18.1958 8.82629 18.2645 8.58219 18.2794 8.33195C18.2943 8.08172 18.2551 7.8312 18.1645 7.59745C17.9091 6.92498 17.2739 6.5075 16.5043 6.5075C16.342 6.50735 16.1801 6.52448 16.0214 6.5586C15.979 6.5678 15.9366 6.57751 15.8952 6.58824C15.9024 6.12834 15.8922 5.6429 15.8513 5.16512C15.7062 3.48548 15.118 2.60504 14.5048 1.90294C14.1121 1.46297 13.6496 1.09075 13.1359 0.801238C12.2053 0.269805 11.1501 0 9.9999 0C8.84965 0 7.79956 0.269805 6.86802 0.801238C6.353 1.09083 5.88955 1.4638 5.49652 1.90498C4.88332 2.60709 4.29517 3.48906 4.15005 5.16716C4.10917 5.64494 4.09895 6.13294 4.10559 6.59028C4.0642 6.57955 4.0223 6.56984 3.97989 6.56064C3.82119 6.52652 3.65932 6.50939 3.497 6.50954C2.72693 6.50954 2.09075 6.92702 1.83627 7.59949C1.74531 7.83335 1.70576 8.08404 1.72031 8.33454C1.73486 8.58504 1.80316 8.82947 1.92059 9.05122C2.08972 9.37162 2.35953 9.65828 2.74533 9.92809C2.84753 9.99963 3.00747 10.1028 3.2088 10.2347C3.31764 10.3052 3.47656 10.4084 3.63241 10.5116C3.68694 10.5469 3.73329 10.5934 3.76834 10.6481C3.80104 10.715 3.80206 10.7871 3.75352 10.9199C3.65027 11.1473 3.52697 11.365 3.38509 11.5704C2.88738 12.2986 2.17506 12.9159 1.26549 13.41C0.783625 13.6655 0.282852 13.8362 0.0713005 14.411C-0.0881293 14.8449 0.0161133 15.3385 0.421331 15.7544C0.570049 15.9097 0.74254 16.0403 0.932324 16.1413C1.32721 16.3583 1.74712 16.5263 2.18272 16.6415C2.27262 16.6647 2.35796 16.7029 2.43516 16.7544C2.58283 16.8837 2.56188 17.0784 2.75861 17.3636C2.85737 17.5109 2.98285 17.6385 3.12857 17.7396C3.54146 18.0248 4.00544 18.0427 4.49701 18.0616C4.94107 18.0784 5.44439 18.0978 6.01926 18.2874C6.25738 18.3661 6.50471 18.5184 6.79137 18.6962C7.47968 19.1193 8.42195 19.6983 9.99888 19.6983C11.5758 19.6983 12.5247 19.1163 13.2181 18.6916C13.5028 18.5169 13.7485 18.3661 13.98 18.2895C14.5549 18.0994 15.0582 18.0805 15.5023 18.0636C15.9938 18.0447 16.4578 18.0268 16.8707 17.7417C17.0433 17.6213 17.1871 17.4643 17.2918 17.2818C17.4333 17.0411 17.4297 16.873 17.5626 16.7555C17.635 16.7064 17.7152 16.6697 17.7997 16.6471C18.2413 16.5315 18.6669 16.362 19.067 16.1423C19.2686 16.0341 19.4501 15.892 19.6035 15.7222L19.6086 15.7161C19.9888 15.3094 20.0844 14.83 19.9285 14.4069ZM18.5268 15.1601C17.672 15.6323 17.1037 15.5817 16.6617 15.8663C16.2861 16.108 16.5084 16.6293 16.2355 16.8173C15.9003 17.0488 14.9095 16.8009 13.6295 17.2235C12.5738 17.5725 11.9003 18.5761 10.0014 18.5761C8.10258 18.5761 7.44493 17.5746 6.37185 17.221C5.09436 16.7984 4.1015 17.0462 3.76578 16.8147C3.49342 16.6267 3.71468 16.1055 3.33961 15.8638C2.89709 15.5792 2.32887 15.6298 1.47449 15.1601C0.93028 14.8597 1.23892 14.6737 1.42032 14.5858C4.51694 13.0865 5.01107 10.7717 5.03304 10.6C5.05962 10.3921 5.08925 10.2286 4.86033 10.017C4.63907 9.8126 3.65745 9.20503 3.38509 9.01494C2.9344 8.70017 2.73613 8.38591 2.88227 7.9996C2.98447 7.73235 3.23384 7.63169 3.49547 7.63169C3.57815 7.63194 3.66057 7.64119 3.74125 7.65928C4.2359 7.76659 4.71623 8.01442 4.9937 8.08136C5.02711 8.08993 5.06141 8.09457 5.0959 8.09516C5.24408 8.09516 5.29621 8.02055 5.28599 7.8509C5.25431 7.30976 5.17766 6.25507 5.26299 5.26936C5.38001 3.91319 5.81691 3.24123 6.33608 2.64695C6.58544 2.3613 7.75715 1.12316 9.99786 1.12316C12.2386 1.12316 13.4133 2.35619 13.6627 2.64081C14.1824 3.2351 14.6198 3.90706 14.7358 5.26323C14.8211 6.24894 14.7475 7.30414 14.7128 7.84477C14.701 8.0231 14.7547 8.08902 14.9029 8.08902C14.9374 8.08847 14.9717 8.08384 15.0051 8.07523C15.2831 8.00829 15.7634 7.76045 16.258 7.65315C16.3387 7.63506 16.4211 7.62581 16.5038 7.62555C16.767 7.62555 17.0148 7.72775 17.117 7.99347C17.2632 8.37978 17.0659 8.69404 16.6147 9.00881C16.3423 9.1989 15.3607 9.80596 15.1395 10.0109C14.91 10.2224 14.9402 10.3859 14.9668 10.5939C14.9887 10.7682 15.4823 13.083 18.5795 14.5797C18.7624 14.6711 19.0711 14.8571 18.5268 15.1601Z" fill="currentColor"/>
</g>
</svg>
