<svg width="24" height="24" viewBox="0 0 20 20" fill="none" xmlns="http://www.w3.org/2000/svg">
<g id="Vector-color">
<path fill-rule="evenodd" clip-rule="evenodd" d="M3 0C1.34315 0 0 1.34315 0 3V17C0 18.6569 1.34315 20 3 20H17C18.6569 20 20 18.6569 20 17V3C20 1.34315 18.6569 0 17 0H3Z" fill="#FFFC00"/>
<path d="M16.8648 13.695C14.3871 12.4956 13.9922 10.6438 13.9746 10.5064C13.9534 10.34 13.9292 10.2092 14.1128 10.04C14.2898 9.87645 15.0751 9.39039 15.293 9.23832C15.6531 8.9865 15.8117 8.73509 15.6948 8.42605C15.6131 8.21225 15.414 8.13171 15.2043 8.13171C15.1381 8.13192 15.0722 8.13932 15.0076 8.15379C14.6119 8.23963 14.2277 8.4379 14.0053 8.49145C13.9786 8.49834 13.9511 8.50205 13.9235 8.50249C13.805 8.50249 13.76 8.44976 13.7715 8.30709C13.7992 7.87458 13.8581 7.03042 13.7898 6.24186C13.6962 5.15691 13.3463 4.61935 12.9314 4.14392C12.7307 3.91336 11.7986 2.92285 9.99991 2.92285C8.20121 2.92285 7.27039 3.91336 7.0709 4.14106C6.65475 4.61649 6.30523 5.15405 6.21243 6.23899C6.14416 7.02756 6.20548 7.87131 6.23082 8.30422C6.239 8.43994 6.1973 8.49963 6.07875 8.49963C6.05116 8.49916 6.02372 8.49545 5.99699 8.48859C5.77502 8.43504 5.39075 8.23677 4.99504 8.15093C4.93049 8.13646 4.86456 8.12905 4.79841 8.12885C4.58788 8.12885 4.38961 8.21061 4.30786 8.42318C4.19094 8.73223 4.34873 8.98364 4.71011 9.23546C4.928 9.38753 5.71329 9.87318 5.8903 10.0371C6.07344 10.2063 6.04973 10.3372 6.02847 10.5035C6.01089 10.6429 5.61559 12.4948 3.13829 13.6921C2.99317 13.7625 2.74626 13.9113 3.18163 14.1516C3.86513 14.5293 4.32012 14.4889 4.67373 14.7166C4.97378 14.9099 4.79636 15.3269 5.01466 15.4773C5.28283 15.6625 6.07548 15.4643 7.09951 15.8023C7.95798 16.0852 8.4796 16.8844 10.002 16.8844C11.5243 16.8844 12.0611 16.0815 12.9044 15.8023C13.9264 15.4643 14.7207 15.6625 14.9892 15.4773C15.2071 15.3269 15.0301 14.9099 15.3302 14.7166C15.6838 14.4889 16.1384 14.5293 16.8223 14.1516C17.2568 13.9141 17.0099 13.7653 16.8648 13.695Z" fill="white"/>
<path d="M17.9428 13.5529C17.8316 13.2504 17.6199 13.0885 17.3787 12.9544C17.3333 12.9279 17.2916 12.9066 17.256 12.8902C17.1841 12.853 17.1105 12.8171 17.0373 12.779C16.2855 12.3805 15.6985 11.8777 15.2914 11.2816C15.1757 11.1138 15.0754 10.936 14.9917 10.7502C14.957 10.6509 14.9586 10.5945 14.9835 10.5429C15.0083 10.5033 15.041 10.4692 15.0796 10.4428C15.2088 10.3574 15.342 10.2707 15.4324 10.2122C15.5935 10.108 15.721 10.0254 15.8032 9.96695C16.1118 9.75111 16.3277 9.52178 16.4626 9.26546C16.5567 9.08838 16.6116 8.8931 16.6235 8.69291C16.6354 8.49272 16.6041 8.29231 16.5316 8.1053C16.3272 7.56733 15.8191 7.23334 15.2035 7.23334C15.0736 7.23322 14.9441 7.24692 14.8172 7.27422C14.7832 7.28158 14.7493 7.28935 14.7162 7.29793C14.7219 6.93002 14.7137 6.54166 14.681 6.15944C14.5649 4.81573 14.0944 4.11138 13.6039 3.54969C13.2897 3.19772 12.9197 2.89994 12.5087 2.66833C11.7643 2.24319 10.9201 2.02734 9.99992 2.02734C9.07972 2.02734 8.23965 2.24319 7.49442 2.66833C7.0824 2.90001 6.71164 3.19839 6.39721 3.55133C5.90666 4.11301 5.43614 4.81859 5.32004 6.16108C5.28734 6.5433 5.27916 6.9337 5.28447 7.29957C5.25136 7.29098 5.21784 7.28322 5.18391 7.27586C5.05696 7.24856 4.92746 7.23486 4.7976 7.23498C4.18155 7.23498 3.6726 7.56896 3.46902 8.10694C3.39625 8.29402 3.36461 8.49458 3.37625 8.69498C3.38789 8.89538 3.44253 9.09092 3.53647 9.26832C3.67178 9.52464 3.88762 9.75397 4.19626 9.96981C4.27802 10.027 4.40597 10.1096 4.56704 10.2151C4.65411 10.2715 4.78125 10.3541 4.90593 10.4367C4.94955 10.4649 4.98663 10.5021 5.01467 10.5458C5.04083 10.5994 5.04165 10.657 5.00281 10.7633C4.92021 10.9452 4.82158 11.1193 4.70807 11.2837C4.30991 11.8662 3.74005 12.36 3.01239 12.7553C2.6269 12.9597 2.22628 13.0963 2.05704 13.5562C1.9295 13.9032 2.01289 14.2981 2.33706 14.6309C2.45604 14.7551 2.59403 14.8595 2.74586 14.9403C3.06177 15.114 3.3977 15.2484 3.74618 15.3406C3.81809 15.3591 3.88637 15.3896 3.94812 15.4309C4.06627 15.5343 4.04951 15.6901 4.20689 15.9182C4.2859 16.0361 4.38628 16.1381 4.50286 16.2191C4.83316 16.4472 5.20435 16.4615 5.59761 16.4766C5.95285 16.4901 6.35552 16.5056 6.81541 16.6573C7.00591 16.7202 7.20376 16.8421 7.4331 16.9843C7.98374 17.3228 8.73756 17.786 9.9991 17.786C11.2606 17.786 12.0198 17.3203 12.5745 16.9806C12.8022 16.8408 12.9988 16.7202 13.184 16.6589C13.6439 16.5068 14.0466 16.4917 14.4018 16.4782C14.7951 16.4631 15.1663 16.4488 15.4966 16.2207C15.6346 16.1244 15.7497 15.9988 15.8334 15.8528C15.9467 15.6602 15.9438 15.5257 16.0501 15.4317C16.108 15.3924 16.1721 15.3631 16.2398 15.3451C16.593 15.2526 16.9335 15.1169 17.2536 14.9412C17.4149 14.8546 17.5601 14.741 17.6828 14.6051L17.6869 14.6002C17.991 14.2748 18.0675 13.8914 17.9428 13.5529ZM16.8215 14.1555C16.1376 14.5332 15.683 14.4927 15.3294 14.7204C15.0289 14.9138 15.2067 15.3307 14.9884 15.4812C14.7203 15.6664 13.9276 15.4681 12.9036 15.8062C12.059 16.0854 11.5202 16.8883 10.0011 16.8883C8.48206 16.8883 7.95595 16.087 7.09748 15.8041C6.07549 15.4661 5.2812 15.6643 5.01263 15.4791C4.79474 15.3287 4.97175 14.9117 4.67169 14.7184C4.31767 14.4907 3.86309 14.5311 3.17959 14.1555C2.74422 13.9151 2.99114 13.7663 3.13626 13.696C5.61355 12.4966 6.00886 10.6447 6.02644 10.5074C6.04769 10.341 6.0714 10.2102 5.88826 10.0409C5.71126 9.87743 4.92596 9.39137 4.70807 9.2393C4.34752 8.98748 4.1889 8.73607 4.30582 8.42702C4.38758 8.21322 4.58707 8.13269 4.79637 8.13269C4.86252 8.13289 4.92845 8.1403 4.993 8.15477C5.38872 8.24061 5.77298 8.43888 5.99496 8.49243C6.02169 8.49929 6.04913 8.503 6.07672 8.50347C6.19527 8.50347 6.23697 8.44379 6.22879 8.30807C6.20344 7.87515 6.14212 7.0314 6.21039 6.24283C6.30401 5.15789 6.65353 4.62033 7.06886 4.1449C7.26835 3.91638 8.20572 2.92587 9.99828 2.92587C11.7908 2.92587 12.7307 3.9123 12.9302 4.13999C13.3459 4.61542 13.6958 5.15299 13.7886 6.23793C13.8569 7.02649 13.798 7.87065 13.7702 8.30316C13.7608 8.44583 13.8038 8.49856 13.9223 8.49856C13.9499 8.49812 13.9773 8.49442 14.0041 8.48752C14.2264 8.43397 14.6107 8.23571 15.0064 8.14986C15.071 8.13539 15.1369 8.12799 15.2031 8.12779C15.4136 8.12779 15.6119 8.20954 15.6936 8.42212C15.8105 8.73117 15.6527 8.98257 15.2918 9.23439C15.0739 9.38646 14.2886 9.87211 14.1116 10.036C13.928 10.2053 13.9521 10.3361 13.9734 10.5025C13.991 10.6419 14.3859 12.4937 16.8636 13.6911C17.0099 13.7642 17.2568 13.913 16.8215 14.1555Z" fill="black"/>
</g>
</svg>
