<svg width="24" height="24" viewBox="0 0 21.01 22" fill="none" xmlns="http://www.w3.org/2000/svg">
<path id="Vector-color" fill-rule="evenodd" clip-rule="evenodd" d="M10.505 22C16.3068 22 21.01 17.0751 21.01 11C21.01 4.92487 16.3068 0 10.505 0C4.70325 0 0 4.92487 0 11C0 17.0751 4.70325 22 10.505 22ZM17.7196 7.98221C13.8217 5.55893 7.65407 5.33118 3.94369 6.5112C3.82132 6.54864 3.70713 6.61168 3.60778 6.69666C3.50843 6.78165 3.42589 6.88692 3.36497 7.00631C3.30406 7.12564 3.26598 7.25677 3.25294 7.39203C3.23991 7.52728 3.25219 7.66397 3.28907 7.79407C3.44616 8.33816 3.99468 8.64456 4.51436 8.47954C7.74626 7.45244 13.3309 7.64666 16.7173 9.75196C16.9412 9.89159 17.2074 9.93207 17.459 9.8647C17.7105 9.79738 17.9273 9.62757 18.0631 9.39163C18.1289 9.27549 18.1721 9.14642 18.1905 9.0121C18.2088 8.87777 18.2017 8.74087 18.1697 8.60954C18.1377 8.47815 18.0813 8.355 18.004 8.24726C17.9267 8.13951 17.83 8.04938 17.7196 7.98221ZM5.01344 11.8711C4.57977 12.0081 4.12241 11.7528 3.99056 11.3C3.96006 11.1915 3.95002 11.0776 3.96104 10.9649C3.97205 10.8521 4.0039 10.7429 4.05472 10.6434C4.10554 10.5439 4.17433 10.4562 4.25715 10.3854C4.33991 10.3145 4.43504 10.2619 4.53702 10.2306C8.35247 9.01812 13.0945 9.6062 16.3372 11.6917C16.4283 11.7494 16.5077 11.8259 16.5708 11.9169C16.6338 12.0078 16.6792 12.1113 16.7042 12.2213C16.7293 12.3312 16.7335 12.4454 16.7166 12.5571C16.6998 12.6688 16.6622 12.7758 16.6061 12.8717C16.3691 13.2744 15.8644 13.4004 15.4796 13.1534C12.6572 11.3358 8.35298 10.8099 5.01344 11.8711ZM5.1937 15.0337C4.84141 15.1185 4.48964 14.8874 4.40981 14.5188C4.3908 14.4303 4.38854 14.3387 4.40306 14.2493C4.41758 14.1599 4.44864 14.0744 4.49443 13.9979C4.54022 13.9214 4.59981 13.8555 4.66975 13.8039C4.73969 13.7524 4.81849 13.7161 4.90167 13.6975C8.90305 12.7392 12.3348 13.1512 15.1037 14.9237C15.1767 14.9695 15.2403 15.0304 15.2909 15.1029C15.3415 15.1753 15.378 15.2579 15.3983 15.3456C15.4186 15.4334 15.4222 15.5246 15.4089 15.6139C15.3956 15.7032 15.3657 15.7887 15.321 15.8655C15.1325 16.1906 14.7292 16.2913 14.4202 16.0944C11.9542 14.5155 8.84949 14.159 5.1937 15.0337Z" fill="#1ED760"/>
</svg>
