<svg width="24" height="24" viewBox="0 0 20 16.5762" fill="none" xmlns="http://www.w3.org/2000/svg">
<path id="Vector-color" d="M18.9854 0.00123025H19.0125C19.2695 0.00123025 19.5081 0.0811665 19.7036 0.218904L19.6999 0.216445C19.8426 0.340654 19.9385 0.515286 19.9619 0.712053V0.715743C19.9865 0.865779 20 1.03795 20 1.21381C20 1.29375 19.9975 1.37245 19.9914 1.45116V1.44009C19.7147 4.35349 18.5144 11.4187 17.9044 14.6801C17.6462 16.0612 17.1383 16.5236 16.6463 16.5678C15.5776 16.6674 14.766 15.8619 13.7305 15.1831C12.1096 14.1193 11.1934 13.4577 9.62051 12.421C7.80164 11.2244 8.98101 10.564 10.0165 9.48912C10.2883 9.20627 14.9996 4.92042 15.0919 4.53181C15.0968 4.50844 15.0993 4.48261 15.0993 4.45556C15.0993 4.35963 15.0636 4.27232 15.0058 4.20591C14.9418 4.1641 14.8619 4.14073 14.7783 4.14073C14.7229 4.14073 14.6701 4.1518 14.6209 4.17025L14.6233 4.16901C14.461 4.20591 11.8719 5.91697 6.85592 9.30219C6.30866 9.73385 5.61752 10.0069 4.86488 10.0388H4.8575C3.79146 9.90973 2.82376 9.67245 1.90524 9.33435C0.794704 8.97664 -0.0719191 8.77261 0.00471786 8.15233C0.046531 7.8211 0.503196 7.48209 1.37471 7.13529C6.74319 4.79621 10.3231 3.25445 12.1145 2.51002C14.0908 1.461 16.3819 0.597681 18.7911 0.0381234L18.9842 0L18.9854 0.00123025Z" fill="url(#paint0_linear_0_226)"/>
<defs>
<linearGradient id="paint0_linear_0_226" x1="10" y1="0" x2="10" y2="16.5762" gradientUnits="userSpaceOnUse">
<stop stop-color="#2AABEE"/>
<stop offset="1" stop-color="#229ED9"/>
</linearGradient>
</defs>
</svg>
