<svg width="24" height="24" viewBox="0 0 22 22" fill="none" xmlns="http://www.w3.org/2000/svg">
<g id="Vector-color">
<path d="M11 22C17.0751 22 22 17.0751 22 11C22 4.92487 17.0751 0 11 0C4.92487 0 0 4.92487 0 11C0 17.0751 4.92487 22 11 22Z" fill="url(#paint0_linear_0_215)"/>
<path fill-rule="evenodd" clip-rule="evenodd" d="M4.98563 10.8804C8.18968 9.47539 10.3314 8.56729 11.3937 8.12181C14.4436 6.85389 15.0775 6.63115 15.4887 6.63115C15.5744 6.63115 15.78 6.64829 15.9171 6.75109C16.0199 6.83676 16.0542 6.9567 16.0713 7.04237C16.0884 7.12804 16.1056 7.31651 16.0884 7.47072C15.9171 9.20125 15.2146 13.4333 14.8377 15.3695C14.6834 16.1919 14.375 16.466 14.0838 16.5003C13.4498 16.5517 12.9529 16.072 12.3361 15.6779C11.3766 15.0439 10.8283 14.6498 9.88594 14.033C8.8065 13.3134 9.50899 12.9193 10.1258 12.2854C10.28 12.114 13.1071 9.56106 13.1585 9.32118C13.1585 9.28692 13.1757 9.18411 13.1071 9.13271C13.0386 9.08131 12.9529 9.09844 12.8844 9.11558C12.7816 9.13271 11.2395 10.1607 8.24108 12.1826C7.7956 12.491 7.40152 12.628 7.0417 12.628C6.64762 12.628 5.89373 12.4053 5.32831 12.2168C4.64295 11.9941 4.09466 11.8741 4.14607 11.4972C4.19747 11.2916 4.47161 11.086 4.98563 10.8804Z" fill="white"/>
</g>
<defs>
<linearGradient id="paint0_linear_0_215" x1="0.0163115" y1="10.992" x2="22.0004" y2="10.992" gradientUnits="userSpaceOnUse">
<stop stop-color="#2AABEE"/>
<stop offset="1" stop-color="#229ED9"/>
</linearGradient>
</defs>
</svg>
