<svg width="24" height="24" viewBox="0 0 17.6581 20" fill="none" xmlns="http://www.w3.org/2000/svg">
<g id="Vector-color">
<path d="M6.87296 7.87521V7.09657C6.60618 7.06098 6.33501 7.0387 6.05493 7.0387C2.71628 7.03428 0 9.75285 0 13.0987C0 15.1499 1.02249 16.9652 2.58735 18.0642C1.57819 16.983 0.960251 15.5281 0.960251 13.9352C0.960251 10.6383 3.60095 7.95082 6.87296 7.87521Z" fill="#25F4EE"/>
<path d="M7.01976 16.7029C8.50903 16.7029 9.7271 15.5149 9.7805 14.0377L9.78491 0.836482H12.1944C12.1456 0.565073 12.1189 0.284758 12.1189 0H8.82914L8.82466 13.2013C8.77133 14.6785 7.55319 15.8664 6.06394 15.8664C5.60159 15.8664 5.16593 15.7507 4.77915 15.546C5.27706 16.2447 6.09506 16.7029 7.01976 16.7029Z" fill="#25F4EE"/>
<path d="M16.6976 5.31687V4.58273C15.7774 4.58273 14.9238 4.31128 14.2036 3.83969C14.8438 4.57383 15.7107 5.10771 16.6976 5.31687Z" fill="#25F4EE"/>
<path d="M14.2036 3.83969C13.5012 3.03435 13.079 1.98464 13.079 0.836701H12.1988C12.4255 2.09142 13.1722 3.16784 14.2036 3.83969Z" fill="#FE2C55"/>
<path d="M6.05965 10.327C4.5348 10.327 3.29447 11.5684 3.29447 13.0945C3.29447 14.1579 3.89892 15.0834 4.77915 15.546C4.45018 15.0923 4.25472 14.5361 4.25472 13.931C4.25472 12.4048 5.49505 11.1635 7.01989 11.1635C7.3044 11.1635 7.58001 11.2124 7.83789 11.2925V7.92876C7.57118 7.89317 7.29998 7.87095 7.01989 7.87095C6.97098 7.87095 6.92655 7.87537 6.87763 7.87537V10.456C6.61534 10.3759 6.34416 10.327 6.05965 10.327Z" fill="#FE2C55"/>
<path d="M16.6976 5.31687L16.6979 7.87547C14.9908 7.87547 13.4081 7.32821 12.1189 6.40277V13.099C12.1189 16.4405 9.40264 19.1636 6.05952 19.1636C4.77029 19.1636 3.56983 18.7539 2.58735 18.0642C3.69431 19.2522 5.27265 20 7.01976 20C10.3584 20 13.0791 17.2814 13.0791 13.9355V7.23922C14.3684 8.16472 15.951 8.71199 17.6581 8.71199V5.41945C17.3247 5.41945 17.0044 5.38365 16.6976 5.31687Z" fill="#FE2C55"/>
<path d="M12.1189 13.099V6.40277C13.4081 7.32821 14.9908 7.87547 16.6979 7.87547L16.6976 5.31687C15.7107 5.10771 14.8438 4.57383 14.2036 3.83969C13.1722 3.16784 12.43 2.0912 12.1944 0.836482H9.78491L9.7805 14.0377C9.7271 15.5149 8.50903 16.7029 7.01976 16.7029C6.09509 16.7029 5.28154 16.2448 4.77474 15.5508C3.89451 15.0835 3.2899 14.1625 3.2899 13.0992C3.2899 11.573 4.53023 10.3316 6.05508 10.3316C6.3396 10.3316 6.61521 10.3806 6.87309 10.4607V7.88002C3.60109 7.95121 0.960251 10.6383 0.960251 13.9352C0.960251 15.5281 1.5782 16.9786 2.58735 18.0642C3.56983 18.7539 4.77029 19.1636 6.05952 19.1636C9.39816 19.1636 12.1189 16.4405 12.1189 13.099Z" fill="black"/>
</g>
</svg>
