<svg width="24" height="24" viewBox="0 0 22 22" fill="none" xmlns="http://www.w3.org/2000/svg">
<path fill-rule="evenodd" clip-rule="evenodd" d="M11 22C17.0751 22 22 17.0751 22 11C22 4.92487 17.0751 0 11 0C4.92487 0 0 4.92487 0 11C0 17.0751 4.92487 22 11 22ZM14.1628 8.3308C15.2817 9.13234 16.6242 9.56199 18.0006 9.55904V6.82752C17.2561 6.82811 16.5279 6.60964 15.9067 6.19934C15.4703 5.918 15.0958 5.55063 14.8061 5.11967C14.5165 4.6887 14.3178 4.20321 14.2221 3.69284C14.1811 3.46388 14.1612 3.23163 14.1628 2.99902H11.4125V13.9188C11.4122 14.4102 11.2567 14.889 10.9681 15.2867C10.6795 15.6844 10.2727 15.9808 9.80563 16.1335C9.33858 16.2863 8.83521 16.2875 8.36741 16.1371C7.8996 15.9867 7.49128 15.6923 7.20074 15.296C6.9102 14.8997 6.75229 14.4218 6.74958 13.9304C6.74686 13.439 6.89947 12.9593 7.18561 12.5599C7.47175 12.1604 7.8768 11.8615 8.34291 11.706C8.80903 11.5504 9.31238 11.5461 9.78109 11.6936V8.88398C8.75602 8.7414 7.71186 8.91521 6.78825 9.38215C5.86464 9.84908 5.10562 10.5869 4.61269 11.4969C4.11976 12.4069 3.91644 13.4457 4.02991 14.4744C4.14337 15.5031 4.56822 16.4726 5.24764 17.2533C5.92705 18.034 6.82864 18.5887 7.83181 18.8431C8.83499 19.0975 9.89193 19.0395 10.8613 18.677C11.8306 18.3144 12.6662 17.6645 13.2562 16.8142C13.8461 15.9639 14.1624 14.9538 14.1628 13.9188V8.3308Z" fill="currentColor"/>
</svg>
