<svg width="24" height="24" viewBox="0 0 22 22" fill="none" xmlns="http://www.w3.org/2000/svg">
<g id="Vector-color">
<path fill-rule="evenodd" clip-rule="evenodd" d="M11 22C17.0751 22 22 17.0751 22 11C22 4.92487 17.0751 0 11 0C4.92487 0 0 4.92487 0 11C0 17.0751 4.92487 22 11 22Z" fill="black"/>
<path d="M9.63107 9.51265V8.9676C9.44433 8.94268 9.2545 8.92709 9.05845 8.92709C6.72139 8.92399 4.82 10.827 4.82 13.1691C4.82 14.6049 5.53575 15.8756 6.63115 16.645C5.92474 15.8881 5.49218 14.8697 5.49218 13.7547C5.49218 11.4468 7.34067 9.56557 9.63107 9.51265Z" fill="#25F4EE"/>
<path d="M9.73384 15.692C10.7763 15.692 11.629 14.8605 11.6663 13.8264L11.6694 4.58554H13.3561C13.3219 4.39555 13.3032 4.19933 13.3032 4H11.0004L10.9973 13.2409C10.9599 14.2749 10.1072 15.1065 9.06476 15.1065C8.74111 15.1065 8.43615 15.0255 8.16541 14.8822C8.51394 15.3713 9.08654 15.692 9.73384 15.692Z" fill="#25F4EE"/>
<path d="M16.5083 7.72181V7.20791C15.8642 7.20791 15.2667 7.01789 14.7625 6.68778C15.2106 7.20168 15.8175 7.5754 16.5083 7.72181Z" fill="#25F4EE"/>
<path d="M14.7625 6.68778C14.2709 6.12405 13.9753 5.38925 13.9753 4.58569H13.3591C13.5178 5.46399 14.0406 6.21749 14.7625 6.68778Z" fill="#FE2C55"/>
<path d="M9.06175 11.2289C7.99436 11.2289 7.12613 12.0979 7.12613 13.1662C7.12613 13.9105 7.54925 14.5583 8.16541 14.8822C7.93513 14.5646 7.7983 14.1753 7.7983 13.7517C7.7983 12.6834 8.66653 11.8144 9.73392 11.8144C9.93308 11.8144 10.126 11.8487 10.3065 11.9047V9.55013C10.1198 9.52522 9.92999 9.50966 9.73392 9.50966C9.69968 9.50966 9.66858 9.51276 9.63434 9.51276V11.3192C9.45074 11.2632 9.26091 11.2289 9.06175 11.2289Z" fill="#FE2C55"/>
<path d="M16.5083 7.72181L16.5085 9.51283C15.3135 9.51283 14.2057 9.12975 13.3032 8.48194V13.1693C13.3032 15.5083 11.4018 17.4145 9.06167 17.4145C8.1592 17.4145 7.31888 17.1277 6.63115 16.645C7.40601 17.4766 8.51085 18 9.73383 18C12.0709 18 13.9754 16.097 13.9754 13.7548V9.06745C14.8779 9.71531 15.9857 10.0984 17.1807 10.0984V7.79361C16.9473 7.79361 16.7231 7.76855 16.5083 7.72181Z" fill="#FE2C55"/>
<path d="M13.3032 13.1693V8.48194C14.2057 9.12975 15.3135 9.51283 16.5085 9.51283L16.5083 7.72181C15.8175 7.5754 15.2106 7.20168 14.7625 6.68778C14.0406 6.21749 13.521 5.46384 13.3561 4.58554H11.6694L11.6663 13.8264C11.629 14.8605 10.7763 15.692 9.73384 15.692C9.08656 15.692 8.51708 15.3714 8.16232 14.8855C7.54616 14.5585 7.12293 13.9138 7.12293 13.1694C7.12293 12.1011 7.99116 11.2321 9.05855 11.2321C9.25772 11.2321 9.45065 11.2664 9.63116 11.3225V9.51601C7.34076 9.56585 5.49218 11.4468 5.49218 13.7547C5.49218 14.8697 5.92474 15.885 6.63115 16.645C7.31888 17.1277 8.1592 17.4145 9.06167 17.4145C11.3987 17.4145 13.3032 15.5083 13.3032 13.1693Z" fill="white"/>
</g>
</svg>
