<svg width="24" height="24" viewBox="0 0 17.5 19.998" fill="none" xmlns="http://www.w3.org/2000/svg">
<path d="M17.5 8.19922C15.7797 8.2029 14.1017 7.66589 12.7031 6.66406V13.6484C12.7027 14.942 12.3074 16.2046 11.57 17.2673C10.8326 18.3301 9.78824 19.1424 8.57667 19.5955C7.3651 20.0487 6.04406 20.1211 4.79021 19.8031C3.53636 19.4852 2.40949 18.7919 1.56031 17.8161C0.711126 16.8404 0.180115 15.6286 0.0382948 14.3428C-0.103525 13.0571 0.150607 11.7587 0.766703 10.6213C1.3828 9.48391 2.33149 8.56174 3.48589 7.97812C4.64029 7.3945 5.94536 7.17727 7.22657 7.35547V10.8672C6.64073 10.6828 6.01161 10.6882 5.42902 10.8826C4.84644 11.077 4.34018 11.4506 3.98254 11.9499C3.6249 12.4492 3.43415 13.0487 3.43755 13.6629C3.44094 14.2771 3.6383 14.8744 4.00144 15.3698C4.36458 15.8651 4.87494 16.233 5.45964 16.421C6.04434 16.609 6.67348 16.6074 7.25724 16.4165C7.841 16.2256 8.34953 15.8552 8.71021 15.3581C9.07089 14.861 9.26528 14.2626 9.26563 13.6484V0H12.7031C12.7012 0.290728 12.726 0.581017 12.7773 0.867188C12.8969 1.50508 13.1453 2.11189 13.5073 2.65054C13.8693 3.1892 14.3373 3.64837 14.8828 4C15.6593 4.51283 16.5695 4.78588 17.5 4.78516V8.19922Z" fill="currentColor"/>
</svg>
