<svg width="24" height="24" viewBox="0 0 20 20" fill="none" xmlns="http://www.w3.org/2000/svg">
<g id="Vector-color">
<path fill-rule="evenodd" clip-rule="evenodd" d="M3 0C1.34315 0 0 1.34315 0 3V17C0 18.6569 1.34315 20 3 20H17C18.6569 20 20 18.6569 20 17V3C20 1.34315 18.6569 0 17 0H3Z" fill="black"/>
<path d="M8.43528 8.30017V7.67726C8.22186 7.64878 8.00492 7.63096 7.78086 7.63096C5.10994 7.62742 2.93692 9.80228 2.93692 12.479C2.93692 14.1199 3.75491 15.5722 5.0068 16.4514C4.19947 15.5864 3.70512 14.4225 3.70512 13.1482C3.70512 10.5106 5.81768 8.36066 8.43528 8.30017Z" fill="#25F4EE"/>
<path d="M8.55273 15.3623C9.74414 15.3623 10.7186 14.4119 10.7613 13.2302L10.7648 2.66919H12.6925C12.6534 2.45206 12.632 2.22781 12.632 2H10.0002L9.99664 12.561C9.95398 13.7428 8.97947 14.6931 7.78807 14.6931C7.41819 14.6931 7.06966 14.6006 6.76024 14.4368C7.15857 14.9957 7.81296 15.3623 8.55273 15.3623Z" fill="#25F4EE"/>
<path d="M16.295 6.2535V5.66618C15.5588 5.66618 14.8759 5.44902 14.2998 5.07175C14.8119 5.65907 15.5055 6.08617 16.295 6.2535Z" fill="#25F4EE"/>
<path d="M14.2998 5.07175C13.7379 4.42748 13.4001 3.58771 13.4001 2.66936H12.6959C12.8773 3.67314 13.4747 4.53427 14.2998 5.07175Z" fill="#FE2C55"/>
<path d="M7.78463 10.2616C6.56475 10.2616 5.57249 11.2547 5.57249 12.4756C5.57249 13.3263 6.05605 14.0667 6.76024 14.4368C6.49706 14.0738 6.34069 13.6289 6.34069 13.1448C6.34069 11.9238 7.33295 10.9308 8.55283 10.9308C8.78044 10.9308 9.00093 10.9699 9.20723 11.034V8.34301C8.99386 8.31453 8.77691 8.29676 8.55283 8.29676C8.5137 8.29676 8.47815 8.30029 8.43902 8.30029V10.3648C8.22919 10.3008 8.01225 10.2616 7.78463 10.2616Z" fill="#FE2C55"/>
<path d="M16.295 6.2535L16.2952 8.30038C14.9295 8.30038 13.6634 7.86257 12.632 7.12221V12.4792C12.632 15.1524 10.459 17.3308 7.78453 17.3308C6.75315 17.3308 5.79278 17.0031 5.0068 16.4514C5.89236 17.4018 7.15504 18 8.55273 18C11.2236 18 13.4002 15.8251 13.4002 13.1484V7.79137C14.4316 8.53178 15.6977 8.96959 17.0634 8.96959V6.33556C16.7967 6.33556 16.5404 6.30692 16.295 6.2535Z" fill="#FE2C55"/>
<path d="M12.632 12.4792V7.12221C13.6634 7.86257 14.9295 8.30038 16.2952 8.30038L16.295 6.2535C15.5055 6.08617 14.8119 5.65907 14.2998 5.07175C13.4747 4.53427 12.8809 3.67296 12.6925 2.66919H10.7648L10.7613 13.2302C10.7186 14.4119 9.74414 15.3623 8.55273 15.3623C7.81299 15.3623 7.16215 14.9959 6.75671 14.4406C6.05252 14.0668 5.56884 13.33 5.56884 12.4793C5.56884 11.2584 6.5611 10.2653 7.78098 10.2653C8.00859 10.2653 8.22908 10.3045 8.43539 10.3686V8.30401C5.81779 8.36097 3.70512 10.5106 3.70512 13.1482C3.70512 14.4225 4.19948 15.5829 5.0068 16.4514C5.79278 17.0031 6.75315 17.3308 7.78453 17.3308C10.4554 17.3308 12.632 15.1524 12.632 12.4792Z" fill="white"/>
</g>
</svg>
