<svg width="24" height="24" viewBox="0 0 20 20" fill="none" xmlns="http://www.w3.org/2000/svg">
<path fill-rule="evenodd" clip-rule="evenodd" d="M3 0C1.34315 0 0 1.34315 0 3V17C0 18.6569 1.34315 20 3 20H17C18.6569 20 20 18.6569 20 17V3C20 1.34315 18.6569 0 17 0H3ZM13.1628 7.3308C14.2817 8.13234 15.6243 8.56199 17.0007 8.55904V5.82752C16.2562 5.82811 15.528 5.60964 14.9067 5.19934C14.4703 4.918 14.0958 4.55063 13.8062 4.11967C13.5165 3.6887 13.3178 3.2032 13.2222 2.69284C13.1811 2.46388 13.1612 2.23163 13.1628 1.99902H10.4125V12.9188C10.4123 13.4102 10.2567 13.889 9.96815 14.2867C9.67958 14.6844 9.27272 14.9808 8.80566 15.1335C8.33861 15.2863 7.83524 15.2875 7.36744 15.1371C6.89963 14.9867 6.49131 14.6923 6.20077 14.296C5.91023 13.8997 5.75232 13.4218 5.74961 12.9304C5.74689 12.439 5.8995 11.9593 6.18564 11.5599C6.47178 11.1604 6.87683 10.8615 7.34294 10.706C7.80906 10.5504 8.31241 10.5461 8.78112 10.6936V7.88398C7.75605 7.7414 6.71189 7.91521 5.78828 8.38215C4.86467 8.84908 4.10565 9.5869 3.61272 10.4969C3.1198 11.4069 2.91647 12.4457 3.02994 13.4744C3.1434 14.5031 3.56825 15.4726 4.24767 16.2533C4.92708 17.034 5.82867 17.5887 6.83184 17.8431C7.83502 18.0975 8.89196 18.0395 9.86131 17.677C10.8307 17.3144 11.6662 16.6645 12.2562 15.8142C12.8462 14.9639 13.1625 13.9538 13.1628 12.9188V7.3308Z" fill="currentColor"/>
</svg>
