<svg width="24" height="24" viewBox="0 0 22 22" fill="none" xmlns="http://www.w3.org/2000/svg">
<path d="M11 0C17.0751 0 22 4.92487 22 11C22 17.0751 17.0751 22 11 22C4.92487 22 0 17.0751 0 11C0 4.92487 4.92487 0 11 0ZM10.1309 4.12012C10.0304 5.67566 9.15758 7.47235 7.07031 8.01465V10.2422H8.9668V14.3574C8.96688 16.9266 10.5229 18.001 12.6104 18.001H14.9287V15.2705H13.7041C12.8412 15.2705 12.2988 14.899 12.2988 13.8252V10.2422H14.8281V7.65332H12.2988V4.12012H10.1309Z" fill="currentColor"/>
</svg>
