<svg width="24" height="24" viewBox="0 0 20 20" fill="none" xmlns="http://www.w3.org/2000/svg">
<path d="M17.9004 0C19.0599 0.000211264 19.9998 0.940121 20 2.09961V17.9004C19.9998 19.0599 19.0599 19.9998 17.9004 20H2.09961C0.940121 19.9998 0.000211022 19.0599 0 17.9004V2.09961C0.000211264 0.940121 0.940121 0.000211022 2.09961 0H17.9004ZM9.13086 3.12012C9.0304 4.67566 8.15758 6.47235 6.07031 7.01465V9.24219H7.9668V13.3574C7.96688 15.9266 9.52285 17.001 11.6104 17.001H13.9287V14.2705H12.7041C11.8412 14.2705 11.2988 13.899 11.2988 12.8252V9.24219H13.8281V6.65332H11.2988V3.12012H9.13086Z" fill="currentColor"/>
</svg>
