<svg width="24" height="24" viewBox="0 0 20 20" fill="none" xmlns="http://www.w3.org/2000/svg">
<g>
<path d="M14.9371 15.5808H13.6208L5.02826 4.34712H6.44073L14.9371 15.5808Z" fill="currentColor"/>
<path fill-rule="evenodd" clip-rule="evenodd" d="M2.14286 0H17.8571C19.0402 0 20 0.959821 20 2.14286V17.8571C20 19.0402 19.0402 20 17.8571 20H2.14286C0.959821 20 0 19.0402 0 17.8571V2.14286C0 0.959821 0.959821 0 2.14286 0ZM16.8299 3H14.4545L10.5402 7.47436L7.15594 3H2.25432L8.11098 10.6583L2.56022 17.0026H4.93707L9.22113 12.1074L12.9652 17.0026H17.7455L11.6403 8.93134L16.8299 3Z" fill="currentColor"/>
</g>
</svg>
