<svg width="24" height="24" viewBox="0 0 20 20" fill="none" xmlns="http://www.w3.org/2000/svg">
<g id="Vector-color">
<path d="M2.1 0C0.940202 0 0 0.940202 0 2.1V17.9C0 19.0598 0.940202 20 2.1 20H17.9C19.0598 20 20 19.0598 20 17.9V2.1C20 0.940202 19.0598 0 17.9 0H2.1Z" fill="black"/>
<path d="M16.645 8.83767C15.1527 12.0258 11.5502 16.3663 9.27316 16.3663C7.02916 16.3663 6.70466 11.5803 5.47908 8.39492C4.87591 6.82834 4.48633 7.18767 3.35608 7.97875L2.66675 7.08959C4.31491 5.64034 5.96583 3.95642 6.97966 3.86292C8.12091 3.75292 8.824 4.533 9.08708 6.20409C9.4345 8.40042 9.91941 11.8086 10.7664 11.8086C11.4264 11.8086 13.0526 9.10442 13.136 8.13826C13.2845 6.72292 12.0956 6.67984 11.0634 7.12167C12.696 1.77201 19.4913 2.75742 16.645 8.83767Z" fill="#17D5FF"/>
</g>
</svg>
