<svg width="24" height="24" viewBox="0 0 22 22" fill="none" xmlns="http://www.w3.org/2000/svg">
<g id="Vector-color">
<path d="M22 11C22 17.0751 17.0751 22 11 22C4.92487 22 5.66749e-09 17.0751 0 11C-5.66749e-09 4.92487 4.92487 5.66749e-09 11 0C17.0751 -5.66749e-09 22 4.92487 22 11Z" fill="black"/>
<path d="M17.6449 9.83767C16.1526 13.0258 12.5501 17.3663 10.2731 17.3663C8.02908 17.3663 7.70458 12.5803 6.479 9.39492C5.87583 7.82833 5.48625 8.18767 4.356 8.97875L3.66667 8.08958C5.31483 6.64033 6.96575 4.95642 7.97958 4.86292C9.12083 4.75292 9.82392 5.533 10.087 7.20408C10.4344 9.40042 10.9193 12.8086 11.7663 12.8086C12.4263 12.8086 14.0525 10.1044 14.1359 9.13825C14.2844 7.72292 13.0955 7.67983 12.0633 8.12167C13.6959 2.772 20.4912 3.75742 17.6449 9.83767Z" fill="#17D5FF"/>
</g>
</svg>
