<svg width="24" height="24" viewBox="0 0 20 20" fill="none" xmlns="http://www.w3.org/2000/svg">
<path d="M2.1 0C0.940202 0 0 0.940202 0 2.1V17.9C0 19.0598 0.940202 20 2.1 20H17.9C19.0598 20 20 19.0598 20 17.9V2.1C20 0.940202 19.0598 0 17.9 0H2.1ZM16.0408 8.94333C14.6842 11.8417 11.4092 15.7875 9.33917 15.7875C7.29917 15.7875 7.00417 11.4367 5.89 8.54083C5.34167 7.11667 4.9875 7.44333 3.96 8.1625L3.33333 7.35417C4.83167 6.03667 6.3325 4.50583 7.25417 4.42083C8.29167 4.32083 8.93083 5.03 9.17 6.54917C9.48583 8.54583 9.92667 11.6442 10.6967 11.6442C11.2967 11.6442 12.775 9.18583 12.8508 8.3075C12.9858 7.02083 11.905 6.98167 10.9667 7.38333C12.4508 2.52 18.6283 3.41583 16.0408 8.94333Z" fill="currentColor"/>
</svg>
