<svg width="24" height="24" viewBox="0 0 21 21.9999" fill="none" xmlns="http://www.w3.org/2000/svg">
<path fill-rule="evenodd" clip-rule="evenodd" d="M1.04334 20.7088L1.04621 20.6993L1.05607 20.6664C1.06484 20.637 1.07786 20.593 1.09437 20.5364C1.1274 20.423 1.17432 20.2593 1.2291 20.06C1.33899 19.6603 1.47894 19.1236 1.60186 18.5677C1.72616 18.0056 1.82664 17.4523 1.8664 17.0107C1.88641 16.7883 1.88806 16.6248 1.87885 16.5175C1.87803 16.5079 1.87716 16.4993 1.87629 16.4916C0.693582 14.7922 0 12.7257 0 10.5C0 4.70101 4.70101 0 10.5 0C16.299 0 21 4.70101 21 10.5C21 16.299 16.299 21 10.5 21C9.16846 21 7.89261 20.7517 6.71786 20.2979C6.70284 20.2988 6.68337 20.3005 6.65902 20.3033C6.53567 20.3177 6.35872 20.3542 6.12943 20.4176C5.67377 20.5435 5.11479 20.7464 4.55543 20.9703C4.00122 21.1921 3.46956 21.4253 3.07486 21.6039C2.87802 21.6929 2.71643 21.7678 2.60455 21.8202C2.54864 21.8464 2.50522 21.867 2.47609 21.8808L2.44338 21.8964L2.43378 21.901C2.07612 22.0731 1.65032 22.0175 1.34903 21.7591C1.04778 21.5008 0.927877 21.0885 1.04334 20.7088ZM6.75849 20.297L6.75585 20.2969ZM15.3327 12.797C15.3629 12.8118 15.3814 12.8209 15.3854 12.8228C15.5915 12.9218 15.7544 13 15.8489 13.1553C15.9869 13.3837 15.9322 14.0132 15.7248 14.5894C15.4616 15.3208 14.3044 15.9204 13.7779 15.9671L13.7006 15.9745C13.5789 15.9865 13.4408 16 13.2684 16C12.8581 16 12.1362 15.9296 10.6119 15.3208C9.02861 14.6883 7.46677 13.3323 6.21391 11.5026C6.21028 11.4973 6.20685 11.4923 6.2036 11.4875C6.18744 11.4638 6.17596 11.447 6.16919 11.438C5.84204 11.0068 5.08008 9.87311 5.08008 8.67241C5.08008 7.33831 5.71867 6.57971 6.09614 6.34173C6.4521 6.11734 7.25717 6.01136 7.40501 6.00512C7.49269 6.00142 7.50195 6.00039 7.51123 6.00011C7.5148 6 7.51838 6 7.52642 6C7.83842 6 8.06295 6.18933 8.23286 6.59597C8.24982 6.63641 8.30098 6.75952 8.36947 6.92432C8.58637 7.44625 8.97705 8.38633 9.00534 8.44291C9.05069 8.53186 9.19103 8.80734 9.02672 9.13379L8.99146 9.20466C8.92425 9.34089 8.866 9.45898 8.73574 9.61052C8.6939 9.65889 8.65128 9.7102 8.60873 9.76144C8.51894 9.86951 8.4259 9.98149 8.34025 10.0662C8.31095 10.0956 8.25417 10.1525 8.248 10.1752C8.24854 10.1786 8.25169 10.1987 8.27436 10.2373C8.4501 10.5348 9.73169 12.2985 11.4201 13.0319C11.4939 13.064 11.7375 13.1643 11.7516 13.1643C11.7673 13.1643 11.7935 13.1381 11.8127 13.1161C11.9597 12.9499 12.4357 12.3935 12.5929 12.1598C12.732 11.9518 12.9106 11.8459 13.1231 11.8459C13.2532 11.8459 13.3755 11.8859 13.4897 11.9269C13.7423 12.0178 15.0507 12.6589 15.3327 12.797Z" fill="currentColor"/>
</svg>
