<svg width="24" height="24" viewBox="0 0 21 21.9999" fill="none" xmlns="http://www.w3.org/2000/svg">
<g id="Vector-color">
<path fill-rule="evenodd" clip-rule="evenodd" d="M10.5 2C5.80558 2 2 5.80558 2 10.5C2 12.3353 2.5805 14.032 3.56801 15.4204C3.79452 15.7389 3.85121 16.1099 3.87152 16.3464C3.89467 16.616 3.88372 16.9081 3.85834 17.19C3.80732 17.7568 3.68591 18.4061 3.55468 18.9995C3.5368 19.0804 3.51862 19.1608 3.50026 19.2403C3.60283 19.198 3.70704 19.1556 3.8122 19.1135C4.39745 18.8792 5.03577 18.6448 5.59666 18.4898C5.87564 18.4127 6.16177 18.3478 6.42713 18.3168C6.65525 18.2902 7.02157 18.2673 7.36859 18.4049C8.33633 18.7886 9.39227 19 10.5 19C15.1944 19 19 15.1944 19 10.5C19 5.80558 15.1944 2 10.5 2ZM1.04334 20.7088L1.04621 20.6993L1.05607 20.6664C1.06484 20.637 1.07786 20.593 1.09437 20.5364C1.1274 20.423 1.17432 20.2593 1.2291 20.06C1.33899 19.6603 1.47894 19.1236 1.60186 18.5677C1.72616 18.0056 1.82664 17.4523 1.8664 17.0107C1.88641 16.7883 1.88806 16.6248 1.87885 16.5175C1.87803 16.5079 1.87716 16.4993 1.87629 16.4916C0.693582 14.7922 0 12.7257 0 10.5C0 4.70101 4.70101 0 10.5 0C16.299 0 21 4.70101 21 10.5C21 16.299 16.299 21 10.5 21C9.16846 21 7.89261 20.7517 6.71786 20.2979C6.70284 20.2988 6.68337 20.3005 6.65902 20.3033C6.53567 20.3177 6.35872 20.3542 6.12943 20.4176C5.67377 20.5435 5.11479 20.7464 4.55543 20.9703C4.00122 21.1921 3.46956 21.4253 3.07486 21.6039C2.87802 21.6929 2.71643 21.7678 2.60455 21.8202C2.54864 21.8464 2.50522 21.867 2.47609 21.8808L2.44338 21.8964L2.43378 21.901C2.07612 22.0731 1.65032 22.0175 1.34903 21.7591C1.04778 21.5008 0.927877 21.0885 1.04334 20.7088C1.04335 20.7088 1.04333 20.7088 1.04334 20.7088ZM6.75849 20.297C6.75847 20.297 6.75757 20.297 6.75585 20.2969Z" fill="#25D366"/>
<path d="M15.3853 12.8228C15.3433 12.8026 13.7693 12.0276 13.4896 11.9269C13.3754 11.8859 13.2531 11.8459 13.123 11.8459C12.9105 11.8459 12.7319 11.9518 12.5929 12.1598C12.4356 12.3935 11.9597 12.9499 11.8126 13.1161C11.7934 13.1381 11.7672 13.1643 11.7515 13.1643C11.7374 13.1643 11.4938 13.064 11.4201 13.0319C9.73161 12.2985 8.45002 10.5348 8.27428 10.2373C8.24919 10.1946 8.24814 10.1752 8.24793 10.1752C8.25409 10.1525 8.31087 10.0956 8.34017 10.0662C8.4259 9.98141 8.51878 9.8696 8.60865 9.76144C8.6512 9.7102 8.69382 9.65889 8.73567 9.61052C8.86605 9.45883 8.92409 9.34107 8.99138 9.20466L9.02664 9.13379C9.19095 8.80734 9.05061 8.53186 9.00526 8.44291C8.96804 8.36846 8.30344 6.76449 8.23278 6.59597C8.06287 6.18933 7.83835 6 7.52634 6C7.49739 6 7.52634 6 7.40493 6.00512C7.25709 6.01136 6.45202 6.11734 6.09607 6.34173C5.71859 6.57971 5.08 7.33831 5.08 8.67241C5.08 9.87311 5.84196 11.0068 6.16911 11.438C6.17724 11.4488 6.19217 11.4709 6.21383 11.5026C7.46669 13.3323 9.02853 14.6883 10.6118 15.3208C12.1361 15.9296 12.8579 16 13.2683 16C13.4407 16 13.5788 15.9865 13.7005 15.9745L13.7778 15.9671C14.3044 15.9204 15.4615 15.3208 15.7248 14.5894C15.9321 14.0132 15.9868 13.3837 15.8488 13.1553C15.7543 13 15.5915 12.9218 15.3853 12.8228Z" fill="#25D366"/>
</g>
</svg>
