<svg width="24" height="24" viewBox="0 0 20 20" fill="none" xmlns="http://www.w3.org/2000/svg">
<path id="Vector-color" fill-rule="evenodd" clip-rule="evenodd" d="M0 2C0 0.895431 0.895431 0 2 0H18C19.1046 0 20 0.895431 20 2V18C20 19.1046 19.1046 20 18 20H2C0.895431 20 0 19.1046 0 18V2ZM3.99206 16.1514L3.98578 16.1723L3.98395 16.1784C3.91048 16.42 3.98678 16.6823 4.17848 16.8467C4.37021 17.0112 4.64118 17.0465 4.86878 16.937L4.87489 16.9341L4.89571 16.9242L4.97746 16.8856C5.04865 16.8523 5.15148 16.8046 5.27674 16.7479C5.52791 16.6343 5.86624 16.4859 6.21893 16.3447C6.57488 16.2023 6.9306 16.0732 7.22056 15.993C7.36648 15.9527 7.47908 15.9295 7.55758 15.9203C7.57307 15.9185 7.58546 15.9175 7.59502 15.9169C8.34259 16.2056 9.1545 16.3637 10.0018 16.3637C13.6921 16.3637 16.6837 13.3721 16.6837 9.68184C16.6837 5.99156 13.6921 3 10.0018 3C6.31157 3 3.32001 5.99156 3.32001 9.68184C3.32001 11.0982 3.76138 12.4132 4.51401 13.4947L4.51565 13.5112C4.5215 13.5794 4.52045 13.6835 4.50772 13.825C4.48242 14.106 4.41847 14.4582 4.33938 14.8158C4.26115 15.1696 4.1721 15.5111 4.10216 15.7655C4.0673 15.8923 4.03745 15.9965 4.01643 16.0686C4.00592 16.1047 3.99764 16.1326 3.99206 16.1514ZM4.59271 9.68156C4.59271 6.6942 7.01444 4.27246 10.0018 4.27246C12.9892 4.27246 15.4109 6.6942 15.4109 9.68156C15.4109 12.6689 12.9892 15.0907 10.0018 15.0907C9.29689 15.0907 8.62493 14.9561 8.00909 14.712C7.78826 14.6244 7.55514 14.639 7.40998 14.6559C7.24111 14.6756 7.05903 14.7169 6.88149 14.766C6.52456 14.8647 6.11836 15.0138 5.74592 15.1629C5.679 15.1897 5.61269 15.2167 5.54742 15.2436C5.5591 15.193 5.57067 15.1418 5.58205 15.0904C5.66556 14.7128 5.74282 14.2995 5.77529 13.9388C5.79144 13.7595 5.79841 13.5736 5.78368 13.402C5.77075 13.2515 5.73467 13.0154 5.59053 12.8127C4.96211 11.9292 4.59271 10.8495 4.59271 9.68156ZM13.0771 11.1437C12.8977 11.0558 12.0651 10.6479 11.9043 10.59C11.8317 10.5639 11.7538 10.5385 11.671 10.5385C11.5358 10.5385 11.4222 10.6059 11.3337 10.7383C11.2336 10.887 10.9307 11.241 10.8371 11.3468C10.8249 11.3608 10.8082 11.3774 10.7982 11.3774C10.7893 11.3774 10.6343 11.3136 10.5873 11.2932C9.51286 10.8265 8.6973 9.70412 8.58546 9.51485C8.5695 9.48764 8.56869 9.47529 8.56869 9.47529C8.57262 9.46088 8.60875 9.42466 8.6274 9.40597C8.6819 9.35204 8.74094 9.28098 8.79808 9.21221C8.82515 9.17961 8.85244 9.14675 8.87907 9.11597C8.96196 9.01954 8.99891 8.94465 9.04168 8.85795L9.06424 8.81259C9.1688 8.60485 9.0795 8.42955 9.05063 8.37294C9.03263 8.33694 8.78405 7.73877 8.64601 7.40663C8.60242 7.30172 8.56985 7.22335 8.55906 7.19761C8.45093 6.93884 8.30805 6.81836 8.1095 6.81836C8.10438 6.81836 8.10211 6.81836 8.09984 6.81843C8.09393 6.81861 8.08804 6.81926 8.03224 6.82162C7.93816 6.82559 7.42584 6.89303 7.19932 7.03582C6.95911 7.18727 6.55273 7.67001 6.55273 8.51898C6.55273 9.28307 7.03762 10.0045 7.24581 10.2789C7.25011 10.2847 7.25743 10.2954 7.26771 10.3104C7.26978 10.3135 7.27196 10.3167 7.27426 10.32C8.07154 11.4844 9.06544 12.3473 10.073 12.7498C11.043 13.1372 11.5023 13.182 11.7635 13.182C11.8732 13.182 11.9611 13.1734 12.0386 13.1658L12.0877 13.1611C12.4228 13.1314 13.1592 12.7498 13.3267 12.2843C13.4586 11.9177 13.4934 11.5171 13.4056 11.3717C13.3455 11.2729 13.2419 11.2232 13.1108 11.1602C13.1082 11.159 13.0964 11.1532 13.0771 11.1437Z" fill="#25D366"/>
</svg>
