<svg width="24" height="24" viewBox="0 0 22 22" fill="none" xmlns="http://www.w3.org/2000/svg">
<path id="Vector-color" d="M11 0C17.0583 0 22 4.94175 22 11C22 17.0583 17.0583 22 11 22C4.94175 22 0 17.0583 0 11C0 4.94175 4.94175 0 11 0ZM11 0.518555C8.22144 0.522918 5.55751 1.62803 3.59277 3.59277C1.62803 5.55751 0.522918 8.22144 0.518555 11C0.518555 16.819 5.22087 21.5215 11 21.5215C16.7791 21.5215 21.4814 16.819 21.4814 11C21.4771 8.22144 20.372 5.55751 18.4072 3.59277C16.4425 1.62803 13.7786 0.522918 11 0.518555ZM14.0693 19.8086C14.1088 19.8483 14.1089 19.888 14.1484 19.9277C13.1516 20.2398 12.1157 20.4463 11 20.4463C10.083 20.4463 9.16666 20.287 8.33008 20.0479L11.1592 11.8369L14.0693 19.8086ZM6.84766 19.4893C3.70578 17.9747 1.55371 14.7469 1.55371 11C1.55371 9.64562 1.87391 8.36939 2.3916 7.17383L6.84766 19.4893ZM19.29 6.50684C20.0069 7.8605 20.4455 9.37378 20.4854 11.0068C20.4854 14.5136 18.5729 17.5425 15.7832 19.1768L18.6523 10.8477C19.2099 9.49259 19.3691 8.42148 19.3691 7.45898L19.29 6.50684ZM11 1.55371C13.4708 1.55371 15.7022 2.47102 17.377 4.02539H17.2578C16.3407 4.02539 15.6632 4.82272 15.6631 5.69922C15.6631 6.49595 16.1007 7.13327 16.5791 7.93066C16.938 8.52741 17.3769 9.36649 17.377 10.5215L17.3818 10.5225C17.3818 11.3598 17.0638 12.2767 16.665 13.5918L15.7021 16.7402L12.2754 6.57617C12.8329 6.57616 13.3516 6.49707 13.3516 6.49707C13.8298 6.41639 13.7898 5.65935 13.2715 5.69922C13.2687 5.69944 11.7567 5.81934 10.7607 5.81934C9.84885 5.81934 8.3076 5.70057 8.29004 5.69922C7.81154 5.69922 7.73163 6.4572 8.25 6.49707L9.24707 6.5752L10.7217 10.6006L8.64941 16.7783L5.22168 6.57617C5.7792 6.57616 6.29785 6.49609 6.29785 6.49609C6.77596 6.41534 6.73596 5.65844 6.21777 5.69824C6.21777 5.69824 4.70391 5.81836 3.70703 5.81836H3.1084C3.97653 4.5182 5.15004 3.45031 6.52539 2.70703C7.90074 1.96376 9.43672 1.56755 11 1.55371ZM19.29 6.50684C19.2896 6.50594 19.2895 6.5048 19.2891 6.50391L19.29 6.49707V6.50684Z" fill="#3858E9"/>
</svg>
