<svg width="24" height="24" viewBox="0 0 20 20" fill="none" xmlns="http://www.w3.org/2000/svg">
<path d="M17 0C18.6569 0 20 1.34315 20 3V17C20 18.6569 18.6569 20 17 20H3C1.34315 20 6.44266e-08 18.6569 0 17V3C0 1.34315 1.34315 6.44255e-08 3 0H17ZM6.74219 7.9502C5.61209 7.9502 4.69543 8.86602 4.69531 9.99609C4.69531 11.1263 5.61201 12.043 6.74219 12.043C7.87215 12.0427 8.78809 11.1261 8.78809 9.99609C8.78797 8.86617 7.87207 7.95045 6.74219 7.9502ZM11.1523 7.9502C10.0222 7.9502 9.10656 8.86602 9.10645 9.99609C9.10645 11.1263 10.0222 12.043 11.1523 12.043C12.2825 12.043 13.1982 11.1263 13.1982 9.99609C13.1981 8.86603 12.2824 7.95021 11.1523 7.9502ZM1 8.00977C1.00011 8.44857 1.35609 8.80469 1.79492 8.80469H3.39258L1.16309 11.0332C1.00342 11.1928 0.956562 11.431 1.04297 11.6396C1.1294 11.8482 1.33089 11.9834 1.55664 11.9834H4.77441C4.77441 11.5446 4.41922 11.1887 3.98047 11.1885H2.13184L4.36133 8.95898C4.5209 8.79927 4.56785 8.5611 4.48145 8.35254C4.39492 8.14421 4.19338 8.00977 3.96777 8.00977H1ZM17.4502 7.9502C16.9932 7.95023 16.5817 8.14907 16.2979 8.46484C16.014 8.14907 15.6026 7.9502 15.1455 7.9502C14.2911 7.9503 13.5957 8.64556 13.5957 9.5V11.9834C14.0346 11.9834 14.3906 11.6273 14.3906 11.1885V9.5C14.3906 9.08377 14.7293 8.74522 15.1455 8.74512C15.5618 8.74512 15.9004 9.08371 15.9004 9.5V11.1885C15.9005 11.6273 16.2565 11.9834 16.6953 11.9834V9.5C16.6953 9.08376 17.034 8.74519 17.4502 8.74512C17.8665 8.74512 18.2051 9.08371 18.2051 9.5V11.1885C18.2051 11.6273 18.5611 11.9834 19 11.9834V9.5C19 8.6455 18.3047 7.9502 17.4502 7.9502ZM6.74219 8.74512C7.43317 8.74537 7.99305 9.30508 7.99316 9.99609C7.99316 10.6872 7.43324 11.2478 6.74219 11.248C6.05092 11.248 5.49023 10.6874 5.49023 9.99609C5.49035 9.30492 6.05099 8.74512 6.74219 8.74512ZM11.1523 8.74512C11.8435 8.74513 12.4042 9.30493 12.4043 9.99609C12.4043 10.6874 11.8436 11.248 11.1523 11.248C10.4611 11.248 9.90039 10.6874 9.90039 9.99609C9.90051 9.30492 10.4611 8.74512 11.1523 8.74512Z" fill="currentColor"/>
</svg>
