<svg width="24" height="24" viewBox="0 0 22 22" fill="none" xmlns="http://www.w3.org/2000/svg">
<path d="M11 22C12.1762 22 13.3295 21.9052 14.4541 21.7246C18.1773 21.1266 21.1266 18.1773 21.7246 14.4541C21.9052 13.3295 22 12.1762 22 11C22 9.82378 21.9052 8.67048 21.7246 7.5459C21.1266 3.82269 18.1773 0.873374 14.4541 0.275391C13.3295 0.0947752 12.1761 0 11 0C9.82385 1.27771e-08 8.67052 0.0947752 7.5459 0.275391C3.82269 0.873374 0.873392 3.82269 0.275391 7.5459C0.0947794 8.67048 0 9.82378 0 11C1.2776e-08 12.1762 0.0947794 13.3295 0.275391 14.4541C0.873387 18.1773 3.82269 21.1266 7.5459 21.7246C8.67052 21.9052 9.82385 22 11 22ZM2.96777 14.3604C2.96804 13.6181 3.57021 13.0166 4.3125 13.0166H7.01465L3.24414 9.24609C2.97404 8.97605 2.89387 8.57261 3.04004 8.21973C3.18629 7.86711 3.52741 7.63968 3.90918 7.63965H9.35352C9.35329 8.38191 8.7511 8.9834 8.00879 8.9834H4.88281L8.6543 12.7549C8.92399 13.0251 9.00354 13.4276 8.85742 13.7803C8.71116 14.133 8.37008 14.3604 7.98828 14.3604H2.96777ZM16.4111 14.4619C15.638 14.4619 14.9421 14.125 14.4619 13.5908C13.9817 14.125 13.2858 14.4618 12.5127 14.4619C11.0672 14.4619 9.89062 13.2853 9.89062 11.8398V7.63965C10.633 7.63965 11.2353 8.24103 11.2354 8.9834V11.8398C11.2354 12.544 11.8085 13.1172 12.5127 13.1172C13.2168 13.1171 13.79 12.544 13.79 11.8398V8.9834C13.7901 8.24105 14.3914 7.63969 15.1338 7.63965V11.8398C15.1338 12.544 15.7069 13.1172 16.4111 13.1172C17.1153 13.1171 17.6885 12.544 17.6885 11.8398V8.9834C17.6886 8.24108 18.2899 7.63974 19.0322 7.63965V11.8398C19.0322 13.2853 17.8565 14.4618 16.4111 14.4619Z" fill="currentColor"/>
</svg>
