<svg width="24" height="24" viewBox="0 0 22 9.2334" fill="none" xmlns="http://www.w3.org/2000/svg">
<path d="M18.4521 0C20.4083 0 22 1.59165 22 3.54785V9.2334C20.9954 9.23329 20.1809 8.4186 20.1807 7.41406V3.54785C20.1807 2.59485 19.4052 1.81934 18.4521 1.81934C17.4993 1.81955 16.7246 2.59498 16.7246 3.54785V9.2334C15.72 9.2334 14.9055 8.41866 14.9053 7.41406V3.54785C14.9053 2.59491 14.1297 1.81944 13.1768 1.81934C12.2238 1.81934 11.4482 2.59485 11.4482 3.54785V7.41406C11.448 8.41867 10.6336 9.2334 9.62891 9.2334V3.54785C9.62891 1.59165 11.2206 0 13.1768 0C14.223 5.78561e-05 15.1646 0.455786 15.8145 1.17871C16.4643 0.455834 17.4059 0.000118195 18.4521 0ZM6.79492 0C7.31161 0.000159331 7.7729 0.308736 7.9707 0.786133C8.16852 1.26362 8.06064 1.80819 7.69531 2.17383L2.5918 7.27734H6.82227C7.82704 7.27734 8.6416 8.0919 8.6416 9.09668H1.27441C0.757558 9.09668 0.295508 8.78801 0.0976562 8.31055C-0.100154 7.83298 0.00849575 7.28831 0.374023 6.92285L5.47656 1.81934H1.81934C0.814557 1.81934 0 1.00478 0 0H6.79492Z" fill="currentColor"/>
</svg>
