<svg width="24" height="24" viewBox="0 0 22 22" fill="none" xmlns="http://www.w3.org/2000/svg">
<g id="Vector-color">
<path d="M22 11C22 12.1763 21.9054 13.3297 21.7248 14.4544C21.1268 18.1776 18.1776 21.1268 14.4544 21.7248C13.3297 21.9054 12.1762 22 11 22C9.82377 22 8.67033 21.9054 7.54564 21.7248C3.82243 21.1268 0.873198 18.1776 0.275197 14.4544C0.0945587 13.3297 0 12.1763 0 11C0 9.82369 0.0945587 8.67026 0.275197 7.5456C0.873194 3.8224 3.82243 0.87318 7.54564 0.275197C8.67033 0.0945587 9.82377 0 11 0C12.1762 0 13.3297 0.0945587 14.4544 0.275197C18.1776 0.87318 21.1268 3.8224 21.7248 7.5456C21.9054 8.67026 22 9.82369 22 11Z" fill="url(#paint0_linear_0_248)"/>
<path d="M9.35322 14.3608H3.90919C3.52722 14.3608 3.18596 14.1327 3.03979 13.7798C2.89362 13.427 2.97371 13.0244 3.2438 12.7543L7.01468 8.98348H4.31202C3.56957 8.98348 2.9677 8.38161 2.9677 7.63916H7.9883C8.37023 7.63916 8.71148 7.86713 8.85766 8.22002C9.00386 8.5729 8.92383 8.97541 8.65377 9.24559L4.88288 13.0164H8.00891C8.75136 13.0164 9.35322 13.6183 9.35322 14.3608ZM19.0323 10.1598C19.0323 8.71429 17.8564 7.53833 16.4109 7.53833C15.6377 7.53833 14.9419 7.875 14.4616 8.40922C13.9814 7.875 13.2856 7.53833 12.5124 7.53833C11.0669 7.53833 9.89095 8.71429 9.89095 10.1598V14.3608C10.6334 14.3608 11.2353 13.7589 11.2353 13.0164V10.1598C11.2353 9.45557 11.8082 8.88266 12.5124 8.88266C13.2166 8.88266 13.7895 9.45557 13.7895 10.1598V13.0164C13.7895 13.7589 14.3914 14.3608 15.1338 14.3608V10.1598C15.1338 9.45557 15.7067 8.88265 16.4109 8.88265C17.1151 8.88265 17.688 9.45557 17.688 10.1598V13.0164C17.688 13.7589 18.2899 14.3608 19.0323 14.3608L19.0323 10.1598Z" fill="white"/>
</g>
<defs>
<linearGradient id="paint0_linear_0_248" x1="5.20653" y1="21.0346" x2="16.7935" y2="0.965415" gradientUnits="userSpaceOnUse">
<stop stop-color="#0845BF"/>
<stop offset="0.6" stop-color="#0B5CFF"/>
<stop offset="1" stop-color="#4F90EE"/>
</linearGradient>
</defs>
</svg>
