<svg width="24" height="24" viewBox="0 0 24 24" fill="none" xmlns="http://www.w3.org/2000/svg">
<path fill-rule="evenodd" clip-rule="evenodd" d="M8 2V5C8 5.55228 8.44772 6 9 6H15C15.5523 6 16 5.55228 16 5V2C16 1.44772 15.5523 1 15 1H9C8.44772 1 8 1.44772 8 2ZM21 20V6C21 4.34315 19.6569 3 18 3C17.4477 3 17 3.44772 17 4V6C17 6.55228 16.5523 7 16 7H12H8C7.44772 7 7 6.55228 7 6V4C7 3.44772 6.55228 3 6 3C4.34315 3 3 4.34315 3 6V20C3 21.6569 4.34315 23 6 23H18C19.6569 23 21 21.6569 21 20ZM15.9571 14.2071C16.3476 13.8166 16.3476 13.1834 15.9571 12.7929C15.5666 12.4024 14.9334 12.4024 14.5429 12.7929L10.75 16.5858L9.45711 15.2929C9.06658 14.9024 8.43342 14.9024 8.04289 15.2929C7.65237 15.6834 7.65237 16.3166 8.04289 16.7071L10.0429 18.7071C10.4334 19.0976 11.0666 19.0976 11.4571 18.7071L15.9571 14.2071Z" fill="currentColor"/>
</svg>
