<svg width="24" height="24" viewBox="0 0 24 24" fill="none" xmlns="http://www.w3.org/2000/svg">
<path fill-rule="evenodd" clip-rule="evenodd" d="M8 2V5C8 5.55228 8.44772 6 9 6H15C15.5523 6 16 5.55228 16 5V2C16 1.44772 15.5523 1 15 1H9C8.44772 1 8 1.44772 8 2ZM21 20V6C21 4.34315 19.6569 3 18 3C17.4477 3 17 3.44772 17 4V6C17 6.55228 16.5523 7 16 7H12H8C7.44772 7 7 6.55228 7 6V4C7 3.44772 6.55228 3 6 3C4.34315 3 3 4.34315 3 6V20C3 21.6569 4.34315 23 6 23H18C19.6569 23 21 21.6569 21 20ZM13.5 11C13.2239 11 13 11.2239 13 11.5V17C13 17.5523 12.5523 18 12 18C11.4477 18 11 17.5523 11 17V11.5C11 10.1193 12.1193 9 13.5 9C14.8807 9 16 10.1193 16 11.5V17C16 19.2091 14.2091 21 12 21C9.79086 21 8 19.2091 8 17V13C8 12.4477 8.44772 12 9 12C9.55228 12 10 12.4477 10 13V17C10 18.1046 10.8954 19 12 19C13.1046 19 14 18.1046 14 17V11.5C14 11.2239 13.7761 11 13.5 11Z" fill="currentColor"/>
</svg>
