<svg width="24" height="24" viewBox="0 0 24 24" fill="none" xmlns="http://www.w3.org/2000/svg">
<path fill-rule="evenodd" clip-rule="evenodd" d="M8 5V2C8 1.44772 8.44772 1 9 1H15C15.5523 1 16 1.44772 16 2V5C16 5.55228 15.5523 6 15 6H9C8.44772 6 8 5.55228 8 5ZM21 6V20C21 21.6569 19.6569 23 18 23H6C4.34315 23 3 21.6569 3 20V6C3 4.34315 4.34315 3 6 3C6.55228 3 7 3.44772 7 4V6C7 6.55228 7.44772 7 8 7H12H16C16.5523 7 17 6.55228 17 6V4C17 3.44772 17.4477 3 18 3C19.6569 3 21 4.34315 21 6Z" fill="currentColor"/>
</svg>
