<svg width="24" height="24" viewBox="0 0 24 24" fill="none" xmlns="http://www.w3.org/2000/svg">
<path fill-rule="evenodd" clip-rule="evenodd" d="M8 2V5C8 5.55228 8.44772 6 9 6H15C15.5523 6 16 5.55228 16 5V2C16 1.44772 15.5523 1 15 1H9C8.44772 1 8 1.44772 8 2ZM21 20V6C21 4.34315 19.6569 3 18 3C17.4477 3 17 3.44772 17 4V6C17 6.55228 16.5523 7 16 7H12H8C7.44772 7 7 6.55228 7 6V4C7 3.44772 6.55228 3 6 3C4.34315 3 3 4.34315 3 6V20C3 21.6569 4.34315 23 6 23H18C19.6569 23 21 21.6569 21 20ZM12 11C12.5523 11 13 11.4477 13 12V14H15C15.5523 14 16 14.4477 16 15C16 15.5523 15.5523 16 15 16H13V18C13 18.5523 12.5523 19 12 19C11.4477 19 11 18.5523 11 18V16H9C8.44772 16 8 15.5523 8 15C8 14.4477 8.44772 14 9 14H11V12C11 11.4477 11.4477 11 12 11Z" fill="currentColor"/>
</svg>
