<svg width="24" height="24" viewBox="0 0 24 24" fill="none" xmlns="http://www.w3.org/2000/svg">
<path fill-rule="evenodd" clip-rule="evenodd" d="M8 2V5C8 5.55228 8.44772 6 9 6H15C15.5523 6 16 5.55228 16 5V2C16 1.44772 15.5523 1 15 1H9C8.44772 1 8 1.44772 8 2ZM21 20V6C21 4.34315 19.6569 3 18 3C17.4477 3 17 3.44772 17 4V6C17 6.55228 16.5523 7 16 7H12H8C7.44772 7 7 6.55228 7 6V4C7 3.44772 6.55228 3 6 3C4.34315 3 3 4.34315 3 6V20C3 21.6569 4.34315 23 6 23H18C19.6569 23 21 21.6569 21 20ZM13 12C13 11.4477 12.5523 11 12 11C11.4477 11 11 11.4477 11 12V15.5858L9.70711 14.2929C9.31658 13.9024 8.68342 13.9024 8.29289 14.2929C7.90237 14.6834 7.90237 15.3166 8.29289 15.7071L11.2929 18.7071C11.6834 19.0976 12.3166 19.0976 12.7071 18.7071L15.7071 15.7071C16.0976 15.3166 16.0976 14.6834 15.7071 14.2929C15.3166 13.9024 14.6834 13.9024 14.2929 14.2929L13 15.5858V12Z" fill="currentColor"/>
</svg>
