<svg width="24" height="24" viewBox="0 0 24 24" fill="none" xmlns="http://www.w3.org/2000/svg">
<path fill-rule="evenodd" clip-rule="evenodd" d="M8 5V2C8 1.44772 8.44772 1 9 1H15C15.5523 1 16 1.44772 16 2V5C16 5.55228 15.5523 6 15 6H9C8.44772 6 8 5.55228 8 5ZM21 6V20C21 21.6569 19.6569 23 18 23H6C4.34315 23 3 21.6569 3 20V6C3 4.34315 4.34315 3 6 3C6.55228 3 7 3.44772 7 4V6C7 6.55228 7.44772 7 8 7H12H16C16.5523 7 17 6.55228 17 6V4C17 3.44772 17.4477 3 18 3C19.6569 3 21 4.34315 21 6ZM6 13C6 12.4477 6.44772 12 7 12H8C8.55228 12 9 12.4477 9 13C9 13.5523 8.55228 14 8 14H7C6.44772 14 6 13.5523 6 13ZM11 12C10.4477 12 10 12.4477 10 13C10 13.5523 10.4477 14 11 14H17C17.5523 14 18 13.5523 18 13C18 12.4477 17.5523 12 17 12H11ZM11 16C10.4477 16 10 16.4477 10 17C10 17.5523 10.4477 18 11 18H17C17.5523 18 18 17.5523 18 17C18 16.4477 17.5523 16 17 16H11ZM7 16C6.44772 16 6 16.4477 6 17C6 17.5523 6.44772 18 7 18H8C8.55228 18 9 17.5523 9 17C9 16.4477 8.55228 16 8 16H7Z" fill="currentColor"/>
</svg>
