<svg width="24" height="24" viewBox="0 0 24 24" fill="none" xmlns="http://www.w3.org/2000/svg">
<path fill-rule="evenodd" clip-rule="evenodd" d="M8 2V5C8 5.55228 8.44772 6 9 6H15C15.5523 6 16 5.55228 16 5V2C16 1.44772 15.5523 1 15 1H9C8.44772 1 8 1.44772 8 2ZM21 20V6C21 4.34315 19.6569 3 18 3C17.4477 3 17 3.44772 17 4V6C17 6.55228 16.5523 7 16 7H12H8C7.44772 7 7 6.55228 7 6V4C7 3.44772 6.55228 3 6 3C4.34315 3 3 4.34315 3 6V20C3 21.6569 4.34315 23 6 23H18C19.6569 23 21 21.6569 21 20ZM14.9571 12.5429C15.3476 12.9334 15.3476 13.5666 14.9571 13.9571L13.4142 15.5L14.9571 17.0429C15.3476 17.4334 15.3476 18.0666 14.9571 18.4571C14.5666 18.8476 13.9334 18.8476 13.5429 18.4571L12 16.9142L10.4571 18.4571C10.0666 18.8476 9.43342 18.8476 9.04289 18.4571C8.65237 18.0666 8.65237 17.4334 9.04289 17.0429L10.5858 15.5L9.04289 13.9571C8.65237 13.5666 8.65237 12.9334 9.04289 12.5429C9.43342 12.1524 10.0666 12.1524 10.4571 12.5429L12 14.0858L13.5429 12.5429C13.9334 12.1524 14.5666 12.1524 14.9571 12.5429Z" fill="currentColor"/>
</svg>
