<svg width="24" height="24" viewBox="0 0 24 24" fill="none" xmlns="http://www.w3.org/2000/svg">
<path fill-rule="evenodd" clip-rule="evenodd" d="M3 20V4C3 2.34315 4.34315 1 6 1H13.7564C14.2919 1 14.805 1.21471 15.1808 1.59605L20.4244 6.91602C20.7932 7.29023 21 7.79454 21 8.31997V11.7862C20.9066 11.7515 20.8104 11.7161 20.7127 11.6806C20.3501 11.5488 19.9368 11.4042 19.5619 11.2889C19.3764 11.2318 19.1669 11.1715 18.9596 11.1227C18.8185 11.0895 18.4352 11 18 11C17.5648 11 17.1815 11.0895 17.0404 11.1227C16.8331 11.1715 16.6236 11.2318 16.4381 11.2889C16.0632 11.4042 15.6499 11.5488 15.2873 11.6806C14.9181 11.8149 14.5696 11.9477 14.3155 12.046C14.1877 12.0955 14.0822 12.1369 14.0078 12.1662L13.9204 12.2008L13.8858 12.2146C13.4468 12.3902 13.0661 12.662 12.7639 13H12.7395H12.715H12.6904H12.6659H12.6413H12.6168H12.5922H12.5676H12.543H12.5184H12.4938H12.4691H12.4445H12.4199H12.3952H12.3705H12.3459H12.3212H12.2965H12.2718H12.2471H12.2224H12.1977H12.173H12.1483H12.1236H12.0989H12.0742H12.0494H12.0247H12H11.9753H11.9506H11.9258H11.9011H11.8764H11.8517H11.827H11.8023H11.7776H11.7529H11.7282H11.7035H11.6788H11.6541H11.6295H11.6048H11.5801H11.5555H11.5309H11.5062H11.4816H11.457H11.4324H11.4078H11.3832H11.3587H11.3341H11.3096H11.285H11.2605H11.236H11.2115H11.1871H11.1626H11.1382H11.1138H11.0894H11.065H11.0406H11.0163H10.9919H10.9676H10.9433H10.919H10.8948H10.8706H10.8464H10.8222H10.798H10.7739H10.7498H10.7257H10.7016H10.6776H10.6536H10.6296H10.6056H10.5817H10.5578H10.5339H10.51H10.4862H10.4624H10.4387H10.4149H10.3912H10.3675H10.3439H10.3203H10.2967H10.2732H10.2497H10.2262H10.2028H10.1794H10.156H10.1327H10.1094H10.0861H10.0629H10.0397H10.0166H9.99348H9.97042H9.94739H9.92441H9.90146H9.87856H9.8557H9.83288H9.81011H9.78738H9.76469H9.74205H9.71945H9.69689H9.67439H9.65192H9.62951H9.60714H9.58482H9.56254H9.54032H9.51814H9.49602H9.47394H9.45191H9.42994H9.40802H9.38614H9.36432H9.34256H9.32084H9.29918H9.27758H9.25602H9.23453H9.21309H9.1917H9.17037H9.1491H9.12789H9.10673H9.08564H9.0646H9.04362H9.0227H9.00184H8.98104H8.96031H8.93963H8.91902H8.89847H8.87798H8.85756H8.8372H8.8169H8.79667H8.77651H8.75641H8.73638H8.71642H8.69652H8.67669H8.65693H8.63724H8.61762H8.59806H8.57858H8.55917H8.53983H8.52056H8.50137H8.48224H8.46319H8.44422H8.42531H8.40649H8.38773H8.36906H8.35045H8.33193H8.31348H8.29511H8.27682H8.25861H8.24047H8.22241H8.20444H8.18654H8.16873H8.15099H8.13334H8.11577H8.09828H8.08088H8.06356H8.04632H8.02917H8.0121H7.99512H7.97823H7.96142H7.9447H7.92806H7.91152H7.89506H7.87869H7.86241H7.84622H7.83012H7.81411H7.79819H7.78237H7.76663H7.75099H7.73544H7.71999H7.70463H7.68936H7.67419H7.65911H7.64413H7.62925H7.61446H7.59977H7.58518H7.57069H7.5563H7.542H7.52781H7.51371H7.49972H7.48583H7.47203H7.45835H7.44476H7.43128H7.4179H7.40462H7.39145H7.37838H7.36542H7.35257H7.33982H7.32718H7.31464H7.30222H7.2899H7.27769H7.26559H7.2536H7.24172H7.22995H7.2183H7.20675H7.19531H7.18399H7.17278H7.16169H7.15071H7.13984H7.12909H7.11845H7.10793H7.09753H7.08724H7.07707H7.06702H7.05709H7.04728H7.03758H7.028H7.01855H7.00921H7C6.44772 13 6 13.4477 6 14C6 14.5523 6.44772 15 7 15H7.00921H7.01855H7.028H7.03758H7.04728H7.05709H7.06702H7.07707H7.08724H7.09753H7.10793H7.11845H7.12909H7.13984H7.15071H7.16169H7.17278H7.18399H7.19531H7.20675H7.2183H7.22995H7.24172H7.2536H7.26559H7.27769H7.2899H7.30222H7.31464H7.32718H7.33982H7.35257H7.36542H7.37838H7.39145H7.40462H7.4179H7.43128H7.44476H7.45835H7.47203H7.48583H7.49972H7.51371H7.52781H7.542H7.5563H7.57069H7.58518H7.59977H7.61446H7.62925H7.64413H7.65911H7.67419H7.68936H7.70463H7.71999H7.73544H7.75099H7.76663H7.78237H7.79819H7.81411H7.83012H7.84622H7.86241H7.87869H7.89506H7.91152H7.92806H7.9447H7.96142H7.97823H7.99512H8.0121H8.02917H8.04632H8.06356H8.08088H8.09828H8.11577H8.13334H8.15099H8.16873H8.18654H8.20444H8.22241H8.24047H8.25861H8.27682H8.29511H8.31348H8.33193H8.35045H8.36906H8.38773H8.40649H8.42531H8.44422H8.46319H8.48224H8.50137H8.52056H8.53983H8.55917H8.57858H8.59806H8.61762H8.63724H8.65693H8.67669H8.69652H8.71642H8.73638H8.75641H8.77651H8.79667H8.8169H8.8372H8.85756H8.87798H8.89847H8.91902H8.93963H8.96031H8.98104H9.00184H9.0227H9.04362H9.0646H9.08564H9.10673H9.12789H9.1491H9.17037H9.1917H9.21309H9.23453H9.25602H9.27758H9.29918H9.32084H9.34256H9.36432H9.38614H9.40802H9.42994H9.45191H9.47394H9.49602H9.51814H9.54032H9.56254H9.58482H9.60714H9.62951H9.65192H9.67439H9.69689H9.71945H9.74205H9.76469H9.78738H9.81011H9.83288H9.8557H9.87856H9.90146H9.92441H9.94739H9.97042H9.99348H10.0166H10.0397H10.0629H10.0861H10.1094H10.1327H10.156H10.1794H10.2028H10.2262H10.2497H10.2732H10.2967H10.3203H10.3439H10.3675H10.3912H10.4149H10.4387H10.4624H10.4862H10.51H10.5339H10.5578H10.5817H10.6056H10.6296H10.6536H10.6776H10.7016H10.7257H10.7498H10.7739H10.798H10.8222H10.8464H10.8706H10.8948H10.919H10.9433H10.9676H10.9919H11.0163H11.0406H11.065H11.0894H11.1138H11.1382H11.1626H11.1871H11.2115H11.236H11.2605H11.285H11.3096H11.3341H11.3587H11.3832H11.4078H11.4324H11.457H11.4816H11.5062H11.5309H11.5555H11.5801H11.6048H11.6295H11.6541H11.6788H11.7035H11.7282H11.7529H11.7776H11.8023H11.827H11.8517H11.8764H11.9011H11.9258H11.9506H11.9753H12V17H11.9753H11.9506H11.9258H11.9011H11.8764H11.8517H11.827H11.8023H11.7776H11.7529H11.7282H11.7035H11.6788H11.6541H11.6295H11.6048H11.5801H11.5555H11.5309H11.5062H11.4816H11.457H11.4324H11.4078H11.3832H11.3587H11.3341H11.3096H11.285H11.2605H11.236H11.2115H11.1871H11.1626H11.1382H11.1138H11.0894H11.065H11.0406H11.0163H10.9919H10.9676H10.9433H10.919H10.8948H10.8706H10.8464H10.8222H10.798H10.7739H10.7498H10.7257H10.7016H10.6776H10.6536H10.6296H10.6056H10.5817H10.5578H10.5339H10.51H10.4862H10.4624H10.4387H10.4149H10.3912H10.3675H10.3439H10.3203H10.2967H10.2732H10.2497H10.2262H10.2028H10.1794H10.156H10.1327H10.1094H10.0861H10.0629H10.0397H10.0166H9.99348H9.97042H9.94739H9.92441H9.90146H9.87856H9.8557H9.83288H9.81011H9.78738H9.76469H9.74205H9.71945H9.69689H9.67439H9.65192H9.62951H9.60714H9.58482H9.56254H9.54032H9.51814H9.49602H9.47394H9.45191H9.42994H9.40802H9.38614H9.36432H9.34256H9.32084H9.29918H9.27758H9.25602H9.23453H9.21309H9.1917H9.17037H9.1491H9.12789H9.10673H9.08564H9.0646H9.04362H9.0227H9.00184H8.98104H8.96031H8.93963H8.91902H8.89847H8.87798H8.85756H8.8372H8.8169H8.79667H8.77651H8.75641H8.73638H8.71642H8.69652H8.67669H8.65693H8.63724H8.61762H8.59806H8.57858H8.55917H8.53983H8.52056H8.50137H8.48224H8.46319H8.44422H8.42531H8.40649H8.38773H8.36906H8.35045H8.33193H8.31348H8.29511H8.27682H8.25861H8.24047H8.22241H8.20444H8.18654H8.16873H8.15099H8.13334H8.11577H8.09828H8.08088H8.06356H8.04632H8.02917H8.0121H7.99512H7.97823H7.96142H7.9447H7.92806H7.91152H7.89506H7.87869H7.86241H7.84622H7.83012H7.81411H7.79819H7.78237H7.76663H7.75099H7.73544H7.71999H7.70463H7.68936H7.67419H7.65911H7.64413H7.62925H7.61446H7.59977H7.58518H7.57069H7.5563H7.542H7.52781H7.51371H7.49972H7.48583H7.47203H7.45835H7.44476H7.43128H7.4179H7.40462H7.39145H7.37838H7.36542H7.35257H7.33982H7.32718H7.31464H7.30222H7.2899H7.27769H7.26559H7.2536H7.24172H7.22995H7.2183H7.20675H7.19531H7.18399H7.17278H7.16169H7.15071H7.13984H7.12909H7.11845H7.10793H7.09753H7.08724H7.07707H7.06702H7.05709H7.04728H7.03758H7.028H7.01855H7.00921H7C6.44772 17 6 17.4477 6 18C6 18.5523 6.44772 19 7 19H7.00921H7.01855H7.028H7.03758H7.04728H7.05709H7.06702H7.07707H7.08724H7.09753H7.10793H7.11845H7.12909H7.13984H7.15071H7.16169H7.17278H7.18399H7.19531H7.20675H7.2183H7.22995H7.24172H7.2536H7.26559H7.27769H7.2899H7.30222H7.31464H7.32718H7.33982H7.35257H7.36542H7.37838H7.39145H7.40462H7.4179H7.43128H7.44476H7.45835H7.47203H7.48583H7.49972H7.51371H7.52781H7.542H7.5563H7.57069H7.58518H7.59977H7.61446H7.62925H7.64413H7.65911H7.67419H7.68936H7.70463H7.71999H7.73544H7.75099H7.76663H7.78237H7.79819H7.81411H7.83012H7.84622H7.86241H7.87869H7.89506H7.91152H7.92806H7.9447H7.96142H7.97823H7.99512H8.0121H8.02917H8.04632H8.06356H8.08088H8.09828H8.11577H8.13334H8.15099H8.16873H8.18654H8.20444H8.22241H8.24047H8.25861H8.27682H8.29511H8.31348H8.33193H8.35045H8.36906H8.38773H8.40649H8.42531H8.44422H8.46319H8.48224H8.50137H8.52056H8.53983H8.55917H8.57858H8.59806H8.61762H8.63724H8.65693H8.67669H8.69652H8.71642H8.73638H8.75641H8.77651H8.79667H8.8169H8.8372H8.85756H8.87798H8.89847H8.91902H8.93963H8.96031H8.98104H9.00184H9.0227H9.04362H9.0646H9.08564H9.10673H9.12789H9.1491H9.17037H9.1917H9.21309H9.23453H9.25602H9.27758H9.29918H9.32084H9.34256H9.36432H9.38614H9.40802H9.42994H9.45191H9.47394H9.49602H9.51814H9.54032H9.56254H9.58482H9.60714H9.62951H9.65192H9.67439H9.69689H9.71945H9.74205H9.76469H9.78738H9.81011H9.83288H9.8557H9.87856H9.90146H9.92441H9.94739H9.97042H9.99348H10.0166H10.0397H10.0629H10.0861H10.1094H10.1327H10.156H10.1794H10.2028H10.2262H10.2497H10.2732H10.2967H10.3203H10.3439H10.3675H10.3912H10.4149H10.4387H10.4624H10.4862H10.51H10.5339H10.5578H10.5817H10.6056H10.6296H10.6536H10.6776H10.7016H10.7257H10.7498H10.7739H10.798H10.8222H10.8464H10.8706H10.8948H10.919H10.9433H10.9676H10.9919H11.0163H11.0406H11.065H11.0894H11.1138H11.1382H11.1626H11.1871H11.2115H11.236H11.2605H11.285H11.3096H11.3341H11.3587H11.3832H11.4078H11.4324H11.457H11.4816H11.5062H11.5309H11.5555H11.5801H11.6048H11.6295H11.6541H11.6788H11.7035H11.7282H11.7529H11.7776H11.8023H11.827H11.8517H11.8764H11.9011H11.9258H11.9506H11.9753H12H12.0247H12.0494H12.0742H12.0989H12.1236H12.1483H12.173H12.1977H12.2224H12.2247C12.7213 20.6282 13.9202 21.7553 14.5794 22.3047C14.9053 22.5762 15.2251 22.809 15.5086 23H6C4.34315 23 3 21.6569 3 20ZM14 7V3L19 8H15C14.4477 8 14 7.55228 14 7ZM7 9C6.44772 9 6 9.44771 6 10C6 10.5523 6.44772 11 7 11H7.00912H7.01818H7.02718H7.03612H7.045H7.05382H7.06258H7.07128H7.07992H7.08849H7.09702H7.10548H7.11388H7.12223H7.13051H7.13874H7.14691H7.15503H7.16308H7.17108H7.17902H7.18691H7.19474H7.20252H7.21023H7.2179H7.22551H7.23306H7.24056H7.248H7.25539H7.26272H7.27001H7.27723H7.28441H7.29153H7.2986H7.30562H7.31258H7.31949H7.32635H7.33316H7.33992H7.34662H7.35328H7.35988H7.36643H7.37294H7.37939H7.38579H7.39215H7.39845H7.40471H7.41092H7.41708H7.42319H7.42925H7.43526H7.44123H7.44715H7.45302H7.45885H7.46463H7.47036H7.47605H7.48169H7.48728H7.49283H7.49834H7.5038H7.50921H7.51458H7.51991H7.52519H7.53043H7.53563H7.54078H7.54589H7.55095H7.55598H7.56096H7.5659H7.5708H7.57565H7.58047H7.58524H7.58998H7.59467H7.59932H7.60393H7.6085H7.61304H7.61753H7.62198H7.6264H7.63077H7.63511H7.63941H7.64367H7.6479H7.65209H7.65623H7.66035H7.66442H7.66846H7.67246H7.67643H7.68036H7.68426H7.68812H7.69194H7.69573H7.69949H7.70321H7.7069H7.71055H7.71417H7.71776H7.72131H7.72483H7.72832H7.73178H7.7352H7.73859H7.74195H7.74528H7.74857H7.75184H7.75507H7.75828H7.76145H7.7646H7.76771H7.7708H7.77385H7.77688H7.77988H7.78285H7.78579H7.7887H7.79159H7.79444H7.79727H7.80008H7.80285H7.8056H7.80832H7.81102H7.81369H7.81634H7.81896H7.82155H7.82412H7.82666H7.82918H7.83168H7.83415H7.8366H7.83902H7.84142H7.8438H7.84616H7.84849H7.8508H7.85309H7.85536H7.8576H7.85982H7.86203H7.86421H7.86637H7.86851H7.87063H7.87273H7.87481H7.87687H7.87891H7.88094H7.88294H7.88493H7.88689H7.88884H7.89078H7.89269H7.89459H7.89647H7.89833H7.90018H7.90201H7.90382H7.90562H7.9074H7.90917H7.91092H7.91266H7.91438H7.91609H7.91778H7.91946H7.92113H7.92278H7.92442H7.92605H7.92766H7.92926H7.93085H7.93243H7.93399H7.93555H7.93709H7.93862H7.94014H7.94165H7.94315H7.94464H7.94612H7.94759H7.94905H7.9505H7.95195H7.95338H7.95481H7.95623H7.95763H7.95904H7.96043H7.96182H7.9632H7.96457H7.96594H7.9673H7.96866H7.97001H7.97135H7.97269H7.97402H7.97535H7.97667H7.97799H7.97931H7.98062H7.98193H7.98323H7.98454H7.98583H7.98713H7.98842H7.98972H7.99101H7.99229H7.99358H7.99487H7.99615H7.99743H7.99872H8H8.00128H8.00257H8.00385H8.00513H8.00642H8.00771H8.00899H8.01028H8.01158H8.01287H8.01417H8.01546H8.01677H8.01807H8.01938H8.02069H8.02201H8.02333H8.02465H8.02598H8.02731H8.02865H8.02999H8.03134H8.0327H8.03406H8.03543H8.0368H8.03818H8.03957H8.04096H8.04237H8.04377H8.04519H8.04662H8.04805H8.0495H8.05095H8.05241H8.05388H8.05536H8.05685H8.05835H8.05986H8.06138H8.06291H8.06445H8.06601H8.06757H8.06915H8.07074H8.07234H8.07395H8.07558H8.07722H8.07887H8.08054H8.08222H8.08391H8.08562H8.08734H8.08908H8.09083H8.0926H8.09438H8.09618H8.09799H8.09982H8.10167H8.10353H8.10541H8.10731H8.10922H8.11116H8.11311H8.11507H8.11706H8.11906H8.12109H8.12313H8.12519H8.12727H8.12937H8.13149H8.13363H8.13579H8.13797H8.14018H8.1424H8.14464H8.14691H8.1492H8.15151H8.15384H8.1562H8.15858H8.16098H8.1634H8.16585H8.16832H8.17082H8.17334H8.17588H8.17845H8.18104H8.18366H8.18631H8.18898H8.19168H8.1944H8.19715H8.19992H8.20273H8.20556H8.20841H8.2113H8.21421H8.21715H8.22012H8.22312H8.22615H8.2292H8.23229H8.2354H8.23855H8.24172H8.24493H8.24816H8.25143H8.25472H8.25805H8.26141H8.2648H8.26822H8.27168H8.27517H8.27869H8.28224H8.28583H8.28945H8.2931H8.29679H8.30051H8.30427H8.30806H8.31188H8.31574H8.31964H8.32357H8.32754H8.33154H8.33558H8.33965H8.34377H8.34791H8.3521H8.35633H8.36059H8.36489H8.36923H8.3736H8.37802H8.38247H8.38696H8.3915H8.39607H8.40068H8.40533H8.41002H8.41476H8.41953H8.42435H8.4292H8.4341H8.43904H8.44402H8.44905H8.45411H8.45922H8.46437H8.46957H8.47481H8.48009H8.48542H8.49079H8.4962H8.50166H8.50717H8.51272H8.51831H8.52395H8.52964H8.53537H8.54115H8.54698H8.55285H8.55877H8.56474H8.57075H8.57681H8.58292H8.58908H8.59529H8.60155H8.60785H8.61421H8.62061H8.62706H8.63357H8.64012H8.64672H8.65338H8.66008H8.66684H8.67365H8.68051H8.68742H8.69438H8.7014H8.70847H8.71559H8.72277H8.72999H8.73728H8.74461H8.752H8.75944H8.76694H8.77449H8.7821H8.78977H8.79748H8.80526H8.81309H8.82098H8.82892H8.83692H8.84497H8.85309H8.86126H8.86949H8.87777H8.88612H8.89452H8.90298H8.91151H8.92008H8.92872H8.93742H8.94618H8.955H8.96388H8.97282H8.98182H8.99088H9C9.55228 11 10 10.5523 10 10C10 9.44771 9.55228 9 9 9H8.99088H8.98182H8.97282H8.96388H8.955H8.94618H8.93742H8.92872H8.92008H8.91151H8.90298H8.89452H8.88612H8.87777H8.86949H8.86126H8.85309H8.84497H8.83692H8.82892H8.82098H8.81309H8.80526H8.79748H8.78977H8.7821H8.77449H8.76694H8.75944H8.752H8.74461H8.73728H8.72999H8.72277H8.71559H8.70847H8.7014H8.69438H8.68742H8.68051H8.67365H8.66684H8.66008H8.65338H8.64672H8.64012H8.63357H8.62706H8.62061H8.61421H8.60785H8.60155H8.59529H8.58908H8.58292H8.57681H8.57075H8.56474H8.55877H8.55285H8.54698H8.54115H8.53537H8.52964H8.52395H8.51831H8.51272H8.50717H8.50166H8.4962H8.49079H8.48542H8.48009H8.47481H8.46957H8.46437H8.45922H8.45411H8.44905H8.44402H8.43904H8.4341H8.4292H8.42435H8.41953H8.41476H8.41002H8.40533H8.40068H8.39607H8.3915H8.38696H8.38247H8.37802H8.3736H8.36923H8.36489H8.36059H8.35633H8.3521H8.34791H8.34377H8.33965H8.33558H8.33154H8.32754H8.32357H8.31964H8.31574H8.31188H8.30806H8.30427H8.30051H8.29679H8.2931H8.28945H8.28583H8.28224H8.27869H8.27517H8.27168H8.26822H8.2648H8.26141H8.25805H8.25472H8.25143H8.24816H8.24493H8.24172H8.23855H8.2354H8.23229H8.2292H8.22615H8.22312H8.22012H8.21715H8.21421H8.2113H8.20841H8.20556H8.20273H8.19992H8.19715H8.1944H8.19168H8.18898H8.18631H8.18366H8.18104H8.17845H8.17588H8.17334H8.17082H8.16832H8.16585H8.1634H8.16098H8.15858H8.1562H8.15384H8.15151H8.1492H8.14691H8.14464H8.1424H8.14018H8.13797H8.13579H8.13363H8.13149H8.12937H8.12727H8.12519H8.12313H8.12109H8.11906H8.11706H8.11507H8.11311H8.11116H8.10922H8.10731H8.10541H8.10353H8.10167H8.09982H8.09799H8.09618H8.09438H8.0926H8.09083H8.08908H8.08734H8.08562H8.08391H8.08222H8.08054H8.07887H8.07722H8.07558H8.07395H8.07234H8.07074H8.06915H8.06757H8.06601H8.06445H8.06291H8.06138H8.05986H8.05835H8.05685H8.05536H8.05388H8.05241H8.05095H8.0495H8.04805H8.04662H8.04519H8.04377H8.04237H8.04096H8.03957H8.03818H8.0368H8.03543H8.03406H8.0327H8.03134H8.02999H8.02865H8.02731H8.02598H8.02465H8.02333H8.02201H8.02069H8.01938H8.01807H8.01677H8.01546H8.01417H8.01287H8.01158H8.01028H8.00899H8.00771H8.00642H8.00513H8.00385H8.00257H8.00128H8H7.99872H7.99743H7.99615H7.99487H7.99358H7.99229H7.99101H7.98972H7.98842H7.98713H7.98583H7.98454H7.98323H7.98193H7.98062H7.97931H7.97799H7.97667H7.97535H7.97402H7.97269H7.97135H7.97001H7.96866H7.9673H7.96594H7.96457H7.9632H7.96182H7.96043H7.95904H7.95763H7.95623H7.95481H7.95338H7.95195H7.9505H7.94905H7.94759H7.94612H7.94464H7.94315H7.94165H7.94014H7.93862H7.93709H7.93555H7.93399H7.93243H7.93085H7.92926H7.92766H7.92605H7.92442H7.92278H7.92113H7.91946H7.91778H7.91609H7.91438H7.91266H7.91092H7.90917H7.9074H7.90562H7.90382H7.90201H7.90018H7.89833H7.89647H7.89459H7.89269H7.89078H7.88884H7.88689H7.88493H7.88294H7.88094H7.87891H7.87687H7.87481H7.87273H7.87063H7.86851H7.86637H7.86421H7.86203H7.85982H7.8576H7.85536H7.85309H7.8508H7.84849H7.84616H7.8438H7.84142H7.83902H7.8366H7.83415H7.83168H7.82918H7.82666H7.82412H7.82155H7.81896H7.81634H7.81369H7.81102H7.80832H7.8056H7.80285H7.80008H7.79727H7.79444H7.79159H7.7887H7.78579H7.78285H7.77988H7.77688H7.77385H7.7708H7.76771H7.7646H7.76145H7.75828H7.75507H7.75184H7.74857H7.74528H7.74195H7.73859H7.7352H7.73178H7.72832H7.72483H7.72131H7.71776H7.71417H7.71055H7.7069H7.70321H7.69949H7.69573H7.69194H7.68812H7.68426H7.68036H7.67643H7.67246H7.66846H7.66442H7.66035H7.65623H7.65209H7.6479H7.64367H7.63941H7.63511H7.63077H7.6264H7.62198H7.61753H7.61304H7.6085H7.60393H7.59932H7.59467H7.58998H7.58524H7.58047H7.57565H7.5708H7.5659H7.56096H7.55598H7.55095H7.54589H7.54078H7.53563H7.53043H7.52519H7.51991H7.51458H7.50921H7.5038H7.49834H7.49283H7.48728H7.48169H7.47605H7.47036H7.46463H7.45885H7.45302H7.44715H7.44123H7.43526H7.42925H7.42319H7.41708H7.41092H7.40471H7.39845H7.39215H7.38579H7.37939H7.37294H7.36643H7.35988H7.35328H7.34662H7.33992H7.33316H7.32635H7.31949H7.31258H7.30562H7.2986H7.29153H7.28441H7.27723H7.27001H7.26272H7.25539H7.248H7.24056H7.23306H7.22551H7.2179H7.21023H7.20252H7.19474H7.18691H7.17902H7.17108H7.16308H7.15503H7.14691H7.13874H7.13051H7.12223H7.11388H7.10548H7.09702H7.08849H7.07992H7.07128H7.06258H7.05382H7.045H7.03612H7.02718H7.01818H7.00912H7ZM18.4472 21.8944L18.4483 21.8939L18.4496 21.8932L18.4532 21.8914L18.4635 21.8862L18.4966 21.8691C18.5241 21.8547 18.5621 21.8345 18.6092 21.8087C18.7033 21.7572 18.8344 21.6829 18.9902 21.5877C19.2997 21.3985 19.7174 21.1206 20.1402 20.7682C20.9221 20.1166 22 18.9815 22 17.5V15C22 14.5911 21.751 14.2234 21.3714 14.0715L21.3411 14.0594L21.2585 14.0268C21.1875 13.9988 21.0859 13.9589 20.9626 13.9112C20.7164 13.8159 20.3815 13.6883 20.0292 13.5602C19.6792 13.4329 19.3018 13.3014 18.9738 13.2005C18.8103 13.1502 18.6481 13.104 18.5015 13.0696C18.377 13.0403 18.1867 13 18 13C17.8133 13 17.623 13.0403 17.4985 13.0696C17.3519 13.104 17.1897 13.1502 17.0262 13.2005C16.6982 13.3014 16.3208 13.4329 15.9708 13.5602C15.6185 13.6883 15.2836 13.8159 15.0374 13.9112C14.9141 13.9589 14.8125 13.9988 14.7415 14.0268L14.6589 14.0594L14.6286 14.0715C14.249 14.2234 14 14.5911 14 15V17.5C14 18.9815 15.0779 20.1166 15.8598 20.7682C16.2826 21.1206 16.7003 21.3985 17.0098 21.5877C17.1656 21.6829 17.2967 21.7572 17.3908 21.8087C17.4379 21.8345 17.4759 21.8547 17.5034 21.8691L17.5365 21.8862L17.5468 21.8914L17.5504 21.8932L17.5523 21.8942C17.8338 22.0349 18.1657 22.0352 18.4472 21.8944Z" fill="currentColor"/>
</svg>
