<svg width="24" height="24" viewBox="0 0 24 24" fill="none" xmlns="http://www.w3.org/2000/svg">
<path fill-rule="evenodd" clip-rule="evenodd" d="M3 20V4C3 2.34315 4.34315 1 6 1H13.7564C14.2919 1 14.805 1.21471 15.1808 1.59605L20.4244 6.91602C20.7932 7.29023 21 7.79454 21 8.31997V12.7639C20.4692 12.2889 19.7684 12 19 12C18.1115 12 17.3132 12.3863 16.7639 13H7C6.44772 13 6 13.4477 6 14C6 14.5523 6.44772 15 7 15H16C15.2322 15 14.4645 15.2929 13.8787 15.8787C13.5512 16.2062 13.3152 16.5905 13.1708 17H7C6.44772 17 6 17.4477 6 18C6 18.5523 6.44772 19 7 19H13.1708C13.3152 19.4095 13.5512 19.7938 13.8787 20.1213L16.7574 23H6C4.34315 23 3 21.6569 3 20ZM15 6V3L19 7H16C15.4477 7 15 6.55228 15 6ZM7 9C6.44772 9 6 9.44771 6 10C6 10.5523 6.44772 11 7 11H9C9.55228 11 10 10.5523 10 10C10 9.44771 9.55228 9 9 9H7ZM20 15C20 14.4477 19.5523 14 19 14C18.4477 14 18 14.4477 18 15V18.5858L16.7071 17.2929C16.3166 16.9024 15.6834 16.9024 15.2929 17.2929C14.9024 17.6834 14.9024 18.3166 15.2929 18.7071L18.2929 21.7071C18.6834 22.0976 19.3166 22.0976 19.7071 21.7071L22.7071 18.7071C23.0976 18.3166 23.0976 17.6834 22.7071 17.2929C22.3166 16.9024 21.6834 16.9024 21.2929 17.2929L20 18.5858V15Z" fill="currentColor"/>
</svg>
