<svg width="24" height="24" viewBox="0 0 24 24" fill="none" xmlns="http://www.w3.org/2000/svg">
<path fill-rule="evenodd" clip-rule="evenodd" d="M3 20V4C3 2.34315 4.34315 1 6 1H13.7564C14.2919 1 14.805 1.21471 15.1808 1.59605L20.4244 6.91602C20.7932 7.29023 21 7.79454 21 8.31997V13.7574L20.1213 12.8787C18.9497 11.7071 17.0503 11.7071 15.8787 12.8787L15.7574 13H7C6.44772 13 6 13.4477 6 14C6 14.5523 6.44772 15 7 15H13.7574L12.8787 15.8787C12.5512 16.2062 12.3152 16.5905 12.1708 17H7C6.44772 17 6 17.4477 6 18C6 18.5523 6.44772 19 7 19H12.1708C12.3152 19.4095 12.5512 19.7938 12.8787 20.1213C13.4645 20.7071 14.2322 21 15 21C15 21.7684 15.2889 22.4692 15.7639 23H6C4.34315 23 3 21.6569 3 20ZM15 6V3L19 7H16C15.4477 7 15 6.55228 15 6ZM7 9C6.44772 9 6 9.44771 6 10C6 10.5523 6.44772 11 7 11H9C9.55228 11 10 10.5523 10 10C10 9.44771 9.55228 9 9 9H7ZM17 17.4142V21C17 21.5523 17.4477 22 18 22C18.5523 22 19 21.5523 19 21V17.4142L20.2929 18.7071C20.6834 19.0976 21.3166 19.0976 21.7071 18.7071C22.0976 18.3166 22.0976 17.6834 21.7071 17.2929L18.7071 14.2929C18.3166 13.9024 17.6834 13.9024 17.2929 14.2929L14.2929 17.2929C13.9024 17.6834 13.9024 18.3166 14.2929 18.7071C14.6834 19.0976 15.3166 19.0976 15.7071 18.7071L17 17.4142Z" fill="currentColor"/>
</svg>
