<svg width="24" height="24" viewBox="0 0 24 24" fill="none" xmlns="http://www.w3.org/2000/svg">
<path fill-rule="evenodd" clip-rule="evenodd" d="M3 20V4C3 2.34315 4.34315 1 6 1H13.7564C14.2919 1 14.805 1.21471 15.1808 1.59605L20.4244 6.91602C20.7932 7.29023 21 7.79454 21 8.31997V10.7638C19.8221 9.70845 18.0106 9.74673 16.8787 10.8787C16.4681 11.2893 16.2014 11.7892 16.0786 12.316C15.5868 12.4822 15.1176 12.7119 14.6833 13H7C6.44772 13 6 13.4477 6 14C6 14.5523 6.44772 15 7 15H12.8038C12.4475 15.6172 12.2032 16.2944 12.0839 17H7C6.44772 17 6 17.4477 6 18C6 18.5523 6.44772 19 7 19H12.0839C12.2902 20.2203 12.8707 21.356 13.7574 22.2426C14.0422 22.5274 14.3526 22.7806 14.6833 23H6C4.34315 23 3 21.6569 3 20ZM15 6V3L19 7H16C15.4477 7 15 6.55228 15 6ZM7 9C6.44772 9 6 9.44771 6 10C6 10.5523 6.44772 11 7 11H9C9.55228 11 10 10.5523 10 10C10 9.44771 9.55228 9 9 9H7ZM18.5858 14L18.2929 13.7071C17.9024 13.3166 17.9024 12.6834 18.2929 12.2929C18.6834 11.9024 19.3166 11.9024 19.7071 12.2929L21.7071 14.2929C22.0976 14.6834 22.0976 15.3166 21.7071 15.7071L19.7071 17.7071C19.3166 18.0976 18.6834 18.0976 18.2929 17.7071C17.9024 17.3166 17.9024 16.6834 18.2929 16.2929L18.5858 16H18C17.4696 16 16.9609 16.2107 16.5858 16.5858C16.2107 16.9609 16 17.4696 16 18C16 18.5304 16.2107 19.0391 16.5858 19.4142C16.9609 19.7893 17.4696 20 18 20H19C19.5523 20 20 20.4477 20 21C20 21.5523 19.5523 22 19 22H18C16.9391 22 15.9217 21.5786 15.1716 20.8284C14.4214 20.0783 14 19.0609 14 18C14 16.9391 14.4214 15.9217 15.1716 15.1716C15.9217 14.4214 16.9391 14 18 14H18.5858Z" fill="currentColor"/>
</svg>
