<svg width="24" height="24" viewBox="0 0 24 24" fill="none" xmlns="http://www.w3.org/2000/svg">
<path fill-rule="evenodd" clip-rule="evenodd" d="M3 20V4C3 2.34315 4.34315 1 6 1H13.7564C14.2919 1 14.805 1.21471 15.1808 1.59605L20.4244 6.91602C20.7932 7.29023 21 7.79454 21 8.31997V13.5C20.2322 13.5 19.4645 13.7929 18.8787 14.3787L18.75 14.5074L18.6213 14.3787C18.4298 14.1872 18.2189 14.027 17.9949 13.8981C17.9438 13.3937 17.5179 13 17 13H7C6.44772 13 6 13.4477 6 14C6 14.5523 6.44772 15 7 15H13.9011C13.5475 15.6118 13.4277 16.3217 13.5417 17H7C6.44772 17 6 17.4477 6 18C6 18.5523 6.44772 19 7 19H14.2638C13.2454 20.1367 13.2454 21.8633 14.2638 23H6C4.34315 23 3 21.6569 3 20ZM15 6V3L19 7H16C15.4477 7 15 6.55228 15 6ZM7 9C6.44772 9 6 9.44771 6 10C6 10.5523 6.44772 11 7 11H9C9.55228 11 10 10.5523 10 10C10 9.44771 9.55228 9 9 9H7ZM21.7071 15.7929C22.0976 16.1834 22.0976 16.8166 21.7071 17.2071L20.1642 18.75L21.7071 20.2929C22.0976 20.6834 22.0976 21.3166 21.7071 21.7071C21.3166 22.0976 20.6834 22.0976 20.2929 21.7071L18.75 20.1642L17.2071 21.7071C16.8166 22.0976 16.1834 22.0976 15.7929 21.7071C15.4024 21.3166 15.4024 20.6834 15.7929 20.2929L17.3358 18.75L15.7929 17.2071C15.4024 16.8166 15.4024 16.1834 15.7929 15.7929C16.1834 15.4024 16.8166 15.4024 17.2071 15.7929L18.75 17.3358L20.2929 15.7929C20.6834 15.4024 21.3166 15.4024 21.7071 15.7929Z" fill="currentColor"/>
</svg>
