<svg width="24" height="24" viewBox="0 0 24 24" fill="none" xmlns="http://www.w3.org/2000/svg">
<path fill-rule="evenodd" clip-rule="evenodd" d="M3 20V4C3 2.34315 4.34315 1 6 1H13.7564C14.2919 1 14.805 1.21471 15.1808 1.59605L20.4244 6.91602C20.7932 7.29023 21 7.79454 21 8.31997V20C21 21.6569 19.6569 23 18 23H6C4.34315 23 3 21.6569 3 20ZM15 6V3L19 7H16C15.4477 7 15 6.55228 15 6ZM12.7 11.7C12.7 11.3134 12.3866 11 12 11C11.6134 11 11.3 11.3134 11.3 11.7V12.1H11.1667C9.8868 12.1 8.8 13.1031 8.8 14.4C8.8 15.6969 9.8868 16.7 11.1667 16.7H12H12.8333C13.3944 16.7 13.8 17.1296 13.8 17.6C13.8 18.0704 13.3944 18.5 12.8333 18.5H12H11.1667C10.6972 18.5 10.3291 18.1936 10.2286 17.8187C10.1285 17.4453 9.74465 17.2238 9.37123 17.3239C8.99782 17.424 8.77627 17.8079 8.87639 18.1813C9.14591 19.1865 10.0829 19.9 11.1667 19.9H11.3V20.3C11.3 20.6866 11.6134 21 12 21C12.3866 21 12.7 20.6866 12.7 20.3V19.9H12.8333C14.1132 19.9 15.2 18.8969 15.2 17.6C15.2 16.3031 14.1132 15.3 12.8333 15.3H12H11.1667C10.6056 15.3 10.2 14.8704 10.2 14.4C10.2 13.9296 10.6056 13.5 11.1667 13.5H12H12.8333C13.3028 13.5 13.6709 13.8064 13.7714 14.1813C13.8715 14.5547 14.2554 14.7762 14.6288 14.6761C15.0022 14.576 15.2237 14.1921 15.1236 13.8187C14.8541 12.8135 13.9171 12.1 12.8333 12.1H12.7V11.7ZM5 5C5 4.44772 5.44772 4 6 4H10C10.5523 4 11 4.44772 11 5C11 5.55228 10.5523 6 10 6H6C5.44772 6 5 5.55228 5 5ZM6 8C5.44772 8 5 8.44772 5 9C5 9.55229 5.44772 10 6 10H10C10.5523 10 11 9.55229 11 9C11 8.44772 10.5523 8 10 8H6Z" fill="currentColor"/>
</svg>
