<svg width="24" height="24" viewBox="0 0 24 24" fill="none" xmlns="http://www.w3.org/2000/svg">
<path fill-rule="evenodd" clip-rule="evenodd" d="M3 20V4C3 2.34315 4.34315 1 6 1H13.7564C14.2919 1 14.805 1.21471 15.1808 1.59605L20.4244 6.91602C20.7932 7.29023 21 7.79454 21 8.31997V20C21 21.6569 19.6569 23 18 23H6C4.34315 23 3 21.6569 3 20ZM15 6.00003V3.00003L19 7.00003H16C15.4477 7.00003 15 6.55232 15 6.00003ZM7 9C6.44772 9 6 9.44771 6 10C6 10.5523 6.44772 11 7 11H9C9.55228 11 10 10.5523 10 10C10 9.44771 9.55228 9 9 9H7ZM7 13C6.44772 13 6 13.4477 6 14C6 14.5523 6.44772 15 7 15H17C17.5523 15 18 14.5523 18 14C18 13.4477 17.5523 13 17 13H7ZM6 18C6 17.4477 6.44772 17 7 17H17C17.5523 17 18 17.4477 18 18C18 18.5523 17.5523 19 17 19H7C6.44772 19 6 18.5523 6 18Z" fill="currentColor"/>
</svg>
