<svg width="24" height="24" viewBox="0 0 24 24" fill="none" xmlns="http://www.w3.org/2000/svg">
<path fill-rule="evenodd" clip-rule="evenodd" d="M3 20V4C3 2.34315 4.34315 1 6 1H13.7564C14.2919 1 14.805 1.21471 15.1808 1.59605L20.4244 6.91602C20.7932 7.29023 21 7.79454 21 8.31997V15H17C17.5523 15 18 14.5523 18 14C18 13.4477 17.5523 13 17 13H7C6.44772 13 6 13.4477 6 14C6 14.5523 6.44772 15 7 15H15C13.6938 15 12.5825 15.8348 12.1707 17H7C6.44772 17 6 17.4477 6 18C6 18.5523 6.44772 19 7 19H12.1707C12.5825 20.1652 13.6938 21 15 21H20.8293C20.4175 22.1652 19.3062 23 18 23H6C4.34315 23 3 21.6569 3 20ZM15 6V3L19 7H16C15.4477 7 15 6.55228 15 6ZM7 9C6.44772 9 6 9.44771 6 10C6 10.5523 6.44772 11 7 11H9C9.55228 11 10 10.5523 10 10C10 9.44771 9.55228 9 9 9H7ZM15 17C14.4477 17 14 17.4477 14 18C14 18.5523 14.4477 19 15 19H21C21.5523 19 22 18.5523 22 18C22 17.4477 21.5523 17 21 17H15Z" fill="currentColor"/>
</svg>
