<svg width="24" height="24" viewBox="0 0 24 24" fill="none" xmlns="http://www.w3.org/2000/svg">
<path fill-rule="evenodd" clip-rule="evenodd" d="M3 20V4C3 2.34315 4.34315 1 6 1H13.7564C14.2919 1 14.805 1.21471 15.1808 1.59605L20.4244 6.91602C20.7932 7.29023 21 7.79454 21 8.31997V10.9996C20.1643 10.3719 19.1256 10 18 10C15.9497 10 14.1876 11.2341 13.416 13H7C6.44772 13 6 13.4477 6 14C6 14.5523 6.44772 15 7 15H12.7639C12.2889 15.5308 12 16.2316 12 17H7C6.44772 17 6 17.4477 6 18C6 18.5523 6.44772 19 7 19H12V21C12 21.7684 12.2889 22.4692 12.7639 23H6C4.34315 23 3 21.6569 3 20ZM15 6V3L19 7H16C15.4477 7 15 6.55228 15 6ZM7 9C6.44772 9 6 9.44771 6 10C6 10.5523 6.44772 11 7 11H9C9.55228 11 10 10.5523 10 10C10 9.44771 9.55228 9 9 9H7ZM18 14C17.4477 14 17 14.4477 17 15V16H19V15C19 14.4477 18.5523 14 18 14ZM15 15V16C14.4477 16 14 16.4477 14 17V21C14 21.5523 14.4477 22 15 22H21C21.5523 22 22 21.5523 22 21V17C22 16.4477 21.5523 16 21 16V15C21 13.3431 19.6569 12 18 12C16.3431 12 15 13.3431 15 15Z" fill="currentColor"/>
</svg>
