<svg width="24" height="24" viewBox="0 0 24 24" fill="none" xmlns="http://www.w3.org/2000/svg">
<path fill-rule="evenodd" clip-rule="evenodd" d="M3 20V4C3 2.34315 4.34315 1 6 1H13.7564C14.2919 1 14.805 1.21471 15.1808 1.59605L20.4244 6.91602C20.7932 7.29023 21 7.79454 21 8.31997V11.5927C19.6368 11.0195 18.0036 11.2881 16.8933 12.3983L16.2916 13H7C6.44772 13 6 13.4477 6 14C6 14.5523 6.44772 15 7 15H14.2916L12.9479 16.3437C12.7487 16.5429 12.5734 16.7631 12.4245 17H7C6.44772 17 6 17.4477 6 18C6 18.5523 6.44772 19 7 19H11.6587L11.4705 19.5849C11.0953 20.751 11.3781 21.8883 12.0386 22.7164C12.0386 22.7164 12.066 22.7661 12.2999 23H12H6C4.34315 23 3 21.6569 3 20ZM17.0363 21.2931C17.2248 21.2067 17.3969 21.0872 17.5443 20.9398L21.4896 16.9944C22.173 16.311 22.173 15.203 21.4896 14.5196L20.7825 13.8125C20.2766 13.3066 19.538 13.1752 18.9112 13.4183C18.6913 13.5035 18.4851 13.635 18.3075 13.8125L17.9919 14.1282L17.1283 14.9919L15.12 17L14.3623 17.7578C14.1658 17.9543 14.0189 18.1947 13.9338 18.4592L13.7598 19L13.3744 20.1976C13.0313 21.2636 14.0384 22.2707 15.1044 21.9277L16.8428 21.3683C16.9088 21.347 16.9735 21.3219 17.0363 21.2931ZM14.877 20.4251L16.3833 19.9404C16.3856 19.9397 16.388 19.9388 16.3903 19.938C16.402 19.9339 16.4133 19.9289 16.4242 19.9231C16.4459 19.9115 16.4659 19.8968 16.4835 19.8792L17.4917 18.8709L17.8708 18.4919L18.8373 17.5253L17.7767 16.4647L15.4229 18.8185C15.3949 18.8466 15.3739 18.8809 15.3617 18.9187L14.877 20.4251ZM15 6V3L19 7H16C15.4477 7 15 6.55228 15 6ZM7 9C6.44772 9 6 9.44771 6 10C6 10.5523 6.44772 11 7 11H9C9.55228 11 10 10.5523 10 10C10 9.44771 9.55228 9 9 9H7ZM19.8981 16.4646L20.4289 15.9338C20.5265 15.8362 20.5265 15.6779 20.4289 15.5803L19.7217 14.8732C19.6489 14.8003 19.5423 14.7818 19.4524 14.8177C19.4218 14.8299 19.3931 14.8484 19.3683 14.8731L18.8375 15.404L19.8981 16.4646Z" fill="currentColor"/>
</svg>
