<svg width="24" height="24" viewBox="0 0 24 24" fill="none" xmlns="http://www.w3.org/2000/svg">
<path fill-rule="evenodd" clip-rule="evenodd" d="M3 4V20C3 21.6569 4.34315 23 6 23H15.7639C15.2889 22.4692 15 21.7684 15 21C13.6938 21 12.5825 20.1652 12.1707 19H7C6.44772 19 6 18.5523 6 18C6 17.4477 6.44772 17 7 17H12.1707C12.5825 15.8348 13.6938 15 15 15H7C6.44772 15 6 14.5523 6 14C6 13.4477 6.44772 13 7 13H15.7639C16.3132 12.3863 17.1115 12 18 12C19.6569 12 21 13.3431 21 15V8.31997C21 7.79454 20.7932 7.29023 20.4244 6.91602L15.1808 1.59605C14.805 1.21471 14.2919 1 13.7564 1H6C4.34315 1 3 2.34315 3 4ZM15 3V6C15 6.55228 15.4477 7 16 7H19L15 3ZM6 10C6 9.44771 6.44772 9 7 9H9C9.55228 9 10 9.44771 10 10C10 10.5523 9.55228 11 9 11H7C6.44772 11 6 10.5523 6 10ZM18 14C18.5523 14 19 14.4477 19 15V17H21C21.5523 17 22 17.4477 22 18C22 18.5523 21.5523 19 21 19H19V21C19 21.5523 18.5523 22 18 22C17.4477 22 17 21.5523 17 21V19H15C14.4477 19 14 18.5523 14 18C14 17.4477 14.4477 17 15 17H17V15C17 14.4477 17.4477 14 18 14Z" fill="currentColor"/>
</svg>
