<svg width="24" height="24" viewBox="0 0 24 24" fill="none" xmlns="http://www.w3.org/2000/svg">
<path fill-rule="evenodd" clip-rule="evenodd" d="M3 20V4C3 2.34315 4.34315 1 6 1H13.7564C14.2919 1 14.805 1.21471 15.1808 1.59605L20.4244 6.91602C20.7782 7.27494 20.9828 7.75356 20.999 8.2557C20.5301 8.0901 20.0256 8 19.5 8C17.5368 8 15.8672 9.25721 15.2524 11.0105C15.1692 11.0035 15.085 11 15 11C13.6938 11 12.5825 11.8348 12.1707 13H7C6.44772 13 6 13.4477 6 14C6 14.5523 6.44772 15 7 15H12V17H7C6.44772 17 6 17.4477 6 18C6 18.5523 6.44772 19 7 19H12.083C12.3626 20.6668 13.3294 22.1006 14.6822 23H6C4.34315 23 3 21.6569 3 20ZM15 6V3L19 7H16C15.4477 7 15 6.55228 15 6ZM7 9C6.44772 9 6 9.44771 6 10C6 10.5523 6.44772 11 7 11H9C9.55228 11 10 10.5523 10 10C10 9.44771 9.55228 9 9 9H7ZM19.5 12C19.2239 12 19 12.2239 19 12.5V18C19 18.5523 18.5523 19 18 19C17.4477 19 17 18.5523 17 18V12.5C17 11.1193 18.1193 10 19.5 10C20.8807 10 22 11.1193 22 12.5V18C22 20.2091 20.2091 22 18 22C15.7909 22 14 20.2091 14 18V14C14 13.4477 14.4477 13 15 13C15.5523 13 16 13.4477 16 14V18C16 19.1046 16.8954 20 18 20C19.1046 20 20 19.1046 20 18V12.5C20 12.2239 19.7761 12 19.5 12Z" fill="currentColor"/>
</svg>
