<svg width="24" height="24" viewBox="0 0 24 24" fill="none" xmlns="http://www.w3.org/2000/svg">
<path fill-rule="evenodd" clip-rule="evenodd" d="M3 4V20C3 21.6569 4.34315 23 6 23H14.4956C12.755 22.2726 11.3982 20.8098 10.8135 19H7C6.44772 19 6 18.5523 6 18C6 17.4477 6.44772 17 7 17H10.5C10.5 16.3022 10.61 15.6301 10.8135 15H7C6.44772 15 6 14.5523 6 14C6 13.4477 6.44772 13 7 13H11.8762C13.0658 11.4782 14.9187 10.5 17 10.5C18.5085 10.5 19.897 11.0139 21 11.8762V8.31997C21 7.79454 20.7932 7.29023 20.4244 6.91602L15.1808 1.59605C14.805 1.21471 14.2919 1 13.7564 1H6C4.34315 1 3 2.34315 3 4ZM15 3V6C15 6.55228 15.4477 7 16 7H19L15 3ZM6 10C6 9.44771 6.44772 9 7 9H9C9.55228 9 10 9.44771 10 10C10 10.5523 9.55228 11 9 11H7C6.44772 11 6 10.5523 6 10ZM17 21.5C17.8805 21.5 18.702 21.2471 19.3957 20.81L20.2929 21.7071C20.6834 22.0976 21.3166 22.0976 21.7071 21.7071C22.0976 21.3166 22.0976 20.6834 21.7071 20.2929L20.81 19.3957C21.2471 18.702 21.5 17.8805 21.5 17C21.5 14.5147 19.4853 12.5 17 12.5C14.5147 12.5 12.5 14.5147 12.5 17C12.5 19.4853 14.5147 21.5 17 21.5ZM17 19.5C18.3807 19.5 19.5 18.3807 19.5 17C19.5 15.6193 18.3807 14.5 17 14.5C15.6193 14.5 14.5 15.6193 14.5 17C14.5 18.3807 15.6193 19.5 17 19.5Z" fill="currentColor"/>
</svg>
