<svg width="24" height="24" viewBox="0 0 24 24" fill="none" xmlns="http://www.w3.org/2000/svg">
<path fill-rule="evenodd" clip-rule="evenodd" d="M3 20V4C3 2.34315 4.34315 1 6 1H13.7564C14.2919 1 14.805 1.21471 15.1808 1.59605L20.4244 6.91602C20.7932 7.29023 21 7.79454 21 8.31997V13.5C20.2322 13.5 19.4645 13.7929 18.8787 14.3787L16.4966 16.7608C15.3186 15.7085 13.5095 15.7478 12.3787 16.8787C12.3391 16.9183 12.3008 16.9588 12.2638 17H7C6.44772 17 6 17.4477 6 18C6 18.5523 6.44772 19 7 19H11.5C11.5 19.7678 11.7929 20.5355 12.3787 21.1213L14.2574 23H12H6C4.34315 23 3 21.6569 3 20ZM15 6V3L19 7H16C15.4477 7 15 6.55228 15 6ZM7 9C6.44772 9 6 9.44771 6 10C6 10.5523 6.44772 11 7 11H9C9.55228 11 10 10.5523 10 10C10 9.44771 9.55228 9 9 9H7ZM6 14C6 13.4477 6.44772 13 7 13H17C17.5523 13 18 13.4477 18 14C18 14.5523 17.5523 15 17 15H7C6.44772 15 6 14.5523 6 14ZM21.7071 17.2071C22.0976 16.8166 22.0976 16.1834 21.7071 15.7929C21.3166 15.4024 20.6834 15.4024 20.2929 15.7929L16.5 19.5858L15.2071 18.2929C14.8166 17.9024 14.1834 17.9024 13.7929 18.2929C13.4024 18.6834 13.4024 19.3166 13.7929 19.7071L15.7929 21.7071C16.1834 22.0976 16.8166 22.0976 17.2071 21.7071L21.7071 17.2071Z" fill="currentColor"/>
</svg>
