<svg width="24" height="24" viewBox="0 0 24 24" fill="none" xmlns="http://www.w3.org/2000/svg">
<path fill-rule="evenodd" clip-rule="evenodd" d="M3 20V4C3 2.34315 4.34315 1 6 1H13.7564C14.2919 1 14.805 1.21471 15.1808 1.59605L20.4244 6.91602C20.7932 7.29023 21 7.79454 21 8.31997V11.0656C20.3446 10.7915 19.6562 10.6667 19.0002 10.6667C16.8894 10.6667 15.4838 11.8617 14.7055 13H7C6.44772 13 6 13.4477 6 14C6 14.5523 6.44772 15 7 15H13.9996C14.0001 15.7337 14.2708 16.4491 14.763 17H7C6.44772 17 6 17.4477 6 18C6 18.5523 6.44772 19 7 19H16.3123C16.3699 19.1164 16.4343 19.2277 16.505 19.3336C16.186 19.8103 16 20.3834 16 21C16 21.7684 16.2889 22.4692 16.7639 23H6C4.34315 23 3 21.6569 3 20ZM15 6V3L19 7H16C15.4477 7 15 6.55228 15 6ZM7 9C6.44772 9 6 9.44771 6 10C6 10.5523 6.44772 11 7 11H9C9.55228 11 10 10.5523 10 10C10 9.44771 9.55228 9 9 9H7ZM19.0002 14.6667C18.5095 14.6667 18.1261 14.9843 17.8946 15.4473C17.6477 15.9413 17.047 16.1415 16.553 15.8945C16.059 15.6475 15.8588 15.0468 16.1058 14.5529C16.541 13.6825 17.4909 12.6667 19.0002 12.6667C19.7133 12.6667 20.4591 12.9033 21.0396 13.4193C21.6385 13.9517 22.0002 14.7287 22.0002 15.6667C22.0002 16.8643 21.1153 17.6252 20.5549 17.9988C20.2443 18.2059 19.9408 18.3569 19.7189 18.4556C19.6065 18.5055 19.5114 18.5436 19.4422 18.57C19.4074 18.5832 19.3789 18.5936 19.3577 18.6012L19.3313 18.6104L19.3224 18.6134L19.319 18.6146L19.3177 18.615C19.3177 18.615 19.3165 18.6154 19.0106 17.6978L19.3164 18.6154C18.7925 18.7901 18.2262 18.5069 18.0515 17.983C17.8773 17.4601 18.1589 16.8951 18.6807 16.7192L18.6877 16.7167C18.6957 16.7139 18.7102 16.7086 18.7302 16.701C18.7702 16.6857 18.8315 16.6613 18.9066 16.6279C19.0597 16.5599 19.2562 16.4609 19.4455 16.3347C19.8851 16.0416 20.0002 15.8025 20.0002 15.6667C20.0002 15.2714 19.8619 15.0484 19.7109 14.9142C19.5414 14.7635 19.2871 14.6667 19.0002 14.6667ZM20 21C20 21.5523 19.5523 22 19 22C18.4477 22 18 21.5523 18 21C18 20.4477 18.4477 20 19 20C19.5523 20 20 20.4477 20 21Z" fill="currentColor"/>
</svg>
