<svg width="24" height="24" viewBox="0 0 24 24" fill="none" xmlns="http://www.w3.org/2000/svg">
<path fill-rule="evenodd" clip-rule="evenodd" d="M1 6V5C1 3.34315 2.34315 2 4 2H9.72446C10.8907 2 11.9513 2.67589 12.4438 3.73303L13.5 6H20C21.6569 6 23 7.34315 23 9V19C23 20.6569 21.6569 22 20 22H4C2.34315 22 1 20.6569 1 19V6ZM14.9571 10.5429C15.3476 10.9334 15.3476 11.5666 14.9571 11.9571L13.4142 13.5L14.9571 15.0429C15.3476 15.4334 15.3476 16.0666 14.9571 16.4571C14.5666 16.8476 13.9334 16.8476 13.5429 16.4571L12 14.9142L10.4571 16.4571C10.0666 16.8476 9.43342 16.8476 9.04289 16.4571C8.65237 16.0666 8.65237 15.4334 9.04289 15.0429L10.5858 13.5L9.04289 11.9571C8.65237 11.5666 8.65237 10.9334 9.04289 10.5429C9.43342 10.1524 10.0666 10.1524 10.4571 10.5429L12 12.0858L13.5429 10.5429C13.9334 10.1524 14.5666 10.1524 14.9571 10.5429Z" fill="currentColor"/>
</svg>
