<svg width="24" height="24" viewBox="0 0 24 24" fill="none" xmlns="http://www.w3.org/2000/svg">
<path fill-rule="evenodd" clip-rule="evenodd" d="M1 6V5C1 3.34315 2.34315 2 4 2H9.72446C10.8907 2 11.9513 2.67589 12.4438 3.73303L13.5 6H20C21.6569 6 23 7.34315 23 9V19C23 20.6569 21.6569 22 20 22H4C2.34315 22 1 20.6569 1 19V6ZM15.3714 11.0715C15.751 11.2234 16 11.5911 16 12V14.5C16 15.9815 14.9221 17.1166 14.1402 17.7682C13.7174 18.1206 13.2997 18.3985 12.9902 18.5877C12.8344 18.6829 12.7033 18.7572 12.6092 18.8087C12.5621 18.8345 12.5241 18.8547 12.4966 18.8691L12.4635 18.8862L12.4532 18.8914L12.4496 18.8932L12.4483 18.8939L12.4472 18.8944C12.1657 19.0352 11.8338 19.0349 11.5523 18.8942L11.5504 18.8932L11.5468 18.8914L11.5365 18.8862L11.5034 18.8691C11.4759 18.8547 11.4379 18.8345 11.3908 18.8087C11.2967 18.7572 11.1656 18.6829 11.0098 18.5877C10.7003 18.3985 10.2826 18.1206 9.85982 17.7682C9.07793 17.1166 8 15.9815 8 14.5V12C8 11.5911 8.24895 11.2234 8.62861 11.0715L8.65893 11.0594L8.74153 11.0268C8.81254 10.9988 8.91413 10.9589 9.03744 10.9112C9.28361 10.8159 9.61852 10.6883 9.97076 10.5602C10.3208 10.4329 10.6982 10.3014 11.0262 10.2005C11.1897 10.1502 11.3519 10.104 11.4985 10.0696C11.623 10.0403 11.8133 10 12 10C12.1867 10 12.377 10.0403 12.5015 10.0696C12.6481 10.104 12.8103 10.1502 12.9738 10.2005C13.3018 10.3014 13.6792 10.4329 14.0292 10.5602C14.3815 10.6883 14.7164 10.8159 14.9626 10.9112C15.0859 10.9589 15.1875 10.9988 15.2585 11.0268L15.3411 11.0594L15.3714 11.0715Z" fill="currentColor"/>
</svg>
