<svg width="24" height="24" viewBox="0 0 24 24" fill="none" xmlns="http://www.w3.org/2000/svg">
<path fill-rule="evenodd" clip-rule="evenodd" d="M1 6V5C1 3.34315 2.34315 2 4 2H9.72446C10.8907 2 11.9513 2.67589 12.4438 3.73303L13.5 6H20C21.6569 6 23 7.34315 23 9V19C23 20.6569 21.6569 22 20 22H4C2.34315 22 1 20.6569 1 19V6ZM12 11C11.5369 11 11.0982 11.105 10.7066 11.2924L14.7076 15.2934C14.895 14.9018 15 14.4631 15 14C15 12.3431 13.6569 11 12 11ZM9 14C9 13.5369 9.10495 13.0982 9.29237 12.7066L13.2934 16.7076C12.9018 16.895 12.4631 17 12 17C10.3431 17 9 15.6569 9 14ZM7 14C7 11.2386 9.23858 9 12 9C14.7614 9 17 11.2386 17 14C17 16.7614 14.7614 19 12 19C9.23858 19 7 16.7614 7 14Z" fill="currentColor"/>
</svg>
