<svg width="24" height="24" viewBox="0 0 24 24" fill="none" xmlns="http://www.w3.org/2000/svg">
<path fill-rule="evenodd" clip-rule="evenodd" d="M1 6V5C1 3.34315 2.34315 2 4 2H9.72446C10.8907 2 11.9513 2.67589 12.4438 3.73303L13.5 6H20C21.6569 6 23 7.34315 23 9V19C23 20.6569 21.6569 22 20 22H4C2.34315 22 1 20.6569 1 19V6ZM11 17C11 17.5523 11.4477 18 12 18C12.5523 18 13 17.5523 13 17V15H15C15.4045 15 15.7691 14.7564 15.9239 14.3827C16.0787 14.009 15.9931 13.5789 15.7071 13.2929L12.7071 10.2929C12.3166 9.90237 11.6834 9.90237 11.2929 10.2929L8.29289 13.2929C8.0069 13.5789 7.92134 14.009 8.07612 14.3827C8.2309 14.7564 8.59554 15 9 15L11 15V17Z" fill="currentColor"/>
</svg>
