<svg width="24" height="24" viewBox="0 0 24 24" fill="none" xmlns="http://www.w3.org/2000/svg">
<path fill-rule="evenodd" clip-rule="evenodd" d="M1 6V5C1 3.34315 2.34315 2 4 2H9.72446C10.8907 2 11.9513 2.67589 12.4438 3.73303L13.5 6H20C21.6569 6 23 7.34315 23 9V19C23 20.6569 21.6569 22 20 22H4C2.34315 22 1 20.6569 1 19V6ZM11.75 17.75C12.6305 17.75 13.452 17.4971 14.1457 17.06L15.0429 17.9571C15.4334 18.3476 16.0666 18.3476 16.4571 17.9571C16.8476 17.5666 16.8476 16.9334 16.4571 16.5429L15.56 15.6457C15.9971 14.952 16.25 14.1305 16.25 13.25C16.25 10.7647 14.2353 8.75 11.75 8.75C9.26472 8.75 7.25 10.7647 7.25 13.25C7.25 15.7353 9.26472 17.75 11.75 17.75ZM11.75 15.75C13.1307 15.75 14.25 14.6307 14.25 13.25C14.25 11.8693 13.1307 10.75 11.75 10.75C10.3693 10.75 9.25 11.8693 9.25 13.25C9.25 14.6307 10.3693 15.75 11.75 15.75Z" fill="currentColor"/>
</svg>
