<svg width="24" height="24" viewBox="0 0 24 24" fill="none" xmlns="http://www.w3.org/2000/svg">
<path fill-rule="evenodd" clip-rule="evenodd" d="M1 5V6V19C1 20.6569 2.34315 22 4 22H20C21.6569 22 23 20.6569 23 19V9C23 7.34315 21.6569 6 20 6H13.5L12.4438 3.73303C11.9513 2.67589 10.8907 2 9.72446 2H4C2.34315 2 1 3.34315 1 5ZM12.1173 17.9239C11.7436 17.7691 11.5 17.4045 11.5 17V15.5L9 15.5C8.44772 15.5 8 15.0523 8 14.5C8 13.9477 8.44772 13.5 9 13.5L11.5 13.5V12C11.5 11.5955 11.7436 11.2309 12.1173 11.0761C12.491 10.9213 12.9211 11.0069 13.2071 11.2929L15.7071 13.7929C16.0976 14.1834 16.0976 14.8166 15.7071 15.2071L13.2071 17.7071C12.9211 17.9931 12.491 18.0787 12.1173 17.9239Z" fill="currentColor"/>
</svg>
