<svg width="24" height="24" viewBox="0 0 24 24" fill="none" xmlns="http://www.w3.org/2000/svg">
<path fill-rule="evenodd" clip-rule="evenodd" d="M1 5V6V19C1 20.6569 2.34315 22 4 22H20C21.6569 22 23 20.6569 23 19V9C23 7.34315 21.6569 6 20 6H13.5L12.4438 3.73303C11.9513 2.67589 10.8907 2 9.72446 2H4C2.34315 2 1 3.34315 1 5ZM11.8827 11.0761C12.2564 11.2309 12.5 11.5955 12.5 12V13.5H15C15.5523 13.5 16 13.9477 16 14.5C16 15.0523 15.5523 15.5 15 15.5H12.5V17C12.5 17.4045 12.2564 17.7691 11.8827 17.9239C11.509 18.0787 11.0789 17.9931 10.7929 17.7071L8.29289 15.2071C7.90237 14.8166 7.90237 14.1834 8.29289 13.7929L10.7929 11.2929C11.0789 11.0069 11.509 10.9213 11.8827 11.0761Z" fill="currentColor"/>
</svg>
