<svg width="24" height="24" viewBox="0 0 24 24" fill="none" xmlns="http://www.w3.org/2000/svg">
<path fill-rule="evenodd" clip-rule="evenodd" d="M4.50027 5.03828H10C11 5.03822 12.5164 5.96099 13 7.0001L13.7235 8.44617C13.893 8.78482 14.2392 8.99871 14.6178 8.99871H21.5006C21.7767 8.99871 22.0006 8.77482 22.0006 8.49867L22.0006 8.31867C22.0005 7.79325 21.7937 7.28895 21.4249 6.91477L16.1809 1.59521C15.805 1.21389 15.2919 0.999226 14.7564 0.999268L7 0.999869C5.34315 0.999998 4.0001 2.34325 4.00023 4.0001L4.00027 4.53832C4.0003 4.81444 4.22415 5.03828 4.50027 5.03828ZM16.0004 5.99917L16.0002 2.99917L20.0005 6.99886L17.0005 6.99909C16.4482 6.99914 16.0004 6.55146 16.0004 5.99917ZM1.0011 20.0001L1.00024 9.00011C1.00012 7.34325 2.34316 6 4.00001 5.99987L9.72447 5.99943C10.8907 5.99934 11.9513 6.67515 12.4439 7.73225L13.2311 9.42147C13.3953 9.77384 13.7489 9.99911 14.1376 9.99908L20.0003 9.99862C21.6572 9.99849 23.0004 11.3415 23.0006 12.9984L23.0011 19.9984C23.0012 21.6552 21.6582 22.9985 20.0013 22.9986L4.00134 22.9999C2.34448 23 1.00123 21.6569 1.0011 20.0001Z" fill="currentColor"/>
</svg>
