<svg width="24" height="24" viewBox="0 0 24 24" fill="none" xmlns="http://www.w3.org/2000/svg">
<path fill-rule="evenodd" clip-rule="evenodd" d="M1 6V5C1 3.34315 2.34315 2 4 2H9.72446C10.8907 2 11.9513 2.67589 12.4438 3.73303L13.5 6H20C21.6569 6 23 7.34315 23 9V19C23 20.6569 21.6569 22 20 22H4C2.34315 22 1 20.6569 1 19V6ZM15.9571 13.2071C16.3476 12.8166 16.3476 12.1834 15.9571 11.7929C15.5666 11.4024 14.9334 11.4024 14.5429 11.7929L10.75 15.5858L9.45711 14.2929C9.06658 13.9024 8.43342 13.9024 8.04289 14.2929C7.65237 14.6834 7.65237 15.3166 8.04289 15.7071L10.0429 17.7071C10.4334 18.0976 11.0666 18.0976 11.4571 17.7071L15.9571 13.2071Z" fill="currentColor"/>
</svg>
