<svg width="24" height="24" viewBox="0 0 24 24" fill="none" xmlns="http://www.w3.org/2000/svg">
<path fill-rule="evenodd" clip-rule="evenodd" d="M1 6V5C1 3.34315 2.34315 2 4 2H9.72446C10.8907 2 11.9513 2.67589 12.4438 3.73303L13.5 6H20C21.6569 6 23 7.34315 23 9V14.5858L22.7071 14.2929C22.3166 13.9024 21.6834 13.9024 21.2929 14.2929L19 16.5858L16.7071 14.2929C16.3166 13.9024 15.6834 13.9024 15.2929 14.2929L13 16.5858L10.7071 14.2929C10.3166 13.9024 9.68342 13.9024 9.29289 14.2929L7 16.5858L4.70711 14.2929C4.31658 13.9024 3.68342 13.9024 3.29289 14.2929L1 16.5858V6ZM1 19C1 20.6569 2.34315 22 4 22H20C21.6569 22 23 20.6569 23 19V17.4142L22 16.4142L19.7071 18.7071C19.3166 19.0976 18.6834 19.0976 18.2929 18.7071L16 16.4142L13.7071 18.7071C13.3166 19.0976 12.6834 19.0976 12.2929 18.7071L10 16.4142L7.70711 18.7071C7.31658 19.0976 6.68342 19.0976 6.29289 18.7071L4 16.4142L1.70711 18.7071C1.51335 18.9009 1.25739 18.9999 1 19Z" fill="currentColor"/>
</svg>
