<svg width="24" height="24" viewBox="0 0 24 24" fill="none" xmlns="http://www.w3.org/2000/svg">
<path fill-rule="evenodd" clip-rule="evenodd" d="M1 6V5C1 3.34315 2.34315 2 4 2H9.72446C10.8907 2 11.9513 2.67589 12.4438 3.73303L13.5 6H20C21.6569 6 23 7.34315 23 9V19C23 20.6569 21.6569 22 20 22H4C2.34315 22 1 20.6569 1 19V6ZM13.5 10C13.2239 10 13 10.2239 13 10.5V16C13 16.5523 12.5523 17 12 17C11.4477 17 11 16.5523 11 16V10.5C11 9.11929 12.1193 8 13.5 8C14.8807 8 16 9.11929 16 10.5V16C16 18.2091 14.2091 20 12 20C9.79086 20 8 18.2091 8 16V12C8 11.4477 8.44772 11 9 11C9.55228 11 10 11.4477 10 12V16C10 17.1046 10.8954 18 12 18C13.1046 18 14 17.1046 14 16V10.5C14 10.2239 13.7761 10 13.5 10Z" fill="currentColor"/>
</svg>
