<svg width="24" height="24" viewBox="0 0 24 24" fill="none" xmlns="http://www.w3.org/2000/svg">
<path fill-rule="evenodd" clip-rule="evenodd" d="M1 6V5C1 3.34315 2.34315 2 4 2H9.72446C10.8907 2 11.9513 2.67589 12.4438 3.73303L13.5 6H20C21.6569 6 23 7.34315 23 9V19C23 20.6569 21.6569 22 20 22H4C2.34315 22 1 20.6569 1 19V6ZM13 11C13 10.4477 12.5523 10 12 10C11.4477 10 11 10.4477 11 11V13H9C8.59554 13 8.2309 13.2436 8.07612 13.6173C7.92134 13.991 8.0069 14.4211 8.29289 14.7071L11.2929 17.7071C11.6834 18.0976 12.3166 18.0976 12.7071 17.7071L15.7071 14.7071C15.9931 14.4211 16.0787 13.991 15.9239 13.6173C15.7691 13.2436 15.4045 13 15 13H13V11Z" fill="currentColor"/>
</svg>
