<svg width="24" height="24" viewBox="0 0 24 24" fill="none" xmlns="http://www.w3.org/2000/svg">
<path fill-rule="evenodd" clip-rule="evenodd" d="M1 6V5C1 3.34315 2.34315 2 4 2H9.72446C10.8907 2 11.9513 2.67589 12.4438 3.73303L13.5 6H20C21.6569 6 23 7.34315 23 9V19C23 20.6569 21.6569 22 20 22H4C2.34315 22 1 20.6569 1 19V6ZM7.55372 16.8974L7.84738 15.7453C7.94693 15.3548 8.14985 14.9983 8.43482 14.7134L12.6007 10.5475C13.3307 9.81752 14.5141 9.81752 15.2441 10.5475L15.9492 11.2526C16.6792 11.9826 16.6792 13.166 15.9492 13.896L11.7833 18.0619C11.4984 18.3468 11.1419 18.5498 10.7514 18.6493L9.59931 18.943C8.36211 19.2583 7.23836 18.1346 7.55372 16.8974ZM10.4856 17.1657C10.5197 17.1514 10.5527 17.1347 10.5843 17.1156C10.6356 17.0846 10.6832 17.0473 10.726 17.0045L13.5074 14.2231L12.2736 12.9893L9.49215 15.7707C9.44937 15.8135 9.41214 15.8611 9.38111 15.9124C9.362 15.944 9.34525 15.9769 9.33099 16.0111C9.31698 16.0446 9.30538 16.0792 9.29634 16.1147L9.08736 16.9345L9.00268 17.2667C8.96764 17.4042 9.0925 17.5291 9.22997 17.494L9.56216 17.4093L10.382 17.2004C10.4175 17.1913 10.4521 17.1797 10.4856 17.1657ZM14.8919 12.8386L14.5648 13.1658L13.3309 11.9319L13.6581 11.6048C13.804 11.4588 14.0407 11.4588 14.1867 11.6048L14.8919 12.31C15.0379 12.456 15.0379 12.6926 14.8919 12.8386Z" fill="currentColor"/>
</svg>
