<svg width="24" height="24" viewBox="0 0 24 24" fill="none" xmlns="http://www.w3.org/2000/svg">
<path fill-rule="evenodd" clip-rule="evenodd" d="M1 6V5C1 3.34315 2.34315 2 4 2H9.72446C10.8907 2 11.9513 2.67589 12.4438 3.73303L13.5 6H20C21.6569 6 23 7.34315 23 9V19C23 20.6569 21.6569 22 20 22H4C2.34315 22 1 20.6569 1 19V6ZM12.0002 11.6667C11.5095 11.6667 11.1261 11.9843 10.8946 12.4473C10.6477 12.9413 10.047 13.1415 9.55301 12.8945C9.05903 12.6475 8.8588 12.0468 9.10579 11.5529C9.54098 10.6825 10.4909 9.66675 12.0002 9.66675C12.7133 9.66675 13.4591 9.90331 14.0396 10.4193C14.6385 10.9517 15.0002 11.7287 15.0002 12.6667C15.0002 13.8643 14.1153 14.6252 13.5549 14.9988C13.2443 15.2059 12.9408 15.3569 12.7189 15.4556C12.6065 15.5055 12.5114 15.5436 12.4422 15.57C12.4074 15.5832 12.3789 15.5936 12.3577 15.6012L12.3313 15.6104L12.3224 15.6134L12.319 15.6146L12.3164 15.6154C11.7925 15.7901 11.2262 15.5069 11.0515 14.983C10.8773 14.4601 11.1589 13.8951 11.6807 13.7192L11.6877 13.7167C11.6957 13.7139 11.7102 13.7086 11.7302 13.701C11.7702 13.6857 11.8315 13.6613 11.9066 13.6279C12.0597 13.5599 12.2562 13.4609 12.4455 13.3347C12.8851 13.0416 13.0002 12.8025 13.0002 12.6667C13.0002 12.2714 12.8619 12.0484 12.7109 11.9142C12.5414 11.7635 12.2871 11.6667 12.0002 11.6667ZM13 18C13 18.5523 12.5523 19 12 19C11.4477 19 11 18.5523 11 18C11 17.4477 11.4477 17 12 17C12.5523 17 13 17.4477 13 18Z" fill="currentColor"/>
</svg>
