<svg width="24" height="24" viewBox="0 0 24 24" fill="none" xmlns="http://www.w3.org/2000/svg">
<path fill-rule="evenodd" clip-rule="evenodd" d="M6 1H15.7645C15.5851 1.14134 15.414 1.30011 15.2529 1.47777L15.2436 1.48814C14.265 2.58256 14 4.08218 14 5.5C14 5.99694 14.0325 6.50393 14.117 7H7.64C7.0104 7 6.5 7.5104 6.5 8.14C6.5 8.7696 7.0104 9.28 7.64 9.28H15.0513C15.1121 9.35911 15.1762 9.43647 15.2436 9.51189L15.253 9.52219C16.2537 10.6257 17.6396 11 19 11C19.6761 11 20.3603 10.9074 21 10.677V20C21 21.6569 19.6569 23 18 23H6C4.34315 23 3 21.6569 3 20V4C3 2.34315 4.34315 1 6 1ZM6.5 11.9999C6.5 11.3703 7.0104 10.8599 7.64 10.8599H16.36C16.9896 10.8599 17.5 11.3703 17.5 11.9999C17.5 12.6295 16.9896 13.1399 16.36 13.1399H7.64C7.0104 13.1399 6.5 12.6295 6.5 11.9999ZM7.64 14.72C7.0104 14.72 6.5 15.2304 6.5 15.86C6.5 16.4896 7.0104 17 7.64 17H16.36C16.9896 17 17.5 16.4896 17.5 15.86C17.5 15.2304 16.9896 14.72 16.36 14.72H7.64ZM19 3.204C19.4138 3.204 19.7172 3.37511 19.9103 3.71733C20.1103 4.05956 20.2103 4.65378 20.2103 5.5C20.2103 6.34622 20.1103 6.94044 19.9103 7.28267C19.7172 7.62489 19.4138 7.796 19 7.796C18.5862 7.796 18.2793 7.62489 18.0793 7.28267C17.8862 6.94044 17.7897 6.34622 17.7897 5.5C17.7897 4.65378 17.8862 4.05956 18.0793 3.71733C18.2793 3.37511 18.5862 3.204 19 3.204ZM19 9C20.0138 9 20.7655 8.72622 21.2552 8.17867C21.7517 7.63111 22 6.73822 22 5.5C22 4.26178 21.7517 3.36889 21.2552 2.82133C20.7655 2.27378 20.0138 2 19 2C17.9862 2 17.231 2.27378 16.7345 2.82133C16.2448 3.36889 16 4.26178 16 5.5C16 6.73822 16.2448 7.63111 16.7345 8.17867C17.231 8.72622 17.9862 9 19 9Z" fill="currentColor"/>
</svg>
