<svg width="24" height="24" viewBox="0 0 24 24" fill="none" xmlns="http://www.w3.org/2000/svg">
<path fill-rule="evenodd" clip-rule="evenodd" d="M6 1H18C19.6569 1 21 2.34315 21 4V15C21 13.3431 19.6569 12 18 12C17.8294 12 17.6621 12.0142 17.4992 12.0416C17.4997 12.0278 17.5 12.0138 17.5 11.9999C17.5 11.3703 16.9896 10.8599 16.36 10.8599H7.64C7.0104 10.8599 6.5 11.3703 6.5 11.9999C6.5 12.6295 7.0104 13.1399 7.64 13.1399H15.6461C15.2959 13.5824 15.0679 14.1261 15.0129 14.72H7.64C7.0104 14.72 6.5 15.2304 6.5 15.86C6.5 16.4896 7.0104 17 7.64 17H12.1707C12.0602 17.3128 12 17.6494 12 18C12 19.6569 13.3431 21 15 21C15 21.7684 15.2889 22.4692 15.7639 23H6C4.34315 23 3 21.6569 3 20V4C3 2.34315 4.34315 1 6 1ZM7.64 7C7.0104 7 6.5 7.5104 6.5 8.14C6.5 8.7696 7.0104 9.28 7.64 9.28H16.36C16.9896 9.28 17.5 8.7696 17.5 8.14C17.5 7.5104 16.9896 7 16.36 7H7.64ZM18 14C18.5523 14 19 14.4477 19 15V17H21C21.5523 17 22 17.4477 22 18C22 18.5523 21.5523 19 21 19H19V21C19 21.5523 18.5523 22 18 22C17.4477 22 17 21.5523 17 21V19H15C14.4477 19 14 18.5523 14 18C14 17.4477 14.4477 17 15 17H17V15C17 14.4477 17.4477 14 18 14Z" fill="currentColor"/>
</svg>
