<svg width="24" height="24" viewBox="0 0 24 24" fill="none" xmlns="http://www.w3.org/2000/svg">
<path fill-rule="evenodd" clip-rule="evenodd" d="M6 1H18C19.6569 1 21 2.34315 21 4V19.5V20C21 21.6569 19.6569 23 18 23H17.5H6C4.34315 23 3 21.6569 3 20V14H9.69125L11.4495 19.2748C11.7768 20.2567 12.6714 20.9385 13.7049 20.9938C14.7384 21.049 15.7006 20.4665 16.1308 19.5251L17.1958 17.1941L19.5268 16.129C20.4682 15.6989 21.0507 14.7367 20.9955 13.7032C20.9402 12.6697 20.2584 11.7751 19.2765 11.4478L15 10.0223V6C15 4.89543 14.1046 4 13 4L3 4C3 2.34315 4.34315 1 6 1ZM18.9983 13.81C18.9993 13.829 18.9993 13.8479 18.9983 13.8667C18.9877 14.0576 18.8723 14.2292 18.6956 14.3099L18.2554 14.5111L17.4342 14.8863L17.227 14.981L15.8626 15.6044C15.7491 15.6563 15.658 15.7474 15.6061 15.8609L14.9827 17.2253L14.888 17.4325L14.5128 18.2537L14.3117 18.6939C14.223 18.888 14.0247 19.008 13.8117 18.9966C13.5987 18.9852 13.4143 18.8447 13.3469 18.6423L13.1938 18.1832L12.9083 17.3267L12.8363 17.1105L11.7994 14L11.0267 11.6814C10.9645 11.4949 11.013 11.2892 11.1521 11.1501C11.2911 11.0111 11.4968 10.9625 11.6834 11.0247L18.6441 13.3449C18.8464 13.4124 18.9869 13.597 18.9983 13.81ZM2 5C1.44772 5 1 5.44772 1 6V7.5C1 8.05228 1.44772 8.5 2 8.5C2.55228 8.5 3 8.05228 3 7.5V7H3.5C4.05228 7 4.5 6.55228 4.5 6C4.5 5.44772 4.05228 5 3.5 5H2ZM3 10.5C3 9.94772 2.55228 9.5 2 9.5C1.44772 9.5 1 9.94772 1 10.5V12C1 12.5523 1.44772 13 2 13H3.5C4.05228 13 4.5 12.5523 4.5 12C4.5 11.4477 4.05228 11 3.5 11H3V10.5ZM10 6C10 5.44772 10.4477 5 11 5H12.5C13.0523 5 13.5 5.44772 13.5 6V7.5C13.5 8.05228 13.0523 8.5 12.5 8.5C11.9477 8.5 11.5 8.05228 11.5 7.5V7H11C10.4477 7 10 6.55228 10 6ZM6.5 11C5.94772 11 5.5 11.4477 5.5 12C5.5 12.5523 5.94772 13 6.5 13H8C8.55228 13 9 12.5523 9 12C9 11.4477 8.55228 11 8 11H6.5ZM5.5 6C5.5 5.44772 5.94772 5 6.5 5H8C8.55228 5 9 5.44772 9 6C9 6.55228 8.55228 7 8 7H6.5C5.94772 7 5.5 6.55228 5.5 6Z" fill="currentColor"/>
</svg>
