<svg width="24" height="24" viewBox="0 0 24 24" fill="none" xmlns="http://www.w3.org/2000/svg">
<path fill-rule="evenodd" clip-rule="evenodd" d="M6 5H18C19.6569 5 21 6.34315 21 8V16C21 17.6569 19.6569 19 18 19H6C4.34315 19 3 17.6569 3 16V8C3 6.34315 4.34315 5 6 5ZM6.5 9.72C6.5 9.0904 7.0104 8.58 7.64 8.58H16.36C16.9896 8.58 17.5 9.0904 17.5 9.72C17.5 10.3496 16.9896 10.86 16.36 10.86H7.64C7.0104 10.86 6.5 10.3496 6.5 9.72ZM6.5 14.2801C6.5 13.6505 7.0104 13.1401 7.64 13.1401H13.36C13.9896 13.1401 14.5 13.6505 14.5 14.2801C14.5 14.9097 13.9896 15.4201 13.36 15.4201H7.64C7.0104 15.4201 6.5 14.9097 6.5 14.2801Z" fill="currentColor"/>
</svg>
