<svg width="24" height="24" viewBox="0 0 24 24" fill="none" xmlns="http://www.w3.org/2000/svg">
<path fill-rule="evenodd" clip-rule="evenodd" d="M6 1H18C19.6569 1 21 2.34315 21 4V15C21 14.2322 20.7071 13.4645 20.1213 12.8787C19.4077 12.1651 18.424 11.8861 17.4992 12.0418C17.4997 12.0279 17.5 12.0139 17.5 11.9999C17.5 11.3703 16.9896 10.8599 16.36 10.8599H7.64C7.0104 10.8599 6.5 11.3703 6.5 11.9999C6.5 12.6295 7.0104 13.1399 7.64 13.1399H15.6175L14.0374 14.72H7.64C7.0104 14.72 6.5 15.2304 6.5 15.86C6.5 16.4896 7.0104 17 7.64 17H12.1708C11.7986 18.0553 12.0346 19.2772 12.8787 20.1213L15.7574 23H6C4.34315 23 3 21.6569 3 20V4C3 2.34315 4.34315 1 6 1ZM7.64 7C7.0104 7 6.5 7.5104 6.5 8.14C6.5 8.7696 7.0104 9.28 7.64 9.28H16.36C16.9896 9.28 17.5 8.7696 17.5 8.14C17.5 7.5104 16.9896 7 16.36 7H7.64ZM21 19C21.5523 19 22 18.5523 22 18C22 17.4477 21.5523 17 21 17H17.4142L18.7071 15.7071C19.0976 15.3166 19.0976 14.6834 18.7071 14.2929C18.3166 13.9024 17.6834 13.9024 17.2929 14.2929L14.2929 17.2929C13.9024 17.6834 13.9024 18.3166 14.2929 18.7071L17.2929 21.7071C17.6834 22.0976 18.3166 22.0976 18.7071 21.7071C19.0976 21.3166 19.0976 20.6834 18.7071 20.2929L17.4142 19H21Z" fill="currentColor"/>
</svg>
