<svg width="24" height="24" viewBox="0 0 24 24" fill="none" xmlns="http://www.w3.org/2000/svg">
<path fill-rule="evenodd" clip-rule="evenodd" d="M6 1H18C19.6569 1 21 2.34315 21 4V20C21 21.6569 19.6569 23 18 23H6C4.34315 23 3 21.6569 3 20V4C3 2.34315 4.34315 1 6 1ZM17.0601 7.14C17.0601 6.5104 16.5497 6 15.9201 6C15.2905 6 14.7801 6.5104 14.7801 7.14L14.7801 17.86C14.7801 18.4896 15.2905 19 15.9201 19C16.5497 19 17.0601 18.4896 17.0601 17.86L17.0601 7.14ZM13.14 10.14C13.14 9.5104 12.6296 9 12 9C11.3704 9 10.86 9.5104 10.86 10.14L10.86 17.86C10.86 18.4896 11.3704 19 12 19C12.6296 19 13.14 18.4896 13.14 17.86V10.14ZM8.08 12C8.7096 12 9.22 12.5104 9.22 13.14V17.86C9.22 18.4896 8.7096 19 8.08 19C7.4504 19 6.94 18.4896 6.94 17.86L6.94 13.14C6.94 12.5104 7.4504 12 8.08 12Z" fill="currentColor"/>
</svg>
