<svg width="24" height="24" viewBox="0 0 24 24" fill="none" xmlns="http://www.w3.org/2000/svg">
<path fill-rule="evenodd" clip-rule="evenodd" d="M6 1H18C19.6569 1 21 2.34315 21 4V20C21 21.6569 19.6569 23 18 23H6C4.34315 23 3 21.6569 3 20V4C3 2.34315 4.34315 1 6 1ZM7.64 7C7.0104 7 6.5 7.5104 6.5 8.14C6.5 8.7696 7.0104 9.28 7.64 9.28H16.36C16.9896 9.28 17.5 8.7696 17.5 8.14C17.5 7.5104 16.9896 7 16.36 7H7.64ZM6.5 11.9999C6.5 11.3703 7.0104 10.8599 7.64 10.8599H16.36C16.9896 10.8599 17.5 11.3703 17.5 11.9999C17.5 12.6295 16.9896 13.1399 16.36 13.1399H7.64C7.0104 13.1399 6.5 12.6295 6.5 11.9999ZM7.64 14.72C7.0104 14.72 6.5 15.2304 6.5 15.86C6.5 16.4896 7.0104 17 7.64 17H16.36C16.9896 17 17.5 16.4896 17.5 15.86C17.5 15.2304 16.9896 14.72 16.36 14.72H7.64Z" fill="currentColor"/>
</svg>
