<svg width="24" height="24" viewBox="0 0 24 24" fill="none" xmlns="http://www.w3.org/2000/svg">
<path fill-rule="evenodd" clip-rule="evenodd" d="M18 1H6C4.34315 1 3 2.34315 3 4V20C3 21.6569 4.34315 23 6 23H13.0245C12.4304 22.418 12.0417 21.6245 11.9819 20.7348L11.7308 17H7.64C7.0104 17 6.5 16.4896 6.5 15.86C6.5 15.2304 7.0104 14.72 7.64 14.72H11.5775L11.5319 14.0418C11.3254 13.7785 11.1705 13.4728 11.0826 13.1399H7.64C7.0104 13.1399 6.5 12.6295 6.5 11.9999C6.5 11.3703 7.0104 10.8599 7.64 10.8599H11.2745C11.689 10.0524 12.53 9.5 13.5 9.5H14.197C14.3345 9.41726 14.4782 9.34363 14.6272 9.28H7.64C7.0104 9.28 6.5 8.7696 6.5 8.14C6.5 7.5104 7.0104 7 7.64 7H16.36C16.9896 7 17.5 7.5104 17.5 8.14C17.5 8.48321 17.3483 8.791 17.1084 9H19C19.6592 9 20.2767 9.18327 20.803 9.5H21V4C21 2.34315 19.6569 1 18 1ZM19 17.9146V17.5854V16.5C19 16.2239 18.7761 16 18.5 16C18.2239 16 18 16.2239 18 16.5V19C18 19.2761 18.2239 19.5 18.5 19.5C18.7761 19.5 19 19.2761 19 19V17.9146ZM15 13H13.5C13.2239 13 13 12.7761 13 12.5V12C13 11.7239 13.2239 11.5 13.5 11.5H14.8819C15.1566 11.1931 15.5557 11 16 11H19C19.4443 11 19.8434 11.1931 20.1181 11.5H21.5C21.7761 11.5 22 11.7239 22 12V12.5C22 12.7761 21.7761 13 21.5 13H20H15ZM13.7674 13.5C13.6227 13.5 13.5082 13.6224 13.5179 13.7668L13.9774 20.6006C14.0303 21.3882 14.6846 22 15.474 22H19.526C20.3154 22 20.9697 21.3882 21.0227 20.6006L21.4821 13.7668C21.4918 13.6224 21.3773 13.5 21.2326 13.5H13.7674ZM16 16.5C16 16.2239 16.2239 16 16.5 16C16.7761 16 17 16.2239 17 16.5V19C17 19.2761 16.7761 19.5 16.5 19.5C16.2239 19.5 16 19.2761 16 19V16.5Z" fill="currentColor"/>
</svg>
