<svg width="24" height="24" viewBox="0 0 24 24" fill="none" xmlns="http://www.w3.org/2000/svg">
<path fill-rule="evenodd" clip-rule="evenodd" d="M6 1H18C19.6569 1 21 2.34315 21 4V11.6012C19.8692 11.118 18.5492 11.2162 17.4953 11.8958C17.4428 11.315 16.9545 10.8599 16.36 10.8599H7.64C7.0104 10.8599 6.5 11.3703 6.5 11.9999C6.5 12.6295 7.0104 13.1399 7.64 13.1399H16.1318L14.5517 14.72H7.64C7.0104 14.72 6.5 15.2304 6.5 15.86C6.5 16.4896 7.0104 17 7.64 17H12.4046C12.2388 17.2637 12.1059 17.5481 12.0099 17.8467L11.4505 19.585C11.0753 20.751 11.3581 21.8883 12.0186 22.7164L11.9274 23H6C4.34315 23 3 21.6569 3 20V4C3 2.34315 4.34315 1 6 1ZM7.64 7C7.0104 7 6.5 7.5104 6.5 8.14C6.5 8.7696 7.0104 9.28 7.64 9.28H16.36C16.9896 9.28 17.5 8.7696 17.5 8.14C17.5 7.5104 16.9896 7 16.36 7H7.64ZM14.3423 17.7578C14.1458 17.9543 13.9989 18.1947 13.9138 18.4592L13.3545 20.1975C13.0114 21.2636 14.0185 22.2707 15.0845 21.9276L16.8229 21.3683C17.0873 21.2832 17.3278 21.1363 17.5242 20.9398L21.4696 16.9944C22.153 16.311 22.153 15.203 21.4696 14.5196L20.7625 13.8125C20.0791 13.129 18.971 13.1291 18.2876 13.8125L14.3423 17.7578ZM15.3417 18.9187C15.3539 18.8809 15.3748 18.8466 15.4029 18.8185L17.7568 16.4646L18.8174 17.5253L16.4636 19.8792C16.4355 19.9072 16.4012 19.9282 16.3634 19.9404L14.857 20.4251L15.3417 18.9187ZM20.1209 16.2218L19.0603 15.1611L19.3483 14.8731C19.4459 14.7755 19.6042 14.7755 19.7018 14.8731L20.409 15.5802C20.5066 15.6779 20.5066 15.8362 20.409 15.9338L20.1209 16.2218Z" fill="currentColor"/>
</svg>
