<svg width="24" height="24" viewBox="0 0 24 24" fill="none" xmlns="http://www.w3.org/2000/svg">
<path fill-rule="evenodd" clip-rule="evenodd" d="M6 1H18C19.6569 1 21 2.34315 21 4V14.2574L20.6213 13.8787C19.4894 12.7467 17.6779 12.7084 16.5 13.7638C16.1749 13.4725 15.8014 13.2645 15.4074 13.1399H16.36C16.9896 13.1399 17.5 12.6295 17.5 11.9999C17.5 11.3703 16.9896 10.8599 16.36 10.8599H7.64C7.0104 10.8599 6.5 11.3703 6.5 11.9999C6.5 12.6295 7.0104 13.1399 7.64 13.1399H13.5926C13.1486 13.2803 12.7308 13.5266 12.3787 13.8787L11.5374 14.72H7.64C7.0104 14.72 6.5 15.2304 6.5 15.86C6.5 16.4896 7.0104 17 7.64 17H9.40108C8.73793 18.1473 8.89713 19.6398 9.87868 20.6213L12.2574 23H6C4.34315 23 3 21.6569 3 20V4C3 2.34315 4.34315 1 6 1ZM7.64 7C7.0104 7 6.5 7.5104 6.5 8.14C6.5 8.7696 7.0104 9.28 7.64 9.28H16.36C16.9896 9.28 17.5 8.7696 17.5 8.14C17.5 7.5104 16.9896 7 16.36 7H7.64ZM15.2071 16.7071C15.5976 16.3166 15.5976 15.6834 15.2071 15.2929C14.8166 14.9024 14.1834 14.9024 13.7929 15.2929L11.2929 17.7929C10.9024 18.1834 10.9024 18.8166 11.2929 19.2071L13.7929 21.7071C14.1834 22.0976 14.8166 22.0976 15.2071 21.7071C15.5976 21.3166 15.5976 20.6834 15.2071 20.2929L13.4142 18.5L15.2071 16.7071ZM19.2071 15.2929C18.8166 14.9024 18.1834 14.9024 17.7929 15.2929C17.4024 15.6834 17.4024 16.3166 17.7929 16.7071L19.5858 18.5L17.7929 20.2929C17.4024 20.6834 17.4024 21.3166 17.7929 21.7071C18.1834 22.0976 18.8166 22.0976 19.2071 21.7071L21.7071 19.2071C22.0976 18.8166 22.0976 18.1834 21.7071 17.7929L19.2071 15.2929Z" fill="currentColor"/>
</svg>
