<svg width="24" height="24" viewBox="0 0 24 24" fill="none" xmlns="http://www.w3.org/2000/svg">
<path fill-rule="evenodd" clip-rule="evenodd" d="M21 20V13.5005C19.8919 14.3329 18.5458 14.8654 17.082 14.9777C17.3372 15.1868 17.5 15.5044 17.5 15.86C17.5 16.4896 16.9896 17 16.36 17H7.64C7.0104 17 6.5 16.4896 6.5 15.86C6.5 15.2304 7.0104 14.72 7.64 14.72H14.4627C13.373 14.4131 12.3839 13.8662 11.5561 13.14H7.64C7.0104 13.14 6.5 12.6296 6.5 12C6.5 11.3704 7.0104 10.86 7.64 10.86H9.79291C9.54316 10.3624 9.34715 9.83322 9.2125 9.28H7.64C7.0104 9.28 6.5 8.7696 6.5 8.14C6.5 7.5104 7.0104 7 7.64 7H9.0164C9.18541 4.43232 10.6466 2.21759 12.7558 1H6C4.34315 1 3 2.34315 3 4V20C3 21.6569 4.34315 23 6 23H18C19.6569 23 21 21.6569 21 20ZM16.5 13C19.5376 13 22 10.5376 22 7.5C22 4.46243 19.5376 2 16.5 2C13.4624 2 11 4.46243 11 7.5C11 10.5376 13.4624 13 16.5 13ZM15.5 7.5C15.5 8.05228 15.9477 8.5 16.5 8.5C17.0523 8.5 17.5 8.05228 17.5 7.5V5C17.5 4.44772 17.0523 4 16.5 4C15.9477 4 15.5 4.44772 15.5 5V7.5ZM15.5 10.5C15.5 9.94772 15.9477 9.5 16.5 9.5C17.0523 9.5 17.5 9.94772 17.5 10.5C17.5 11.0523 17.0523 11.5 16.5 11.5C15.9477 11.5 15.5 11.0523 15.5 10.5Z" fill="currentColor"/>
</svg>
