<svg width="24" height="24" viewBox="0 0 24 24" fill="none" xmlns="http://www.w3.org/2000/svg">
<path fill-rule="evenodd" clip-rule="evenodd" d="M18 1H6C4.34315 1 3 2.34315 3 4V20C3 21.6569 4.34315 23 6 23H14.4956C12.149 22.0194 10.5 19.7023 10.5 17L7.64 17C7.0104 17 6.5 16.4896 6.5 15.86C6.5 15.2304 7.0104 14.72 7.64 14.72H10.9111C11.1242 14.1512 11.4147 13.6202 11.7698 13.1399H7.64C7.0104 13.1399 6.5 12.6295 6.5 11.9999C6.5 11.3703 7.0104 10.8599 7.64 10.8599H14.8618C15.5315 10.6267 16.2509 10.5 17 10.5C18.5085 10.5 19.897 11.0139 21 11.8762V4C21 2.34315 19.6569 1 18 1ZM6.5 8.14C6.5 7.5104 7.0104 7 7.64 7H16.36C16.9896 7 17.5 7.5104 17.5 8.14C17.5 8.7696 16.9896 9.28 16.36 9.28H7.64C7.0104 9.28 6.5 8.7696 6.5 8.14ZM17 21.5C17.8805 21.5 18.702 21.2471 19.3957 20.81L20.2929 21.7071C20.6834 22.0976 21.3166 22.0976 21.7071 21.7071C22.0976 21.3166 22.0976 20.6834 21.7071 20.2929L20.81 19.3957C21.2471 18.702 21.5 17.8805 21.5 17C21.5 14.5147 19.4853 12.5 17 12.5C14.5147 12.5 12.5 14.5147 12.5 17C12.5 19.4853 14.5147 21.5 17 21.5ZM17 19.5C18.3807 19.5 19.5 18.3807 19.5 17C19.5 15.6193 18.3807 14.5 17 14.5C15.6193 14.5 14.5 15.6193 14.5 17C14.5 18.3807 15.6193 19.5 17 19.5Z" fill="currentColor"/>
</svg>
