<svg width="24" height="24" viewBox="0 0 24 24" fill="none" xmlns="http://www.w3.org/2000/svg">
<path fill-rule="evenodd" clip-rule="evenodd" d="M18 1H6C4.34315 1 3 2.34315 3 4V20C3 21.6569 4.34315 23 6 23H14.6822C13.0655 21.9251 12 20.087 12 18V17H7.64C7.0104 17 6.5 16.4896 6.5 15.86C6.5 15.2304 7.0104 14.72 7.64 14.72H12V14C12 13.7011 12.0437 13.4123 12.1251 13.1399H7.64C7.0104 13.1399 6.5 12.6295 6.5 11.9999C6.5 11.3703 7.0104 10.8599 7.64 10.8599H15.3082C15.5432 10.2598 15.9033 9.72246 16.3565 9.28H7.64C7.0104 9.28 6.5 8.7696 6.5 8.14C6.5 7.5104 7.0104 7 7.64 7H16.36C16.9896 7 17.5 7.5104 17.5 8.14C17.5 8.26451 17.48 8.38436 17.4431 8.49652C18.0596 8.17916 18.7589 8 19.5 8C20.026 8 20.5308 8.09023 21 8.25606V4C21 2.34315 19.6569 1 18 1ZM19.5 12C19.2239 12 19 12.2239 19 12.5V18C19 18.5523 18.5523 19 18 19C17.4477 19 17 18.5523 17 18V12.5C17 11.1193 18.1193 10 19.5 10C20.8807 10 22 11.1193 22 12.5V18C22 20.2091 20.2091 22 18 22C15.7909 22 14 20.2091 14 18V14C14 13.4477 14.4477 13 15 13C15.5523 13 16 13.4477 16 14V18C16 19.1046 16.8954 20 18 20C19.1046 20 20 19.1046 20 18V12.5C20 12.2239 19.7761 12 19.5 12Z" fill="currentColor"/>
</svg>
