<svg width="24" height="24" viewBox="0 0 24 24" fill="none" xmlns="http://www.w3.org/2000/svg">
<path fill-rule="evenodd" clip-rule="evenodd" d="M3 3.99976L3 19.9998C3 21.6566 4.34315 22.9998 6 22.9998L18 22.9998C19.6569 22.9998 21 21.6566 21 19.9998L21 11.5761C20.632 12.3737 19.9267 12.98 19.0607 13.2147L12.7664 14.9207C12.7234 14.9324 12.6801 14.9415 12.6365 14.9484C12.6608 14.9685 12.6844 14.9899 12.7071 15.0126C13.0976 15.4032 13.0976 16.0363 12.7071 16.4269L9.70711 19.4269C9.31658 19.8174 8.68342 19.8174 8.29289 19.4269L6.79289 17.9269C6.40237 17.5363 6.40237 16.9032 6.79289 16.5126C7.18342 16.1221 7.81658 16.1221 8.20711 16.5126L9 17.3055L11.2929 15.0126C11.397 14.9085 11.5184 14.8322 11.6478 14.7836C10.8716 14.4515 10.221 13.7773 10.221 13.7773C10.221 13.7773 9.95604 13.5216 9.67651 13.1396L7.64 13.1396C7.0104 13.1396 6.5 12.6292 6.5 11.9996C6.5 11.37 7.01039 10.8596 7.64 10.8596L9.17845 10.8596L9.60664 9.27976L7.64 9.27976C7.01039 9.27976 6.5 8.76936 6.5 8.13976C6.5 7.51015 7.01039 6.99976 7.64 6.99976L10.2246 6.99976L10.7835 4.93752C11.0679 3.88827 11.8976 3.07495 12.9524 2.81163L15.6936 2.12727C15.8276 1.78768 16.0319 1.46942 16.3065 1.19483L16.5016 0.999755L14.5933 0.999755L6 0.999756C4.34315 0.999756 3 2.3429 3 3.99976ZM17.7207 3.66559C17.429 3.37388 17.429 2.90092 17.7207 2.60921L18.1124 2.21756C18.4041 1.92585 18.8771 1.92585 19.1688 2.21756L21.7832 4.83197C22.0749 5.12368 22.0749 5.59664 21.7832 5.88835L21.3915 6.27999C21.0998 6.57171 20.6269 6.57171 20.3351 6.27999L17.7207 3.66559ZM16.5375 3.97832L13.4376 4.75223C13.086 4.84 12.8094 5.1111 12.7146 5.46086L11.0087 11.7552C10.9551 11.953 11.1982 12.0939 11.3431 11.949L14.8075 8.48466C14.6321 8.03625 14.7255 7.50697 15.0877 7.14472C15.5759 6.65657 16.3674 6.65657 16.8555 7.14472C17.3437 7.63288 17.3437 8.42433 16.8555 8.91249C16.4929 9.27513 15.9628 9.36837 15.5141 9.19221L12.0502 12.6561C11.9053 12.801 12.0462 13.0441 12.244 12.9905L18.5383 11.2845C18.888 11.1897 19.1591 10.9131 19.2469 10.5615L20.0207 7.46143C20.1057 7.12076 20.0058 6.76044 19.7575 6.51216L17.4868 4.24143C17.2385 3.99313 16.8782 3.89326 16.5375 3.97832Z" fill="currentColor"/>
</svg>
