<svg width="24" height="24" viewBox="0 0 24 24" fill="none" xmlns="http://www.w3.org/2000/svg">
<path fill-rule="evenodd" clip-rule="evenodd" d="M18.5455 4.17536H13.182L12.3632 2.41794C11.9602 1.55301 11.0925 1 10.1383 1H5.45461C4.09899 1 3.00005 2.09894 3.00005 3.45456V4.17536L3 13.6429C3 14.9986 4.09894 16.0975 5.45456 16.0975H11V17.1707C10.1476 17.472 9.47199 18.1476 9.17071 19H4C3.44772 19 3 19.4477 3 20C3 20.5523 3.44772 21 4 21H9.17071C9.58254 22.1652 10.6938 23 12 23C13.3062 23 14.4175 22.1652 14.8293 21H20C20.5523 21 21 20.5523 21 20C21 19.4477 20.5523 19 20 19H14.8293C14.528 18.1476 13.8524 17.472 13 17.1707V16.0975H18.5455C19.9012 16.0975 21.0001 14.9986 21.0001 13.6429V6.62992C21.0001 5.2743 19.9012 4.17536 18.5455 4.17536ZM12 19C11.4477 19 11 19.4477 11 20C11 20.5523 11.4477 21 12 21C12.5523 21 13 20.5523 13 20C13 19.4477 12.5523 19 12 19ZM16.339 10.1998V8.43185C16.339 8.3886 16.3606 8.36157 16.4038 8.35076C16.566 8.32372 16.7147 8.31021 16.8499 8.31021C17.6663 8.31021 18.0745 8.63189 18.0745 9.27527C18.0745 9.59966 17.9663 9.85377 17.7501 10.0376C17.5392 10.216 17.2391 10.3052 16.8499 10.3052C16.7417 10.3052 16.5958 10.2944 16.4119 10.2728C16.3633 10.262 16.339 10.2376 16.339 10.1998ZM15.1225 13.1274C15.2144 13.2193 15.3225 13.2653 15.4469 13.2653H15.8767C16.0011 13.2653 16.1092 13.2193 16.2011 13.1274C16.293 13.0355 16.339 12.9274 16.339 12.803V11.3595C16.339 11.3162 16.3633 11.2946 16.4119 11.2946C16.5904 11.3108 16.7823 11.3189 16.9877 11.3189C17.7663 11.3189 18.3556 11.1405 18.7557 10.7837C19.1612 10.4215 19.3639 9.89161 19.3639 9.19417C19.3639 7.90742 18.4989 7.26405 16.7688 7.26405C16.3417 7.26405 15.8983 7.28567 15.4388 7.32892C15.309 7.33974 15.2009 7.39651 15.1144 7.49923C15.0279 7.60195 14.9846 7.71819 14.9846 7.84795V12.803C14.9846 12.9274 15.0306 13.0355 15.1225 13.1274ZM9.71327 8.48857C9.58893 8.48857 9.48079 8.44261 9.38888 8.3507C9.29697 8.25879 9.25102 8.15066 9.25102 8.02631V7.80735C9.25102 7.683 9.29697 7.57486 9.38888 7.48295C9.48079 7.39104 9.58893 7.34509 9.71327 7.34509H13.4924C13.6168 7.34509 13.7249 7.39104 13.8168 7.48295C13.9087 7.57486 13.9547 7.683 13.9547 7.80735V8.02631C13.9547 8.15066 13.9087 8.25879 13.8168 8.3507C13.7249 8.44261 13.6168 8.48857 13.4924 8.48857H12.3733C12.33 8.48857 12.3084 8.51019 12.3084 8.55344V12.803C12.3084 12.9273 12.2624 13.0354 12.1705 13.1274C12.0786 13.2193 11.9705 13.2652 11.8461 13.2652H11.3596C11.2352 13.2652 11.1271 13.2193 11.0352 13.1274C10.9433 13.0354 10.8973 12.9273 10.8973 12.803V8.55344C10.8973 8.51019 10.8757 8.48857 10.8324 8.48857H9.71327ZM4.77432 13.1274C4.86623 13.2193 4.97436 13.2652 5.09871 13.2652H5.56096C5.68531 13.2652 5.79074 13.2193 5.87725 13.1274C5.96916 13.0354 6.01511 12.9273 6.01511 12.803V10.9134C6.01511 10.8647 6.03944 10.8404 6.0881 10.8404H7.71816C7.84251 10.8404 7.95064 10.7971 8.04256 10.7106C8.13447 10.6187 8.18042 10.5106 8.18042 10.3863V10.2565C8.18042 10.1321 8.13447 10.0267 8.04256 9.94022C7.95064 9.84831 7.84251 9.80235 7.71816 9.80235H6.0881C6.03944 9.80235 6.01511 9.77802 6.01511 9.72936V8.52101C6.01511 8.47775 6.03944 8.45613 6.0881 8.45613H7.88036C8.00471 8.45613 8.11284 8.41017 8.20475 8.31826C8.29666 8.22635 8.34262 8.11822 8.34262 7.99387V7.80735C8.34262 7.683 8.29666 7.57486 8.20475 7.48295C8.11284 7.39104 8.00471 7.34509 7.88036 7.34509H5.09871C4.97436 7.34509 4.86623 7.39104 4.77432 7.48295C4.6824 7.57486 4.63645 7.683 4.63645 7.80735V12.803C4.63645 12.9273 4.6824 13.0354 4.77432 13.1274Z" fill="currentColor"/>
</svg>
