<svg width="24" height="24" viewBox="0 0 24 24" fill="none" xmlns="http://www.w3.org/2000/svg">
<path fill-rule="evenodd" clip-rule="evenodd" d="M6.99997 3.45455V16.5455C6.99997 17.9011 8.09891 19 9.45451 19H18.5427C19.8983 19 20.9973 17.9011 20.9973 16.5455V6.98906C20.9973 6.55917 20.8281 6.14655 20.5263 5.84038L16.2361 1.48768C15.9286 1.17567 15.5088 1 15.0707 1H9.45451C8.09891 1 6.99997 2.09894 6.99997 3.45455ZM16.0881 2.63632V5.09086C16.0881 5.54273 16.4545 5.90904 16.9063 5.90904H19.3609L16.0881 2.63632ZM8.99997 8.36371C8.99997 7.91184 9.36629 7.54553 9.81815 7.54553H12.1818C12.6337 7.54553 13 7.91184 13 8.36371C13 8.81558 12.6337 9.18189 12.1818 9.18189H9.81815C9.36629 9.18189 8.99997 8.81558 8.99997 8.36371ZM8.99997 11.6364C8.99997 11.1845 9.36629 10.8182 9.81815 10.8182H18.1818C18.6337 10.8182 19 11.1845 19 11.6364C19 12.0883 18.6337 12.4546 18.1818 12.4546H9.81816C9.36629 12.4546 8.99997 12.0883 8.99997 11.6364ZM9.81815 14.0909C9.36629 14.0909 8.99997 14.4572 8.99997 14.9091C8.99997 15.361 9.36629 15.7273 9.81816 15.7273H18.1818C18.6337 15.7273 19 15.361 19 14.9091C19 14.4572 18.6337 14.0909 18.1818 14.0909H9.81815ZM3 7.45455V20.5455C3 21.9011 4.09894 23 5.45455 23H7H14.5427C15.8983 23 16.9973 21.9011 16.9973 20.5455V20H7.63636C6.73263 20 6 19.2674 6 18.3636V5H5.45455C4.09894 5 3 6.09894 3 7.45455Z" fill="currentColor"/>
</svg>
