<svg width="24" height="24" viewBox="0 0 24 24" fill="none" xmlns="http://www.w3.org/2000/svg">
<path d="M7.00023 20.6603C5.63829 19.9174 4.62649 18.6648 4.18669 17.1771C3.74688 15.6894 3.91497 14.0879 4.65408 12.724L9.73908 3.91648C10.3246 2.96 11.2652 2.27445 12.355 2.00987C13.4448 1.7453 14.5951 1.92326 15.554 2.5048C16.5399 3.04299 17.2719 3.9504 17.5895 5.02783C17.907 6.10525 17.784 7.26464 17.2475 8.25148L12.1575 17.0676C11.7822 17.6345 11.2048 18.0369 10.543 18.1926C9.88127 18.3484 9.185 18.2459 8.59623 17.906C8.00745 17.566 7.57053 17.0143 7.37456 16.3633C7.17859 15.7123 7.23833 15.0111 7.54161 14.4026L12.2366 6.27064C12.3692 6.04096 12.5876 5.87336 12.8438 5.80472C13.1 5.73607 13.3729 5.77201 13.6026 5.90462C13.8323 6.03722 13.9999 6.25564 14.0686 6.51182C14.1372 6.768 14.1013 7.04096 13.9687 7.27064L9.27366 15.4026C9.20976 15.5532 9.20314 15.7219 9.25504 15.877C9.30694 16.0321 9.41378 16.1628 9.55541 16.2446C9.69705 16.3264 9.8637 16.3535 10.024 16.3209C10.1842 16.2883 10.327 16.1982 10.4255 16.0676L15.5155 7.25148C15.7843 6.72361 15.8342 6.11099 15.6542 5.54659C15.4742 4.9822 15.0788 4.51157 14.554 4.23685C14.0537 3.92285 13.4501 3.81812 12.8734 3.94528C12.2966 4.07243 11.793 4.42126 11.4711 4.91648L6.38613 13.724C5.91197 14.6285 5.8156 15.6841 6.11813 16.6595C6.42066 17.635 7.09744 18.4508 8.00023 18.9283C8.86514 19.4714 9.91003 19.6496 10.9061 19.4238C11.9021 19.1981 12.7681 18.5869 13.3143 17.724L18.3993 8.91648C18.5319 8.6868 18.7504 8.5192 19.0065 8.45056C19.2627 8.38191 19.5357 8.41785 19.7654 8.55046C19.995 8.68306 20.1626 8.90148 20.2313 9.15766C20.2999 9.41384 20.264 9.6868 20.1314 9.91648L15.0464 18.724C14.2347 20.046 12.9319 20.9923 11.4236 21.3553C9.91525 21.7183 8.32455 21.4683 7.00023 20.6603Z" fill="currentColor"/>
</svg>
