<svg width="24" height="24" viewBox="0 0 24 24" fill="none" xmlns="http://www.w3.org/2000/svg">
<path fill-rule="evenodd" clip-rule="evenodd" d="M3 20V4C3 2.34315 4.34315 1 6 1H13.7564C14.2919 1 14.805 1.21471 15.1808 1.59605L20.4244 6.91602C20.7932 7.29023 21 7.79454 21 8.31997V20C21 21.6569 19.6569 23 18 23H6C4.34315 23 3 21.6569 3 20ZM15 6V3L19 7H16C15.4477 7 15 6.55228 15 6ZM11.75 19.5C12.6305 19.5 13.452 19.2471 14.1457 18.81L15.0429 19.7071C15.4334 20.0976 16.0666 20.0976 16.4571 19.7071C16.8476 19.3166 16.8476 18.6834 16.4571 18.2929L15.56 17.3957C15.9971 16.702 16.25 15.8805 16.25 15C16.25 12.5147 14.2353 10.5 11.75 10.5C9.26472 10.5 7.25 12.5147 7.25 15C7.25 17.4853 9.26472 19.5 11.75 19.5ZM11.75 17.5C13.1307 17.5 14.25 16.3807 14.25 15C14.25 13.6193 13.1307 12.5 11.75 12.5C10.3693 12.5 9.25 13.6193 9.25 15C9.25 16.3807 10.3693 17.5 11.75 17.5Z" fill="currentColor"/>
</svg>
