<svg width="24" height="24" viewBox="0 0 24 24" fill="none" xmlns="http://www.w3.org/2000/svg">
<path fill-rule="evenodd" clip-rule="evenodd" d="M3 20V4C3 2.34315 4.34315 1 6 1H13.7564C14.2919 1 14.805 1.21471 15.1808 1.59605L20.4244 6.91602C20.7932 7.29023 21 7.79454 21 8.31997V20C21 21.6569 19.6569 23 18 23H6C4.34315 23 3 21.6569 3 20ZM15 6V3L19 7H16C15.4477 7 15 6.55228 15 6ZM18.1595 19.3792L13.7285 13.432C13.5701 13.2193 13.2499 13.2241 13.0979 13.4414L10.7824 16.7523L9.24303 14.9564C9.0725 14.7575 8.75802 14.7807 8.61852 15.0025L5.85004 19.4045C5.68716 19.6635 5.8733 20.0005 6.17926 20.0005H9.2572H12.7209H17.8477C18.1676 20.0005 18.3507 19.6358 18.1595 19.3792ZM8.04431 12C6.93974 12 6.04431 11.1046 6.04431 10C6.04431 8.89543 6.93974 8 8.04431 8C9.14888 8 10.0443 8.89543 10.0443 10C10.0443 11.1046 9.14888 12 8.04431 12Z" fill="currentColor"/>
</svg>
