<svg width="24" height="24" viewBox="0 0 24 24" fill="none" xmlns="http://www.w3.org/2000/svg">
<path fill-rule="evenodd" clip-rule="evenodd" d="M3 20V4C3 2.34315 4.34315 1 6 1H13.7564C14.2919 1 14.805 1.21471 15.1808 1.59605L20.4244 6.91602C20.7932 7.29023 21 7.79454 21 8.31997V20C21 21.6569 19.6569 23 18 23H6C4.34315 23 3 21.6569 3 20ZM15 6V3L19 7H16C15.4477 7 15 6.55228 15 6ZM15.9571 14.2071C16.3476 13.8166 16.3476 13.1834 15.9571 12.7929C15.5666 12.4024 14.9334 12.4024 14.5429 12.7929L10.75 16.5858L9.45711 15.2929C9.06658 14.9024 8.43342 14.9024 8.04289 15.2929C7.65237 15.6834 7.65237 16.3166 8.04289 16.7071L10.0429 18.7071C10.4334 19.0976 11.0666 19.0976 11.4571 18.7071L15.9571 14.2071Z" fill="currentColor"/>
</svg>
