<svg width="24" height="24" viewBox="0 0 24 24" fill="none" xmlns="http://www.w3.org/2000/svg">
<path fill-rule="evenodd" clip-rule="evenodd" d="M3 20V4C3 2.34315 4.34315 1 6 1H13.7564C14.2919 1 14.805 1.21471 15.1808 1.59605L20.4244 6.91602C20.7932 7.29023 21 7.79454 21 8.31997V20C21 21.6569 19.6569 23 18 23H6C4.34315 23 3 21.6569 3 20ZM14 7V3L19 8H15C14.4477 8 14 7.55228 14 7ZM15.3714 12.0715C15.751 12.2234 16 12.5911 16 13V15.5C16 16.9815 14.9221 18.1166 14.1402 18.7682C13.7174 19.1206 13.2997 19.3985 12.9902 19.5877C12.8344 19.6829 12.7033 19.7572 12.6092 19.8087C12.5621 19.8345 12.5241 19.8547 12.4966 19.8691L12.4635 19.8862L12.4532 19.8914L12.4496 19.8932L12.4483 19.8939L12.4472 19.8944C12.1657 20.0352 11.8338 20.0349 11.5523 19.8942L11.5504 19.8932L11.5468 19.8914L11.5365 19.8862L11.5034 19.8691C11.4759 19.8547 11.4379 19.8345 11.3908 19.8087C11.2967 19.7572 11.1656 19.6829 11.0098 19.5877C10.7003 19.3985 10.2826 19.1206 9.85982 18.7682C9.07793 18.1166 8 16.9815 8 15.5V13C8 12.5911 8.24895 12.2234 8.62861 12.0715L8.65893 12.0594L8.74153 12.0268C8.81254 11.9988 8.91413 11.9589 9.03744 11.9112C9.28361 11.8159 9.61852 11.6883 9.97076 11.5602C10.3208 11.4329 10.6982 11.3014 11.0262 11.2005C11.1897 11.1502 11.3519 11.104 11.4985 11.0696C11.623 11.0403 11.8133 11 12 11C12.1867 11 12.377 11.0403 12.5015 11.0696C12.6481 11.104 12.8103 11.1502 12.9738 11.2005C13.3018 11.3014 13.6792 11.4329 14.0292 11.5602C14.3815 11.6883 14.7164 11.8159 14.9626 11.9112C15.0859 11.9589 15.1875 11.9988 15.2585 12.0268L15.3411 12.0594L15.3714 12.0715Z" fill="currentColor"/>
</svg>
