<svg width="24" height="24" viewBox="0 0 24 24" fill="none" xmlns="http://www.w3.org/2000/svg">
<path fill-rule="evenodd" clip-rule="evenodd" d="M3 20V4C3 2.34315 4.34315 1 6 1H13.7564C14.2919 1 14.805 1.21471 15.1808 1.59605L20.4244 6.91602C20.7932 7.29023 21 7.79454 21 8.31997V20C21 21.6569 19.6569 23 18 23H6C4.34315 23 3 21.6569 3 20ZM15 6V3L19 7H16C15.4477 7 15 6.55228 15 6ZM12 11C12.5523 11 13 11.4477 13 12V14H15C15.5523 14 16 14.4477 16 15C16 15.5523 15.5523 16 15 16H13V18C13 18.5523 12.5523 19 12 19C11.4477 19 11 18.5523 11 18V16H9C8.44772 16 8 15.5523 8 15C8 14.4477 8.44772 14 9 14H11V12C11 11.4477 11.4477 11 12 11Z" fill="currentColor"/>
</svg>
