<svg width="24" height="24" viewBox="0 0 24 24" fill="none" xmlns="http://www.w3.org/2000/svg">
<path fill-rule="evenodd" clip-rule="evenodd" d="M3 4V20C3 21.6569 4.34315 23 6 23H18C19.6569 23 21 21.6569 21 20V8.31997C21 7.79454 20.7932 7.29023 20.4244 6.91602L15.1808 1.59605C14.805 1.21471 14.2919 1 13.7564 1H6C4.34315 1 3 2.34315 3 4ZM15 3V6C15 6.55228 15.4477 7 16 7H19L15 3ZM6 8C6 7.44772 6.44772 7 7 7H7.00915H7.01827H7.02739H7.03649H7.04557H7.05464H7.06369H7.07273H7.08175H7.09075H7.09975H7.10872H7.11768H7.12663H7.13556H7.14448H7.15338H7.16227H7.17114H7.18H7.18884H7.19767H7.20649H7.21529H7.22407H7.23285H7.2416H7.25035H7.25908H7.2678H7.2765H7.28519H7.29386H7.30252H7.31117H7.3198H7.32842H7.33703H7.34562H7.3542H7.36277H7.37133H7.37987H7.38839H7.39691H7.40541H7.4139H7.42238H7.43084H7.43929H7.44773H7.45615H7.46457H7.47297H7.48135H7.48973H7.49809H7.50644H7.51478H7.52311H7.53142H7.53973H7.54802H7.5563H7.56456H7.57282H7.58106H7.5893H7.59752H7.60573H7.61392H7.62211H7.63029H7.63845H7.6466H7.65475H7.66288H7.671H7.67911H7.6872H7.69529H7.70337H7.71143H7.71949H7.72753H7.73557H7.74359H7.7516H7.75961H7.7676H7.77558H7.78356H7.79152H7.79947H7.80741H7.81535H7.82327H7.83118H7.83908H7.84698H7.85486H7.86274H7.8706H7.87846H7.8863H7.89414H7.90197H7.90979H7.9176H7.9254H7.93319H7.94097H7.94875H7.95651H7.96427H7.97202H7.97976H7.98749H7.99521H8.00292H8.01063H8.01833H8.02602H8.0337H8.04137H8.04903H8.05669H8.06434H8.07198H8.07961H8.08724H8.09486H8.10247H8.11007H8.11767H8.12525H8.13283H8.14041H8.14797H8.15553H8.16308H8.17063H8.17816H8.1857H8.19322H8.20074H8.20825H8.21575H8.22325H8.23074H8.23822H8.2457H8.25317H8.26063H8.26809H8.27554H8.28299H8.29043H8.29786H8.30529H8.31271H8.32013H8.32754H8.33495H8.34234H8.34974H8.35713H8.36451H8.37189H8.37926H8.38662H8.39399H8.40134H8.40869H8.41604H8.42338H8.43072H8.43805H8.44537H8.4527H8.46001H8.46733H8.47463H8.48194H8.48924H8.49653H8.50382H8.51111H8.51839H8.52567H8.53294H8.54021H8.54748H8.55474H8.562H8.56925H8.5765H8.58375H8.591H8.59824H8.60547H8.61271H8.61994H8.62716H8.63439H8.64161H8.64882H8.65604H8.66325H8.67046H8.67766H8.68487H8.69207H8.69927H8.70646H8.71365H8.72084H8.72803H8.73522H8.7424H8.74958H8.75676H8.76394H8.77111H8.77828H8.78546H8.79262H8.79979H8.80696H8.81412H8.82128H8.82844H8.8356H8.84276H8.84992H8.85707H8.86423H8.87138H8.87853H8.88568H8.89283H8.89998H8.90713H8.91427H8.92142H8.92857H8.93571H8.94286H8.95H8.95714H8.96429H8.97143H8.97857H8.98572H8.99286H9H9.00714H9.01428H9.02143H9.02857H9.03571H9.04286H9.05H9.05714H9.06429H9.07143H9.07858H9.08573H9.09287H9.10002H9.10717H9.11432H9.12147H9.12862H9.13577H9.14293H9.15008H9.15724H9.1644H9.17156H9.17872H9.18588H9.19304H9.20021H9.20738H9.21455H9.22172H9.22889H9.23606H9.24324H9.25042H9.2576H9.26478H9.27197H9.27916H9.28635H9.29354H9.30073H9.30793H9.31513H9.32234H9.32954H9.33675H9.34396H9.35118H9.35839H9.36561H9.37284H9.38006H9.38729H9.39453H9.40176H9.409H9.41625H9.4235H9.43075H9.438H9.44526H9.45252H9.45979H9.46706H9.47433H9.48161H9.48889H9.49618H9.50347H9.51076H9.51806H9.52537H9.53267H9.53999H9.5473H9.55463H9.56195H9.56928H9.57662H9.58396H9.59131H9.59866H9.60601H9.61338H9.62074H9.62811H9.63549H9.64287H9.65026H9.65766H9.66505H9.67246H9.67987H9.68729H9.69471H9.70214H9.70957H9.71701H9.72446H9.73191H9.73937H9.74683H9.7543H9.76178H9.76926H9.77675H9.78425H9.79175H9.79926H9.80678H9.8143H9.82184H9.82937H9.83692H9.84447H9.85203H9.85959H9.86717H9.87475H9.88233H9.88993H9.89753H9.90514H9.91276H9.92039H9.92802H9.93566H9.94331H9.95097H9.95863H9.9663H9.97398H9.98167H9.98937H9.99708H10.0048H10.0125H10.0202H10.028H10.0357H10.0435H10.0513H10.059H10.0668H10.0746H10.0824H10.0902H10.098H10.1059H10.1137H10.1215H10.1294H10.1373H10.1451H10.153H10.1609H10.1688H10.1767H10.1847H10.1926H10.2005H10.2085H10.2164H10.2244H10.2324H10.2404H10.2484H10.2564H10.2644H10.2725H10.2805H10.2886H10.2966H10.3047H10.3128H10.3209H10.329H10.3371H10.3453H10.3534H10.3615H10.3697H10.3779H10.3861H10.3943H10.4025H10.4107H10.4189H10.4272H10.4354H10.4437H10.452H10.4603H10.4686H10.4769H10.4852H10.4936H10.5019H10.5103H10.5186H10.527H10.5354H10.5438H10.5523H10.5607H10.5692H10.5776H10.5861H10.5946H10.6031H10.6116H10.6201H10.6287H10.6372H10.6458H10.6544H10.663H10.6716H10.6802H10.6888H10.6975H10.7061H10.7148H10.7235H10.7322H10.7409H10.7497H10.7584H10.7672H10.7759H10.7847H10.7935H10.8023H10.8112H10.82H10.8289H10.8377H10.8466H10.8555H10.8644H10.8734H10.8823H10.8913H10.9003H10.9092H10.9183H10.9273H10.9363H10.9454H10.9544H10.9635H10.9726H10.9817H10.9909H11C11.5523 7 12 7.44772 12 8C12 8.55228 11.5523 9 11 9H10.9909H10.9817H10.9726H10.9635H10.9544H10.9454H10.9363H10.9273H10.9183H10.9092H10.9003H10.8913H10.8823H10.8734H10.8644H10.8555H10.8466H10.8377H10.8289H10.82H10.8112H10.8023H10.7935H10.7847H10.7759H10.7672H10.7584H10.7497H10.7409H10.7322H10.7235H10.7148H10.7061H10.6975H10.6888H10.6802H10.6716H10.663H10.6544H10.6458H10.6372H10.6287H10.6201H10.6116H10.6031H10.5946H10.5861H10.5776H10.5692H10.5607H10.5523H10.5438H10.5354H10.527H10.5186H10.5103H10.5019H10.4936H10.4852H10.4769H10.4686H10.4603H10.452H10.4437H10.4354H10.4272H10.4189H10.4107H10.4025H10.3943H10.3861H10.3779H10.3697H10.3615H10.3534H10.3453H10.3371H10.329H10.3209H10.3128H10.3047H10.2966H10.2886H10.2805H10.2725H10.2644H10.2564H10.2484H10.2404H10.2324H10.2244H10.2164H10.2085H10.2005H10.1926H10.1847H10.1767H10.1688H10.1609H10.153H10.1451H10.1373H10.1294H10.1215H10.1137H10.1059H10.098H10.0902H10.0824H10.0746H10.0668H10.059H10.0513H10.0435H10.0357H10.028H10.0202H10.0125H10.0048H9.99708H9.98937H9.98167H9.97398H9.9663H9.95863H9.95097H9.94331H9.93566H9.92802H9.92039H9.91276H9.90514H9.89753H9.88993H9.88233H9.87475H9.86717H9.85959H9.85203H9.84447H9.83692H9.82937H9.82184H9.8143H9.80678H9.79926H9.79175H9.78425H9.77675H9.76926H9.76178H9.7543H9.74683H9.73937H9.73191H9.72446H9.71701H9.70957H9.70214H9.69471H9.68729H9.67987H9.67246H9.66505H9.65766H9.65026H9.64287H9.63549H9.62811H9.62074H9.61338H9.60601H9.59866H9.59131H9.58396H9.57662H9.56928H9.56195H9.55463H9.5473H9.53999H9.53267H9.52537H9.51806H9.51076H9.50347H9.49618H9.48889H9.48161H9.47433H9.46706H9.45979H9.45252H9.44526H9.438H9.43075H9.4235H9.41625H9.409H9.40176H9.39453H9.38729H9.38006H9.37284H9.36561H9.35839H9.35118H9.34396H9.33675H9.32954H9.32234H9.31513H9.30793H9.30073H9.29354H9.28635H9.27916H9.27197H9.26478H9.2576H9.25042H9.24324H9.23606H9.22889H9.22172H9.21455H9.20738H9.20021H9.19304H9.18588H9.17872H9.17156H9.1644H9.15724H9.15008H9.14293H9.13577H9.12862H9.12147H9.11432H9.10717H9.10002H9.09287H9.08573H9.07858H9.07143H9.06429H9.05714H9.05H9.04286H9.03571H9.02857H9.02143H9.01428H9.00714H9H8.99286H8.98572H8.97857H8.97143H8.96429H8.95714H8.95H8.94286H8.93571H8.92857H8.92142H8.91427H8.90713H8.89998H8.89283H8.88568H8.87853H8.87138H8.86423H8.85707H8.84992H8.84276H8.8356H8.82844H8.82128H8.81412H8.80696H8.79979H8.79262H8.78546H8.77828H8.77111H8.76394H8.75676H8.74958H8.7424H8.73522H8.72803H8.72084H8.71365H8.70646H8.69927H8.69207H8.68487H8.67766H8.67046H8.66325H8.65604H8.64882H8.64161H8.63439H8.62716H8.61994H8.61271H8.60547H8.59824H8.591H8.58375H8.5765H8.56925H8.562H8.55474H8.54748H8.54021H8.53294H8.52567H8.51839H8.51111H8.50382H8.49653H8.48924H8.48194H8.47463H8.46733H8.46001H8.4527H8.44537H8.43805H8.43072H8.42338H8.41604H8.40869H8.40134H8.39399H8.38662H8.37926H8.37189H8.36451H8.35713H8.34974H8.34234H8.33495H8.32754H8.32013H8.31271H8.30529H8.29786H8.29043H8.28299H8.27554H8.26809H8.26063H8.25317H8.2457H8.23822H8.23074H8.22325H8.21575H8.20825H8.20074H8.19322H8.1857H8.17816H8.17063H8.16308H8.15553H8.14797H8.14041H8.13283H8.12525H8.11767H8.11007H8.10247H8.09486H8.08724H8.07961H8.07198H8.06434H8.05669H8.04903H8.04137H8.0337H8.02602H8.01833H8.01063H8.00292H7.99521H7.98749H7.97976H7.97202H7.96427H7.95651H7.94875H7.94097H7.93319H7.9254H7.9176H7.90979H7.90197H7.89414H7.8863H7.87846H7.8706H7.86274H7.85486H7.84698H7.83908H7.83118H7.82327H7.81535H7.80741H7.79947H7.79152H7.78356H7.77558H7.7676H7.75961H7.7516H7.74359H7.73557H7.72753H7.71949H7.71143H7.70337H7.69529H7.6872H7.67911H7.671H7.66288H7.65475H7.6466H7.63845H7.63029H7.62211H7.61392H7.60573H7.59752H7.5893H7.58106H7.57282H7.56456H7.5563H7.54802H7.53973H7.53142H7.52311H7.51478H7.50644H7.49809H7.48973H7.48135H7.47297H7.46457H7.45615H7.44773H7.43929H7.43084H7.42238H7.4139H7.40541H7.39691H7.38839H7.37987H7.37133H7.36277H7.3542H7.34562H7.33703H7.32842H7.3198H7.31117H7.30252H7.29386H7.28519H7.2765H7.2678H7.25908H7.25035H7.2416H7.23285H7.22407H7.21529H7.20649H7.19767H7.18884H7.18H7.17114H7.16227H7.15338H7.14448H7.13556H7.12663H7.11768H7.10872H7.09975H7.09075H7.08175H7.07273H7.06369H7.05464H7.04557H7.03649H7.02739H7.01827H7.00915H7C6.44772 9 6 8.55228 6 8ZM8 11C6.89543 11 6 11.8954 6 13V19C6 20.1046 6.89543 21 8 21H11H16C17.1046 21 18 20.1046 18 19V13C18 11.8954 17.1046 11 16 11H8ZM16 19H12V17H16V19ZM10 19V17H8V19H10ZM16 15H12V13H16V15ZM10 15V13H8V15H10Z" fill="currentColor"/>
</svg>
