<svg width="24" height="24" viewBox="0 0 24 24" fill="none" xmlns="http://www.w3.org/2000/svg">
<path fill-rule="evenodd" clip-rule="evenodd" d="M3 4V20C3 21.6569 4.34315 23 6 23H18C19.6569 23 21 21.6569 21 20V8.31997C21 7.79454 20.7932 7.29023 20.4244 6.91602L15.1808 1.59605C14.805 1.21471 14.2919 1 13.7564 1H6C4.34315 1 3 2.34315 3 4ZM15 3V6C15 6.55228 15.4477 7 16 7H19L15 3ZM7.84738 16.7453L7.55372 17.8974C7.23836 19.1346 8.36211 20.2583 9.59931 19.943L10.7514 19.6493C11.1419 19.5498 11.4984 19.3468 11.7833 19.0619L15.9492 14.896C16.6792 14.166 16.6792 12.9826 15.9492 12.2526L15.2441 11.5475C14.5141 10.8175 13.3307 10.8175 12.6007 11.5475L8.43482 15.7134C8.14985 15.9983 7.94693 16.3548 7.84738 16.7453ZM10.5843 18.1156C10.5527 18.1347 10.5197 18.1514 10.4856 18.1657C10.4521 18.1797 10.4175 18.1913 10.382 18.2004L9.56216 18.4093L9.22997 18.494C9.0925 18.5291 8.96764 18.4042 9.00268 18.2667L9.08736 17.9345L9.29634 17.1147C9.30538 17.0792 9.31698 17.0446 9.33099 17.0111C9.34524 16.9769 9.362 16.944 9.38111 16.9124C9.41214 16.8611 9.44937 16.8135 9.49215 16.7707L12.2736 13.9893L13.5074 15.2231L10.726 18.0045C10.6832 18.0473 10.6356 18.0845 10.5843 18.1156ZM14.5648 14.1658L14.8919 13.8386C15.0379 13.6926 15.0379 13.456 14.8919 13.31L14.1867 12.6048C14.0407 12.4588 13.804 12.4588 13.6581 12.6048L13.3309 12.9319L14.5648 14.1658Z" fill="currentColor"/>
</svg>
