<svg width="24" height="24" viewBox="0 0 24 24" fill="none" xmlns="http://www.w3.org/2000/svg">
<path fill-rule="evenodd" clip-rule="evenodd" d="M3 20V4C3 2.34315 4.34315 1 6 1H13.7564C14.2919 1 14.805 1.21471 15.1808 1.59605L20.4244 6.91602C20.7932 7.29023 21 7.79454 21 8.31997V20C21 21.6569 19.6569 23 18 23H6C4.34315 23 3 21.6569 3 20ZM15 6V3L19 7H16C15.4477 7 15 6.55228 15 6ZM12.0002 12.6667C11.5095 12.6667 11.1261 12.9843 10.8946 13.4473C10.6477 13.9413 10.047 14.1415 9.55301 13.8945C9.05903 13.6475 8.8588 13.0468 9.10579 12.5529C9.54098 11.6825 10.4909 10.6667 12.0002 10.6667C12.7133 10.6667 13.4591 10.9033 14.0396 11.4193C14.6385 11.9517 15.0002 12.7287 15.0002 13.6667C15.0002 14.8643 14.1153 15.6252 13.5549 15.9988C13.2443 16.2059 12.9408 16.3569 12.7189 16.4556C12.6065 16.5055 12.5114 16.5436 12.4422 16.57C12.4074 16.5832 12.3789 16.5936 12.3577 16.6012L12.3313 16.6104L12.3224 16.6134L12.319 16.6146L12.3177 16.615L12.3164 16.6154C11.7925 16.7901 11.2262 16.5069 11.0515 15.983C10.8773 15.4601 11.1589 14.8951 11.6807 14.7192L11.6877 14.7167C11.6957 14.7139 11.7102 14.7086 11.7302 14.701C11.7702 14.6857 11.8315 14.6613 11.9066 14.6279C12.0597 14.5599 12.2562 14.4609 12.4455 14.3347C12.8851 14.0416 13.0002 13.8025 13.0002 13.6667C13.0002 13.2714 12.8619 13.0484 12.7109 12.9142C12.5414 12.7635 12.2871 12.6667 12.0002 12.6667ZM13 19C13 19.5523 12.5523 20 12 20C11.4477 20 11 19.5523 11 19C11 18.4477 11.4477 18 12 18C12.5523 18 13 18.4477 13 19Z" fill="currentColor"/>
</svg>
