<svg width="24" height="24" viewBox="0 0 24 24" fill="none" xmlns="http://www.w3.org/2000/svg">
<path fill-rule="evenodd" clip-rule="evenodd" d="M3 14.5858V4C3 2.34315 4.34315 1 6 1H13.7564C14.2919 1 14.805 1.21471 15.1808 1.59605L20.4244 6.91602C20.7932 7.29023 21 7.79454 21 8.31997V14.5858L19 16.5858L16.7071 14.2929C16.3166 13.9024 15.6834 13.9024 15.2929 14.2929L13 16.5858L10.7071 14.2929C10.3166 13.9024 9.68342 13.9024 9.29289 14.2929L7 16.5858L4.70711 14.2929C4.31658 13.9024 3.68342 13.9024 3.29289 14.2929L3 14.5858ZM3 17.4142V20C3 21.6569 4.34315 23 6 23H18C19.6569 23 21 21.6569 21 20V17.4142L19.7071 18.7071C19.3166 19.0976 18.6834 19.0976 18.2929 18.7071L16 16.4142L13.7071 18.7071C13.3166 19.0976 12.6834 19.0976 12.2929 18.7071L10 16.4142L7.70711 18.7071C7.31658 19.0976 6.68342 19.0976 6.29289 18.7071L4 16.4142L3 17.4142ZM15 6V3L19 7H16C15.4477 7 15 6.55228 15 6Z" fill="currentColor"/>
</svg>
