<svg width="24" height="24" viewBox="0 0 24 24" fill="none" xmlns="http://www.w3.org/2000/svg">
<path fill-rule="evenodd" clip-rule="evenodd" d="M3 20V4C3 2.34315 4.34315 1 6 1H13.7564C14.2919 1 14.805 1.21471 15.1808 1.59605L20.4244 6.91602C20.7932 7.29023 21 7.79454 21 8.31997V20C21 21.6569 19.6569 23 18 23H6C4.34315 23 3 21.6569 3 20ZM15 6V3L19 7H16C15.4477 7 15 6.55228 15 6ZM12 12C11.4477 12 11 12.4477 11 13V14H13V13C13 12.4477 12.5523 12 12 12ZM9 13V14C8.44772 14 8 14.4477 8 15V19C8 19.5523 8.44772 20 9 20H15C15.5523 20 16 19.5523 16 19V15C16 14.4477 15.5523 14 15 14V13C15 11.3431 13.6569 10 12 10C10.3431 10 9 11.3431 9 13Z" fill="currentColor"/>
</svg>
