<svg width="24" height="24" viewBox="0 0 24 24" fill="none" xmlns="http://www.w3.org/2000/svg">
<path fill-rule="evenodd" clip-rule="evenodd" d="M3 20V4C3 2.34315 4.34315 1 6 1H13.7564C14.2919 1 14.805 1.21471 15.1808 1.59605L20.4244 6.91602C20.7932 7.29023 21 7.79454 21 8.31997V20C21 21.6569 19.6569 23 18 23H6C4.34315 23 3 21.6569 3 20ZM15 6V3L19 7H16C15.4477 7 15 6.55228 15 6ZM13.5 11C13.2239 11 13 11.2239 13 11.5V17C13 17.5523 12.5523 18 12 18C11.4477 18 11 17.5523 11 17V11.5C11 10.1193 12.1193 9 13.5 9C14.8807 9 16 10.1193 16 11.5V17C16 19.2091 14.2091 21 12 21C9.79086 21 8 19.2091 8 17V13C8 12.4477 8.44772 12 9 12C9.55228 12 10 12.4477 10 13V17C10 18.1046 10.8954 19 12 19C13.1046 19 14 18.1046 14 17V11.5C14 11.2239 13.7761 11 13.5 11Z" fill="currentColor"/>
</svg>
