<svg width="24" height="24" viewBox="0 0 24 24" fill="none" xmlns="http://www.w3.org/2000/svg">
<path fill-rule="evenodd" clip-rule="evenodd" d="M7 6C7 5.66345 6.94458 5.33985 6.84237 5.03781L6.82929 5H17C17.5523 5 18 5.44772 18 6V15H11.0001H11C10.4477 15 10.0001 15.4477 10 15.9999V15.9999V16L9.99986 18C9.99986 18.2652 9.89451 18.5195 9.70697 18.7071C9.51943 18.8946 9.26508 19 8.99986 19L8.9898 19H8C7.44772 19 7 18.5523 7 18V7V6ZM11.8283 19H19H20C20.5523 19 21 18.5523 21 18V17H11.9999L11.9999 18C11.9999 18.3439 11.9408 18.6818 11.8283 19ZM1 6C1 4.34315 2.34315 3 4 3H17C18.6569 3 20 4.34315 20 6V15H21C22.1046 15 23 15.8954 23 17V18C23 19.6569 21.6569 21 20 21H19H9H8C6.34315 21 5 19.6569 5 18V7V6C5 5.44772 4.55228 5 4 5C3.44772 5 3 5.44772 3 6V7H4V9H2.5C1.67157 9 1 8.32843 1 7.5V6ZM16 8C16 7.44772 15.5523 7 15 7H10C9.44772 7 9 7.44772 9 8C9 8.55228 9.44772 9 10 9H15C15.5523 9 16 8.55228 16 8ZM13 11C13.5523 11 14 11.4477 14 12C14 12.5523 13.5523 13 13 13H10C9.44772 13 9 12.5523 9 12C9 11.4477 9.44772 11 10 11H13Z" fill="currentColor"/>
</svg>
