<svg width="24" height="24" viewBox="0 0 24 24" fill="none" xmlns="http://www.w3.org/2000/svg">
<path fill-rule="evenodd" clip-rule="evenodd" d="M5 22C3.34315 22 2 20.6569 2 19V5C2 3.34315 3.34315 2 5 2H19C20.6569 2 22 3.34315 22 5V10.7574C22 11.553 21.6839 12.3161 21.1213 12.8787L17 17L12.8787 21.1213C12.3161 21.6839 11.553 22 10.7574 22H5ZM12.8536 19.1464L19.1464 12.8536C19.4614 12.5386 19.2383 12 18.7929 12H12.5C12.2239 12 12 12.2239 12 12.5V18.7929C12 19.2383 12.5386 19.4614 12.8536 19.1464Z" fill="currentColor"/>
</svg>
